<?xml version="1.0" encoding="utf-8"?>
<svg xmlns="http://www.w3.org/2000/svg" xmlns:xlink="http://www.w3.org/1999/xlink" width="600" height="400" viewBox="0 0 2400 1600">
<defs>
  <clipPath id="clip150">
    <rect x="0" y="0" width="2400" height="1600"/>
  </clipPath>
</defs>
<path clip-path="url(#clip150)" d="M0 1600 L2400 1600 L2400 0 L0 0  Z" fill="#ffffff" fill-rule="evenodd" fill-opacity="1"/>
<defs>
  <clipPath id="clip151">
    <rect x="480" y="0" width="1681" height="1600"/>
  </clipPath>
</defs>
<path clip-path="url(#clip150)" d="M178.867 1486.45 L2352.76 1486.45 L2352.76 47.2441 L178.867 47.2441  Z" fill="#ffffff" fill-rule="evenodd" fill-opacity="1"/>
<defs>
  <clipPath id="clip152">
    <rect x="178" y="47" width="2175" height="1440"/>
  </clipPath>
</defs>
<polyline clip-path="url(#clip152)" style="stroke:#000000; stroke-linecap:round; stroke-linejoin:round; stroke-width:2; stroke-opacity:0.1; fill:none" points="247.507,1486.45 247.507,47.2441 "/>
<polyline clip-path="url(#clip152)" style="stroke:#000000; stroke-linecap:round; stroke-linejoin:round; stroke-width:2; stroke-opacity:0.1; fill:none" points="586.942,1486.45 586.942,47.2441 "/>
<polyline clip-path="url(#clip152)" style="stroke:#000000; stroke-linecap:round; stroke-linejoin:round; stroke-width:2; stroke-opacity:0.1; fill:none" points="926.376,1486.45 926.376,47.2441 "/>
<polyline clip-path="url(#clip152)" style="stroke:#000000; stroke-linecap:round; stroke-linejoin:round; stroke-width:2; stroke-opacity:0.1; fill:none" points="1265.81,1486.45 1265.81,47.2441 "/>
<polyline clip-path="url(#clip152)" style="stroke:#000000; stroke-linecap:round; stroke-linejoin:round; stroke-width:2; stroke-opacity:0.1; fill:none" points="1605.25,1486.45 1605.25,47.2441 "/>
<polyline clip-path="url(#clip152)" style="stroke:#000000; stroke-linecap:round; stroke-linejoin:round; stroke-width:2; stroke-opacity:0.1; fill:none" points="1944.68,1486.45 1944.68,47.2441 "/>
<polyline clip-path="url(#clip152)" style="stroke:#000000; stroke-linecap:round; stroke-linejoin:round; stroke-width:2; stroke-opacity:0.1; fill:none" points="2284.12,1486.45 2284.12,47.2441 "/>
<polyline clip-path="url(#clip150)" style="stroke:#000000; stroke-linecap:round; stroke-linejoin:round; stroke-width:4; stroke-opacity:1; fill:none" points="178.867,1486.45 2352.76,1486.45 "/>
<polyline clip-path="url(#clip150)" style="stroke:#000000; stroke-linecap:round; stroke-linejoin:round; stroke-width:4; stroke-opacity:1; fill:none" points="247.507,1486.45 247.507,1467.55 "/>
<polyline clip-path="url(#clip150)" style="stroke:#000000; stroke-linecap:round; stroke-linejoin:round; stroke-width:4; stroke-opacity:1; fill:none" points="586.942,1486.45 586.942,1467.55 "/>
<polyline clip-path="url(#clip150)" style="stroke:#000000; stroke-linecap:round; stroke-linejoin:round; stroke-width:4; stroke-opacity:1; fill:none" points="926.376,1486.45 926.376,1467.55 "/>
<polyline clip-path="url(#clip150)" style="stroke:#000000; stroke-linecap:round; stroke-linejoin:round; stroke-width:4; stroke-opacity:1; fill:none" points="1265.81,1486.45 1265.81,1467.55 "/>
<polyline clip-path="url(#clip150)" style="stroke:#000000; stroke-linecap:round; stroke-linejoin:round; stroke-width:4; stroke-opacity:1; fill:none" points="1605.25,1486.45 1605.25,1467.55 "/>
<polyline clip-path="url(#clip150)" style="stroke:#000000; stroke-linecap:round; stroke-linejoin:round; stroke-width:4; stroke-opacity:1; fill:none" points="1944.68,1486.45 1944.68,1467.55 "/>
<polyline clip-path="url(#clip150)" style="stroke:#000000; stroke-linecap:round; stroke-linejoin:round; stroke-width:4; stroke-opacity:1; fill:none" points="2284.12,1486.45 2284.12,1467.55 "/>
<path clip-path="url(#clip150)" d="M201.569 1532.02 L231.245 1532.02 L231.245 1535.95 L201.569 1535.95 L201.569 1532.02 Z" fill="#000000" fill-rule="nonzero" fill-opacity="1" /><path clip-path="url(#clip150)" d="M255.504 1530.21 Q258.861 1530.93 260.736 1533.2 Q262.634 1535.47 262.634 1538.8 Q262.634 1543.92 259.115 1546.72 Q255.597 1549.52 249.115 1549.52 Q246.94 1549.52 244.625 1549.08 Q242.333 1548.66 239.879 1547.81 L239.879 1543.29 Q241.824 1544.43 244.139 1545.01 Q246.453 1545.58 248.977 1545.58 Q253.375 1545.58 255.666 1543.85 Q257.981 1542.11 257.981 1538.8 Q257.981 1535.75 255.828 1534.03 Q253.699 1532.3 249.879 1532.3 L245.852 1532.3 L245.852 1528.45 L250.065 1528.45 Q253.514 1528.45 255.342 1527.09 Q257.171 1525.7 257.171 1523.11 Q257.171 1520.45 255.273 1519.03 Q253.398 1517.6 249.879 1517.6 Q247.958 1517.6 245.759 1518.01 Q243.56 1518.43 240.921 1519.31 L240.921 1515.14 Q243.583 1514.4 245.898 1514.03 Q248.236 1513.66 250.296 1513.66 Q255.62 1513.66 258.722 1516.09 Q261.824 1518.5 261.824 1522.62 Q261.824 1525.49 260.18 1527.48 Q258.537 1529.45 255.504 1530.21 Z" fill="#000000" fill-rule="nonzero" fill-opacity="1" /><path clip-path="url(#clip150)" d="M281.5 1517.37 Q277.888 1517.37 276.06 1520.93 Q274.254 1524.47 274.254 1531.6 Q274.254 1538.71 276.06 1542.27 Q277.888 1545.82 281.5 1545.82 Q285.134 1545.82 286.939 1542.27 Q288.768 1538.71 288.768 1531.6 Q288.768 1524.47 286.939 1520.93 Q285.134 1517.37 281.5 1517.37 M281.5 1513.66 Q287.31 1513.66 290.365 1518.27 Q293.444 1522.85 293.444 1531.6 Q293.444 1540.33 290.365 1544.94 Q287.31 1549.52 281.5 1549.52 Q275.689 1549.52 272.611 1544.94 Q269.555 1540.33 269.555 1531.6 Q269.555 1522.85 272.611 1518.27 Q275.689 1513.66 281.5 1513.66 Z" fill="#000000" fill-rule="nonzero" fill-opacity="1" /><path clip-path="url(#clip150)" d="M541.004 1532.02 L570.68 1532.02 L570.68 1535.95 L541.004 1535.95 L541.004 1532.02 Z" fill="#000000" fill-rule="nonzero" fill-opacity="1" /><path clip-path="url(#clip150)" d="M584.8 1544.91 L601.12 1544.91 L601.12 1548.85 L579.175 1548.85 L579.175 1544.91 Q581.837 1542.16 586.421 1537.53 Q591.027 1532.88 592.208 1531.53 Q594.453 1529.01 595.333 1527.27 Q596.235 1525.51 596.235 1523.82 Q596.235 1521.07 594.291 1519.33 Q592.37 1517.6 589.268 1517.6 Q587.069 1517.6 584.615 1518.36 Q582.185 1519.13 579.407 1520.68 L579.407 1515.95 Q582.231 1514.82 584.685 1514.24 Q587.138 1513.66 589.175 1513.66 Q594.546 1513.66 597.74 1516.35 Q600.935 1519.03 600.935 1523.52 Q600.935 1525.65 600.124 1527.57 Q599.337 1529.47 597.231 1532.07 Q596.652 1532.74 593.55 1535.95 Q590.448 1539.15 584.8 1544.91 Z" fill="#000000" fill-rule="nonzero" fill-opacity="1" /><path clip-path="url(#clip150)" d="M620.934 1517.37 Q617.323 1517.37 615.495 1520.93 Q613.689 1524.47 613.689 1531.6 Q613.689 1538.71 615.495 1542.27 Q617.323 1545.82 620.934 1545.82 Q624.569 1545.82 626.374 1542.27 Q628.203 1538.71 628.203 1531.6 Q628.203 1524.47 626.374 1520.93 Q624.569 1517.37 620.934 1517.37 M620.934 1513.66 Q626.745 1513.66 629.8 1518.27 Q632.879 1522.85 632.879 1531.6 Q632.879 1540.33 629.8 1544.94 Q626.745 1549.52 620.934 1549.52 Q615.124 1549.52 612.046 1544.94 Q608.99 1540.33 608.99 1531.6 Q608.99 1522.85 612.046 1518.27 Q615.124 1513.66 620.934 1513.66 Z" fill="#000000" fill-rule="nonzero" fill-opacity="1" /><path clip-path="url(#clip150)" d="M880.439 1532.02 L910.115 1532.02 L910.115 1535.95 L880.439 1535.95 L880.439 1532.02 Z" fill="#000000" fill-rule="nonzero" fill-opacity="1" /><path clip-path="url(#clip150)" d="M921.018 1544.91 L928.656 1544.91 L928.656 1518.55 L920.346 1520.21 L920.346 1515.95 L928.61 1514.29 L933.286 1514.29 L933.286 1544.91 L940.925 1544.91 L940.925 1548.85 L921.018 1548.85 L921.018 1544.91 Z" fill="#000000" fill-rule="nonzero" fill-opacity="1" /><path clip-path="url(#clip150)" d="M960.369 1517.37 Q956.758 1517.37 954.93 1520.93 Q953.124 1524.47 953.124 1531.6 Q953.124 1538.71 954.93 1542.27 Q956.758 1545.82 960.369 1545.82 Q964.004 1545.82 965.809 1542.27 Q967.638 1538.71 967.638 1531.6 Q967.638 1524.47 965.809 1520.93 Q964.004 1517.37 960.369 1517.37 M960.369 1513.66 Q966.179 1513.66 969.235 1518.27 Q972.314 1522.85 972.314 1531.6 Q972.314 1540.33 969.235 1544.94 Q966.179 1549.52 960.369 1549.52 Q954.559 1549.52 951.48 1544.94 Q948.425 1540.33 948.425 1531.6 Q948.425 1522.85 951.48 1518.27 Q954.559 1513.66 960.369 1513.66 Z" fill="#000000" fill-rule="nonzero" fill-opacity="1" /><path clip-path="url(#clip150)" d="M1265.81 1517.37 Q1262.2 1517.37 1260.37 1520.93 Q1258.57 1524.47 1258.57 1531.6 Q1258.57 1538.71 1260.37 1542.27 Q1262.2 1545.82 1265.81 1545.82 Q1269.45 1545.82 1271.25 1542.27 Q1273.08 1538.71 1273.08 1531.6 Q1273.08 1524.47 1271.25 1520.93 Q1269.45 1517.37 1265.81 1517.37 M1265.81 1513.66 Q1271.62 1513.66 1274.68 1518.27 Q1277.76 1522.85 1277.76 1531.6 Q1277.76 1540.33 1274.68 1544.94 Q1271.62 1549.52 1265.81 1549.52 Q1260 1549.52 1256.92 1544.94 Q1253.87 1540.33 1253.87 1531.6 Q1253.87 1522.85 1256.92 1518.27 Q1260 1513.66 1265.81 1513.66 Z" fill="#000000" fill-rule="nonzero" fill-opacity="1" /><path clip-path="url(#clip150)" d="M1579.93 1544.91 L1587.57 1544.91 L1587.57 1518.55 L1579.26 1520.21 L1579.26 1515.95 L1587.53 1514.29 L1592.2 1514.29 L1592.2 1544.91 L1599.84 1544.91 L1599.84 1548.85 L1579.93 1548.85 L1579.93 1544.91 Z" fill="#000000" fill-rule="nonzero" fill-opacity="1" /><path clip-path="url(#clip150)" d="M1619.29 1517.37 Q1615.67 1517.37 1613.85 1520.93 Q1612.04 1524.47 1612.04 1531.6 Q1612.04 1538.71 1613.85 1542.27 Q1615.67 1545.82 1619.29 1545.82 Q1622.92 1545.82 1624.73 1542.27 Q1626.55 1538.71 1626.55 1531.6 Q1626.55 1524.47 1624.73 1520.93 Q1622.92 1517.37 1619.29 1517.37 M1619.29 1513.66 Q1625.1 1513.66 1628.15 1518.27 Q1631.23 1522.85 1631.23 1531.6 Q1631.23 1540.33 1628.15 1544.94 Q1625.1 1549.52 1619.29 1549.52 Q1613.48 1549.52 1610.4 1544.94 Q1607.34 1540.33 1607.34 1531.6 Q1607.34 1522.85 1610.4 1518.27 Q1613.48 1513.66 1619.29 1513.66 Z" fill="#000000" fill-rule="nonzero" fill-opacity="1" /><path clip-path="url(#clip150)" d="M1923.45 1544.91 L1939.77 1544.91 L1939.77 1548.85 L1917.83 1548.85 L1917.83 1544.91 Q1920.49 1542.16 1925.07 1537.53 Q1929.68 1532.88 1930.86 1531.53 Q1933.11 1529.01 1933.99 1527.27 Q1934.89 1525.51 1934.89 1523.82 Q1934.89 1521.07 1932.94 1519.33 Q1931.02 1517.6 1927.92 1517.6 Q1925.72 1517.6 1923.27 1518.36 Q1920.84 1519.13 1918.06 1520.68 L1918.06 1515.95 Q1920.88 1514.82 1923.34 1514.24 Q1925.79 1513.66 1927.83 1513.66 Q1933.2 1513.66 1936.39 1516.35 Q1939.59 1519.03 1939.59 1523.52 Q1939.59 1525.65 1938.78 1527.57 Q1937.99 1529.47 1935.88 1532.07 Q1935.31 1532.74 1932.2 1535.95 Q1929.1 1539.15 1923.45 1544.91 Z" fill="#000000" fill-rule="nonzero" fill-opacity="1" /><path clip-path="url(#clip150)" d="M1959.59 1517.37 Q1955.98 1517.37 1954.15 1520.93 Q1952.34 1524.47 1952.34 1531.6 Q1952.34 1538.71 1954.15 1542.27 Q1955.98 1545.82 1959.59 1545.82 Q1963.22 1545.82 1965.03 1542.27 Q1966.86 1538.71 1966.86 1531.6 Q1966.86 1524.47 1965.03 1520.93 Q1963.22 1517.37 1959.59 1517.37 M1959.59 1513.66 Q1965.4 1513.66 1968.45 1518.27 Q1971.53 1522.85 1971.53 1531.6 Q1971.53 1540.33 1968.45 1544.94 Q1965.4 1549.52 1959.59 1549.52 Q1953.78 1549.52 1950.7 1544.94 Q1947.64 1540.33 1947.64 1531.6 Q1947.64 1522.85 1950.7 1518.27 Q1953.78 1513.66 1959.59 1513.66 Z" fill="#000000" fill-rule="nonzero" fill-opacity="1" /><path clip-path="url(#clip150)" d="M2272.96 1530.21 Q2276.31 1530.93 2278.19 1533.2 Q2280.09 1535.47 2280.09 1538.8 Q2280.09 1543.92 2276.57 1546.72 Q2273.05 1549.52 2266.57 1549.52 Q2264.39 1549.52 2262.08 1549.08 Q2259.79 1548.66 2257.33 1547.81 L2257.33 1543.29 Q2259.28 1544.43 2261.59 1545.01 Q2263.91 1545.58 2266.43 1545.58 Q2270.83 1545.58 2273.12 1543.85 Q2275.44 1542.11 2275.44 1538.8 Q2275.44 1535.75 2273.28 1534.03 Q2271.15 1532.3 2267.33 1532.3 L2263.31 1532.3 L2263.31 1528.45 L2267.52 1528.45 Q2270.97 1528.45 2272.8 1527.09 Q2274.63 1525.7 2274.63 1523.11 Q2274.63 1520.45 2272.73 1519.03 Q2270.85 1517.6 2267.33 1517.6 Q2265.41 1517.6 2263.21 1518.01 Q2261.01 1518.43 2258.38 1519.31 L2258.38 1515.14 Q2261.04 1514.4 2263.35 1514.03 Q2265.69 1513.66 2267.75 1513.66 Q2273.07 1513.66 2276.18 1516.09 Q2279.28 1518.5 2279.28 1522.62 Q2279.28 1525.49 2277.63 1527.48 Q2275.99 1529.45 2272.96 1530.21 Z" fill="#000000" fill-rule="nonzero" fill-opacity="1" /><path clip-path="url(#clip150)" d="M2298.95 1517.37 Q2295.34 1517.37 2293.51 1520.93 Q2291.71 1524.47 2291.71 1531.6 Q2291.71 1538.71 2293.51 1542.27 Q2295.34 1545.82 2298.95 1545.82 Q2302.59 1545.82 2304.39 1542.27 Q2306.22 1538.71 2306.22 1531.6 Q2306.22 1524.47 2304.39 1520.93 Q2302.59 1517.37 2298.95 1517.37 M2298.95 1513.66 Q2304.76 1513.66 2307.82 1518.27 Q2310.9 1522.85 2310.9 1531.6 Q2310.9 1540.33 2307.82 1544.94 Q2304.76 1549.52 2298.95 1549.52 Q2293.14 1549.52 2290.06 1544.94 Q2287.01 1540.33 2287.01 1531.6 Q2287.01 1522.85 2290.06 1518.27 Q2293.14 1513.66 2298.95 1513.66 Z" fill="#000000" fill-rule="nonzero" fill-opacity="1" /><polyline clip-path="url(#clip152)" style="stroke:#000000; stroke-linecap:round; stroke-linejoin:round; stroke-width:2; stroke-opacity:0.1; fill:none" points="178.867,1445.72 2352.76,1445.72 "/>
<polyline clip-path="url(#clip152)" style="stroke:#000000; stroke-linecap:round; stroke-linejoin:round; stroke-width:2; stroke-opacity:0.1; fill:none" points="178.867,1106.28 2352.76,1106.28 "/>
<polyline clip-path="url(#clip152)" style="stroke:#000000; stroke-linecap:round; stroke-linejoin:round; stroke-width:2; stroke-opacity:0.1; fill:none" points="178.867,766.846 2352.76,766.846 "/>
<polyline clip-path="url(#clip152)" style="stroke:#000000; stroke-linecap:round; stroke-linejoin:round; stroke-width:2; stroke-opacity:0.1; fill:none" points="178.867,427.411 2352.76,427.411 "/>
<polyline clip-path="url(#clip152)" style="stroke:#000000; stroke-linecap:round; stroke-linejoin:round; stroke-width:2; stroke-opacity:0.1; fill:none" points="178.867,87.9763 2352.76,87.9763 "/>
<polyline clip-path="url(#clip150)" style="stroke:#000000; stroke-linecap:round; stroke-linejoin:round; stroke-width:4; stroke-opacity:1; fill:none" points="178.867,1486.45 178.867,47.2441 "/>
<polyline clip-path="url(#clip150)" style="stroke:#000000; stroke-linecap:round; stroke-linejoin:round; stroke-width:4; stroke-opacity:1; fill:none" points="178.867,1445.72 197.764,1445.72 "/>
<polyline clip-path="url(#clip150)" style="stroke:#000000; stroke-linecap:round; stroke-linejoin:round; stroke-width:4; stroke-opacity:1; fill:none" points="178.867,1106.28 197.764,1106.28 "/>
<polyline clip-path="url(#clip150)" style="stroke:#000000; stroke-linecap:round; stroke-linejoin:round; stroke-width:4; stroke-opacity:1; fill:none" points="178.867,766.846 197.764,766.846 "/>
<polyline clip-path="url(#clip150)" style="stroke:#000000; stroke-linecap:round; stroke-linejoin:round; stroke-width:4; stroke-opacity:1; fill:none" points="178.867,427.411 197.764,427.411 "/>
<polyline clip-path="url(#clip150)" style="stroke:#000000; stroke-linecap:round; stroke-linejoin:round; stroke-width:4; stroke-opacity:1; fill:none" points="178.867,87.9763 197.764,87.9763 "/>
<path clip-path="url(#clip150)" d="M50.9921 1446.17 L80.6679 1446.17 L80.6679 1450.1 L50.9921 1450.1 L50.9921 1446.17 Z" fill="#000000" fill-rule="nonzero" fill-opacity="1" /><path clip-path="url(#clip150)" d="M94.7882 1459.06 L111.108 1459.06 L111.108 1463 L89.1632 1463 L89.1632 1459.06 Q91.8252 1456.31 96.4085 1451.68 Q101.015 1447.02 102.196 1445.68 Q104.441 1443.16 105.321 1441.42 Q106.223 1439.66 106.223 1437.97 Q106.223 1435.22 104.279 1433.48 Q102.358 1431.75 99.2558 1431.75 Q97.0567 1431.75 94.603 1432.51 Q92.1725 1433.27 89.3947 1434.82 L89.3947 1430.1 Q92.2188 1428.97 94.6724 1428.39 Q97.1261 1427.81 99.1632 1427.81 Q104.534 1427.81 107.728 1430.5 Q110.922 1433.18 110.922 1437.67 Q110.922 1439.8 110.112 1441.72 Q109.325 1443.62 107.219 1446.21 Q106.64 1446.88 103.538 1450.1 Q100.436 1453.3 94.7882 1459.06 Z" fill="#000000" fill-rule="nonzero" fill-opacity="1" /><path clip-path="url(#clip150)" d="M130.922 1431.51 Q127.311 1431.51 125.482 1435.08 Q123.677 1438.62 123.677 1445.75 Q123.677 1452.86 125.482 1456.42 Q127.311 1459.96 130.922 1459.96 Q134.556 1459.96 136.362 1456.42 Q138.191 1452.86 138.191 1445.75 Q138.191 1438.62 136.362 1435.08 Q134.556 1431.51 130.922 1431.51 M130.922 1427.81 Q136.732 1427.81 139.788 1432.42 Q142.867 1437 142.867 1445.75 Q142.867 1454.48 139.788 1459.08 Q136.732 1463.67 130.922 1463.67 Q125.112 1463.67 122.033 1459.08 Q118.978 1454.48 118.978 1445.75 Q118.978 1437 122.033 1432.42 Q125.112 1427.81 130.922 1427.81 Z" fill="#000000" fill-rule="nonzero" fill-opacity="1" /><path clip-path="url(#clip150)" d="M50.9921 1106.73 L80.6679 1106.73 L80.6679 1110.67 L50.9921 1110.67 L50.9921 1106.73 Z" fill="#000000" fill-rule="nonzero" fill-opacity="1" /><path clip-path="url(#clip150)" d="M91.5706 1119.63 L99.2095 1119.63 L99.2095 1093.26 L90.8993 1094.93 L90.8993 1090.67 L99.1632 1089 L103.839 1089 L103.839 1119.63 L111.478 1119.63 L111.478 1123.56 L91.5706 1123.56 L91.5706 1119.63 Z" fill="#000000" fill-rule="nonzero" fill-opacity="1" /><path clip-path="url(#clip150)" d="M130.922 1092.08 Q127.311 1092.08 125.482 1095.64 Q123.677 1099.19 123.677 1106.32 Q123.677 1113.42 125.482 1116.99 Q127.311 1120.53 130.922 1120.53 Q134.556 1120.53 136.362 1116.99 Q138.191 1113.42 138.191 1106.32 Q138.191 1099.19 136.362 1095.64 Q134.556 1092.08 130.922 1092.08 M130.922 1088.38 Q136.732 1088.38 139.788 1092.98 Q142.867 1097.57 142.867 1106.32 Q142.867 1115.04 139.788 1119.65 Q136.732 1124.23 130.922 1124.23 Q125.112 1124.23 122.033 1119.65 Q118.978 1115.04 118.978 1106.32 Q118.978 1097.57 122.033 1092.98 Q125.112 1088.38 130.922 1088.38 Z" fill="#000000" fill-rule="nonzero" fill-opacity="1" /><path clip-path="url(#clip150)" d="M130.922 752.645 Q127.311 752.645 125.482 756.209 Q123.677 759.751 123.677 766.881 Q123.677 773.987 125.482 777.552 Q127.311 781.094 130.922 781.094 Q134.556 781.094 136.362 777.552 Q138.191 773.987 138.191 766.881 Q138.191 759.751 136.362 756.209 Q134.556 752.645 130.922 752.645 M130.922 748.941 Q136.732 748.941 139.788 753.547 Q142.867 758.131 142.867 766.881 Q142.867 775.608 139.788 780.214 Q136.732 784.797 130.922 784.797 Q125.112 784.797 122.033 780.214 Q118.978 775.608 118.978 766.881 Q118.978 758.131 122.033 753.547 Q125.112 748.941 130.922 748.941 Z" fill="#000000" fill-rule="nonzero" fill-opacity="1" /><path clip-path="url(#clip150)" d="M91.5706 440.756 L99.2095 440.756 L99.2095 414.39 L90.8993 416.057 L90.8993 411.798 L99.1632 410.131 L103.839 410.131 L103.839 440.756 L111.478 440.756 L111.478 444.691 L91.5706 444.691 L91.5706 440.756 Z" fill="#000000" fill-rule="nonzero" fill-opacity="1" /><path clip-path="url(#clip150)" d="M130.922 413.21 Q127.311 413.21 125.482 416.775 Q123.677 420.316 123.677 427.446 Q123.677 434.552 125.482 438.117 Q127.311 441.659 130.922 441.659 Q134.556 441.659 136.362 438.117 Q138.191 434.552 138.191 427.446 Q138.191 420.316 136.362 416.775 Q134.556 413.21 130.922 413.21 M130.922 409.506 Q136.732 409.506 139.788 414.113 Q142.867 418.696 142.867 427.446 Q142.867 436.173 139.788 440.779 Q136.732 445.362 130.922 445.362 Q125.112 445.362 122.033 440.779 Q118.978 436.173 118.978 427.446 Q118.978 418.696 122.033 414.113 Q125.112 409.506 130.922 409.506 Z" fill="#000000" fill-rule="nonzero" fill-opacity="1" /><path clip-path="url(#clip150)" d="M94.7882 101.321 L111.108 101.321 L111.108 105.256 L89.1632 105.256 L89.1632 101.321 Q91.8252 98.5665 96.4085 93.9369 Q101.015 89.2841 102.196 87.9416 Q104.441 85.4184 105.321 83.6823 Q106.223 81.9231 106.223 80.2333 Q106.223 77.4786 104.279 75.7425 Q102.358 74.0064 99.2558 74.0064 Q97.0567 74.0064 94.603 74.7703 Q92.1725 75.5342 89.3947 77.0851 L89.3947 72.3629 Q92.2188 71.2287 94.6724 70.65 Q97.1261 70.0713 99.1632 70.0713 Q104.534 70.0713 107.728 72.7565 Q110.922 75.4416 110.922 79.9323 Q110.922 82.062 110.112 83.9832 Q109.325 85.8814 107.219 88.474 Q106.64 89.1453 103.538 92.3628 Q100.436 95.5573 94.7882 101.321 Z" fill="#000000" fill-rule="nonzero" fill-opacity="1" /><path clip-path="url(#clip150)" d="M130.922 73.775 Q127.311 73.775 125.482 77.3398 Q123.677 80.8814 123.677 88.011 Q123.677 95.1174 125.482 98.6822 Q127.311 102.224 130.922 102.224 Q134.556 102.224 136.362 98.6822 Q138.191 95.1174 138.191 88.011 Q138.191 80.8814 136.362 77.3398 Q134.556 73.775 130.922 73.775 M130.922 70.0713 Q136.732 70.0713 139.788 74.6777 Q142.867 79.261 142.867 88.011 Q142.867 96.7378 139.788 101.344 Q136.732 105.928 130.922 105.928 Q125.112 105.928 122.033 101.344 Q118.978 96.7378 118.978 88.011 Q118.978 79.261 122.033 74.6777 Q125.112 70.0713 130.922 70.0713 Z" fill="#000000" fill-rule="nonzero" fill-opacity="1" /><polyline clip-path="url(#clip152)" style="stroke:#0000ff; stroke-linecap:round; stroke-linejoin:round; stroke-width:4; stroke-opacity:1; fill:none" points="1153.63,1007.84 1153.8,1009.02 1154.13,1011.24 1154.74,1014.63 1155.45,1018.03 1156.27,1021.42 1157.19,1024.82 1158.25,1028.21 1159.42,1031.61 1160.59,1034.71 1160.7,1035 1162.13,1038.39 1163.67,1041.79 1163.98,1042.44 1165.36,1045.18 1167.18,1048.58 1167.38,1048.91 1169.18,1051.97 1170.77,1054.51 1171.32,1055.37 1173.65,1058.76 1174.16,1059.47 1176.17,1062.15 1177.56,1063.92 1178.89,1065.55 1180.95,1067.96 1181.83,1068.94 1184.35,1071.64 1185.02,1072.34 1187.74,1075.02 1188.5,1075.73 1191.14,1078.12 1192.29,1079.13 1194.53,1080.99 1196.46,1082.52 1197.92,1083.64 1201.06,1085.91 1201.32,1086.1 1204.71,1088.35 1206.23,1089.31 1208.11,1090.45 1211.5,1092.39 1212.09,1092.7 1214.9,1094.16 1218.29,1095.81 1218.92,1096.1 1221.68,1097.31 1225.08,1098.68 1227.24,1099.49 1228.47,1099.94 1231.87,1101.06 1235.26,1102.07 1238.32,1102.89 1238.66,1102.97 1242.05,1103.75 1245.45,1104.42 1248.84,1104.99 1252.23,1105.45 1255.63,1105.82 1259.02,1106.07 1262.42,1106.23 1265.81,1106.28 1269.21,1106.23 1272.6,1106.07 1275.99,1105.82 1279.39,1105.45 1282.78,1104.99 1286.18,1104.42 1289.57,1103.75 1292.97,1102.97 1293.3,1102.89 1296.36,1102.07 1299.75,1101.06 1303.15,1099.94 1304.38,1099.49 1306.54,1098.68 1309.94,1097.31 1312.7,1096.1 1313.33,1095.81 1316.73,1094.16 1319.54,1092.7 1320.12,1092.39 1323.52,1090.45 1325.39,1089.31 1326.91,1088.35 1330.3,1086.1 1330.56,1085.91 1333.7,1083.64 1335.16,1082.52 1337.09,1080.99 1339.33,1079.13 1340.49,1078.12 1343.13,1075.73 1343.88,1075.02 1346.6,1072.34 1347.28,1071.64 1349.79,1068.94 1350.67,1067.96 1352.73,1065.55 1354.06,1063.92 1355.45,1062.15 1357.46,1059.47 1357.97,1058.76 1360.3,1055.37 1360.85,1054.51 1362.44,1051.97 1364.25,1048.91 1364.44,1048.58 1366.26,1045.18 1367.64,1042.44 1367.96,1041.79 1369.5,1038.39 1370.92,1035 1371.04,1034.71 1372.2,1031.61 1373.37,1028.21 1374.43,1024.82 1375.35,1021.42 1376.17,1018.03 1376.88,1014.63 1377.49,1011.24 1377.82,1009.02 1377.99,1007.84 1378.38,1004.45 1378.67,1001.06 1378.85,997.662 1378.94,994.267 1378.92,990.873 1378.8,987.479 1378.58,984.084 1378.26,980.69 1377.84,977.296 1377.82,977.186 1377.3,973.901 1376.66,970.507 1375.91,967.113 1375.06,963.718 1374.43,961.496 1374.09,960.324 1372.99,956.93 1371.79,953.535 1371.04,951.582 1370.46,950.141 1369,946.746 1367.64,943.831 1367.41,943.352 1365.67,939.958 1364.25,937.368 1363.79,936.563 1361.75,933.169 1360.85,931.768 1359.54,929.775 1357.46,926.794 1357.16,926.38 1354.58,922.986 1354.06,922.345 1351.78,919.592 1350.67,918.316 1348.75,916.197 1347.28,914.634 1345.47,912.803 1343.88,911.258 1341.89,909.409 1340.49,908.15 1337.99,906.014 1337.09,905.279 1333.7,902.62 1330.3,900.183 1328.9,899.226 1326.91,897.92 1323.55,895.831 1323.52,895.812 1320.12,893.892 1317.38,892.437 1316.73,892.099 1313.33,890.468 1310.15,889.043 1309.94,888.952 1306.54,887.59 1303.15,886.338 1301.1,885.648 1299.75,885.209 1296.36,884.206 1292.97,883.309 1289.57,882.518 1288.27,882.254 1286.18,881.844 1282.78,881.282 1279.39,880.821 1275.99,880.463 1272.6,880.207 1269.21,880.053 1265.81,880.002 1262.42,880.053 1259.02,880.207 1255.63,880.463 1252.23,880.821 1248.84,881.282 1245.45,881.844 1243.36,882.254 1242.05,882.518 1238.66,883.309 1235.26,884.206 1231.87,885.209 1230.52,885.648 1228.47,886.338 1225.08,887.59 1221.68,888.952 1221.48,889.043 1218.29,890.468 1214.9,892.099 1214.24,892.437 1211.5,893.892 1208.11,895.812 1208.08,895.831 1204.71,897.92 1202.73,899.226 1201.32,900.183 1197.92,902.62 1194.53,905.279 1193.64,906.014 1191.14,908.15 1189.73,909.409 1187.74,911.258 1186.15,912.803 1184.35,914.634 1182.87,916.197 1180.95,918.316 1179.84,919.592 1177.56,922.345 1177.05,922.986 1174.46,926.38 1174.16,926.794 1172.09,929.775 1170.77,931.768 1169.88,933.169 1167.83,936.563 1167.38,937.368 1165.96,939.958 1164.21,943.352 1163.98,943.831 1162.63,946.746 1161.16,950.141 1160.59,951.582 1159.83,953.535 1158.63,956.93 1157.53,960.324 1157.19,961.496 1156.57,963.718 1155.71,967.113 1154.96,970.507 1154.32,973.901 1153.8,977.186 1153.78,977.296 1153.36,980.69 1153.04,984.084 1152.82,987.479 1152.7,990.873 1152.68,994.267 1152.77,997.662 1152.95,1001.06 1153.24,1004.45 1153.63,1007.84 "/>
<polyline clip-path="url(#clip152)" style="stroke:#0000ff; stroke-linecap:round; stroke-linejoin:round; stroke-width:4; stroke-opacity:1; fill:none" points="1374.25,661.621 1374.43,662.409 1375.08,665.016 1376.19,668.41 1377.57,671.804 1377.82,672.326 1379.34,675.199 1381.22,678.196 1381.49,678.593 1384.16,681.987 1384.61,682.489 1387.47,685.382 1388.01,685.863 1391.4,688.607 1391.64,688.776 1394.8,690.835 1397.14,692.17 1398.19,692.714 1401.59,694.251 1404.98,695.552 1405.02,695.565 1408.37,696.568 1411.77,697.389 1415.16,698.027 1418.56,698.492 1421.95,698.794 1425.35,698.941 1428.74,698.941 1432.13,698.803 1435.53,698.532 1438.92,698.136 1442.32,697.621 1445.71,696.993 1449.11,696.257 1451.9,695.565 1452.5,695.41 1455.89,694.428 1459.29,693.35 1462.68,692.179 1462.71,692.17 1466.08,690.861 1469.47,689.457 1471.01,688.776 1472.87,687.932 1476.26,686.294 1478.05,685.382 1479.66,684.54 1483.05,682.669 1484.23,681.987 1486.44,680.665 1489.79,678.593 1489.84,678.559 1493.23,676.282 1494.79,675.199 1496.63,673.879 1499.42,671.804 1500.02,671.341 1503.42,668.638 1503.69,668.41 1506.81,665.748 1507.64,665.016 1510.2,662.677 1511.33,661.621 1513.6,659.402 1514.77,658.227 1516.99,655.901 1517.99,654.832 1520.39,652.141 1521,651.438 1523.78,648.09 1523.82,648.044 1526.43,644.649 1527.18,643.634 1528.87,641.255 1530.57,638.754 1531.16,637.861 1533.27,634.466 1533.96,633.28 1535.22,631.072 1537.03,627.678 1537.36,627 1538.66,624.283 1540.15,620.889 1540.75,619.373 1541.48,617.495 1542.66,614.1 1543.69,610.706 1544.15,608.927 1544.55,607.312 1545.25,603.917 1545.79,600.523 1546.15,597.129 1546.34,593.734 1546.34,590.34 1546.14,586.946 1545.72,583.551 1545.08,580.157 1544.2,576.762 1544.15,576.616 1543,573.368 1541.5,569.974 1540.75,568.542 1539.64,566.579 1537.36,563.185 1534.51,559.791 1533.96,559.219 1530.99,556.396 1530.57,556.043 1527.18,553.463 1526.49,553.002 1523.78,551.345 1520.51,549.608 1520.39,549.548 1516.99,548.107 1513.6,546.893 1511.31,546.213 1510.2,545.911 1506.81,545.156 1503.42,544.577 1500.02,544.166 1496.63,543.913 1493.23,543.81 1489.84,543.849 1486.44,544.023 1483.05,544.326 1479.66,544.75 1476.26,545.291 1472.87,545.942 1471.66,546.213 1469.47,546.722 1466.08,547.619 1462.68,548.615 1459.6,549.608 1459.29,549.711 1455.89,550.948 1452.5,552.273 1450.76,553.002 1449.11,553.715 1445.71,555.275 1443.4,556.396 1442.32,556.938 1438.92,558.733 1437.01,559.791 1435.53,560.639 1432.13,562.668 1431.31,563.185 1428.74,564.841 1426.14,566.579 1425.35,567.13 1421.95,569.569 1421.41,569.974 1418.56,572.174 1417.06,573.368 1415.16,574.932 1413.01,576.762 1411.77,577.861 1409.25,580.157 1408.37,580.981 1405.73,583.551 1404.98,584.316 1402.46,586.946 1401.59,587.893 1399.39,590.34 1398.19,591.745 1396.53,593.734 1394.8,595.91 1393.85,597.129 1391.4,600.434 1391.34,600.523 1389.03,603.917 1388.01,605.497 1386.87,607.312 1384.86,610.706 1384.61,611.149 1383.03,614.1 1381.33,617.495 1381.22,617.736 1379.81,620.889 1378.43,624.283 1377.82,625.941 1377.21,627.678 1376.15,631.072 1375.23,634.466 1374.47,637.861 1374.43,638.07 1373.89,641.255 1373.48,644.649 1373.24,648.044 1373.19,651.438 1373.33,654.832 1373.68,658.227 1374.25,661.621 "/>
<polyline clip-path="url(#clip152)" style="stroke:#0000ff; stroke-linecap:round; stroke-linejoin:round; stroke-width:4; stroke-opacity:1; fill:none" points="1123.25,696.568 1119.85,697.389 1116.46,698.027 1113.07,698.492 1109.67,698.794 1106.28,698.941 1102.88,698.941 1099.49,698.803 1096.09,698.532 1092.7,698.136 1089.31,697.621 1085.91,696.993 1082.52,696.257 1079.73,695.565 1079.12,695.41 1075.73,694.428 1072.33,693.35 1068.94,692.179 1068.92,692.17 1065.54,690.861 1062.15,689.457 1060.61,688.776 1058.76,687.932 1055.36,686.294 1053.57,685.382 1051.97,684.54 1048.57,682.669 1047.39,681.987 1045.18,680.665 1041.84,678.593 1041.78,678.559 1038.39,676.282 1036.83,675.199 1035,673.879 1032.2,671.804 1031.6,671.341 1028.21,668.638 1027.93,668.41 1024.81,665.748 1023.98,665.016 1021.42,662.677 1020.3,661.621 1018.02,659.402 1016.85,658.227 1014.63,655.901 1013.64,654.832 1011.24,652.141 1010.62,651.438 1007.84,648.09 1007.8,648.044 1005.19,644.649 1004.45,643.634 1002.75,641.255 1001.05,638.754 1000.46,637.861 998.35,634.466 997.658,633.28 996.402,631.072 994.595,627.678 994.263,627 992.965,624.283 991.472,620.889 990.869,619.373 990.14,617.495 988.967,614.1 987.934,610.706 987.475,608.927 987.068,607.312 986.372,603.917 985.837,600.523 985.47,597.129 985.282,593.734 985.284,590.34 985.487,586.946 985.902,583.551 986.544,580.157 987.427,576.762 987.475,576.616 988.625,573.368 990.118,569.974 990.869,568.542 991.987,566.579 994.263,563.185 997.113,559.791 997.658,559.219 1000.63,556.396 1001.05,556.043 1004.45,553.463 1005.13,553.002 1007.84,551.345 1011.11,549.608 1011.24,549.548 1014.63,548.107 1018.02,546.893 1020.32,546.213 1021.42,545.911 1024.81,545.156 1028.21,544.577 1031.6,544.166 1035,543.913 1038.39,543.81 1041.78,543.849 1045.18,544.023 1048.57,544.326 1051.97,544.75 1055.36,545.291 1058.76,545.942 1059.96,546.213 1062.15,546.722 1065.54,547.619 1068.94,548.615 1072.02,549.608 1072.33,549.711 1075.73,550.948 1079.12,552.273 1080.87,553.002 1082.52,553.715 1085.91,555.275 1088.22,556.396 1089.31,556.938 1092.7,558.733 1094.61,559.791 1096.09,560.639 1099.49,562.668 1100.32,563.185 1102.88,564.841 1105.48,566.579 1106.28,567.13 1109.67,569.569 1110.21,569.974 1113.07,572.174 1114.57,573.368 1116.46,574.932 1118.61,576.762 1119.85,577.861 1122.38,580.157 1123.25,580.981 1125.89,583.551 1126.64,584.316 1129.17,586.946 1130.04,587.893 1132.23,590.34 1133.43,591.745 1135.09,593.734 1136.83,595.91 1137.77,597.129 1140.22,600.434 1140.28,600.523 1142.6,603.917 1143.61,605.497 1144.76,607.312 1146.77,610.706 1147.01,611.149 1148.59,614.1 1150.29,617.495 1150.4,617.736 1151.81,620.889 1153.19,624.283 1153.8,625.941 1154.42,627.678 1155.48,631.072 1156.39,634.466 1157.16,637.861 1157.19,638.07 1157.73,641.255 1158.14,644.649 1158.38,648.044 1158.43,651.438 1158.29,654.832 1157.94,658.227 1157.37,661.621 1157.19,662.409 1156.54,665.016 1155.44,668.41 1154.05,671.804 1153.8,672.326 1152.28,675.199 1150.4,678.196 1150.13,678.593 1147.46,681.987 1147.01,682.489 1144.15,685.382 1143.61,685.863 1140.22,688.607 1139.99,688.776 1136.83,690.835 1134.48,692.17 1133.43,692.714 1130.04,694.251 1126.64,695.552 1126.6,695.565 1123.25,696.568 "/>
<polyline clip-path="url(#clip152)" style="stroke:#0000ff; stroke-linecap:round; stroke-linejoin:round; stroke-width:4; stroke-opacity:1; fill:none" points="1523.78,507.948 1520.39,508.274 1516.99,508.488 1513.6,508.584 1510.2,508.556 1506.81,508.4 1503.42,508.108 1500.02,507.674 1496.63,507.091 1493.23,506.35 1489.97,505.481 1489.84,505.443 1486.44,504.328 1483.05,503.023 1480.93,502.087 1479.66,501.496 1476.26,499.713 1474.53,498.692 1472.87,497.657 1469.47,495.298 1466.08,492.549 1465.35,491.904 1462.68,489.375 1461.84,488.509 1459.29,485.682 1458.81,485.115 1456.18,481.721 1455.89,481.327 1453.88,478.326 1452.5,476.08 1451.84,474.932 1450.05,471.538 1449.11,469.583 1448.45,468.143 1447.06,464.749 1445.81,461.355 1445.71,461.044 1444.75,457.96 1443.81,454.566 1443,451.172 1442.32,447.836 1442.31,447.777 1441.74,444.383 1441.28,440.989 1440.92,437.594 1440.65,434.2 1440.47,430.805 1440.37,427.411 1440.36,424.017 1440.43,420.622 1440.58,417.228 1440.8,413.834 1441.09,410.439 1441.45,407.045 1441.87,403.651 1442.32,400.547 1442.36,400.256 1442.92,396.862 1443.55,393.468 1444.23,390.073 1444.97,386.679 1445.71,383.503 1445.76,383.285 1446.63,379.89 1447.55,376.496 1448.52,373.102 1449.11,371.152 1449.55,369.707 1450.64,366.313 1451.77,362.919 1452.5,360.84 1452.97,359.524 1454.22,356.13 1455.52,352.735 1455.89,351.784 1456.88,349.341 1458.29,345.947 1459.29,343.609 1459.75,342.552 1461.27,339.158 1462.68,336.086 1462.83,335.764 1464.47,332.369 1466.08,329.095 1466.14,328.975 1467.88,325.581 1469.47,322.544 1469.66,322.186 1471.52,318.792 1472.87,316.362 1473.41,315.398 1475.37,312.003 1476.26,310.492 1477.39,308.609 1479.45,305.215 1479.66,304.888 1481.59,301.82 1483.05,299.548 1483.78,298.426 1486.03,295.032 1486.44,294.421 1488.35,291.637 1489.84,289.506 1490.73,288.243 1493.17,284.848 1493.23,284.762 1495.69,281.454 1496.63,280.213 1498.28,278.06 1500.02,275.814 1500.93,274.665 1503.42,271.559 1503.65,271.271 1506.46,267.877 1506.81,267.454 1509.35,264.482 1510.2,263.488 1512.32,261.088 1513.6,259.646 1515.37,257.694 1516.99,255.925 1518.51,254.299 1520.39,252.32 1521.75,250.905 1523.78,248.827 1525.09,247.511 1527.18,245.442 1528.54,244.116 1530.57,242.162 1532.1,240.722 1533.96,238.984 1535.78,237.328 1537.36,235.903 1539.59,233.933 1540.75,232.917 1543.54,230.539 1544.15,230.022 1547.54,227.219 1547.63,227.145 1550.94,224.515 1551.92,223.75 1554.33,221.897 1556.38,220.356 1557.73,219.361 1561.04,216.962 1561.12,216.904 1564.51,214.548 1565.97,213.567 1567.91,212.27 1571.13,210.173 1571.3,210.064 1574.7,207.959 1576.66,206.778 1578.09,205.925 1581.49,203.974 1582.55,203.384 1584.88,202.111 1588.27,200.32 1588.93,199.99 1591.67,198.624 1595.06,196.998 1595.95,196.595 1598.46,195.467 1601.85,194.013 1603.85,193.201 1605.25,192.643 1608.64,191.366 1612.03,190.164 1613.13,189.807 1615.43,189.061 1618.82,188.047 1622.22,187.118 1625.07,186.412 1625.61,186.281 1629.01,185.551 1632.4,184.916 1635.8,184.379 1639.19,183.946 1642.58,183.619 1645.98,183.406 1649.37,183.31 1652.77,183.337 1656.16,183.493 1659.56,183.785 1662.95,184.219 1666.34,184.803 1669.74,185.543 1673,186.412 1673.13,186.45 1676.53,187.565 1679.92,188.871 1682.04,189.807 1683.32,190.398 1686.71,192.18 1688.44,193.201 1690.1,194.237 1693.5,196.595 1693.5,196.595 1696.89,199.344 1697.62,199.99 1700.29,202.519 1701.13,203.384 1703.68,206.212 1704.16,206.778 1706.79,210.173 1707.08,210.567 1709.09,213.567 1710.47,215.814 1711.13,216.962 1712.93,220.356 1713.87,222.311 1714.52,223.75 1715.91,227.145 1717.16,230.539 1717.26,230.849 1718.22,233.933 1719.16,237.328 1719.97,240.722 1720.65,244.058 1720.67,244.116 1721.23,247.511 1721.69,250.905 1722.05,254.299 1722.32,257.694 1722.5,261.088 1722.6,264.482 1722.61,267.877 1722.54,271.271 1722.39,274.665 1722.17,278.06 1721.88,281.454 1721.52,284.848 1721.1,288.243 1720.65,291.347 1720.61,291.637 1720.05,295.032 1719.42,298.426 1718.74,301.82 1718,305.215 1717.26,308.39 1717.21,308.609 1716.34,312.003 1715.42,315.398 1714.45,318.792 1713.87,320.742 1713.42,322.186 1712.33,325.581 1711.2,328.975 1710.47,331.054 1710,332.369 1708.75,335.764 1707.45,339.158 1707.08,340.11 1706.09,342.552 1704.68,345.947 1703.68,348.284 1703.22,349.341 1701.7,352.735 1700.29,355.808 1700.14,356.13 1698.5,359.524 1696.89,362.799 1696.83,362.919 1695.09,366.313 1693.5,369.35 1693.31,369.707 1691.46,373.102 1690.1,375.532 1689.56,376.496 1687.6,379.89 1686.71,381.402 1685.58,383.285 1683.52,386.679 1683.32,387.006 1681.38,390.073 1679.92,392.345 1679.19,393.468 1676.94,396.862 1676.53,397.473 1674.62,400.256 1673.13,402.388 1672.24,403.651 1669.8,407.045 1669.74,407.131 1667.28,410.439 1666.34,411.681 1664.69,413.834 1662.95,416.08 1662.04,417.228 1659.56,420.335 1659.32,420.622 1656.52,424.017 1656.16,424.439 1653.63,427.411 1652.77,428.406 1650.66,430.805 1649.37,432.247 1647.6,434.2 1645.98,435.969 1644.46,437.594 1642.58,439.574 1641.22,440.989 1639.19,443.067 1637.88,444.383 1635.8,446.451 1634.43,447.777 1632.4,449.731 1630.87,451.172 1629.01,452.91 1627.19,454.566 1625.61,455.991 1623.38,457.96 1622.22,458.977 1619.43,461.355 1618.82,461.871 1615.43,464.675 1615.34,464.749 1612.03,467.378 1611.05,468.143 1608.64,469.996 1606.59,471.538 1605.25,472.533 1601.93,474.932 1601.85,474.989 1598.46,477.345 1597,478.326 1595.06,479.624 1591.84,481.721 1591.67,481.829 1588.27,483.935 1586.31,485.115 1584.88,485.968 1581.49,487.919 1580.42,488.509 1578.09,489.783 1574.7,491.573 1574.04,491.904 1571.3,493.27 1567.91,494.895 1567.02,495.298 1564.51,496.427 1561.12,497.881 1559.12,498.692 1557.73,499.251 1554.33,500.528 1550.94,501.729 1549.85,502.087 1547.54,502.833 1544.15,503.847 1540.75,504.776 1537.9,505.481 1537.36,505.613 1533.96,506.342 1530.57,506.978 1527.18,507.514 1523.78,507.948 "/>
<polyline clip-path="url(#clip152)" style="stroke:#0000ff; stroke-linecap:round; stroke-linejoin:round; stroke-width:4; stroke-opacity:1; fill:none" points="1038.39,506.35 1035,507.091 1031.6,507.674 1028.21,508.108 1024.81,508.4 1021.42,508.556 1018.02,508.584 1014.63,508.488 1011.24,508.274 1007.84,507.948 1004.45,507.514 1001.05,506.978 997.658,506.342 994.263,505.613 993.724,505.481 990.869,504.776 987.475,503.847 984.08,502.833 981.777,502.087 980.686,501.729 977.292,500.528 973.897,499.251 972.506,498.692 970.503,497.881 967.109,496.427 964.6,495.298 963.714,494.895 960.32,493.27 957.581,491.904 956.926,491.573 953.531,489.783 951.204,488.509 950.137,487.919 946.743,485.968 945.31,485.115 943.348,483.935 939.954,481.829 939.785,481.721 936.559,479.624 934.618,478.326 933.165,477.345 929.771,474.989 929.691,474.932 926.376,472.533 925.036,471.538 922.982,469.996 920.572,468.143 919.588,467.378 916.285,464.749 916.193,464.675 912.799,461.871 912.188,461.355 909.405,458.977 908.241,457.96 906.01,455.991 904.431,454.566 902.616,452.91 900.75,451.172 899.222,449.731 897.19,447.777 895.827,446.451 893.744,444.383 892.433,443.067 890.404,440.989 889.039,439.574 887.165,437.594 885.644,435.969 884.021,434.2 882.25,432.247 880.966,430.805 878.856,428.406 877.997,427.411 875.461,424.439 875.107,424.017 872.301,420.622 872.067,420.335 869.58,417.228 868.672,416.08 866.928,413.834 865.278,411.681 864.343,410.439 861.884,407.131 861.821,407.045 859.384,403.651 858.489,402.388 857.006,400.256 855.095,397.473 854.683,396.862 852.433,393.468 851.701,392.345 850.244,390.073 848.306,387.006 848.103,386.679 846.038,383.285 844.912,381.402 844.022,379.89 842.063,376.496 841.518,375.532 840.167,373.102 838.314,369.707 838.123,369.35 836.534,366.313 834.789,362.919 834.729,362.799 833.12,359.524 831.485,356.13 831.335,355.808 829.923,352.735 828.4,349.341 827.94,348.284 826.94,345.947 825.53,342.552 824.546,340.11 824.169,339.158 822.873,335.764 821.618,332.369 821.152,331.054 820.426,328.975 819.29,325.581 818.199,322.186 817.757,320.742 817.171,318.792 816.202,315.398 815.283,312.003 814.415,308.609 814.363,308.39 813.621,305.215 812.883,301.82 812.2,298.426 811.576,295.032 811.011,291.637 810.969,291.347 810.522,288.243 810.098,284.848 809.739,281.454 809.449,278.06 809.23,274.665 809.084,271.271 809.014,267.877 809.025,264.482 809.118,261.088 809.298,257.694 809.568,254.299 809.931,250.905 810.393,247.511 810.957,244.116 810.969,244.058 811.652,240.722 812.464,237.328 813.399,233.933 814.363,230.849 814.465,230.539 815.711,227.145 817.106,223.75 817.757,222.311 818.697,220.356 820.491,216.962 821.152,215.814 822.533,213.567 824.546,210.567 824.829,210.173 827.466,206.778 827.94,206.212 830.495,203.384 831.335,202.519 834.002,199.99 834.729,199.344 838.123,196.595 838.123,196.595 841.518,194.237 843.178,193.201 844.912,192.18 848.306,190.398 849.578,189.807 851.701,188.871 855.095,187.565 858.489,186.45 858.625,186.412 861.884,185.543 865.278,184.803 868.672,184.219 872.067,183.785 875.461,183.493 878.856,183.337 882.25,183.31 885.644,183.406 889.039,183.619 892.433,183.946 895.827,184.379 899.222,184.916 902.616,185.551 906.01,186.281 906.55,186.412 909.405,187.118 912.799,188.047 916.193,189.061 918.496,189.807 919.588,190.164 922.982,191.366 926.376,192.643 927.768,193.201 929.771,194.013 933.165,195.467 935.673,196.595 936.559,196.998 939.954,198.624 942.693,199.99 943.348,200.32 946.743,202.111 949.069,203.384 950.137,203.974 953.531,205.925 954.964,206.778 956.926,207.959 960.32,210.064 960.488,210.173 963.714,212.27 965.656,213.567 967.109,214.548 970.503,216.904 970.583,216.962 973.897,219.361 975.238,220.356 977.292,221.897 979.702,223.75 980.686,224.515 983.988,227.145 984.08,227.219 987.475,230.022 988.086,230.539 990.869,232.917 992.033,233.933 994.263,235.903 995.842,237.328 997.658,238.984 999.523,240.722 1001.05,242.162 1003.08,244.116 1004.45,245.442 1006.53,247.511 1007.84,248.827 1009.87,250.905 1011.24,252.32 1013.11,254.299 1014.63,255.925 1016.25,257.694 1018.02,259.646 1019.31,261.088 1021.42,263.488 1022.28,264.482 1024.81,267.454 1025.17,267.877 1027.97,271.271 1028.21,271.559 1030.69,274.665 1031.6,275.814 1033.35,278.06 1035,280.213 1035.93,281.454 1038.39,284.762 1038.45,284.848 1040.89,288.243 1041.78,289.506 1043.27,291.637 1045.18,294.421 1045.59,295.032 1047.84,298.426 1048.57,299.548 1050.03,301.82 1051.97,304.888 1052.17,305.215 1054.24,308.609 1055.36,310.492 1056.25,312.003 1058.21,315.398 1058.76,316.362 1060.11,318.792 1061.96,322.186 1062.15,322.544 1063.74,325.581 1065.48,328.975 1065.54,329.095 1067.15,332.369 1068.79,335.764 1068.94,336.086 1070.35,339.158 1071.87,342.552 1072.33,343.609 1073.33,345.947 1074.74,349.341 1075.73,351.784 1076.11,352.735 1077.4,356.13 1078.66,359.524 1079.12,360.84 1079.85,362.919 1080.98,366.313 1082.07,369.707 1082.52,371.152 1083.1,373.102 1084.07,376.496 1084.99,379.89 1085.86,383.285 1085.91,383.503 1086.65,386.679 1087.39,390.073 1088.07,393.468 1088.7,396.862 1089.26,400.256 1089.31,400.547 1089.75,403.651 1090.18,407.045 1090.53,410.439 1090.82,413.834 1091.04,417.228 1091.19,420.622 1091.26,424.017 1091.25,427.411 1091.16,430.805 1090.98,434.2 1090.71,437.594 1090.34,440.989 1089.88,444.383 1089.32,447.777 1089.31,447.836 1088.62,451.172 1087.81,454.566 1086.87,457.96 1085.91,461.044 1085.81,461.355 1084.56,464.749 1083.17,468.143 1082.52,469.583 1081.58,471.538 1079.78,474.932 1079.12,476.08 1077.74,478.326 1075.73,481.327 1075.44,481.721 1072.81,485.115 1072.33,485.682 1069.78,488.509 1068.94,489.375 1066.27,491.904 1065.54,492.549 1062.15,495.298 1058.76,497.657 1057.1,498.692 1055.36,499.713 1051.97,501.496 1050.7,502.087 1048.57,503.023 1045.18,504.328 1041.78,505.443 1041.65,505.481 1038.39,506.35 "/>
<circle clip-path="url(#clip152)" cx="1265.81" cy="879.991" r="14.4" fill="#000000" fill-rule="evenodd" fill-opacity="1" stroke="none"/>
<circle clip-path="url(#clip152)" cx="1530.39" cy="639.05" r="14.4" fill="#000000" fill-rule="evenodd" fill-opacity="1" stroke="none"/>
<circle clip-path="url(#clip152)" cx="1001.23" cy="639.05" r="14.4" fill="#000000" fill-rule="evenodd" fill-opacity="1" stroke="none"/>
<circle clip-path="url(#clip152)" cx="1689.3" cy="376.957" r="14.4" fill="#000000" fill-rule="evenodd" fill-opacity="1" stroke="none"/>
<circle clip-path="url(#clip152)" cx="842.318" cy="376.957" r="14.4" fill="#000000" fill-rule="evenodd" fill-opacity="1" stroke="none"/>
<polyline clip-path="url(#clip152)" style="stroke:#ff0000; stroke-linecap:round; stroke-linejoin:round; stroke-width:4; stroke-opacity:1; fill:none" points="1848.91,87.9763 1847.08,91.3706 1846.24,92.9152 1845.24,94.765 1843.41,98.1593 1842.85,99.205 1841.58,101.554 1839.75,104.948 1839.46,105.49 1837.91,108.342 1836.08,111.737 1836.06,111.769 1834.24,115.131 1832.67,118.044 1832.41,118.525 1830.57,121.92 1829.27,124.314 1828.73,125.314 1826.89,128.708 1825.88,130.578 1825.05,132.103 1823.21,135.497 1822.48,136.836 1821.37,138.892 1819.52,142.286 1819.09,143.089 1817.68,145.68 1815.84,149.075 1815.7,149.336 1813.99,152.469 1812.3,155.578 1812.15,155.863 1810.3,159.258 1808.91,161.814 1808.45,162.652 1806.6,166.046 1805.51,168.045 1804.75,169.441 1802.9,172.835 1802.12,174.269 1801.05,176.229 1799.19,179.624 1798.72,180.486 1797.34,183.018 1795.48,186.412 1795.33,186.698 1793.63,189.807 1791.94,192.903 1791.77,193.201 1789.91,196.595 1788.54,199.103 1788.05,199.99 1786.19,203.384 1785.15,205.296 1784.33,206.778 1782.47,210.173 1781.75,211.482 1780.6,213.567 1778.74,216.962 1778.36,217.661 1776.87,220.356 1775.01,223.75 1774.96,223.833 1773.14,227.145 1771.57,229.999 1771.27,230.539 1769.4,233.933 1768.17,236.158 1767.53,237.328 1765.65,240.722 1764.78,242.31 1763.78,244.116 1761.91,247.511 1761.39,248.454 1760.03,250.905 1758.15,254.299 1757.99,254.59 1756.27,257.694 1754.6,260.719 1754.39,261.088 1752.51,264.482 1751.2,266.841 1750.63,267.877 1748.74,271.271 1747.81,272.955 1746.86,274.665 1744.97,278.06 1744.41,279.061 1743.08,281.454 1741.19,284.848 1741.02,285.158 1739.3,288.243 1737.63,291.248 1737.41,291.637 1735.51,295.032 1734.23,297.33 1733.62,298.426 1731.72,301.82 1730.84,303.403 1729.82,305.215 1727.92,308.609 1727.44,309.466 1726.02,312.003 1724.12,315.398 1724.05,315.521 1722.21,318.792 1720.65,321.568 1720.3,322.186 1718.4,325.581 1717.26,327.605 1716.49,328.975 1714.57,332.369 1713.87,333.633 1712.66,335.764 1710.75,339.158 1710.47,339.651 1708.83,342.552 1707.08,345.66 1706.91,345.947 1704.99,349.341 1703.68,351.66 1703.07,352.735 1701.15,356.13 1700.29,357.649 1699.22,359.524 1697.29,362.919 1696.89,363.627 1695.36,366.313 1693.5,369.595 1693.43,369.707 1691.5,373.102 1690.1,375.554 1689.57,376.496 1687.63,379.89 1686.71,381.501 1685.69,383.285 1683.75,386.679 1683.32,387.437 1681.8,390.073 1679.92,393.362 1679.86,393.468 1677.91,396.862 1676.53,399.276 1675.96,400.256 1674.01,403.651 1673.13,405.179 1672.05,407.045 1670.1,410.439 1669.74,411.069 1668.14,413.834 1666.34,416.946 1666.18,417.228 1664.21,420.622 1662.95,422.813 1662.25,424.017 1660.28,427.411 1659.56,428.667 1658.31,430.805 1656.34,434.2 1656.16,434.507 1654.36,437.594 1652.77,440.335 1652.38,440.989 1650.4,444.383 1649.37,446.15 1648.42,447.777 1646.43,451.172 1645.98,451.951 1644.44,454.566 1642.58,457.737 1642.45,457.96 1640.45,461.355 1639.19,463.512 1638.46,464.749 1636.46,468.143 1635.8,469.271 1634.45,471.538 1632.45,474.932 1632.4,475.014 1630.44,478.326 1629.01,480.744 1628.42,481.721 1626.41,485.115 1625.61,486.458 1624.39,488.509 1622.37,491.904 1622.22,492.156 1620.34,495.298 1618.82,497.84 1618.31,498.692 1616.28,502.087 1615.43,503.506 1614.24,505.481 1612.2,508.875 1612.03,509.155 1610.16,512.27 1608.64,514.789 1608.11,515.664 1606.06,519.059 1605.25,520.406 1604,522.453 1601.95,525.847 1601.85,526.003 1599.88,529.242 1598.46,531.585 1597.81,532.636 1595.74,536.03 1595.06,537.147 1593.66,539.425 1591.67,542.689 1591.59,542.819 1589.5,546.213 1588.27,548.216 1587.41,549.608 1585.32,553.002 1584.88,553.72 1583.22,556.396 1581.49,559.205 1581.12,559.791 1579.01,563.185 1578.09,564.671 1576.9,566.579 1574.78,569.974 1574.7,570.113 1572.66,573.368 1571.3,575.538 1570.53,576.762 1568.4,580.157 1567.91,580.939 1566.26,583.551 1564.51,586.318 1564.11,586.946 1561.96,590.34 1561.12,591.675 1559.81,593.734 1557.73,597.007 1557.65,597.129 1555.47,600.523 1554.33,602.319 1553.3,603.917 1551.12,607.312 1550.94,607.603 1548.93,610.706 1547.54,612.866 1546.74,614.1 1544.54,617.495 1544.15,618.101 1542.33,620.889 1540.75,623.312 1540.11,624.283 1537.89,627.678 1537.36,628.496 1535.66,631.072 1533.96,633.653 1533.42,634.466 1531.18,637.861 1530.57,638.783 1528.92,641.255 1527.18,643.884 1526.66,644.649 1524.39,648.044 1523.78,648.958 1522.11,651.438 1520.39,654.001 1519.82,654.832 1517.52,658.227 1516.99,659.015 1515.21,661.621 1513.6,663.998 1512.9,665.016 1510.57,668.41 1510.2,668.949 1508.23,671.804 1506.81,673.869 1505.88,675.199 1503.53,678.593 1503.42,678.754 1501.15,681.987 1500.02,683.609 1498.77,685.382 1496.63,688.427 1496.38,688.776 1493.97,692.17 1493.23,693.212 1491.55,695.565 1489.84,697.96 1489.11,698.959 1486.67,702.353 1486.44,702.67 1484.21,705.748 1483.05,707.346 1481.73,709.142 1479.66,711.98 1479.24,712.536 1476.74,715.931 1476.26,716.577 1474.21,719.325 1472.87,721.134 1471.67,722.719 1469.47,725.649 1469.12,726.114 1466.54,729.508 1466.08,730.123 1463.94,732.902 1462.68,734.555 1461.33,736.297 1459.29,738.941 1458.7,739.691 1456.05,743.086 1455.89,743.283 1453.37,746.48 1452.5,747.581 1450.66,749.874 1449.11,751.832 1447.94,753.269 1445.71,756.033 1445.19,756.663 1442.42,760.057 1442.32,760.186 1439.61,763.452 1438.92,764.291 1436.78,766.846 1435.53,768.345 1433.92,770.24 1432.13,772.346 1431.02,773.635 1428.74,776.293 1428.09,777.029 1425.35,780.185 1425.13,780.423 1422.13,783.818 1421.95,784.023 1419.09,787.212 1418.56,787.806 1416,790.606 1415.16,791.531 1412.87,794.001 1411.77,795.196 1409.69,797.395 1408.37,798.801 1406.46,800.789 1404.98,802.345 1403.18,804.184 1401.59,805.826 1399.84,807.578 1398.19,809.243 1396.43,810.973 1394.8,812.595 1392.96,814.367 1391.4,815.881 1389.41,817.761 1388.01,819.099 1385.79,821.156 1384.61,822.248 1382.07,824.55 1381.22,825.327 1378.26,827.944 1377.82,828.334 1374.43,831.268 1374.35,831.339 1371.04,834.13 1370.3,834.733 1367.64,836.917 1366.12,838.127 1364.25,839.627 1361.8,841.522 1360.85,842.258 1357.46,844.809 1357.31,844.916 1354.06,847.284 1352.6,848.31 1350.67,849.675 1347.68,851.705 1347.28,851.982 1343.88,854.208 1342.46,855.099 1340.49,856.348 1337.09,858.399 1336.93,858.493 1333.7,860.368 1330.94,861.888 1330.3,862.244 1326.91,864.034 1324.41,865.282 1323.52,865.73 1320.12,867.338 1317.11,868.676 1316.73,868.85 1313.33,870.274 1309.94,871.599 1308.63,872.071 1306.54,872.832 1303.15,873.969 1299.75,875.008 1298.1,875.465 1296.36,875.951 1292.97,876.797 1289.57,877.545 1286.18,878.192 1282.78,878.74 1281.88,878.859 1279.39,879.191 1275.99,879.542 1272.6,879.793 1269.21,879.944 1265.81,879.994 1262.42,879.944 1259.02,879.793 1255.63,879.542 1252.23,879.191 1249.74,878.859 1248.84,878.74 1245.45,878.192 1242.05,877.545 1238.66,876.797 1235.26,875.951 1233.52,875.465 1231.87,875.008 1228.47,873.969 1225.08,872.832 1222.99,872.071 1221.68,871.599 1218.29,870.274 1214.9,868.85 1214.51,868.676 1211.5,867.338 1208.11,865.73 1207.22,865.282 1204.71,864.034 1201.32,862.244 1200.68,861.888 1197.92,860.368 1194.69,858.493 1194.53,858.399 1191.14,856.348 1189.16,855.099 1187.74,854.208 1184.35,851.982 1183.94,851.705 1180.95,849.675 1179.02,848.31 1177.56,847.284 1174.31,844.916 1174.16,844.809 1170.77,842.258 1169.82,841.522 1167.38,839.627 1165.5,838.127 1163.98,836.917 1161.32,834.733 1160.59,834.13 1157.28,831.339 1157.19,831.268 1153.8,828.334 1153.36,827.944 1150.4,825.327 1149.55,824.55 1147.01,822.248 1145.84,821.156 1143.61,819.099 1142.21,817.761 1140.22,815.881 1138.66,814.367 1136.83,812.595 1135.19,810.973 1133.43,809.243 1131.78,807.578 1130.04,805.826 1128.44,804.184 1126.64,802.345 1125.16,800.789 1123.25,798.801 1121.93,797.395 1119.85,795.196 1118.75,794.001 1116.46,791.531 1115.62,790.606 1113.07,787.806 1112.54,787.212 1109.67,784.023 1109.49,783.818 1106.49,780.423 1106.28,780.185 1103.53,777.029 1102.88,776.293 1100.6,773.635 1099.49,772.346 1097.71,770.24 1096.09,768.345 1094.84,766.846 1092.7,764.291 1092.01,763.452 1089.31,760.186 1089.2,760.057 1086.43,756.663 1085.91,756.033 1083.68,753.269 1082.52,751.832 1080.96,749.874 1079.12,747.581 1078.26,746.48 1075.73,743.283 1075.57,743.086 1072.92,739.691 1072.33,738.941 1070.29,736.297 1068.94,734.555 1067.68,732.902 1065.54,730.123 1065.08,729.508 1062.51,726.114 1062.15,725.649 1059.95,722.719 1058.76,721.134 1057.41,719.325 1055.36,716.577 1054.89,715.931 1052.38,712.536 1051.97,711.98 1049.89,709.142 1048.57,707.346 1047.42,705.748 1045.18,702.67 1044.95,702.353 1042.51,698.959 1041.78,697.96 1040.08,695.565 1038.39,693.212 1037.65,692.17 1035.24,688.776 1035,688.427 1032.85,685.382 1031.6,683.609 1030.47,681.987 1028.21,678.754 1028.1,678.593 1025.74,675.199 1024.81,673.869 1023.39,671.804 1021.42,668.949 1021.05,668.41 1018.72,665.016 1018.02,663.998 1016.41,661.621 1014.63,659.015 1014.1,658.227 1011.8,654.832 1011.24,654.001 1009.51,651.438 1007.84,648.958 1007.23,648.044 1004.96,644.649 1004.45,643.884 1002.7,641.255 1001.05,638.783 1000.44,637.861 998.199,634.466 997.658,633.653 995.963,631.072 994.263,628.496 993.73,627.678 991.508,624.283 990.869,623.312 989.295,620.889 987.475,618.101 987.084,617.495 984.884,614.1 984.08,612.866 982.691,610.706 980.686,607.603 980.5,607.312 978.322,603.917 977.292,602.319 976.148,600.523 973.975,597.129 973.897,597.007 971.817,593.734 970.503,591.675 969.66,590.34 967.508,586.946 967.109,586.318 965.367,583.551 963.714,580.939 963.225,580.157 961.093,576.762 960.32,575.538 958.966,573.368 956.926,570.113 956.839,569.974 954.725,566.579 953.531,564.671 952.612,563.185 950.502,559.791 950.137,559.205 948.402,556.396 946.743,553.72 946.302,553.002 944.21,549.608 943.348,548.216 942.122,546.213 940.034,542.819 939.954,542.689 937.958,539.425 936.559,537.147 935.881,536.03 933.809,532.636 933.165,531.585 931.744,529.242 929.771,526.003 929.677,525.847 927.621,522.453 926.376,520.406 925.565,519.059 923.513,515.664 922.982,514.789 921.468,512.27 919.588,509.155 919.42,508.875 917.383,505.481 916.193,503.506 915.346,502.087 913.312,498.692 912.799,497.84 911.285,495.298 909.405,492.156 909.255,491.904 907.236,488.509 906.01,486.458 905.215,485.115 903.199,481.721 902.616,480.744 901.187,478.326 899.222,475.014 899.174,474.932 897.17,471.538 895.827,469.271 895.165,468.143 893.165,464.749 892.433,463.512 891.168,461.355 889.17,457.96 889.039,457.737 887.181,454.566 885.644,451.951 885.19,451.172 883.205,447.777 882.25,446.15 881.221,444.383 879.239,440.989 878.856,440.335 877.262,437.594 875.461,434.507 875.284,434.2 873.313,430.805 872.067,428.667 871.341,427.411 869.373,424.017 868.672,422.813 867.408,420.622 865.442,417.228 865.278,416.946 863.484,413.834 861.884,411.069 861.523,410.439 859.568,407.045 858.489,405.179 857.614,403.651 855.661,400.256 855.095,399.276 853.713,396.862 851.762,393.468 851.701,393.362 849.82,390.073 848.306,387.437 847.875,386.679 845.935,383.285 844.912,381.501 843.995,379.89 842.057,376.496 841.518,375.554 840.124,373.102 838.188,369.707 838.123,369.595 836.259,366.313 834.729,363.627 834.328,362.919 832.402,359.524 831.335,357.649 830.477,356.13 828.552,352.735 827.94,351.66 826.632,349.341 824.709,345.947 824.546,345.66 822.793,342.552 821.152,339.651 820.875,339.158 818.962,335.764 817.757,333.633 817.048,332.369 815.137,328.975 814.363,327.605 813.228,325.581 811.318,322.186 810.969,321.568 809.413,318.792 807.574,315.521 807.506,315.398 805.605,312.003 804.18,309.466 803.702,308.609 801.803,305.215 800.786,303.403 799.904,301.82 798.006,298.426 797.391,297.33 796.111,295.032 794.215,291.637 793.997,291.248 792.325,288.243 790.602,285.158 790.431,284.848 788.543,281.454 787.208,279.061 786.654,278.06 784.767,274.665 783.814,272.955 782.881,271.271 780.996,267.877 780.419,266.841 779.114,264.482 777.231,261.088 777.025,260.719 775.352,257.694 773.631,254.59 773.471,254.299 771.595,250.905 770.236,248.454 769.717,247.511 767.843,244.116 766.842,242.31 765.968,240.722 764.095,237.328 763.448,236.158 762.224,233.933 760.352,230.539 760.053,229.999 758.485,227.145 756.659,223.833 756.614,223.75 754.749,220.356 753.265,217.661 752.882,216.962 751.019,213.567 749.87,211.482 749.154,210.173 747.292,206.778 746.476,205.296 745.431,203.384 743.569,199.99 743.082,199.103 741.711,196.595 739.851,193.201 739.687,192.903 737.996,189.807 736.293,186.698 736.138,186.412 734.285,183.018 732.899,180.486 732.429,179.624 730.577,176.229 729.504,174.269 728.725,172.835 726.873,169.441 726.11,168.045 725.024,166.046 723.173,162.652 722.716,161.814 721.327,159.258 719.477,155.863 719.321,155.578 717.633,152.469 715.927,149.336 715.785,149.075 713.943,145.68 712.532,143.089 712.098,142.286 710.256,138.892 709.138,136.836 708.414,135.497 706.573,132.103 705.744,130.578 704.733,128.708 702.893,125.314 702.349,124.314 701.056,121.92 699.217,118.525 698.955,118.044 697.382,115.131 695.561,111.769 695.543,111.737 693.711,108.342 692.166,105.49 691.875,104.948 690.043,101.554 688.772,99.205 688.209,98.1593 686.378,94.765 685.378,92.9152 684.547,91.3706 682.717,87.9763 "/>
<path clip-path="url(#clip150)" d="M504.686 1412.83 Q505.108 1413.25 505.108 1413.85 Q505.108 1414.45 504.686 1414.87 Q504.265 1415.29 503.668 1415.29 L458.626 1415.29 Q458.029 1415.29 457.607 1414.87 Q457.186 1414.45 457.186 1413.85 Q457.186 1413.25 457.607 1412.83 Q458.029 1412.41 458.626 1412.41 L503.668 1412.41 Q504.265 1412.41 504.686 1412.83 Z" fill="#000000" fill-rule="nonzero" fill-opacity="1" /><path clip-path="url(#clip150)" d="M512.618 1408.83 Q512.618 1398.25 515.289 1392.49 Q519.013 1383.92 527.796 1383.92 Q529.658 1383.92 531.591 1384.44 Q533.558 1384.94 536.017 1386.87 Q538.512 1388.8 540.023 1391.96 Q542.904 1398.08 542.904 1408.83 Q542.904 1419.33 540.233 1425.06 Q536.334 1433.42 527.726 1433.42 Q524.494 1433.42 521.191 1431.77 Q517.924 1430.12 515.851 1426.15 Q512.618 1420.21 512.618 1408.83 M518.591 1407.95 Q518.591 1418.8 519.364 1423.13 Q520.242 1427.8 522.632 1429.84 Q525.056 1431.84 527.726 1431.84 Q530.607 1431.84 532.996 1429.7 Q535.42 1427.52 536.158 1422.85 Q536.966 1418.24 536.931 1407.95 Q536.931 1397.94 536.228 1393.93 Q535.28 1389.26 532.75 1387.4 Q530.256 1385.5 527.726 1385.5 Q526.777 1385.5 525.758 1385.78 Q524.775 1386.06 523.334 1386.87 Q521.894 1387.68 520.769 1389.68 Q519.68 1391.68 519.153 1394.7 Q518.591 1398.6 518.591 1407.95 Z" fill="#000000" fill-rule="nonzero" fill-opacity="1" /><path clip-path="url(#clip150)" d="M549.34 1430.68 Q548.251 1429.52 548.251 1428.01 Q548.251 1426.5 549.34 1425.41 Q550.43 1424.29 552.081 1424.29 Q553.662 1424.29 554.716 1425.34 Q555.805 1426.36 555.805 1428.05 Q555.805 1429.7 554.646 1430.79 Q553.521 1431.84 552.081 1431.84 Q550.43 1431.84 549.34 1430.68 Z" fill="#000000" fill-rule="nonzero" fill-opacity="1" /><path clip-path="url(#clip150)" d="M568.051 1408.83 Q568.051 1398.25 570.721 1392.49 Q574.445 1383.92 583.229 1383.92 Q585.091 1383.92 587.023 1384.44 Q588.991 1384.94 591.45 1386.87 Q593.945 1388.8 595.455 1391.96 Q598.336 1398.08 598.336 1408.83 Q598.336 1419.33 595.666 1425.06 Q591.766 1433.42 583.159 1433.42 Q579.926 1433.42 576.624 1431.77 Q573.356 1430.12 571.283 1426.15 Q568.051 1420.21 568.051 1408.83 M574.024 1407.95 Q574.024 1418.8 574.797 1423.13 Q575.675 1427.8 578.064 1429.84 Q580.488 1431.84 583.159 1431.84 Q586.04 1431.84 588.429 1429.7 Q590.853 1427.52 591.591 1422.85 Q592.399 1418.24 592.364 1407.95 Q592.364 1397.94 591.661 1393.93 Q590.712 1389.26 588.183 1387.4 Q585.688 1385.5 583.159 1385.5 Q582.21 1385.5 581.191 1385.78 Q580.207 1386.06 578.767 1386.87 Q577.326 1387.68 576.202 1389.68 Q575.113 1391.68 574.586 1394.7 Q574.024 1398.6 574.024 1407.95 Z" fill="#000000" fill-rule="nonzero" fill-opacity="1" /><path clip-path="url(#clip150)" d="M603.972 1422.14 Q603.972 1420 605.202 1418.98 Q606.431 1417.96 608.012 1417.96 Q609.664 1417.96 610.823 1419.05 Q612.018 1420.1 612.018 1421.97 Q612.018 1423.97 610.612 1425.09 Q609.242 1426.22 607.274 1425.94 Q608.996 1428.82 612.158 1430.12 Q615.355 1431.42 618.306 1431.42 Q621.398 1431.42 623.893 1428.75 Q626.422 1426.08 626.422 1419.54 Q626.422 1413.99 624.244 1410.79 Q622.101 1407.6 617.85 1407.6 L614.688 1407.6 Q613.599 1407.6 613.282 1407.49 Q612.966 1407.39 612.966 1406.79 Q612.966 1406.09 614.055 1405.95 Q615.144 1405.95 616.866 1405.74 Q621.047 1405.59 623.26 1401.98 Q625.263 1398.6 625.263 1393.79 Q625.263 1389.4 623.155 1387.57 Q621.082 1385.71 618.377 1385.71 Q615.847 1385.71 613.072 1386.76 Q610.296 1387.82 608.785 1390.17 Q613.247 1390.17 613.247 1393.79 Q613.247 1395.37 612.228 1396.42 Q611.245 1397.44 609.593 1397.44 Q608.012 1397.44 606.958 1396.46 Q605.904 1395.44 605.904 1393.72 Q605.904 1389.61 609.558 1386.76 Q613.247 1383.92 618.658 1383.92 Q623.998 1383.92 627.933 1386.73 Q631.903 1389.54 631.903 1393.86 Q631.903 1398.11 629.092 1401.59 Q626.282 1405.07 621.82 1406.51 Q627.301 1407.6 630.568 1411.32 Q633.836 1415.01 633.836 1419.54 Q633.836 1425.16 629.409 1429.31 Q624.982 1433.42 618.517 1433.42 Q612.545 1433.42 608.258 1430.19 Q603.972 1426.96 603.972 1422.14 Z" fill="#000000" fill-rule="nonzero" fill-opacity="1" /><path clip-path="url(#clip150)" d="M639.893 1400.11 Q639.893 1396.28 641.017 1393.68 Q642.141 1391.05 644.495 1388.45 Q648.817 1383.92 655.07 1383.92 Q657.741 1383.92 660.095 1385.04 Q662.484 1386.17 664.732 1388.73 Q667.016 1391.26 668.386 1396.28 Q669.756 1401.27 669.756 1408.16 Q669.756 1419.3 664.346 1426.36 Q658.97 1433.42 651.698 1433.42 Q647.095 1433.42 644.39 1431.35 Q641.685 1429.24 641.685 1425.66 Q641.685 1423.79 642.739 1423.02 Q643.793 1422.21 644.987 1422.21 Q646.287 1422.21 647.306 1423.09 Q648.325 1423.93 648.325 1425.52 Q648.325 1426.82 647.482 1427.83 Q646.674 1428.82 644.565 1428.82 Q646.638 1431.42 651.627 1431.42 Q653.419 1431.42 655.211 1430.61 Q657.003 1429.77 658.935 1427.76 Q660.903 1425.73 662.097 1421.48 Q663.292 1417.22 663.292 1411.25 L663.292 1408.97 Q660.411 1416.17 654.298 1416.17 Q648.255 1416.17 644.074 1411.53 Q639.893 1406.89 639.893 1400.11 M646.357 1400.18 Q646.357 1407.32 647.657 1409.95 Q649.871 1414.48 654.368 1414.48 Q658.759 1414.48 660.938 1410.58 Q663.151 1406.65 663.151 1401.55 Q663.151 1394.49 661.992 1391.4 Q659.849 1385.71 655.07 1385.71 Q650.327 1385.71 647.868 1390.24 Q646.357 1392.91 646.357 1400.18 Z" fill="#000000" fill-rule="nonzero" fill-opacity="1" /><path clip-path="url(#clip150)" d="M711.362 1404.79 Q711.362 1406.75 710.132 1407.88 Q708.903 1408.97 707.497 1408.97 Q706.162 1408.97 705.459 1408.19 Q704.757 1407.42 704.757 1406.44 Q704.757 1405.1 705.74 1403.94 Q706.724 1402.78 708.2 1402.54 Q706.759 1401.62 704.616 1401.62 Q703.211 1401.62 701.981 1402.36 Q700.787 1403.1 700.049 1404.05 Q699.346 1405 698.714 1406.37 Q698.116 1407.7 697.871 1408.51 Q697.66 1409.28 697.484 1410.13 L695.025 1419.96 Q693.83 1424.64 693.83 1426.29 Q693.83 1428.33 694.814 1429.7 Q695.798 1431.03 697.765 1431.03 Q698.538 1431.03 699.416 1430.82 Q700.295 1430.57 701.419 1429.94 Q702.578 1429.27 703.597 1428.29 Q704.651 1427.27 705.67 1425.55 Q706.689 1423.83 707.357 1421.62 Q707.567 1420.84 708.27 1420.84 Q709.148 1420.84 709.148 1421.55 Q709.148 1422.14 708.657 1423.41 Q708.2 1424.64 707.181 1426.25 Q706.197 1427.83 704.897 1429.27 Q703.597 1430.68 701.665 1431.66 Q699.733 1432.65 697.625 1432.65 Q694.603 1432.65 692.6 1431.03 Q690.598 1429.42 689.86 1427.17 Q689.684 1427.48 689.438 1427.9 Q689.193 1428.33 688.455 1429.27 Q687.752 1430.19 686.944 1430.89 Q686.136 1431.56 684.871 1432.09 Q683.641 1432.65 682.306 1432.65 Q680.62 1432.65 679.109 1432.16 Q677.634 1431.66 676.58 1430.54 Q675.526 1429.42 675.526 1427.87 Q675.526 1426.15 676.685 1424.95 Q677.879 1423.72 679.496 1423.72 Q680.515 1423.72 681.323 1424.32 Q682.166 1424.92 682.166 1426.22 Q682.166 1427.66 681.182 1428.75 Q680.198 1429.84 678.793 1430.12 Q680.233 1431.03 682.377 1431.03 Q684.695 1431.03 686.522 1428.99 Q688.349 1426.96 689.228 1423.55 Q691.406 1415.36 692.249 1411.71 Q693.092 1408.02 693.092 1406.44 Q693.092 1404.96 692.706 1403.94 Q692.319 1402.92 691.652 1402.47 Q691.019 1401.98 690.422 1401.8 Q689.86 1401.62 689.228 1401.62 Q688.174 1401.62 686.979 1402.05 Q685.82 1402.47 684.414 1403.45 Q683.044 1404.4 681.744 1406.37 Q680.444 1408.34 679.566 1411.04 Q679.39 1411.85 678.617 1411.85 Q677.774 1411.81 677.774 1411.11 Q677.774 1410.51 678.231 1409.28 Q678.723 1408.02 679.706 1406.44 Q680.725 1404.86 682.025 1403.45 Q683.36 1402.01 685.293 1401.03 Q687.26 1400.04 689.368 1400.04 Q690.317 1400.04 691.23 1400.25 Q692.179 1400.43 693.303 1400.96 Q694.463 1401.48 695.481 1402.64 Q696.5 1403.8 697.133 1405.49 Q697.554 1404.68 698.116 1403.91 Q698.714 1403.14 699.627 1402.19 Q700.576 1401.2 701.876 1400.64 Q703.211 1400.04 704.686 1400.04 Q706.127 1400.04 707.532 1400.43 Q708.938 1400.78 710.132 1401.94 Q711.362 1403.07 711.362 1404.79 Z" fill="#000000" fill-rule="nonzero" fill-opacity="1" /><path clip-path="url(#clip150)" d="M718.69 1410.32 Q718.69 1409.41 718.764 1409.14 Q718.862 1408.87 719.256 1408.45 L728.921 1397.68 Q734.208 1391.73 734.208 1386.54 Q734.208 1383.17 732.438 1380.76 Q730.692 1378.35 727.47 1378.35 Q725.256 1378.35 723.387 1379.7 Q721.518 1381.06 720.657 1383.47 Q720.805 1383.42 721.321 1383.42 Q722.576 1383.42 723.264 1384.21 Q723.978 1384.99 723.978 1386.05 Q723.978 1387.4 723.092 1388.07 Q722.231 1388.71 721.371 1388.71 Q721.026 1388.71 720.559 1388.63 Q720.116 1388.56 719.403 1387.87 Q718.69 1387.16 718.69 1385.9 Q718.69 1382.39 721.346 1379.58 Q724.027 1376.78 728.109 1376.78 Q732.733 1376.78 735.758 1379.53 Q738.807 1382.26 738.807 1386.54 Q738.807 1388.04 738.34 1389.42 Q737.897 1390.77 737.283 1391.83 Q736.692 1392.89 735.069 1394.58 Q733.446 1396.28 732.143 1397.49 Q730.839 1398.69 727.912 1401.25 L722.576 1406.44 L731.651 1406.44 Q736.078 1406.44 736.422 1406.04 Q736.914 1405.33 737.529 1401.57 L738.807 1401.57 L737.381 1410.32 L718.69 1410.32 Z" fill="#000000" fill-rule="nonzero" fill-opacity="1" /><path clip-path="url(#clip150)" d="M813.749 1412.83 Q814.171 1413.25 814.171 1413.85 Q814.171 1414.45 813.749 1414.87 Q813.328 1415.29 812.731 1415.29 L767.689 1415.29 Q767.092 1415.29 766.67 1414.87 Q766.249 1414.45 766.249 1413.85 Q766.249 1413.25 766.67 1412.83 Q767.092 1412.41 767.689 1412.41 L812.731 1412.41 Q813.328 1412.41 813.749 1412.83 Z" fill="#000000" fill-rule="nonzero" fill-opacity="1" /><path clip-path="url(#clip150)" d="M841.643 1408.83 Q841.643 1398.25 844.313 1392.49 Q848.037 1383.92 856.821 1383.92 Q858.683 1383.92 860.615 1384.44 Q862.583 1384.94 865.042 1386.87 Q867.536 1388.8 869.047 1391.96 Q871.928 1398.08 871.928 1408.83 Q871.928 1419.33 869.258 1425.06 Q865.358 1433.42 856.75 1433.42 Q853.518 1433.42 850.216 1431.77 Q846.948 1430.12 844.875 1426.15 Q841.643 1420.21 841.643 1408.83 M847.616 1407.95 Q847.616 1418.8 848.389 1423.13 Q849.267 1427.8 851.656 1429.84 Q854.08 1431.84 856.75 1431.84 Q859.631 1431.84 862.02 1429.7 Q864.445 1427.52 865.183 1422.85 Q865.991 1418.24 865.955 1407.95 Q865.955 1397.94 865.253 1393.93 Q864.304 1389.26 861.775 1387.4 Q859.28 1385.5 856.75 1385.5 Q855.802 1385.5 854.783 1385.78 Q853.799 1386.06 852.359 1386.87 Q850.918 1387.68 849.794 1389.68 Q848.705 1391.68 848.178 1394.7 Q847.616 1398.6 847.616 1407.95 Z" fill="#000000" fill-rule="nonzero" fill-opacity="1" /><path clip-path="url(#clip150)" d="M878.365 1430.68 Q877.276 1429.52 877.276 1428.01 Q877.276 1426.5 878.365 1425.41 Q879.454 1424.29 881.105 1424.29 Q882.686 1424.29 883.74 1425.34 Q884.83 1426.36 884.83 1428.05 Q884.83 1429.7 883.67 1430.79 Q882.546 1431.84 881.105 1431.84 Q879.454 1431.84 878.365 1430.68 Z" fill="#000000" fill-rule="nonzero" fill-opacity="1" /><path clip-path="url(#clip150)" d="M897.076 1408.83 Q897.076 1398.25 899.746 1392.49 Q903.47 1383.92 912.253 1383.92 Q914.115 1383.92 916.048 1384.44 Q918.015 1384.94 920.475 1386.87 Q922.969 1388.8 924.48 1391.96 Q927.361 1398.08 927.361 1408.83 Q927.361 1419.33 924.691 1425.06 Q920.791 1433.42 912.183 1433.42 Q908.951 1433.42 905.648 1431.77 Q902.381 1430.12 900.308 1426.15 Q897.076 1420.21 897.076 1408.83 M903.048 1407.95 Q903.048 1418.8 903.821 1423.13 Q904.7 1427.8 907.089 1429.84 Q909.513 1431.84 912.183 1431.84 Q915.064 1431.84 917.453 1429.7 Q919.877 1427.52 920.615 1422.85 Q921.423 1418.24 921.388 1407.95 Q921.388 1397.94 920.685 1393.93 Q919.737 1389.26 917.207 1387.4 Q914.713 1385.5 912.183 1385.5 Q911.235 1385.5 910.216 1385.78 Q909.232 1386.06 907.791 1386.87 Q906.351 1387.68 905.227 1389.68 Q904.138 1391.68 903.611 1394.7 Q903.048 1398.6 903.048 1407.95 Z" fill="#000000" fill-rule="nonzero" fill-opacity="1" /><path clip-path="url(#clip150)" d="M967.393 1404.79 Q967.393 1406.75 966.163 1407.88 Q964.933 1408.97 963.528 1408.97 Q962.193 1408.97 961.49 1408.19 Q960.788 1407.42 960.788 1406.44 Q960.788 1405.1 961.771 1403.94 Q962.755 1402.78 964.231 1402.54 Q962.79 1401.62 960.647 1401.62 Q959.242 1401.62 958.012 1402.36 Q956.818 1403.1 956.08 1404.05 Q955.377 1405 954.745 1406.37 Q954.147 1407.7 953.901 1408.51 Q953.691 1409.28 953.515 1410.13 L951.056 1419.96 Q949.861 1424.64 949.861 1426.29 Q949.861 1428.33 950.845 1429.7 Q951.829 1431.03 953.796 1431.03 Q954.569 1431.03 955.447 1430.82 Q956.326 1430.57 957.45 1429.94 Q958.609 1429.27 959.628 1428.29 Q960.682 1427.27 961.701 1425.55 Q962.72 1423.83 963.388 1421.62 Q963.598 1420.84 964.301 1420.84 Q965.179 1420.84 965.179 1421.55 Q965.179 1422.14 964.688 1423.41 Q964.231 1424.64 963.212 1426.25 Q962.228 1427.83 960.928 1429.27 Q959.628 1430.68 957.696 1431.66 Q955.764 1432.65 953.656 1432.65 Q950.634 1432.65 948.631 1431.03 Q946.629 1429.42 945.891 1427.17 Q945.715 1427.48 945.469 1427.9 Q945.223 1428.33 944.486 1429.27 Q943.783 1430.19 942.975 1430.89 Q942.167 1431.56 940.902 1432.09 Q939.672 1432.65 938.337 1432.65 Q936.651 1432.65 935.14 1432.16 Q933.664 1431.66 932.61 1430.54 Q931.556 1429.42 931.556 1427.87 Q931.556 1426.15 932.716 1424.95 Q933.91 1423.72 935.527 1423.72 Q936.545 1423.72 937.354 1424.32 Q938.197 1424.92 938.197 1426.22 Q938.197 1427.66 937.213 1428.75 Q936.229 1429.84 934.824 1430.12 Q936.264 1431.03 938.408 1431.03 Q940.726 1431.03 942.553 1428.99 Q944.38 1426.96 945.259 1423.55 Q947.437 1415.36 948.28 1411.71 Q949.123 1408.02 949.123 1406.44 Q949.123 1404.96 948.737 1403.94 Q948.35 1402.92 947.683 1402.47 Q947.05 1401.98 946.453 1401.8 Q945.891 1401.62 945.259 1401.62 Q944.205 1401.62 943.01 1402.05 Q941.851 1402.47 940.445 1403.45 Q939.075 1404.4 937.775 1406.37 Q936.475 1408.34 935.597 1411.04 Q935.421 1411.85 934.648 1411.85 Q933.805 1411.81 933.805 1411.11 Q933.805 1410.51 934.262 1409.28 Q934.754 1408.02 935.737 1406.44 Q936.756 1404.86 938.056 1403.45 Q939.391 1402.01 941.324 1401.03 Q943.291 1400.04 945.399 1400.04 Q946.348 1400.04 947.261 1400.25 Q948.21 1400.43 949.334 1400.96 Q950.494 1401.48 951.512 1402.64 Q952.531 1403.8 953.164 1405.49 Q953.585 1404.68 954.147 1403.91 Q954.745 1403.14 955.658 1402.19 Q956.607 1401.2 957.907 1400.64 Q959.242 1400.04 960.717 1400.04 Q962.158 1400.04 963.563 1400.43 Q964.969 1400.78 966.163 1401.94 Q967.393 1403.07 967.393 1404.79 Z" fill="#000000" fill-rule="nonzero" fill-opacity="1" /><path clip-path="url(#clip150)" d="M1004.64 1402.78 Q1004.64 1403.28 1004.33 1404.44 L997.439 1431.91 Q995.929 1438.02 991.01 1442.31 Q986.126 1446.6 980.575 1446.6 Q977.238 1446.6 975.094 1444.8 Q972.951 1443.05 972.951 1440.34 Q972.951 1437.95 974.216 1436.79 Q975.481 1435.67 976.992 1435.67 Q977.484 1435.67 978.011 1435.81 Q978.538 1435.95 979.1 1436.55 Q979.662 1437.14 979.662 1438.16 Q979.662 1439.81 978.221 1441.11 Q977.519 1441.71 976.851 1441.85 Q976.219 1441.99 975.13 1441.99 Q975.551 1442.98 976.324 1443.64 Q977.097 1444.31 977.975 1444.56 Q978.854 1444.84 979.416 1444.91 Q980.013 1445.01 980.575 1445.01 Q985.072 1445.01 988.515 1440.48 Q989.534 1439.11 990.272 1437.74 Q991.045 1436.41 991.607 1434.76 Q992.169 1433.14 992.415 1432.26 Q992.696 1431.38 993.188 1429.38 Q989.921 1432.65 985.916 1432.65 Q984.229 1432.65 982.718 1432.19 Q981.243 1431.73 979.943 1430.79 Q978.643 1429.8 977.87 1428.08 Q977.132 1426.36 977.132 1424.08 Q977.132 1421.65 978.081 1418.35 Q979.029 1415.05 981.313 1408.97 Q982.543 1405.56 982.543 1403.91 Q982.543 1403.1 982.367 1402.61 Q982.191 1402.08 981.84 1401.91 Q981.489 1401.69 981.278 1401.66 Q981.102 1401.62 980.751 1401.62 Q978.678 1401.62 976.746 1403.73 Q974.813 1405.84 973.478 1410.55 Q973.197 1411.43 973.022 1411.64 Q972.846 1411.85 972.319 1411.85 Q971.441 1411.81 971.441 1411.11 Q971.441 1410.83 971.757 1409.74 Q972.073 1408.62 972.811 1406.96 Q973.584 1405.28 974.638 1403.77 Q975.692 1402.22 977.343 1401.13 Q979.029 1400.04 980.962 1400.04 Q983.597 1400.04 985.213 1401.77 Q986.864 1403.45 986.864 1405.95 Q986.864 1406.96 986.583 1407.88 Q986.337 1408.76 985.424 1411.11 Q981.735 1420.6 981.735 1425.23 Q981.735 1426.36 981.91 1427.31 Q982.121 1428.22 982.578 1429.13 Q983.035 1430.01 983.948 1430.54 Q984.897 1431.03 986.197 1431.03 Q987.848 1431.03 989.394 1430.26 Q990.975 1429.45 991.959 1428.36 Q992.977 1427.27 993.575 1426.36 Q994.207 1425.41 994.348 1424.92 L997.58 1411.99 L999.02 1406.23 Q999.688 1403.1 1000 1402.33 Q1000.43 1401.59 1001.16 1401.2 Q1001.9 1400.82 1002.53 1400.82 Q1003.41 1400.82 1004.01 1401.34 Q1004.64 1401.87 1004.64 1402.78 Z" fill="#000000" fill-rule="nonzero" fill-opacity="1" /><path clip-path="url(#clip150)" d="M1027.96 1414.73 Q1026.3 1414.73 1026.3 1413.85 Q1026.3 1412.97 1028.03 1412.97 Q1028.24 1412.97 1028.59 1413.01 Q1028.97 1413.04 1029.04 1413.04 L1049.32 1413.04 L1049.32 1392.7 Q1049.32 1392.63 1049.28 1392.31 Q1049.25 1391.96 1049.25 1391.75 Q1049.25 1390.03 1050.09 1390.03 Q1050.97 1390.03 1050.97 1391.75 L1050.97 1413.04 L1071.28 1413.04 Q1071.35 1413.04 1071.7 1413.01 Q1072.05 1412.97 1072.26 1412.97 Q1073.91 1412.97 1073.91 1413.85 Q1073.95 1414.73 1072.19 1414.73 Q1071.98 1414.73 1071.66 1414.69 Q1071.35 1414.66 1071.28 1414.66 L1050.97 1414.66 L1050.97 1436.02 Q1050.97 1437.67 1050.09 1437.67 Q1049.25 1437.67 1049.25 1435.95 Q1049.25 1435.74 1049.28 1435.39 Q1049.32 1435.07 1049.32 1435 L1049.32 1414.66 L1029.04 1414.66 Q1028.97 1414.66 1028.55 1414.69 Q1028.17 1414.73 1027.96 1414.73 Z" fill="#000000" fill-rule="nonzero" fill-opacity="1" /><path clip-path="url(#clip150)" d="M1101.7 1408.83 Q1101.7 1398.25 1104.37 1392.49 Q1108.09 1383.92 1116.88 1383.92 Q1118.74 1383.92 1120.67 1384.44 Q1122.64 1384.94 1125.1 1386.87 Q1127.59 1388.8 1129.1 1391.96 Q1131.98 1398.08 1131.98 1408.83 Q1131.98 1419.33 1129.31 1425.06 Q1125.41 1433.42 1116.81 1433.42 Q1113.57 1433.42 1110.27 1431.77 Q1107 1430.12 1104.93 1426.15 Q1101.7 1420.21 1101.7 1408.83 M1107.67 1407.95 Q1107.67 1418.8 1108.44 1423.13 Q1109.32 1427.8 1111.71 1429.84 Q1114.14 1431.84 1116.81 1431.84 Q1119.69 1431.84 1122.08 1429.7 Q1124.5 1427.52 1125.24 1422.85 Q1126.05 1418.24 1126.01 1407.95 Q1126.01 1397.94 1125.31 1393.93 Q1124.36 1389.26 1121.83 1387.4 Q1119.34 1385.5 1116.81 1385.5 Q1115.86 1385.5 1114.84 1385.78 Q1113.85 1386.06 1112.41 1386.87 Q1110.97 1387.68 1109.85 1389.68 Q1108.76 1391.68 1108.23 1394.7 Q1107.67 1398.6 1107.67 1407.95 Z" fill="#000000" fill-rule="nonzero" fill-opacity="1" /><path clip-path="url(#clip150)" d="M1138.42 1430.68 Q1137.33 1429.52 1137.33 1428.01 Q1137.33 1426.5 1138.42 1425.41 Q1139.51 1424.29 1141.16 1424.29 Q1142.74 1424.29 1143.8 1425.34 Q1144.89 1426.36 1144.89 1428.05 Q1144.89 1429.7 1143.73 1430.79 Q1142.6 1431.84 1141.16 1431.84 Q1139.51 1431.84 1138.42 1430.68 Z" fill="#000000" fill-rule="nonzero" fill-opacity="1" /><path clip-path="url(#clip150)" d="M1157.13 1408.83 Q1157.13 1398.25 1159.8 1392.49 Q1163.53 1383.92 1172.31 1383.92 Q1174.17 1383.92 1176.1 1384.44 Q1178.07 1384.94 1180.53 1386.87 Q1183.02 1388.8 1184.54 1391.96 Q1187.42 1398.08 1187.42 1408.83 Q1187.42 1419.33 1184.75 1425.06 Q1180.85 1433.42 1172.24 1433.42 Q1169.01 1433.42 1165.7 1431.77 Q1162.44 1430.12 1160.36 1426.15 Q1157.13 1420.21 1157.13 1408.83 M1163.1 1407.95 Q1163.1 1418.8 1163.88 1423.13 Q1164.76 1427.8 1167.14 1429.84 Q1169.57 1431.84 1172.24 1431.84 Q1175.12 1431.84 1177.51 1429.7 Q1179.93 1427.52 1180.67 1422.85 Q1181.48 1418.24 1181.44 1407.95 Q1181.44 1397.94 1180.74 1393.93 Q1179.79 1389.26 1177.26 1387.4 Q1174.77 1385.5 1172.24 1385.5 Q1171.29 1385.5 1170.27 1385.78 Q1169.29 1386.06 1167.85 1386.87 Q1166.41 1387.68 1165.28 1389.68 Q1164.19 1391.68 1163.67 1394.7 Q1163.1 1398.6 1163.1 1407.95 Z" fill="#000000" fill-rule="nonzero" fill-opacity="1" /><path clip-path="url(#clip150)" d="M1190.64 1390.77 L1190.64 1388.52 Q1199.29 1388.52 1203.75 1383.92 Q1204.98 1383.92 1205.19 1384.2 Q1205.4 1384.48 1205.4 1385.78 L1205.4 1426.15 Q1205.4 1428.29 1206.45 1428.96 Q1207.51 1429.63 1212.11 1429.63 L1214.39 1429.63 L1214.39 1431.84 Q1211.86 1431.63 1202.73 1431.63 Q1193.6 1431.63 1191.1 1431.84 L1191.1 1429.63 L1193.38 1429.63 Q1197.92 1429.63 1199.01 1428.99 Q1200.09 1428.33 1200.09 1426.15 L1200.09 1388.87 Q1196.34 1390.77 1190.64 1390.77 Z" fill="#000000" fill-rule="nonzero" fill-opacity="1" /><path clip-path="url(#clip150)" d="M1259.48 1402.78 Q1259.48 1403.28 1259.16 1404.44 L1252.28 1431.91 Q1250.76 1438.02 1245.85 1442.31 Q1240.96 1446.6 1235.41 1446.6 Q1232.07 1446.6 1229.93 1444.8 Q1227.79 1443.05 1227.79 1440.34 Q1227.79 1437.95 1229.05 1436.79 Q1230.32 1435.67 1231.83 1435.67 Q1232.32 1435.67 1232.85 1435.81 Q1233.37 1435.95 1233.94 1436.55 Q1234.5 1437.14 1234.5 1438.16 Q1234.5 1439.81 1233.06 1441.11 Q1232.35 1441.71 1231.69 1441.85 Q1231.05 1441.99 1229.97 1441.99 Q1230.39 1442.98 1231.16 1443.64 Q1231.93 1444.31 1232.81 1444.56 Q1233.69 1444.84 1234.25 1444.91 Q1234.85 1445.01 1235.41 1445.01 Q1239.91 1445.01 1243.35 1440.48 Q1244.37 1439.11 1245.11 1437.74 Q1245.88 1436.41 1246.44 1434.76 Q1247.01 1433.14 1247.25 1432.26 Q1247.53 1431.38 1248.02 1429.38 Q1244.76 1432.65 1240.75 1432.65 Q1239.07 1432.65 1237.55 1432.19 Q1236.08 1431.73 1234.78 1430.79 Q1233.48 1429.8 1232.71 1428.08 Q1231.97 1426.36 1231.97 1424.08 Q1231.97 1421.65 1232.92 1418.35 Q1233.87 1415.05 1236.15 1408.97 Q1237.38 1405.56 1237.38 1403.91 Q1237.38 1403.1 1237.2 1402.61 Q1237.03 1402.08 1236.68 1401.91 Q1236.32 1401.69 1236.11 1401.66 Q1235.94 1401.62 1235.59 1401.62 Q1233.51 1401.62 1231.58 1403.73 Q1229.65 1405.84 1228.31 1410.55 Q1228.03 1411.43 1227.86 1411.64 Q1227.68 1411.85 1227.16 1411.85 Q1226.28 1411.81 1226.28 1411.11 Q1226.28 1410.83 1226.59 1409.74 Q1226.91 1408.62 1227.65 1406.96 Q1228.42 1405.28 1229.47 1403.77 Q1230.53 1402.22 1232.18 1401.13 Q1233.87 1400.04 1235.8 1400.04 Q1238.43 1400.04 1240.05 1401.77 Q1241.7 1403.45 1241.7 1405.95 Q1241.7 1406.96 1241.42 1407.88 Q1241.17 1408.76 1240.26 1411.11 Q1236.57 1420.6 1236.57 1425.23 Q1236.57 1426.36 1236.75 1427.31 Q1236.96 1428.22 1237.41 1429.13 Q1237.87 1430.01 1238.78 1430.54 Q1239.73 1431.03 1241.03 1431.03 Q1242.68 1431.03 1244.23 1430.26 Q1245.81 1429.45 1246.79 1428.36 Q1247.81 1427.27 1248.41 1426.36 Q1249.04 1425.41 1249.18 1424.92 L1252.42 1411.99 L1253.86 1406.23 Q1254.52 1403.1 1254.84 1402.33 Q1255.26 1401.59 1256 1401.2 Q1256.74 1400.82 1257.37 1400.82 Q1258.25 1400.82 1258.85 1401.34 Q1259.48 1401.87 1259.48 1402.78 Z" fill="#000000" fill-rule="nonzero" fill-opacity="1" /><path clip-path="url(#clip150)" d="M1266.83 1410.32 Q1266.83 1409.41 1266.91 1409.14 Q1267 1408.87 1267.4 1408.45 L1277.06 1397.68 Q1282.35 1391.73 1282.35 1386.54 Q1282.35 1383.17 1280.58 1380.76 Q1278.83 1378.35 1275.61 1378.35 Q1273.4 1378.35 1271.53 1379.7 Q1269.66 1381.06 1268.8 1383.47 Q1268.95 1383.42 1269.46 1383.42 Q1270.72 1383.42 1271.41 1384.21 Q1272.12 1384.99 1272.12 1386.05 Q1272.12 1387.4 1271.23 1388.07 Q1270.37 1388.71 1269.51 1388.71 Q1269.17 1388.71 1268.7 1388.63 Q1268.26 1388.56 1267.54 1387.87 Q1266.83 1387.16 1266.83 1385.9 Q1266.83 1382.39 1269.49 1379.58 Q1272.17 1376.78 1276.25 1376.78 Q1280.87 1376.78 1283.9 1379.53 Q1286.95 1382.26 1286.95 1386.54 Q1286.95 1388.04 1286.48 1389.42 Q1286.04 1390.77 1285.42 1391.83 Q1284.83 1392.89 1283.21 1394.58 Q1281.59 1396.28 1280.28 1397.49 Q1278.98 1398.69 1276.05 1401.25 L1270.72 1406.44 L1279.79 1406.44 Q1284.22 1406.44 1284.56 1406.04 Q1285.06 1405.33 1285.67 1401.57 L1286.95 1401.57 L1285.52 1410.32 L1266.83 1410.32 Z" fill="#000000" fill-rule="nonzero" fill-opacity="1" /><path clip-path="url(#clip150)" d="M1316.04 1414.73 Q1314.39 1414.73 1314.39 1413.85 Q1314.39 1412.97 1316.11 1412.97 Q1316.32 1412.97 1316.67 1413.01 Q1317.06 1413.04 1317.13 1413.04 L1337.4 1413.04 L1337.4 1392.7 Q1337.4 1392.63 1337.37 1392.31 Q1337.33 1391.96 1337.33 1391.75 Q1337.33 1390.03 1338.18 1390.03 Q1339.05 1390.03 1339.05 1391.75 L1339.05 1413.04 L1359.36 1413.04 Q1359.43 1413.04 1359.78 1413.01 Q1360.13 1412.97 1360.35 1412.97 Q1362 1412.97 1362 1413.85 Q1362.03 1414.73 1360.28 1414.73 Q1360.06 1414.73 1359.75 1414.69 Q1359.43 1414.66 1359.36 1414.66 L1339.05 1414.66 L1339.05 1436.02 Q1339.05 1437.67 1338.18 1437.67 Q1337.33 1437.67 1337.33 1435.95 Q1337.33 1435.74 1337.37 1435.39 Q1337.4 1435.07 1337.4 1435 L1337.4 1414.66 L1317.13 1414.66 Q1317.06 1414.66 1316.64 1414.69 Q1316.25 1414.73 1316.04 1414.73 Z" fill="#000000" fill-rule="nonzero" fill-opacity="1" /><path clip-path="url(#clip150)" d="M1389.78 1408.83 Q1389.78 1398.25 1392.45 1392.49 Q1396.18 1383.92 1404.96 1383.92 Q1406.82 1383.92 1408.76 1384.44 Q1410.72 1384.94 1413.18 1386.87 Q1415.68 1388.8 1417.19 1391.96 Q1420.07 1398.08 1420.07 1408.83 Q1420.07 1419.33 1417.4 1425.06 Q1413.5 1433.42 1404.89 1433.42 Q1401.66 1433.42 1398.36 1431.77 Q1395.09 1430.12 1393.02 1426.15 Q1389.78 1420.21 1389.78 1408.83 M1395.76 1407.95 Q1395.76 1418.8 1396.53 1423.13 Q1397.41 1427.8 1399.8 1429.84 Q1402.22 1431.84 1404.89 1431.84 Q1407.77 1431.84 1410.16 1429.7 Q1412.59 1427.52 1413.32 1422.85 Q1414.13 1418.24 1414.1 1407.95 Q1414.1 1397.94 1413.39 1393.93 Q1412.45 1389.26 1409.92 1387.4 Q1407.42 1385.5 1404.89 1385.5 Q1403.94 1385.5 1402.92 1385.78 Q1401.94 1386.06 1400.5 1386.87 Q1399.06 1387.68 1397.94 1389.68 Q1396.85 1391.68 1396.32 1394.7 Q1395.76 1398.6 1395.76 1407.95 Z" fill="#000000" fill-rule="nonzero" fill-opacity="1" /><path clip-path="url(#clip150)" d="M1426.51 1430.68 Q1425.42 1429.52 1425.42 1428.01 Q1425.42 1426.5 1426.51 1425.41 Q1427.6 1424.29 1429.25 1424.29 Q1430.83 1424.29 1431.88 1425.34 Q1432.97 1426.36 1432.97 1428.05 Q1432.97 1429.7 1431.81 1430.79 Q1430.69 1431.84 1429.25 1431.84 Q1427.6 1431.84 1426.51 1430.68 Z" fill="#000000" fill-rule="nonzero" fill-opacity="1" /><path clip-path="url(#clip150)" d="M1445.22 1408.83 Q1445.22 1398.25 1447.89 1392.49 Q1451.61 1383.92 1460.4 1383.92 Q1462.26 1383.92 1464.19 1384.44 Q1466.16 1384.94 1468.62 1386.87 Q1471.11 1388.8 1472.62 1391.96 Q1475.5 1398.08 1475.5 1408.83 Q1475.5 1419.33 1472.83 1425.06 Q1468.93 1433.42 1460.32 1433.42 Q1457.09 1433.42 1453.79 1431.77 Q1450.52 1430.12 1448.45 1426.15 Q1445.22 1420.21 1445.22 1408.83 M1451.19 1407.95 Q1451.19 1418.8 1451.96 1423.13 Q1452.84 1427.8 1455.23 1429.84 Q1457.65 1431.84 1460.32 1431.84 Q1463.21 1431.84 1465.6 1429.7 Q1468.02 1427.52 1468.76 1422.85 Q1469.57 1418.24 1469.53 1407.95 Q1469.53 1397.94 1468.83 1393.93 Q1467.88 1389.26 1465.35 1387.4 Q1462.85 1385.5 1460.32 1385.5 Q1459.38 1385.5 1458.36 1385.78 Q1457.37 1386.06 1455.93 1386.87 Q1454.49 1387.68 1453.37 1389.68 Q1452.28 1391.68 1451.75 1394.7 Q1451.19 1398.6 1451.19 1407.95 Z" fill="#000000" fill-rule="nonzero" fill-opacity="1" /><path clip-path="url(#clip150)" d="M1515.53 1404.79 Q1515.53 1406.75 1514.3 1407.88 Q1513.08 1408.97 1511.67 1408.97 Q1510.33 1408.97 1509.63 1408.19 Q1508.93 1407.42 1508.93 1406.44 Q1508.93 1405.1 1509.91 1403.94 Q1510.9 1402.78 1512.37 1402.54 Q1510.93 1401.62 1508.79 1401.62 Q1507.38 1401.62 1506.15 1402.36 Q1504.96 1403.1 1504.22 1404.05 Q1503.52 1405 1502.89 1406.37 Q1502.29 1407.7 1502.04 1408.51 Q1501.83 1409.28 1501.66 1410.13 L1499.2 1419.96 Q1498 1424.64 1498 1426.29 Q1498 1428.33 1498.99 1429.7 Q1499.97 1431.03 1501.94 1431.03 Q1502.71 1431.03 1503.59 1430.82 Q1504.47 1430.57 1505.59 1429.94 Q1506.75 1429.27 1507.77 1428.29 Q1508.82 1427.27 1509.84 1425.55 Q1510.86 1423.83 1511.53 1421.62 Q1511.74 1420.84 1512.44 1420.84 Q1513.32 1420.84 1513.32 1421.55 Q1513.32 1422.14 1512.83 1423.41 Q1512.37 1424.64 1511.35 1426.25 Q1510.37 1427.83 1509.07 1429.27 Q1507.77 1430.68 1505.84 1431.66 Q1503.91 1432.65 1501.8 1432.65 Q1498.78 1432.65 1496.77 1431.03 Q1494.77 1429.42 1494.03 1427.17 Q1493.86 1427.48 1493.61 1427.9 Q1493.37 1428.33 1492.63 1429.27 Q1491.92 1430.19 1491.12 1430.89 Q1490.31 1431.56 1489.04 1432.09 Q1487.81 1432.65 1486.48 1432.65 Q1484.79 1432.65 1483.28 1432.16 Q1481.81 1431.66 1480.75 1430.54 Q1479.7 1429.42 1479.7 1427.87 Q1479.7 1426.15 1480.86 1424.95 Q1482.05 1423.72 1483.67 1423.72 Q1484.69 1423.72 1485.5 1424.32 Q1486.34 1424.92 1486.34 1426.22 Q1486.34 1427.66 1485.35 1428.75 Q1484.37 1429.84 1482.97 1430.12 Q1484.41 1431.03 1486.55 1431.03 Q1488.87 1431.03 1490.7 1428.99 Q1492.52 1426.96 1493.4 1423.55 Q1495.58 1415.36 1496.42 1411.71 Q1497.27 1408.02 1497.27 1406.44 Q1497.27 1404.96 1496.88 1403.94 Q1496.49 1402.92 1495.82 1402.47 Q1495.19 1401.98 1494.59 1401.8 Q1494.03 1401.62 1493.4 1401.62 Q1492.35 1401.62 1491.15 1402.05 Q1489.99 1402.47 1488.59 1403.45 Q1487.22 1404.4 1485.92 1406.37 Q1484.62 1408.34 1483.74 1411.04 Q1483.56 1411.85 1482.79 1411.85 Q1481.95 1411.81 1481.95 1411.11 Q1481.95 1410.51 1482.4 1409.28 Q1482.9 1408.02 1483.88 1406.44 Q1484.9 1404.86 1486.2 1403.45 Q1487.53 1402.01 1489.47 1401.03 Q1491.43 1400.04 1493.54 1400.04 Q1494.49 1400.04 1495.4 1400.25 Q1496.35 1400.43 1497.48 1400.96 Q1498.64 1401.48 1499.65 1402.64 Q1500.67 1403.8 1501.31 1405.49 Q1501.73 1404.68 1502.29 1403.91 Q1502.89 1403.14 1503.8 1402.19 Q1504.75 1401.2 1506.05 1400.64 Q1507.38 1400.04 1508.86 1400.04 Q1510.3 1400.04 1511.71 1400.43 Q1513.11 1400.78 1514.3 1401.94 Q1515.53 1403.07 1515.53 1404.79 Z" fill="#000000" fill-rule="nonzero" fill-opacity="1" /><path clip-path="url(#clip150)" d="M1542.06 1414.73 Q1540.41 1414.73 1540.41 1413.85 Q1540.41 1412.97 1542.13 1412.97 Q1542.34 1412.97 1542.69 1413.01 Q1543.08 1413.04 1543.15 1413.04 L1563.42 1413.04 L1563.42 1392.7 Q1563.42 1392.63 1563.39 1392.31 Q1563.35 1391.96 1563.35 1391.75 Q1563.35 1390.03 1564.19 1390.03 Q1565.07 1390.03 1565.07 1391.75 L1565.07 1413.04 L1585.38 1413.04 Q1585.45 1413.04 1585.8 1413.01 Q1586.15 1412.97 1586.36 1412.97 Q1588.01 1412.97 1588.01 1413.85 Q1588.05 1414.73 1586.29 1414.73 Q1586.08 1414.73 1585.77 1414.69 Q1585.45 1414.66 1585.38 1414.66 L1565.07 1414.66 L1565.07 1436.02 Q1565.07 1437.67 1564.19 1437.67 Q1563.35 1437.67 1563.35 1435.95 Q1563.35 1435.74 1563.39 1435.39 Q1563.42 1435.07 1563.42 1435 L1563.42 1414.66 L1543.15 1414.66 Q1543.08 1414.66 1542.66 1414.69 Q1542.27 1414.73 1542.06 1414.73 Z" fill="#000000" fill-rule="nonzero" fill-opacity="1" /><path clip-path="url(#clip150)" d="M1615.8 1408.83 Q1615.8 1398.25 1618.47 1392.49 Q1622.2 1383.92 1630.98 1383.92 Q1632.84 1383.92 1634.77 1384.44 Q1636.74 1384.94 1639.2 1386.87 Q1641.7 1388.8 1643.21 1391.96 Q1646.09 1398.08 1646.09 1408.83 Q1646.09 1419.33 1643.42 1425.06 Q1639.52 1433.42 1630.91 1433.42 Q1627.68 1433.42 1624.37 1431.77 Q1621.11 1430.12 1619.03 1426.15 Q1615.8 1420.21 1615.8 1408.83 M1621.77 1407.95 Q1621.77 1418.8 1622.55 1423.13 Q1623.43 1427.8 1625.82 1429.84 Q1628.24 1431.84 1630.91 1431.84 Q1633.79 1431.84 1636.18 1429.7 Q1638.6 1427.52 1639.34 1422.85 Q1640.15 1418.24 1640.11 1407.95 Q1640.11 1397.94 1639.41 1393.93 Q1638.46 1389.26 1635.93 1387.4 Q1633.44 1385.5 1630.91 1385.5 Q1629.96 1385.5 1628.94 1385.78 Q1627.96 1386.06 1626.52 1386.87 Q1625.08 1387.68 1623.95 1389.68 Q1622.86 1391.68 1622.34 1394.7 Q1621.77 1398.6 1621.77 1407.95 Z" fill="#000000" fill-rule="nonzero" fill-opacity="1" /><path clip-path="url(#clip150)" d="M1652.52 1430.68 Q1651.44 1429.52 1651.44 1428.01 Q1651.44 1426.5 1652.52 1425.41 Q1653.61 1424.29 1655.26 1424.29 Q1656.85 1424.29 1657.9 1425.34 Q1658.99 1426.36 1658.99 1428.05 Q1658.99 1429.7 1657.83 1430.79 Q1656.71 1431.84 1655.26 1431.84 Q1653.61 1431.84 1652.52 1430.68 Z" fill="#000000" fill-rule="nonzero" fill-opacity="1" /><path clip-path="url(#clip150)" d="M1671.23 1422.14 Q1671.23 1420 1672.46 1418.98 Q1673.69 1417.96 1675.28 1417.96 Q1676.93 1417.96 1678.09 1419.05 Q1679.28 1420.1 1679.28 1421.97 Q1679.28 1423.97 1677.88 1425.09 Q1676.5 1426.22 1674.54 1425.94 Q1676.26 1428.82 1679.42 1430.12 Q1682.62 1431.42 1685.57 1431.42 Q1688.66 1431.42 1691.16 1428.75 Q1693.69 1426.08 1693.69 1419.54 Q1693.69 1413.99 1691.51 1410.79 Q1689.36 1407.6 1685.11 1407.6 L1681.95 1407.6 Q1680.86 1407.6 1680.55 1407.49 Q1680.23 1407.39 1680.23 1406.79 Q1680.23 1406.09 1681.32 1405.95 Q1682.41 1405.95 1684.13 1405.74 Q1688.31 1405.59 1690.52 1401.98 Q1692.53 1398.6 1692.53 1393.79 Q1692.53 1389.4 1690.42 1387.57 Q1688.35 1385.71 1685.64 1385.71 Q1683.11 1385.71 1680.33 1386.76 Q1677.56 1387.82 1676.05 1390.17 Q1680.51 1390.17 1680.51 1393.79 Q1680.51 1395.37 1679.49 1396.42 Q1678.51 1397.44 1676.86 1397.44 Q1675.28 1397.44 1674.22 1396.46 Q1673.17 1395.44 1673.17 1393.72 Q1673.17 1389.61 1676.82 1386.76 Q1680.51 1383.92 1685.92 1383.92 Q1691.26 1383.92 1695.2 1386.73 Q1699.17 1389.54 1699.17 1393.86 Q1699.17 1398.11 1696.36 1401.59 Q1693.54 1405.07 1689.08 1406.51 Q1694.56 1407.6 1697.83 1411.32 Q1701.1 1415.01 1701.1 1419.54 Q1701.1 1425.16 1696.67 1429.31 Q1692.24 1433.42 1685.78 1433.42 Q1679.81 1433.42 1675.52 1430.19 Q1671.23 1426.96 1671.23 1422.14 Z" fill="#000000" fill-rule="nonzero" fill-opacity="1" /><path clip-path="url(#clip150)" d="M1707.16 1422.14 Q1707.16 1420 1708.39 1418.98 Q1709.62 1417.96 1711.2 1417.96 Q1712.85 1417.96 1714.01 1419.05 Q1715.2 1420.1 1715.2 1421.97 Q1715.2 1423.97 1713.8 1425.09 Q1712.43 1426.22 1710.46 1425.94 Q1712.18 1428.82 1715.34 1430.12 Q1718.54 1431.42 1721.49 1431.42 Q1724.58 1431.42 1727.08 1428.75 Q1729.61 1426.08 1729.61 1419.54 Q1729.61 1413.99 1727.43 1410.79 Q1725.28 1407.6 1721.03 1407.6 L1717.87 1407.6 Q1716.78 1407.6 1716.47 1407.49 Q1716.15 1407.39 1716.15 1406.79 Q1716.15 1406.09 1717.24 1405.95 Q1718.33 1405.95 1720.05 1405.74 Q1724.23 1405.59 1726.44 1401.98 Q1728.45 1398.6 1728.45 1393.79 Q1728.45 1389.4 1726.34 1387.57 Q1724.27 1385.71 1721.56 1385.71 Q1719.03 1385.71 1716.26 1386.76 Q1713.48 1387.82 1711.97 1390.17 Q1716.43 1390.17 1716.43 1393.79 Q1716.43 1395.37 1715.41 1396.42 Q1714.43 1397.44 1712.78 1397.44 Q1711.2 1397.44 1710.14 1396.46 Q1709.09 1395.44 1709.09 1393.72 Q1709.09 1389.61 1712.74 1386.76 Q1716.43 1383.92 1721.84 1383.92 Q1727.18 1383.92 1731.12 1386.73 Q1735.09 1389.54 1735.09 1393.86 Q1735.09 1398.11 1732.28 1401.59 Q1729.47 1405.07 1725 1406.51 Q1730.48 1407.6 1733.75 1411.32 Q1737.02 1415.01 1737.02 1419.54 Q1737.02 1425.16 1732.59 1429.31 Q1728.17 1433.42 1721.7 1433.42 Q1715.73 1433.42 1711.44 1430.19 Q1707.16 1426.96 1707.16 1422.14 Z" fill="#000000" fill-rule="nonzero" fill-opacity="1" /><path clip-path="url(#clip150)" d="M1743.08 1422.14 Q1743.08 1420 1744.31 1418.98 Q1745.54 1417.96 1747.12 1417.96 Q1748.77 1417.96 1749.93 1419.05 Q1751.12 1420.1 1751.12 1421.97 Q1751.12 1423.97 1749.72 1425.09 Q1748.35 1426.22 1746.38 1425.94 Q1748.1 1428.82 1751.26 1430.12 Q1754.46 1431.42 1757.41 1431.42 Q1760.5 1431.42 1763 1428.75 Q1765.53 1426.08 1765.53 1419.54 Q1765.53 1413.99 1763.35 1410.79 Q1761.21 1407.6 1756.95 1407.6 L1753.79 1407.6 Q1752.7 1407.6 1752.39 1407.49 Q1752.07 1407.39 1752.07 1406.79 Q1752.07 1406.09 1753.16 1405.95 Q1754.25 1405.95 1755.97 1405.74 Q1760.15 1405.59 1762.36 1401.98 Q1764.37 1398.6 1764.37 1393.79 Q1764.37 1389.4 1762.26 1387.57 Q1760.19 1385.71 1757.48 1385.71 Q1754.95 1385.71 1752.18 1386.76 Q1749.4 1387.82 1747.89 1390.17 Q1752.35 1390.17 1752.35 1393.79 Q1752.35 1395.37 1751.33 1396.42 Q1750.35 1397.44 1748.7 1397.44 Q1747.12 1397.44 1746.06 1396.46 Q1745.01 1395.44 1745.01 1393.72 Q1745.01 1389.61 1748.66 1386.76 Q1752.35 1383.92 1757.76 1383.92 Q1763.1 1383.92 1767.04 1386.73 Q1771.01 1389.54 1771.01 1393.86 Q1771.01 1398.11 1768.2 1401.59 Q1765.39 1405.07 1760.92 1406.51 Q1766.41 1407.6 1769.67 1411.32 Q1772.94 1415.01 1772.94 1419.54 Q1772.94 1425.16 1768.51 1429.31 Q1764.09 1433.42 1757.62 1433.42 Q1751.65 1433.42 1747.36 1430.19 Q1743.08 1426.96 1743.08 1422.14 Z" fill="#000000" fill-rule="nonzero" fill-opacity="1" /><path clip-path="url(#clip150)" d="M1810.76 1402.78 Q1810.76 1403.28 1810.44 1404.44 L1803.56 1431.91 Q1802.05 1438.02 1797.13 1442.31 Q1792.24 1446.6 1786.69 1446.6 Q1783.35 1446.6 1781.21 1444.8 Q1779.07 1443.05 1779.07 1440.34 Q1779.07 1437.95 1780.33 1436.79 Q1781.6 1435.67 1783.11 1435.67 Q1783.6 1435.67 1784.13 1435.81 Q1784.65 1435.95 1785.22 1436.55 Q1785.78 1437.14 1785.78 1438.16 Q1785.78 1439.81 1784.34 1441.11 Q1783.64 1441.71 1782.97 1441.85 Q1782.34 1441.99 1781.25 1441.99 Q1781.67 1442.98 1782.44 1443.64 Q1783.21 1444.31 1784.09 1444.56 Q1784.97 1444.84 1785.53 1444.91 Q1786.13 1445.01 1786.69 1445.01 Q1791.19 1445.01 1794.63 1440.48 Q1795.65 1439.11 1796.39 1437.74 Q1797.16 1436.41 1797.72 1434.76 Q1798.29 1433.14 1798.53 1432.26 Q1798.81 1431.38 1799.31 1429.38 Q1796.04 1432.65 1792.03 1432.65 Q1790.35 1432.65 1788.84 1432.19 Q1787.36 1431.73 1786.06 1430.79 Q1784.76 1429.8 1783.99 1428.08 Q1783.25 1426.36 1783.25 1424.08 Q1783.25 1421.65 1784.2 1418.35 Q1785.15 1415.05 1787.43 1408.97 Q1788.66 1405.56 1788.66 1403.91 Q1788.66 1403.1 1788.48 1402.61 Q1788.31 1402.08 1787.96 1401.91 Q1787.61 1401.69 1787.39 1401.66 Q1787.22 1401.62 1786.87 1401.62 Q1784.79 1401.62 1782.86 1403.73 Q1780.93 1405.84 1779.6 1410.55 Q1779.31 1411.43 1779.14 1411.64 Q1778.96 1411.85 1778.44 1411.85 Q1777.56 1411.81 1777.56 1411.11 Q1777.56 1410.83 1777.87 1409.74 Q1778.19 1408.62 1778.93 1406.96 Q1779.7 1405.28 1780.75 1403.77 Q1781.81 1402.22 1783.46 1401.13 Q1785.15 1400.04 1787.08 1400.04 Q1789.71 1400.04 1791.33 1401.77 Q1792.98 1403.45 1792.98 1405.95 Q1792.98 1406.96 1792.7 1407.88 Q1792.45 1408.76 1791.54 1411.11 Q1787.85 1420.6 1787.85 1425.23 Q1787.85 1426.36 1788.03 1427.31 Q1788.24 1428.22 1788.69 1429.13 Q1789.15 1430.01 1790.06 1430.54 Q1791.01 1431.03 1792.31 1431.03 Q1793.96 1431.03 1795.51 1430.26 Q1797.09 1429.45 1798.08 1428.36 Q1799.09 1427.27 1799.69 1426.36 Q1800.32 1425.41 1800.46 1424.92 L1803.7 1411.99 L1805.14 1406.23 Q1805.8 1403.1 1806.12 1402.33 Q1806.54 1401.59 1807.28 1401.2 Q1808.02 1400.82 1808.65 1400.82 Q1809.53 1400.82 1810.13 1401.34 Q1810.76 1401.87 1810.76 1402.78 Z" fill="#000000" fill-rule="nonzero" fill-opacity="1" /><path clip-path="url(#clip150)" d="M1834.07 1414.73 Q1832.42 1414.73 1832.42 1413.85 Q1832.42 1412.97 1834.14 1412.97 Q1834.35 1412.97 1834.7 1413.01 Q1835.09 1413.04 1835.16 1413.04 L1855.43 1413.04 L1855.43 1392.7 Q1855.43 1392.63 1855.4 1392.31 Q1855.36 1391.96 1855.36 1391.75 Q1855.36 1390.03 1856.21 1390.03 Q1857.08 1390.03 1857.08 1391.75 L1857.08 1413.04 L1877.39 1413.04 Q1877.46 1413.04 1877.81 1413.01 Q1878.17 1412.97 1878.38 1412.97 Q1880.03 1412.97 1880.03 1413.85 Q1880.06 1414.73 1878.31 1414.73 Q1878.09 1414.73 1877.78 1414.69 Q1877.46 1414.66 1877.39 1414.66 L1857.08 1414.66 L1857.08 1436.02 Q1857.08 1437.67 1856.21 1437.67 Q1855.36 1437.67 1855.36 1435.95 Q1855.36 1435.74 1855.4 1435.39 Q1855.43 1435.07 1855.43 1435 L1855.43 1414.66 L1835.16 1414.66 Q1835.09 1414.66 1834.67 1414.69 Q1834.28 1414.73 1834.07 1414.73 Z" fill="#000000" fill-rule="nonzero" fill-opacity="1" /><path clip-path="url(#clip150)" d="M1907.82 1390.77 L1907.82 1388.52 Q1916.46 1388.52 1920.92 1383.92 Q1922.15 1383.92 1922.36 1384.2 Q1922.57 1384.48 1922.57 1385.78 L1922.57 1426.15 Q1922.57 1428.29 1923.63 1428.96 Q1924.68 1429.63 1929.28 1429.63 L1931.57 1429.63 L1931.57 1431.84 Q1929.04 1431.63 1919.9 1431.63 Q1910.77 1431.63 1908.27 1431.84 L1908.27 1429.63 L1910.56 1429.63 Q1915.09 1429.63 1916.18 1428.99 Q1917.27 1428.33 1917.27 1426.15 L1917.27 1388.87 Q1913.51 1390.77 1907.82 1390.77 Z" fill="#000000" fill-rule="nonzero" fill-opacity="1" /><path clip-path="url(#clip150)" d="M1963.41 1420.91 Q1963.48 1420.03 1964.85 1420.03 L2008.94 1420.03 Q2011.02 1420.03 2011.05 1420.84 Q2011.05 1421.72 2009.08 1421.69 L1965.34 1421.69 Q1963.41 1421.72 1963.41 1420.91 M1963.41 1406.86 Q1963.41 1405.98 1964.92 1406.02 L2008.87 1406.02 Q2011.02 1406.02 2011.05 1406.86 Q2011.05 1407.67 2009.22 1407.67 L1964.85 1407.67 Q1963.41 1407.67 1963.41 1406.86 Z" fill="#000000" fill-rule="nonzero" fill-opacity="1" /><path clip-path="url(#clip150)" d="M2038.8 1408.83 Q2038.8 1398.25 2041.47 1392.49 Q2045.2 1383.92 2053.98 1383.92 Q2055.84 1383.92 2057.78 1384.44 Q2059.74 1384.94 2062.2 1386.87 Q2064.7 1388.8 2066.21 1391.96 Q2069.09 1398.08 2069.09 1408.83 Q2069.09 1419.33 2066.42 1425.06 Q2062.52 1433.42 2053.91 1433.42 Q2050.68 1433.42 2047.38 1431.77 Q2044.11 1430.12 2042.04 1426.15 Q2038.8 1420.21 2038.8 1408.83 M2044.78 1407.95 Q2044.78 1418.8 2045.55 1423.13 Q2046.43 1427.8 2048.82 1429.84 Q2051.24 1431.84 2053.91 1431.84 Q2056.79 1431.84 2059.18 1429.7 Q2061.61 1427.52 2062.34 1422.85 Q2063.15 1418.24 2063.12 1407.95 Q2063.12 1397.94 2062.41 1393.93 Q2061.47 1389.26 2058.94 1387.4 Q2056.44 1385.5 2053.91 1385.5 Q2052.96 1385.5 2051.94 1385.78 Q2050.96 1386.06 2049.52 1386.87 Q2048.08 1387.68 2046.96 1389.68 Q2045.87 1391.68 2045.34 1394.7 Q2044.78 1398.6 2044.78 1407.95 Z" fill="#000000" fill-rule="nonzero" fill-opacity="1" /></svg>
