<?xml version="1.0" encoding="utf-8"?>
<svg xmlns="http://www.w3.org/2000/svg" xmlns:xlink="http://www.w3.org/1999/xlink" width="600" height="400" viewBox="0 0 2400 1600">
<defs>
  <clipPath id="clip750">
    <rect x="0" y="0" width="2400" height="1600"/>
  </clipPath>
</defs>
<path clip-path="url(#clip750)" d="M0 1600 L2400 1600 L2400 0 L0 0  Z" fill="#ffffff" fill-rule="evenodd" fill-opacity="1"/>
<defs>
  <clipPath id="clip751">
    <rect x="480" y="0" width="1681" height="1600"/>
  </clipPath>
</defs>
<path clip-path="url(#clip750)" d="M178.867 1486.45 L2352.76 1486.45 L2352.76 47.2441 L178.867 47.2441  Z" fill="#ffffff" fill-rule="evenodd" fill-opacity="1"/>
<defs>
  <clipPath id="clip752">
    <rect x="178" y="47" width="2175" height="1440"/>
  </clipPath>
</defs>
<polyline clip-path="url(#clip752)" style="stroke:#000000; stroke-linecap:round; stroke-linejoin:round; stroke-width:2; stroke-opacity:0.1; fill:none" points="247.507,1486.45 247.507,47.2441 "/>
<polyline clip-path="url(#clip752)" style="stroke:#000000; stroke-linecap:round; stroke-linejoin:round; stroke-width:2; stroke-opacity:0.1; fill:none" points="586.942,1486.45 586.942,47.2441 "/>
<polyline clip-path="url(#clip752)" style="stroke:#000000; stroke-linecap:round; stroke-linejoin:round; stroke-width:2; stroke-opacity:0.1; fill:none" points="926.376,1486.45 926.376,47.2441 "/>
<polyline clip-path="url(#clip752)" style="stroke:#000000; stroke-linecap:round; stroke-linejoin:round; stroke-width:2; stroke-opacity:0.1; fill:none" points="1265.81,1486.45 1265.81,47.2441 "/>
<polyline clip-path="url(#clip752)" style="stroke:#000000; stroke-linecap:round; stroke-linejoin:round; stroke-width:2; stroke-opacity:0.1; fill:none" points="1605.25,1486.45 1605.25,47.2441 "/>
<polyline clip-path="url(#clip752)" style="stroke:#000000; stroke-linecap:round; stroke-linejoin:round; stroke-width:2; stroke-opacity:0.1; fill:none" points="1944.68,1486.45 1944.68,47.2441 "/>
<polyline clip-path="url(#clip752)" style="stroke:#000000; stroke-linecap:round; stroke-linejoin:round; stroke-width:2; stroke-opacity:0.1; fill:none" points="2284.12,1486.45 2284.12,47.2441 "/>
<polyline clip-path="url(#clip750)" style="stroke:#000000; stroke-linecap:round; stroke-linejoin:round; stroke-width:4; stroke-opacity:1; fill:none" points="178.867,1486.45 2352.76,1486.45 "/>
<polyline clip-path="url(#clip750)" style="stroke:#000000; stroke-linecap:round; stroke-linejoin:round; stroke-width:4; stroke-opacity:1; fill:none" points="247.507,1486.45 247.507,1467.55 "/>
<polyline clip-path="url(#clip750)" style="stroke:#000000; stroke-linecap:round; stroke-linejoin:round; stroke-width:4; stroke-opacity:1; fill:none" points="586.942,1486.45 586.942,1467.55 "/>
<polyline clip-path="url(#clip750)" style="stroke:#000000; stroke-linecap:round; stroke-linejoin:round; stroke-width:4; stroke-opacity:1; fill:none" points="926.376,1486.45 926.376,1467.55 "/>
<polyline clip-path="url(#clip750)" style="stroke:#000000; stroke-linecap:round; stroke-linejoin:round; stroke-width:4; stroke-opacity:1; fill:none" points="1265.81,1486.45 1265.81,1467.55 "/>
<polyline clip-path="url(#clip750)" style="stroke:#000000; stroke-linecap:round; stroke-linejoin:round; stroke-width:4; stroke-opacity:1; fill:none" points="1605.25,1486.45 1605.25,1467.55 "/>
<polyline clip-path="url(#clip750)" style="stroke:#000000; stroke-linecap:round; stroke-linejoin:round; stroke-width:4; stroke-opacity:1; fill:none" points="1944.68,1486.45 1944.68,1467.55 "/>
<polyline clip-path="url(#clip750)" style="stroke:#000000; stroke-linecap:round; stroke-linejoin:round; stroke-width:4; stroke-opacity:1; fill:none" points="2284.12,1486.45 2284.12,1467.55 "/>
<path clip-path="url(#clip750)" d="M201.569 1532.02 L231.245 1532.02 L231.245 1535.95 L201.569 1535.95 L201.569 1532.02 Z" fill="#000000" fill-rule="nonzero" fill-opacity="1" /><path clip-path="url(#clip750)" d="M255.504 1530.21 Q258.861 1530.93 260.736 1533.2 Q262.634 1535.47 262.634 1538.8 Q262.634 1543.92 259.115 1546.72 Q255.597 1549.52 249.115 1549.52 Q246.94 1549.52 244.625 1549.08 Q242.333 1548.66 239.879 1547.81 L239.879 1543.29 Q241.824 1544.43 244.139 1545.01 Q246.453 1545.58 248.977 1545.58 Q253.375 1545.58 255.666 1543.85 Q257.981 1542.11 257.981 1538.8 Q257.981 1535.75 255.828 1534.03 Q253.699 1532.3 249.879 1532.3 L245.852 1532.3 L245.852 1528.45 L250.065 1528.45 Q253.514 1528.45 255.342 1527.09 Q257.171 1525.7 257.171 1523.11 Q257.171 1520.45 255.273 1519.03 Q253.398 1517.6 249.879 1517.6 Q247.958 1517.6 245.759 1518.01 Q243.56 1518.43 240.921 1519.31 L240.921 1515.14 Q243.583 1514.4 245.898 1514.03 Q248.236 1513.66 250.296 1513.66 Q255.62 1513.66 258.722 1516.09 Q261.824 1518.5 261.824 1522.62 Q261.824 1525.49 260.18 1527.48 Q258.537 1529.45 255.504 1530.21 Z" fill="#000000" fill-rule="nonzero" fill-opacity="1" /><path clip-path="url(#clip750)" d="M281.5 1517.37 Q277.888 1517.37 276.06 1520.93 Q274.254 1524.47 274.254 1531.6 Q274.254 1538.71 276.06 1542.27 Q277.888 1545.82 281.5 1545.82 Q285.134 1545.82 286.939 1542.27 Q288.768 1538.71 288.768 1531.6 Q288.768 1524.47 286.939 1520.93 Q285.134 1517.37 281.5 1517.37 M281.5 1513.66 Q287.31 1513.66 290.365 1518.27 Q293.444 1522.85 293.444 1531.6 Q293.444 1540.33 290.365 1544.94 Q287.31 1549.52 281.5 1549.52 Q275.689 1549.52 272.611 1544.94 Q269.555 1540.33 269.555 1531.6 Q269.555 1522.85 272.611 1518.27 Q275.689 1513.66 281.5 1513.66 Z" fill="#000000" fill-rule="nonzero" fill-opacity="1" /><path clip-path="url(#clip750)" d="M541.004 1532.02 L570.68 1532.02 L570.68 1535.95 L541.004 1535.95 L541.004 1532.02 Z" fill="#000000" fill-rule="nonzero" fill-opacity="1" /><path clip-path="url(#clip750)" d="M584.8 1544.91 L601.12 1544.91 L601.12 1548.85 L579.175 1548.85 L579.175 1544.91 Q581.837 1542.16 586.421 1537.53 Q591.027 1532.88 592.208 1531.53 Q594.453 1529.01 595.333 1527.27 Q596.235 1525.51 596.235 1523.82 Q596.235 1521.07 594.291 1519.33 Q592.37 1517.6 589.268 1517.6 Q587.069 1517.6 584.615 1518.36 Q582.185 1519.13 579.407 1520.68 L579.407 1515.95 Q582.231 1514.82 584.685 1514.24 Q587.138 1513.66 589.175 1513.66 Q594.546 1513.66 597.74 1516.35 Q600.935 1519.03 600.935 1523.52 Q600.935 1525.65 600.124 1527.57 Q599.337 1529.47 597.231 1532.07 Q596.652 1532.74 593.55 1535.95 Q590.448 1539.15 584.8 1544.91 Z" fill="#000000" fill-rule="nonzero" fill-opacity="1" /><path clip-path="url(#clip750)" d="M620.934 1517.37 Q617.323 1517.37 615.495 1520.93 Q613.689 1524.47 613.689 1531.6 Q613.689 1538.71 615.495 1542.27 Q617.323 1545.82 620.934 1545.82 Q624.569 1545.82 626.374 1542.27 Q628.203 1538.71 628.203 1531.6 Q628.203 1524.47 626.374 1520.93 Q624.569 1517.37 620.934 1517.37 M620.934 1513.66 Q626.745 1513.66 629.8 1518.27 Q632.879 1522.85 632.879 1531.6 Q632.879 1540.33 629.8 1544.94 Q626.745 1549.52 620.934 1549.52 Q615.124 1549.52 612.046 1544.94 Q608.99 1540.33 608.99 1531.6 Q608.99 1522.85 612.046 1518.27 Q615.124 1513.66 620.934 1513.66 Z" fill="#000000" fill-rule="nonzero" fill-opacity="1" /><path clip-path="url(#clip750)" d="M880.439 1532.02 L910.115 1532.02 L910.115 1535.95 L880.439 1535.95 L880.439 1532.02 Z" fill="#000000" fill-rule="nonzero" fill-opacity="1" /><path clip-path="url(#clip750)" d="M921.018 1544.91 L928.656 1544.91 L928.656 1518.55 L920.346 1520.21 L920.346 1515.95 L928.61 1514.29 L933.286 1514.29 L933.286 1544.91 L940.925 1544.91 L940.925 1548.85 L921.018 1548.85 L921.018 1544.91 Z" fill="#000000" fill-rule="nonzero" fill-opacity="1" /><path clip-path="url(#clip750)" d="M960.369 1517.37 Q956.758 1517.37 954.93 1520.93 Q953.124 1524.47 953.124 1531.6 Q953.124 1538.71 954.93 1542.27 Q956.758 1545.82 960.369 1545.82 Q964.004 1545.82 965.809 1542.27 Q967.638 1538.71 967.638 1531.6 Q967.638 1524.47 965.809 1520.93 Q964.004 1517.37 960.369 1517.37 M960.369 1513.66 Q966.179 1513.66 969.235 1518.27 Q972.314 1522.85 972.314 1531.6 Q972.314 1540.33 969.235 1544.94 Q966.179 1549.52 960.369 1549.52 Q954.559 1549.52 951.48 1544.94 Q948.425 1540.33 948.425 1531.6 Q948.425 1522.85 951.48 1518.27 Q954.559 1513.66 960.369 1513.66 Z" fill="#000000" fill-rule="nonzero" fill-opacity="1" /><path clip-path="url(#clip750)" d="M1265.81 1517.37 Q1262.2 1517.37 1260.37 1520.93 Q1258.57 1524.47 1258.57 1531.6 Q1258.57 1538.71 1260.37 1542.27 Q1262.2 1545.82 1265.81 1545.82 Q1269.45 1545.82 1271.25 1542.27 Q1273.08 1538.71 1273.08 1531.6 Q1273.08 1524.47 1271.25 1520.93 Q1269.45 1517.37 1265.81 1517.37 M1265.81 1513.66 Q1271.62 1513.66 1274.68 1518.27 Q1277.76 1522.85 1277.76 1531.6 Q1277.76 1540.33 1274.68 1544.94 Q1271.62 1549.52 1265.81 1549.52 Q1260 1549.52 1256.92 1544.94 Q1253.87 1540.33 1253.87 1531.6 Q1253.87 1522.85 1256.92 1518.27 Q1260 1513.66 1265.81 1513.66 Z" fill="#000000" fill-rule="nonzero" fill-opacity="1" /><path clip-path="url(#clip750)" d="M1579.93 1544.91 L1587.57 1544.91 L1587.57 1518.55 L1579.26 1520.21 L1579.26 1515.95 L1587.53 1514.29 L1592.2 1514.29 L1592.2 1544.91 L1599.84 1544.91 L1599.84 1548.85 L1579.93 1548.85 L1579.93 1544.91 Z" fill="#000000" fill-rule="nonzero" fill-opacity="1" /><path clip-path="url(#clip750)" d="M1619.29 1517.37 Q1615.67 1517.37 1613.85 1520.93 Q1612.04 1524.47 1612.04 1531.6 Q1612.04 1538.71 1613.85 1542.27 Q1615.67 1545.82 1619.29 1545.82 Q1622.92 1545.82 1624.73 1542.27 Q1626.55 1538.71 1626.55 1531.6 Q1626.55 1524.47 1624.73 1520.93 Q1622.92 1517.37 1619.29 1517.37 M1619.29 1513.66 Q1625.1 1513.66 1628.15 1518.27 Q1631.23 1522.85 1631.23 1531.6 Q1631.23 1540.33 1628.15 1544.94 Q1625.1 1549.52 1619.29 1549.52 Q1613.48 1549.52 1610.4 1544.94 Q1607.34 1540.33 1607.34 1531.6 Q1607.34 1522.85 1610.4 1518.27 Q1613.48 1513.66 1619.29 1513.66 Z" fill="#000000" fill-rule="nonzero" fill-opacity="1" /><path clip-path="url(#clip750)" d="M1923.45 1544.91 L1939.77 1544.91 L1939.77 1548.85 L1917.83 1548.85 L1917.83 1544.91 Q1920.49 1542.16 1925.07 1537.53 Q1929.68 1532.88 1930.86 1531.53 Q1933.11 1529.01 1933.99 1527.27 Q1934.89 1525.51 1934.89 1523.82 Q1934.89 1521.07 1932.94 1519.33 Q1931.02 1517.6 1927.92 1517.6 Q1925.72 1517.6 1923.27 1518.36 Q1920.84 1519.13 1918.06 1520.68 L1918.06 1515.95 Q1920.88 1514.82 1923.34 1514.24 Q1925.79 1513.66 1927.83 1513.66 Q1933.2 1513.66 1936.39 1516.35 Q1939.59 1519.03 1939.59 1523.52 Q1939.59 1525.65 1938.78 1527.57 Q1937.99 1529.47 1935.88 1532.07 Q1935.31 1532.74 1932.2 1535.95 Q1929.1 1539.15 1923.45 1544.91 Z" fill="#000000" fill-rule="nonzero" fill-opacity="1" /><path clip-path="url(#clip750)" d="M1959.59 1517.37 Q1955.98 1517.37 1954.15 1520.93 Q1952.34 1524.47 1952.34 1531.6 Q1952.34 1538.71 1954.15 1542.27 Q1955.98 1545.82 1959.59 1545.82 Q1963.22 1545.82 1965.03 1542.27 Q1966.86 1538.71 1966.86 1531.6 Q1966.86 1524.47 1965.03 1520.93 Q1963.22 1517.37 1959.59 1517.37 M1959.59 1513.66 Q1965.4 1513.66 1968.45 1518.27 Q1971.53 1522.85 1971.53 1531.6 Q1971.53 1540.33 1968.45 1544.94 Q1965.4 1549.52 1959.59 1549.52 Q1953.78 1549.52 1950.7 1544.94 Q1947.64 1540.33 1947.64 1531.6 Q1947.64 1522.85 1950.7 1518.27 Q1953.78 1513.66 1959.59 1513.66 Z" fill="#000000" fill-rule="nonzero" fill-opacity="1" /><path clip-path="url(#clip750)" d="M2272.96 1530.21 Q2276.31 1530.93 2278.19 1533.2 Q2280.09 1535.47 2280.09 1538.8 Q2280.09 1543.92 2276.57 1546.72 Q2273.05 1549.52 2266.57 1549.52 Q2264.39 1549.52 2262.08 1549.08 Q2259.79 1548.66 2257.33 1547.81 L2257.33 1543.29 Q2259.28 1544.43 2261.59 1545.01 Q2263.91 1545.58 2266.43 1545.58 Q2270.83 1545.58 2273.12 1543.85 Q2275.44 1542.11 2275.44 1538.8 Q2275.44 1535.75 2273.28 1534.03 Q2271.15 1532.3 2267.33 1532.3 L2263.31 1532.3 L2263.31 1528.45 L2267.52 1528.45 Q2270.97 1528.45 2272.8 1527.09 Q2274.63 1525.7 2274.63 1523.11 Q2274.63 1520.45 2272.73 1519.03 Q2270.85 1517.6 2267.33 1517.6 Q2265.41 1517.6 2263.21 1518.01 Q2261.01 1518.43 2258.38 1519.31 L2258.38 1515.14 Q2261.04 1514.4 2263.35 1514.03 Q2265.69 1513.66 2267.75 1513.66 Q2273.07 1513.66 2276.18 1516.09 Q2279.28 1518.5 2279.28 1522.62 Q2279.28 1525.49 2277.63 1527.48 Q2275.99 1529.45 2272.96 1530.21 Z" fill="#000000" fill-rule="nonzero" fill-opacity="1" /><path clip-path="url(#clip750)" d="M2298.95 1517.37 Q2295.34 1517.37 2293.51 1520.93 Q2291.71 1524.47 2291.71 1531.6 Q2291.71 1538.71 2293.51 1542.27 Q2295.34 1545.82 2298.95 1545.82 Q2302.59 1545.82 2304.39 1542.27 Q2306.22 1538.71 2306.22 1531.6 Q2306.22 1524.47 2304.39 1520.93 Q2302.59 1517.37 2298.95 1517.37 M2298.95 1513.66 Q2304.76 1513.66 2307.82 1518.27 Q2310.9 1522.85 2310.9 1531.6 Q2310.9 1540.33 2307.82 1544.94 Q2304.76 1549.52 2298.95 1549.52 Q2293.14 1549.52 2290.06 1544.94 Q2287.01 1540.33 2287.01 1531.6 Q2287.01 1522.85 2290.06 1518.27 Q2293.14 1513.66 2298.95 1513.66 Z" fill="#000000" fill-rule="nonzero" fill-opacity="1" /><polyline clip-path="url(#clip752)" style="stroke:#000000; stroke-linecap:round; stroke-linejoin:round; stroke-width:2; stroke-opacity:0.1; fill:none" points="178.867,1445.72 2352.76,1445.72 "/>
<polyline clip-path="url(#clip752)" style="stroke:#000000; stroke-linecap:round; stroke-linejoin:round; stroke-width:2; stroke-opacity:0.1; fill:none" points="178.867,1106.28 2352.76,1106.28 "/>
<polyline clip-path="url(#clip752)" style="stroke:#000000; stroke-linecap:round; stroke-linejoin:round; stroke-width:2; stroke-opacity:0.1; fill:none" points="178.867,766.846 2352.76,766.846 "/>
<polyline clip-path="url(#clip752)" style="stroke:#000000; stroke-linecap:round; stroke-linejoin:round; stroke-width:2; stroke-opacity:0.1; fill:none" points="178.867,427.411 2352.76,427.411 "/>
<polyline clip-path="url(#clip752)" style="stroke:#000000; stroke-linecap:round; stroke-linejoin:round; stroke-width:2; stroke-opacity:0.1; fill:none" points="178.867,87.9763 2352.76,87.9763 "/>
<polyline clip-path="url(#clip750)" style="stroke:#000000; stroke-linecap:round; stroke-linejoin:round; stroke-width:4; stroke-opacity:1; fill:none" points="178.867,1486.45 178.867,47.2441 "/>
<polyline clip-path="url(#clip750)" style="stroke:#000000; stroke-linecap:round; stroke-linejoin:round; stroke-width:4; stroke-opacity:1; fill:none" points="178.867,1445.72 197.764,1445.72 "/>
<polyline clip-path="url(#clip750)" style="stroke:#000000; stroke-linecap:round; stroke-linejoin:round; stroke-width:4; stroke-opacity:1; fill:none" points="178.867,1106.28 197.764,1106.28 "/>
<polyline clip-path="url(#clip750)" style="stroke:#000000; stroke-linecap:round; stroke-linejoin:round; stroke-width:4; stroke-opacity:1; fill:none" points="178.867,766.846 197.764,766.846 "/>
<polyline clip-path="url(#clip750)" style="stroke:#000000; stroke-linecap:round; stroke-linejoin:round; stroke-width:4; stroke-opacity:1; fill:none" points="178.867,427.411 197.764,427.411 "/>
<polyline clip-path="url(#clip750)" style="stroke:#000000; stroke-linecap:round; stroke-linejoin:round; stroke-width:4; stroke-opacity:1; fill:none" points="178.867,87.9763 197.764,87.9763 "/>
<path clip-path="url(#clip750)" d="M50.9921 1446.17 L80.6679 1446.17 L80.6679 1450.1 L50.9921 1450.1 L50.9921 1446.17 Z" fill="#000000" fill-rule="nonzero" fill-opacity="1" /><path clip-path="url(#clip750)" d="M94.7882 1459.06 L111.108 1459.06 L111.108 1463 L89.1632 1463 L89.1632 1459.06 Q91.8252 1456.31 96.4085 1451.68 Q101.015 1447.02 102.196 1445.68 Q104.441 1443.16 105.321 1441.42 Q106.223 1439.66 106.223 1437.97 Q106.223 1435.22 104.279 1433.48 Q102.358 1431.75 99.2558 1431.75 Q97.0567 1431.75 94.603 1432.51 Q92.1725 1433.27 89.3947 1434.82 L89.3947 1430.1 Q92.2188 1428.97 94.6724 1428.39 Q97.1261 1427.81 99.1632 1427.81 Q104.534 1427.81 107.728 1430.5 Q110.922 1433.18 110.922 1437.67 Q110.922 1439.8 110.112 1441.72 Q109.325 1443.62 107.219 1446.21 Q106.64 1446.88 103.538 1450.1 Q100.436 1453.3 94.7882 1459.06 Z" fill="#000000" fill-rule="nonzero" fill-opacity="1" /><path clip-path="url(#clip750)" d="M130.922 1431.51 Q127.311 1431.51 125.482 1435.08 Q123.677 1438.62 123.677 1445.75 Q123.677 1452.86 125.482 1456.42 Q127.311 1459.96 130.922 1459.96 Q134.556 1459.96 136.362 1456.42 Q138.191 1452.86 138.191 1445.75 Q138.191 1438.62 136.362 1435.08 Q134.556 1431.51 130.922 1431.51 M130.922 1427.81 Q136.732 1427.81 139.788 1432.42 Q142.867 1437 142.867 1445.75 Q142.867 1454.48 139.788 1459.08 Q136.732 1463.67 130.922 1463.67 Q125.112 1463.67 122.033 1459.08 Q118.978 1454.48 118.978 1445.75 Q118.978 1437 122.033 1432.42 Q125.112 1427.81 130.922 1427.81 Z" fill="#000000" fill-rule="nonzero" fill-opacity="1" /><path clip-path="url(#clip750)" d="M50.9921 1106.73 L80.6679 1106.73 L80.6679 1110.67 L50.9921 1110.67 L50.9921 1106.73 Z" fill="#000000" fill-rule="nonzero" fill-opacity="1" /><path clip-path="url(#clip750)" d="M91.5706 1119.63 L99.2095 1119.63 L99.2095 1093.26 L90.8993 1094.93 L90.8993 1090.67 L99.1632 1089 L103.839 1089 L103.839 1119.63 L111.478 1119.63 L111.478 1123.56 L91.5706 1123.56 L91.5706 1119.63 Z" fill="#000000" fill-rule="nonzero" fill-opacity="1" /><path clip-path="url(#clip750)" d="M130.922 1092.08 Q127.311 1092.08 125.482 1095.64 Q123.677 1099.19 123.677 1106.32 Q123.677 1113.42 125.482 1116.99 Q127.311 1120.53 130.922 1120.53 Q134.556 1120.53 136.362 1116.99 Q138.191 1113.42 138.191 1106.32 Q138.191 1099.19 136.362 1095.64 Q134.556 1092.08 130.922 1092.08 M130.922 1088.38 Q136.732 1088.38 139.788 1092.98 Q142.867 1097.57 142.867 1106.32 Q142.867 1115.04 139.788 1119.65 Q136.732 1124.23 130.922 1124.23 Q125.112 1124.23 122.033 1119.65 Q118.978 1115.04 118.978 1106.32 Q118.978 1097.57 122.033 1092.98 Q125.112 1088.38 130.922 1088.38 Z" fill="#000000" fill-rule="nonzero" fill-opacity="1" /><path clip-path="url(#clip750)" d="M130.922 752.645 Q127.311 752.645 125.482 756.209 Q123.677 759.751 123.677 766.881 Q123.677 773.987 125.482 777.552 Q127.311 781.094 130.922 781.094 Q134.556 781.094 136.362 777.552 Q138.191 773.987 138.191 766.881 Q138.191 759.751 136.362 756.209 Q134.556 752.645 130.922 752.645 M130.922 748.941 Q136.732 748.941 139.788 753.547 Q142.867 758.131 142.867 766.881 Q142.867 775.608 139.788 780.214 Q136.732 784.797 130.922 784.797 Q125.112 784.797 122.033 780.214 Q118.978 775.608 118.978 766.881 Q118.978 758.131 122.033 753.547 Q125.112 748.941 130.922 748.941 Z" fill="#000000" fill-rule="nonzero" fill-opacity="1" /><path clip-path="url(#clip750)" d="M91.5706 440.756 L99.2095 440.756 L99.2095 414.39 L90.8993 416.057 L90.8993 411.798 L99.1632 410.131 L103.839 410.131 L103.839 440.756 L111.478 440.756 L111.478 444.691 L91.5706 444.691 L91.5706 440.756 Z" fill="#000000" fill-rule="nonzero" fill-opacity="1" /><path clip-path="url(#clip750)" d="M130.922 413.21 Q127.311 413.21 125.482 416.775 Q123.677 420.316 123.677 427.446 Q123.677 434.552 125.482 438.117 Q127.311 441.659 130.922 441.659 Q134.556 441.659 136.362 438.117 Q138.191 434.552 138.191 427.446 Q138.191 420.316 136.362 416.775 Q134.556 413.21 130.922 413.21 M130.922 409.506 Q136.732 409.506 139.788 414.113 Q142.867 418.696 142.867 427.446 Q142.867 436.173 139.788 440.779 Q136.732 445.362 130.922 445.362 Q125.112 445.362 122.033 440.779 Q118.978 436.173 118.978 427.446 Q118.978 418.696 122.033 414.113 Q125.112 409.506 130.922 409.506 Z" fill="#000000" fill-rule="nonzero" fill-opacity="1" /><path clip-path="url(#clip750)" d="M94.7882 101.321 L111.108 101.321 L111.108 105.256 L89.1632 105.256 L89.1632 101.321 Q91.8252 98.5665 96.4085 93.9369 Q101.015 89.2841 102.196 87.9416 Q104.441 85.4184 105.321 83.6823 Q106.223 81.9231 106.223 80.2333 Q106.223 77.4786 104.279 75.7425 Q102.358 74.0064 99.2558 74.0064 Q97.0567 74.0064 94.603 74.7703 Q92.1725 75.5342 89.3947 77.0851 L89.3947 72.3629 Q92.2188 71.2287 94.6724 70.65 Q97.1261 70.0713 99.1632 70.0713 Q104.534 70.0713 107.728 72.7565 Q110.922 75.4416 110.922 79.9323 Q110.922 82.062 110.112 83.9832 Q109.325 85.8814 107.219 88.474 Q106.64 89.1453 103.538 92.3628 Q100.436 95.5573 94.7882 101.321 Z" fill="#000000" fill-rule="nonzero" fill-opacity="1" /><path clip-path="url(#clip750)" d="M130.922 73.775 Q127.311 73.775 125.482 77.3398 Q123.677 80.8814 123.677 88.011 Q123.677 95.1174 125.482 98.6822 Q127.311 102.224 130.922 102.224 Q134.556 102.224 136.362 98.6822 Q138.191 95.1174 138.191 88.011 Q138.191 80.8814 136.362 77.3398 Q134.556 73.775 130.922 73.775 M130.922 70.0713 Q136.732 70.0713 139.788 74.6777 Q142.867 79.261 142.867 88.011 Q142.867 96.7378 139.788 101.344 Q136.732 105.928 130.922 105.928 Q125.112 105.928 122.033 101.344 Q118.978 96.7378 118.978 88.011 Q118.978 79.261 122.033 74.6777 Q125.112 70.0713 130.922 70.0713 Z" fill="#000000" fill-rule="nonzero" fill-opacity="1" /><polyline clip-path="url(#clip752)" style="stroke:#0000ff; stroke-linecap:round; stroke-linejoin:round; stroke-width:4; stroke-opacity:1; fill:none" points="1153.63,1007.84 1153.8,1009.02 1154.13,1011.24 1154.74,1014.63 1155.45,1018.03 1156.27,1021.42 1157.19,1024.82 1158.25,1028.21 1159.42,1031.61 1160.59,1034.71 1160.7,1035 1162.13,1038.39 1163.67,1041.79 1163.98,1042.44 1165.36,1045.18 1167.18,1048.58 1167.38,1048.91 1169.18,1051.97 1170.77,1054.51 1171.32,1055.37 1173.65,1058.76 1174.16,1059.47 1176.17,1062.15 1177.56,1063.92 1178.89,1065.55 1180.95,1067.96 1181.83,1068.94 1184.35,1071.64 1185.02,1072.34 1187.74,1075.02 1188.5,1075.73 1191.14,1078.12 1192.29,1079.13 1194.53,1080.99 1196.46,1082.52 1197.92,1083.64 1201.06,1085.91 1201.32,1086.1 1204.71,1088.35 1206.23,1089.31 1208.11,1090.45 1211.5,1092.39 1212.09,1092.7 1214.9,1094.16 1218.29,1095.81 1218.92,1096.1 1221.68,1097.31 1225.08,1098.68 1227.24,1099.49 1228.47,1099.94 1231.87,1101.06 1235.26,1102.07 1238.32,1102.89 1238.66,1102.97 1242.05,1103.75 1245.45,1104.42 1248.84,1104.99 1252.23,1105.45 1255.63,1105.82 1259.02,1106.07 1262.42,1106.23 1265.81,1106.28 1269.21,1106.23 1272.6,1106.07 1275.99,1105.82 1279.39,1105.45 1282.78,1104.99 1286.18,1104.42 1289.57,1103.75 1292.97,1102.97 1293.3,1102.89 1296.36,1102.07 1299.75,1101.06 1303.15,1099.94 1304.38,1099.49 1306.54,1098.68 1309.94,1097.31 1312.7,1096.1 1313.33,1095.81 1316.73,1094.16 1319.54,1092.7 1320.12,1092.39 1323.52,1090.45 1325.39,1089.31 1326.91,1088.35 1330.3,1086.1 1330.56,1085.91 1333.7,1083.64 1335.16,1082.52 1337.09,1080.99 1339.33,1079.13 1340.49,1078.12 1343.13,1075.73 1343.88,1075.02 1346.6,1072.34 1347.28,1071.64 1349.79,1068.94 1350.67,1067.96 1352.73,1065.55 1354.06,1063.92 1355.45,1062.15 1357.46,1059.47 1357.97,1058.76 1360.3,1055.37 1360.85,1054.51 1362.44,1051.97 1364.25,1048.91 1364.44,1048.58 1366.26,1045.18 1367.64,1042.44 1367.96,1041.79 1369.5,1038.39 1370.92,1035 1371.04,1034.71 1372.2,1031.61 1373.37,1028.21 1374.43,1024.82 1375.35,1021.42 1376.17,1018.03 1376.88,1014.63 1377.49,1011.24 1377.82,1009.02 1377.99,1007.84 1378.38,1004.45 1378.67,1001.06 1378.85,997.662 1378.94,994.267 1378.92,990.873 1378.8,987.479 1378.58,984.084 1378.26,980.69 1377.84,977.296 1377.82,977.186 1377.3,973.901 1376.66,970.507 1375.91,967.113 1375.06,963.718 1374.43,961.496 1374.09,960.324 1372.99,956.93 1371.79,953.535 1371.04,951.582 1370.46,950.141 1369,946.746 1367.64,943.831 1367.41,943.352 1365.67,939.958 1364.25,937.368 1363.79,936.563 1361.75,933.169 1360.85,931.768 1359.54,929.775 1357.46,926.794 1357.16,926.38 1354.58,922.986 1354.06,922.345 1351.78,919.592 1350.67,918.316 1348.75,916.197 1347.28,914.634 1345.47,912.803 1343.88,911.258 1341.89,909.409 1340.49,908.15 1337.99,906.014 1337.09,905.279 1333.7,902.62 1330.3,900.183 1328.9,899.226 1326.91,897.92 1323.55,895.831 1323.52,895.812 1320.12,893.892 1317.38,892.437 1316.73,892.099 1313.33,890.468 1310.15,889.043 1309.94,888.952 1306.54,887.59 1303.15,886.338 1301.1,885.648 1299.75,885.209 1296.36,884.206 1292.97,883.309 1289.57,882.518 1288.27,882.254 1286.18,881.844 1282.78,881.282 1279.39,880.821 1275.99,880.463 1272.6,880.207 1269.21,880.053 1265.81,880.002 1262.42,880.053 1259.02,880.207 1255.63,880.463 1252.23,880.821 1248.84,881.282 1245.45,881.844 1243.36,882.254 1242.05,882.518 1238.66,883.309 1235.26,884.206 1231.87,885.209 1230.52,885.648 1228.47,886.338 1225.08,887.59 1221.68,888.952 1221.48,889.043 1218.29,890.468 1214.9,892.099 1214.24,892.437 1211.5,893.892 1208.11,895.812 1208.08,895.831 1204.71,897.92 1202.73,899.226 1201.32,900.183 1197.92,902.62 1194.53,905.279 1193.64,906.014 1191.14,908.15 1189.73,909.409 1187.74,911.258 1186.15,912.803 1184.35,914.634 1182.87,916.197 1180.95,918.316 1179.84,919.592 1177.56,922.345 1177.05,922.986 1174.46,926.38 1174.16,926.794 1172.09,929.775 1170.77,931.768 1169.88,933.169 1167.83,936.563 1167.38,937.368 1165.96,939.958 1164.21,943.352 1163.98,943.831 1162.63,946.746 1161.16,950.141 1160.59,951.582 1159.83,953.535 1158.63,956.93 1157.53,960.324 1157.19,961.496 1156.57,963.718 1155.71,967.113 1154.96,970.507 1154.32,973.901 1153.8,977.186 1153.78,977.296 1153.36,980.69 1153.04,984.084 1152.82,987.479 1152.7,990.873 1152.68,994.267 1152.77,997.662 1152.95,1001.06 1153.24,1004.45 1153.63,1007.84 "/>
<polyline clip-path="url(#clip752)" style="stroke:#0000ff; stroke-linecap:round; stroke-linejoin:round; stroke-width:4; stroke-opacity:1; fill:none" points="1374.25,661.621 1374.43,662.409 1375.08,665.016 1376.19,668.41 1377.57,671.804 1377.82,672.326 1379.34,675.199 1381.22,678.196 1381.49,678.593 1384.16,681.987 1384.61,682.489 1387.47,685.382 1388.01,685.863 1391.4,688.607 1391.64,688.776 1394.8,690.835 1397.14,692.17 1398.19,692.714 1401.59,694.251 1404.98,695.552 1405.02,695.565 1408.37,696.568 1411.77,697.389 1415.16,698.027 1418.56,698.492 1421.95,698.794 1425.35,698.941 1428.74,698.941 1432.13,698.803 1435.53,698.532 1438.92,698.136 1442.32,697.621 1445.71,696.993 1449.11,696.257 1451.9,695.565 1452.5,695.41 1455.89,694.428 1459.29,693.35 1462.68,692.179 1462.71,692.17 1466.08,690.861 1469.47,689.457 1471.01,688.776 1472.87,687.932 1476.26,686.294 1478.05,685.382 1479.66,684.54 1483.05,682.669 1484.23,681.987 1486.44,680.665 1489.79,678.593 1489.84,678.559 1493.23,676.282 1494.79,675.199 1496.63,673.879 1499.42,671.804 1500.02,671.341 1503.42,668.638 1503.69,668.41 1506.81,665.748 1507.64,665.016 1510.2,662.677 1511.33,661.621 1513.6,659.402 1514.77,658.227 1516.99,655.901 1517.99,654.832 1520.39,652.141 1521,651.438 1523.78,648.09 1523.82,648.044 1526.43,644.649 1527.18,643.634 1528.87,641.255 1530.57,638.754 1531.16,637.861 1533.27,634.466 1533.96,633.28 1535.22,631.072 1537.03,627.678 1537.36,627 1538.66,624.283 1540.15,620.889 1540.75,619.373 1541.48,617.495 1542.66,614.1 1543.69,610.706 1544.15,608.927 1544.55,607.312 1545.25,603.917 1545.79,600.523 1546.15,597.129 1546.34,593.734 1546.34,590.34 1546.14,586.946 1545.72,583.551 1545.08,580.157 1544.2,576.762 1544.15,576.616 1543,573.368 1541.5,569.974 1540.75,568.542 1539.64,566.579 1537.36,563.185 1534.51,559.791 1533.96,559.219 1530.99,556.396 1530.57,556.043 1527.18,553.463 1526.49,553.002 1523.78,551.345 1520.51,549.608 1520.39,549.548 1516.99,548.107 1513.6,546.893 1511.31,546.213 1510.2,545.911 1506.81,545.156 1503.42,544.577 1500.02,544.166 1496.63,543.913 1493.23,543.81 1489.84,543.849 1486.44,544.023 1483.05,544.326 1479.66,544.75 1476.26,545.291 1472.87,545.942 1471.66,546.213 1469.47,546.722 1466.08,547.619 1462.68,548.615 1459.6,549.608 1459.29,549.711 1455.89,550.948 1452.5,552.273 1450.76,553.002 1449.11,553.715 1445.71,555.275 1443.4,556.396 1442.32,556.938 1438.92,558.733 1437.01,559.791 1435.53,560.639 1432.13,562.668 1431.31,563.185 1428.74,564.841 1426.14,566.579 1425.35,567.13 1421.95,569.569 1421.41,569.974 1418.56,572.174 1417.06,573.368 1415.16,574.932 1413.01,576.762 1411.77,577.861 1409.25,580.157 1408.37,580.981 1405.73,583.551 1404.98,584.316 1402.46,586.946 1401.59,587.893 1399.39,590.34 1398.19,591.745 1396.53,593.734 1394.8,595.91 1393.85,597.129 1391.4,600.434 1391.34,600.523 1389.03,603.917 1388.01,605.497 1386.87,607.312 1384.86,610.706 1384.61,611.149 1383.03,614.1 1381.33,617.495 1381.22,617.736 1379.81,620.889 1378.43,624.283 1377.82,625.941 1377.21,627.678 1376.15,631.072 1375.23,634.466 1374.47,637.861 1374.43,638.07 1373.89,641.255 1373.48,644.649 1373.24,648.044 1373.19,651.438 1373.33,654.832 1373.68,658.227 1374.25,661.621 "/>
<polyline clip-path="url(#clip752)" style="stroke:#0000ff; stroke-linecap:round; stroke-linejoin:round; stroke-width:4; stroke-opacity:1; fill:none" points="1123.25,696.568 1119.85,697.389 1116.46,698.027 1113.07,698.492 1109.67,698.794 1106.28,698.941 1102.88,698.941 1099.49,698.803 1096.09,698.532 1092.7,698.136 1089.31,697.621 1085.91,696.993 1082.52,696.257 1079.73,695.565 1079.12,695.41 1075.73,694.428 1072.33,693.35 1068.94,692.179 1068.92,692.17 1065.54,690.861 1062.15,689.457 1060.61,688.776 1058.76,687.932 1055.36,686.294 1053.57,685.382 1051.97,684.54 1048.57,682.669 1047.39,681.987 1045.18,680.665 1041.84,678.593 1041.78,678.559 1038.39,676.282 1036.83,675.199 1035,673.879 1032.2,671.804 1031.6,671.341 1028.21,668.638 1027.93,668.41 1024.81,665.748 1023.98,665.016 1021.42,662.677 1020.3,661.621 1018.02,659.402 1016.85,658.227 1014.63,655.901 1013.64,654.832 1011.24,652.141 1010.62,651.438 1007.84,648.09 1007.8,648.044 1005.19,644.649 1004.45,643.634 1002.75,641.255 1001.05,638.754 1000.46,637.861 998.35,634.466 997.658,633.28 996.402,631.072 994.595,627.678 994.263,627 992.965,624.283 991.472,620.889 990.869,619.373 990.14,617.495 988.967,614.1 987.934,610.706 987.475,608.927 987.068,607.312 986.372,603.917 985.837,600.523 985.47,597.129 985.282,593.734 985.284,590.34 985.487,586.946 985.902,583.551 986.544,580.157 987.427,576.762 987.475,576.616 988.625,573.368 990.118,569.974 990.869,568.542 991.987,566.579 994.263,563.185 997.113,559.791 997.658,559.219 1000.63,556.396 1001.05,556.043 1004.45,553.463 1005.13,553.002 1007.84,551.345 1011.11,549.608 1011.24,549.548 1014.63,548.107 1018.02,546.893 1020.32,546.213 1021.42,545.911 1024.81,545.156 1028.21,544.577 1031.6,544.166 1035,543.913 1038.39,543.81 1041.78,543.849 1045.18,544.023 1048.57,544.326 1051.97,544.75 1055.36,545.291 1058.76,545.942 1059.96,546.213 1062.15,546.722 1065.54,547.619 1068.94,548.615 1072.02,549.608 1072.33,549.711 1075.73,550.948 1079.12,552.273 1080.87,553.002 1082.52,553.715 1085.91,555.275 1088.22,556.396 1089.31,556.938 1092.7,558.733 1094.61,559.791 1096.09,560.639 1099.49,562.668 1100.32,563.185 1102.88,564.841 1105.48,566.579 1106.28,567.13 1109.67,569.569 1110.21,569.974 1113.07,572.174 1114.57,573.368 1116.46,574.932 1118.61,576.762 1119.85,577.861 1122.38,580.157 1123.25,580.981 1125.89,583.551 1126.64,584.316 1129.17,586.946 1130.04,587.893 1132.23,590.34 1133.43,591.745 1135.09,593.734 1136.83,595.91 1137.77,597.129 1140.22,600.434 1140.28,600.523 1142.6,603.917 1143.61,605.497 1144.76,607.312 1146.77,610.706 1147.01,611.149 1148.59,614.1 1150.29,617.495 1150.4,617.736 1151.81,620.889 1153.19,624.283 1153.8,625.941 1154.42,627.678 1155.48,631.072 1156.39,634.466 1157.16,637.861 1157.19,638.07 1157.73,641.255 1158.14,644.649 1158.38,648.044 1158.43,651.438 1158.29,654.832 1157.94,658.227 1157.37,661.621 1157.19,662.409 1156.54,665.016 1155.44,668.41 1154.05,671.804 1153.8,672.326 1152.28,675.199 1150.4,678.196 1150.13,678.593 1147.46,681.987 1147.01,682.489 1144.15,685.382 1143.61,685.863 1140.22,688.607 1139.99,688.776 1136.83,690.835 1134.48,692.17 1133.43,692.714 1130.04,694.251 1126.64,695.552 1126.6,695.565 1123.25,696.568 "/>
<polyline clip-path="url(#clip752)" style="stroke:#0000ff; stroke-linecap:round; stroke-linejoin:round; stroke-width:4; stroke-opacity:1; fill:none" points="1523.78,507.948 1520.39,508.274 1516.99,508.488 1513.6,508.584 1510.2,508.556 1506.81,508.4 1503.42,508.108 1500.02,507.674 1496.63,507.091 1493.23,506.35 1489.97,505.481 1489.84,505.443 1486.44,504.328 1483.05,503.023 1480.93,502.087 1479.66,501.496 1476.26,499.713 1474.53,498.692 1472.87,497.657 1469.47,495.298 1466.08,492.549 1465.35,491.904 1462.68,489.375 1461.84,488.509 1459.29,485.682 1458.81,485.115 1456.18,481.721 1455.89,481.327 1453.88,478.326 1452.5,476.08 1451.84,474.932 1450.05,471.538 1449.11,469.583 1448.45,468.143 1447.06,464.749 1445.81,461.355 1445.71,461.044 1444.75,457.96 1443.81,454.566 1443,451.172 1442.32,447.836 1442.31,447.777 1441.74,444.383 1441.28,440.989 1440.92,437.594 1440.65,434.2 1440.47,430.805 1440.37,427.411 1440.36,424.017 1440.43,420.622 1440.58,417.228 1440.8,413.834 1441.09,410.439 1441.45,407.045 1441.87,403.651 1442.32,400.547 1442.36,400.256 1442.92,396.862 1443.55,393.468 1444.23,390.073 1444.97,386.679 1445.71,383.503 1445.76,383.285 1446.63,379.89 1447.55,376.496 1448.52,373.102 1449.11,371.152 1449.55,369.707 1450.64,366.313 1451.77,362.919 1452.5,360.84 1452.97,359.524 1454.22,356.13 1455.52,352.735 1455.89,351.784 1456.88,349.341 1458.29,345.947 1459.29,343.609 1459.75,342.552 1461.27,339.158 1462.68,336.086 1462.83,335.764 1464.47,332.369 1466.08,329.095 1466.14,328.975 1467.88,325.581 1469.47,322.544 1469.66,322.186 1471.52,318.792 1472.87,316.362 1473.41,315.398 1475.37,312.003 1476.26,310.492 1477.39,308.609 1479.45,305.215 1479.66,304.888 1481.59,301.82 1483.05,299.548 1483.78,298.426 1486.03,295.032 1486.44,294.421 1488.35,291.637 1489.84,289.506 1490.73,288.243 1493.17,284.848 1493.23,284.762 1495.69,281.454 1496.63,280.213 1498.28,278.06 1500.02,275.814 1500.93,274.665 1503.42,271.559 1503.65,271.271 1506.46,267.877 1506.81,267.454 1509.35,264.482 1510.2,263.488 1512.32,261.088 1513.6,259.646 1515.37,257.694 1516.99,255.925 1518.51,254.299 1520.39,252.32 1521.75,250.905 1523.78,248.827 1525.09,247.511 1527.18,245.442 1528.54,244.116 1530.57,242.162 1532.1,240.722 1533.96,238.984 1535.78,237.328 1537.36,235.903 1539.59,233.933 1540.75,232.917 1543.54,230.539 1544.15,230.022 1547.54,227.219 1547.63,227.145 1550.94,224.515 1551.92,223.75 1554.33,221.897 1556.38,220.356 1557.73,219.361 1561.04,216.962 1561.12,216.904 1564.51,214.548 1565.97,213.567 1567.91,212.27 1571.13,210.173 1571.3,210.064 1574.7,207.959 1576.66,206.778 1578.09,205.925 1581.49,203.974 1582.55,203.384 1584.88,202.111 1588.27,200.32 1588.93,199.99 1591.67,198.624 1595.06,196.998 1595.95,196.595 1598.46,195.467 1601.85,194.013 1603.85,193.201 1605.25,192.643 1608.64,191.366 1612.03,190.164 1613.13,189.807 1615.43,189.061 1618.82,188.047 1622.22,187.118 1625.07,186.412 1625.61,186.281 1629.01,185.551 1632.4,184.916 1635.8,184.379 1639.19,183.946 1642.58,183.619 1645.98,183.406 1649.37,183.31 1652.77,183.337 1656.16,183.493 1659.56,183.785 1662.95,184.219 1666.34,184.803 1669.74,185.543 1673,186.412 1673.13,186.45 1676.53,187.565 1679.92,188.871 1682.04,189.807 1683.32,190.398 1686.71,192.18 1688.44,193.201 1690.1,194.237 1693.5,196.595 1693.5,196.595 1696.89,199.344 1697.62,199.99 1700.29,202.519 1701.13,203.384 1703.68,206.212 1704.16,206.778 1706.79,210.173 1707.08,210.567 1709.09,213.567 1710.47,215.814 1711.13,216.962 1712.93,220.356 1713.87,222.311 1714.52,223.75 1715.91,227.145 1717.16,230.539 1717.26,230.849 1718.22,233.933 1719.16,237.328 1719.97,240.722 1720.65,244.058 1720.67,244.116 1721.23,247.511 1721.69,250.905 1722.05,254.299 1722.32,257.694 1722.5,261.088 1722.6,264.482 1722.61,267.877 1722.54,271.271 1722.39,274.665 1722.17,278.06 1721.88,281.454 1721.52,284.848 1721.1,288.243 1720.65,291.347 1720.61,291.637 1720.05,295.032 1719.42,298.426 1718.74,301.82 1718,305.215 1717.26,308.39 1717.21,308.609 1716.34,312.003 1715.42,315.398 1714.45,318.792 1713.87,320.742 1713.42,322.186 1712.33,325.581 1711.2,328.975 1710.47,331.054 1710,332.369 1708.75,335.764 1707.45,339.158 1707.08,340.11 1706.09,342.552 1704.68,345.947 1703.68,348.284 1703.22,349.341 1701.7,352.735 1700.29,355.808 1700.14,356.13 1698.5,359.524 1696.89,362.799 1696.83,362.919 1695.09,366.313 1693.5,369.35 1693.31,369.707 1691.46,373.102 1690.1,375.532 1689.56,376.496 1687.6,379.89 1686.71,381.402 1685.58,383.285 1683.52,386.679 1683.32,387.006 1681.38,390.073 1679.92,392.345 1679.19,393.468 1676.94,396.862 1676.53,397.473 1674.62,400.256 1673.13,402.388 1672.24,403.651 1669.8,407.045 1669.74,407.131 1667.28,410.439 1666.34,411.681 1664.69,413.834 1662.95,416.08 1662.04,417.228 1659.56,420.335 1659.32,420.622 1656.52,424.017 1656.16,424.439 1653.63,427.411 1652.77,428.406 1650.66,430.805 1649.37,432.247 1647.6,434.2 1645.98,435.969 1644.46,437.594 1642.58,439.574 1641.22,440.989 1639.19,443.067 1637.88,444.383 1635.8,446.451 1634.43,447.777 1632.4,449.731 1630.87,451.172 1629.01,452.91 1627.19,454.566 1625.61,455.991 1623.38,457.96 1622.22,458.977 1619.43,461.355 1618.82,461.871 1615.43,464.675 1615.34,464.749 1612.03,467.378 1611.05,468.143 1608.64,469.996 1606.59,471.538 1605.25,472.533 1601.93,474.932 1601.85,474.989 1598.46,477.345 1597,478.326 1595.06,479.624 1591.84,481.721 1591.67,481.829 1588.27,483.935 1586.31,485.115 1584.88,485.968 1581.49,487.919 1580.42,488.509 1578.09,489.783 1574.7,491.573 1574.04,491.904 1571.3,493.27 1567.91,494.895 1567.02,495.298 1564.51,496.427 1561.12,497.881 1559.12,498.692 1557.73,499.251 1554.33,500.528 1550.94,501.729 1549.85,502.087 1547.54,502.833 1544.15,503.847 1540.75,504.776 1537.9,505.481 1537.36,505.613 1533.96,506.342 1530.57,506.978 1527.18,507.514 1523.78,507.948 "/>
<polyline clip-path="url(#clip752)" style="stroke:#0000ff; stroke-linecap:round; stroke-linejoin:round; stroke-width:4; stroke-opacity:1; fill:none" points="1038.39,506.35 1035,507.091 1031.6,507.674 1028.21,508.108 1024.81,508.4 1021.42,508.556 1018.02,508.584 1014.63,508.488 1011.24,508.274 1007.84,507.948 1004.45,507.514 1001.05,506.978 997.658,506.342 994.263,505.613 993.724,505.481 990.869,504.776 987.475,503.847 984.08,502.833 981.777,502.087 980.686,501.729 977.292,500.528 973.897,499.251 972.506,498.692 970.503,497.881 967.109,496.427 964.6,495.298 963.714,494.895 960.32,493.27 957.581,491.904 956.926,491.573 953.531,489.783 951.204,488.509 950.137,487.919 946.743,485.968 945.31,485.115 943.348,483.935 939.954,481.829 939.785,481.721 936.559,479.624 934.618,478.326 933.165,477.345 929.771,474.989 929.691,474.932 926.376,472.533 925.036,471.538 922.982,469.996 920.572,468.143 919.588,467.378 916.285,464.749 916.193,464.675 912.799,461.871 912.188,461.355 909.405,458.977 908.241,457.96 906.01,455.991 904.431,454.566 902.616,452.91 900.75,451.172 899.222,449.731 897.19,447.777 895.827,446.451 893.744,444.383 892.433,443.067 890.404,440.989 889.039,439.574 887.165,437.594 885.644,435.969 884.021,434.2 882.25,432.247 880.966,430.805 878.856,428.406 877.997,427.411 875.461,424.439 875.107,424.017 872.301,420.622 872.067,420.335 869.58,417.228 868.672,416.08 866.928,413.834 865.278,411.681 864.343,410.439 861.884,407.131 861.821,407.045 859.384,403.651 858.489,402.388 857.006,400.256 855.095,397.473 854.683,396.862 852.433,393.468 851.701,392.345 850.244,390.073 848.306,387.006 848.103,386.679 846.038,383.285 844.912,381.402 844.022,379.89 842.063,376.496 841.518,375.532 840.167,373.102 838.314,369.707 838.123,369.35 836.534,366.313 834.789,362.919 834.729,362.799 833.12,359.524 831.485,356.13 831.335,355.808 829.923,352.735 828.4,349.341 827.94,348.284 826.94,345.947 825.53,342.552 824.546,340.11 824.169,339.158 822.873,335.764 821.618,332.369 821.152,331.054 820.426,328.975 819.29,325.581 818.199,322.186 817.757,320.742 817.171,318.792 816.202,315.398 815.283,312.003 814.415,308.609 814.363,308.39 813.621,305.215 812.883,301.82 812.2,298.426 811.576,295.032 811.011,291.637 810.969,291.347 810.522,288.243 810.098,284.848 809.739,281.454 809.449,278.06 809.23,274.665 809.084,271.271 809.014,267.877 809.025,264.482 809.118,261.088 809.298,257.694 809.568,254.299 809.931,250.905 810.393,247.511 810.957,244.116 810.969,244.058 811.652,240.722 812.464,237.328 813.399,233.933 814.363,230.849 814.465,230.539 815.711,227.145 817.106,223.75 817.757,222.311 818.697,220.356 820.491,216.962 821.152,215.814 822.533,213.567 824.546,210.567 824.829,210.173 827.466,206.778 827.94,206.212 830.495,203.384 831.335,202.519 834.002,199.99 834.729,199.344 838.123,196.595 838.123,196.595 841.518,194.237 843.178,193.201 844.912,192.18 848.306,190.398 849.578,189.807 851.701,188.871 855.095,187.565 858.489,186.45 858.625,186.412 861.884,185.543 865.278,184.803 868.672,184.219 872.067,183.785 875.461,183.493 878.856,183.337 882.25,183.31 885.644,183.406 889.039,183.619 892.433,183.946 895.827,184.379 899.222,184.916 902.616,185.551 906.01,186.281 906.55,186.412 909.405,187.118 912.799,188.047 916.193,189.061 918.496,189.807 919.588,190.164 922.982,191.366 926.376,192.643 927.768,193.201 929.771,194.013 933.165,195.467 935.673,196.595 936.559,196.998 939.954,198.624 942.693,199.99 943.348,200.32 946.743,202.111 949.069,203.384 950.137,203.974 953.531,205.925 954.964,206.778 956.926,207.959 960.32,210.064 960.488,210.173 963.714,212.27 965.656,213.567 967.109,214.548 970.503,216.904 970.583,216.962 973.897,219.361 975.238,220.356 977.292,221.897 979.702,223.75 980.686,224.515 983.988,227.145 984.08,227.219 987.475,230.022 988.086,230.539 990.869,232.917 992.033,233.933 994.263,235.903 995.842,237.328 997.658,238.984 999.523,240.722 1001.05,242.162 1003.08,244.116 1004.45,245.442 1006.53,247.511 1007.84,248.827 1009.87,250.905 1011.24,252.32 1013.11,254.299 1014.63,255.925 1016.25,257.694 1018.02,259.646 1019.31,261.088 1021.42,263.488 1022.28,264.482 1024.81,267.454 1025.17,267.877 1027.97,271.271 1028.21,271.559 1030.69,274.665 1031.6,275.814 1033.35,278.06 1035,280.213 1035.93,281.454 1038.39,284.762 1038.45,284.848 1040.89,288.243 1041.78,289.506 1043.27,291.637 1045.18,294.421 1045.59,295.032 1047.84,298.426 1048.57,299.548 1050.03,301.82 1051.97,304.888 1052.17,305.215 1054.24,308.609 1055.36,310.492 1056.25,312.003 1058.21,315.398 1058.76,316.362 1060.11,318.792 1061.96,322.186 1062.15,322.544 1063.74,325.581 1065.48,328.975 1065.54,329.095 1067.15,332.369 1068.79,335.764 1068.94,336.086 1070.35,339.158 1071.87,342.552 1072.33,343.609 1073.33,345.947 1074.74,349.341 1075.73,351.784 1076.11,352.735 1077.4,356.13 1078.66,359.524 1079.12,360.84 1079.85,362.919 1080.98,366.313 1082.07,369.707 1082.52,371.152 1083.1,373.102 1084.07,376.496 1084.99,379.89 1085.86,383.285 1085.91,383.503 1086.65,386.679 1087.39,390.073 1088.07,393.468 1088.7,396.862 1089.26,400.256 1089.31,400.547 1089.75,403.651 1090.18,407.045 1090.53,410.439 1090.82,413.834 1091.04,417.228 1091.19,420.622 1091.26,424.017 1091.25,427.411 1091.16,430.805 1090.98,434.2 1090.71,437.594 1090.34,440.989 1089.88,444.383 1089.32,447.777 1089.31,447.836 1088.62,451.172 1087.81,454.566 1086.87,457.96 1085.91,461.044 1085.81,461.355 1084.56,464.749 1083.17,468.143 1082.52,469.583 1081.58,471.538 1079.78,474.932 1079.12,476.08 1077.74,478.326 1075.73,481.327 1075.44,481.721 1072.81,485.115 1072.33,485.682 1069.78,488.509 1068.94,489.375 1066.27,491.904 1065.54,492.549 1062.15,495.298 1058.76,497.657 1057.1,498.692 1055.36,499.713 1051.97,501.496 1050.7,502.087 1048.57,503.023 1045.18,504.328 1041.78,505.443 1041.65,505.481 1038.39,506.35 "/>
<circle clip-path="url(#clip752)" cx="1265.81" cy="879.991" r="14.4" fill="#000000" fill-rule="evenodd" fill-opacity="1" stroke="none"/>
<circle clip-path="url(#clip752)" cx="1539.45" cy="566.235" r="14.4" fill="#000000" fill-rule="evenodd" fill-opacity="1" stroke="none"/>
<circle clip-path="url(#clip752)" cx="992.177" cy="566.235" r="14.4" fill="#000000" fill-rule="evenodd" fill-opacity="1" stroke="none"/>
<circle clip-path="url(#clip752)" cx="1471.49" cy="496.747" r="14.4" fill="#000000" fill-rule="evenodd" fill-opacity="1" stroke="none"/>
<circle clip-path="url(#clip752)" cx="1060.14" cy="496.747" r="14.4" fill="#000000" fill-rule="evenodd" fill-opacity="1" stroke="none"/>
<polyline clip-path="url(#clip752)" style="stroke:#ff0000; stroke-linecap:round; stroke-linejoin:round; stroke-width:4; stroke-opacity:1; fill:none" points="1163.98,866.919 1160.59,866.006 1157.98,865.282 1157.19,865.059 1153.8,864.07 1150.4,863.051 1147.01,862.001 1146.65,861.888 1143.61,860.904 1140.22,859.775 1136.83,858.614 1136.48,858.493 1133.43,857.405 1130.04,856.162 1127.21,855.099 1126.64,854.883 1123.25,853.554 1119.85,852.193 1118.66,851.705 1116.46,850.784 1113.07,849.334 1110.72,848.31 1109.67,847.843 1106.28,846.301 1103.29,844.916 1102.88,844.721 1099.49,843.083 1096.32,841.522 1096.09,841.408 1092.7,839.67 1089.75,838.127 1089.31,837.893 1085.91,836.052 1083.53,834.733 1082.52,834.164 1079.12,832.215 1077.62,831.339 1075.73,830.209 1072.33,828.149 1072,827.944 1068.94,826.014 1066.66,824.55 1065.54,823.822 1062.15,821.563 1061.55,821.156 1058.76,819.226 1056.67,817.761 1055.36,816.822 1052,814.367 1051.97,814.346 1048.57,811.775 1047.53,810.973 1045.18,809.124 1043.24,807.578 1041.78,806.386 1039.13,804.184 1038.39,803.555 1035.18,800.789 1035,800.626 1031.6,797.585 1031.39,797.395 1028.21,794.429 1027.75,794.001 1024.81,791.152 1024.26,790.606 1021.42,787.744 1020.9,787.212 1018.02,784.197 1017.67,783.818 1014.63,780.497 1014.56,780.423 1011.58,777.029 1011.24,776.62 1008.72,773.635 1007.84,772.556 1005.97,770.24 1004.45,768.29 1003.33,766.846 1001.05,763.801 1000.79,763.452 998.365,760.057 997.658,759.035 996.037,756.663 994.263,753.976 993.803,753.269 991.668,749.874 990.869,748.556 989.626,746.48 987.671,743.086 987.475,742.73 985.814,739.691 984.08,736.384 984.035,736.297 982.352,732.902 980.744,729.508 980.686,729.379 979.229,726.114 977.788,722.719 977.292,721.486 976.432,719.325 975.155,715.931 973.951,712.536 973.897,712.375 972.833,709.142 971.788,705.748 970.815,702.353 970.503,701.177 969.922,698.959 969.103,695.565 968.356,692.17 967.681,688.776 967.109,685.555 967.078,685.382 966.552,681.987 966.097,678.593 965.713,675.199 965.399,671.804 965.157,668.41 964.985,665.016 964.883,661.621 964.853,658.227 964.894,654.832 965.005,651.438 965.187,648.044 965.44,644.649 965.763,641.255 966.158,637.861 966.623,634.466 967.109,631.391 967.16,631.072 967.773,627.678 968.459,624.283 969.216,620.889 970.044,617.495 970.503,615.765 970.949,614.1 971.932,610.706 972.988,607.312 973.897,604.575 974.118,603.917 975.333,600.523 976.62,597.129 977.292,595.454 977.989,593.734 979.44,590.34 980.686,587.568 980.969,586.946 982.588,583.551 984.08,580.56 984.284,580.157 986.074,576.762 987.475,574.214 987.946,573.368 989.911,569.974 990.869,568.383 991.968,566.579 994.114,563.185 994.263,562.956 996.363,559.791 997.658,557.906 998.707,556.396 1001.05,553.134 1001.15,553.002 1003.7,549.608 1004.45,548.646 1006.36,546.213 1007.84,544.384 1009.12,542.819 1011.24,540.322 1012,539.425 1014.63,536.446 1015,536.03 1018.02,532.738 1018.12,532.636 1021.37,529.242 1021.42,529.189 1024.75,525.847 1024.81,525.781 1028.21,522.505 1028.26,522.453 1031.6,519.354 1031.92,519.059 1035,516.317 1035.74,515.664 1038.39,513.386 1039.71,512.27 1041.78,510.553 1043.84,508.875 1045.18,507.813 1048.15,505.481 1048.57,505.159 1051.97,502.597 1052.65,502.087 1055.36,500.118 1057.35,498.692 1058.76,497.711 1062.15,495.372 1062.26,495.298 1065.54,493.118 1067.41,491.904 1068.94,490.923 1072.33,488.79 1072.79,488.509 1075.73,486.73 1078.44,485.115 1079.12,484.72 1082.52,482.776 1084.39,481.721 1085.91,480.885 1089.31,479.048 1090.67,478.326 1092.7,477.267 1096.09,475.534 1097.3,474.932 1099.49,473.855 1102.88,472.22 1104.33,471.538 1106.28,470.636 1109.67,469.097 1111.82,468.143 1113.07,467.602 1116.46,466.155 1119.84,464.749 1119.85,464.741 1123.25,463.384 1126.64,462.058 1128.49,461.355 1130.04,460.774 1133.43,459.534 1136.83,458.326 1137.88,457.96 1140.22,457.162 1143.61,456.035 1147.01,454.939 1148.2,454.566 1150.4,453.886 1153.8,452.869 1157.19,451.882 1159.71,451.172 1160.59,450.93 1163.98,450.019 1167.38,449.138 1170.77,448.286 1172.87,447.777 1174.16,447.47 1177.56,446.691 1180.95,445.942 1184.35,445.222 1187.74,444.531 1188.5,444.383 1191.14,443.878 1194.53,443.256 1197.92,442.663 1201.32,442.099 1204.71,441.564 1208.11,441.058 1208.6,440.989 1211.5,440.587 1214.9,440.145 1218.29,439.732 1221.68,439.348 1225.08,438.992 1228.47,438.664 1231.87,438.365 1235.26,438.095 1238.66,437.853 1242.05,437.639 1242.87,437.594 1245.45,437.456 1248.84,437.302 1252.23,437.176 1255.63,437.077 1259.02,437.007 1262.42,436.965 1265.81,436.951 1269.21,436.965 1272.6,437.007 1275.99,437.077 1279.39,437.176 1282.78,437.302 1286.18,437.456 1288.75,437.594 1289.57,437.639 1292.97,437.853 1296.36,438.095 1299.75,438.365 1303.15,438.664 1306.54,438.992 1309.94,439.348 1313.33,439.732 1316.73,440.145 1320.12,440.587 1323.02,440.989 1323.52,441.058 1326.91,441.564 1330.3,442.099 1333.7,442.663 1337.09,443.256 1340.49,443.878 1343.12,444.383 1343.88,444.531 1347.28,445.222 1350.67,445.942 1354.06,446.691 1357.46,447.47 1358.75,447.777 1360.85,448.286 1364.25,449.138 1367.64,450.019 1371.04,450.93 1371.91,451.172 1374.43,451.882 1377.82,452.869 1381.22,453.886 1383.42,454.566 1384.61,454.939 1388.01,456.035 1391.4,457.162 1393.74,457.96 1394.8,458.326 1398.19,459.534 1401.59,460.774 1403.13,461.355 1404.98,462.058 1408.37,463.384 1411.77,464.741 1411.79,464.749 1415.16,466.155 1418.56,467.602 1419.8,468.143 1421.95,469.097 1425.35,470.636 1427.29,471.538 1428.74,472.22 1432.13,473.855 1434.33,474.932 1435.53,475.534 1438.92,477.267 1440.96,478.326 1442.32,479.048 1445.71,480.885 1447.23,481.721 1449.11,482.776 1452.5,484.72 1453.18,485.115 1455.89,486.73 1458.83,488.509 1459.29,488.79 1462.68,490.923 1464.22,491.904 1466.08,493.118 1469.36,495.298 1469.47,495.372 1472.87,497.711 1474.27,498.692 1476.26,500.118 1478.97,502.087 1479.66,502.597 1483.05,505.159 1483.47,505.481 1486.44,507.813 1487.78,508.875 1489.84,510.553 1491.91,512.27 1493.23,513.386 1495.89,515.664 1496.63,516.317 1499.7,519.059 1500.02,519.354 1503.36,522.453 1503.42,522.505 1506.81,525.781 1506.88,525.847 1510.2,529.189 1510.26,529.242 1513.5,532.636 1513.6,532.738 1516.62,536.03 1516.99,536.446 1519.62,539.425 1520.39,540.322 1522.5,542.819 1523.78,544.384 1525.26,546.213 1527.18,548.646 1527.92,549.608 1530.47,553.002 1530.57,553.134 1532.92,556.396 1533.96,557.906 1535.26,559.791 1537.36,562.956 1537.51,563.185 1539.65,566.579 1540.75,568.383 1541.71,569.974 1543.68,573.368 1544.15,574.214 1545.55,576.762 1547.34,580.157 1547.54,580.56 1549.03,583.551 1550.65,586.946 1550.94,587.568 1552.18,590.34 1553.63,593.734 1554.33,595.454 1555,597.129 1556.29,600.523 1557.5,603.917 1557.73,604.575 1558.63,607.312 1559.69,610.706 1560.67,614.1 1561.12,615.765 1561.58,617.495 1562.41,620.889 1563.16,624.283 1563.85,627.678 1564.46,631.072 1564.51,631.391 1565,634.466 1565.46,637.861 1565.86,641.255 1566.18,644.649 1566.44,648.044 1566.62,651.438 1566.73,654.832 1566.77,658.227 1566.74,661.621 1566.64,665.016 1566.47,668.41 1566.22,671.804 1565.91,675.199 1565.53,678.593 1565.07,681.987 1564.54,685.382 1564.51,685.555 1563.94,688.776 1563.27,692.17 1562.52,695.565 1561.7,698.959 1561.12,701.177 1560.81,702.353 1559.83,705.748 1558.79,709.142 1557.73,712.375 1557.67,712.536 1556.47,715.931 1555.19,719.325 1554.33,721.486 1553.83,722.719 1552.39,726.114 1550.94,729.379 1550.88,729.508 1549.27,732.902 1547.59,736.297 1547.54,736.384 1545.81,739.691 1544.15,742.73 1543.95,743.086 1542,746.48 1540.75,748.556 1539.95,749.874 1537.82,753.269 1537.36,753.976 1535.59,756.663 1533.96,759.035 1533.26,760.057 1530.83,763.452 1530.57,763.801 1528.29,766.846 1527.18,768.29 1525.65,770.24 1523.78,772.556 1522.9,773.635 1520.39,776.62 1520.04,777.029 1517.06,780.423 1516.99,780.497 1513.95,783.818 1513.6,784.197 1510.73,787.212 1510.2,787.744 1507.36,790.606 1506.81,791.152 1503.87,794.001 1503.42,794.429 1500.23,797.395 1500.02,797.585 1496.63,800.626 1496.44,800.789 1493.23,803.555 1492.49,804.184 1489.84,806.386 1488.38,807.578 1486.44,809.124 1484.09,810.973 1483.05,811.775 1479.66,814.346 1479.63,814.367 1476.26,816.822 1474.95,817.761 1472.87,819.226 1470.07,821.156 1469.47,821.563 1466.08,823.822 1464.97,824.55 1462.68,826.014 1459.62,827.944 1459.29,828.149 1455.89,830.209 1454,831.339 1452.5,832.215 1449.11,834.164 1448.1,834.733 1445.71,836.052 1442.32,837.893 1441.88,838.127 1438.92,839.67 1435.53,841.408 1435.3,841.522 1432.13,843.083 1428.74,844.721 1428.33,844.916 1425.35,846.301 1421.95,847.843 1420.9,848.31 1418.56,849.334 1415.16,850.784 1412.96,851.705 1411.77,852.193 1408.37,853.554 1404.98,854.883 1404.41,855.099 1401.59,856.162 1398.19,857.405 1395.14,858.493 1394.8,858.614 1391.4,859.775 1388.01,860.904 1384.97,861.888 1384.61,862.001 1381.22,863.051 1377.82,864.07 1374.43,865.059 1373.64,865.282 1371.04,866.006 1367.64,866.919 1364.25,867.802 1360.85,868.655 1360.77,868.676 1357.46,869.465 1354.06,870.246 1350.67,870.997 1347.28,871.719 1345.55,872.071 1343.88,872.406 1340.49,873.058 1337.09,873.681 1333.7,874.276 1330.3,874.841 1326.91,875.377 1326.32,875.465 1323.52,875.878 1320.12,876.349 1316.73,876.792 1313.33,877.206 1309.94,877.591 1306.54,877.948 1303.15,878.276 1299.75,878.576 1296.36,878.847 1296.18,878.859 1292.97,879.086 1289.57,879.297 1286.18,879.479 1282.78,879.634 1279.39,879.76 1275.99,879.859 1272.6,879.929 1269.21,879.971 1265.81,879.985 1262.42,879.971 1259.02,879.929 1255.63,879.859 1252.23,879.76 1248.84,879.634 1245.45,879.479 1242.05,879.297 1238.66,879.086 1235.44,878.859 1235.26,878.847 1231.87,878.576 1228.47,878.276 1225.08,877.948 1221.68,877.591 1218.29,877.206 1214.9,876.792 1211.5,876.349 1208.11,875.878 1205.3,875.465 1204.71,875.377 1201.32,874.841 1197.92,874.276 1194.53,873.681 1191.14,873.058 1187.74,872.406 1186.07,872.071 1184.35,871.719 1180.95,870.997 1177.56,870.246 1174.16,869.465 1170.86,868.676 1170.77,868.655 1167.38,867.802 1163.98,866.919 "/>
<path clip-path="url(#clip750)" d="M501.946 1412.83 Q502.368 1413.25 502.368 1413.85 Q502.368 1414.45 501.946 1414.87 Q501.524 1415.29 500.927 1415.29 L455.886 1415.29 Q455.289 1415.29 454.867 1414.87 Q454.445 1414.45 454.445 1413.85 Q454.445 1413.25 454.867 1412.83 Q455.289 1412.41 455.886 1412.41 L500.927 1412.41 Q501.524 1412.41 501.946 1412.83 Z" fill="#000000" fill-rule="nonzero" fill-opacity="1" /><path clip-path="url(#clip750)" d="M509.878 1408.83 Q509.878 1398.25 512.548 1392.49 Q516.272 1383.92 525.056 1383.92 Q526.918 1383.92 528.85 1384.44 Q530.818 1384.94 533.277 1386.87 Q535.772 1388.8 537.282 1391.96 Q540.163 1398.08 540.163 1408.83 Q540.163 1419.33 537.493 1425.06 Q533.593 1433.42 524.985 1433.42 Q521.753 1433.42 518.451 1431.77 Q515.183 1430.12 513.11 1426.15 Q509.878 1420.21 509.878 1408.83 M515.851 1407.95 Q515.851 1418.8 516.624 1423.13 Q517.502 1427.8 519.891 1429.84 Q522.315 1431.84 524.985 1431.84 Q527.866 1431.84 530.256 1429.7 Q532.68 1427.52 533.418 1422.85 Q534.226 1418.24 534.191 1407.95 Q534.191 1397.94 533.488 1393.93 Q532.539 1389.26 530.01 1387.4 Q527.515 1385.5 524.985 1385.5 Q524.037 1385.5 523.018 1385.78 Q522.034 1386.06 520.594 1386.87 Q519.153 1387.68 518.029 1389.68 Q516.94 1391.68 516.413 1394.7 Q515.851 1398.6 515.851 1407.95 Z" fill="#000000" fill-rule="nonzero" fill-opacity="1" /><path clip-path="url(#clip750)" d="M546.6 1430.68 Q545.511 1429.52 545.511 1428.01 Q545.511 1426.5 546.6 1425.41 Q547.689 1424.29 549.34 1424.29 Q550.921 1424.29 551.975 1425.34 Q553.065 1426.36 553.065 1428.05 Q553.065 1429.7 551.905 1430.79 Q550.781 1431.84 549.34 1431.84 Q547.689 1431.84 546.6 1430.68 Z" fill="#000000" fill-rule="nonzero" fill-opacity="1" /><path clip-path="url(#clip750)" d="M565.311 1408.83 Q565.311 1398.25 567.981 1392.49 Q571.705 1383.92 580.488 1383.92 Q582.351 1383.92 584.283 1384.44 Q586.25 1384.94 588.71 1386.87 Q591.204 1388.8 592.715 1391.96 Q595.596 1398.08 595.596 1408.83 Q595.596 1419.33 592.926 1425.06 Q589.026 1433.42 580.418 1433.42 Q577.186 1433.42 573.883 1431.77 Q570.616 1430.12 568.543 1426.15 Q565.311 1420.21 565.311 1408.83 M571.283 1407.95 Q571.283 1418.8 572.056 1423.13 Q572.935 1427.8 575.324 1429.84 Q577.748 1431.84 580.418 1431.84 Q583.299 1431.84 585.688 1429.7 Q588.112 1427.52 588.85 1422.85 Q589.658 1418.24 589.623 1407.95 Q589.623 1397.94 588.921 1393.93 Q587.972 1389.26 585.442 1387.4 Q582.948 1385.5 580.418 1385.5 Q579.47 1385.5 578.451 1385.78 Q577.467 1386.06 576.026 1386.87 Q574.586 1387.68 573.462 1389.68 Q572.373 1391.68 571.846 1394.7 Q571.283 1398.6 571.283 1407.95 Z" fill="#000000" fill-rule="nonzero" fill-opacity="1" /><path clip-path="url(#clip750)" d="M598.823 1390.77 L598.823 1388.52 Q607.466 1388.52 611.928 1383.92 Q613.158 1383.92 613.369 1384.2 Q613.58 1384.48 613.58 1385.78 L613.58 1426.15 Q613.58 1428.29 614.634 1428.96 Q615.688 1429.63 620.29 1429.63 L622.574 1429.63 L622.574 1431.84 Q620.044 1431.63 610.909 1431.63 Q601.775 1431.63 599.28 1431.84 L599.28 1429.63 L601.564 1429.63 Q606.096 1429.63 607.185 1428.99 Q608.274 1428.33 608.274 1426.15 L608.274 1388.87 Q604.515 1390.77 598.823 1390.77 Z" fill="#000000" fill-rule="nonzero" fill-opacity="1" /><path clip-path="url(#clip750)" d="M624.679 1398.01 L627.033 1383.21 L628.825 1383.21 Q629.036 1384.09 629.387 1384.48 Q629.774 1384.87 631.811 1385.18 Q633.884 1385.5 638.065 1385.5 L655.527 1385.5 Q655.527 1387.15 654.894 1388.03 L645.162 1401.69 Q642.07 1406.02 640.7 1413.99 Q639.892 1419.33 639.927 1425.8 L639.927 1429.45 Q639.927 1433.42 636.59 1433.42 Q633.287 1433.42 633.287 1429.45 Q633.287 1415.71 642.141 1402.4 Q643.089 1401.03 646.568 1396.14 Q650.081 1391.26 650.221 1391.05 L635.325 1391.05 Q628.79 1391.05 628.263 1391.47 Q627.56 1392.1 626.471 1398.01 L624.679 1398.01 Z" fill="#000000" fill-rule="nonzero" fill-opacity="1" /><path clip-path="url(#clip750)" d="M696.148 1404.79 Q696.148 1406.75 694.919 1407.88 Q693.689 1408.97 692.284 1408.97 Q690.949 1408.97 690.246 1408.19 Q689.543 1407.42 689.543 1406.44 Q689.543 1405.1 690.527 1403.94 Q691.511 1402.78 692.986 1402.54 Q691.546 1401.62 689.403 1401.62 Q687.997 1401.62 686.768 1402.36 Q685.573 1403.1 684.835 1404.05 Q684.133 1405 683.5 1406.37 Q682.903 1407.7 682.657 1408.51 Q682.446 1409.28 682.271 1410.13 L679.811 1419.96 Q678.617 1424.64 678.617 1426.29 Q678.617 1428.33 679.601 1429.7 Q680.584 1431.03 682.552 1431.03 Q683.325 1431.03 684.203 1430.82 Q685.081 1430.57 686.206 1429.94 Q687.365 1429.27 688.384 1428.29 Q689.438 1427.27 690.457 1425.55 Q691.476 1423.83 692.143 1421.62 Q692.354 1420.84 693.057 1420.84 Q693.935 1420.84 693.935 1421.55 Q693.935 1422.14 693.443 1423.41 Q692.986 1424.64 691.968 1426.25 Q690.984 1427.83 689.684 1429.27 Q688.384 1430.68 686.452 1431.66 Q684.519 1432.65 682.411 1432.65 Q679.39 1432.65 677.387 1431.03 Q675.384 1429.42 674.647 1427.17 Q674.471 1427.48 674.225 1427.9 Q673.979 1428.33 673.241 1429.27 Q672.539 1430.19 671.731 1430.89 Q670.922 1431.56 669.658 1432.09 Q668.428 1432.65 667.093 1432.65 Q665.407 1432.65 663.896 1432.16 Q662.42 1431.66 661.366 1430.54 Q660.312 1429.42 660.312 1427.87 Q660.312 1426.15 661.472 1424.95 Q662.666 1423.72 664.282 1423.72 Q665.301 1423.72 666.109 1424.32 Q666.952 1424.92 666.952 1426.22 Q666.952 1427.66 665.969 1428.75 Q664.985 1429.84 663.58 1430.12 Q665.02 1431.03 667.163 1431.03 Q669.482 1431.03 671.309 1428.99 Q673.136 1426.96 674.014 1423.55 Q676.193 1415.36 677.036 1411.71 Q677.879 1408.02 677.879 1406.44 Q677.879 1404.96 677.492 1403.94 Q677.106 1402.92 676.438 1402.47 Q675.806 1401.98 675.209 1401.8 Q674.647 1401.62 674.014 1401.62 Q672.96 1401.62 671.766 1402.05 Q670.606 1402.47 669.201 1403.45 Q667.831 1404.4 666.531 1406.37 Q665.231 1408.34 664.352 1411.04 Q664.177 1411.85 663.404 1411.85 Q662.561 1411.81 662.561 1411.11 Q662.561 1410.51 663.017 1409.28 Q663.509 1408.02 664.493 1406.44 Q665.512 1404.86 666.812 1403.45 Q668.147 1402.01 670.079 1401.03 Q672.047 1400.04 674.155 1400.04 Q675.103 1400.04 676.017 1400.25 Q676.965 1400.43 678.09 1400.96 Q679.249 1401.48 680.268 1402.64 Q681.287 1403.8 681.919 1405.49 Q682.341 1404.68 682.903 1403.91 Q683.5 1403.14 684.414 1402.19 Q685.362 1401.2 686.662 1400.64 Q687.997 1400.04 689.473 1400.04 Q690.914 1400.04 692.319 1400.43 Q693.724 1400.78 694.919 1401.94 Q696.148 1403.07 696.148 1404.79 Z" fill="#000000" fill-rule="nonzero" fill-opacity="1" /><path clip-path="url(#clip750)" d="M703.476 1410.32 Q703.476 1409.41 703.55 1409.14 Q703.649 1408.87 704.042 1408.45 L713.707 1397.68 Q718.995 1391.73 718.995 1386.54 Q718.995 1383.17 717.224 1380.76 Q715.478 1378.35 712.256 1378.35 Q710.043 1378.35 708.174 1379.7 Q706.305 1381.06 705.444 1383.47 Q705.592 1383.42 706.108 1383.42 Q707.362 1383.42 708.051 1384.21 Q708.764 1384.99 708.764 1386.05 Q708.764 1387.4 707.879 1388.07 Q707.018 1388.71 706.157 1388.71 Q705.813 1388.71 705.346 1388.63 Q704.903 1388.56 704.19 1387.87 Q703.476 1387.16 703.476 1385.9 Q703.476 1382.39 706.133 1379.58 Q708.813 1376.78 712.896 1376.78 Q717.519 1376.78 720.544 1379.53 Q723.594 1382.26 723.594 1386.54 Q723.594 1388.04 723.127 1389.42 Q722.684 1390.77 722.069 1391.83 Q721.479 1392.89 719.856 1394.58 Q718.233 1396.28 716.929 1397.49 Q715.626 1398.69 712.699 1401.25 L707.362 1406.44 L716.437 1406.44 Q720.864 1406.44 721.208 1406.04 Q721.7 1405.33 722.315 1401.57 L723.594 1401.57 L722.168 1410.32 L703.476 1410.32 Z" fill="#000000" fill-rule="nonzero" fill-opacity="1" /><path clip-path="url(#clip750)" d="M798.536 1412.83 Q798.958 1413.25 798.958 1413.85 Q798.958 1414.45 798.536 1414.87 Q798.114 1415.29 797.517 1415.29 L752.476 1415.29 Q751.878 1415.29 751.457 1414.87 Q751.035 1414.45 751.035 1413.85 Q751.035 1413.25 751.457 1412.83 Q751.878 1412.41 752.476 1412.41 L797.517 1412.41 Q798.114 1412.41 798.536 1412.83 Z" fill="#000000" fill-rule="nonzero" fill-opacity="1" /><path clip-path="url(#clip750)" d="M826.43 1408.83 Q826.43 1398.25 829.1 1392.49 Q832.824 1383.92 841.607 1383.92 Q843.469 1383.92 845.402 1384.44 Q847.369 1384.94 849.829 1386.87 Q852.323 1388.8 853.834 1391.96 Q856.715 1398.08 856.715 1408.83 Q856.715 1419.33 854.045 1425.06 Q850.145 1433.42 841.537 1433.42 Q838.305 1433.42 835.002 1431.77 Q831.735 1430.12 829.662 1426.15 Q826.43 1420.21 826.43 1408.83 M832.402 1407.95 Q832.402 1418.8 833.175 1423.13 Q834.054 1427.8 836.443 1429.84 Q838.867 1431.84 841.537 1431.84 Q844.418 1431.84 846.807 1429.7 Q849.231 1427.52 849.969 1422.85 Q850.777 1418.24 850.742 1407.95 Q850.742 1397.94 850.039 1393.93 Q849.091 1389.26 846.561 1387.4 Q844.067 1385.5 841.537 1385.5 Q840.588 1385.5 839.57 1385.78 Q838.586 1386.06 837.145 1386.87 Q835.705 1387.68 834.581 1389.68 Q833.491 1391.68 832.964 1394.7 Q832.402 1398.6 832.402 1407.95 Z" fill="#000000" fill-rule="nonzero" fill-opacity="1" /><path clip-path="url(#clip750)" d="M863.152 1430.68 Q862.062 1429.52 862.062 1428.01 Q862.062 1426.5 863.152 1425.41 Q864.241 1424.29 865.892 1424.29 Q867.473 1424.29 868.527 1425.34 Q869.616 1426.36 869.616 1428.05 Q869.616 1429.7 868.457 1430.79 Q867.332 1431.84 865.892 1431.84 Q864.241 1431.84 863.152 1430.68 Z" fill="#000000" fill-rule="nonzero" fill-opacity="1" /><path clip-path="url(#clip750)" d="M881.862 1408.83 Q881.862 1398.25 884.532 1392.49 Q888.257 1383.92 897.04 1383.92 Q898.902 1383.92 900.834 1384.44 Q902.802 1384.94 905.261 1386.87 Q907.756 1388.8 909.267 1391.96 Q912.147 1398.08 912.147 1408.83 Q912.147 1419.33 909.477 1425.06 Q905.577 1433.42 896.97 1433.42 Q893.737 1433.42 890.435 1431.77 Q887.167 1430.12 885.095 1426.15 Q881.862 1420.21 881.862 1408.83 M887.835 1407.95 Q887.835 1418.8 888.608 1423.13 Q889.486 1427.8 891.875 1429.84 Q894.3 1431.84 896.97 1431.84 Q899.851 1431.84 902.24 1429.7 Q904.664 1427.52 905.402 1422.85 Q906.21 1418.24 906.175 1407.95 Q906.175 1397.94 905.472 1393.93 Q904.523 1389.26 901.994 1387.4 Q899.499 1385.5 896.97 1385.5 Q896.021 1385.5 895.002 1385.78 Q894.018 1386.06 892.578 1386.87 Q891.138 1387.68 890.013 1389.68 Q888.924 1391.68 888.397 1394.7 Q887.835 1398.6 887.835 1407.95 Z" fill="#000000" fill-rule="nonzero" fill-opacity="1" /><path clip-path="url(#clip750)" d="M952.179 1404.79 Q952.179 1406.75 950.95 1407.88 Q949.72 1408.97 948.315 1408.97 Q946.98 1408.97 946.277 1408.19 Q945.574 1407.42 945.574 1406.44 Q945.574 1405.1 946.558 1403.94 Q947.542 1402.78 949.017 1402.54 Q947.577 1401.62 945.434 1401.62 Q944.028 1401.62 942.799 1402.36 Q941.604 1403.1 940.866 1404.05 Q940.164 1405 939.531 1406.37 Q938.934 1407.7 938.688 1408.51 Q938.477 1409.28 938.302 1410.13 L935.842 1419.96 Q934.648 1424.64 934.648 1426.29 Q934.648 1428.33 935.631 1429.7 Q936.615 1431.03 938.583 1431.03 Q939.356 1431.03 940.234 1430.82 Q941.112 1430.57 942.237 1429.94 Q943.396 1429.27 944.415 1428.29 Q945.469 1427.27 946.488 1425.55 Q947.507 1423.83 948.174 1421.62 Q948.385 1420.84 949.088 1420.84 Q949.966 1420.84 949.966 1421.55 Q949.966 1422.14 949.474 1423.41 Q949.017 1424.64 947.998 1426.25 Q947.015 1427.83 945.715 1429.27 Q944.415 1430.68 942.483 1431.66 Q940.55 1432.65 938.442 1432.65 Q935.421 1432.65 933.418 1431.03 Q931.415 1429.42 930.678 1427.17 Q930.502 1427.48 930.256 1427.9 Q930.01 1428.33 929.272 1429.27 Q928.57 1430.19 927.761 1430.89 Q926.953 1431.56 925.689 1432.09 Q924.459 1432.65 923.124 1432.65 Q921.437 1432.65 919.927 1432.16 Q918.451 1431.66 917.397 1430.54 Q916.343 1429.42 916.343 1427.87 Q916.343 1426.15 917.502 1424.95 Q918.697 1423.72 920.313 1423.72 Q921.332 1423.72 922.14 1424.32 Q922.983 1424.92 922.983 1426.22 Q922.983 1427.66 922 1428.75 Q921.016 1429.84 919.61 1430.12 Q921.051 1431.03 923.194 1431.03 Q925.513 1431.03 927.34 1428.99 Q929.167 1426.96 930.045 1423.55 Q932.223 1415.36 933.067 1411.71 Q933.91 1408.02 933.91 1406.44 Q933.91 1404.96 933.523 1403.94 Q933.137 1402.92 932.469 1402.47 Q931.837 1401.98 931.24 1401.8 Q930.678 1401.62 930.045 1401.62 Q928.991 1401.62 927.797 1402.05 Q926.637 1402.47 925.232 1403.45 Q923.862 1404.4 922.562 1406.37 Q921.262 1408.34 920.383 1411.04 Q920.208 1411.85 919.435 1411.85 Q918.592 1411.81 918.592 1411.11 Q918.592 1410.51 919.048 1409.28 Q919.54 1408.02 920.524 1406.44 Q921.543 1404.86 922.843 1403.45 Q924.178 1402.01 926.11 1401.03 Q928.078 1400.04 930.186 1400.04 Q931.134 1400.04 932.048 1400.25 Q932.996 1400.43 934.121 1400.96 Q935.28 1401.48 936.299 1402.64 Q937.318 1403.8 937.95 1405.49 Q938.372 1404.68 938.934 1403.91 Q939.531 1403.14 940.445 1402.19 Q941.393 1401.2 942.693 1400.64 Q944.028 1400.04 945.504 1400.04 Q946.944 1400.04 948.35 1400.43 Q949.755 1400.78 950.95 1401.94 Q952.179 1403.07 952.179 1404.79 Z" fill="#000000" fill-rule="nonzero" fill-opacity="1" /><path clip-path="url(#clip750)" d="M989.428 1402.78 Q989.428 1403.28 989.112 1404.44 L982.226 1431.91 Q980.715 1438.02 975.797 1442.31 Q970.913 1446.6 965.362 1446.6 Q962.024 1446.6 959.881 1444.8 Q957.738 1443.05 957.738 1440.34 Q957.738 1437.95 959.003 1436.79 Q960.267 1435.67 961.778 1435.67 Q962.27 1435.67 962.797 1435.81 Q963.324 1435.95 963.886 1436.55 Q964.448 1437.14 964.448 1438.16 Q964.448 1439.81 963.008 1441.11 Q962.305 1441.71 961.638 1441.85 Q961.005 1441.99 959.916 1441.99 Q960.338 1442.98 961.111 1443.64 Q961.884 1444.31 962.762 1444.56 Q963.64 1444.84 964.202 1444.91 Q964.8 1445.01 965.362 1445.01 Q969.859 1445.01 973.302 1440.48 Q974.321 1439.11 975.059 1437.74 Q975.832 1436.41 976.394 1434.76 Q976.956 1433.14 977.202 1432.26 Q977.483 1431.38 977.975 1429.38 Q974.707 1432.65 970.702 1432.65 Q969.016 1432.65 967.505 1432.19 Q966.029 1431.73 964.729 1430.79 Q963.43 1429.8 962.657 1428.08 Q961.919 1426.36 961.919 1424.08 Q961.919 1421.65 962.867 1418.35 Q963.816 1415.05 966.1 1408.97 Q967.329 1405.56 967.329 1403.91 Q967.329 1403.1 967.154 1402.61 Q966.978 1402.08 966.627 1401.91 Q966.275 1401.69 966.065 1401.66 Q965.889 1401.62 965.538 1401.62 Q963.465 1401.62 961.532 1403.73 Q959.6 1405.84 958.265 1410.55 Q957.984 1411.43 957.808 1411.64 Q957.632 1411.85 957.105 1411.85 Q956.227 1411.81 956.227 1411.11 Q956.227 1410.83 956.543 1409.74 Q956.86 1408.62 957.597 1406.96 Q958.37 1405.28 959.424 1403.77 Q960.478 1402.22 962.13 1401.13 Q963.816 1400.04 965.748 1400.04 Q968.383 1400.04 970 1401.77 Q971.651 1403.45 971.651 1405.95 Q971.651 1406.96 971.37 1407.88 Q971.124 1408.76 970.21 1411.11 Q966.521 1420.6 966.521 1425.23 Q966.521 1426.36 966.697 1427.31 Q966.908 1428.22 967.364 1429.13 Q967.821 1430.01 968.735 1430.54 Q969.683 1431.03 970.983 1431.03 Q972.635 1431.03 974.18 1430.26 Q975.761 1429.45 976.745 1428.36 Q977.764 1427.27 978.361 1426.36 Q978.994 1425.41 979.134 1424.92 L982.367 1411.99 L983.807 1406.23 Q984.475 1403.1 984.791 1402.33 Q985.212 1401.59 985.95 1401.2 Q986.688 1400.82 987.32 1400.82 Q988.199 1400.82 988.796 1401.34 Q989.428 1401.87 989.428 1402.78 Z" fill="#000000" fill-rule="nonzero" fill-opacity="1" /><path clip-path="url(#clip750)" d="M1058.59 1412.83 Q1059.01 1413.25 1059.01 1413.85 Q1059.01 1414.45 1058.59 1414.87 Q1058.17 1415.29 1057.57 1415.29 L1012.53 1415.29 Q1011.93 1415.29 1011.51 1414.87 Q1011.09 1414.45 1011.09 1413.85 Q1011.09 1413.25 1011.51 1412.83 Q1011.93 1412.41 1012.53 1412.41 L1057.57 1412.41 Q1058.17 1412.41 1058.59 1412.83 Z" fill="#000000" fill-rule="nonzero" fill-opacity="1" /><path clip-path="url(#clip750)" d="M1086.49 1408.83 Q1086.49 1398.25 1089.16 1392.49 Q1092.88 1383.92 1101.66 1383.92 Q1103.52 1383.92 1105.46 1384.44 Q1107.42 1384.94 1109.88 1386.87 Q1112.38 1388.8 1113.89 1391.96 Q1116.77 1398.08 1116.77 1408.83 Q1116.77 1419.33 1114.1 1425.06 Q1110.2 1433.42 1101.59 1433.42 Q1098.36 1433.42 1095.06 1431.77 Q1091.79 1430.12 1089.72 1426.15 Q1086.49 1420.21 1086.49 1408.83 M1092.46 1407.95 Q1092.46 1418.8 1093.23 1423.13 Q1094.11 1427.8 1096.5 1429.84 Q1098.92 1431.84 1101.59 1431.84 Q1104.47 1431.84 1106.86 1429.7 Q1109.29 1427.52 1110.02 1422.85 Q1110.83 1418.24 1110.8 1407.95 Q1110.8 1397.94 1110.09 1393.93 Q1109.15 1389.26 1106.62 1387.4 Q1104.12 1385.5 1101.59 1385.5 Q1100.64 1385.5 1099.63 1385.78 Q1098.64 1386.06 1097.2 1386.87 Q1095.76 1387.68 1094.64 1389.68 Q1093.55 1391.68 1093.02 1394.7 Q1092.46 1398.6 1092.46 1407.95 Z" fill="#000000" fill-rule="nonzero" fill-opacity="1" /><path clip-path="url(#clip750)" d="M1123.21 1430.68 Q1122.12 1429.52 1122.12 1428.01 Q1122.12 1426.5 1123.21 1425.41 Q1124.3 1424.29 1125.95 1424.29 Q1127.53 1424.29 1128.58 1425.34 Q1129.67 1426.36 1129.67 1428.05 Q1129.67 1429.7 1128.51 1430.79 Q1127.39 1431.84 1125.95 1431.84 Q1124.3 1431.84 1123.21 1430.68 Z" fill="#000000" fill-rule="nonzero" fill-opacity="1" /><path clip-path="url(#clip750)" d="M1141.92 1408.83 Q1141.92 1398.25 1144.59 1392.49 Q1148.31 1383.92 1157.1 1383.92 Q1158.96 1383.92 1160.89 1384.44 Q1162.86 1384.94 1165.32 1386.87 Q1167.81 1388.8 1169.32 1391.96 Q1172.2 1398.08 1172.2 1408.83 Q1172.2 1419.33 1169.53 1425.06 Q1165.63 1433.42 1157.03 1433.42 Q1153.79 1433.42 1150.49 1431.77 Q1147.22 1430.12 1145.15 1426.15 Q1141.92 1420.21 1141.92 1408.83 M1147.89 1407.95 Q1147.89 1418.8 1148.66 1423.13 Q1149.54 1427.8 1151.93 1429.84 Q1154.36 1431.84 1157.03 1431.84 Q1159.91 1431.84 1162.3 1429.7 Q1164.72 1427.52 1165.46 1422.85 Q1166.27 1418.24 1166.23 1407.95 Q1166.23 1397.94 1165.53 1393.93 Q1164.58 1389.26 1162.05 1387.4 Q1159.55 1385.5 1157.03 1385.5 Q1156.08 1385.5 1155.06 1385.78 Q1154.07 1386.06 1152.63 1386.87 Q1151.19 1387.68 1150.07 1389.68 Q1148.98 1391.68 1148.45 1394.7 Q1147.89 1398.6 1147.89 1407.95 Z" fill="#000000" fill-rule="nonzero" fill-opacity="1" /><path clip-path="url(#clip750)" d="M1177.84 1422.14 Q1177.84 1420 1179.07 1418.98 Q1180.3 1417.96 1181.88 1417.96 Q1183.53 1417.96 1184.69 1419.05 Q1185.88 1420.1 1185.88 1421.97 Q1185.88 1423.97 1184.48 1425.09 Q1183.11 1426.22 1181.14 1425.94 Q1182.86 1428.82 1186.02 1430.12 Q1189.22 1431.42 1192.17 1431.42 Q1195.26 1431.42 1197.76 1428.75 Q1200.29 1426.08 1200.29 1419.54 Q1200.29 1413.99 1198.11 1410.79 Q1195.97 1407.6 1191.72 1407.6 L1188.55 1407.6 Q1187.47 1407.6 1187.15 1407.49 Q1186.83 1407.39 1186.83 1406.79 Q1186.83 1406.09 1187.92 1405.95 Q1189.01 1405.95 1190.73 1405.74 Q1194.91 1405.59 1197.13 1401.98 Q1199.13 1398.6 1199.13 1393.79 Q1199.13 1389.4 1197.02 1387.57 Q1194.95 1385.71 1192.24 1385.71 Q1189.71 1385.71 1186.94 1386.76 Q1184.16 1387.82 1182.65 1390.17 Q1187.11 1390.17 1187.11 1393.79 Q1187.11 1395.37 1186.09 1396.42 Q1185.11 1397.44 1183.46 1397.44 Q1181.88 1397.44 1180.82 1396.46 Q1179.77 1395.44 1179.77 1393.72 Q1179.77 1389.61 1183.42 1386.76 Q1187.11 1383.92 1192.52 1383.92 Q1197.86 1383.92 1201.8 1386.73 Q1205.77 1389.54 1205.77 1393.86 Q1205.77 1398.11 1202.96 1401.59 Q1200.15 1405.07 1195.69 1406.51 Q1201.17 1407.6 1204.43 1411.32 Q1207.7 1415.01 1207.7 1419.54 Q1207.7 1425.16 1203.28 1429.31 Q1198.85 1433.42 1192.38 1433.42 Q1186.41 1433.42 1182.12 1430.19 Q1177.84 1426.96 1177.84 1422.14 Z" fill="#000000" fill-rule="nonzero" fill-opacity="1" /><path clip-path="url(#clip750)" d="M1211.85 1390.77 L1211.85 1388.52 Q1220.49 1388.52 1224.96 1383.92 Q1226.19 1383.92 1226.4 1384.2 Q1226.61 1384.48 1226.61 1385.78 L1226.61 1426.15 Q1226.61 1428.29 1227.66 1428.96 Q1228.72 1429.63 1233.32 1429.63 L1235.6 1429.63 L1235.6 1431.84 Q1233.07 1431.63 1223.94 1431.63 Q1214.8 1431.63 1212.31 1431.84 L1212.31 1429.63 L1214.59 1429.63 Q1219.12 1429.63 1220.21 1428.99 Q1221.3 1428.33 1221.3 1426.15 L1221.3 1388.87 Q1217.54 1390.77 1211.85 1390.77 Z" fill="#000000" fill-rule="nonzero" fill-opacity="1" /><path clip-path="url(#clip750)" d="M1280.69 1402.78 Q1280.69 1403.28 1280.37 1404.44 L1273.48 1431.91 Q1271.97 1438.02 1267.05 1442.31 Q1262.17 1446.6 1256.62 1446.6 Q1253.28 1446.6 1251.14 1444.8 Q1248.99 1443.05 1248.99 1440.34 Q1248.99 1437.95 1250.26 1436.79 Q1251.52 1435.67 1253.04 1435.67 Q1253.53 1435.67 1254.05 1435.81 Q1254.58 1435.95 1255.14 1436.55 Q1255.71 1437.14 1255.71 1438.16 Q1255.71 1439.81 1254.26 1441.11 Q1253.56 1441.71 1252.89 1441.85 Q1252.26 1441.99 1251.17 1441.99 Q1251.59 1442.98 1252.37 1443.64 Q1253.14 1444.31 1254.02 1444.56 Q1254.9 1444.84 1255.46 1444.91 Q1256.06 1445.01 1256.62 1445.01 Q1261.12 1445.01 1264.56 1440.48 Q1265.58 1439.11 1266.32 1437.74 Q1267.09 1436.41 1267.65 1434.76 Q1268.21 1433.14 1268.46 1432.26 Q1268.74 1431.38 1269.23 1429.38 Q1265.96 1432.65 1261.96 1432.65 Q1260.27 1432.65 1258.76 1432.19 Q1257.29 1431.73 1255.99 1430.79 Q1254.69 1429.8 1253.91 1428.08 Q1253.18 1426.36 1253.18 1424.08 Q1253.18 1421.65 1254.12 1418.35 Q1255.07 1415.05 1257.36 1408.97 Q1258.59 1405.56 1258.59 1403.91 Q1258.59 1403.1 1258.41 1402.61 Q1258.24 1402.08 1257.88 1401.91 Q1257.53 1401.69 1257.32 1401.66 Q1257.15 1401.62 1256.79 1401.62 Q1254.72 1401.62 1252.79 1403.73 Q1250.86 1405.84 1249.52 1410.55 Q1249.24 1411.43 1249.07 1411.64 Q1248.89 1411.85 1248.36 1411.85 Q1247.48 1411.81 1247.48 1411.11 Q1247.48 1410.83 1247.8 1409.74 Q1248.12 1408.62 1248.85 1406.96 Q1249.63 1405.28 1250.68 1403.77 Q1251.74 1402.22 1253.39 1401.13 Q1255.07 1400.04 1257.01 1400.04 Q1259.64 1400.04 1261.26 1401.77 Q1262.91 1403.45 1262.91 1405.95 Q1262.91 1406.96 1262.63 1407.88 Q1262.38 1408.76 1261.47 1411.11 Q1257.78 1420.6 1257.78 1425.23 Q1257.78 1426.36 1257.95 1427.31 Q1258.16 1428.22 1258.62 1429.13 Q1259.08 1430.01 1259.99 1430.54 Q1260.94 1431.03 1262.24 1431.03 Q1263.89 1431.03 1265.44 1430.26 Q1267.02 1429.45 1268 1428.36 Q1269.02 1427.27 1269.62 1426.36 Q1270.25 1425.41 1270.39 1424.92 L1273.62 1411.99 L1275.06 1406.23 Q1275.73 1403.1 1276.05 1402.33 Q1276.47 1401.59 1277.21 1401.2 Q1277.95 1400.82 1278.58 1400.82 Q1279.46 1400.82 1280.05 1401.34 Q1280.69 1401.87 1280.69 1402.78 Z" fill="#000000" fill-rule="nonzero" fill-opacity="1" /><path clip-path="url(#clip750)" d="M1288.04 1410.32 Q1288.04 1409.41 1288.11 1409.14 Q1288.21 1408.87 1288.6 1408.45 L1298.27 1397.68 Q1303.56 1391.73 1303.56 1386.54 Q1303.56 1383.17 1301.79 1380.76 Q1300.04 1378.35 1296.82 1378.35 Q1294.61 1378.35 1292.74 1379.7 Q1290.87 1381.06 1290.01 1383.47 Q1290.15 1383.42 1290.67 1383.42 Q1291.92 1383.42 1292.61 1384.21 Q1293.33 1384.99 1293.33 1386.05 Q1293.33 1387.4 1292.44 1388.07 Q1291.58 1388.71 1290.72 1388.71 Q1290.38 1388.71 1289.91 1388.63 Q1289.47 1388.56 1288.75 1387.87 Q1288.04 1387.16 1288.04 1385.9 Q1288.04 1382.39 1290.7 1379.58 Q1293.38 1376.78 1297.46 1376.78 Q1302.08 1376.78 1305.11 1379.53 Q1308.16 1382.26 1308.16 1386.54 Q1308.16 1388.04 1307.69 1389.42 Q1307.25 1390.77 1306.63 1391.83 Q1306.04 1392.89 1304.42 1394.58 Q1302.8 1396.28 1301.49 1397.49 Q1300.19 1398.69 1297.26 1401.25 L1291.92 1406.44 L1301 1406.44 Q1305.43 1406.44 1305.77 1406.04 Q1306.26 1405.33 1306.88 1401.57 L1308.16 1401.57 L1306.73 1410.32 L1288.04 1410.32 Z" fill="#000000" fill-rule="nonzero" fill-opacity="1" /><path clip-path="url(#clip750)" d="M1337.25 1414.73 Q1335.6 1414.73 1335.6 1413.85 Q1335.6 1412.97 1337.32 1412.97 Q1337.53 1412.97 1337.88 1413.01 Q1338.27 1413.04 1338.34 1413.04 L1358.61 1413.04 L1358.61 1392.7 Q1358.61 1392.63 1358.58 1392.31 Q1358.54 1391.96 1358.54 1391.75 Q1358.54 1390.03 1359.38 1390.03 Q1360.26 1390.03 1360.26 1391.75 L1360.26 1413.04 L1380.57 1413.04 Q1380.64 1413.04 1380.99 1413.01 Q1381.34 1412.97 1381.55 1412.97 Q1383.2 1412.97 1383.2 1413.85 Q1383.24 1414.73 1381.48 1414.73 Q1381.27 1414.73 1380.96 1414.69 Q1380.64 1414.66 1380.57 1414.66 L1360.26 1414.66 L1360.26 1436.02 Q1360.26 1437.67 1359.38 1437.67 Q1358.54 1437.67 1358.54 1435.95 Q1358.54 1435.74 1358.58 1435.39 Q1358.61 1435.07 1358.61 1435 L1358.61 1414.66 L1338.34 1414.66 Q1338.27 1414.66 1337.85 1414.69 Q1337.46 1414.73 1337.25 1414.73 Z" fill="#000000" fill-rule="nonzero" fill-opacity="1" /><path clip-path="url(#clip750)" d="M1410.99 1408.83 Q1410.99 1398.25 1413.66 1392.49 Q1417.39 1383.92 1426.17 1383.92 Q1428.03 1383.92 1429.96 1384.44 Q1431.93 1384.94 1434.39 1386.87 Q1436.89 1388.8 1438.4 1391.96 Q1441.28 1398.08 1441.28 1408.83 Q1441.28 1419.33 1438.61 1425.06 Q1434.71 1433.42 1426.1 1433.42 Q1422.87 1433.42 1419.56 1431.77 Q1416.3 1430.12 1414.22 1426.15 Q1410.99 1420.21 1410.99 1408.83 M1416.96 1407.95 Q1416.96 1418.8 1417.74 1423.13 Q1418.62 1427.8 1421.01 1429.84 Q1423.43 1431.84 1426.1 1431.84 Q1428.98 1431.84 1431.37 1429.7 Q1433.79 1427.52 1434.53 1422.85 Q1435.34 1418.24 1435.3 1407.95 Q1435.3 1397.94 1434.6 1393.93 Q1433.65 1389.26 1431.12 1387.4 Q1428.63 1385.5 1426.1 1385.5 Q1425.15 1385.5 1424.13 1385.78 Q1423.15 1386.06 1421.71 1386.87 Q1420.27 1387.68 1419.14 1389.68 Q1418.05 1391.68 1417.53 1394.7 Q1416.96 1398.6 1416.96 1407.95 Z" fill="#000000" fill-rule="nonzero" fill-opacity="1" /><path clip-path="url(#clip750)" d="M1447.71 1430.68 Q1446.63 1429.52 1446.63 1428.01 Q1446.63 1426.5 1447.71 1425.41 Q1448.8 1424.29 1450.45 1424.29 Q1452.04 1424.29 1453.09 1425.34 Q1454.18 1426.36 1454.18 1428.05 Q1454.18 1429.7 1453.02 1430.79 Q1451.9 1431.84 1450.45 1431.84 Q1448.8 1431.84 1447.71 1430.68 Z" fill="#000000" fill-rule="nonzero" fill-opacity="1" /><path clip-path="url(#clip750)" d="M1466.42 1408.83 Q1466.42 1398.25 1469.1 1392.49 Q1472.82 1383.92 1481.6 1383.92 Q1483.46 1383.92 1485.4 1384.44 Q1487.36 1384.94 1489.82 1386.87 Q1492.32 1388.8 1493.83 1391.96 Q1496.71 1398.08 1496.71 1408.83 Q1496.71 1419.33 1494.04 1425.06 Q1490.14 1433.42 1481.53 1433.42 Q1478.3 1433.42 1475 1431.77 Q1471.73 1430.12 1469.66 1426.15 Q1466.42 1420.21 1466.42 1408.83 M1472.4 1407.95 Q1472.4 1418.8 1473.17 1423.13 Q1474.05 1427.8 1476.44 1429.84 Q1478.86 1431.84 1481.53 1431.84 Q1484.41 1431.84 1486.8 1429.7 Q1489.23 1427.52 1489.96 1422.85 Q1490.77 1418.24 1490.74 1407.95 Q1490.74 1397.94 1490.03 1393.93 Q1489.09 1389.26 1486.56 1387.4 Q1484.06 1385.5 1481.53 1385.5 Q1480.58 1385.5 1479.56 1385.78 Q1478.58 1386.06 1477.14 1386.87 Q1475.7 1387.68 1474.58 1389.68 Q1473.49 1391.68 1472.96 1394.7 Q1472.4 1398.6 1472.4 1407.95 Z" fill="#000000" fill-rule="nonzero" fill-opacity="1" /><path clip-path="url(#clip750)" d="M1536.74 1404.79 Q1536.74 1406.75 1535.51 1407.88 Q1534.28 1408.97 1532.88 1408.97 Q1531.54 1408.97 1530.84 1408.19 Q1530.14 1407.42 1530.14 1406.44 Q1530.14 1405.1 1531.12 1403.94 Q1532.1 1402.78 1533.58 1402.54 Q1532.14 1401.62 1530 1401.62 Q1528.59 1401.62 1527.36 1402.36 Q1526.17 1403.1 1525.43 1404.05 Q1524.73 1405 1524.09 1406.37 Q1523.5 1407.7 1523.25 1408.51 Q1523.04 1409.28 1522.86 1410.13 L1520.4 1419.96 Q1519.21 1424.64 1519.21 1426.29 Q1519.21 1428.33 1520.19 1429.7 Q1521.18 1431.03 1523.15 1431.03 Q1523.92 1431.03 1524.8 1430.82 Q1525.67 1430.57 1526.8 1429.94 Q1527.96 1429.27 1528.98 1428.29 Q1530.03 1427.27 1531.05 1425.55 Q1532.07 1423.83 1532.74 1421.62 Q1532.95 1420.84 1533.65 1420.84 Q1534.53 1420.84 1534.53 1421.55 Q1534.53 1422.14 1534.04 1423.41 Q1533.58 1424.64 1532.56 1426.25 Q1531.58 1427.83 1530.28 1429.27 Q1528.98 1430.68 1527.05 1431.66 Q1525.11 1432.65 1523 1432.65 Q1519.98 1432.65 1517.98 1431.03 Q1515.98 1429.42 1515.24 1427.17 Q1515.06 1427.48 1514.82 1427.9 Q1514.57 1428.33 1513.83 1429.27 Q1513.13 1430.19 1512.32 1430.89 Q1511.52 1431.56 1510.25 1432.09 Q1509.02 1432.65 1507.69 1432.65 Q1506 1432.65 1504.49 1432.16 Q1503.01 1431.66 1501.96 1430.54 Q1500.91 1429.42 1500.91 1427.87 Q1500.91 1426.15 1502.07 1424.95 Q1503.26 1423.72 1504.88 1423.72 Q1505.89 1423.72 1506.7 1424.32 Q1507.55 1424.92 1507.55 1426.22 Q1507.55 1427.66 1506.56 1428.75 Q1505.58 1429.84 1504.17 1430.12 Q1505.61 1431.03 1507.76 1431.03 Q1510.08 1431.03 1511.9 1428.99 Q1513.73 1426.96 1514.61 1423.55 Q1516.79 1415.36 1517.63 1411.71 Q1518.47 1408.02 1518.47 1406.44 Q1518.47 1404.96 1518.09 1403.94 Q1517.7 1402.92 1517.03 1402.47 Q1516.4 1401.98 1515.8 1401.8 Q1515.24 1401.62 1514.61 1401.62 Q1513.55 1401.62 1512.36 1402.05 Q1511.2 1402.47 1509.79 1403.45 Q1508.42 1404.4 1507.12 1406.37 Q1505.82 1408.34 1504.95 1411.04 Q1504.77 1411.85 1504 1411.85 Q1503.15 1411.81 1503.15 1411.11 Q1503.15 1410.51 1503.61 1409.28 Q1504.1 1408.02 1505.09 1406.44 Q1506.11 1404.86 1507.41 1403.45 Q1508.74 1402.01 1510.67 1401.03 Q1512.64 1400.04 1514.75 1400.04 Q1515.7 1400.04 1516.61 1400.25 Q1517.56 1400.43 1518.68 1400.96 Q1519.84 1401.48 1520.86 1402.64 Q1521.88 1403.8 1522.51 1405.49 Q1522.93 1404.68 1523.5 1403.91 Q1524.09 1403.14 1525.01 1402.19 Q1525.96 1401.2 1527.26 1400.64 Q1528.59 1400.04 1530.07 1400.04 Q1531.51 1400.04 1532.91 1400.43 Q1534.32 1400.78 1535.51 1401.94 Q1536.74 1403.07 1536.74 1404.79 Z" fill="#000000" fill-rule="nonzero" fill-opacity="1" /><path clip-path="url(#clip750)" d="M1563.27 1414.73 Q1561.62 1414.73 1561.62 1413.85 Q1561.62 1412.97 1563.34 1412.97 Q1563.55 1412.97 1563.9 1413.01 Q1564.29 1413.04 1564.36 1413.04 L1584.63 1413.04 L1584.63 1392.7 Q1584.63 1392.63 1584.59 1392.31 Q1584.56 1391.96 1584.56 1391.75 Q1584.56 1390.03 1585.4 1390.03 Q1586.28 1390.03 1586.28 1391.75 L1586.28 1413.04 L1606.59 1413.04 Q1606.66 1413.04 1607.01 1413.01 Q1607.36 1412.97 1607.57 1412.97 Q1609.22 1412.97 1609.22 1413.85 Q1609.26 1414.73 1607.5 1414.73 Q1607.29 1414.73 1606.97 1414.69 Q1606.66 1414.66 1606.59 1414.66 L1586.28 1414.66 L1586.28 1436.02 Q1586.28 1437.67 1585.4 1437.67 Q1584.56 1437.67 1584.56 1435.95 Q1584.56 1435.74 1584.59 1435.39 Q1584.63 1435.07 1584.63 1435 L1584.63 1414.66 L1564.36 1414.66 Q1564.29 1414.66 1563.86 1414.69 Q1563.48 1414.73 1563.27 1414.73 Z" fill="#000000" fill-rule="nonzero" fill-opacity="1" /><path clip-path="url(#clip750)" d="M1637.01 1408.83 Q1637.01 1398.25 1639.68 1392.49 Q1643.4 1383.92 1652.19 1383.92 Q1654.05 1383.92 1655.98 1384.44 Q1657.95 1384.94 1660.41 1386.87 Q1662.9 1388.8 1664.41 1391.96 Q1667.29 1398.08 1667.29 1408.83 Q1667.29 1419.33 1664.62 1425.06 Q1660.72 1433.42 1652.12 1433.42 Q1648.88 1433.42 1645.58 1431.77 Q1642.31 1430.12 1640.24 1426.15 Q1637.01 1420.21 1637.01 1408.83 M1642.98 1407.95 Q1642.98 1418.8 1643.76 1423.13 Q1644.63 1427.8 1647.02 1429.84 Q1649.45 1431.84 1652.12 1431.84 Q1655 1431.84 1657.39 1429.7 Q1659.81 1427.52 1660.55 1422.85 Q1661.36 1418.24 1661.32 1407.95 Q1661.32 1397.94 1660.62 1393.93 Q1659.67 1389.26 1657.14 1387.4 Q1654.65 1385.5 1652.12 1385.5 Q1651.17 1385.5 1650.15 1385.78 Q1649.17 1386.06 1647.73 1386.87 Q1646.28 1387.68 1645.16 1389.68 Q1644.07 1391.68 1643.54 1394.7 Q1642.98 1398.6 1642.98 1407.95 Z" fill="#000000" fill-rule="nonzero" fill-opacity="1" /><path clip-path="url(#clip750)" d="M1673.73 1430.68 Q1672.64 1429.52 1672.64 1428.01 Q1672.64 1426.5 1673.73 1425.41 Q1674.82 1424.29 1676.47 1424.29 Q1678.05 1424.29 1679.11 1425.34 Q1680.2 1426.36 1680.2 1428.05 Q1680.2 1429.7 1679.04 1430.79 Q1677.91 1431.84 1676.47 1431.84 Q1674.82 1431.84 1673.73 1430.68 Z" fill="#000000" fill-rule="nonzero" fill-opacity="1" /><path clip-path="url(#clip750)" d="M1685.19 1390.77 L1685.19 1388.52 Q1693.84 1388.52 1698.3 1383.92 Q1699.53 1383.92 1699.74 1384.2 Q1699.95 1384.48 1699.95 1385.78 L1699.95 1426.15 Q1699.95 1428.29 1701 1428.96 Q1702.06 1429.63 1706.66 1429.63 L1708.94 1429.63 L1708.94 1431.84 Q1706.41 1431.63 1697.28 1431.63 Q1688.14 1431.63 1685.65 1431.84 L1685.65 1429.63 L1687.93 1429.63 Q1692.47 1429.63 1693.55 1428.99 Q1694.64 1428.33 1694.64 1426.15 L1694.64 1388.87 Q1690.88 1390.77 1685.19 1390.77 Z" fill="#000000" fill-rule="nonzero" fill-opacity="1" /><path clip-path="url(#clip750)" d="M1713.61 1400.11 Q1713.61 1396.28 1714.73 1393.68 Q1715.86 1391.05 1718.21 1388.45 Q1722.53 1383.92 1728.79 1383.92 Q1731.46 1383.92 1733.81 1385.04 Q1736.2 1386.17 1738.45 1388.73 Q1740.73 1391.26 1742.1 1396.28 Q1743.47 1401.27 1743.47 1408.16 Q1743.47 1419.3 1738.06 1426.36 Q1732.69 1433.42 1725.41 1433.42 Q1720.81 1433.42 1718.11 1431.35 Q1715.4 1429.24 1715.4 1425.66 Q1715.4 1423.79 1716.45 1423.02 Q1717.51 1422.21 1718.7 1422.21 Q1720 1422.21 1721.02 1423.09 Q1722.04 1423.93 1722.04 1425.52 Q1722.04 1426.82 1721.2 1427.83 Q1720.39 1428.82 1718.28 1428.82 Q1720.35 1431.42 1725.34 1431.42 Q1727.13 1431.42 1728.93 1430.61 Q1730.72 1429.77 1732.65 1427.76 Q1734.62 1425.73 1735.81 1421.48 Q1737.01 1417.22 1737.01 1411.25 L1737.01 1408.97 Q1734.13 1416.17 1728.01 1416.17 Q1721.97 1416.17 1717.79 1411.53 Q1713.61 1406.89 1713.61 1400.11 M1720.07 1400.18 Q1720.07 1407.32 1721.37 1409.95 Q1723.59 1414.48 1728.08 1414.48 Q1732.47 1414.48 1734.65 1410.58 Q1736.87 1406.65 1736.87 1401.55 Q1736.87 1394.49 1735.71 1391.4 Q1733.56 1385.71 1728.79 1385.71 Q1724.04 1385.71 1721.58 1390.24 Q1720.07 1392.91 1720.07 1400.18 Z" fill="#000000" fill-rule="nonzero" fill-opacity="1" /><path clip-path="url(#clip750)" d="M1746.97 1398.01 L1749.32 1383.21 L1751.11 1383.21 Q1751.33 1384.09 1751.68 1384.48 Q1752.06 1384.87 1754.1 1385.18 Q1756.17 1385.5 1760.35 1385.5 L1777.82 1385.5 Q1777.82 1387.15 1777.18 1388.03 L1767.45 1401.69 Q1764.36 1406.02 1762.99 1413.99 Q1762.18 1419.33 1762.22 1425.8 L1762.22 1429.45 Q1762.22 1433.42 1758.88 1433.42 Q1755.58 1433.42 1755.58 1429.45 Q1755.58 1415.71 1764.43 1402.4 Q1765.38 1401.03 1768.86 1396.14 Q1772.37 1391.26 1772.51 1391.05 L1757.61 1391.05 Q1751.08 1391.05 1750.55 1391.47 Q1749.85 1392.1 1748.76 1398.01 L1746.97 1398.01 Z" fill="#000000" fill-rule="nonzero" fill-opacity="1" /><path clip-path="url(#clip750)" d="M1813.5 1402.78 Q1813.5 1403.28 1813.18 1404.44 L1806.3 1431.91 Q1804.79 1438.02 1799.87 1442.31 Q1794.98 1446.6 1789.43 1446.6 Q1786.09 1446.6 1783.95 1444.8 Q1781.81 1443.05 1781.81 1440.34 Q1781.81 1437.95 1783.07 1436.79 Q1784.34 1435.67 1785.85 1435.67 Q1786.34 1435.67 1786.87 1435.81 Q1787.39 1435.95 1787.96 1436.55 Q1788.52 1437.14 1788.52 1438.16 Q1788.52 1439.81 1787.08 1441.11 Q1786.38 1441.71 1785.71 1441.85 Q1785.08 1441.99 1783.99 1441.99 Q1784.41 1442.98 1785.18 1443.64 Q1785.95 1444.31 1786.83 1444.56 Q1787.71 1444.84 1788.27 1444.91 Q1788.87 1445.01 1789.43 1445.01 Q1793.93 1445.01 1797.37 1440.48 Q1798.39 1439.11 1799.13 1437.74 Q1799.9 1436.41 1800.46 1434.76 Q1801.03 1433.14 1801.27 1432.26 Q1801.55 1431.38 1802.05 1429.38 Q1798.78 1432.65 1794.77 1432.65 Q1793.09 1432.65 1791.58 1432.19 Q1790.1 1431.73 1788.8 1430.79 Q1787.5 1429.8 1786.73 1428.08 Q1785.99 1426.36 1785.99 1424.08 Q1785.99 1421.65 1786.94 1418.35 Q1787.89 1415.05 1790.17 1408.97 Q1791.4 1405.56 1791.4 1403.91 Q1791.4 1403.1 1791.22 1402.61 Q1791.05 1402.08 1790.7 1401.91 Q1790.35 1401.69 1790.14 1401.66 Q1789.96 1401.62 1789.61 1401.62 Q1787.54 1401.62 1785.6 1403.73 Q1783.67 1405.84 1782.34 1410.55 Q1782.05 1411.43 1781.88 1411.64 Q1781.7 1411.85 1781.18 1411.85 Q1780.3 1411.81 1780.3 1411.11 Q1780.3 1410.83 1780.61 1409.74 Q1780.93 1408.62 1781.67 1406.96 Q1782.44 1405.28 1783.49 1403.77 Q1784.55 1402.22 1786.2 1401.13 Q1787.89 1400.04 1789.82 1400.04 Q1792.45 1400.04 1794.07 1401.77 Q1795.72 1403.45 1795.72 1405.95 Q1795.72 1406.96 1795.44 1407.88 Q1795.19 1408.76 1794.28 1411.11 Q1790.59 1420.6 1790.59 1425.23 Q1790.59 1426.36 1790.77 1427.31 Q1790.98 1428.22 1791.44 1429.13 Q1791.89 1430.01 1792.81 1430.54 Q1793.75 1431.03 1795.05 1431.03 Q1796.71 1431.03 1798.25 1430.26 Q1799.83 1429.45 1800.82 1428.36 Q1801.83 1427.27 1802.43 1426.36 Q1803.06 1425.41 1803.2 1424.92 L1806.44 1411.99 L1807.88 1406.23 Q1808.55 1403.1 1808.86 1402.33 Q1809.28 1401.59 1810.02 1401.2 Q1810.76 1400.82 1811.39 1400.82 Q1812.27 1400.82 1812.87 1401.34 Q1813.5 1401.87 1813.5 1402.78 Z" fill="#000000" fill-rule="nonzero" fill-opacity="1" /><path clip-path="url(#clip750)" d="M1836.81 1414.73 Q1835.16 1414.73 1835.16 1413.85 Q1835.16 1412.97 1836.88 1412.97 Q1837.09 1412.97 1837.45 1413.01 Q1837.83 1413.04 1837.9 1413.04 L1858.17 1413.04 L1858.17 1392.7 Q1858.17 1392.63 1858.14 1392.31 Q1858.1 1391.96 1858.1 1391.75 Q1858.1 1390.03 1858.95 1390.03 Q1859.83 1390.03 1859.83 1391.75 L1859.83 1413.04 L1880.13 1413.04 Q1880.2 1413.04 1880.55 1413.01 Q1880.91 1412.97 1881.12 1412.97 Q1882.77 1412.97 1882.77 1413.85 Q1882.8 1414.73 1881.05 1414.73 Q1880.84 1414.73 1880.52 1414.69 Q1880.2 1414.66 1880.13 1414.66 L1859.83 1414.66 L1859.83 1436.02 Q1859.83 1437.67 1858.95 1437.67 Q1858.1 1437.67 1858.1 1435.95 Q1858.1 1435.74 1858.14 1435.39 Q1858.17 1435.07 1858.17 1435 L1858.17 1414.66 L1837.9 1414.66 Q1837.83 1414.66 1837.41 1414.69 Q1837.02 1414.73 1836.81 1414.73 Z" fill="#000000" fill-rule="nonzero" fill-opacity="1" /><path clip-path="url(#clip750)" d="M1910.56 1390.77 L1910.56 1388.52 Q1919.2 1388.52 1923.66 1383.92 Q1924.89 1383.92 1925.1 1384.2 Q1925.31 1384.48 1925.31 1385.78 L1925.31 1426.15 Q1925.31 1428.29 1926.37 1428.96 Q1927.42 1429.63 1932.02 1429.63 L1934.31 1429.63 L1934.31 1431.84 Q1931.78 1431.63 1922.64 1431.63 Q1913.51 1431.63 1911.01 1431.84 L1911.01 1429.63 L1913.3 1429.63 Q1917.83 1429.63 1918.92 1428.99 Q1920.01 1428.33 1920.01 1426.15 L1920.01 1388.87 Q1916.25 1390.77 1910.56 1390.77 Z" fill="#000000" fill-rule="nonzero" fill-opacity="1" /><path clip-path="url(#clip750)" d="M1966.15 1420.91 Q1966.22 1420.03 1967.59 1420.03 L2011.68 1420.03 Q2013.76 1420.03 2013.79 1420.84 Q2013.79 1421.72 2011.82 1421.69 L1968.08 1421.69 Q1966.15 1421.72 1966.15 1420.91 M1966.15 1406.86 Q1966.15 1405.98 1967.66 1406.02 L2011.61 1406.02 Q2013.76 1406.02 2013.79 1406.86 Q2013.79 1407.67 2011.96 1407.67 L1967.59 1407.67 Q1966.15 1407.67 1966.15 1406.86 Z" fill="#000000" fill-rule="nonzero" fill-opacity="1" /><path clip-path="url(#clip750)" d="M2041.54 1408.83 Q2041.54 1398.25 2044.21 1392.49 Q2047.94 1383.92 2056.72 1383.92 Q2058.58 1383.92 2060.52 1384.44 Q2062.48 1384.94 2064.94 1386.87 Q2067.44 1388.8 2068.95 1391.96 Q2071.83 1398.08 2071.83 1408.83 Q2071.83 1419.33 2069.16 1425.06 Q2065.26 1433.42 2056.65 1433.42 Q2053.42 1433.42 2050.12 1431.77 Q2046.85 1430.12 2044.78 1426.15 Q2041.54 1420.21 2041.54 1408.83 M2047.52 1407.95 Q2047.52 1418.8 2048.29 1423.13 Q2049.17 1427.8 2051.56 1429.84 Q2053.98 1431.84 2056.65 1431.84 Q2059.53 1431.84 2061.92 1429.7 Q2064.35 1427.52 2065.08 1422.85 Q2065.89 1418.24 2065.86 1407.95 Q2065.86 1397.94 2065.15 1393.93 Q2064.21 1389.26 2061.68 1387.4 Q2059.18 1385.5 2056.65 1385.5 Q2055.7 1385.5 2054.68 1385.78 Q2053.7 1386.06 2052.26 1386.87 Q2050.82 1387.68 2049.7 1389.68 Q2048.61 1391.68 2048.08 1394.7 Q2047.52 1398.6 2047.52 1407.95 Z" fill="#000000" fill-rule="nonzero" fill-opacity="1" /></svg>
