<?xml version="1.0" encoding="utf-8"?>
<svg xmlns="http://www.w3.org/2000/svg" xmlns:xlink="http://www.w3.org/1999/xlink" width="600" height="400" viewBox="0 0 2400 1600">
<defs>
  <clipPath id="clip750">
    <rect x="0" y="0" width="2400" height="1600"/>
  </clipPath>
</defs>
<path clip-path="url(#clip750)" d="M0 1600 L2400 1600 L2400 0 L0 0  Z" fill="#ffffff" fill-rule="evenodd" fill-opacity="1"/>
<defs>
  <clipPath id="clip751">
    <rect x="480" y="0" width="1681" height="1600"/>
  </clipPath>
</defs>
<path clip-path="url(#clip750)" d="M178.867 1486.45 L2352.76 1486.45 L2352.76 47.2441 L178.867 47.2441  Z" fill="#ffffff" fill-rule="evenodd" fill-opacity="1"/>
<defs>
  <clipPath id="clip752">
    <rect x="178" y="47" width="2175" height="1440"/>
  </clipPath>
</defs>
<polyline clip-path="url(#clip752)" style="stroke:#000000; stroke-linecap:round; stroke-linejoin:round; stroke-width:2; stroke-opacity:0.1; fill:none" points="247.507,1486.45 247.507,47.2441 "/>
<polyline clip-path="url(#clip752)" style="stroke:#000000; stroke-linecap:round; stroke-linejoin:round; stroke-width:2; stroke-opacity:0.1; fill:none" points="586.942,1486.45 586.942,47.2441 "/>
<polyline clip-path="url(#clip752)" style="stroke:#000000; stroke-linecap:round; stroke-linejoin:round; stroke-width:2; stroke-opacity:0.1; fill:none" points="926.376,1486.45 926.376,47.2441 "/>
<polyline clip-path="url(#clip752)" style="stroke:#000000; stroke-linecap:round; stroke-linejoin:round; stroke-width:2; stroke-opacity:0.1; fill:none" points="1265.81,1486.45 1265.81,47.2441 "/>
<polyline clip-path="url(#clip752)" style="stroke:#000000; stroke-linecap:round; stroke-linejoin:round; stroke-width:2; stroke-opacity:0.1; fill:none" points="1605.25,1486.45 1605.25,47.2441 "/>
<polyline clip-path="url(#clip752)" style="stroke:#000000; stroke-linecap:round; stroke-linejoin:round; stroke-width:2; stroke-opacity:0.1; fill:none" points="1944.68,1486.45 1944.68,47.2441 "/>
<polyline clip-path="url(#clip752)" style="stroke:#000000; stroke-linecap:round; stroke-linejoin:round; stroke-width:2; stroke-opacity:0.1; fill:none" points="2284.12,1486.45 2284.12,47.2441 "/>
<polyline clip-path="url(#clip750)" style="stroke:#000000; stroke-linecap:round; stroke-linejoin:round; stroke-width:4; stroke-opacity:1; fill:none" points="178.867,1486.45 2352.76,1486.45 "/>
<polyline clip-path="url(#clip750)" style="stroke:#000000; stroke-linecap:round; stroke-linejoin:round; stroke-width:4; stroke-opacity:1; fill:none" points="247.507,1486.45 247.507,1467.55 "/>
<polyline clip-path="url(#clip750)" style="stroke:#000000; stroke-linecap:round; stroke-linejoin:round; stroke-width:4; stroke-opacity:1; fill:none" points="586.942,1486.45 586.942,1467.55 "/>
<polyline clip-path="url(#clip750)" style="stroke:#000000; stroke-linecap:round; stroke-linejoin:round; stroke-width:4; stroke-opacity:1; fill:none" points="926.376,1486.45 926.376,1467.55 "/>
<polyline clip-path="url(#clip750)" style="stroke:#000000; stroke-linecap:round; stroke-linejoin:round; stroke-width:4; stroke-opacity:1; fill:none" points="1265.81,1486.45 1265.81,1467.55 "/>
<polyline clip-path="url(#clip750)" style="stroke:#000000; stroke-linecap:round; stroke-linejoin:round; stroke-width:4; stroke-opacity:1; fill:none" points="1605.25,1486.45 1605.25,1467.55 "/>
<polyline clip-path="url(#clip750)" style="stroke:#000000; stroke-linecap:round; stroke-linejoin:round; stroke-width:4; stroke-opacity:1; fill:none" points="1944.68,1486.45 1944.68,1467.55 "/>
<polyline clip-path="url(#clip750)" style="stroke:#000000; stroke-linecap:round; stroke-linejoin:round; stroke-width:4; stroke-opacity:1; fill:none" points="2284.12,1486.45 2284.12,1467.55 "/>
<path clip-path="url(#clip750)" d="M201.569 1532.02 L231.245 1532.02 L231.245 1535.95 L201.569 1535.95 L201.569 1532.02 Z" fill="#000000" fill-rule="nonzero" fill-opacity="1" /><path clip-path="url(#clip750)" d="M255.504 1530.21 Q258.861 1530.93 260.736 1533.2 Q262.634 1535.47 262.634 1538.8 Q262.634 1543.92 259.115 1546.72 Q255.597 1549.52 249.115 1549.52 Q246.94 1549.52 244.625 1549.08 Q242.333 1548.66 239.879 1547.81 L239.879 1543.29 Q241.824 1544.43 244.139 1545.01 Q246.453 1545.58 248.977 1545.58 Q253.375 1545.58 255.666 1543.85 Q257.981 1542.11 257.981 1538.8 Q257.981 1535.75 255.828 1534.03 Q253.699 1532.3 249.879 1532.3 L245.852 1532.3 L245.852 1528.45 L250.065 1528.45 Q253.514 1528.45 255.342 1527.09 Q257.171 1525.7 257.171 1523.11 Q257.171 1520.45 255.273 1519.03 Q253.398 1517.6 249.879 1517.6 Q247.958 1517.6 245.759 1518.01 Q243.56 1518.43 240.921 1519.31 L240.921 1515.14 Q243.583 1514.4 245.898 1514.03 Q248.236 1513.66 250.296 1513.66 Q255.62 1513.66 258.722 1516.09 Q261.824 1518.5 261.824 1522.62 Q261.824 1525.49 260.18 1527.48 Q258.537 1529.45 255.504 1530.21 Z" fill="#000000" fill-rule="nonzero" fill-opacity="1" /><path clip-path="url(#clip750)" d="M281.5 1517.37 Q277.888 1517.37 276.06 1520.93 Q274.254 1524.47 274.254 1531.6 Q274.254 1538.71 276.06 1542.27 Q277.888 1545.82 281.5 1545.82 Q285.134 1545.82 286.939 1542.27 Q288.768 1538.71 288.768 1531.6 Q288.768 1524.47 286.939 1520.93 Q285.134 1517.37 281.5 1517.37 M281.5 1513.66 Q287.31 1513.66 290.365 1518.27 Q293.444 1522.85 293.444 1531.6 Q293.444 1540.33 290.365 1544.94 Q287.31 1549.52 281.5 1549.52 Q275.689 1549.52 272.611 1544.94 Q269.555 1540.33 269.555 1531.6 Q269.555 1522.85 272.611 1518.27 Q275.689 1513.66 281.5 1513.66 Z" fill="#000000" fill-rule="nonzero" fill-opacity="1" /><path clip-path="url(#clip750)" d="M541.004 1532.02 L570.68 1532.02 L570.68 1535.95 L541.004 1535.95 L541.004 1532.02 Z" fill="#000000" fill-rule="nonzero" fill-opacity="1" /><path clip-path="url(#clip750)" d="M584.8 1544.91 L601.12 1544.91 L601.12 1548.85 L579.175 1548.85 L579.175 1544.91 Q581.837 1542.16 586.421 1537.53 Q591.027 1532.88 592.208 1531.53 Q594.453 1529.01 595.333 1527.27 Q596.235 1525.51 596.235 1523.82 Q596.235 1521.07 594.291 1519.33 Q592.37 1517.6 589.268 1517.6 Q587.069 1517.6 584.615 1518.36 Q582.185 1519.13 579.407 1520.68 L579.407 1515.95 Q582.231 1514.82 584.685 1514.24 Q587.138 1513.66 589.175 1513.66 Q594.546 1513.66 597.74 1516.35 Q600.935 1519.03 600.935 1523.52 Q600.935 1525.65 600.124 1527.57 Q599.337 1529.47 597.231 1532.07 Q596.652 1532.74 593.55 1535.95 Q590.448 1539.15 584.8 1544.91 Z" fill="#000000" fill-rule="nonzero" fill-opacity="1" /><path clip-path="url(#clip750)" d="M620.934 1517.37 Q617.323 1517.37 615.495 1520.93 Q613.689 1524.47 613.689 1531.6 Q613.689 1538.71 615.495 1542.27 Q617.323 1545.82 620.934 1545.82 Q624.569 1545.82 626.374 1542.27 Q628.203 1538.71 628.203 1531.6 Q628.203 1524.47 626.374 1520.93 Q624.569 1517.37 620.934 1517.37 M620.934 1513.66 Q626.745 1513.66 629.8 1518.27 Q632.879 1522.85 632.879 1531.6 Q632.879 1540.33 629.8 1544.94 Q626.745 1549.52 620.934 1549.52 Q615.124 1549.52 612.046 1544.94 Q608.99 1540.33 608.99 1531.6 Q608.99 1522.85 612.046 1518.27 Q615.124 1513.66 620.934 1513.66 Z" fill="#000000" fill-rule="nonzero" fill-opacity="1" /><path clip-path="url(#clip750)" d="M880.439 1532.02 L910.115 1532.02 L910.115 1535.95 L880.439 1535.95 L880.439 1532.02 Z" fill="#000000" fill-rule="nonzero" fill-opacity="1" /><path clip-path="url(#clip750)" d="M921.018 1544.91 L928.656 1544.91 L928.656 1518.55 L920.346 1520.21 L920.346 1515.95 L928.61 1514.29 L933.286 1514.29 L933.286 1544.91 L940.925 1544.91 L940.925 1548.85 L921.018 1548.85 L921.018 1544.91 Z" fill="#000000" fill-rule="nonzero" fill-opacity="1" /><path clip-path="url(#clip750)" d="M960.369 1517.37 Q956.758 1517.37 954.93 1520.93 Q953.124 1524.47 953.124 1531.6 Q953.124 1538.71 954.93 1542.27 Q956.758 1545.82 960.369 1545.82 Q964.004 1545.82 965.809 1542.27 Q967.638 1538.71 967.638 1531.6 Q967.638 1524.47 965.809 1520.93 Q964.004 1517.37 960.369 1517.37 M960.369 1513.66 Q966.179 1513.66 969.235 1518.27 Q972.314 1522.85 972.314 1531.6 Q972.314 1540.33 969.235 1544.94 Q966.179 1549.52 960.369 1549.52 Q954.559 1549.52 951.48 1544.94 Q948.425 1540.33 948.425 1531.6 Q948.425 1522.85 951.48 1518.27 Q954.559 1513.66 960.369 1513.66 Z" fill="#000000" fill-rule="nonzero" fill-opacity="1" /><path clip-path="url(#clip750)" d="M1265.81 1517.37 Q1262.2 1517.37 1260.37 1520.93 Q1258.57 1524.47 1258.57 1531.6 Q1258.57 1538.71 1260.37 1542.27 Q1262.2 1545.82 1265.81 1545.82 Q1269.45 1545.82 1271.25 1542.27 Q1273.08 1538.71 1273.08 1531.6 Q1273.08 1524.47 1271.25 1520.93 Q1269.45 1517.37 1265.81 1517.37 M1265.81 1513.66 Q1271.62 1513.66 1274.68 1518.27 Q1277.76 1522.85 1277.76 1531.6 Q1277.76 1540.33 1274.68 1544.94 Q1271.62 1549.52 1265.81 1549.52 Q1260 1549.52 1256.92 1544.94 Q1253.87 1540.33 1253.87 1531.6 Q1253.87 1522.85 1256.92 1518.27 Q1260 1513.66 1265.81 1513.66 Z" fill="#000000" fill-rule="nonzero" fill-opacity="1" /><path clip-path="url(#clip750)" d="M1579.93 1544.91 L1587.57 1544.91 L1587.57 1518.55 L1579.26 1520.21 L1579.26 1515.95 L1587.53 1514.29 L1592.2 1514.29 L1592.2 1544.91 L1599.84 1544.91 L1599.84 1548.85 L1579.93 1548.85 L1579.93 1544.91 Z" fill="#000000" fill-rule="nonzero" fill-opacity="1" /><path clip-path="url(#clip750)" d="M1619.29 1517.37 Q1615.67 1517.37 1613.85 1520.93 Q1612.04 1524.47 1612.04 1531.6 Q1612.04 1538.71 1613.85 1542.27 Q1615.67 1545.82 1619.29 1545.82 Q1622.92 1545.82 1624.73 1542.27 Q1626.55 1538.71 1626.55 1531.6 Q1626.55 1524.47 1624.73 1520.93 Q1622.92 1517.37 1619.29 1517.37 M1619.29 1513.66 Q1625.1 1513.66 1628.15 1518.27 Q1631.23 1522.85 1631.23 1531.6 Q1631.23 1540.33 1628.15 1544.94 Q1625.1 1549.52 1619.29 1549.52 Q1613.48 1549.52 1610.4 1544.94 Q1607.34 1540.33 1607.34 1531.6 Q1607.34 1522.85 1610.4 1518.27 Q1613.48 1513.66 1619.29 1513.66 Z" fill="#000000" fill-rule="nonzero" fill-opacity="1" /><path clip-path="url(#clip750)" d="M1923.45 1544.91 L1939.77 1544.91 L1939.77 1548.85 L1917.83 1548.85 L1917.83 1544.91 Q1920.49 1542.16 1925.07 1537.53 Q1929.68 1532.88 1930.86 1531.53 Q1933.11 1529.01 1933.99 1527.27 Q1934.89 1525.51 1934.89 1523.82 Q1934.89 1521.07 1932.94 1519.33 Q1931.02 1517.6 1927.92 1517.6 Q1925.72 1517.6 1923.27 1518.36 Q1920.84 1519.13 1918.06 1520.68 L1918.06 1515.95 Q1920.88 1514.82 1923.34 1514.24 Q1925.79 1513.66 1927.83 1513.66 Q1933.2 1513.66 1936.39 1516.35 Q1939.59 1519.03 1939.59 1523.52 Q1939.59 1525.65 1938.78 1527.57 Q1937.99 1529.47 1935.88 1532.07 Q1935.31 1532.74 1932.2 1535.95 Q1929.1 1539.15 1923.45 1544.91 Z" fill="#000000" fill-rule="nonzero" fill-opacity="1" /><path clip-path="url(#clip750)" d="M1959.59 1517.37 Q1955.98 1517.37 1954.15 1520.93 Q1952.34 1524.47 1952.34 1531.6 Q1952.34 1538.71 1954.15 1542.27 Q1955.98 1545.82 1959.59 1545.82 Q1963.22 1545.82 1965.03 1542.27 Q1966.86 1538.71 1966.86 1531.6 Q1966.86 1524.47 1965.03 1520.93 Q1963.22 1517.37 1959.59 1517.37 M1959.59 1513.66 Q1965.4 1513.66 1968.45 1518.27 Q1971.53 1522.85 1971.53 1531.6 Q1971.53 1540.33 1968.45 1544.94 Q1965.4 1549.52 1959.59 1549.52 Q1953.78 1549.52 1950.7 1544.94 Q1947.64 1540.33 1947.64 1531.6 Q1947.64 1522.85 1950.7 1518.27 Q1953.78 1513.66 1959.59 1513.66 Z" fill="#000000" fill-rule="nonzero" fill-opacity="1" /><path clip-path="url(#clip750)" d="M2272.96 1530.21 Q2276.31 1530.93 2278.19 1533.2 Q2280.09 1535.47 2280.09 1538.8 Q2280.09 1543.92 2276.57 1546.72 Q2273.05 1549.52 2266.57 1549.52 Q2264.39 1549.52 2262.08 1549.08 Q2259.79 1548.66 2257.33 1547.81 L2257.33 1543.29 Q2259.28 1544.43 2261.59 1545.01 Q2263.91 1545.58 2266.43 1545.58 Q2270.83 1545.58 2273.12 1543.85 Q2275.44 1542.11 2275.44 1538.8 Q2275.44 1535.75 2273.28 1534.03 Q2271.15 1532.3 2267.33 1532.3 L2263.31 1532.3 L2263.31 1528.45 L2267.52 1528.45 Q2270.97 1528.45 2272.8 1527.09 Q2274.63 1525.7 2274.63 1523.11 Q2274.63 1520.45 2272.73 1519.03 Q2270.85 1517.6 2267.33 1517.6 Q2265.41 1517.6 2263.21 1518.01 Q2261.01 1518.43 2258.38 1519.31 L2258.38 1515.14 Q2261.04 1514.4 2263.35 1514.03 Q2265.69 1513.66 2267.75 1513.66 Q2273.07 1513.66 2276.18 1516.09 Q2279.28 1518.5 2279.28 1522.62 Q2279.28 1525.49 2277.63 1527.48 Q2275.99 1529.45 2272.96 1530.21 Z" fill="#000000" fill-rule="nonzero" fill-opacity="1" /><path clip-path="url(#clip750)" d="M2298.95 1517.37 Q2295.34 1517.37 2293.51 1520.93 Q2291.71 1524.47 2291.71 1531.6 Q2291.71 1538.71 2293.51 1542.27 Q2295.34 1545.82 2298.95 1545.82 Q2302.59 1545.82 2304.39 1542.27 Q2306.22 1538.71 2306.22 1531.6 Q2306.22 1524.47 2304.39 1520.93 Q2302.59 1517.37 2298.95 1517.37 M2298.95 1513.66 Q2304.76 1513.66 2307.82 1518.27 Q2310.9 1522.85 2310.9 1531.6 Q2310.9 1540.33 2307.82 1544.94 Q2304.76 1549.52 2298.95 1549.52 Q2293.14 1549.52 2290.06 1544.94 Q2287.01 1540.33 2287.01 1531.6 Q2287.01 1522.85 2290.06 1518.27 Q2293.14 1513.66 2298.95 1513.66 Z" fill="#000000" fill-rule="nonzero" fill-opacity="1" /><polyline clip-path="url(#clip752)" style="stroke:#000000; stroke-linecap:round; stroke-linejoin:round; stroke-width:2; stroke-opacity:0.1; fill:none" points="178.867,1445.72 2352.76,1445.72 "/>
<polyline clip-path="url(#clip752)" style="stroke:#000000; stroke-linecap:round; stroke-linejoin:round; stroke-width:2; stroke-opacity:0.1; fill:none" points="178.867,1106.28 2352.76,1106.28 "/>
<polyline clip-path="url(#clip752)" style="stroke:#000000; stroke-linecap:round; stroke-linejoin:round; stroke-width:2; stroke-opacity:0.1; fill:none" points="178.867,766.846 2352.76,766.846 "/>
<polyline clip-path="url(#clip752)" style="stroke:#000000; stroke-linecap:round; stroke-linejoin:round; stroke-width:2; stroke-opacity:0.1; fill:none" points="178.867,427.411 2352.76,427.411 "/>
<polyline clip-path="url(#clip752)" style="stroke:#000000; stroke-linecap:round; stroke-linejoin:round; stroke-width:2; stroke-opacity:0.1; fill:none" points="178.867,87.9763 2352.76,87.9763 "/>
<polyline clip-path="url(#clip750)" style="stroke:#000000; stroke-linecap:round; stroke-linejoin:round; stroke-width:4; stroke-opacity:1; fill:none" points="178.867,1486.45 178.867,47.2441 "/>
<polyline clip-path="url(#clip750)" style="stroke:#000000; stroke-linecap:round; stroke-linejoin:round; stroke-width:4; stroke-opacity:1; fill:none" points="178.867,1445.72 197.764,1445.72 "/>
<polyline clip-path="url(#clip750)" style="stroke:#000000; stroke-linecap:round; stroke-linejoin:round; stroke-width:4; stroke-opacity:1; fill:none" points="178.867,1106.28 197.764,1106.28 "/>
<polyline clip-path="url(#clip750)" style="stroke:#000000; stroke-linecap:round; stroke-linejoin:round; stroke-width:4; stroke-opacity:1; fill:none" points="178.867,766.846 197.764,766.846 "/>
<polyline clip-path="url(#clip750)" style="stroke:#000000; stroke-linecap:round; stroke-linejoin:round; stroke-width:4; stroke-opacity:1; fill:none" points="178.867,427.411 197.764,427.411 "/>
<polyline clip-path="url(#clip750)" style="stroke:#000000; stroke-linecap:round; stroke-linejoin:round; stroke-width:4; stroke-opacity:1; fill:none" points="178.867,87.9763 197.764,87.9763 "/>
<path clip-path="url(#clip750)" d="M50.9921 1446.17 L80.6679 1446.17 L80.6679 1450.1 L50.9921 1450.1 L50.9921 1446.17 Z" fill="#000000" fill-rule="nonzero" fill-opacity="1" /><path clip-path="url(#clip750)" d="M94.7882 1459.06 L111.108 1459.06 L111.108 1463 L89.1632 1463 L89.1632 1459.06 Q91.8252 1456.31 96.4085 1451.68 Q101.015 1447.02 102.196 1445.68 Q104.441 1443.16 105.321 1441.42 Q106.223 1439.66 106.223 1437.97 Q106.223 1435.22 104.279 1433.48 Q102.358 1431.75 99.2558 1431.75 Q97.0567 1431.75 94.603 1432.51 Q92.1725 1433.27 89.3947 1434.82 L89.3947 1430.1 Q92.2188 1428.97 94.6724 1428.39 Q97.1261 1427.81 99.1632 1427.81 Q104.534 1427.81 107.728 1430.5 Q110.922 1433.18 110.922 1437.67 Q110.922 1439.8 110.112 1441.72 Q109.325 1443.62 107.219 1446.21 Q106.64 1446.88 103.538 1450.1 Q100.436 1453.3 94.7882 1459.06 Z" fill="#000000" fill-rule="nonzero" fill-opacity="1" /><path clip-path="url(#clip750)" d="M130.922 1431.51 Q127.311 1431.51 125.482 1435.08 Q123.677 1438.62 123.677 1445.75 Q123.677 1452.86 125.482 1456.42 Q127.311 1459.96 130.922 1459.96 Q134.556 1459.96 136.362 1456.42 Q138.191 1452.86 138.191 1445.75 Q138.191 1438.62 136.362 1435.08 Q134.556 1431.51 130.922 1431.51 M130.922 1427.81 Q136.732 1427.81 139.788 1432.42 Q142.867 1437 142.867 1445.75 Q142.867 1454.48 139.788 1459.08 Q136.732 1463.67 130.922 1463.67 Q125.112 1463.67 122.033 1459.08 Q118.978 1454.48 118.978 1445.75 Q118.978 1437 122.033 1432.42 Q125.112 1427.81 130.922 1427.81 Z" fill="#000000" fill-rule="nonzero" fill-opacity="1" /><path clip-path="url(#clip750)" d="M50.9921 1106.73 L80.6679 1106.73 L80.6679 1110.67 L50.9921 1110.67 L50.9921 1106.73 Z" fill="#000000" fill-rule="nonzero" fill-opacity="1" /><path clip-path="url(#clip750)" d="M91.5706 1119.63 L99.2095 1119.63 L99.2095 1093.26 L90.8993 1094.93 L90.8993 1090.67 L99.1632 1089 L103.839 1089 L103.839 1119.63 L111.478 1119.63 L111.478 1123.56 L91.5706 1123.56 L91.5706 1119.63 Z" fill="#000000" fill-rule="nonzero" fill-opacity="1" /><path clip-path="url(#clip750)" d="M130.922 1092.08 Q127.311 1092.08 125.482 1095.64 Q123.677 1099.19 123.677 1106.32 Q123.677 1113.42 125.482 1116.99 Q127.311 1120.53 130.922 1120.53 Q134.556 1120.53 136.362 1116.99 Q138.191 1113.42 138.191 1106.32 Q138.191 1099.19 136.362 1095.64 Q134.556 1092.08 130.922 1092.08 M130.922 1088.38 Q136.732 1088.38 139.788 1092.98 Q142.867 1097.57 142.867 1106.32 Q142.867 1115.04 139.788 1119.65 Q136.732 1124.23 130.922 1124.23 Q125.112 1124.23 122.033 1119.65 Q118.978 1115.04 118.978 1106.32 Q118.978 1097.57 122.033 1092.98 Q125.112 1088.38 130.922 1088.38 Z" fill="#000000" fill-rule="nonzero" fill-opacity="1" /><path clip-path="url(#clip750)" d="M130.922 752.645 Q127.311 752.645 125.482 756.209 Q123.677 759.751 123.677 766.881 Q123.677 773.987 125.482 777.552 Q127.311 781.094 130.922 781.094 Q134.556 781.094 136.362 777.552 Q138.191 773.987 138.191 766.881 Q138.191 759.751 136.362 756.209 Q134.556 752.645 130.922 752.645 M130.922 748.941 Q136.732 748.941 139.788 753.547 Q142.867 758.131 142.867 766.881 Q142.867 775.608 139.788 780.214 Q136.732 784.797 130.922 784.797 Q125.112 784.797 122.033 780.214 Q118.978 775.608 118.978 766.881 Q118.978 758.131 122.033 753.547 Q125.112 748.941 130.922 748.941 Z" fill="#000000" fill-rule="nonzero" fill-opacity="1" /><path clip-path="url(#clip750)" d="M91.5706 440.756 L99.2095 440.756 L99.2095 414.39 L90.8993 416.057 L90.8993 411.798 L99.1632 410.131 L103.839 410.131 L103.839 440.756 L111.478 440.756 L111.478 444.691 L91.5706 444.691 L91.5706 440.756 Z" fill="#000000" fill-rule="nonzero" fill-opacity="1" /><path clip-path="url(#clip750)" d="M130.922 413.21 Q127.311 413.21 125.482 416.775 Q123.677 420.316 123.677 427.446 Q123.677 434.552 125.482 438.117 Q127.311 441.659 130.922 441.659 Q134.556 441.659 136.362 438.117 Q138.191 434.552 138.191 427.446 Q138.191 420.316 136.362 416.775 Q134.556 413.21 130.922 413.21 M130.922 409.506 Q136.732 409.506 139.788 414.113 Q142.867 418.696 142.867 427.446 Q142.867 436.173 139.788 440.779 Q136.732 445.362 130.922 445.362 Q125.112 445.362 122.033 440.779 Q118.978 436.173 118.978 427.446 Q118.978 418.696 122.033 414.113 Q125.112 409.506 130.922 409.506 Z" fill="#000000" fill-rule="nonzero" fill-opacity="1" /><path clip-path="url(#clip750)" d="M94.7882 101.321 L111.108 101.321 L111.108 105.256 L89.1632 105.256 L89.1632 101.321 Q91.8252 98.5665 96.4085 93.9369 Q101.015 89.2841 102.196 87.9416 Q104.441 85.4184 105.321 83.6823 Q106.223 81.9231 106.223 80.2333 Q106.223 77.4786 104.279 75.7425 Q102.358 74.0064 99.2558 74.0064 Q97.0567 74.0064 94.603 74.7703 Q92.1725 75.5342 89.3947 77.0851 L89.3947 72.3629 Q92.2188 71.2287 94.6724 70.65 Q97.1261 70.0713 99.1632 70.0713 Q104.534 70.0713 107.728 72.7565 Q110.922 75.4416 110.922 79.9323 Q110.922 82.062 110.112 83.9832 Q109.325 85.8814 107.219 88.474 Q106.64 89.1453 103.538 92.3628 Q100.436 95.5573 94.7882 101.321 Z" fill="#000000" fill-rule="nonzero" fill-opacity="1" /><path clip-path="url(#clip750)" d="M130.922 73.775 Q127.311 73.775 125.482 77.3398 Q123.677 80.8814 123.677 88.011 Q123.677 95.1174 125.482 98.6822 Q127.311 102.224 130.922 102.224 Q134.556 102.224 136.362 98.6822 Q138.191 95.1174 138.191 88.011 Q138.191 80.8814 136.362 77.3398 Q134.556 73.775 130.922 73.775 M130.922 70.0713 Q136.732 70.0713 139.788 74.6777 Q142.867 79.261 142.867 88.011 Q142.867 96.7378 139.788 101.344 Q136.732 105.928 130.922 105.928 Q125.112 105.928 122.033 101.344 Q118.978 96.7378 118.978 88.011 Q118.978 79.261 122.033 74.6777 Q125.112 70.0713 130.922 70.0713 Z" fill="#000000" fill-rule="nonzero" fill-opacity="1" /><polyline clip-path="url(#clip752)" style="stroke:#0000ff; stroke-linecap:round; stroke-linejoin:round; stroke-width:4; stroke-opacity:1; fill:none" points="1153.63,1007.84 1153.8,1009.02 1154.13,1011.24 1154.74,1014.63 1155.45,1018.03 1156.27,1021.42 1157.19,1024.82 1158.25,1028.21 1159.42,1031.61 1160.59,1034.71 1160.7,1035 1162.13,1038.39 1163.67,1041.79 1163.98,1042.44 1165.36,1045.18 1167.18,1048.58 1167.38,1048.91 1169.18,1051.97 1170.77,1054.51 1171.32,1055.37 1173.65,1058.76 1174.16,1059.47 1176.17,1062.15 1177.56,1063.92 1178.89,1065.55 1180.95,1067.96 1181.83,1068.94 1184.35,1071.64 1185.02,1072.34 1187.74,1075.02 1188.5,1075.73 1191.14,1078.12 1192.29,1079.13 1194.53,1080.99 1196.46,1082.52 1197.92,1083.64 1201.06,1085.91 1201.32,1086.1 1204.71,1088.35 1206.23,1089.31 1208.11,1090.45 1211.5,1092.39 1212.09,1092.7 1214.9,1094.16 1218.29,1095.81 1218.92,1096.1 1221.68,1097.31 1225.08,1098.68 1227.24,1099.49 1228.47,1099.94 1231.87,1101.06 1235.26,1102.07 1238.32,1102.89 1238.66,1102.97 1242.05,1103.75 1245.45,1104.42 1248.84,1104.99 1252.23,1105.45 1255.63,1105.82 1259.02,1106.07 1262.42,1106.23 1265.81,1106.28 1269.21,1106.23 1272.6,1106.07 1275.99,1105.82 1279.39,1105.45 1282.78,1104.99 1286.18,1104.42 1289.57,1103.75 1292.97,1102.97 1293.3,1102.89 1296.36,1102.07 1299.75,1101.06 1303.15,1099.94 1304.38,1099.49 1306.54,1098.68 1309.94,1097.31 1312.7,1096.1 1313.33,1095.81 1316.73,1094.16 1319.54,1092.7 1320.12,1092.39 1323.52,1090.45 1325.39,1089.31 1326.91,1088.35 1330.3,1086.1 1330.56,1085.91 1333.7,1083.64 1335.16,1082.52 1337.09,1080.99 1339.33,1079.13 1340.49,1078.12 1343.13,1075.73 1343.88,1075.02 1346.6,1072.34 1347.28,1071.64 1349.79,1068.94 1350.67,1067.96 1352.73,1065.55 1354.06,1063.92 1355.45,1062.15 1357.46,1059.47 1357.97,1058.76 1360.3,1055.37 1360.85,1054.51 1362.44,1051.97 1364.25,1048.91 1364.44,1048.58 1366.26,1045.18 1367.64,1042.44 1367.96,1041.79 1369.5,1038.39 1370.92,1035 1371.04,1034.71 1372.2,1031.61 1373.37,1028.21 1374.43,1024.82 1375.35,1021.42 1376.17,1018.03 1376.88,1014.63 1377.49,1011.24 1377.82,1009.02 1377.99,1007.84 1378.38,1004.45 1378.67,1001.06 1378.85,997.662 1378.94,994.267 1378.92,990.873 1378.8,987.479 1378.58,984.084 1378.26,980.69 1377.84,977.296 1377.82,977.186 1377.3,973.901 1376.66,970.507 1375.91,967.113 1375.06,963.718 1374.43,961.496 1374.09,960.324 1372.99,956.93 1371.79,953.535 1371.04,951.582 1370.46,950.141 1369,946.746 1367.64,943.831 1367.41,943.352 1365.67,939.958 1364.25,937.368 1363.79,936.563 1361.75,933.169 1360.85,931.768 1359.54,929.775 1357.46,926.794 1357.16,926.38 1354.58,922.986 1354.06,922.345 1351.78,919.592 1350.67,918.316 1348.75,916.197 1347.28,914.634 1345.47,912.803 1343.88,911.258 1341.89,909.409 1340.49,908.15 1337.99,906.014 1337.09,905.279 1333.7,902.62 1330.3,900.183 1328.9,899.226 1326.91,897.92 1323.55,895.831 1323.52,895.812 1320.12,893.892 1317.38,892.437 1316.73,892.099 1313.33,890.468 1310.15,889.043 1309.94,888.952 1306.54,887.59 1303.15,886.338 1301.1,885.648 1299.75,885.209 1296.36,884.206 1292.97,883.309 1289.57,882.518 1288.27,882.254 1286.18,881.844 1282.78,881.282 1279.39,880.821 1275.99,880.463 1272.6,880.207 1269.21,880.053 1265.81,880.002 1262.42,880.053 1259.02,880.207 1255.63,880.463 1252.23,880.821 1248.84,881.282 1245.45,881.844 1243.36,882.254 1242.05,882.518 1238.66,883.309 1235.26,884.206 1231.87,885.209 1230.52,885.648 1228.47,886.338 1225.08,887.59 1221.68,888.952 1221.48,889.043 1218.29,890.468 1214.9,892.099 1214.24,892.437 1211.5,893.892 1208.11,895.812 1208.08,895.831 1204.71,897.92 1202.73,899.226 1201.32,900.183 1197.92,902.62 1194.53,905.279 1193.64,906.014 1191.14,908.15 1189.73,909.409 1187.74,911.258 1186.15,912.803 1184.35,914.634 1182.87,916.197 1180.95,918.316 1179.84,919.592 1177.56,922.345 1177.05,922.986 1174.46,926.38 1174.16,926.794 1172.09,929.775 1170.77,931.768 1169.88,933.169 1167.83,936.563 1167.38,937.368 1165.96,939.958 1164.21,943.352 1163.98,943.831 1162.63,946.746 1161.16,950.141 1160.59,951.582 1159.83,953.535 1158.63,956.93 1157.53,960.324 1157.19,961.496 1156.57,963.718 1155.71,967.113 1154.96,970.507 1154.32,973.901 1153.8,977.186 1153.78,977.296 1153.36,980.69 1153.04,984.084 1152.82,987.479 1152.7,990.873 1152.68,994.267 1152.77,997.662 1152.95,1001.06 1153.24,1004.45 1153.63,1007.84 "/>
<polyline clip-path="url(#clip752)" style="stroke:#0000ff; stroke-linecap:round; stroke-linejoin:round; stroke-width:4; stroke-opacity:1; fill:none" points="1374.25,661.621 1374.43,662.409 1375.08,665.016 1376.19,668.41 1377.57,671.804 1377.82,672.326 1379.34,675.199 1381.22,678.196 1381.49,678.593 1384.16,681.987 1384.61,682.489 1387.47,685.382 1388.01,685.863 1391.4,688.607 1391.64,688.776 1394.8,690.835 1397.14,692.17 1398.19,692.714 1401.59,694.251 1404.98,695.552 1405.02,695.565 1408.37,696.568 1411.77,697.389 1415.16,698.027 1418.56,698.492 1421.95,698.794 1425.35,698.941 1428.74,698.941 1432.13,698.803 1435.53,698.532 1438.92,698.136 1442.32,697.621 1445.71,696.993 1449.11,696.257 1451.9,695.565 1452.5,695.41 1455.89,694.428 1459.29,693.35 1462.68,692.179 1462.71,692.17 1466.08,690.861 1469.47,689.457 1471.01,688.776 1472.87,687.932 1476.26,686.294 1478.05,685.382 1479.66,684.54 1483.05,682.669 1484.23,681.987 1486.44,680.665 1489.79,678.593 1489.84,678.559 1493.23,676.282 1494.79,675.199 1496.63,673.879 1499.42,671.804 1500.02,671.341 1503.42,668.638 1503.69,668.41 1506.81,665.748 1507.64,665.016 1510.2,662.677 1511.33,661.621 1513.6,659.402 1514.77,658.227 1516.99,655.901 1517.99,654.832 1520.39,652.141 1521,651.438 1523.78,648.09 1523.82,648.044 1526.43,644.649 1527.18,643.634 1528.87,641.255 1530.57,638.754 1531.16,637.861 1533.27,634.466 1533.96,633.28 1535.22,631.072 1537.03,627.678 1537.36,627 1538.66,624.283 1540.15,620.889 1540.75,619.373 1541.48,617.495 1542.66,614.1 1543.69,610.706 1544.15,608.927 1544.55,607.312 1545.25,603.917 1545.79,600.523 1546.15,597.129 1546.34,593.734 1546.34,590.34 1546.14,586.946 1545.72,583.551 1545.08,580.157 1544.2,576.762 1544.15,576.616 1543,573.368 1541.5,569.974 1540.75,568.542 1539.64,566.579 1537.36,563.185 1534.51,559.791 1533.96,559.219 1530.99,556.396 1530.57,556.043 1527.18,553.463 1526.49,553.002 1523.78,551.345 1520.51,549.608 1520.39,549.548 1516.99,548.107 1513.6,546.893 1511.31,546.213 1510.2,545.911 1506.81,545.156 1503.42,544.577 1500.02,544.166 1496.63,543.913 1493.23,543.81 1489.84,543.849 1486.44,544.023 1483.05,544.326 1479.66,544.75 1476.26,545.291 1472.87,545.942 1471.66,546.213 1469.47,546.722 1466.08,547.619 1462.68,548.615 1459.6,549.608 1459.29,549.711 1455.89,550.948 1452.5,552.273 1450.76,553.002 1449.11,553.715 1445.71,555.275 1443.4,556.396 1442.32,556.938 1438.92,558.733 1437.01,559.791 1435.53,560.639 1432.13,562.668 1431.31,563.185 1428.74,564.841 1426.14,566.579 1425.35,567.13 1421.95,569.569 1421.41,569.974 1418.56,572.174 1417.06,573.368 1415.16,574.932 1413.01,576.762 1411.77,577.861 1409.25,580.157 1408.37,580.981 1405.73,583.551 1404.98,584.316 1402.46,586.946 1401.59,587.893 1399.39,590.34 1398.19,591.745 1396.53,593.734 1394.8,595.91 1393.85,597.129 1391.4,600.434 1391.34,600.523 1389.03,603.917 1388.01,605.497 1386.87,607.312 1384.86,610.706 1384.61,611.149 1383.03,614.1 1381.33,617.495 1381.22,617.736 1379.81,620.889 1378.43,624.283 1377.82,625.941 1377.21,627.678 1376.15,631.072 1375.23,634.466 1374.47,637.861 1374.43,638.07 1373.89,641.255 1373.48,644.649 1373.24,648.044 1373.19,651.438 1373.33,654.832 1373.68,658.227 1374.25,661.621 "/>
<polyline clip-path="url(#clip752)" style="stroke:#0000ff; stroke-linecap:round; stroke-linejoin:round; stroke-width:4; stroke-opacity:1; fill:none" points="1123.25,696.568 1119.85,697.389 1116.46,698.027 1113.07,698.492 1109.67,698.794 1106.28,698.941 1102.88,698.941 1099.49,698.803 1096.09,698.532 1092.7,698.136 1089.31,697.621 1085.91,696.993 1082.52,696.257 1079.73,695.565 1079.12,695.41 1075.73,694.428 1072.33,693.35 1068.94,692.179 1068.92,692.17 1065.54,690.861 1062.15,689.457 1060.61,688.776 1058.76,687.932 1055.36,686.294 1053.57,685.382 1051.97,684.54 1048.57,682.669 1047.39,681.987 1045.18,680.665 1041.84,678.593 1041.78,678.559 1038.39,676.282 1036.83,675.199 1035,673.879 1032.2,671.804 1031.6,671.341 1028.21,668.638 1027.93,668.41 1024.81,665.748 1023.98,665.016 1021.42,662.677 1020.3,661.621 1018.02,659.402 1016.85,658.227 1014.63,655.901 1013.64,654.832 1011.24,652.141 1010.62,651.438 1007.84,648.09 1007.8,648.044 1005.19,644.649 1004.45,643.634 1002.75,641.255 1001.05,638.754 1000.46,637.861 998.35,634.466 997.658,633.28 996.402,631.072 994.595,627.678 994.263,627 992.965,624.283 991.472,620.889 990.869,619.373 990.14,617.495 988.967,614.1 987.934,610.706 987.475,608.927 987.068,607.312 986.372,603.917 985.837,600.523 985.47,597.129 985.282,593.734 985.284,590.34 985.487,586.946 985.902,583.551 986.544,580.157 987.427,576.762 987.475,576.616 988.625,573.368 990.118,569.974 990.869,568.542 991.987,566.579 994.263,563.185 997.113,559.791 997.658,559.219 1000.63,556.396 1001.05,556.043 1004.45,553.463 1005.13,553.002 1007.84,551.345 1011.11,549.608 1011.24,549.548 1014.63,548.107 1018.02,546.893 1020.32,546.213 1021.42,545.911 1024.81,545.156 1028.21,544.577 1031.6,544.166 1035,543.913 1038.39,543.81 1041.78,543.849 1045.18,544.023 1048.57,544.326 1051.97,544.75 1055.36,545.291 1058.76,545.942 1059.96,546.213 1062.15,546.722 1065.54,547.619 1068.94,548.615 1072.02,549.608 1072.33,549.711 1075.73,550.948 1079.12,552.273 1080.87,553.002 1082.52,553.715 1085.91,555.275 1088.22,556.396 1089.31,556.938 1092.7,558.733 1094.61,559.791 1096.09,560.639 1099.49,562.668 1100.32,563.185 1102.88,564.841 1105.48,566.579 1106.28,567.13 1109.67,569.569 1110.21,569.974 1113.07,572.174 1114.57,573.368 1116.46,574.932 1118.61,576.762 1119.85,577.861 1122.38,580.157 1123.25,580.981 1125.89,583.551 1126.64,584.316 1129.17,586.946 1130.04,587.893 1132.23,590.34 1133.43,591.745 1135.09,593.734 1136.83,595.91 1137.77,597.129 1140.22,600.434 1140.28,600.523 1142.6,603.917 1143.61,605.497 1144.76,607.312 1146.77,610.706 1147.01,611.149 1148.59,614.1 1150.29,617.495 1150.4,617.736 1151.81,620.889 1153.19,624.283 1153.8,625.941 1154.42,627.678 1155.48,631.072 1156.39,634.466 1157.16,637.861 1157.19,638.07 1157.73,641.255 1158.14,644.649 1158.38,648.044 1158.43,651.438 1158.29,654.832 1157.94,658.227 1157.37,661.621 1157.19,662.409 1156.54,665.016 1155.44,668.41 1154.05,671.804 1153.8,672.326 1152.28,675.199 1150.4,678.196 1150.13,678.593 1147.46,681.987 1147.01,682.489 1144.15,685.382 1143.61,685.863 1140.22,688.607 1139.99,688.776 1136.83,690.835 1134.48,692.17 1133.43,692.714 1130.04,694.251 1126.64,695.552 1126.6,695.565 1123.25,696.568 "/>
<polyline clip-path="url(#clip752)" style="stroke:#0000ff; stroke-linecap:round; stroke-linejoin:round; stroke-width:4; stroke-opacity:1; fill:none" points="1523.78,507.948 1520.39,508.274 1516.99,508.488 1513.6,508.584 1510.2,508.556 1506.81,508.4 1503.42,508.108 1500.02,507.674 1496.63,507.091 1493.23,506.35 1489.97,505.481 1489.84,505.443 1486.44,504.328 1483.05,503.023 1480.93,502.087 1479.66,501.496 1476.26,499.713 1474.53,498.692 1472.87,497.657 1469.47,495.298 1466.08,492.549 1465.35,491.904 1462.68,489.375 1461.84,488.509 1459.29,485.682 1458.81,485.115 1456.18,481.721 1455.89,481.327 1453.88,478.326 1452.5,476.08 1451.84,474.932 1450.05,471.538 1449.11,469.583 1448.45,468.143 1447.06,464.749 1445.81,461.355 1445.71,461.044 1444.75,457.96 1443.81,454.566 1443,451.172 1442.32,447.836 1442.31,447.777 1441.74,444.383 1441.28,440.989 1440.92,437.594 1440.65,434.2 1440.47,430.805 1440.37,427.411 1440.36,424.017 1440.43,420.622 1440.58,417.228 1440.8,413.834 1441.09,410.439 1441.45,407.045 1441.87,403.651 1442.32,400.547 1442.36,400.256 1442.92,396.862 1443.55,393.468 1444.23,390.073 1444.97,386.679 1445.71,383.503 1445.76,383.285 1446.63,379.89 1447.55,376.496 1448.52,373.102 1449.11,371.152 1449.55,369.707 1450.64,366.313 1451.77,362.919 1452.5,360.84 1452.97,359.524 1454.22,356.13 1455.52,352.735 1455.89,351.784 1456.88,349.341 1458.29,345.947 1459.29,343.609 1459.75,342.552 1461.27,339.158 1462.68,336.086 1462.83,335.764 1464.47,332.369 1466.08,329.095 1466.14,328.975 1467.88,325.581 1469.47,322.544 1469.66,322.186 1471.52,318.792 1472.87,316.362 1473.41,315.398 1475.37,312.003 1476.26,310.492 1477.39,308.609 1479.45,305.215 1479.66,304.888 1481.59,301.82 1483.05,299.548 1483.78,298.426 1486.03,295.032 1486.44,294.421 1488.35,291.637 1489.84,289.506 1490.73,288.243 1493.17,284.848 1493.23,284.762 1495.69,281.454 1496.63,280.213 1498.28,278.06 1500.02,275.814 1500.93,274.665 1503.42,271.559 1503.65,271.271 1506.46,267.877 1506.81,267.454 1509.35,264.482 1510.2,263.488 1512.32,261.088 1513.6,259.646 1515.37,257.694 1516.99,255.925 1518.51,254.299 1520.39,252.32 1521.75,250.905 1523.78,248.827 1525.09,247.511 1527.18,245.442 1528.54,244.116 1530.57,242.162 1532.1,240.722 1533.96,238.984 1535.78,237.328 1537.36,235.903 1539.59,233.933 1540.75,232.917 1543.54,230.539 1544.15,230.022 1547.54,227.219 1547.63,227.145 1550.94,224.515 1551.92,223.75 1554.33,221.897 1556.38,220.356 1557.73,219.361 1561.04,216.962 1561.12,216.904 1564.51,214.548 1565.97,213.567 1567.91,212.27 1571.13,210.173 1571.3,210.064 1574.7,207.959 1576.66,206.778 1578.09,205.925 1581.49,203.974 1582.55,203.384 1584.88,202.111 1588.27,200.32 1588.93,199.99 1591.67,198.624 1595.06,196.998 1595.95,196.595 1598.46,195.467 1601.85,194.013 1603.85,193.201 1605.25,192.643 1608.64,191.366 1612.03,190.164 1613.13,189.807 1615.43,189.061 1618.82,188.047 1622.22,187.118 1625.07,186.412 1625.61,186.281 1629.01,185.551 1632.4,184.916 1635.8,184.379 1639.19,183.946 1642.58,183.619 1645.98,183.406 1649.37,183.31 1652.77,183.337 1656.16,183.493 1659.56,183.785 1662.95,184.219 1666.34,184.803 1669.74,185.543 1673,186.412 1673.13,186.45 1676.53,187.565 1679.92,188.871 1682.04,189.807 1683.32,190.398 1686.71,192.18 1688.44,193.201 1690.1,194.237 1693.5,196.595 1693.5,196.595 1696.89,199.344 1697.62,199.99 1700.29,202.519 1701.13,203.384 1703.68,206.212 1704.16,206.778 1706.79,210.173 1707.08,210.567 1709.09,213.567 1710.47,215.814 1711.13,216.962 1712.93,220.356 1713.87,222.311 1714.52,223.75 1715.91,227.145 1717.16,230.539 1717.26,230.849 1718.22,233.933 1719.16,237.328 1719.97,240.722 1720.65,244.058 1720.67,244.116 1721.23,247.511 1721.69,250.905 1722.05,254.299 1722.32,257.694 1722.5,261.088 1722.6,264.482 1722.61,267.877 1722.54,271.271 1722.39,274.665 1722.17,278.06 1721.88,281.454 1721.52,284.848 1721.1,288.243 1720.65,291.347 1720.61,291.637 1720.05,295.032 1719.42,298.426 1718.74,301.82 1718,305.215 1717.26,308.39 1717.21,308.609 1716.34,312.003 1715.42,315.398 1714.45,318.792 1713.87,320.742 1713.42,322.186 1712.33,325.581 1711.2,328.975 1710.47,331.054 1710,332.369 1708.75,335.764 1707.45,339.158 1707.08,340.11 1706.09,342.552 1704.68,345.947 1703.68,348.284 1703.22,349.341 1701.7,352.735 1700.29,355.808 1700.14,356.13 1698.5,359.524 1696.89,362.799 1696.83,362.919 1695.09,366.313 1693.5,369.35 1693.31,369.707 1691.46,373.102 1690.1,375.532 1689.56,376.496 1687.6,379.89 1686.71,381.402 1685.58,383.285 1683.52,386.679 1683.32,387.006 1681.38,390.073 1679.92,392.345 1679.19,393.468 1676.94,396.862 1676.53,397.473 1674.62,400.256 1673.13,402.388 1672.24,403.651 1669.8,407.045 1669.74,407.131 1667.28,410.439 1666.34,411.681 1664.69,413.834 1662.95,416.08 1662.04,417.228 1659.56,420.335 1659.32,420.622 1656.52,424.017 1656.16,424.439 1653.63,427.411 1652.77,428.406 1650.66,430.805 1649.37,432.247 1647.6,434.2 1645.98,435.969 1644.46,437.594 1642.58,439.574 1641.22,440.989 1639.19,443.067 1637.88,444.383 1635.8,446.451 1634.43,447.777 1632.4,449.731 1630.87,451.172 1629.01,452.91 1627.19,454.566 1625.61,455.991 1623.38,457.96 1622.22,458.977 1619.43,461.355 1618.82,461.871 1615.43,464.675 1615.34,464.749 1612.03,467.378 1611.05,468.143 1608.64,469.996 1606.59,471.538 1605.25,472.533 1601.93,474.932 1601.85,474.989 1598.46,477.345 1597,478.326 1595.06,479.624 1591.84,481.721 1591.67,481.829 1588.27,483.935 1586.31,485.115 1584.88,485.968 1581.49,487.919 1580.42,488.509 1578.09,489.783 1574.7,491.573 1574.04,491.904 1571.3,493.27 1567.91,494.895 1567.02,495.298 1564.51,496.427 1561.12,497.881 1559.12,498.692 1557.73,499.251 1554.33,500.528 1550.94,501.729 1549.85,502.087 1547.54,502.833 1544.15,503.847 1540.75,504.776 1537.9,505.481 1537.36,505.613 1533.96,506.342 1530.57,506.978 1527.18,507.514 1523.78,507.948 "/>
<polyline clip-path="url(#clip752)" style="stroke:#0000ff; stroke-linecap:round; stroke-linejoin:round; stroke-width:4; stroke-opacity:1; fill:none" points="1038.39,506.35 1035,507.091 1031.6,507.674 1028.21,508.108 1024.81,508.4 1021.42,508.556 1018.02,508.584 1014.63,508.488 1011.24,508.274 1007.84,507.948 1004.45,507.514 1001.05,506.978 997.658,506.342 994.263,505.613 993.724,505.481 990.869,504.776 987.475,503.847 984.08,502.833 981.777,502.087 980.686,501.729 977.292,500.528 973.897,499.251 972.506,498.692 970.503,497.881 967.109,496.427 964.6,495.298 963.714,494.895 960.32,493.27 957.581,491.904 956.926,491.573 953.531,489.783 951.204,488.509 950.137,487.919 946.743,485.968 945.31,485.115 943.348,483.935 939.954,481.829 939.785,481.721 936.559,479.624 934.618,478.326 933.165,477.345 929.771,474.989 929.691,474.932 926.376,472.533 925.036,471.538 922.982,469.996 920.572,468.143 919.588,467.378 916.285,464.749 916.193,464.675 912.799,461.871 912.188,461.355 909.405,458.977 908.241,457.96 906.01,455.991 904.431,454.566 902.616,452.91 900.75,451.172 899.222,449.731 897.19,447.777 895.827,446.451 893.744,444.383 892.433,443.067 890.404,440.989 889.039,439.574 887.165,437.594 885.644,435.969 884.021,434.2 882.25,432.247 880.966,430.805 878.856,428.406 877.997,427.411 875.461,424.439 875.107,424.017 872.301,420.622 872.067,420.335 869.58,417.228 868.672,416.08 866.928,413.834 865.278,411.681 864.343,410.439 861.884,407.131 861.821,407.045 859.384,403.651 858.489,402.388 857.006,400.256 855.095,397.473 854.683,396.862 852.433,393.468 851.701,392.345 850.244,390.073 848.306,387.006 848.103,386.679 846.038,383.285 844.912,381.402 844.022,379.89 842.063,376.496 841.518,375.532 840.167,373.102 838.314,369.707 838.123,369.35 836.534,366.313 834.789,362.919 834.729,362.799 833.12,359.524 831.485,356.13 831.335,355.808 829.923,352.735 828.4,349.341 827.94,348.284 826.94,345.947 825.53,342.552 824.546,340.11 824.169,339.158 822.873,335.764 821.618,332.369 821.152,331.054 820.426,328.975 819.29,325.581 818.199,322.186 817.757,320.742 817.171,318.792 816.202,315.398 815.283,312.003 814.415,308.609 814.363,308.39 813.621,305.215 812.883,301.82 812.2,298.426 811.576,295.032 811.011,291.637 810.969,291.347 810.522,288.243 810.098,284.848 809.739,281.454 809.449,278.06 809.23,274.665 809.084,271.271 809.014,267.877 809.025,264.482 809.118,261.088 809.298,257.694 809.568,254.299 809.931,250.905 810.393,247.511 810.957,244.116 810.969,244.058 811.652,240.722 812.464,237.328 813.399,233.933 814.363,230.849 814.465,230.539 815.711,227.145 817.106,223.75 817.757,222.311 818.697,220.356 820.491,216.962 821.152,215.814 822.533,213.567 824.546,210.567 824.829,210.173 827.466,206.778 827.94,206.212 830.495,203.384 831.335,202.519 834.002,199.99 834.729,199.344 838.123,196.595 838.123,196.595 841.518,194.237 843.178,193.201 844.912,192.18 848.306,190.398 849.578,189.807 851.701,188.871 855.095,187.565 858.489,186.45 858.625,186.412 861.884,185.543 865.278,184.803 868.672,184.219 872.067,183.785 875.461,183.493 878.856,183.337 882.25,183.31 885.644,183.406 889.039,183.619 892.433,183.946 895.827,184.379 899.222,184.916 902.616,185.551 906.01,186.281 906.55,186.412 909.405,187.118 912.799,188.047 916.193,189.061 918.496,189.807 919.588,190.164 922.982,191.366 926.376,192.643 927.768,193.201 929.771,194.013 933.165,195.467 935.673,196.595 936.559,196.998 939.954,198.624 942.693,199.99 943.348,200.32 946.743,202.111 949.069,203.384 950.137,203.974 953.531,205.925 954.964,206.778 956.926,207.959 960.32,210.064 960.488,210.173 963.714,212.27 965.656,213.567 967.109,214.548 970.503,216.904 970.583,216.962 973.897,219.361 975.238,220.356 977.292,221.897 979.702,223.75 980.686,224.515 983.988,227.145 984.08,227.219 987.475,230.022 988.086,230.539 990.869,232.917 992.033,233.933 994.263,235.903 995.842,237.328 997.658,238.984 999.523,240.722 1001.05,242.162 1003.08,244.116 1004.45,245.442 1006.53,247.511 1007.84,248.827 1009.87,250.905 1011.24,252.32 1013.11,254.299 1014.63,255.925 1016.25,257.694 1018.02,259.646 1019.31,261.088 1021.42,263.488 1022.28,264.482 1024.81,267.454 1025.17,267.877 1027.97,271.271 1028.21,271.559 1030.69,274.665 1031.6,275.814 1033.35,278.06 1035,280.213 1035.93,281.454 1038.39,284.762 1038.45,284.848 1040.89,288.243 1041.78,289.506 1043.27,291.637 1045.18,294.421 1045.59,295.032 1047.84,298.426 1048.57,299.548 1050.03,301.82 1051.97,304.888 1052.17,305.215 1054.24,308.609 1055.36,310.492 1056.25,312.003 1058.21,315.398 1058.76,316.362 1060.11,318.792 1061.96,322.186 1062.15,322.544 1063.74,325.581 1065.48,328.975 1065.54,329.095 1067.15,332.369 1068.79,335.764 1068.94,336.086 1070.35,339.158 1071.87,342.552 1072.33,343.609 1073.33,345.947 1074.74,349.341 1075.73,351.784 1076.11,352.735 1077.4,356.13 1078.66,359.524 1079.12,360.84 1079.85,362.919 1080.98,366.313 1082.07,369.707 1082.52,371.152 1083.1,373.102 1084.07,376.496 1084.99,379.89 1085.86,383.285 1085.91,383.503 1086.65,386.679 1087.39,390.073 1088.07,393.468 1088.7,396.862 1089.26,400.256 1089.31,400.547 1089.75,403.651 1090.18,407.045 1090.53,410.439 1090.82,413.834 1091.04,417.228 1091.19,420.622 1091.26,424.017 1091.25,427.411 1091.16,430.805 1090.98,434.2 1090.71,437.594 1090.34,440.989 1089.88,444.383 1089.32,447.777 1089.31,447.836 1088.62,451.172 1087.81,454.566 1086.87,457.96 1085.91,461.044 1085.81,461.355 1084.56,464.749 1083.17,468.143 1082.52,469.583 1081.58,471.538 1079.78,474.932 1079.12,476.08 1077.74,478.326 1075.73,481.327 1075.44,481.721 1072.81,485.115 1072.33,485.682 1069.78,488.509 1068.94,489.375 1066.27,491.904 1065.54,492.549 1062.15,495.298 1058.76,497.657 1057.1,498.692 1055.36,499.713 1051.97,501.496 1050.7,502.087 1048.57,503.023 1045.18,504.328 1041.78,505.443 1041.65,505.481 1038.39,506.35 "/>
<circle clip-path="url(#clip752)" cx="1265.81" cy="1106.28" r="14.4" fill="#000000" fill-rule="evenodd" fill-opacity="1" stroke="none"/>
<circle clip-path="url(#clip752)" cx="1375.93" cy="631.758" r="14.4" fill="#000000" fill-rule="evenodd" fill-opacity="1" stroke="none"/>
<circle clip-path="url(#clip752)" cx="1155.69" cy="631.758" r="14.4" fill="#000000" fill-rule="evenodd" fill-opacity="1" stroke="none"/>
<circle clip-path="url(#clip752)" cx="1447.59" cy="376.299" r="14.4" fill="#000000" fill-rule="evenodd" fill-opacity="1" stroke="none"/>
<circle clip-path="url(#clip752)" cx="1084.03" cy="376.299" r="14.4" fill="#000000" fill-rule="evenodd" fill-opacity="1" stroke="none"/>
<polyline clip-path="url(#clip752)" style="stroke:#ff0000; stroke-linecap:round; stroke-linejoin:round; stroke-width:4; stroke-opacity:1; fill:none" points="1153.36,1445.72 1153.8,1444.14 1154.32,1442.32 1155.28,1438.93 1156.24,1435.53 1157.19,1432.14 1157.19,1432.12 1158.16,1428.74 1159.12,1425.35 1160.07,1421.96 1160.59,1420.1 1161.03,1418.56 1162,1415.17 1162.96,1411.77 1163.91,1408.38 1163.98,1408.11 1164.88,1404.98 1165.84,1401.59 1166.8,1398.19 1167.38,1396.12 1167.76,1394.8 1168.73,1391.41 1169.69,1388.01 1170.64,1384.62 1170.77,1384.15 1171.61,1381.22 1172.58,1377.83 1173.54,1374.43 1174.16,1372.2 1174.5,1371.04 1175.48,1367.65 1176.44,1364.25 1177.4,1360.86 1177.56,1360.27 1178.37,1357.46 1179.34,1354.07 1180.31,1350.67 1180.95,1348.36 1181.27,1347.28 1182.25,1343.89 1183.22,1340.49 1184.18,1337.1 1184.35,1336.48 1185.16,1333.7 1186.13,1330.31 1187.1,1326.91 1187.74,1324.63 1188.07,1323.52 1189.05,1320.12 1190.02,1316.73 1190.99,1313.34 1191.14,1312.8 1191.97,1309.94 1192.96,1306.55 1193.93,1303.15 1194.53,1301.01 1194.9,1299.76 1195.89,1296.36 1196.87,1292.97 1197.84,1289.58 1197.92,1289.27 1198.84,1286.18 1199.83,1282.79 1200.8,1279.39 1201.32,1277.57 1201.79,1276 1202.79,1272.6 1203.77,1269.21 1204.71,1265.92 1204.75,1265.82 1205.76,1262.42 1206.75,1259.03 1207.74,1255.63 1208.11,1254.33 1208.74,1252.24 1209.75,1248.84 1210.74,1245.45 1211.5,1242.82 1211.74,1242.05 1212.76,1238.66 1213.77,1235.27 1214.76,1231.87 1214.9,1231.4 1215.79,1228.48 1216.81,1225.08 1217.82,1221.69 1218.29,1220.07 1218.84,1218.29 1219.88,1214.9 1220.9,1211.51 1221.68,1208.86 1221.92,1208.11 1222.98,1204.72 1224.02,1201.32 1225.04,1197.93 1225.08,1197.81 1226.12,1194.53 1227.19,1191.14 1228.23,1187.75 1228.47,1186.92 1229.32,1184.35 1230.4,1180.96 1231.47,1177.56 1231.87,1176.25 1232.57,1174.17 1233.69,1170.77 1234.78,1167.38 1235.26,1165.86 1235.92,1163.98 1237.08,1160.59 1238.21,1157.2 1238.66,1155.8 1239.39,1153.8 1240.6,1150.41 1241.77,1147.01 1242.05,1146.19 1243.05,1143.62 1244.32,1140.22 1245.45,1137.13 1245.57,1136.83 1246.98,1133.44 1248.35,1130.04 1248.84,1128.77 1249.84,1126.65 1251.39,1123.25 1252.23,1121.34 1253.07,1119.86 1254.91,1116.46 1255.63,1115.09 1257.1,1113.07 1259.02,1110.32 1259.77,1109.68 1262.42,1107.3 1265.81,1106.28 1269.21,1107.3 1271.85,1109.68 1272.6,1110.32 1274.52,1113.07 1275.99,1115.09 1276.71,1116.46 1278.55,1119.86 1279.39,1121.34 1280.23,1123.25 1281.78,1126.65 1282.78,1128.77 1283.28,1130.04 1284.64,1133.44 1286.05,1136.83 1286.18,1137.13 1287.3,1140.22 1288.58,1143.62 1289.57,1146.19 1289.85,1147.01 1291.02,1150.41 1292.23,1153.8 1292.97,1155.8 1293.42,1157.2 1294.54,1160.59 1295.7,1163.98 1296.36,1165.86 1296.84,1167.38 1297.93,1170.77 1299.05,1174.17 1299.75,1176.25 1300.16,1177.56 1301.22,1180.96 1302.31,1184.35 1303.15,1186.92 1303.4,1187.75 1304.44,1191.14 1305.5,1194.53 1306.54,1197.81 1306.58,1197.93 1307.6,1201.32 1308.64,1204.72 1309.7,1208.11 1309.94,1208.86 1310.72,1211.51 1311.74,1214.9 1312.78,1218.29 1313.33,1220.07 1313.8,1221.69 1314.81,1225.08 1315.83,1228.48 1316.73,1231.4 1316.86,1231.87 1317.85,1235.27 1318.86,1238.66 1319.89,1242.05 1320.12,1242.82 1320.88,1245.45 1321.87,1248.84 1322.88,1252.24 1323.52,1254.33 1323.89,1255.63 1324.87,1259.03 1325.86,1262.42 1326.88,1265.82 1326.91,1265.92 1327.85,1269.21 1328.84,1272.6 1329.84,1276 1330.3,1277.57 1330.82,1279.39 1331.8,1282.79 1332.79,1286.18 1333.7,1289.27 1333.78,1289.58 1334.75,1292.97 1335.73,1296.36 1336.72,1299.76 1337.09,1301.01 1337.7,1303.15 1338.67,1306.55 1339.65,1309.94 1340.49,1312.8 1340.64,1313.34 1341.6,1316.73 1342.57,1320.12 1343.56,1323.52 1343.88,1324.63 1344.52,1326.91 1345.49,1330.31 1346.47,1333.7 1347.28,1336.48 1347.45,1337.1 1348.41,1340.49 1349.37,1343.89 1350.35,1347.28 1350.67,1348.36 1351.32,1350.67 1352.28,1354.07 1353.25,1357.46 1354.06,1360.27 1354.23,1360.86 1355.18,1364.25 1356.15,1367.65 1357.12,1371.04 1357.46,1372.2 1358.08,1374.43 1359.04,1377.83 1360.01,1381.22 1360.85,1384.15 1360.98,1384.62 1361.93,1388.01 1362.9,1391.41 1363.87,1394.8 1364.25,1396.12 1364.83,1398.19 1365.78,1401.59 1366.75,1404.98 1367.64,1408.11 1367.72,1408.38 1368.67,1411.77 1369.63,1415.17 1370.59,1418.56 1371.04,1420.1 1371.55,1421.96 1372.5,1425.35 1373.47,1428.74 1374.43,1432.12 1374.44,1432.14 1375.38,1435.53 1376.34,1438.93 1377.3,1442.32 1377.82,1444.14 1378.26,1445.72 "/>
<polyline clip-path="url(#clip752)" style="stroke:#ff0000; stroke-linecap:round; stroke-linejoin:round; stroke-width:4; stroke-opacity:1; fill:none" points="1528.02,87.9763 1527.18,91.0088 1527.07,91.3706 1526.12,94.765 1525.18,98.1593 1524.24,101.554 1523.78,103.193 1523.29,104.948 1522.34,108.342 1521.4,111.737 1520.45,115.131 1520.39,115.374 1519.5,118.525 1518.56,121.92 1517.61,125.314 1516.99,127.556 1516.67,128.708 1515.72,132.103 1514.77,135.497 1513.83,138.892 1513.6,139.736 1512.88,142.286 1511.94,145.68 1510.99,149.075 1510.2,151.915 1510.05,152.469 1509.1,155.863 1508.15,159.258 1507.21,162.652 1506.81,164.094 1506.26,166.046 1505.31,169.441 1504.37,172.835 1503.43,176.229 1503.42,176.269 1502.48,179.624 1501.53,183.018 1500.58,186.412 1500.02,188.446 1499.64,189.807 1498.69,193.201 1497.74,196.595 1496.8,199.99 1496.63,200.62 1495.85,203.384 1494.9,206.778 1493.96,210.173 1493.23,212.794 1493.02,213.567 1492.06,216.962 1491.12,220.356 1490.17,223.75 1489.84,224.966 1489.23,227.145 1488.28,230.539 1487.33,233.933 1486.44,237.135 1486.39,237.328 1485.44,240.722 1484.49,244.116 1483.55,247.511 1483.05,249.305 1482.6,250.905 1481.65,254.299 1480.7,257.694 1479.76,261.088 1479.66,261.471 1478.81,264.482 1477.86,267.877 1476.92,271.271 1476.26,273.637 1475.97,274.665 1475.02,278.06 1474.07,281.454 1473.13,284.848 1472.87,285.801 1472.18,288.243 1471.23,291.637 1470.28,295.032 1469.47,297.962 1469.34,298.426 1468.39,301.82 1467.44,305.215 1466.5,308.609 1466.08,310.123 1465.55,312.003 1464.6,315.398 1463.65,318.792 1462.71,322.186 1462.68,322.279 1461.76,325.581 1460.81,328.975 1459.86,332.369 1459.29,334.437 1458.92,335.764 1457.96,339.158 1457.02,342.552 1456.07,345.947 1455.89,346.59 1455.12,349.341 1454.17,352.735 1453.22,356.13 1452.5,358.741 1452.28,359.524 1451.33,362.919 1450.38,366.313 1449.43,369.707 1449.11,370.891 1448.48,373.102 1447.53,376.496 1446.58,379.89 1445.71,383.035 1445.64,383.285 1444.69,386.679 1443.74,390.073 1442.79,393.468 1442.32,395.18 1441.84,396.862 1440.89,400.256 1439.94,403.651 1439,407.045 1438.92,407.319 1438.04,410.439 1437.09,413.834 1436.15,417.228 1435.53,419.458 1435.2,420.622 1434.24,424.017 1433.3,427.411 1432.35,430.805 1432.13,431.592 1431.4,434.2 1430.45,437.594 1429.5,440.989 1428.74,443.722 1428.55,444.383 1427.6,447.777 1426.65,451.172 1425.7,454.566 1425.35,455.85 1424.75,457.96 1423.79,461.355 1422.85,464.749 1421.95,467.971 1421.9,468.143 1420.94,471.538 1419.99,474.932 1419.05,478.326 1418.56,480.091 1418.1,481.721 1417.14,485.115 1416.19,488.509 1415.25,491.904 1415.16,492.204 1414.29,495.298 1413.33,498.692 1412.39,502.087 1411.77,504.315 1411.44,505.481 1410.48,508.875 1409.53,512.27 1408.58,515.664 1408.37,516.418 1407.63,519.059 1406.67,522.453 1405.72,525.847 1404.98,528.517 1404.77,529.242 1403.81,532.636 1402.86,536.03 1401.91,539.425 1401.59,540.61 1400.96,542.819 1400,546.213 1399.05,549.608 1398.19,552.695 1398.1,553.002 1397.14,556.396 1396.19,559.791 1395.24,563.185 1394.8,564.777 1394.28,566.579 1393.32,569.974 1392.37,573.368 1391.43,576.762 1391.4,576.846 1390.46,580.157 1389.5,583.551 1388.55,586.946 1388.01,588.913 1387.6,590.34 1386.64,593.734 1385.68,597.129 1384.74,600.523 1384.61,600.967 1383.77,603.917 1382.81,607.312 1381.86,610.706 1381.22,613.014 1380.91,614.1 1379.94,617.495 1378.99,620.889 1378.04,624.283 1377.82,625.049 1377.07,627.678 1376.11,631.072 1375.16,634.466 1374.43,637.074 1374.2,637.861 1373.24,641.255 1372.28,644.649 1371.33,648.044 1371.04,649.087 1370.36,651.438 1369.4,654.832 1368.44,658.227 1367.64,661.085 1367.49,661.621 1366.52,665.016 1365.55,668.41 1364.6,671.804 1364.25,673.071 1363.63,675.199 1362.67,678.593 1361.71,681.987 1360.85,685.036 1360.75,685.382 1359.78,688.776 1358.81,692.17 1357.86,695.565 1357.46,696.989 1356.89,698.959 1355.92,702.353 1354.95,705.748 1354.06,708.916 1354,709.142 1353.02,712.536 1352.05,715.931 1351.09,719.325 1350.67,720.827 1350.12,722.719 1349.14,726.114 1348.18,729.508 1347.28,732.707 1347.22,732.902 1346.23,736.297 1345.26,739.691 1344.3,743.086 1343.88,744.565 1343.32,746.48 1342.34,749.874 1341.37,753.269 1340.49,756.386 1340.4,756.663 1339.41,760.057 1338.43,763.452 1337.47,766.846 1337.09,768.177 1336.48,770.24 1335.5,773.635 1334.52,777.029 1333.7,779.922 1333.55,780.423 1332.55,783.818 1331.56,787.212 1330.59,790.606 1330.3,791.624 1329.6,794.001 1328.6,797.395 1327.62,800.789 1326.91,803.271 1326.63,804.184 1325.63,807.578 1324.63,810.973 1323.65,814.367 1323.52,814.854 1322.64,817.761 1321.63,821.156 1320.64,824.55 1320.12,826.37 1319.64,827.944 1318.62,831.339 1317.62,834.733 1316.73,837.793 1316.62,838.127 1315.59,841.522 1314.57,844.916 1313.57,848.31 1313.33,849.122 1312.53,851.705 1311.49,855.099 1310.48,858.493 1309.94,860.33 1309.44,861.888 1308.39,865.282 1307.35,868.676 1306.54,871.388 1306.32,872.071 1305.24,875.465 1304.19,878.859 1303.15,882.254 1303.15,882.265 1302.05,885.648 1300.96,889.043 1299.91,892.437 1299.75,892.935 1298.78,895.831 1297.67,899.226 1296.58,902.62 1296.36,903.33 1295.43,906.014 1294.27,909.409 1293.15,912.803 1292.97,913.382 1291.94,916.197 1290.74,919.592 1289.57,922.986 1289.57,922.995 1288.27,926.38 1287.01,929.775 1286.18,932.071 1285.71,933.169 1284.31,936.563 1282.96,939.958 1282.78,940.414 1281.4,943.352 1279.87,946.746 1279.39,947.848 1278.11,950.141 1276.28,953.535 1275.99,954.091 1273.95,956.93 1272.6,958.877 1270.93,960.324 1269.21,961.895 1265.81,962.924 1262.42,961.895 1260.69,960.324 1259.02,958.877 1257.68,956.93 1255.63,954.091 1255.34,953.535 1253.52,950.141 1252.23,947.848 1251.75,946.746 1250.22,943.352 1248.84,940.414 1248.66,939.958 1247.31,936.563 1245.91,933.169 1245.45,932.071 1244.62,929.775 1243.35,926.38 1242.05,922.995 1242.05,922.986 1240.88,919.592 1239.68,916.197 1238.66,913.382 1238.47,912.803 1237.35,909.409 1236.2,906.014 1235.26,903.33 1235.04,902.62 1233.95,899.226 1232.84,895.831 1231.87,892.935 1231.72,892.437 1230.66,889.043 1229.58,885.648 1228.47,882.265 1228.47,882.254 1227.44,878.859 1226.38,875.465 1225.3,872.071 1225.08,871.388 1224.27,868.676 1223.23,865.282 1222.18,861.888 1221.68,860.33 1221.15,858.493 1220.13,855.099 1219.09,851.705 1218.29,849.122 1218.06,848.31 1217.05,844.916 1216.04,841.522 1215,838.127 1214.9,837.793 1214.01,834.733 1213,831.339 1211.98,827.944 1211.5,826.37 1210.98,824.55 1209.99,821.156 1208.98,817.761 1208.11,814.854 1207.97,814.367 1206.99,810.973 1206,807.578 1204.99,804.184 1204.71,803.271 1204.01,800.789 1203.02,797.395 1202.03,794.001 1201.32,791.624 1201.03,790.606 1200.06,787.212 1199.07,783.818 1198.07,780.423 1197.92,779.922 1197.1,777.029 1196.13,773.635 1195.14,770.24 1194.53,768.177 1194.16,766.846 1193.19,763.452 1192.21,760.057 1191.22,756.663 1191.14,756.386 1190.25,753.269 1189.28,749.874 1188.3,746.48 1187.74,744.565 1187.33,743.086 1186.36,739.691 1185.39,736.297 1184.4,732.902 1184.35,732.707 1183.45,729.508 1182.48,726.114 1181.5,722.719 1180.95,720.827 1180.53,719.325 1179.57,715.931 1178.6,712.536 1177.62,709.142 1177.56,708.916 1176.67,705.748 1175.71,702.353 1174.73,698.959 1174.16,696.989 1173.77,695.565 1172.81,692.17 1171.84,688.776 1170.87,685.382 1170.77,685.036 1169.92,681.987 1168.96,678.593 1167.99,675.199 1167.38,673.071 1167.02,671.804 1166.07,668.41 1165.11,665.016 1164.14,661.621 1163.98,661.085 1163.18,658.227 1162.23,654.832 1161.26,651.438 1160.59,649.087 1160.3,648.044 1159.35,644.649 1158.39,641.255 1157.42,637.861 1157.19,637.074 1156.47,634.466 1155.51,631.072 1154.55,627.678 1153.8,625.049 1153.59,624.283 1152.64,620.889 1151.68,617.495 1150.71,614.1 1150.4,613.014 1149.76,610.706 1148.81,607.312 1147.85,603.917 1147.01,600.967 1146.89,600.523 1145.94,597.129 1144.98,593.734 1144.02,590.34 1143.61,588.913 1143.07,586.946 1142.12,583.551 1141.16,580.157 1140.22,576.846 1140.2,576.762 1139.25,573.368 1138.3,569.974 1137.34,566.579 1136.83,564.777 1136.38,563.185 1135.44,559.791 1134.48,556.396 1133.52,553.002 1133.43,552.695 1132.57,549.608 1131.62,546.213 1130.66,542.819 1130.04,540.61 1129.71,539.425 1128.76,536.03 1127.81,532.636 1126.85,529.242 1126.64,528.517 1125.9,525.847 1124.95,522.453 1124,519.059 1123.25,516.418 1123.04,515.664 1122.09,512.27 1121.14,508.875 1120.19,505.481 1119.85,504.315 1119.24,502.087 1118.29,498.692 1117.33,495.298 1116.46,492.204 1116.38,491.904 1115.43,488.509 1114.48,485.115 1113.53,481.721 1113.07,480.091 1112.58,478.326 1111.63,474.932 1110.68,471.538 1109.72,468.143 1109.67,467.971 1108.78,464.749 1107.83,461.355 1106.87,457.96 1106.28,455.85 1105.92,454.566 1104.98,451.172 1104.03,447.777 1103.07,444.383 1102.88,443.722 1102.12,440.989 1101.18,437.594 1100.22,434.2 1099.49,431.592 1099.27,430.805 1098.33,427.411 1097.38,424.017 1096.42,420.622 1096.09,419.458 1095.48,417.228 1094.53,413.834 1093.58,410.439 1092.7,407.319 1092.62,407.045 1091.68,403.651 1090.73,400.256 1089.78,396.862 1089.31,395.18 1088.83,393.468 1087.89,390.073 1086.94,386.679 1085.98,383.285 1085.91,383.035 1085.04,379.89 1084.09,376.496 1083.14,373.102 1082.52,370.891 1082.19,369.707 1081.25,366.313 1080.3,362.919 1079.34,359.524 1079.12,358.741 1078.4,356.13 1077.45,352.735 1076.5,349.341 1075.73,346.59 1075.55,345.947 1074.61,342.552 1073.66,339.158 1072.71,335.764 1072.33,334.437 1071.76,332.369 1070.82,328.975 1069.87,325.581 1068.94,322.279 1068.91,322.186 1067.97,318.792 1067.02,315.398 1066.07,312.003 1065.54,310.123 1065.13,308.609 1064.18,305.215 1063.23,301.82 1062.28,298.426 1062.15,297.962 1061.34,295.032 1060.39,291.637 1059.44,288.243 1058.76,285.801 1058.49,284.848 1057.55,281.454 1056.6,278.06 1055.65,274.665 1055.36,273.637 1054.71,271.271 1053.76,267.877 1052.81,264.482 1051.97,261.471 1051.86,261.088 1050.92,257.694 1049.97,254.299 1049.02,250.905 1048.57,249.305 1048.08,247.511 1047.13,244.116 1046.18,240.722 1045.23,237.328 1045.18,237.135 1044.29,233.933 1043.35,230.539 1042.4,227.145 1041.78,224.966 1041.45,223.75 1040.51,220.356 1039.56,216.962 1038.61,213.567 1038.39,212.794 1037.66,210.173 1036.72,206.778 1035.77,203.384 1035,200.62 1034.82,199.99 1033.88,196.595 1032.93,193.201 1031.98,189.807 1031.6,188.446 1031.04,186.412 1030.09,183.018 1029.15,179.624 1028.21,176.269 1028.2,176.229 1027.25,172.835 1026.31,169.441 1025.36,166.046 1024.81,164.094 1024.41,162.652 1023.47,159.258 1022.52,155.863 1021.57,152.469 1021.42,151.915 1020.63,149.075 1019.69,145.68 1018.74,142.286 1018.02,139.736 1017.79,138.892 1016.85,135.497 1015.9,132.103 1014.95,128.708 1014.63,127.556 1014.01,125.314 1013.06,121.92 1012.12,118.525 1011.24,115.374 1011.17,115.131 1010.23,111.737 1009.28,108.342 1008.33,104.948 1007.84,103.193 1007.39,101.554 1006.44,98.1593 1005.5,94.765 1004.55,91.3706 1004.45,91.0088 1003.61,87.9763 "/>
<path clip-path="url(#clip750)" d="M499.666 1412.83 Q500.088 1413.25 500.088 1413.85 Q500.088 1414.45 499.666 1414.87 Q499.244 1415.29 498.647 1415.29 L453.606 1415.29 Q453.009 1415.29 452.587 1414.87 Q452.165 1414.45 452.165 1413.85 Q452.165 1413.25 452.587 1412.83 Q453.009 1412.41 453.606 1412.41 L498.647 1412.41 Q499.244 1412.41 499.666 1412.83 Z" fill="#000000" fill-rule="nonzero" fill-opacity="1" /><path clip-path="url(#clip750)" d="M507.598 1408.83 Q507.598 1398.25 510.268 1392.49 Q513.992 1383.92 522.776 1383.92 Q524.638 1383.92 526.57 1384.44 Q528.538 1384.94 530.997 1386.87 Q533.492 1388.8 535.002 1391.96 Q537.883 1398.08 537.883 1408.83 Q537.883 1419.33 535.213 1425.06 Q531.313 1433.42 522.705 1433.42 Q519.473 1433.42 516.171 1431.77 Q512.903 1430.12 510.83 1426.15 Q507.598 1420.21 507.598 1408.83 M513.571 1407.95 Q513.571 1418.8 514.344 1423.13 Q515.222 1427.8 517.611 1429.84 Q520.035 1431.84 522.705 1431.84 Q525.586 1431.84 527.976 1429.7 Q530.4 1427.52 531.138 1422.85 Q531.946 1418.24 531.911 1407.95 Q531.911 1397.94 531.208 1393.93 Q530.259 1389.26 527.73 1387.4 Q525.235 1385.5 522.705 1385.5 Q521.757 1385.5 520.738 1385.78 Q519.754 1386.06 518.314 1386.87 Q516.873 1387.68 515.749 1389.68 Q514.66 1391.68 514.133 1394.7 Q513.571 1398.6 513.571 1407.95 Z" fill="#000000" fill-rule="nonzero" fill-opacity="1" /><path clip-path="url(#clip750)" d="M544.32 1430.68 Q543.231 1429.52 543.231 1428.01 Q543.231 1426.5 544.32 1425.41 Q545.409 1424.29 547.06 1424.29 Q548.641 1424.29 549.695 1425.34 Q550.785 1426.36 550.785 1428.05 Q550.785 1429.7 549.625 1430.79 Q548.501 1431.84 547.06 1431.84 Q545.409 1431.84 544.32 1430.68 Z" fill="#000000" fill-rule="nonzero" fill-opacity="1" /><path clip-path="url(#clip750)" d="M563.031 1431.84 Q563.031 1430.54 563.136 1430.15 Q563.277 1429.77 563.839 1429.17 L577.646 1413.78 Q585.2 1405.28 585.2 1397.87 Q585.2 1393.05 582.67 1389.61 Q580.176 1386.17 575.573 1386.17 Q572.411 1386.17 569.741 1388.1 Q567.071 1390.03 565.841 1393.47 Q566.052 1393.4 566.79 1393.4 Q568.582 1393.4 569.566 1394.53 Q570.584 1395.65 570.584 1397.16 Q570.584 1399.09 569.32 1400.04 Q568.09 1400.96 566.86 1400.96 Q566.368 1400.96 565.701 1400.85 Q565.068 1400.75 564.05 1399.76 Q563.031 1398.74 563.031 1396.95 Q563.031 1391.93 566.825 1387.92 Q570.655 1383.92 576.487 1383.92 Q583.092 1383.92 587.413 1387.85 Q591.77 1391.75 591.77 1397.87 Q591.77 1400.01 591.102 1401.98 Q590.47 1403.91 589.592 1405.42 Q588.749 1406.93 586.43 1409.35 Q584.111 1411.78 582.249 1413.5 Q580.387 1415.22 576.206 1418.88 L568.582 1426.29 L581.546 1426.29 Q587.87 1426.29 588.362 1425.73 Q589.065 1424.71 589.943 1419.33 L591.77 1419.33 L589.732 1431.84 L563.031 1431.84 Z" fill="#000000" fill-rule="nonzero" fill-opacity="1" /><path clip-path="url(#clip750)" d="M598.951 1431.84 Q598.951 1430.54 599.057 1430.15 Q599.197 1429.77 599.76 1429.17 L613.567 1413.78 Q621.121 1405.28 621.121 1397.87 Q621.121 1393.05 618.591 1389.61 Q616.097 1386.17 611.494 1386.17 Q608.332 1386.17 605.662 1388.1 Q602.992 1390.03 601.762 1393.47 Q601.973 1393.4 602.711 1393.4 Q604.503 1393.4 605.486 1394.53 Q606.505 1395.65 606.505 1397.16 Q606.505 1399.09 605.24 1400.04 Q604.011 1400.96 602.781 1400.96 Q602.289 1400.96 601.622 1400.85 Q600.989 1400.75 599.97 1399.76 Q598.951 1398.74 598.951 1396.95 Q598.951 1391.93 602.746 1387.92 Q606.576 1383.92 612.408 1383.92 Q619.013 1383.92 623.334 1387.85 Q627.691 1391.75 627.691 1397.87 Q627.691 1400.01 627.023 1401.98 Q626.391 1403.91 625.513 1405.42 Q624.669 1406.93 622.351 1409.35 Q620.032 1411.78 618.17 1413.5 Q616.308 1415.22 612.127 1418.88 L604.503 1426.29 L617.467 1426.29 Q623.791 1426.29 624.283 1425.73 Q624.986 1424.71 625.864 1419.33 L627.691 1419.33 L625.653 1431.84 L598.951 1431.84 Z" fill="#000000" fill-rule="nonzero" fill-opacity="1" /><path clip-path="url(#clip750)" d="M627.807 1419.96 L627.807 1417.75 L649.906 1383.99 Q650.469 1383.11 651.347 1383.14 Q652.155 1383.14 652.331 1383.46 Q652.506 1383.78 652.506 1385.01 L652.506 1417.75 L659.709 1417.75 L659.709 1419.96 L652.506 1419.96 L652.506 1426.22 Q652.506 1428.29 653.349 1428.96 Q654.228 1429.63 657.952 1429.63 L659.463 1429.63 L659.463 1431.84 Q656.512 1431.63 649.696 1431.63 Q642.915 1431.63 639.964 1431.84 L639.964 1429.63 L641.474 1429.63 Q645.198 1429.63 646.077 1428.99 Q646.955 1428.33 646.955 1426.22 L646.955 1419.96 L627.807 1419.96 M629.845 1417.75 L647.377 1417.75 L647.377 1390.91 L629.845 1417.75 Z" fill="#000000" fill-rule="nonzero" fill-opacity="1" /><path clip-path="url(#clip750)" d="M699.276 1404.79 Q699.276 1406.75 698.047 1407.88 Q696.817 1408.97 695.412 1408.97 Q694.077 1408.97 693.374 1408.19 Q692.671 1407.42 692.671 1406.44 Q692.671 1405.1 693.655 1403.94 Q694.639 1402.78 696.114 1402.54 Q694.674 1401.62 692.531 1401.62 Q691.125 1401.62 689.896 1402.36 Q688.701 1403.1 687.963 1404.05 Q687.261 1405 686.628 1406.37 Q686.031 1407.7 685.785 1408.51 Q685.574 1409.28 685.399 1410.13 L682.939 1419.96 Q681.745 1424.64 681.745 1426.29 Q681.745 1428.33 682.729 1429.7 Q683.712 1431.03 685.68 1431.03 Q686.453 1431.03 687.331 1430.82 Q688.209 1430.57 689.334 1429.94 Q690.493 1429.27 691.512 1428.29 Q692.566 1427.27 693.585 1425.55 Q694.604 1423.83 695.271 1421.62 Q695.482 1420.84 696.185 1420.84 Q697.063 1420.84 697.063 1421.55 Q697.063 1422.14 696.571 1423.41 Q696.114 1424.64 695.096 1426.25 Q694.112 1427.83 692.812 1429.27 Q691.512 1430.68 689.58 1431.66 Q687.647 1432.65 685.539 1432.65 Q682.518 1432.65 680.515 1431.03 Q678.512 1429.42 677.775 1427.17 Q677.599 1427.48 677.353 1427.9 Q677.107 1428.33 676.369 1429.27 Q675.667 1430.19 674.859 1430.89 Q674.05 1431.56 672.786 1432.09 Q671.556 1432.65 670.221 1432.65 Q668.535 1432.65 667.024 1432.16 Q665.548 1431.66 664.494 1430.54 Q663.44 1429.42 663.44 1427.87 Q663.44 1426.15 664.6 1424.95 Q665.794 1423.72 667.41 1423.72 Q668.429 1423.72 669.237 1424.32 Q670.08 1424.92 670.08 1426.22 Q670.08 1427.66 669.097 1428.75 Q668.113 1429.84 666.708 1430.12 Q668.148 1431.03 670.291 1431.03 Q672.61 1431.03 674.437 1428.99 Q676.264 1426.96 677.142 1423.55 Q679.321 1415.36 680.164 1411.71 Q681.007 1408.02 681.007 1406.44 Q681.007 1404.96 680.62 1403.94 Q680.234 1402.92 679.566 1402.47 Q678.934 1401.98 678.337 1401.8 Q677.775 1401.62 677.142 1401.62 Q676.088 1401.62 674.894 1402.05 Q673.734 1402.47 672.329 1403.45 Q670.959 1404.4 669.659 1406.37 Q668.359 1408.34 667.48 1411.04 Q667.305 1411.85 666.532 1411.85 Q665.689 1411.81 665.689 1411.11 Q665.689 1410.51 666.145 1409.28 Q666.637 1408.02 667.621 1406.44 Q668.64 1404.86 669.94 1403.45 Q671.275 1402.01 673.207 1401.03 Q675.175 1400.04 677.283 1400.04 Q678.231 1400.04 679.145 1400.25 Q680.093 1400.43 681.218 1400.96 Q682.377 1401.48 683.396 1402.64 Q684.415 1403.8 685.047 1405.49 Q685.469 1404.68 686.031 1403.91 Q686.628 1403.14 687.542 1402.19 Q688.49 1401.2 689.79 1400.64 Q691.125 1400.04 692.601 1400.04 Q694.042 1400.04 695.447 1400.43 Q696.852 1400.78 698.047 1401.94 Q699.276 1403.07 699.276 1404.79 Z" fill="#000000" fill-rule="nonzero" fill-opacity="1" /><path clip-path="url(#clip750)" d="M706.604 1410.32 Q706.604 1409.41 706.678 1409.14 Q706.777 1408.87 707.17 1408.45 L716.835 1397.68 Q722.123 1391.73 722.123 1386.54 Q722.123 1383.17 720.352 1380.76 Q718.606 1378.35 715.384 1378.35 Q713.171 1378.35 711.302 1379.7 Q709.433 1381.06 708.572 1383.47 Q708.72 1383.42 709.236 1383.42 Q710.49 1383.42 711.179 1384.21 Q711.892 1384.99 711.892 1386.05 Q711.892 1387.4 711.007 1388.07 Q710.146 1388.71 709.285 1388.71 Q708.941 1388.71 708.474 1388.63 Q708.031 1388.56 707.318 1387.87 Q706.604 1387.16 706.604 1385.9 Q706.604 1382.39 709.261 1379.58 Q711.941 1376.78 716.024 1376.78 Q720.647 1376.78 723.672 1379.53 Q726.722 1382.26 726.722 1386.54 Q726.722 1388.04 726.255 1389.42 Q725.812 1390.77 725.197 1391.83 Q724.607 1392.89 722.984 1394.58 Q721.361 1396.28 720.057 1397.49 Q718.754 1398.69 715.827 1401.25 L710.49 1406.44 L719.565 1406.44 Q723.992 1406.44 724.336 1406.04 Q724.828 1405.33 725.443 1401.57 L726.722 1401.57 L725.296 1410.32 L706.604 1410.32 Z" fill="#000000" fill-rule="nonzero" fill-opacity="1" /><path clip-path="url(#clip750)" d="M755.815 1414.73 Q754.163 1414.73 754.163 1413.85 Q754.163 1412.97 755.885 1412.97 Q756.096 1412.97 756.447 1413.01 Q756.833 1413.04 756.904 1413.04 L777.176 1413.04 L777.176 1392.7 Q777.176 1392.63 777.141 1392.31 Q777.106 1391.96 777.106 1391.75 Q777.106 1390.03 777.949 1390.03 Q778.827 1390.03 778.827 1391.75 L778.827 1413.04 L799.134 1413.04 Q799.205 1413.04 799.556 1413.01 Q799.907 1412.97 800.118 1412.97 Q801.769 1412.97 801.769 1413.85 Q801.805 1414.73 800.048 1414.73 Q799.837 1414.73 799.521 1414.69 Q799.205 1414.66 799.134 1414.66 L778.827 1414.66 L778.827 1436.02 Q778.827 1437.67 777.949 1437.67 Q777.106 1437.67 777.106 1435.95 Q777.106 1435.74 777.141 1435.39 Q777.176 1435.07 777.176 1435 L777.176 1414.66 L756.904 1414.66 Q756.833 1414.66 756.412 1414.69 Q756.025 1414.73 755.815 1414.73 Z" fill="#000000" fill-rule="nonzero" fill-opacity="1" /><path clip-path="url(#clip750)" d="M829.558 1408.83 Q829.558 1398.25 832.228 1392.49 Q835.952 1383.92 844.735 1383.92 Q846.597 1383.92 848.53 1384.44 Q850.497 1384.94 852.957 1386.87 Q855.451 1388.8 856.962 1391.96 Q859.843 1398.08 859.843 1408.83 Q859.843 1419.33 857.173 1425.06 Q853.273 1433.42 844.665 1433.42 Q841.433 1433.42 838.13 1431.77 Q834.863 1430.12 832.79 1426.15 Q829.558 1420.21 829.558 1408.83 M835.53 1407.95 Q835.53 1418.8 836.303 1423.13 Q837.182 1427.8 839.571 1429.84 Q841.995 1431.84 844.665 1431.84 Q847.546 1431.84 849.935 1429.7 Q852.359 1427.52 853.097 1422.85 Q853.905 1418.24 853.87 1407.95 Q853.87 1397.94 853.167 1393.93 Q852.219 1389.26 849.689 1387.4 Q847.195 1385.5 844.665 1385.5 Q843.716 1385.5 842.698 1385.78 Q841.714 1386.06 840.273 1386.87 Q838.833 1387.68 837.709 1389.68 Q836.619 1391.68 836.092 1394.7 Q835.53 1398.6 835.53 1407.95 Z" fill="#000000" fill-rule="nonzero" fill-opacity="1" /><path clip-path="url(#clip750)" d="M866.28 1430.68 Q865.19 1429.52 865.19 1428.01 Q865.19 1426.5 866.28 1425.41 Q867.369 1424.29 869.02 1424.29 Q870.601 1424.29 871.655 1425.34 Q872.744 1426.36 872.744 1428.05 Q872.744 1429.7 871.585 1430.79 Q870.46 1431.84 869.02 1431.84 Q867.369 1431.84 866.28 1430.68 Z" fill="#000000" fill-rule="nonzero" fill-opacity="1" /><path clip-path="url(#clip750)" d="M884.99 1408.83 Q884.99 1398.25 887.66 1392.49 Q891.385 1383.92 900.168 1383.92 Q902.03 1383.92 903.962 1384.44 Q905.93 1384.94 908.389 1386.87 Q910.884 1388.8 912.395 1391.96 Q915.275 1398.08 915.275 1408.83 Q915.275 1419.33 912.605 1425.06 Q908.705 1433.42 900.098 1433.42 Q896.865 1433.42 893.563 1431.77 Q890.295 1430.12 888.223 1426.15 Q884.99 1420.21 884.99 1408.83 M890.963 1407.95 Q890.963 1418.8 891.736 1423.13 Q892.614 1427.8 895.003 1429.84 Q897.428 1431.84 900.098 1431.84 Q902.979 1431.84 905.368 1429.7 Q907.792 1427.52 908.53 1422.85 Q909.338 1418.24 909.303 1407.95 Q909.303 1397.94 908.6 1393.93 Q907.651 1389.26 905.122 1387.4 Q902.627 1385.5 900.098 1385.5 Q899.149 1385.5 898.13 1385.78 Q897.146 1386.06 895.706 1386.87 Q894.266 1387.68 893.141 1389.68 Q892.052 1391.68 891.525 1394.7 Q890.963 1398.6 890.963 1407.95 Z" fill="#000000" fill-rule="nonzero" fill-opacity="1" /><path clip-path="url(#clip750)" d="M955.307 1404.79 Q955.307 1406.75 954.078 1407.88 Q952.848 1408.97 951.443 1408.97 Q950.108 1408.97 949.405 1408.19 Q948.702 1407.42 948.702 1406.44 Q948.702 1405.1 949.686 1403.94 Q950.67 1402.78 952.145 1402.54 Q950.705 1401.62 948.562 1401.62 Q947.156 1401.62 945.927 1402.36 Q944.732 1403.1 943.994 1404.05 Q943.292 1405 942.659 1406.37 Q942.062 1407.7 941.816 1408.51 Q941.605 1409.28 941.43 1410.13 L938.97 1419.96 Q937.776 1424.64 937.776 1426.29 Q937.776 1428.33 938.759 1429.7 Q939.743 1431.03 941.711 1431.03 Q942.484 1431.03 943.362 1430.82 Q944.24 1430.57 945.365 1429.94 Q946.524 1429.27 947.543 1428.29 Q948.597 1427.27 949.616 1425.55 Q950.635 1423.83 951.302 1421.62 Q951.513 1420.84 952.216 1420.84 Q953.094 1420.84 953.094 1421.55 Q953.094 1422.14 952.602 1423.41 Q952.145 1424.64 951.126 1426.25 Q950.143 1427.83 948.843 1429.27 Q947.543 1430.68 945.611 1431.66 Q943.678 1432.65 941.57 1432.65 Q938.549 1432.65 936.546 1431.03 Q934.543 1429.42 933.806 1427.17 Q933.63 1427.48 933.384 1427.9 Q933.138 1428.33 932.4 1429.27 Q931.698 1430.19 930.889 1430.89 Q930.081 1431.56 928.817 1432.09 Q927.587 1432.65 926.252 1432.65 Q924.565 1432.65 923.055 1432.16 Q921.579 1431.66 920.525 1430.54 Q919.471 1429.42 919.471 1427.87 Q919.471 1426.15 920.63 1424.95 Q921.825 1423.72 923.441 1423.72 Q924.46 1423.72 925.268 1424.32 Q926.111 1424.92 926.111 1426.22 Q926.111 1427.66 925.128 1428.75 Q924.144 1429.84 922.738 1430.12 Q924.179 1431.03 926.322 1431.03 Q928.641 1431.03 930.468 1428.99 Q932.295 1426.96 933.173 1423.55 Q935.351 1415.36 936.195 1411.71 Q937.038 1408.02 937.038 1406.44 Q937.038 1404.96 936.651 1403.94 Q936.265 1402.92 935.597 1402.47 Q934.965 1401.98 934.368 1401.8 Q933.806 1401.62 933.173 1401.62 Q932.119 1401.62 930.925 1402.05 Q929.765 1402.47 928.36 1403.45 Q926.99 1404.4 925.69 1406.37 Q924.39 1408.34 923.511 1411.04 Q923.336 1411.85 922.563 1411.85 Q921.72 1411.81 921.72 1411.11 Q921.72 1410.51 922.176 1409.28 Q922.668 1408.02 923.652 1406.44 Q924.671 1404.86 925.971 1403.45 Q927.306 1402.01 929.238 1401.03 Q931.206 1400.04 933.314 1400.04 Q934.262 1400.04 935.176 1400.25 Q936.124 1400.43 937.249 1400.96 Q938.408 1401.48 939.427 1402.64 Q940.446 1403.8 941.078 1405.49 Q941.5 1404.68 942.062 1403.91 Q942.659 1403.14 943.573 1402.19 Q944.521 1401.2 945.821 1400.64 Q947.156 1400.04 948.632 1400.04 Q950.072 1400.04 951.478 1400.43 Q952.883 1400.78 954.078 1401.94 Q955.307 1403.07 955.307 1404.79 Z" fill="#000000" fill-rule="nonzero" fill-opacity="1" /><path clip-path="url(#clip750)" d="M992.556 1402.78 Q992.556 1403.28 992.24 1404.44 L985.354 1431.91 Q983.843 1438.02 978.925 1442.31 Q974.041 1446.6 968.49 1446.6 Q965.152 1446.6 963.009 1444.8 Q960.866 1443.05 960.866 1440.34 Q960.866 1437.95 962.131 1436.79 Q963.395 1435.67 964.906 1435.67 Q965.398 1435.67 965.925 1435.81 Q966.452 1435.95 967.014 1436.55 Q967.576 1437.14 967.576 1438.16 Q967.576 1439.81 966.136 1441.11 Q965.433 1441.71 964.766 1441.85 Q964.133 1441.99 963.044 1441.99 Q963.466 1442.98 964.239 1443.64 Q965.012 1444.31 965.89 1444.56 Q966.768 1444.84 967.33 1444.91 Q967.928 1445.01 968.49 1445.01 Q972.987 1445.01 976.43 1440.48 Q977.449 1439.11 978.187 1437.74 Q978.96 1436.41 979.522 1434.76 Q980.084 1433.14 980.33 1432.26 Q980.611 1431.38 981.103 1429.38 Q977.835 1432.65 973.83 1432.65 Q972.144 1432.65 970.633 1432.19 Q969.157 1431.73 967.857 1430.79 Q966.558 1429.8 965.785 1428.08 Q965.047 1426.36 965.047 1424.08 Q965.047 1421.65 965.995 1418.35 Q966.944 1415.05 969.228 1408.97 Q970.457 1405.56 970.457 1403.91 Q970.457 1403.1 970.282 1402.61 Q970.106 1402.08 969.755 1401.91 Q969.403 1401.69 969.193 1401.66 Q969.017 1401.62 968.666 1401.62 Q966.593 1401.62 964.66 1403.73 Q962.728 1405.84 961.393 1410.55 Q961.112 1411.43 960.936 1411.64 Q960.76 1411.85 960.233 1411.85 Q959.355 1411.81 959.355 1411.11 Q959.355 1410.83 959.671 1409.74 Q959.988 1408.62 960.725 1406.96 Q961.498 1405.28 962.552 1403.77 Q963.606 1402.22 965.258 1401.13 Q966.944 1400.04 968.876 1400.04 Q971.511 1400.04 973.128 1401.77 Q974.779 1403.45 974.779 1405.95 Q974.779 1406.96 974.498 1407.88 Q974.252 1408.76 973.338 1411.11 Q969.649 1420.6 969.649 1425.23 Q969.649 1426.36 969.825 1427.31 Q970.036 1428.22 970.492 1429.13 Q970.949 1430.01 971.863 1430.54 Q972.811 1431.03 974.111 1431.03 Q975.763 1431.03 977.308 1430.26 Q978.889 1429.45 979.873 1428.36 Q980.892 1427.27 981.489 1426.36 Q982.122 1425.41 982.262 1424.92 L985.495 1411.99 L986.935 1406.23 Q987.603 1403.1 987.919 1402.33 Q988.34 1401.59 989.078 1401.2 Q989.816 1400.82 990.448 1400.82 Q991.327 1400.82 991.924 1401.34 Q992.556 1401.87 992.556 1402.78 Z" fill="#000000" fill-rule="nonzero" fill-opacity="1" /><path clip-path="url(#clip750)" d="M1015.87 1414.73 Q1014.22 1414.73 1014.22 1413.85 Q1014.22 1412.97 1015.94 1412.97 Q1016.15 1412.97 1016.5 1413.01 Q1016.89 1413.04 1016.96 1413.04 L1037.23 1413.04 L1037.23 1392.7 Q1037.23 1392.63 1037.2 1392.31 Q1037.16 1391.96 1037.16 1391.75 Q1037.16 1390.03 1038 1390.03 Q1038.88 1390.03 1038.88 1391.75 L1038.88 1413.04 L1059.19 1413.04 Q1059.26 1413.04 1059.61 1413.01 Q1059.96 1412.97 1060.17 1412.97 Q1061.82 1412.97 1061.82 1413.85 Q1061.86 1414.73 1060.1 1414.73 Q1059.89 1414.73 1059.58 1414.69 Q1059.26 1414.66 1059.19 1414.66 L1038.88 1414.66 L1038.88 1436.02 Q1038.88 1437.67 1038 1437.67 Q1037.16 1437.67 1037.16 1435.95 Q1037.16 1435.74 1037.2 1435.39 Q1037.23 1435.07 1037.23 1435 L1037.23 1414.66 L1016.96 1414.66 Q1016.89 1414.66 1016.47 1414.69 Q1016.08 1414.73 1015.87 1414.73 Z" fill="#000000" fill-rule="nonzero" fill-opacity="1" /><path clip-path="url(#clip750)" d="M1089.61 1408.83 Q1089.61 1398.25 1092.28 1392.49 Q1096.01 1383.92 1104.79 1383.92 Q1106.65 1383.92 1108.59 1384.44 Q1110.55 1384.94 1113.01 1386.87 Q1115.51 1388.8 1117.02 1391.96 Q1119.9 1398.08 1119.9 1408.83 Q1119.9 1419.33 1117.23 1425.06 Q1113.33 1433.42 1104.72 1433.42 Q1101.49 1433.42 1098.19 1431.77 Q1094.92 1430.12 1092.85 1426.15 Q1089.61 1420.21 1089.61 1408.83 M1095.59 1407.95 Q1095.59 1418.8 1096.36 1423.13 Q1097.24 1427.8 1099.63 1429.84 Q1102.05 1431.84 1104.72 1431.84 Q1107.6 1431.84 1109.99 1429.7 Q1112.41 1427.52 1113.15 1422.85 Q1113.96 1418.24 1113.93 1407.95 Q1113.93 1397.94 1113.22 1393.93 Q1112.27 1389.26 1109.74 1387.4 Q1107.25 1385.5 1104.72 1385.5 Q1103.77 1385.5 1102.75 1385.78 Q1101.77 1386.06 1100.33 1386.87 Q1098.89 1387.68 1097.76 1389.68 Q1096.67 1391.68 1096.15 1394.7 Q1095.59 1398.6 1095.59 1407.95 Z" fill="#000000" fill-rule="nonzero" fill-opacity="1" /><path clip-path="url(#clip750)" d="M1126.34 1430.68 Q1125.25 1429.52 1125.25 1428.01 Q1125.25 1426.5 1126.34 1425.41 Q1127.42 1424.29 1129.08 1424.29 Q1130.66 1424.29 1131.71 1425.34 Q1132.8 1426.36 1132.8 1428.05 Q1132.8 1429.7 1131.64 1430.79 Q1130.52 1431.84 1129.08 1431.84 Q1127.42 1431.84 1126.34 1430.68 Z" fill="#000000" fill-rule="nonzero" fill-opacity="1" /><path clip-path="url(#clip750)" d="M1145.05 1408.83 Q1145.05 1398.25 1147.72 1392.49 Q1151.44 1383.92 1160.22 1383.92 Q1162.09 1383.92 1164.02 1384.44 Q1165.99 1384.94 1168.44 1386.87 Q1170.94 1388.8 1172.45 1391.96 Q1175.33 1398.08 1175.33 1408.83 Q1175.33 1419.33 1172.66 1425.06 Q1168.76 1433.42 1160.15 1433.42 Q1156.92 1433.42 1153.62 1431.77 Q1150.35 1430.12 1148.28 1426.15 Q1145.05 1420.21 1145.05 1408.83 M1151.02 1407.95 Q1151.02 1418.8 1151.79 1423.13 Q1152.67 1427.8 1155.06 1429.84 Q1157.48 1431.84 1160.15 1431.84 Q1163.03 1431.84 1165.42 1429.7 Q1167.85 1427.52 1168.59 1422.85 Q1169.39 1418.24 1169.36 1407.95 Q1169.36 1397.94 1168.66 1393.93 Q1167.71 1389.26 1165.18 1387.4 Q1162.68 1385.5 1160.15 1385.5 Q1159.2 1385.5 1158.19 1385.78 Q1157.2 1386.06 1155.76 1386.87 Q1154.32 1387.68 1153.2 1389.68 Q1152.11 1391.68 1151.58 1394.7 Q1151.02 1398.6 1151.02 1407.95 Z" fill="#000000" fill-rule="nonzero" fill-opacity="1" /><path clip-path="url(#clip750)" d="M1178.56 1390.77 L1178.56 1388.52 Q1187.2 1388.52 1191.66 1383.92 Q1192.89 1383.92 1193.1 1384.2 Q1193.31 1384.48 1193.31 1385.78 L1193.31 1426.15 Q1193.31 1428.29 1194.37 1428.96 Q1195.42 1429.63 1200.03 1429.63 L1202.31 1429.63 L1202.31 1431.84 Q1199.78 1431.63 1190.64 1431.63 Q1181.51 1431.63 1179.02 1431.84 L1179.02 1429.63 L1181.3 1429.63 Q1185.83 1429.63 1186.92 1428.99 Q1188.01 1428.33 1188.01 1426.15 L1188.01 1388.87 Q1184.25 1390.77 1178.56 1390.77 Z" fill="#000000" fill-rule="nonzero" fill-opacity="1" /><path clip-path="url(#clip750)" d="M1204.41 1398.01 L1206.77 1383.21 L1208.56 1383.21 Q1208.77 1384.09 1209.12 1384.48 Q1209.51 1384.87 1211.55 1385.18 Q1213.62 1385.5 1217.8 1385.5 L1235.26 1385.5 Q1235.26 1387.15 1234.63 1388.03 L1224.9 1401.69 Q1221.81 1406.02 1220.44 1413.99 Q1219.63 1419.33 1219.66 1425.8 L1219.66 1429.45 Q1219.66 1433.42 1216.32 1433.42 Q1213.02 1433.42 1213.02 1429.45 Q1213.02 1415.71 1221.88 1402.4 Q1222.82 1401.03 1226.3 1396.14 Q1229.82 1391.26 1229.96 1391.05 L1215.06 1391.05 Q1208.52 1391.05 1208 1391.47 Q1207.3 1392.1 1206.21 1398.01 L1204.41 1398.01 Z" fill="#000000" fill-rule="nonzero" fill-opacity="1" /><path clip-path="url(#clip750)" d="M1273.25 1402.78 Q1273.25 1403.28 1272.93 1404.44 L1266.05 1431.91 Q1264.54 1438.02 1259.62 1442.31 Q1254.73 1446.6 1249.18 1446.6 Q1245.84 1446.6 1243.7 1444.8 Q1241.56 1443.05 1241.56 1440.34 Q1241.56 1437.95 1242.82 1436.79 Q1244.09 1435.67 1245.6 1435.67 Q1246.09 1435.67 1246.62 1435.81 Q1247.14 1435.95 1247.71 1436.55 Q1248.27 1437.14 1248.27 1438.16 Q1248.27 1439.81 1246.83 1441.11 Q1246.13 1441.71 1245.46 1441.85 Q1244.83 1441.99 1243.74 1441.99 Q1244.16 1442.98 1244.93 1443.64 Q1245.7 1444.31 1246.58 1444.56 Q1247.46 1444.84 1248.02 1444.91 Q1248.62 1445.01 1249.18 1445.01 Q1253.68 1445.01 1257.12 1440.48 Q1258.14 1439.11 1258.88 1437.74 Q1259.65 1436.41 1260.21 1434.76 Q1260.78 1433.14 1261.02 1432.26 Q1261.3 1431.38 1261.79 1429.38 Q1258.53 1432.65 1254.52 1432.65 Q1252.84 1432.65 1251.33 1432.19 Q1249.85 1431.73 1248.55 1430.79 Q1247.25 1429.8 1246.48 1428.08 Q1245.74 1426.36 1245.74 1424.08 Q1245.74 1421.65 1246.69 1418.35 Q1247.64 1415.05 1249.92 1408.97 Q1251.15 1405.56 1251.15 1403.91 Q1251.15 1403.1 1250.97 1402.61 Q1250.8 1402.08 1250.45 1401.91 Q1250.1 1401.69 1249.88 1401.66 Q1249.71 1401.62 1249.36 1401.62 Q1247.28 1401.62 1245.35 1403.73 Q1243.42 1405.84 1242.08 1410.55 Q1241.8 1411.43 1241.63 1411.64 Q1241.45 1411.85 1240.93 1411.85 Q1240.05 1411.81 1240.05 1411.11 Q1240.05 1410.83 1240.36 1409.74 Q1240.68 1408.62 1241.42 1406.96 Q1242.19 1405.28 1243.24 1403.77 Q1244.3 1402.22 1245.95 1401.13 Q1247.64 1400.04 1249.57 1400.04 Q1252.2 1400.04 1253.82 1401.77 Q1255.47 1403.45 1255.47 1405.95 Q1255.47 1406.96 1255.19 1407.88 Q1254.94 1408.76 1254.03 1411.11 Q1250.34 1420.6 1250.34 1425.23 Q1250.34 1426.36 1250.52 1427.31 Q1250.73 1428.22 1251.18 1429.13 Q1251.64 1430.01 1252.55 1430.54 Q1253.5 1431.03 1254.8 1431.03 Q1256.45 1431.03 1258 1430.26 Q1259.58 1429.45 1260.57 1428.36 Q1261.58 1427.27 1262.18 1426.36 Q1262.81 1425.41 1262.95 1424.92 L1266.19 1411.99 L1267.63 1406.23 Q1268.29 1403.1 1268.61 1402.33 Q1269.03 1401.59 1269.77 1401.2 Q1270.51 1400.82 1271.14 1400.82 Q1272.02 1400.82 1272.62 1401.34 Q1273.25 1401.87 1273.25 1402.78 Z" fill="#000000" fill-rule="nonzero" fill-opacity="1" /><path clip-path="url(#clip750)" d="M1280.6 1410.32 Q1280.6 1409.41 1280.68 1409.14 Q1280.77 1408.87 1281.17 1408.45 L1290.83 1397.68 Q1296.12 1391.73 1296.12 1386.54 Q1296.12 1383.17 1294.35 1380.76 Q1292.6 1378.35 1289.38 1378.35 Q1287.17 1378.35 1285.3 1379.7 Q1283.43 1381.06 1282.57 1383.47 Q1282.72 1383.42 1283.23 1383.42 Q1284.49 1383.42 1285.18 1384.21 Q1285.89 1384.99 1285.89 1386.05 Q1285.89 1387.4 1285 1388.07 Q1284.14 1388.71 1283.28 1388.71 Q1282.94 1388.71 1282.47 1388.63 Q1282.03 1388.56 1281.32 1387.87 Q1280.6 1387.16 1280.6 1385.9 Q1280.6 1382.39 1283.26 1379.58 Q1285.94 1376.78 1290.02 1376.78 Q1294.65 1376.78 1297.67 1379.53 Q1300.72 1382.26 1300.72 1386.54 Q1300.72 1388.04 1300.25 1389.42 Q1299.81 1390.77 1299.19 1391.83 Q1298.6 1392.89 1296.98 1394.58 Q1295.36 1396.28 1294.05 1397.49 Q1292.75 1398.69 1289.82 1401.25 L1284.49 1406.44 L1293.56 1406.44 Q1297.99 1406.44 1298.33 1406.04 Q1298.83 1405.33 1299.44 1401.57 L1300.72 1401.57 L1299.29 1410.32 L1280.6 1410.32 Z" fill="#000000" fill-rule="nonzero" fill-opacity="1" /><path clip-path="url(#clip750)" d="M1375.66 1412.83 Q1376.08 1413.25 1376.08 1413.85 Q1376.08 1414.45 1375.66 1414.87 Q1375.24 1415.29 1374.64 1415.29 L1329.6 1415.29 Q1329 1415.29 1328.58 1414.87 Q1328.16 1414.45 1328.16 1413.85 Q1328.16 1413.25 1328.58 1412.83 Q1329 1412.41 1329.6 1412.41 L1374.64 1412.41 Q1375.24 1412.41 1375.66 1412.83 Z" fill="#000000" fill-rule="nonzero" fill-opacity="1" /><path clip-path="url(#clip750)" d="M1403.56 1408.83 Q1403.56 1398.25 1406.23 1392.49 Q1409.95 1383.92 1418.73 1383.92 Q1420.6 1383.92 1422.53 1384.44 Q1424.49 1384.94 1426.95 1386.87 Q1429.45 1388.8 1430.96 1391.96 Q1433.84 1398.08 1433.84 1408.83 Q1433.84 1419.33 1431.17 1425.06 Q1427.27 1433.42 1418.66 1433.42 Q1415.43 1433.42 1412.13 1431.77 Q1408.86 1430.12 1406.79 1426.15 Q1403.56 1420.21 1403.56 1408.83 M1409.53 1407.95 Q1409.53 1418.8 1410.3 1423.13 Q1411.18 1427.8 1413.57 1429.84 Q1415.99 1431.84 1418.66 1431.84 Q1421.54 1431.84 1423.93 1429.7 Q1426.36 1427.52 1427.09 1422.85 Q1427.9 1418.24 1427.87 1407.95 Q1427.87 1397.94 1427.17 1393.93 Q1426.22 1389.26 1423.69 1387.4 Q1421.19 1385.5 1418.66 1385.5 Q1417.71 1385.5 1416.7 1385.78 Q1415.71 1386.06 1414.27 1386.87 Q1412.83 1387.68 1411.71 1389.68 Q1410.62 1391.68 1410.09 1394.7 Q1409.53 1398.6 1409.53 1407.95 Z" fill="#000000" fill-rule="nonzero" fill-opacity="1" /><path clip-path="url(#clip750)" d="M1440.28 1430.68 Q1439.19 1429.52 1439.19 1428.01 Q1439.19 1426.5 1440.28 1425.41 Q1441.37 1424.29 1443.02 1424.29 Q1444.6 1424.29 1445.65 1425.34 Q1446.74 1426.36 1446.74 1428.05 Q1446.74 1429.7 1445.58 1430.79 Q1444.46 1431.84 1443.02 1431.84 Q1441.37 1431.84 1440.28 1430.68 Z" fill="#000000" fill-rule="nonzero" fill-opacity="1" /><path clip-path="url(#clip750)" d="M1458.99 1408.83 Q1458.99 1398.25 1461.66 1392.49 Q1465.38 1383.92 1474.17 1383.92 Q1476.03 1383.92 1477.96 1384.44 Q1479.93 1384.94 1482.39 1386.87 Q1484.88 1388.8 1486.39 1391.96 Q1489.27 1398.08 1489.27 1408.83 Q1489.27 1419.33 1486.6 1425.06 Q1482.7 1433.42 1474.1 1433.42 Q1470.86 1433.42 1467.56 1431.77 Q1464.29 1430.12 1462.22 1426.15 Q1458.99 1420.21 1458.99 1408.83 M1464.96 1407.95 Q1464.96 1418.8 1465.73 1423.13 Q1466.61 1427.8 1469 1429.84 Q1471.43 1431.84 1474.1 1431.84 Q1476.98 1431.84 1479.37 1429.7 Q1481.79 1427.52 1482.53 1422.85 Q1483.34 1418.24 1483.3 1407.95 Q1483.3 1397.94 1482.6 1393.93 Q1481.65 1389.26 1479.12 1387.4 Q1476.63 1385.5 1474.1 1385.5 Q1473.15 1385.5 1472.13 1385.78 Q1471.14 1386.06 1469.7 1386.87 Q1468.26 1387.68 1467.14 1389.68 Q1466.05 1391.68 1465.52 1394.7 Q1464.96 1398.6 1464.96 1407.95 Z" fill="#000000" fill-rule="nonzero" fill-opacity="1" /><path clip-path="url(#clip750)" d="M1529.31 1404.79 Q1529.31 1406.75 1528.08 1407.88 Q1526.85 1408.97 1525.44 1408.97 Q1524.11 1408.97 1523.4 1408.19 Q1522.7 1407.42 1522.7 1406.44 Q1522.7 1405.1 1523.68 1403.94 Q1524.67 1402.78 1526.14 1402.54 Q1524.7 1401.62 1522.56 1401.62 Q1521.15 1401.62 1519.92 1402.36 Q1518.73 1403.1 1517.99 1404.05 Q1517.29 1405 1516.66 1406.37 Q1516.06 1407.7 1515.81 1408.51 Q1515.6 1409.28 1515.43 1410.13 L1512.97 1419.96 Q1511.77 1424.64 1511.77 1426.29 Q1511.77 1428.33 1512.76 1429.7 Q1513.74 1431.03 1515.71 1431.03 Q1516.48 1431.03 1517.36 1430.82 Q1518.24 1430.57 1519.36 1429.94 Q1520.52 1429.27 1521.54 1428.29 Q1522.59 1427.27 1523.61 1425.55 Q1524.63 1423.83 1525.3 1421.62 Q1525.51 1420.84 1526.21 1420.84 Q1527.09 1420.84 1527.09 1421.55 Q1527.09 1422.14 1526.6 1423.41 Q1526.14 1424.64 1525.12 1426.25 Q1524.14 1427.83 1522.84 1429.27 Q1521.54 1430.68 1519.61 1431.66 Q1517.68 1432.65 1515.57 1432.65 Q1512.55 1432.65 1510.54 1431.03 Q1508.54 1429.42 1507.8 1427.17 Q1507.63 1427.48 1507.38 1427.9 Q1507.14 1428.33 1506.4 1429.27 Q1505.7 1430.19 1504.89 1430.89 Q1504.08 1431.56 1502.81 1432.09 Q1501.58 1432.65 1500.25 1432.65 Q1498.56 1432.65 1497.05 1432.16 Q1495.58 1431.66 1494.52 1430.54 Q1493.47 1429.42 1493.47 1427.87 Q1493.47 1426.15 1494.63 1424.95 Q1495.82 1423.72 1497.44 1423.72 Q1498.46 1423.72 1499.27 1424.32 Q1500.11 1424.92 1500.11 1426.22 Q1500.11 1427.66 1499.13 1428.75 Q1498.14 1429.84 1496.74 1430.12 Q1498.18 1431.03 1500.32 1431.03 Q1502.64 1431.03 1504.47 1428.99 Q1506.29 1426.96 1507.17 1423.55 Q1509.35 1415.36 1510.19 1411.71 Q1511.04 1408.02 1511.04 1406.44 Q1511.04 1404.96 1510.65 1403.94 Q1510.26 1402.92 1509.6 1402.47 Q1508.96 1401.98 1508.37 1401.8 Q1507.8 1401.62 1507.17 1401.62 Q1506.12 1401.62 1504.92 1402.05 Q1503.76 1402.47 1502.36 1403.45 Q1500.99 1404.4 1499.69 1406.37 Q1498.39 1408.34 1497.51 1411.04 Q1497.33 1411.85 1496.56 1411.85 Q1495.72 1411.81 1495.72 1411.11 Q1495.72 1410.51 1496.17 1409.28 Q1496.67 1408.02 1497.65 1406.44 Q1498.67 1404.86 1499.97 1403.45 Q1501.3 1402.01 1503.24 1401.03 Q1505.2 1400.04 1507.31 1400.04 Q1508.26 1400.04 1509.17 1400.25 Q1510.12 1400.43 1511.25 1400.96 Q1512.41 1401.48 1513.42 1402.64 Q1514.44 1403.8 1515.08 1405.49 Q1515.5 1404.68 1516.06 1403.91 Q1516.66 1403.14 1517.57 1402.19 Q1518.52 1401.2 1519.82 1400.64 Q1521.15 1400.04 1522.63 1400.04 Q1524.07 1400.04 1525.48 1400.43 Q1526.88 1400.78 1528.08 1401.94 Q1529.31 1403.07 1529.31 1404.79 Z" fill="#000000" fill-rule="nonzero" fill-opacity="1" /><path clip-path="url(#clip750)" d="M1555.83 1414.73 Q1554.18 1414.73 1554.18 1413.85 Q1554.18 1412.97 1555.9 1412.97 Q1556.11 1412.97 1556.46 1413.01 Q1556.85 1413.04 1556.92 1413.04 L1577.19 1413.04 L1577.19 1392.7 Q1577.19 1392.63 1577.16 1392.31 Q1577.12 1391.96 1577.12 1391.75 Q1577.12 1390.03 1577.96 1390.03 Q1578.84 1390.03 1578.84 1391.75 L1578.84 1413.04 L1599.15 1413.04 Q1599.22 1413.04 1599.57 1413.01 Q1599.92 1412.97 1600.13 1412.97 Q1601.78 1412.97 1601.78 1413.85 Q1601.82 1414.73 1600.06 1414.73 Q1599.85 1414.73 1599.54 1414.69 Q1599.22 1414.66 1599.15 1414.66 L1578.84 1414.66 L1578.84 1436.02 Q1578.84 1437.67 1577.96 1437.67 Q1577.12 1437.67 1577.12 1435.95 Q1577.12 1435.74 1577.16 1435.39 Q1577.19 1435.07 1577.19 1435 L1577.19 1414.66 L1556.92 1414.66 Q1556.85 1414.66 1556.43 1414.69 Q1556.04 1414.73 1555.83 1414.73 Z" fill="#000000" fill-rule="nonzero" fill-opacity="1" /><path clip-path="url(#clip750)" d="M1629.57 1408.83 Q1629.57 1398.25 1632.24 1392.49 Q1635.97 1383.92 1644.75 1383.92 Q1646.61 1383.92 1648.54 1384.44 Q1650.51 1384.94 1652.97 1386.87 Q1655.47 1388.8 1656.98 1391.96 Q1659.86 1398.08 1659.86 1408.83 Q1659.86 1419.33 1657.19 1425.06 Q1653.29 1433.42 1644.68 1433.42 Q1641.45 1433.42 1638.15 1431.77 Q1634.88 1430.12 1632.8 1426.15 Q1629.57 1420.21 1629.57 1408.83 M1635.55 1407.95 Q1635.55 1418.8 1636.32 1423.13 Q1637.2 1427.8 1639.59 1429.84 Q1642.01 1431.84 1644.68 1431.84 Q1647.56 1431.84 1649.95 1429.7 Q1652.37 1427.52 1653.11 1422.85 Q1653.92 1418.24 1653.89 1407.95 Q1653.89 1397.94 1653.18 1393.93 Q1652.23 1389.26 1649.7 1387.4 Q1647.21 1385.5 1644.68 1385.5 Q1643.73 1385.5 1642.71 1385.78 Q1641.73 1386.06 1640.29 1386.87 Q1638.85 1387.68 1637.72 1389.68 Q1636.63 1391.68 1636.11 1394.7 Q1635.55 1398.6 1635.55 1407.95 Z" fill="#000000" fill-rule="nonzero" fill-opacity="1" /><path clip-path="url(#clip750)" d="M1666.29 1430.68 Q1665.21 1429.52 1665.21 1428.01 Q1665.21 1426.5 1666.29 1425.41 Q1667.38 1424.29 1669.04 1424.29 Q1670.62 1424.29 1671.67 1425.34 Q1672.76 1426.36 1672.76 1428.05 Q1672.76 1429.7 1671.6 1430.79 Q1670.48 1431.84 1669.04 1431.84 Q1667.38 1431.84 1666.29 1430.68 Z" fill="#000000" fill-rule="nonzero" fill-opacity="1" /><path clip-path="url(#clip750)" d="M1685.01 1431.84 Q1685.01 1430.54 1685.11 1430.15 Q1685.25 1429.77 1685.81 1429.17 L1699.62 1413.78 Q1707.17 1405.28 1707.17 1397.87 Q1707.17 1393.05 1704.65 1389.61 Q1702.15 1386.17 1697.55 1386.17 Q1694.39 1386.17 1691.72 1388.1 Q1689.05 1390.03 1687.82 1393.47 Q1688.03 1393.4 1688.76 1393.4 Q1690.56 1393.4 1691.54 1394.53 Q1692.56 1395.65 1692.56 1397.16 Q1692.56 1399.09 1691.29 1400.04 Q1690.06 1400.96 1688.83 1400.96 Q1688.34 1400.96 1687.68 1400.85 Q1687.04 1400.75 1686.02 1399.76 Q1685.01 1398.74 1685.01 1396.95 Q1685.01 1391.93 1688.8 1387.92 Q1692.63 1383.92 1698.46 1383.92 Q1705.07 1383.92 1709.39 1387.85 Q1713.74 1391.75 1713.74 1397.87 Q1713.74 1400.01 1713.08 1401.98 Q1712.44 1403.91 1711.57 1405.42 Q1710.72 1406.93 1708.4 1409.35 Q1706.09 1411.78 1704.22 1413.5 Q1702.36 1415.22 1698.18 1418.88 L1690.56 1426.29 L1703.52 1426.29 Q1709.84 1426.29 1710.34 1425.73 Q1711.04 1424.71 1711.92 1419.33 L1713.74 1419.33 L1711.71 1431.84 L1685.01 1431.84 Z" fill="#000000" fill-rule="nonzero" fill-opacity="1" /><path clip-path="url(#clip750)" d="M1717.99 1398.01 L1720.35 1383.21 L1722.14 1383.21 Q1722.35 1384.09 1722.7 1384.48 Q1723.09 1384.87 1725.12 1385.18 Q1727.2 1385.5 1731.38 1385.5 L1748.84 1385.5 Q1748.84 1387.15 1748.21 1388.03 L1738.47 1401.69 Q1735.38 1406.02 1734.01 1413.99 Q1733.2 1419.33 1733.24 1425.8 L1733.24 1429.45 Q1733.24 1433.42 1729.9 1433.42 Q1726.6 1433.42 1726.6 1429.45 Q1726.6 1415.71 1735.45 1402.4 Q1736.4 1401.03 1739.88 1396.14 Q1743.39 1391.26 1743.53 1391.05 L1728.64 1391.05 Q1722.1 1391.05 1721.57 1391.47 Q1720.87 1392.1 1719.78 1398.01 L1717.99 1398.01 Z" fill="#000000" fill-rule="nonzero" fill-opacity="1" /><path clip-path="url(#clip750)" d="M1748.1 1422.14 Q1748.1 1420 1749.33 1418.98 Q1750.56 1417.96 1752.14 1417.96 Q1753.79 1417.96 1754.95 1419.05 Q1756.14 1420.1 1756.14 1421.97 Q1756.14 1423.97 1754.74 1425.09 Q1753.37 1426.22 1751.4 1425.94 Q1753.12 1428.82 1756.28 1430.12 Q1759.48 1431.42 1762.43 1431.42 Q1765.52 1431.42 1768.02 1428.75 Q1770.55 1426.08 1770.55 1419.54 Q1770.55 1413.99 1768.37 1410.79 Q1766.23 1407.6 1761.97 1407.6 L1758.81 1407.6 Q1757.72 1407.6 1757.41 1407.49 Q1757.09 1407.39 1757.09 1406.79 Q1757.09 1406.09 1758.18 1405.95 Q1759.27 1405.95 1760.99 1405.74 Q1765.17 1405.59 1767.39 1401.98 Q1769.39 1398.6 1769.39 1393.79 Q1769.39 1389.4 1767.28 1387.57 Q1765.21 1385.71 1762.5 1385.71 Q1759.97 1385.71 1757.2 1386.76 Q1754.42 1387.82 1752.91 1390.17 Q1757.37 1390.17 1757.37 1393.79 Q1757.37 1395.37 1756.35 1396.42 Q1755.37 1397.44 1753.72 1397.44 Q1752.14 1397.44 1751.08 1396.46 Q1750.03 1395.44 1750.03 1393.72 Q1750.03 1389.61 1753.68 1386.76 Q1757.37 1383.92 1762.78 1383.92 Q1768.12 1383.92 1772.06 1386.73 Q1776.03 1389.54 1776.03 1393.86 Q1776.03 1398.11 1773.22 1401.59 Q1770.41 1405.07 1765.94 1406.51 Q1771.43 1407.6 1774.69 1411.32 Q1777.96 1415.01 1777.96 1419.54 Q1777.96 1425.16 1773.53 1429.31 Q1769.11 1433.42 1762.64 1433.42 Q1756.67 1433.42 1752.38 1430.19 Q1748.1 1426.96 1748.1 1422.14 Z" fill="#000000" fill-rule="nonzero" fill-opacity="1" /><path clip-path="url(#clip750)" d="M1815.78 1402.78 Q1815.78 1403.28 1815.46 1404.44 L1808.58 1431.91 Q1807.07 1438.02 1802.15 1442.31 Q1797.26 1446.6 1791.71 1446.6 Q1788.37 1446.6 1786.23 1444.8 Q1784.09 1443.05 1784.09 1440.34 Q1784.09 1437.95 1785.35 1436.79 Q1786.62 1435.67 1788.13 1435.67 Q1788.62 1435.67 1789.15 1435.81 Q1789.67 1435.95 1790.24 1436.55 Q1790.8 1437.14 1790.8 1438.16 Q1790.8 1439.81 1789.36 1441.11 Q1788.66 1441.71 1787.99 1441.85 Q1787.36 1441.99 1786.27 1441.99 Q1786.69 1442.98 1787.46 1443.64 Q1788.23 1444.31 1789.11 1444.56 Q1789.99 1444.84 1790.55 1444.91 Q1791.15 1445.01 1791.71 1445.01 Q1796.21 1445.01 1799.65 1440.48 Q1800.67 1439.11 1801.41 1437.74 Q1802.18 1436.41 1802.74 1434.76 Q1803.31 1433.14 1803.55 1432.26 Q1803.83 1431.38 1804.33 1429.38 Q1801.06 1432.65 1797.05 1432.65 Q1795.37 1432.65 1793.86 1432.19 Q1792.38 1431.73 1791.08 1430.79 Q1789.78 1429.8 1789.01 1428.08 Q1788.27 1426.36 1788.27 1424.08 Q1788.27 1421.65 1789.22 1418.35 Q1790.17 1415.05 1792.45 1408.97 Q1793.68 1405.56 1793.68 1403.91 Q1793.68 1403.1 1793.5 1402.61 Q1793.33 1402.08 1792.98 1401.91 Q1792.63 1401.69 1792.42 1401.66 Q1792.24 1401.62 1791.89 1401.62 Q1789.82 1401.62 1787.88 1403.73 Q1785.95 1405.84 1784.62 1410.55 Q1784.33 1411.43 1784.16 1411.64 Q1783.98 1411.85 1783.46 1411.85 Q1782.58 1411.81 1782.58 1411.11 Q1782.58 1410.83 1782.89 1409.74 Q1783.21 1408.62 1783.95 1406.96 Q1784.72 1405.28 1785.77 1403.77 Q1786.83 1402.22 1788.48 1401.13 Q1790.17 1400.04 1792.1 1400.04 Q1794.73 1400.04 1796.35 1401.77 Q1798 1403.45 1798 1405.95 Q1798 1406.96 1797.72 1407.88 Q1797.47 1408.76 1796.56 1411.11 Q1792.87 1420.6 1792.87 1425.23 Q1792.87 1426.36 1793.05 1427.31 Q1793.26 1428.22 1793.72 1429.13 Q1794.17 1430.01 1795.09 1430.54 Q1796.03 1431.03 1797.33 1431.03 Q1798.99 1431.03 1800.53 1430.26 Q1802.11 1429.45 1803.1 1428.36 Q1804.11 1427.27 1804.71 1426.36 Q1805.34 1425.41 1805.48 1424.92 L1808.72 1411.99 L1810.16 1406.23 Q1810.83 1403.1 1811.14 1402.33 Q1811.56 1401.59 1812.3 1401.2 Q1813.04 1400.82 1813.67 1400.82 Q1814.55 1400.82 1815.15 1401.34 Q1815.78 1401.87 1815.78 1402.78 Z" fill="#000000" fill-rule="nonzero" fill-opacity="1" /><path clip-path="url(#clip750)" d="M1839.09 1414.73 Q1837.44 1414.73 1837.44 1413.85 Q1837.44 1412.97 1839.16 1412.97 Q1839.37 1412.97 1839.73 1413.01 Q1840.11 1413.04 1840.18 1413.04 L1860.45 1413.04 L1860.45 1392.7 Q1860.45 1392.63 1860.42 1392.31 Q1860.38 1391.96 1860.38 1391.75 Q1860.38 1390.03 1861.23 1390.03 Q1862.11 1390.03 1862.11 1391.75 L1862.11 1413.04 L1882.41 1413.04 Q1882.48 1413.04 1882.83 1413.01 Q1883.19 1412.97 1883.4 1412.97 Q1885.05 1412.97 1885.05 1413.85 Q1885.08 1414.73 1883.33 1414.73 Q1883.12 1414.73 1882.8 1414.69 Q1882.48 1414.66 1882.41 1414.66 L1862.11 1414.66 L1862.11 1436.02 Q1862.11 1437.67 1861.23 1437.67 Q1860.38 1437.67 1860.38 1435.95 Q1860.38 1435.74 1860.42 1435.39 Q1860.45 1435.07 1860.45 1435 L1860.45 1414.66 L1840.18 1414.66 Q1840.11 1414.66 1839.69 1414.69 Q1839.3 1414.73 1839.09 1414.73 Z" fill="#000000" fill-rule="nonzero" fill-opacity="1" /><path clip-path="url(#clip750)" d="M1912.84 1390.77 L1912.84 1388.52 Q1921.48 1388.52 1925.94 1383.92 Q1927.17 1383.92 1927.38 1384.2 Q1927.59 1384.48 1927.59 1385.78 L1927.59 1426.15 Q1927.59 1428.29 1928.65 1428.96 Q1929.7 1429.63 1934.3 1429.63 L1936.59 1429.63 L1936.59 1431.84 Q1934.06 1431.63 1924.92 1431.63 Q1915.79 1431.63 1913.29 1431.84 L1913.29 1429.63 L1915.58 1429.63 Q1920.11 1429.63 1921.2 1428.99 Q1922.29 1428.33 1922.29 1426.15 L1922.29 1388.87 Q1918.53 1390.77 1912.84 1390.77 Z" fill="#000000" fill-rule="nonzero" fill-opacity="1" /><path clip-path="url(#clip750)" d="M1968.43 1420.91 Q1968.5 1420.03 1969.87 1420.03 L2013.96 1420.03 Q2016.04 1420.03 2016.07 1420.84 Q2016.07 1421.72 2014.1 1421.69 L1970.36 1421.69 Q1968.43 1421.72 1968.43 1420.91 M1968.43 1406.86 Q1968.43 1405.98 1969.94 1406.02 L2013.89 1406.02 Q2016.04 1406.02 2016.07 1406.86 Q2016.07 1407.67 2014.24 1407.67 L1969.87 1407.67 Q1968.43 1407.67 1968.43 1406.86 Z" fill="#000000" fill-rule="nonzero" fill-opacity="1" /><path clip-path="url(#clip750)" d="M2043.82 1408.83 Q2043.82 1398.25 2046.49 1392.49 Q2050.22 1383.92 2059 1383.92 Q2060.86 1383.92 2062.8 1384.44 Q2064.76 1384.94 2067.22 1386.87 Q2069.72 1388.8 2071.23 1391.96 Q2074.11 1398.08 2074.11 1408.83 Q2074.11 1419.33 2071.44 1425.06 Q2067.54 1433.42 2058.93 1433.42 Q2055.7 1433.42 2052.4 1431.77 Q2049.13 1430.12 2047.06 1426.15 Q2043.82 1420.21 2043.82 1408.83 M2049.8 1407.95 Q2049.8 1418.8 2050.57 1423.13 Q2051.45 1427.8 2053.84 1429.84 Q2056.26 1431.84 2058.93 1431.84 Q2061.81 1431.84 2064.2 1429.7 Q2066.63 1427.52 2067.36 1422.85 Q2068.17 1418.24 2068.14 1407.95 Q2068.14 1397.94 2067.43 1393.93 Q2066.49 1389.26 2063.96 1387.4 Q2061.46 1385.5 2058.93 1385.5 Q2057.98 1385.5 2056.96 1385.78 Q2055.98 1386.06 2054.54 1386.87 Q2053.1 1387.68 2051.98 1389.68 Q2050.89 1391.68 2050.36 1394.7 Q2049.8 1398.6 2049.8 1407.95 Z" fill="#000000" fill-rule="nonzero" fill-opacity="1" /></svg>
