<?xml version="1.0" encoding="utf-8"?>
<svg xmlns="http://www.w3.org/2000/svg" xmlns:xlink="http://www.w3.org/1999/xlink" width="600" height="400" viewBox="0 0 2400 1600">
<defs>
  <clipPath id="clip390">
    <rect x="0" y="0" width="2400" height="1600"/>
  </clipPath>
</defs>
<path clip-path="url(#clip390)" d="M0 1600 L2400 1600 L2400 0 L0 0  Z" fill="#ffffff" fill-rule="evenodd" fill-opacity="1"/>
<defs>
  <clipPath id="clip391">
    <rect x="480" y="0" width="1681" height="1600"/>
  </clipPath>
</defs>
<path clip-path="url(#clip390)" d="M178.867 1486.45 L2352.76 1486.45 L2352.76 47.2441 L178.867 47.2441  Z" fill="#ffffff" fill-rule="evenodd" fill-opacity="1"/>
<defs>
  <clipPath id="clip392">
    <rect x="178" y="47" width="2175" height="1440"/>
  </clipPath>
</defs>
<polyline clip-path="url(#clip392)" style="stroke:#000000; stroke-linecap:round; stroke-linejoin:round; stroke-width:2; stroke-opacity:0.1; fill:none" points="247.507,1486.45 247.507,47.2441 "/>
<polyline clip-path="url(#clip392)" style="stroke:#000000; stroke-linecap:round; stroke-linejoin:round; stroke-width:2; stroke-opacity:0.1; fill:none" points="586.942,1486.45 586.942,47.2441 "/>
<polyline clip-path="url(#clip392)" style="stroke:#000000; stroke-linecap:round; stroke-linejoin:round; stroke-width:2; stroke-opacity:0.1; fill:none" points="926.376,1486.45 926.376,47.2441 "/>
<polyline clip-path="url(#clip392)" style="stroke:#000000; stroke-linecap:round; stroke-linejoin:round; stroke-width:2; stroke-opacity:0.1; fill:none" points="1265.81,1486.45 1265.81,47.2441 "/>
<polyline clip-path="url(#clip392)" style="stroke:#000000; stroke-linecap:round; stroke-linejoin:round; stroke-width:2; stroke-opacity:0.1; fill:none" points="1605.25,1486.45 1605.25,47.2441 "/>
<polyline clip-path="url(#clip392)" style="stroke:#000000; stroke-linecap:round; stroke-linejoin:round; stroke-width:2; stroke-opacity:0.1; fill:none" points="1944.68,1486.45 1944.68,47.2441 "/>
<polyline clip-path="url(#clip392)" style="stroke:#000000; stroke-linecap:round; stroke-linejoin:round; stroke-width:2; stroke-opacity:0.1; fill:none" points="2284.12,1486.45 2284.12,47.2441 "/>
<polyline clip-path="url(#clip390)" style="stroke:#000000; stroke-linecap:round; stroke-linejoin:round; stroke-width:4; stroke-opacity:1; fill:none" points="178.867,1486.45 2352.76,1486.45 "/>
<polyline clip-path="url(#clip390)" style="stroke:#000000; stroke-linecap:round; stroke-linejoin:round; stroke-width:4; stroke-opacity:1; fill:none" points="247.507,1486.45 247.507,1467.55 "/>
<polyline clip-path="url(#clip390)" style="stroke:#000000; stroke-linecap:round; stroke-linejoin:round; stroke-width:4; stroke-opacity:1; fill:none" points="586.942,1486.45 586.942,1467.55 "/>
<polyline clip-path="url(#clip390)" style="stroke:#000000; stroke-linecap:round; stroke-linejoin:round; stroke-width:4; stroke-opacity:1; fill:none" points="926.376,1486.45 926.376,1467.55 "/>
<polyline clip-path="url(#clip390)" style="stroke:#000000; stroke-linecap:round; stroke-linejoin:round; stroke-width:4; stroke-opacity:1; fill:none" points="1265.81,1486.45 1265.81,1467.55 "/>
<polyline clip-path="url(#clip390)" style="stroke:#000000; stroke-linecap:round; stroke-linejoin:round; stroke-width:4; stroke-opacity:1; fill:none" points="1605.25,1486.45 1605.25,1467.55 "/>
<polyline clip-path="url(#clip390)" style="stroke:#000000; stroke-linecap:round; stroke-linejoin:round; stroke-width:4; stroke-opacity:1; fill:none" points="1944.68,1486.45 1944.68,1467.55 "/>
<polyline clip-path="url(#clip390)" style="stroke:#000000; stroke-linecap:round; stroke-linejoin:round; stroke-width:4; stroke-opacity:1; fill:none" points="2284.12,1486.45 2284.12,1467.55 "/>
<path clip-path="url(#clip390)" d="M201.569 1532.02 L231.245 1532.02 L231.245 1535.95 L201.569 1535.95 L201.569 1532.02 Z" fill="#000000" fill-rule="nonzero" fill-opacity="1" /><path clip-path="url(#clip390)" d="M255.504 1530.21 Q258.861 1530.93 260.736 1533.2 Q262.634 1535.47 262.634 1538.8 Q262.634 1543.92 259.115 1546.72 Q255.597 1549.52 249.115 1549.52 Q246.94 1549.52 244.625 1549.08 Q242.333 1548.66 239.879 1547.81 L239.879 1543.29 Q241.824 1544.43 244.139 1545.01 Q246.453 1545.58 248.977 1545.58 Q253.375 1545.58 255.666 1543.85 Q257.981 1542.11 257.981 1538.8 Q257.981 1535.75 255.828 1534.03 Q253.699 1532.3 249.879 1532.3 L245.852 1532.3 L245.852 1528.45 L250.065 1528.45 Q253.514 1528.45 255.342 1527.09 Q257.171 1525.7 257.171 1523.11 Q257.171 1520.45 255.273 1519.03 Q253.398 1517.6 249.879 1517.6 Q247.958 1517.6 245.759 1518.01 Q243.56 1518.43 240.921 1519.31 L240.921 1515.14 Q243.583 1514.4 245.898 1514.03 Q248.236 1513.66 250.296 1513.66 Q255.62 1513.66 258.722 1516.09 Q261.824 1518.5 261.824 1522.62 Q261.824 1525.49 260.18 1527.48 Q258.537 1529.45 255.504 1530.21 Z" fill="#000000" fill-rule="nonzero" fill-opacity="1" /><path clip-path="url(#clip390)" d="M281.5 1517.37 Q277.888 1517.37 276.06 1520.93 Q274.254 1524.47 274.254 1531.6 Q274.254 1538.71 276.06 1542.27 Q277.888 1545.82 281.5 1545.82 Q285.134 1545.82 286.939 1542.27 Q288.768 1538.71 288.768 1531.6 Q288.768 1524.47 286.939 1520.93 Q285.134 1517.37 281.5 1517.37 M281.5 1513.66 Q287.31 1513.66 290.365 1518.27 Q293.444 1522.85 293.444 1531.6 Q293.444 1540.33 290.365 1544.94 Q287.31 1549.52 281.5 1549.52 Q275.689 1549.52 272.611 1544.94 Q269.555 1540.33 269.555 1531.6 Q269.555 1522.85 272.611 1518.27 Q275.689 1513.66 281.5 1513.66 Z" fill="#000000" fill-rule="nonzero" fill-opacity="1" /><path clip-path="url(#clip390)" d="M541.004 1532.02 L570.68 1532.02 L570.68 1535.95 L541.004 1535.95 L541.004 1532.02 Z" fill="#000000" fill-rule="nonzero" fill-opacity="1" /><path clip-path="url(#clip390)" d="M584.8 1544.91 L601.12 1544.91 L601.12 1548.85 L579.175 1548.85 L579.175 1544.91 Q581.837 1542.16 586.421 1537.53 Q591.027 1532.88 592.208 1531.53 Q594.453 1529.01 595.333 1527.27 Q596.235 1525.51 596.235 1523.82 Q596.235 1521.07 594.291 1519.33 Q592.37 1517.6 589.268 1517.6 Q587.069 1517.6 584.615 1518.36 Q582.185 1519.13 579.407 1520.68 L579.407 1515.95 Q582.231 1514.82 584.685 1514.24 Q587.138 1513.66 589.175 1513.66 Q594.546 1513.66 597.74 1516.35 Q600.935 1519.03 600.935 1523.52 Q600.935 1525.65 600.124 1527.57 Q599.337 1529.47 597.231 1532.07 Q596.652 1532.74 593.55 1535.95 Q590.448 1539.15 584.8 1544.91 Z" fill="#000000" fill-rule="nonzero" fill-opacity="1" /><path clip-path="url(#clip390)" d="M620.934 1517.37 Q617.323 1517.37 615.495 1520.93 Q613.689 1524.47 613.689 1531.6 Q613.689 1538.71 615.495 1542.27 Q617.323 1545.82 620.934 1545.82 Q624.569 1545.82 626.374 1542.27 Q628.203 1538.71 628.203 1531.6 Q628.203 1524.47 626.374 1520.93 Q624.569 1517.37 620.934 1517.37 M620.934 1513.66 Q626.745 1513.66 629.8 1518.27 Q632.879 1522.85 632.879 1531.6 Q632.879 1540.33 629.8 1544.94 Q626.745 1549.52 620.934 1549.52 Q615.124 1549.52 612.046 1544.94 Q608.99 1540.33 608.99 1531.6 Q608.99 1522.85 612.046 1518.27 Q615.124 1513.66 620.934 1513.66 Z" fill="#000000" fill-rule="nonzero" fill-opacity="1" /><path clip-path="url(#clip390)" d="M880.439 1532.02 L910.115 1532.02 L910.115 1535.95 L880.439 1535.95 L880.439 1532.02 Z" fill="#000000" fill-rule="nonzero" fill-opacity="1" /><path clip-path="url(#clip390)" d="M921.018 1544.91 L928.656 1544.91 L928.656 1518.55 L920.346 1520.21 L920.346 1515.95 L928.61 1514.29 L933.286 1514.29 L933.286 1544.91 L940.925 1544.91 L940.925 1548.85 L921.018 1548.85 L921.018 1544.91 Z" fill="#000000" fill-rule="nonzero" fill-opacity="1" /><path clip-path="url(#clip390)" d="M960.369 1517.37 Q956.758 1517.37 954.93 1520.93 Q953.124 1524.47 953.124 1531.6 Q953.124 1538.71 954.93 1542.27 Q956.758 1545.82 960.369 1545.82 Q964.004 1545.82 965.809 1542.27 Q967.638 1538.71 967.638 1531.6 Q967.638 1524.47 965.809 1520.93 Q964.004 1517.37 960.369 1517.37 M960.369 1513.66 Q966.179 1513.66 969.235 1518.27 Q972.314 1522.85 972.314 1531.6 Q972.314 1540.33 969.235 1544.94 Q966.179 1549.52 960.369 1549.52 Q954.559 1549.52 951.48 1544.94 Q948.425 1540.33 948.425 1531.6 Q948.425 1522.85 951.48 1518.27 Q954.559 1513.66 960.369 1513.66 Z" fill="#000000" fill-rule="nonzero" fill-opacity="1" /><path clip-path="url(#clip390)" d="M1265.81 1517.37 Q1262.2 1517.37 1260.37 1520.93 Q1258.57 1524.47 1258.57 1531.6 Q1258.57 1538.71 1260.37 1542.27 Q1262.2 1545.82 1265.81 1545.82 Q1269.45 1545.82 1271.25 1542.27 Q1273.08 1538.71 1273.08 1531.6 Q1273.08 1524.47 1271.25 1520.93 Q1269.45 1517.37 1265.81 1517.37 M1265.81 1513.66 Q1271.62 1513.66 1274.68 1518.27 Q1277.76 1522.85 1277.76 1531.6 Q1277.76 1540.33 1274.68 1544.94 Q1271.62 1549.52 1265.81 1549.52 Q1260 1549.52 1256.92 1544.94 Q1253.87 1540.33 1253.87 1531.6 Q1253.87 1522.85 1256.92 1518.27 Q1260 1513.66 1265.81 1513.66 Z" fill="#000000" fill-rule="nonzero" fill-opacity="1" /><path clip-path="url(#clip390)" d="M1579.93 1544.91 L1587.57 1544.91 L1587.57 1518.55 L1579.26 1520.21 L1579.26 1515.95 L1587.53 1514.29 L1592.2 1514.29 L1592.2 1544.91 L1599.84 1544.91 L1599.84 1548.85 L1579.93 1548.85 L1579.93 1544.91 Z" fill="#000000" fill-rule="nonzero" fill-opacity="1" /><path clip-path="url(#clip390)" d="M1619.29 1517.37 Q1615.67 1517.37 1613.85 1520.93 Q1612.04 1524.47 1612.04 1531.6 Q1612.04 1538.71 1613.85 1542.27 Q1615.67 1545.82 1619.29 1545.82 Q1622.92 1545.82 1624.73 1542.27 Q1626.55 1538.71 1626.55 1531.6 Q1626.55 1524.47 1624.73 1520.93 Q1622.92 1517.37 1619.29 1517.37 M1619.29 1513.66 Q1625.1 1513.66 1628.15 1518.27 Q1631.23 1522.85 1631.23 1531.6 Q1631.23 1540.33 1628.15 1544.94 Q1625.1 1549.52 1619.29 1549.52 Q1613.48 1549.52 1610.4 1544.94 Q1607.34 1540.33 1607.34 1531.6 Q1607.34 1522.85 1610.4 1518.27 Q1613.48 1513.66 1619.29 1513.66 Z" fill="#000000" fill-rule="nonzero" fill-opacity="1" /><path clip-path="url(#clip390)" d="M1923.45 1544.91 L1939.77 1544.91 L1939.77 1548.85 L1917.83 1548.85 L1917.83 1544.91 Q1920.49 1542.16 1925.07 1537.53 Q1929.68 1532.88 1930.86 1531.53 Q1933.11 1529.01 1933.99 1527.27 Q1934.89 1525.51 1934.89 1523.82 Q1934.89 1521.07 1932.94 1519.33 Q1931.02 1517.6 1927.92 1517.6 Q1925.72 1517.6 1923.27 1518.36 Q1920.84 1519.13 1918.06 1520.68 L1918.06 1515.95 Q1920.88 1514.82 1923.34 1514.24 Q1925.79 1513.66 1927.83 1513.66 Q1933.2 1513.66 1936.39 1516.35 Q1939.59 1519.03 1939.59 1523.52 Q1939.59 1525.65 1938.78 1527.57 Q1937.99 1529.47 1935.88 1532.07 Q1935.31 1532.74 1932.2 1535.95 Q1929.1 1539.15 1923.45 1544.91 Z" fill="#000000" fill-rule="nonzero" fill-opacity="1" /><path clip-path="url(#clip390)" d="M1959.59 1517.37 Q1955.98 1517.37 1954.15 1520.93 Q1952.34 1524.47 1952.34 1531.6 Q1952.34 1538.71 1954.15 1542.27 Q1955.98 1545.82 1959.59 1545.82 Q1963.22 1545.82 1965.03 1542.27 Q1966.86 1538.71 1966.86 1531.6 Q1966.86 1524.47 1965.03 1520.93 Q1963.22 1517.37 1959.59 1517.37 M1959.59 1513.66 Q1965.4 1513.66 1968.45 1518.27 Q1971.53 1522.85 1971.53 1531.6 Q1971.53 1540.33 1968.45 1544.94 Q1965.4 1549.52 1959.59 1549.52 Q1953.78 1549.52 1950.7 1544.94 Q1947.64 1540.33 1947.64 1531.6 Q1947.64 1522.85 1950.7 1518.27 Q1953.78 1513.66 1959.59 1513.66 Z" fill="#000000" fill-rule="nonzero" fill-opacity="1" /><path clip-path="url(#clip390)" d="M2272.96 1530.21 Q2276.31 1530.93 2278.19 1533.2 Q2280.09 1535.47 2280.09 1538.8 Q2280.09 1543.92 2276.57 1546.72 Q2273.05 1549.52 2266.57 1549.52 Q2264.39 1549.52 2262.08 1549.08 Q2259.79 1548.66 2257.33 1547.81 L2257.33 1543.29 Q2259.28 1544.43 2261.59 1545.01 Q2263.91 1545.58 2266.43 1545.58 Q2270.83 1545.58 2273.12 1543.85 Q2275.44 1542.11 2275.44 1538.8 Q2275.44 1535.75 2273.28 1534.03 Q2271.15 1532.3 2267.33 1532.3 L2263.31 1532.3 L2263.31 1528.45 L2267.52 1528.45 Q2270.97 1528.45 2272.8 1527.09 Q2274.63 1525.7 2274.63 1523.11 Q2274.63 1520.45 2272.73 1519.03 Q2270.85 1517.6 2267.33 1517.6 Q2265.41 1517.6 2263.21 1518.01 Q2261.01 1518.43 2258.38 1519.31 L2258.38 1515.14 Q2261.04 1514.4 2263.35 1514.03 Q2265.69 1513.66 2267.75 1513.66 Q2273.07 1513.66 2276.18 1516.09 Q2279.28 1518.5 2279.28 1522.62 Q2279.28 1525.49 2277.63 1527.48 Q2275.99 1529.45 2272.96 1530.21 Z" fill="#000000" fill-rule="nonzero" fill-opacity="1" /><path clip-path="url(#clip390)" d="M2298.95 1517.37 Q2295.34 1517.37 2293.51 1520.93 Q2291.71 1524.47 2291.71 1531.6 Q2291.71 1538.71 2293.51 1542.27 Q2295.34 1545.82 2298.95 1545.82 Q2302.59 1545.82 2304.39 1542.27 Q2306.22 1538.71 2306.22 1531.6 Q2306.22 1524.47 2304.39 1520.93 Q2302.59 1517.37 2298.95 1517.37 M2298.95 1513.66 Q2304.76 1513.66 2307.82 1518.27 Q2310.9 1522.85 2310.9 1531.6 Q2310.9 1540.33 2307.82 1544.94 Q2304.76 1549.52 2298.95 1549.52 Q2293.14 1549.52 2290.06 1544.94 Q2287.01 1540.33 2287.01 1531.6 Q2287.01 1522.85 2290.06 1518.27 Q2293.14 1513.66 2298.95 1513.66 Z" fill="#000000" fill-rule="nonzero" fill-opacity="1" /><polyline clip-path="url(#clip392)" style="stroke:#000000; stroke-linecap:round; stroke-linejoin:round; stroke-width:2; stroke-opacity:0.1; fill:none" points="178.867,1445.72 2352.76,1445.72 "/>
<polyline clip-path="url(#clip392)" style="stroke:#000000; stroke-linecap:round; stroke-linejoin:round; stroke-width:2; stroke-opacity:0.1; fill:none" points="178.867,1106.28 2352.76,1106.28 "/>
<polyline clip-path="url(#clip392)" style="stroke:#000000; stroke-linecap:round; stroke-linejoin:round; stroke-width:2; stroke-opacity:0.1; fill:none" points="178.867,766.846 2352.76,766.846 "/>
<polyline clip-path="url(#clip392)" style="stroke:#000000; stroke-linecap:round; stroke-linejoin:round; stroke-width:2; stroke-opacity:0.1; fill:none" points="178.867,427.411 2352.76,427.411 "/>
<polyline clip-path="url(#clip392)" style="stroke:#000000; stroke-linecap:round; stroke-linejoin:round; stroke-width:2; stroke-opacity:0.1; fill:none" points="178.867,87.9763 2352.76,87.9763 "/>
<polyline clip-path="url(#clip390)" style="stroke:#000000; stroke-linecap:round; stroke-linejoin:round; stroke-width:4; stroke-opacity:1; fill:none" points="178.867,1486.45 178.867,47.2441 "/>
<polyline clip-path="url(#clip390)" style="stroke:#000000; stroke-linecap:round; stroke-linejoin:round; stroke-width:4; stroke-opacity:1; fill:none" points="178.867,1445.72 197.764,1445.72 "/>
<polyline clip-path="url(#clip390)" style="stroke:#000000; stroke-linecap:round; stroke-linejoin:round; stroke-width:4; stroke-opacity:1; fill:none" points="178.867,1106.28 197.764,1106.28 "/>
<polyline clip-path="url(#clip390)" style="stroke:#000000; stroke-linecap:round; stroke-linejoin:round; stroke-width:4; stroke-opacity:1; fill:none" points="178.867,766.846 197.764,766.846 "/>
<polyline clip-path="url(#clip390)" style="stroke:#000000; stroke-linecap:round; stroke-linejoin:round; stroke-width:4; stroke-opacity:1; fill:none" points="178.867,427.411 197.764,427.411 "/>
<polyline clip-path="url(#clip390)" style="stroke:#000000; stroke-linecap:round; stroke-linejoin:round; stroke-width:4; stroke-opacity:1; fill:none" points="178.867,87.9763 197.764,87.9763 "/>
<path clip-path="url(#clip390)" d="M50.9921 1446.17 L80.6679 1446.17 L80.6679 1450.1 L50.9921 1450.1 L50.9921 1446.17 Z" fill="#000000" fill-rule="nonzero" fill-opacity="1" /><path clip-path="url(#clip390)" d="M94.7882 1459.06 L111.108 1459.06 L111.108 1463 L89.1632 1463 L89.1632 1459.06 Q91.8252 1456.31 96.4085 1451.68 Q101.015 1447.02 102.196 1445.68 Q104.441 1443.16 105.321 1441.42 Q106.223 1439.66 106.223 1437.97 Q106.223 1435.22 104.279 1433.48 Q102.358 1431.75 99.2558 1431.75 Q97.0567 1431.75 94.603 1432.51 Q92.1725 1433.27 89.3947 1434.82 L89.3947 1430.1 Q92.2188 1428.97 94.6724 1428.39 Q97.1261 1427.81 99.1632 1427.81 Q104.534 1427.81 107.728 1430.5 Q110.922 1433.18 110.922 1437.67 Q110.922 1439.8 110.112 1441.72 Q109.325 1443.62 107.219 1446.21 Q106.64 1446.88 103.538 1450.1 Q100.436 1453.3 94.7882 1459.06 Z" fill="#000000" fill-rule="nonzero" fill-opacity="1" /><path clip-path="url(#clip390)" d="M130.922 1431.51 Q127.311 1431.51 125.482 1435.08 Q123.677 1438.62 123.677 1445.75 Q123.677 1452.86 125.482 1456.42 Q127.311 1459.96 130.922 1459.96 Q134.556 1459.96 136.362 1456.42 Q138.191 1452.86 138.191 1445.75 Q138.191 1438.62 136.362 1435.08 Q134.556 1431.51 130.922 1431.51 M130.922 1427.81 Q136.732 1427.81 139.788 1432.42 Q142.867 1437 142.867 1445.75 Q142.867 1454.48 139.788 1459.08 Q136.732 1463.67 130.922 1463.67 Q125.112 1463.67 122.033 1459.08 Q118.978 1454.48 118.978 1445.75 Q118.978 1437 122.033 1432.42 Q125.112 1427.81 130.922 1427.81 Z" fill="#000000" fill-rule="nonzero" fill-opacity="1" /><path clip-path="url(#clip390)" d="M50.9921 1106.73 L80.6679 1106.73 L80.6679 1110.67 L50.9921 1110.67 L50.9921 1106.73 Z" fill="#000000" fill-rule="nonzero" fill-opacity="1" /><path clip-path="url(#clip390)" d="M91.5706 1119.63 L99.2095 1119.63 L99.2095 1093.26 L90.8993 1094.93 L90.8993 1090.67 L99.1632 1089 L103.839 1089 L103.839 1119.63 L111.478 1119.63 L111.478 1123.56 L91.5706 1123.56 L91.5706 1119.63 Z" fill="#000000" fill-rule="nonzero" fill-opacity="1" /><path clip-path="url(#clip390)" d="M130.922 1092.08 Q127.311 1092.08 125.482 1095.64 Q123.677 1099.19 123.677 1106.32 Q123.677 1113.42 125.482 1116.99 Q127.311 1120.53 130.922 1120.53 Q134.556 1120.53 136.362 1116.99 Q138.191 1113.42 138.191 1106.32 Q138.191 1099.19 136.362 1095.64 Q134.556 1092.08 130.922 1092.08 M130.922 1088.38 Q136.732 1088.38 139.788 1092.98 Q142.867 1097.57 142.867 1106.32 Q142.867 1115.04 139.788 1119.65 Q136.732 1124.23 130.922 1124.23 Q125.112 1124.23 122.033 1119.65 Q118.978 1115.04 118.978 1106.32 Q118.978 1097.57 122.033 1092.98 Q125.112 1088.38 130.922 1088.38 Z" fill="#000000" fill-rule="nonzero" fill-opacity="1" /><path clip-path="url(#clip390)" d="M130.922 752.645 Q127.311 752.645 125.482 756.209 Q123.677 759.751 123.677 766.881 Q123.677 773.987 125.482 777.552 Q127.311 781.094 130.922 781.094 Q134.556 781.094 136.362 777.552 Q138.191 773.987 138.191 766.881 Q138.191 759.751 136.362 756.209 Q134.556 752.645 130.922 752.645 M130.922 748.941 Q136.732 748.941 139.788 753.547 Q142.867 758.131 142.867 766.881 Q142.867 775.608 139.788 780.214 Q136.732 784.797 130.922 784.797 Q125.112 784.797 122.033 780.214 Q118.978 775.608 118.978 766.881 Q118.978 758.131 122.033 753.547 Q125.112 748.941 130.922 748.941 Z" fill="#000000" fill-rule="nonzero" fill-opacity="1" /><path clip-path="url(#clip390)" d="M91.5706 440.756 L99.2095 440.756 L99.2095 414.39 L90.8993 416.057 L90.8993 411.798 L99.1632 410.131 L103.839 410.131 L103.839 440.756 L111.478 440.756 L111.478 444.691 L91.5706 444.691 L91.5706 440.756 Z" fill="#000000" fill-rule="nonzero" fill-opacity="1" /><path clip-path="url(#clip390)" d="M130.922 413.21 Q127.311 413.21 125.482 416.775 Q123.677 420.316 123.677 427.446 Q123.677 434.552 125.482 438.117 Q127.311 441.659 130.922 441.659 Q134.556 441.659 136.362 438.117 Q138.191 434.552 138.191 427.446 Q138.191 420.316 136.362 416.775 Q134.556 413.21 130.922 413.21 M130.922 409.506 Q136.732 409.506 139.788 414.113 Q142.867 418.696 142.867 427.446 Q142.867 436.173 139.788 440.779 Q136.732 445.362 130.922 445.362 Q125.112 445.362 122.033 440.779 Q118.978 436.173 118.978 427.446 Q118.978 418.696 122.033 414.113 Q125.112 409.506 130.922 409.506 Z" fill="#000000" fill-rule="nonzero" fill-opacity="1" /><path clip-path="url(#clip390)" d="M94.7882 101.321 L111.108 101.321 L111.108 105.256 L89.1632 105.256 L89.1632 101.321 Q91.8252 98.5665 96.4085 93.9369 Q101.015 89.2841 102.196 87.9416 Q104.441 85.4184 105.321 83.6823 Q106.223 81.9231 106.223 80.2333 Q106.223 77.4786 104.279 75.7425 Q102.358 74.0064 99.2558 74.0064 Q97.0567 74.0064 94.603 74.7703 Q92.1725 75.5342 89.3947 77.0851 L89.3947 72.3629 Q92.2188 71.2287 94.6724 70.65 Q97.1261 70.0713 99.1632 70.0713 Q104.534 70.0713 107.728 72.7565 Q110.922 75.4416 110.922 79.9323 Q110.922 82.062 110.112 83.9832 Q109.325 85.8814 107.219 88.474 Q106.64 89.1453 103.538 92.3628 Q100.436 95.5573 94.7882 101.321 Z" fill="#000000" fill-rule="nonzero" fill-opacity="1" /><path clip-path="url(#clip390)" d="M130.922 73.775 Q127.311 73.775 125.482 77.3398 Q123.677 80.8814 123.677 88.011 Q123.677 95.1174 125.482 98.6822 Q127.311 102.224 130.922 102.224 Q134.556 102.224 136.362 98.6822 Q138.191 95.1174 138.191 88.011 Q138.191 80.8814 136.362 77.3398 Q134.556 73.775 130.922 73.775 M130.922 70.0713 Q136.732 70.0713 139.788 74.6777 Q142.867 79.261 142.867 88.011 Q142.867 96.7378 139.788 101.344 Q136.732 105.928 130.922 105.928 Q125.112 105.928 122.033 101.344 Q118.978 96.7378 118.978 88.011 Q118.978 79.261 122.033 74.6777 Q125.112 70.0713 130.922 70.0713 Z" fill="#000000" fill-rule="nonzero" fill-opacity="1" /><polyline clip-path="url(#clip392)" style="stroke:#0000ff; stroke-linecap:round; stroke-linejoin:round; stroke-width:4; stroke-opacity:1; fill:none" points="1153.63,1007.84 1153.8,1009.02 1154.13,1011.24 1154.74,1014.63 1155.45,1018.03 1156.27,1021.42 1157.19,1024.82 1158.25,1028.21 1159.42,1031.61 1160.59,1034.71 1160.7,1035 1162.13,1038.39 1163.67,1041.79 1163.98,1042.44 1165.36,1045.18 1167.18,1048.58 1167.38,1048.91 1169.18,1051.97 1170.77,1054.51 1171.32,1055.37 1173.65,1058.76 1174.16,1059.47 1176.17,1062.15 1177.56,1063.92 1178.89,1065.55 1180.95,1067.96 1181.83,1068.94 1184.35,1071.64 1185.02,1072.34 1187.74,1075.02 1188.5,1075.73 1191.14,1078.12 1192.29,1079.13 1194.53,1080.99 1196.46,1082.52 1197.92,1083.64 1201.06,1085.91 1201.32,1086.1 1204.71,1088.35 1206.23,1089.31 1208.11,1090.45 1211.5,1092.39 1212.09,1092.7 1214.9,1094.16 1218.29,1095.81 1218.92,1096.1 1221.68,1097.31 1225.08,1098.68 1227.24,1099.49 1228.47,1099.94 1231.87,1101.06 1235.26,1102.07 1238.32,1102.89 1238.66,1102.97 1242.05,1103.75 1245.45,1104.42 1248.84,1104.99 1252.23,1105.45 1255.63,1105.82 1259.02,1106.07 1262.42,1106.23 1265.81,1106.28 1269.21,1106.23 1272.6,1106.07 1275.99,1105.82 1279.39,1105.45 1282.78,1104.99 1286.18,1104.42 1289.57,1103.75 1292.97,1102.97 1293.3,1102.89 1296.36,1102.07 1299.75,1101.06 1303.15,1099.94 1304.38,1099.49 1306.54,1098.68 1309.94,1097.31 1312.7,1096.1 1313.33,1095.81 1316.73,1094.16 1319.54,1092.7 1320.12,1092.39 1323.52,1090.45 1325.39,1089.31 1326.91,1088.35 1330.3,1086.1 1330.56,1085.91 1333.7,1083.64 1335.16,1082.52 1337.09,1080.99 1339.33,1079.13 1340.49,1078.12 1343.13,1075.73 1343.88,1075.02 1346.6,1072.34 1347.28,1071.64 1349.79,1068.94 1350.67,1067.96 1352.73,1065.55 1354.06,1063.92 1355.45,1062.15 1357.46,1059.47 1357.97,1058.76 1360.3,1055.37 1360.85,1054.51 1362.44,1051.97 1364.25,1048.91 1364.44,1048.58 1366.26,1045.18 1367.64,1042.44 1367.96,1041.79 1369.5,1038.39 1370.92,1035 1371.04,1034.71 1372.2,1031.61 1373.37,1028.21 1374.43,1024.82 1375.35,1021.42 1376.17,1018.03 1376.88,1014.63 1377.49,1011.24 1377.82,1009.02 1377.99,1007.84 1378.38,1004.45 1378.67,1001.06 1378.85,997.662 1378.94,994.267 1378.92,990.873 1378.8,987.479 1378.58,984.084 1378.26,980.69 1377.84,977.296 1377.82,977.186 1377.3,973.901 1376.66,970.507 1375.91,967.113 1375.06,963.718 1374.43,961.496 1374.09,960.324 1372.99,956.93 1371.79,953.535 1371.04,951.582 1370.46,950.141 1369,946.746 1367.64,943.831 1367.41,943.352 1365.67,939.958 1364.25,937.368 1363.79,936.563 1361.75,933.169 1360.85,931.768 1359.54,929.775 1357.46,926.794 1357.16,926.38 1354.58,922.986 1354.06,922.345 1351.78,919.592 1350.67,918.316 1348.75,916.197 1347.28,914.634 1345.47,912.803 1343.88,911.258 1341.89,909.409 1340.49,908.15 1337.99,906.014 1337.09,905.279 1333.7,902.62 1330.3,900.183 1328.9,899.226 1326.91,897.92 1323.55,895.831 1323.52,895.812 1320.12,893.892 1317.38,892.437 1316.73,892.099 1313.33,890.468 1310.15,889.043 1309.94,888.952 1306.54,887.59 1303.15,886.338 1301.1,885.648 1299.75,885.209 1296.36,884.206 1292.97,883.309 1289.57,882.518 1288.27,882.254 1286.18,881.844 1282.78,881.282 1279.39,880.821 1275.99,880.463 1272.6,880.207 1269.21,880.053 1265.81,880.002 1262.42,880.053 1259.02,880.207 1255.63,880.463 1252.23,880.821 1248.84,881.282 1245.45,881.844 1243.36,882.254 1242.05,882.518 1238.66,883.309 1235.26,884.206 1231.87,885.209 1230.52,885.648 1228.47,886.338 1225.08,887.59 1221.68,888.952 1221.48,889.043 1218.29,890.468 1214.9,892.099 1214.24,892.437 1211.5,893.892 1208.11,895.812 1208.08,895.831 1204.71,897.92 1202.73,899.226 1201.32,900.183 1197.92,902.62 1194.53,905.279 1193.64,906.014 1191.14,908.15 1189.73,909.409 1187.74,911.258 1186.15,912.803 1184.35,914.634 1182.87,916.197 1180.95,918.316 1179.84,919.592 1177.56,922.345 1177.05,922.986 1174.46,926.38 1174.16,926.794 1172.09,929.775 1170.77,931.768 1169.88,933.169 1167.83,936.563 1167.38,937.368 1165.96,939.958 1164.21,943.352 1163.98,943.831 1162.63,946.746 1161.16,950.141 1160.59,951.582 1159.83,953.535 1158.63,956.93 1157.53,960.324 1157.19,961.496 1156.57,963.718 1155.71,967.113 1154.96,970.507 1154.32,973.901 1153.8,977.186 1153.78,977.296 1153.36,980.69 1153.04,984.084 1152.82,987.479 1152.7,990.873 1152.68,994.267 1152.77,997.662 1152.95,1001.06 1153.24,1004.45 1153.63,1007.84 "/>
<polyline clip-path="url(#clip392)" style="stroke:#0000ff; stroke-linecap:round; stroke-linejoin:round; stroke-width:4; stroke-opacity:1; fill:none" points="1374.25,661.621 1374.43,662.409 1375.08,665.016 1376.19,668.41 1377.57,671.804 1377.82,672.326 1379.34,675.199 1381.22,678.196 1381.49,678.593 1384.16,681.987 1384.61,682.489 1387.47,685.382 1388.01,685.863 1391.4,688.607 1391.64,688.776 1394.8,690.835 1397.14,692.17 1398.19,692.714 1401.59,694.251 1404.98,695.552 1405.02,695.565 1408.37,696.568 1411.77,697.389 1415.16,698.027 1418.56,698.492 1421.95,698.794 1425.35,698.941 1428.74,698.941 1432.13,698.803 1435.53,698.532 1438.92,698.136 1442.32,697.621 1445.71,696.993 1449.11,696.257 1451.9,695.565 1452.5,695.41 1455.89,694.428 1459.29,693.35 1462.68,692.179 1462.71,692.17 1466.08,690.861 1469.47,689.457 1471.01,688.776 1472.87,687.932 1476.26,686.294 1478.05,685.382 1479.66,684.54 1483.05,682.669 1484.23,681.987 1486.44,680.665 1489.79,678.593 1489.84,678.559 1493.23,676.282 1494.79,675.199 1496.63,673.879 1499.42,671.804 1500.02,671.341 1503.42,668.638 1503.69,668.41 1506.81,665.748 1507.64,665.016 1510.2,662.677 1511.33,661.621 1513.6,659.402 1514.77,658.227 1516.99,655.901 1517.99,654.832 1520.39,652.141 1521,651.438 1523.78,648.09 1523.82,648.044 1526.43,644.649 1527.18,643.634 1528.87,641.255 1530.57,638.754 1531.16,637.861 1533.27,634.466 1533.96,633.28 1535.22,631.072 1537.03,627.678 1537.36,627 1538.66,624.283 1540.15,620.889 1540.75,619.373 1541.48,617.495 1542.66,614.1 1543.69,610.706 1544.15,608.927 1544.55,607.312 1545.25,603.917 1545.79,600.523 1546.15,597.129 1546.34,593.734 1546.34,590.34 1546.14,586.946 1545.72,583.551 1545.08,580.157 1544.2,576.762 1544.15,576.616 1543,573.368 1541.5,569.974 1540.75,568.542 1539.64,566.579 1537.36,563.185 1534.51,559.791 1533.96,559.219 1530.99,556.396 1530.57,556.043 1527.18,553.463 1526.49,553.002 1523.78,551.345 1520.51,549.608 1520.39,549.548 1516.99,548.107 1513.6,546.893 1511.31,546.213 1510.2,545.911 1506.81,545.156 1503.42,544.577 1500.02,544.166 1496.63,543.913 1493.23,543.81 1489.84,543.849 1486.44,544.023 1483.05,544.326 1479.66,544.75 1476.26,545.291 1472.87,545.942 1471.66,546.213 1469.47,546.722 1466.08,547.619 1462.68,548.615 1459.6,549.608 1459.29,549.711 1455.89,550.948 1452.5,552.273 1450.76,553.002 1449.11,553.715 1445.71,555.275 1443.4,556.396 1442.32,556.938 1438.92,558.733 1437.01,559.791 1435.53,560.639 1432.13,562.668 1431.31,563.185 1428.74,564.841 1426.14,566.579 1425.35,567.13 1421.95,569.569 1421.41,569.974 1418.56,572.174 1417.06,573.368 1415.16,574.932 1413.01,576.762 1411.77,577.861 1409.25,580.157 1408.37,580.981 1405.73,583.551 1404.98,584.316 1402.46,586.946 1401.59,587.893 1399.39,590.34 1398.19,591.745 1396.53,593.734 1394.8,595.91 1393.85,597.129 1391.4,600.434 1391.34,600.523 1389.03,603.917 1388.01,605.497 1386.87,607.312 1384.86,610.706 1384.61,611.149 1383.03,614.1 1381.33,617.495 1381.22,617.736 1379.81,620.889 1378.43,624.283 1377.82,625.941 1377.21,627.678 1376.15,631.072 1375.23,634.466 1374.47,637.861 1374.43,638.07 1373.89,641.255 1373.48,644.649 1373.24,648.044 1373.19,651.438 1373.33,654.832 1373.68,658.227 1374.25,661.621 "/>
<polyline clip-path="url(#clip392)" style="stroke:#0000ff; stroke-linecap:round; stroke-linejoin:round; stroke-width:4; stroke-opacity:1; fill:none" points="1123.25,696.568 1119.85,697.389 1116.46,698.027 1113.07,698.492 1109.67,698.794 1106.28,698.941 1102.88,698.941 1099.49,698.803 1096.09,698.532 1092.7,698.136 1089.31,697.621 1085.91,696.993 1082.52,696.257 1079.73,695.565 1079.12,695.41 1075.73,694.428 1072.33,693.35 1068.94,692.179 1068.92,692.17 1065.54,690.861 1062.15,689.457 1060.61,688.776 1058.76,687.932 1055.36,686.294 1053.57,685.382 1051.97,684.54 1048.57,682.669 1047.39,681.987 1045.18,680.665 1041.84,678.593 1041.78,678.559 1038.39,676.282 1036.83,675.199 1035,673.879 1032.2,671.804 1031.6,671.341 1028.21,668.638 1027.93,668.41 1024.81,665.748 1023.98,665.016 1021.42,662.677 1020.3,661.621 1018.02,659.402 1016.85,658.227 1014.63,655.901 1013.64,654.832 1011.24,652.141 1010.62,651.438 1007.84,648.09 1007.8,648.044 1005.19,644.649 1004.45,643.634 1002.75,641.255 1001.05,638.754 1000.46,637.861 998.35,634.466 997.658,633.28 996.402,631.072 994.595,627.678 994.263,627 992.965,624.283 991.472,620.889 990.869,619.373 990.14,617.495 988.967,614.1 987.934,610.706 987.475,608.927 987.068,607.312 986.372,603.917 985.837,600.523 985.47,597.129 985.282,593.734 985.284,590.34 985.487,586.946 985.902,583.551 986.544,580.157 987.427,576.762 987.475,576.616 988.625,573.368 990.118,569.974 990.869,568.542 991.987,566.579 994.263,563.185 997.113,559.791 997.658,559.219 1000.63,556.396 1001.05,556.043 1004.45,553.463 1005.13,553.002 1007.84,551.345 1011.11,549.608 1011.24,549.548 1014.63,548.107 1018.02,546.893 1020.32,546.213 1021.42,545.911 1024.81,545.156 1028.21,544.577 1031.6,544.166 1035,543.913 1038.39,543.81 1041.78,543.849 1045.18,544.023 1048.57,544.326 1051.97,544.75 1055.36,545.291 1058.76,545.942 1059.96,546.213 1062.15,546.722 1065.54,547.619 1068.94,548.615 1072.02,549.608 1072.33,549.711 1075.73,550.948 1079.12,552.273 1080.87,553.002 1082.52,553.715 1085.91,555.275 1088.22,556.396 1089.31,556.938 1092.7,558.733 1094.61,559.791 1096.09,560.639 1099.49,562.668 1100.32,563.185 1102.88,564.841 1105.48,566.579 1106.28,567.13 1109.67,569.569 1110.21,569.974 1113.07,572.174 1114.57,573.368 1116.46,574.932 1118.61,576.762 1119.85,577.861 1122.38,580.157 1123.25,580.981 1125.89,583.551 1126.64,584.316 1129.17,586.946 1130.04,587.893 1132.23,590.34 1133.43,591.745 1135.09,593.734 1136.83,595.91 1137.77,597.129 1140.22,600.434 1140.28,600.523 1142.6,603.917 1143.61,605.497 1144.76,607.312 1146.77,610.706 1147.01,611.149 1148.59,614.1 1150.29,617.495 1150.4,617.736 1151.81,620.889 1153.19,624.283 1153.8,625.941 1154.42,627.678 1155.48,631.072 1156.39,634.466 1157.16,637.861 1157.19,638.07 1157.73,641.255 1158.14,644.649 1158.38,648.044 1158.43,651.438 1158.29,654.832 1157.94,658.227 1157.37,661.621 1157.19,662.409 1156.54,665.016 1155.44,668.41 1154.05,671.804 1153.8,672.326 1152.28,675.199 1150.4,678.196 1150.13,678.593 1147.46,681.987 1147.01,682.489 1144.15,685.382 1143.61,685.863 1140.22,688.607 1139.99,688.776 1136.83,690.835 1134.48,692.17 1133.43,692.714 1130.04,694.251 1126.64,695.552 1126.6,695.565 1123.25,696.568 "/>
<polyline clip-path="url(#clip392)" style="stroke:#0000ff; stroke-linecap:round; stroke-linejoin:round; stroke-width:4; stroke-opacity:1; fill:none" points="1523.78,507.948 1520.39,508.274 1516.99,508.488 1513.6,508.584 1510.2,508.556 1506.81,508.4 1503.42,508.108 1500.02,507.674 1496.63,507.091 1493.23,506.35 1489.97,505.481 1489.84,505.443 1486.44,504.328 1483.05,503.023 1480.93,502.087 1479.66,501.496 1476.26,499.713 1474.53,498.692 1472.87,497.657 1469.47,495.298 1466.08,492.549 1465.35,491.904 1462.68,489.375 1461.84,488.509 1459.29,485.682 1458.81,485.115 1456.18,481.721 1455.89,481.327 1453.88,478.326 1452.5,476.08 1451.84,474.932 1450.05,471.538 1449.11,469.583 1448.45,468.143 1447.06,464.749 1445.81,461.355 1445.71,461.044 1444.75,457.96 1443.81,454.566 1443,451.172 1442.32,447.836 1442.31,447.777 1441.74,444.383 1441.28,440.989 1440.92,437.594 1440.65,434.2 1440.47,430.805 1440.37,427.411 1440.36,424.017 1440.43,420.622 1440.58,417.228 1440.8,413.834 1441.09,410.439 1441.45,407.045 1441.87,403.651 1442.32,400.547 1442.36,400.256 1442.92,396.862 1443.55,393.468 1444.23,390.073 1444.97,386.679 1445.71,383.503 1445.76,383.285 1446.63,379.89 1447.55,376.496 1448.52,373.102 1449.11,371.152 1449.55,369.707 1450.64,366.313 1451.77,362.919 1452.5,360.84 1452.97,359.524 1454.22,356.13 1455.52,352.735 1455.89,351.784 1456.88,349.341 1458.29,345.947 1459.29,343.609 1459.75,342.552 1461.27,339.158 1462.68,336.086 1462.83,335.764 1464.47,332.369 1466.08,329.095 1466.14,328.975 1467.88,325.581 1469.47,322.544 1469.66,322.186 1471.52,318.792 1472.87,316.362 1473.41,315.398 1475.37,312.003 1476.26,310.492 1477.39,308.609 1479.45,305.215 1479.66,304.888 1481.59,301.82 1483.05,299.548 1483.78,298.426 1486.03,295.032 1486.44,294.421 1488.35,291.637 1489.84,289.506 1490.73,288.243 1493.17,284.848 1493.23,284.762 1495.69,281.454 1496.63,280.213 1498.28,278.06 1500.02,275.814 1500.93,274.665 1503.42,271.559 1503.65,271.271 1506.46,267.877 1506.81,267.454 1509.35,264.482 1510.2,263.488 1512.32,261.088 1513.6,259.646 1515.37,257.694 1516.99,255.925 1518.51,254.299 1520.39,252.32 1521.75,250.905 1523.78,248.827 1525.09,247.511 1527.18,245.442 1528.54,244.116 1530.57,242.162 1532.1,240.722 1533.96,238.984 1535.78,237.328 1537.36,235.903 1539.59,233.933 1540.75,232.917 1543.54,230.539 1544.15,230.022 1547.54,227.219 1547.63,227.145 1550.94,224.515 1551.92,223.75 1554.33,221.897 1556.38,220.356 1557.73,219.361 1561.04,216.962 1561.12,216.904 1564.51,214.548 1565.97,213.567 1567.91,212.27 1571.13,210.173 1571.3,210.064 1574.7,207.959 1576.66,206.778 1578.09,205.925 1581.49,203.974 1582.55,203.384 1584.88,202.111 1588.27,200.32 1588.93,199.99 1591.67,198.624 1595.06,196.998 1595.95,196.595 1598.46,195.467 1601.85,194.013 1603.85,193.201 1605.25,192.643 1608.64,191.366 1612.03,190.164 1613.13,189.807 1615.43,189.061 1618.82,188.047 1622.22,187.118 1625.07,186.412 1625.61,186.281 1629.01,185.551 1632.4,184.916 1635.8,184.379 1639.19,183.946 1642.58,183.619 1645.98,183.406 1649.37,183.31 1652.77,183.337 1656.16,183.493 1659.56,183.785 1662.95,184.219 1666.34,184.803 1669.74,185.543 1673,186.412 1673.13,186.45 1676.53,187.565 1679.92,188.871 1682.04,189.807 1683.32,190.398 1686.71,192.18 1688.44,193.201 1690.1,194.237 1693.5,196.595 1693.5,196.595 1696.89,199.344 1697.62,199.99 1700.29,202.519 1701.13,203.384 1703.68,206.212 1704.16,206.778 1706.79,210.173 1707.08,210.567 1709.09,213.567 1710.47,215.814 1711.13,216.962 1712.93,220.356 1713.87,222.311 1714.52,223.75 1715.91,227.145 1717.16,230.539 1717.26,230.849 1718.22,233.933 1719.16,237.328 1719.97,240.722 1720.65,244.058 1720.67,244.116 1721.23,247.511 1721.69,250.905 1722.05,254.299 1722.32,257.694 1722.5,261.088 1722.6,264.482 1722.61,267.877 1722.54,271.271 1722.39,274.665 1722.17,278.06 1721.88,281.454 1721.52,284.848 1721.1,288.243 1720.65,291.347 1720.61,291.637 1720.05,295.032 1719.42,298.426 1718.74,301.82 1718,305.215 1717.26,308.39 1717.21,308.609 1716.34,312.003 1715.42,315.398 1714.45,318.792 1713.87,320.742 1713.42,322.186 1712.33,325.581 1711.2,328.975 1710.47,331.054 1710,332.369 1708.75,335.764 1707.45,339.158 1707.08,340.11 1706.09,342.552 1704.68,345.947 1703.68,348.284 1703.22,349.341 1701.7,352.735 1700.29,355.808 1700.14,356.13 1698.5,359.524 1696.89,362.799 1696.83,362.919 1695.09,366.313 1693.5,369.35 1693.31,369.707 1691.46,373.102 1690.1,375.532 1689.56,376.496 1687.6,379.89 1686.71,381.402 1685.58,383.285 1683.52,386.679 1683.32,387.006 1681.38,390.073 1679.92,392.345 1679.19,393.468 1676.94,396.862 1676.53,397.473 1674.62,400.256 1673.13,402.388 1672.24,403.651 1669.8,407.045 1669.74,407.131 1667.28,410.439 1666.34,411.681 1664.69,413.834 1662.95,416.08 1662.04,417.228 1659.56,420.335 1659.32,420.622 1656.52,424.017 1656.16,424.439 1653.63,427.411 1652.77,428.406 1650.66,430.805 1649.37,432.247 1647.6,434.2 1645.98,435.969 1644.46,437.594 1642.58,439.574 1641.22,440.989 1639.19,443.067 1637.88,444.383 1635.8,446.451 1634.43,447.777 1632.4,449.731 1630.87,451.172 1629.01,452.91 1627.19,454.566 1625.61,455.991 1623.38,457.96 1622.22,458.977 1619.43,461.355 1618.82,461.871 1615.43,464.675 1615.34,464.749 1612.03,467.378 1611.05,468.143 1608.64,469.996 1606.59,471.538 1605.25,472.533 1601.93,474.932 1601.85,474.989 1598.46,477.345 1597,478.326 1595.06,479.624 1591.84,481.721 1591.67,481.829 1588.27,483.935 1586.31,485.115 1584.88,485.968 1581.49,487.919 1580.42,488.509 1578.09,489.783 1574.7,491.573 1574.04,491.904 1571.3,493.27 1567.91,494.895 1567.02,495.298 1564.51,496.427 1561.12,497.881 1559.12,498.692 1557.73,499.251 1554.33,500.528 1550.94,501.729 1549.85,502.087 1547.54,502.833 1544.15,503.847 1540.75,504.776 1537.9,505.481 1537.36,505.613 1533.96,506.342 1530.57,506.978 1527.18,507.514 1523.78,507.948 "/>
<polyline clip-path="url(#clip392)" style="stroke:#0000ff; stroke-linecap:round; stroke-linejoin:round; stroke-width:4; stroke-opacity:1; fill:none" points="1038.39,506.35 1035,507.091 1031.6,507.674 1028.21,508.108 1024.81,508.4 1021.42,508.556 1018.02,508.584 1014.63,508.488 1011.24,508.274 1007.84,507.948 1004.45,507.514 1001.05,506.978 997.658,506.342 994.263,505.613 993.724,505.481 990.869,504.776 987.475,503.847 984.08,502.833 981.777,502.087 980.686,501.729 977.292,500.528 973.897,499.251 972.506,498.692 970.503,497.881 967.109,496.427 964.6,495.298 963.714,494.895 960.32,493.27 957.581,491.904 956.926,491.573 953.531,489.783 951.204,488.509 950.137,487.919 946.743,485.968 945.31,485.115 943.348,483.935 939.954,481.829 939.785,481.721 936.559,479.624 934.618,478.326 933.165,477.345 929.771,474.989 929.691,474.932 926.376,472.533 925.036,471.538 922.982,469.996 920.572,468.143 919.588,467.378 916.285,464.749 916.193,464.675 912.799,461.871 912.188,461.355 909.405,458.977 908.241,457.96 906.01,455.991 904.431,454.566 902.616,452.91 900.75,451.172 899.222,449.731 897.19,447.777 895.827,446.451 893.744,444.383 892.433,443.067 890.404,440.989 889.039,439.574 887.165,437.594 885.644,435.969 884.021,434.2 882.25,432.247 880.966,430.805 878.856,428.406 877.997,427.411 875.461,424.439 875.107,424.017 872.301,420.622 872.067,420.335 869.58,417.228 868.672,416.08 866.928,413.834 865.278,411.681 864.343,410.439 861.884,407.131 861.821,407.045 859.384,403.651 858.489,402.388 857.006,400.256 855.095,397.473 854.683,396.862 852.433,393.468 851.701,392.345 850.244,390.073 848.306,387.006 848.103,386.679 846.038,383.285 844.912,381.402 844.022,379.89 842.063,376.496 841.518,375.532 840.167,373.102 838.314,369.707 838.123,369.35 836.534,366.313 834.789,362.919 834.729,362.799 833.12,359.524 831.485,356.13 831.335,355.808 829.923,352.735 828.4,349.341 827.94,348.284 826.94,345.947 825.53,342.552 824.546,340.11 824.169,339.158 822.873,335.764 821.618,332.369 821.152,331.054 820.426,328.975 819.29,325.581 818.199,322.186 817.757,320.742 817.171,318.792 816.202,315.398 815.283,312.003 814.415,308.609 814.363,308.39 813.621,305.215 812.883,301.82 812.2,298.426 811.576,295.032 811.011,291.637 810.969,291.347 810.522,288.243 810.098,284.848 809.739,281.454 809.449,278.06 809.23,274.665 809.084,271.271 809.014,267.877 809.025,264.482 809.118,261.088 809.298,257.694 809.568,254.299 809.931,250.905 810.393,247.511 810.957,244.116 810.969,244.058 811.652,240.722 812.464,237.328 813.399,233.933 814.363,230.849 814.465,230.539 815.711,227.145 817.106,223.75 817.757,222.311 818.697,220.356 820.491,216.962 821.152,215.814 822.533,213.567 824.546,210.567 824.829,210.173 827.466,206.778 827.94,206.212 830.495,203.384 831.335,202.519 834.002,199.99 834.729,199.344 838.123,196.595 838.123,196.595 841.518,194.237 843.178,193.201 844.912,192.18 848.306,190.398 849.578,189.807 851.701,188.871 855.095,187.565 858.489,186.45 858.625,186.412 861.884,185.543 865.278,184.803 868.672,184.219 872.067,183.785 875.461,183.493 878.856,183.337 882.25,183.31 885.644,183.406 889.039,183.619 892.433,183.946 895.827,184.379 899.222,184.916 902.616,185.551 906.01,186.281 906.55,186.412 909.405,187.118 912.799,188.047 916.193,189.061 918.496,189.807 919.588,190.164 922.982,191.366 926.376,192.643 927.768,193.201 929.771,194.013 933.165,195.467 935.673,196.595 936.559,196.998 939.954,198.624 942.693,199.99 943.348,200.32 946.743,202.111 949.069,203.384 950.137,203.974 953.531,205.925 954.964,206.778 956.926,207.959 960.32,210.064 960.488,210.173 963.714,212.27 965.656,213.567 967.109,214.548 970.503,216.904 970.583,216.962 973.897,219.361 975.238,220.356 977.292,221.897 979.702,223.75 980.686,224.515 983.988,227.145 984.08,227.219 987.475,230.022 988.086,230.539 990.869,232.917 992.033,233.933 994.263,235.903 995.842,237.328 997.658,238.984 999.523,240.722 1001.05,242.162 1003.08,244.116 1004.45,245.442 1006.53,247.511 1007.84,248.827 1009.87,250.905 1011.24,252.32 1013.11,254.299 1014.63,255.925 1016.25,257.694 1018.02,259.646 1019.31,261.088 1021.42,263.488 1022.28,264.482 1024.81,267.454 1025.17,267.877 1027.97,271.271 1028.21,271.559 1030.69,274.665 1031.6,275.814 1033.35,278.06 1035,280.213 1035.93,281.454 1038.39,284.762 1038.45,284.848 1040.89,288.243 1041.78,289.506 1043.27,291.637 1045.18,294.421 1045.59,295.032 1047.84,298.426 1048.57,299.548 1050.03,301.82 1051.97,304.888 1052.17,305.215 1054.24,308.609 1055.36,310.492 1056.25,312.003 1058.21,315.398 1058.76,316.362 1060.11,318.792 1061.96,322.186 1062.15,322.544 1063.74,325.581 1065.48,328.975 1065.54,329.095 1067.15,332.369 1068.79,335.764 1068.94,336.086 1070.35,339.158 1071.87,342.552 1072.33,343.609 1073.33,345.947 1074.74,349.341 1075.73,351.784 1076.11,352.735 1077.4,356.13 1078.66,359.524 1079.12,360.84 1079.85,362.919 1080.98,366.313 1082.07,369.707 1082.52,371.152 1083.1,373.102 1084.07,376.496 1084.99,379.89 1085.86,383.285 1085.91,383.503 1086.65,386.679 1087.39,390.073 1088.07,393.468 1088.7,396.862 1089.26,400.256 1089.31,400.547 1089.75,403.651 1090.18,407.045 1090.53,410.439 1090.82,413.834 1091.04,417.228 1091.19,420.622 1091.26,424.017 1091.25,427.411 1091.16,430.805 1090.98,434.2 1090.71,437.594 1090.34,440.989 1089.88,444.383 1089.32,447.777 1089.31,447.836 1088.62,451.172 1087.81,454.566 1086.87,457.96 1085.91,461.044 1085.81,461.355 1084.56,464.749 1083.17,468.143 1082.52,469.583 1081.58,471.538 1079.78,474.932 1079.12,476.08 1077.74,478.326 1075.73,481.327 1075.44,481.721 1072.81,485.115 1072.33,485.682 1069.78,488.509 1068.94,489.375 1066.27,491.904 1065.54,492.549 1062.15,495.298 1058.76,497.657 1057.1,498.692 1055.36,499.713 1051.97,501.496 1050.7,502.087 1048.57,503.023 1045.18,504.328 1041.78,505.443 1041.65,505.481 1038.39,506.35 "/>
<circle clip-path="url(#clip392)" cx="1265.81" cy="1106.28" r="14.4" fill="#000000" fill-rule="evenodd" fill-opacity="1" stroke="none"/>
<circle clip-path="url(#clip392)" cx="1537.36" cy="563.185" r="14.4" fill="#000000" fill-rule="evenodd" fill-opacity="1" stroke="none"/>
<circle clip-path="url(#clip392)" cx="994.263" cy="563.185" r="14.4" fill="#000000" fill-rule="evenodd" fill-opacity="1" stroke="none"/>
<circle clip-path="url(#clip392)" cx="1469.47" cy="495.298" r="14.4" fill="#000000" fill-rule="evenodd" fill-opacity="1" stroke="none"/>
<circle clip-path="url(#clip392)" cx="1062.15" cy="495.298" r="14.4" fill="#000000" fill-rule="evenodd" fill-opacity="1" stroke="none"/>
<polyline clip-path="url(#clip392)" style="stroke:#ff0000; stroke-linecap:round; stroke-linejoin:round; stroke-width:4; stroke-opacity:1; fill:none" points="1026.79,1007.84 1028.21,1009.25 1030.26,1011.24 1031.6,1012.53 1033.83,1014.63 1035,1015.72 1037.51,1018.03 1038.39,1018.83 1041.3,1021.42 1041.78,1021.85 1045.18,1024.79 1045.2,1024.82 1048.57,1027.66 1049.24,1028.21 1051.97,1030.44 1053.41,1031.61 1055.36,1033.16 1057.71,1035 1058.76,1035.81 1062.15,1038.39 1062.15,1038.39 1065.54,1040.9 1066.76,1041.79 1068.94,1043.35 1071.54,1045.18 1072.33,1045.74 1075.73,1048.06 1076.49,1048.58 1079.12,1050.32 1081.64,1051.97 1082.52,1052.53 1085.91,1054.68 1087.01,1055.37 1089.31,1056.77 1092.6,1058.76 1092.7,1058.82 1096.09,1060.8 1098.46,1062.15 1099.49,1062.74 1102.88,1064.62 1104.6,1065.55 1106.28,1066.45 1109.67,1068.23 1111.05,1068.94 1113.07,1069.97 1116.46,1071.65 1117.86,1072.34 1119.85,1073.29 1123.25,1074.89 1125.09,1075.73 1126.64,1076.44 1130.04,1077.94 1132.79,1079.13 1133.43,1079.4 1136.83,1080.81 1140.22,1082.19 1141.06,1082.52 1143.61,1083.52 1147.01,1084.81 1150.01,1085.91 1150.4,1086.06 1153.8,1087.26 1157.19,1088.43 1159.83,1089.31 1160.59,1089.56 1163.98,1090.64 1167.38,1091.69 1170.77,1092.7 1170.77,1092.7 1174.16,1093.67 1177.56,1094.6 1180.95,1095.5 1183.31,1096.1 1184.35,1096.36 1187.74,1097.18 1191.14,1097.96 1194.53,1098.71 1197.92,1099.42 1198.27,1099.49 1201.32,1100.1 1204.71,1100.73 1208.11,1101.34 1211.5,1101.9 1214.9,1102.44 1217.94,1102.89 1218.29,1102.94 1221.68,1103.4 1225.08,1103.82 1228.47,1104.22 1231.87,1104.58 1235.26,1104.9 1238.66,1105.19 1242.05,1105.45 1245.45,1105.67 1248.84,1105.85 1252.23,1106.01 1255.63,1106.13 1259.02,1106.21 1262.42,1106.26 1265.81,1106.28 1265.81,1106.28 1265.81,1106.28 1269.21,1106.26 1272.6,1106.21 1275.99,1106.13 1279.39,1106.01 1282.78,1105.85 1286.18,1105.67 1289.57,1105.45 1292.97,1105.19 1296.36,1104.9 1299.75,1104.58 1303.15,1104.22 1306.54,1103.82 1309.94,1103.4 1313.33,1102.94 1313.68,1102.89 1316.73,1102.44 1320.12,1101.9 1323.52,1101.34 1326.91,1100.73 1330.3,1100.1 1333.35,1099.49 1333.7,1099.42 1337.09,1098.71 1340.49,1097.96 1343.88,1097.18 1347.28,1096.36 1348.31,1096.1 1350.67,1095.5 1354.06,1094.6 1357.46,1093.67 1360.85,1092.7 1360.85,1092.7 1364.25,1091.69 1367.64,1090.64 1371.04,1089.56 1371.79,1089.31 1374.43,1088.43 1377.82,1087.26 1381.22,1086.06 1381.61,1085.91 1384.61,1084.81 1388.01,1083.52 1390.57,1082.52 1391.4,1082.19 1394.8,1080.81 1398.19,1079.4 1398.84,1079.13 1401.59,1077.94 1404.98,1076.44 1406.53,1075.73 1408.37,1074.89 1411.77,1073.29 1413.76,1072.34 1415.16,1071.65 1418.56,1069.97 1420.57,1068.94 1421.95,1068.23 1425.35,1066.45 1427.02,1065.55 1428.74,1064.62 1432.13,1062.74 1433.16,1062.15 1435.53,1060.8 1438.92,1058.82 1439.02,1058.76 1442.32,1056.77 1444.61,1055.37 1445.71,1054.68 1449.11,1052.53 1449.98,1051.97 1452.5,1050.32 1455.13,1048.58 1455.89,1048.06 1459.29,1045.74 1460.09,1045.18 1462.68,1043.35 1464.86,1041.79 1466.08,1040.9 1469.47,1038.39 1469.47,1038.39 1472.87,1035.81 1473.92,1035 1476.26,1033.16 1478.22,1031.61 1479.66,1030.44 1482.38,1028.21 1483.05,1027.66 1486.42,1024.82 1486.44,1024.79 1489.84,1021.85 1490.32,1021.42 1493.23,1018.83 1494.11,1018.03 1496.63,1015.72 1497.79,1014.63 1500.02,1012.53 1501.36,1011.24 1503.42,1009.25 1504.84,1007.84 1506.81,1005.87 1508.21,1004.45 1510.2,1002.4 1511.49,1001.06 1513.6,998.826 1514.68,997.662 1516.99,995.147 1517.79,994.267 1520.39,991.358 1520.81,990.873 1523.76,987.479 1523.78,987.452 1526.62,984.084 1527.18,983.416 1529.41,980.69 1530.57,979.251 1532.13,977.296 1533.96,974.95 1534.78,973.901 1537.36,970.507 1537.36,970.507 1539.87,967.113 1540.75,965.894 1542.32,963.718 1544.15,961.121 1544.7,960.324 1547.03,956.93 1547.54,956.165 1549.29,953.535 1550.94,951.013 1551.5,950.141 1553.65,946.746 1554.33,945.647 1555.74,943.352 1557.73,940.057 1557.78,939.958 1559.77,936.563 1561.12,934.198 1561.7,933.169 1563.58,929.775 1564.51,928.06 1565.42,926.38 1567.2,922.986 1567.91,921.606 1568.93,919.592 1570.62,916.197 1571.3,914.793 1572.26,912.803 1573.85,909.409 1574.7,907.568 1575.4,906.014 1576.9,902.62 1578.09,899.87 1578.37,899.226 1579.78,895.831 1581.16,892.437 1581.49,891.6 1582.48,889.043 1583.77,885.648 1584.88,882.647 1585.02,882.254 1586.23,878.859 1587.39,875.465 1588.27,872.825 1588.52,872.071 1589.61,868.676 1590.66,865.282 1591.67,861.888 1591.67,861.888 1592.64,858.493 1593.57,855.099 1594.47,851.705 1595.06,849.349 1595.32,848.31 1596.14,844.916 1596.93,841.522 1597.67,838.127 1598.39,834.733 1598.46,834.385 1599.06,831.339 1599.7,827.944 1600.3,824.55 1600.87,821.156 1601.4,817.761 1601.85,814.718 1601.9,814.367 1602.36,810.973 1602.79,807.578 1603.18,804.184 1603.54,800.789 1603.86,797.395 1604.15,794.001 1604.41,790.606 1604.63,787.212 1604.82,783.818 1604.97,780.423 1605.09,777.029 1605.18,773.635 1605.23,770.24 1605.25,766.846 1605.25,766.846 1605.25,766.846 1605.23,763.452 1605.18,760.057 1605.09,756.663 1604.97,753.269 1604.82,749.874 1604.63,746.48 1604.41,743.086 1604.15,739.691 1603.86,736.297 1603.54,732.902 1603.18,729.508 1602.79,726.114 1602.36,722.719 1601.9,719.325 1601.85,718.974 1601.4,715.931 1600.87,712.536 1600.3,709.142 1599.7,705.748 1599.06,702.353 1598.46,699.307 1598.39,698.959 1597.67,695.565 1596.93,692.17 1596.14,688.776 1595.32,685.382 1595.06,684.343 1594.47,681.987 1593.57,678.593 1592.64,675.199 1591.67,671.804 1591.67,671.804 1590.66,668.41 1589.61,665.016 1588.52,661.621 1588.27,660.867 1587.39,658.227 1586.23,654.832 1585.02,651.438 1584.88,651.045 1583.77,648.044 1582.48,644.649 1581.49,642.092 1581.16,641.255 1579.78,637.861 1578.37,634.466 1578.09,633.822 1576.9,631.072 1575.4,627.678 1574.7,626.124 1573.85,624.283 1572.26,620.889 1571.3,618.899 1570.62,617.495 1568.93,614.1 1567.91,612.086 1567.2,610.706 1565.42,607.312 1564.51,605.632 1563.58,603.917 1561.7,600.523 1561.12,599.494 1559.77,597.129 1557.78,593.734 1557.73,593.635 1555.74,590.34 1554.33,588.045 1553.65,586.946 1551.5,583.551 1550.94,582.679 1549.29,580.157 1547.54,577.527 1547.03,576.762 1544.7,573.368 1544.15,572.571 1542.32,569.974 1540.75,567.798 1539.87,566.579 1537.36,563.185 1534.78,559.791 1533.96,558.742 1532.13,556.396 1530.57,554.441 1529.41,553.002 1527.18,550.276 1526.62,549.608 1523.78,546.24 1523.76,546.213 1520.81,542.819 1520.39,542.334 1517.79,539.425 1516.99,538.545 1514.68,536.03 1513.6,534.866 1511.49,532.636 1510.2,531.293 1508.21,529.242 1506.81,527.821 1504.84,525.847 1503.42,524.447 1501.36,522.453 1500.02,521.165 1497.79,519.059 1496.63,517.973 1494.11,515.664 1493.23,514.867 1490.32,512.27 1489.84,511.843 1486.44,508.898 1486.42,508.875 1483.05,506.036 1482.38,505.481 1479.66,503.247 1478.22,502.087 1476.26,500.53 1473.92,498.692 1472.87,497.881 1469.47,495.298 1466.08,492.789 1464.86,491.904 1462.68,490.342 1460.09,488.509 1459.29,487.954 1455.89,485.629 1455.13,485.115 1452.5,483.367 1449.98,481.721 1449.11,481.158 1445.71,479.009 1444.61,478.326 1442.32,476.917 1439.02,474.932 1438.92,474.873 1435.53,472.891 1433.16,471.538 1432.13,470.956 1428.74,469.074 1427.02,468.143 1425.35,467.242 1421.95,465.459 1420.57,464.749 1418.56,463.725 1415.16,462.037 1413.76,461.355 1411.77,460.398 1408.37,458.804 1406.53,457.96 1404.98,457.255 1401.59,455.753 1398.84,454.566 1398.19,454.291 1394.8,452.878 1391.4,451.502 1390.57,451.172 1388.01,450.173 1384.61,448.884 1381.61,447.777 1381.22,447.634 1377.82,446.43 1374.43,445.263 1371.79,444.383 1371.04,444.134 1367.64,443.05 1364.25,442.001 1360.85,440.989 1360.85,440.989 1357.46,440.021 1354.06,439.089 1350.67,438.192 1348.31,437.594 1347.28,437.333 1343.88,436.515 1340.49,435.732 1337.09,434.983 1333.7,434.269 1333.35,434.2 1330.3,433.597 1326.91,432.959 1323.52,432.356 1320.12,431.788 1316.73,431.253 1313.68,430.805 1313.33,430.754 1309.94,430.294 1306.54,429.867 1303.15,429.475 1299.75,429.117 1296.36,428.793 1292.97,428.503 1289.57,428.247 1286.18,428.025 1282.78,427.838 1279.39,427.684 1275.99,427.565 1272.6,427.479 1269.21,427.428 1265.81,427.411 1262.42,427.428 1259.02,427.479 1255.63,427.565 1252.23,427.684 1248.84,427.838 1245.45,428.025 1242.05,428.247 1238.66,428.503 1235.26,428.793 1231.87,429.117 1228.47,429.475 1225.08,429.867 1221.68,430.294 1218.29,430.754 1217.94,430.805 1214.9,431.253 1211.5,431.788 1208.11,432.356 1204.71,432.959 1201.32,433.597 1198.27,434.2 1197.92,434.269 1194.53,434.983 1191.14,435.732 1187.74,436.515 1184.35,437.333 1183.31,437.594 1180.95,438.192 1177.56,439.089 1174.16,440.021 1170.77,440.989 1167.38,442.001 1163.98,443.05 1160.59,444.134 1159.83,444.383 1157.19,445.263 1153.8,446.43 1150.4,447.634 1150.01,447.777 1147.01,448.884 1143.61,450.173 1141.06,451.172 1140.22,451.502 1136.83,452.878 1133.43,454.291 1132.79,454.566 1130.04,455.753 1126.64,457.255 1125.09,457.96 1123.25,458.804 1119.85,460.398 1117.86,461.355 1116.46,462.037 1113.07,463.725 1111.05,464.749 1109.67,465.459 1106.28,467.242 1104.6,468.143 1102.88,469.074 1099.49,470.956 1098.46,471.538 1096.09,472.891 1092.7,474.873 1092.6,474.932 1089.31,476.917 1087.01,478.326 1085.91,479.009 1082.52,481.158 1081.64,481.721 1079.12,483.367 1076.49,485.115 1075.73,485.629 1072.33,487.954 1071.54,488.509 1068.94,490.342 1066.76,491.904 1065.54,492.789 1062.15,495.298 1058.76,497.881 1057.71,498.692 1055.36,500.53 1053.41,502.087 1051.97,503.247 1049.24,505.481 1048.57,506.036 1045.2,508.875 1045.18,508.898 1041.78,511.843 1041.3,512.27 1038.39,514.867 1037.51,515.664 1035,517.973 1033.83,519.059 1031.6,521.165 1030.26,522.453 1028.21,524.447 1026.79,525.847 1024.81,527.821 1023.41,529.242 1021.42,531.293 1020.13,532.636 1018.02,534.866 1016.94,536.03 1014.63,538.545 1013.83,539.425 1011.24,542.334 1010.81,542.819 1007.86,546.213 1007.84,546.24 1005,549.608 1004.45,550.276 1002.21,553.002 1001.05,554.441 999.495,556.396 997.658,558.742 996.847,559.791 994.263,563.185 991.755,566.579 990.869,567.798 989.307,569.974 987.475,572.571 986.919,573.368 984.595,576.762 984.08,577.527 982.332,580.157 980.686,582.679 980.124,583.551 977.975,586.946 977.292,588.045 975.882,590.34 973.897,593.635 973.838,593.734 971.857,597.129 970.503,599.494 969.921,600.523 968.04,603.917 967.109,605.632 966.207,607.312 964.424,610.706 963.714,612.086 962.69,614.1 961.003,617.495 960.32,618.899 959.363,620.889 957.769,624.283 956.926,626.124 956.221,627.678 954.718,631.072 953.531,633.822 953.256,634.466 951.843,637.861 950.467,641.255 950.137,642.092 949.139,644.649 947.85,648.044 946.743,651.045 946.599,651.438 945.396,654.832 944.228,658.227 943.348,660.867 943.099,661.621 942.015,665.016 940.967,668.41 939.954,671.804 939.954,671.804 938.987,675.199 938.054,678.593 937.157,681.987 936.559,684.343 936.298,685.382 935.48,688.776 934.697,692.17 933.948,695.565 933.235,698.959 933.165,699.307 932.562,702.353 931.925,705.748 931.321,709.142 930.753,712.536 930.219,715.931 929.771,718.974 929.72,719.325 929.259,722.719 928.833,726.114 928.44,729.508 928.082,732.902 927.758,736.297 927.468,739.691 927.212,743.086 926.99,746.48 926.803,749.874 926.649,753.269 926.53,756.663 926.445,760.057 926.393,763.452 926.376,766.846 926.376,766.846 926.376,766.846 926.393,770.24 926.445,773.635 926.53,777.029 926.649,780.423 926.803,783.818 926.99,787.212 927.212,790.606 927.468,794.001 927.758,797.395 928.082,800.789 928.44,804.184 928.833,807.578 929.259,810.973 929.72,814.367 929.771,814.718 930.219,817.761 930.753,821.156 931.321,824.55 931.925,827.944 932.562,831.339 933.165,834.385 933.235,834.733 933.948,838.127 934.697,841.522 935.48,844.916 936.298,848.31 936.559,849.349 937.157,851.705 938.054,855.099 938.987,858.493 939.954,861.888 939.954,861.888 940.967,865.282 942.015,868.676 943.099,872.071 943.348,872.825 944.228,875.465 945.396,878.859 946.599,882.254 946.743,882.647 947.85,885.648 949.139,889.043 950.137,891.6 950.467,892.437 951.843,895.831 953.256,899.226 953.531,899.87 954.718,902.62 956.221,906.014 956.926,907.568 957.769,909.409 959.363,912.803 960.32,914.793 961.003,916.197 962.69,919.592 963.714,921.606 964.424,922.986 966.207,926.38 967.109,928.06 968.04,929.775 969.921,933.169 970.503,934.198 971.857,936.563 973.838,939.958 973.897,940.057 975.882,943.352 977.292,945.647 977.975,946.746 980.124,950.141 980.686,951.013 982.332,953.535 984.08,956.165 984.595,956.93 986.919,960.324 987.475,961.121 989.307,963.718 990.869,965.894 991.755,967.113 994.263,970.507 994.263,970.507 996.847,973.901 997.658,974.95 999.495,977.296 1001.05,979.251 1002.21,980.69 1004.45,983.416 1005,984.084 1007.84,987.452 1007.86,987.479 1010.81,990.873 1011.24,991.358 1013.83,994.267 1014.63,995.147 1016.94,997.662 1018.02,998.826 1020.13,1001.06 1021.42,1002.4 1023.41,1004.45 1024.81,1005.87 1026.79,1007.84 "/>
<path clip-path="url(#clip390)" d="M559.772 1412.83 Q560.193 1413.25 560.193 1413.85 Q560.193 1414.45 559.772 1414.87 Q559.35 1415.29 558.753 1415.29 L513.711 1415.29 Q513.114 1415.29 512.693 1414.87 Q512.271 1414.45 512.271 1413.85 Q512.271 1413.25 512.693 1412.83 Q513.114 1412.41 513.711 1412.41 L558.753 1412.41 Q559.35 1412.41 559.772 1412.83 Z" fill="#000000" fill-rule="nonzero" fill-opacity="1" /><path clip-path="url(#clip390)" d="M567.704 1408.83 Q567.704 1398.25 570.374 1392.49 Q574.098 1383.92 582.881 1383.92 Q584.743 1383.92 586.676 1384.44 Q588.643 1384.94 591.103 1386.87 Q593.597 1388.8 595.108 1391.96 Q597.989 1398.08 597.989 1408.83 Q597.989 1419.33 595.319 1425.06 Q591.419 1433.42 582.811 1433.42 Q579.579 1433.42 576.276 1431.77 Q573.009 1430.12 570.936 1426.15 Q567.704 1420.21 567.704 1408.83 M573.676 1407.95 Q573.676 1418.8 574.449 1423.13 Q575.328 1427.8 577.717 1429.84 Q580.141 1431.84 582.811 1431.84 Q585.692 1431.84 588.081 1429.7 Q590.505 1427.52 591.243 1422.85 Q592.051 1418.24 592.016 1407.95 Q592.016 1397.94 591.313 1393.93 Q590.365 1389.26 587.835 1387.4 Q585.341 1385.5 582.811 1385.5 Q581.863 1385.5 580.844 1385.78 Q579.86 1386.06 578.419 1386.87 Q576.979 1387.68 575.855 1389.68 Q574.765 1391.68 574.238 1394.7 Q573.676 1398.6 573.676 1407.95 Z" fill="#000000" fill-rule="nonzero" fill-opacity="1" /><path clip-path="url(#clip390)" d="M604.426 1430.68 Q603.336 1429.52 603.336 1428.01 Q603.336 1426.5 604.426 1425.41 Q605.515 1424.29 607.166 1424.29 Q608.747 1424.29 609.801 1425.34 Q610.89 1426.36 610.89 1428.05 Q610.89 1429.7 609.731 1430.79 Q608.606 1431.84 607.166 1431.84 Q605.515 1431.84 604.426 1430.68 Z" fill="#000000" fill-rule="nonzero" fill-opacity="1" /><path clip-path="url(#clip390)" d="M623.136 1408.83 Q623.136 1398.25 625.806 1392.49 Q629.531 1383.92 638.314 1383.92 Q640.176 1383.92 642.108 1384.44 Q644.076 1384.94 646.535 1386.87 Q649.03 1388.8 650.541 1391.96 Q653.422 1398.08 653.422 1408.83 Q653.422 1419.33 650.751 1425.06 Q646.852 1433.42 638.244 1433.42 Q635.011 1433.42 631.709 1431.77 Q628.441 1430.12 626.369 1426.15 Q623.136 1420.21 623.136 1408.83 M629.109 1407.95 Q629.109 1418.8 629.882 1423.13 Q630.76 1427.8 633.149 1429.84 Q635.574 1431.84 638.244 1431.84 Q641.125 1431.84 643.514 1429.7 Q645.938 1427.52 646.676 1422.85 Q647.484 1418.24 647.449 1407.95 Q647.449 1397.94 646.746 1393.93 Q645.798 1389.26 643.268 1387.4 Q640.773 1385.5 638.244 1385.5 Q637.295 1385.5 636.276 1385.78 Q635.293 1386.06 633.852 1386.87 Q632.412 1387.68 631.287 1389.68 Q630.198 1391.68 629.671 1394.7 Q629.109 1398.6 629.109 1407.95 Z" fill="#000000" fill-rule="nonzero" fill-opacity="1" /><path clip-path="url(#clip390)" d="M656.649 1390.77 L656.649 1388.52 Q665.292 1388.52 669.754 1383.92 Q670.984 1383.92 671.194 1384.2 Q671.405 1384.48 671.405 1385.78 L671.405 1426.15 Q671.405 1428.29 672.459 1428.96 Q673.513 1429.63 678.116 1429.63 L680.399 1429.63 L680.399 1431.84 Q677.87 1431.63 668.735 1431.63 Q659.6 1431.63 657.106 1431.84 L657.106 1429.63 L659.39 1429.63 Q663.922 1429.63 665.011 1428.99 Q666.1 1428.33 666.1 1426.15 L666.1 1388.87 Q662.341 1390.77 656.649 1390.77 Z" fill="#000000" fill-rule="nonzero" fill-opacity="1" /><path clip-path="url(#clip390)" d="M728.118 1404.79 Q728.118 1406.75 726.889 1407.88 Q725.659 1408.97 724.254 1408.97 Q722.918 1408.97 722.216 1408.19 Q721.513 1407.42 721.513 1406.44 Q721.513 1405.1 722.497 1403.94 Q723.481 1402.78 724.956 1402.54 Q723.516 1401.62 721.373 1401.62 Q719.967 1401.62 718.738 1402.36 Q717.543 1403.1 716.805 1404.05 Q716.103 1405 715.47 1406.37 Q714.873 1407.7 714.627 1408.51 Q714.416 1409.28 714.24 1410.13 L711.781 1419.96 Q710.587 1424.64 710.587 1426.29 Q710.587 1428.33 711.57 1429.7 Q712.554 1431.03 714.522 1431.03 Q715.294 1431.03 716.173 1430.82 Q717.051 1430.57 718.175 1429.94 Q719.335 1429.27 720.354 1428.29 Q721.408 1427.27 722.427 1425.55 Q723.445 1423.83 724.113 1421.62 Q724.324 1420.84 725.027 1420.84 Q725.905 1420.84 725.905 1421.55 Q725.905 1422.14 725.413 1423.41 Q724.956 1424.64 723.937 1426.25 Q722.954 1427.83 721.654 1429.27 Q720.354 1430.68 718.421 1431.66 Q716.489 1432.65 714.381 1432.65 Q711.36 1432.65 709.357 1431.03 Q707.354 1429.42 706.616 1427.17 Q706.441 1427.48 706.195 1427.9 Q705.949 1428.33 705.211 1429.27 Q704.508 1430.19 703.7 1430.89 Q702.892 1431.56 701.627 1432.09 Q700.398 1432.65 699.063 1432.65 Q697.376 1432.65 695.866 1432.16 Q694.39 1431.66 693.336 1430.54 Q692.282 1429.42 692.282 1427.87 Q692.282 1426.15 693.441 1424.95 Q694.636 1423.72 696.252 1423.72 Q697.271 1423.72 698.079 1424.32 Q698.922 1424.92 698.922 1426.22 Q698.922 1427.66 697.938 1428.75 Q696.955 1429.84 695.549 1430.12 Q696.99 1431.03 699.133 1431.03 Q701.452 1431.03 703.279 1428.99 Q705.106 1426.96 705.984 1423.55 Q708.162 1415.36 709.006 1411.71 Q709.849 1408.02 709.849 1406.44 Q709.849 1404.96 709.462 1403.94 Q709.076 1402.92 708.408 1402.47 Q707.776 1401.98 707.179 1401.8 Q706.616 1401.62 705.984 1401.62 Q704.93 1401.62 703.736 1402.05 Q702.576 1402.47 701.171 1403.45 Q699.801 1404.4 698.501 1406.37 Q697.201 1408.34 696.322 1411.04 Q696.147 1411.85 695.374 1411.85 Q694.53 1411.81 694.53 1411.11 Q694.53 1410.51 694.987 1409.28 Q695.479 1408.02 696.463 1406.44 Q697.482 1404.86 698.782 1403.45 Q700.117 1402.01 702.049 1401.03 Q704.017 1400.04 706.125 1400.04 Q707.073 1400.04 707.987 1400.25 Q708.935 1400.43 710.06 1400.96 Q711.219 1401.48 712.238 1402.64 Q713.257 1403.8 713.889 1405.49 Q714.311 1404.68 714.873 1403.91 Q715.47 1403.14 716.384 1402.19 Q717.332 1401.2 718.632 1400.64 Q719.967 1400.04 721.443 1400.04 Q722.883 1400.04 724.289 1400.43 Q725.694 1400.78 726.889 1401.94 Q728.118 1403.07 728.118 1404.79 Z" fill="#000000" fill-rule="nonzero" fill-opacity="1" /><path clip-path="url(#clip390)" d="M735.446 1410.32 Q735.446 1409.41 735.52 1409.14 Q735.618 1408.87 736.012 1408.45 L745.677 1397.68 Q750.965 1391.73 750.965 1386.54 Q750.965 1383.17 749.194 1380.76 Q747.448 1378.35 744.226 1378.35 Q742.013 1378.35 740.144 1379.7 Q738.275 1381.06 737.414 1383.47 Q737.561 1383.42 738.078 1383.42 Q739.332 1383.42 740.021 1384.21 Q740.734 1384.99 740.734 1386.05 Q740.734 1387.4 739.849 1388.07 Q738.988 1388.71 738.127 1388.71 Q737.783 1388.71 737.315 1388.63 Q736.873 1388.56 736.16 1387.87 Q735.446 1387.16 735.446 1385.9 Q735.446 1382.39 738.102 1379.58 Q740.783 1376.78 744.866 1376.78 Q749.489 1376.78 752.514 1379.53 Q755.564 1382.26 755.564 1386.54 Q755.564 1388.04 755.097 1389.42 Q754.654 1390.77 754.039 1391.83 Q753.449 1392.89 751.826 1394.58 Q750.202 1396.28 748.899 1397.49 Q747.596 1398.69 744.669 1401.25 L739.332 1406.44 L748.407 1406.44 Q752.834 1406.44 753.178 1406.04 Q753.67 1405.33 754.285 1401.57 L755.564 1401.57 L754.137 1410.32 L735.446 1410.32 Z" fill="#000000" fill-rule="nonzero" fill-opacity="1" /><path clip-path="url(#clip390)" d="M784.656 1414.73 Q783.005 1414.73 783.005 1413.85 Q783.005 1412.97 784.727 1412.97 Q784.937 1412.97 785.289 1413.01 Q785.675 1413.04 785.746 1413.04 L806.018 1413.04 L806.018 1392.7 Q806.018 1392.63 805.983 1392.31 Q805.947 1391.96 805.947 1391.75 Q805.947 1390.03 806.791 1390.03 Q807.669 1390.03 807.669 1391.75 L807.669 1413.04 L827.976 1413.04 Q828.046 1413.04 828.398 1413.01 Q828.749 1412.97 828.96 1412.97 Q830.611 1412.97 830.611 1413.85 Q830.646 1414.73 828.89 1414.73 Q828.679 1414.73 828.363 1414.69 Q828.046 1414.66 827.976 1414.66 L807.669 1414.66 L807.669 1436.02 Q807.669 1437.67 806.791 1437.67 Q805.947 1437.67 805.947 1435.95 Q805.947 1435.74 805.983 1435.39 Q806.018 1435.07 806.018 1435 L806.018 1414.66 L785.746 1414.66 Q785.675 1414.66 785.254 1414.69 Q784.867 1414.73 784.656 1414.73 Z" fill="#000000" fill-rule="nonzero" fill-opacity="1" /><path clip-path="url(#clip390)" d="M858.399 1408.83 Q858.399 1398.25 861.07 1392.49 Q864.794 1383.92 873.577 1383.92 Q875.439 1383.92 877.372 1384.44 Q879.339 1384.94 881.798 1386.87 Q884.293 1388.8 885.804 1391.96 Q888.685 1398.08 888.685 1408.83 Q888.685 1419.33 886.014 1425.06 Q882.115 1433.42 873.507 1433.42 Q870.275 1433.42 866.972 1431.77 Q863.705 1430.12 861.632 1426.15 Q858.399 1420.21 858.399 1408.83 M864.372 1407.95 Q864.372 1418.8 865.145 1423.13 Q866.023 1427.8 868.412 1429.84 Q870.837 1431.84 873.507 1431.84 Q876.388 1431.84 878.777 1429.7 Q881.201 1427.52 881.939 1422.85 Q882.747 1418.24 882.712 1407.95 Q882.712 1397.94 882.009 1393.93 Q881.061 1389.26 878.531 1387.4 Q876.036 1385.5 873.507 1385.5 Q872.558 1385.5 871.539 1385.78 Q870.556 1386.06 869.115 1386.87 Q867.675 1387.68 866.55 1389.68 Q865.461 1391.68 864.934 1394.7 Q864.372 1398.6 864.372 1407.95 Z" fill="#000000" fill-rule="nonzero" fill-opacity="1" /><path clip-path="url(#clip390)" d="M895.121 1430.68 Q894.032 1429.52 894.032 1428.01 Q894.032 1426.5 895.121 1425.41 Q896.21 1424.29 897.862 1424.29 Q899.443 1424.29 900.497 1425.34 Q901.586 1426.36 901.586 1428.05 Q901.586 1429.7 900.427 1430.79 Q899.302 1431.84 897.862 1431.84 Q896.21 1431.84 895.121 1430.68 Z" fill="#000000" fill-rule="nonzero" fill-opacity="1" /><path clip-path="url(#clip390)" d="M913.832 1408.83 Q913.832 1398.25 916.502 1392.49 Q920.226 1383.92 929.01 1383.92 Q930.872 1383.92 932.804 1384.44 Q934.772 1384.94 937.231 1386.87 Q939.726 1388.8 941.236 1391.96 Q944.117 1398.08 944.117 1408.83 Q944.117 1419.33 941.447 1425.06 Q937.547 1433.42 928.94 1433.42 Q925.707 1433.42 922.405 1431.77 Q919.137 1430.12 917.064 1426.15 Q913.832 1420.21 913.832 1408.83 M919.805 1407.95 Q919.805 1418.8 920.578 1423.13 Q921.456 1427.8 923.845 1429.84 Q926.269 1431.84 928.94 1431.84 Q931.82 1431.84 934.21 1429.7 Q936.634 1427.52 937.372 1422.85 Q938.18 1418.24 938.145 1407.95 Q938.145 1397.94 937.442 1393.93 Q936.493 1389.26 933.964 1387.4 Q931.469 1385.5 928.94 1385.5 Q927.991 1385.5 926.972 1385.78 Q925.988 1386.06 924.548 1386.87 Q923.107 1387.68 921.983 1389.68 Q920.894 1391.68 920.367 1394.7 Q919.805 1398.6 919.805 1407.95 Z" fill="#000000" fill-rule="nonzero" fill-opacity="1" /><path clip-path="url(#clip390)" d="M984.149 1404.79 Q984.149 1406.75 982.92 1407.88 Q981.69 1408.97 980.285 1408.97 Q978.949 1408.97 978.247 1408.19 Q977.544 1407.42 977.544 1406.44 Q977.544 1405.1 978.528 1403.94 Q979.512 1402.78 980.987 1402.54 Q979.547 1401.62 977.404 1401.62 Q975.998 1401.62 974.769 1402.36 Q973.574 1403.1 972.836 1404.05 Q972.133 1405 971.501 1406.37 Q970.904 1407.7 970.658 1408.51 Q970.447 1409.28 970.271 1410.13 L967.812 1419.96 Q966.618 1424.64 966.618 1426.29 Q966.618 1428.33 967.601 1429.7 Q968.585 1431.03 970.552 1431.03 Q971.325 1431.03 972.204 1430.82 Q973.082 1430.57 974.206 1429.94 Q975.366 1429.27 976.385 1428.29 Q977.439 1427.27 978.458 1425.55 Q979.476 1423.83 980.144 1421.62 Q980.355 1420.84 981.057 1420.84 Q981.936 1420.84 981.936 1421.55 Q981.936 1422.14 981.444 1423.41 Q980.987 1424.64 979.968 1426.25 Q978.985 1427.83 977.685 1429.27 Q976.385 1430.68 974.452 1431.66 Q972.52 1432.65 970.412 1432.65 Q967.39 1432.65 965.388 1431.03 Q963.385 1429.42 962.647 1427.17 Q962.472 1427.48 962.226 1427.9 Q961.98 1428.33 961.242 1429.27 Q960.539 1430.19 959.731 1430.89 Q958.923 1431.56 957.658 1432.09 Q956.429 1432.65 955.094 1432.65 Q953.407 1432.65 951.897 1432.16 Q950.421 1431.66 949.367 1430.54 Q948.313 1429.42 948.313 1427.87 Q948.313 1426.15 949.472 1424.95 Q950.667 1423.72 952.283 1423.72 Q953.302 1423.72 954.11 1424.32 Q954.953 1424.92 954.953 1426.22 Q954.953 1427.66 953.969 1428.75 Q952.986 1429.84 951.58 1430.12 Q953.021 1431.03 955.164 1431.03 Q957.483 1431.03 959.31 1428.99 Q961.137 1426.96 962.015 1423.55 Q964.193 1415.36 965.036 1411.71 Q965.88 1408.02 965.88 1406.44 Q965.88 1404.96 965.493 1403.94 Q965.107 1402.92 964.439 1402.47 Q963.807 1401.98 963.21 1401.8 Q962.647 1401.62 962.015 1401.62 Q960.961 1401.62 959.766 1402.05 Q958.607 1402.47 957.202 1403.45 Q955.831 1404.4 954.532 1406.37 Q953.232 1408.34 952.353 1411.04 Q952.178 1411.85 951.405 1411.85 Q950.561 1411.81 950.561 1411.11 Q950.561 1410.51 951.018 1409.28 Q951.51 1408.02 952.494 1406.44 Q953.513 1404.86 954.813 1403.45 Q956.148 1402.01 958.08 1401.03 Q960.048 1400.04 962.156 1400.04 Q963.104 1400.04 964.018 1400.25 Q964.966 1400.43 966.091 1400.96 Q967.25 1401.48 968.269 1402.64 Q969.288 1403.8 969.92 1405.49 Q970.342 1404.68 970.904 1403.91 Q971.501 1403.14 972.415 1402.19 Q973.363 1401.2 974.663 1400.64 Q975.998 1400.04 977.474 1400.04 Q978.914 1400.04 980.32 1400.43 Q981.725 1400.78 982.92 1401.94 Q984.149 1403.07 984.149 1404.79 Z" fill="#000000" fill-rule="nonzero" fill-opacity="1" /><path clip-path="url(#clip390)" d="M1021.4 1402.78 Q1021.4 1403.28 1021.08 1404.44 L1014.2 1431.91 Q1012.69 1438.02 1007.77 1442.31 Q1002.88 1446.6 997.332 1446.6 Q993.994 1446.6 991.851 1444.8 Q989.708 1443.05 989.708 1440.34 Q989.708 1437.95 990.972 1436.79 Q992.237 1435.67 993.748 1435.67 Q994.24 1435.67 994.767 1435.81 Q995.294 1435.95 995.856 1436.55 Q996.418 1437.14 996.418 1438.16 Q996.418 1439.81 994.978 1441.11 Q994.275 1441.71 993.608 1441.85 Q992.975 1441.99 991.886 1441.99 Q992.308 1442.98 993.081 1443.64 Q993.853 1444.31 994.732 1444.56 Q995.61 1444.84 996.172 1444.91 Q996.77 1445.01 997.332 1445.01 Q1001.83 1445.01 1005.27 1440.48 Q1006.29 1439.11 1007.03 1437.74 Q1007.8 1436.41 1008.36 1434.76 Q1008.93 1433.14 1009.17 1432.26 Q1009.45 1431.38 1009.94 1429.38 Q1006.68 1432.65 1002.67 1432.65 Q1000.99 1432.65 999.475 1432.19 Q997.999 1431.73 996.699 1430.79 Q995.399 1429.8 994.626 1428.08 Q993.889 1426.36 993.889 1424.08 Q993.889 1421.65 994.837 1418.35 Q995.786 1415.05 998.069 1408.97 Q999.299 1405.56 999.299 1403.91 Q999.299 1403.1 999.123 1402.61 Q998.948 1402.08 998.596 1401.91 Q998.245 1401.69 998.034 1401.66 Q997.859 1401.62 997.507 1401.62 Q995.434 1401.62 993.502 1403.73 Q991.57 1405.84 990.235 1410.55 Q989.954 1411.43 989.778 1411.64 Q989.602 1411.85 989.075 1411.85 Q988.197 1411.81 988.197 1411.11 Q988.197 1410.83 988.513 1409.74 Q988.829 1408.62 989.567 1406.96 Q990.34 1405.28 991.394 1403.77 Q992.448 1402.22 994.099 1401.13 Q995.786 1400.04 997.718 1400.04 Q1000.35 1400.04 1001.97 1401.77 Q1003.62 1403.45 1003.62 1405.95 Q1003.62 1406.96 1003.34 1407.88 Q1003.09 1408.76 1002.18 1411.11 Q998.491 1420.6 998.491 1425.23 Q998.491 1426.36 998.667 1427.31 Q998.878 1428.22 999.334 1429.13 Q999.791 1430.01 1000.7 1430.54 Q1001.65 1431.03 1002.95 1431.03 Q1004.6 1431.03 1006.15 1430.26 Q1007.73 1429.45 1008.71 1428.36 Q1009.73 1427.27 1010.33 1426.36 Q1010.96 1425.41 1011.1 1424.92 L1014.34 1411.99 L1015.78 1406.23 Q1016.44 1403.1 1016.76 1402.33 Q1017.18 1401.59 1017.92 1401.2 Q1018.66 1400.82 1019.29 1400.82 Q1020.17 1400.82 1020.77 1401.34 Q1021.4 1401.87 1021.4 1402.78 Z" fill="#000000" fill-rule="nonzero" fill-opacity="1" /><path clip-path="url(#clip390)" d="M1090.56 1412.83 Q1090.98 1413.25 1090.98 1413.85 Q1090.98 1414.45 1090.56 1414.87 Q1090.14 1415.29 1089.54 1415.29 L1044.5 1415.29 Q1043.9 1415.29 1043.48 1414.87 Q1043.06 1414.45 1043.06 1413.85 Q1043.06 1413.25 1043.48 1412.83 Q1043.9 1412.41 1044.5 1412.41 L1089.54 1412.41 Q1090.14 1412.41 1090.56 1412.83 Z" fill="#000000" fill-rule="nonzero" fill-opacity="1" /><path clip-path="url(#clip390)" d="M1118.45 1408.83 Q1118.45 1398.25 1121.13 1392.49 Q1124.85 1383.92 1133.63 1383.92 Q1135.49 1383.92 1137.43 1384.44 Q1139.39 1384.94 1141.85 1386.87 Q1144.35 1388.8 1145.86 1391.96 Q1148.74 1398.08 1148.74 1408.83 Q1148.74 1419.33 1146.07 1425.06 Q1142.17 1433.42 1133.56 1433.42 Q1130.33 1433.42 1127.03 1431.77 Q1123.76 1430.12 1121.69 1426.15 Q1118.45 1420.21 1118.45 1408.83 M1124.43 1407.95 Q1124.43 1418.8 1125.2 1423.13 Q1126.08 1427.8 1128.47 1429.84 Q1130.89 1431.84 1133.56 1431.84 Q1136.44 1431.84 1138.83 1429.7 Q1141.26 1427.52 1141.99 1422.85 Q1142.8 1418.24 1142.77 1407.95 Q1142.77 1397.94 1142.06 1393.93 Q1141.12 1389.26 1138.59 1387.4 Q1136.09 1385.5 1133.56 1385.5 Q1132.61 1385.5 1131.59 1385.78 Q1130.61 1386.06 1129.17 1386.87 Q1127.73 1387.68 1126.61 1389.68 Q1125.52 1391.68 1124.99 1394.7 Q1124.43 1398.6 1124.43 1407.95 Z" fill="#000000" fill-rule="nonzero" fill-opacity="1" /><path clip-path="url(#clip390)" d="M1155.18 1430.68 Q1154.09 1429.52 1154.09 1428.01 Q1154.09 1426.5 1155.18 1425.41 Q1156.27 1424.29 1157.92 1424.29 Q1159.5 1424.29 1160.55 1425.34 Q1161.64 1426.36 1161.64 1428.05 Q1161.64 1429.7 1160.48 1430.79 Q1159.36 1431.84 1157.92 1431.84 Q1156.27 1431.84 1155.18 1430.68 Z" fill="#000000" fill-rule="nonzero" fill-opacity="1" /><path clip-path="url(#clip390)" d="M1173.89 1408.83 Q1173.89 1398.25 1176.56 1392.49 Q1180.28 1383.92 1189.07 1383.92 Q1190.93 1383.92 1192.86 1384.44 Q1194.83 1384.94 1197.29 1386.87 Q1199.78 1388.8 1201.29 1391.96 Q1204.17 1398.08 1204.17 1408.83 Q1204.17 1419.33 1201.5 1425.06 Q1197.6 1433.42 1189 1433.42 Q1185.76 1433.42 1182.46 1431.77 Q1179.19 1430.12 1177.12 1426.15 Q1173.89 1420.21 1173.89 1408.83 M1179.86 1407.95 Q1179.86 1418.8 1180.63 1423.13 Q1181.51 1427.8 1183.9 1429.84 Q1186.32 1431.84 1189 1431.84 Q1191.88 1431.84 1194.27 1429.7 Q1196.69 1427.52 1197.43 1422.85 Q1198.24 1418.24 1198.2 1407.95 Q1198.2 1397.94 1197.5 1393.93 Q1196.55 1389.26 1194.02 1387.4 Q1191.52 1385.5 1189 1385.5 Q1188.05 1385.5 1187.03 1385.78 Q1186.04 1386.06 1184.6 1386.87 Q1183.16 1387.68 1182.04 1389.68 Q1180.95 1391.68 1180.42 1394.7 Q1179.86 1398.6 1179.86 1407.95 Z" fill="#000000" fill-rule="nonzero" fill-opacity="1" /><path clip-path="url(#clip390)" d="M1207.4 1390.77 L1207.4 1388.52 Q1216.04 1388.52 1220.51 1383.92 Q1221.73 1383.92 1221.95 1384.2 Q1222.16 1384.48 1222.16 1385.78 L1222.16 1426.15 Q1222.16 1428.29 1223.21 1428.96 Q1224.26 1429.63 1228.87 1429.63 L1231.15 1429.63 L1231.15 1431.84 Q1228.62 1431.63 1219.49 1431.63 Q1210.35 1431.63 1207.86 1431.84 L1207.86 1429.63 L1210.14 1429.63 Q1214.67 1429.63 1215.76 1428.99 Q1216.85 1428.33 1216.85 1426.15 L1216.85 1388.87 Q1213.09 1390.77 1207.4 1390.77 Z" fill="#000000" fill-rule="nonzero" fill-opacity="1" /><path clip-path="url(#clip390)" d="M1276.23 1402.78 Q1276.23 1403.28 1275.92 1404.44 L1269.03 1431.91 Q1267.52 1438.02 1262.6 1442.31 Q1257.72 1446.6 1252.17 1446.6 Q1248.83 1446.6 1246.69 1444.8 Q1244.54 1443.05 1244.54 1440.34 Q1244.54 1437.95 1245.81 1436.79 Q1247.07 1435.67 1248.58 1435.67 Q1249.08 1435.67 1249.6 1435.81 Q1250.13 1435.95 1250.69 1436.55 Q1251.25 1437.14 1251.25 1438.16 Q1251.25 1439.81 1249.81 1441.11 Q1249.11 1441.71 1248.44 1441.85 Q1247.81 1441.99 1246.72 1441.99 Q1247.14 1442.98 1247.92 1443.64 Q1248.69 1444.31 1249.57 1444.56 Q1250.45 1444.84 1251.01 1444.91 Q1251.61 1445.01 1252.17 1445.01 Q1256.67 1445.01 1260.11 1440.48 Q1261.13 1439.11 1261.86 1437.74 Q1262.64 1436.41 1263.2 1434.76 Q1263.76 1433.14 1264.01 1432.26 Q1264.29 1431.38 1264.78 1429.38 Q1261.51 1432.65 1257.51 1432.65 Q1255.82 1432.65 1254.31 1432.19 Q1252.84 1431.73 1251.54 1430.79 Q1250.24 1429.8 1249.46 1428.08 Q1248.72 1426.36 1248.72 1424.08 Q1248.72 1421.65 1249.67 1418.35 Q1250.62 1415.05 1252.91 1408.97 Q1254.14 1405.56 1254.14 1403.91 Q1254.14 1403.1 1253.96 1402.61 Q1253.78 1402.08 1253.43 1401.91 Q1253.08 1401.69 1252.87 1401.66 Q1252.69 1401.62 1252.34 1401.62 Q1250.27 1401.62 1248.34 1403.73 Q1246.41 1405.84 1245.07 1410.55 Q1244.79 1411.43 1244.61 1411.64 Q1244.44 1411.85 1243.91 1411.85 Q1243.03 1411.81 1243.03 1411.11 Q1243.03 1410.83 1243.35 1409.74 Q1243.67 1408.62 1244.4 1406.96 Q1245.18 1405.28 1246.23 1403.77 Q1247.28 1402.22 1248.94 1401.13 Q1250.62 1400.04 1252.55 1400.04 Q1255.19 1400.04 1256.81 1401.77 Q1258.46 1403.45 1258.46 1405.95 Q1258.46 1406.96 1258.18 1407.88 Q1257.93 1408.76 1257.02 1411.11 Q1253.33 1420.6 1253.33 1425.23 Q1253.33 1426.36 1253.5 1427.31 Q1253.71 1428.22 1254.17 1429.13 Q1254.63 1430.01 1255.54 1430.54 Q1256.49 1431.03 1257.79 1431.03 Q1259.44 1431.03 1260.99 1430.26 Q1262.57 1429.45 1263.55 1428.36 Q1264.57 1427.27 1265.17 1426.36 Q1265.8 1425.41 1265.94 1424.92 L1269.17 1411.99 L1270.61 1406.23 Q1271.28 1403.1 1271.6 1402.33 Q1272.02 1401.59 1272.76 1401.2 Q1273.49 1400.82 1274.13 1400.82 Q1275 1400.82 1275.6 1401.34 Q1276.23 1401.87 1276.23 1402.78 Z" fill="#000000" fill-rule="nonzero" fill-opacity="1" /><path clip-path="url(#clip390)" d="M1283.59 1410.32 Q1283.59 1409.41 1283.66 1409.14 Q1283.76 1408.87 1284.15 1408.45 L1293.82 1397.68 Q1299.11 1391.73 1299.11 1386.54 Q1299.11 1383.17 1297.34 1380.76 Q1295.59 1378.35 1292.37 1378.35 Q1290.15 1378.35 1288.29 1379.7 Q1286.42 1381.06 1285.56 1383.47 Q1285.7 1383.42 1286.22 1383.42 Q1287.47 1383.42 1288.16 1384.21 Q1288.88 1384.99 1288.88 1386.05 Q1288.88 1387.4 1287.99 1388.07 Q1287.13 1388.71 1286.27 1388.71 Q1285.92 1388.71 1285.46 1388.63 Q1285.01 1388.56 1284.3 1387.87 Q1283.59 1387.16 1283.59 1385.9 Q1283.59 1382.39 1286.24 1379.58 Q1288.92 1376.78 1293.01 1376.78 Q1297.63 1376.78 1300.66 1379.53 Q1303.71 1382.26 1303.71 1386.54 Q1303.71 1388.04 1303.24 1389.42 Q1302.8 1390.77 1302.18 1391.83 Q1301.59 1392.89 1299.97 1394.58 Q1298.34 1396.28 1297.04 1397.49 Q1295.74 1398.69 1292.81 1401.25 L1287.47 1406.44 L1296.55 1406.44 Q1300.98 1406.44 1301.32 1406.04 Q1301.81 1405.33 1302.43 1401.57 L1303.71 1401.57 L1302.28 1410.32 L1283.59 1410.32 Z" fill="#000000" fill-rule="nonzero" fill-opacity="1" /><path clip-path="url(#clip390)" d="M1378.65 1412.83 Q1379.07 1413.25 1379.07 1413.85 Q1379.07 1414.45 1378.65 1414.87 Q1378.23 1415.29 1377.63 1415.29 L1332.59 1415.29 Q1331.99 1415.29 1331.57 1414.87 Q1331.15 1414.45 1331.15 1413.85 Q1331.15 1413.25 1331.57 1412.83 Q1331.99 1412.41 1332.59 1412.41 L1377.63 1412.41 Q1378.23 1412.41 1378.65 1412.83 Z" fill="#000000" fill-rule="nonzero" fill-opacity="1" /><path clip-path="url(#clip390)" d="M1406.54 1408.83 Q1406.54 1398.25 1409.21 1392.49 Q1412.94 1383.92 1421.72 1383.92 Q1423.58 1383.92 1425.51 1384.44 Q1427.48 1384.94 1429.94 1386.87 Q1432.43 1388.8 1433.95 1391.96 Q1436.83 1398.08 1436.83 1408.83 Q1436.83 1419.33 1434.16 1425.06 Q1430.26 1433.42 1421.65 1433.42 Q1418.42 1433.42 1415.11 1431.77 Q1411.85 1430.12 1409.77 1426.15 Q1406.54 1420.21 1406.54 1408.83 M1412.51 1407.95 Q1412.51 1418.8 1413.29 1423.13 Q1414.17 1427.8 1416.55 1429.84 Q1418.98 1431.84 1421.65 1431.84 Q1424.53 1431.84 1426.92 1429.7 Q1429.34 1427.52 1430.08 1422.85 Q1430.89 1418.24 1430.85 1407.95 Q1430.85 1397.94 1430.15 1393.93 Q1429.2 1389.26 1426.67 1387.4 Q1424.18 1385.5 1421.65 1385.5 Q1420.7 1385.5 1419.68 1385.78 Q1418.7 1386.06 1417.26 1386.87 Q1415.82 1387.68 1414.69 1389.68 Q1413.6 1391.68 1413.08 1394.7 Q1412.51 1398.6 1412.51 1407.95 Z" fill="#000000" fill-rule="nonzero" fill-opacity="1" /><path clip-path="url(#clip390)" d="M1443.26 1430.68 Q1442.17 1429.52 1442.17 1428.01 Q1442.17 1426.5 1443.26 1425.41 Q1444.35 1424.29 1446 1424.29 Q1447.58 1424.29 1448.64 1425.34 Q1449.73 1426.36 1449.73 1428.05 Q1449.73 1429.7 1448.57 1430.79 Q1447.44 1431.84 1446 1431.84 Q1444.35 1431.84 1443.26 1430.68 Z" fill="#000000" fill-rule="nonzero" fill-opacity="1" /><path clip-path="url(#clip390)" d="M1461.97 1408.83 Q1461.97 1398.25 1464.64 1392.49 Q1468.37 1383.92 1477.15 1383.92 Q1479.01 1383.92 1480.95 1384.44 Q1482.91 1384.94 1485.37 1386.87 Q1487.87 1388.8 1489.38 1391.96 Q1492.26 1398.08 1492.26 1408.83 Q1492.26 1419.33 1489.59 1425.06 Q1485.69 1433.42 1477.08 1433.42 Q1473.85 1433.42 1470.55 1431.77 Q1467.28 1430.12 1465.21 1426.15 Q1461.97 1420.21 1461.97 1408.83 M1467.95 1407.95 Q1467.95 1418.8 1468.72 1423.13 Q1469.6 1427.8 1471.99 1429.84 Q1474.41 1431.84 1477.08 1431.84 Q1479.96 1431.84 1482.35 1429.7 Q1484.78 1427.52 1485.51 1422.85 Q1486.32 1418.24 1486.29 1407.95 Q1486.29 1397.94 1485.58 1393.93 Q1484.64 1389.26 1482.11 1387.4 Q1479.61 1385.5 1477.08 1385.5 Q1476.13 1385.5 1475.11 1385.78 Q1474.13 1386.06 1472.69 1386.87 Q1471.25 1387.68 1470.12 1389.68 Q1469.04 1391.68 1468.51 1394.7 Q1467.95 1398.6 1467.95 1407.95 Z" fill="#000000" fill-rule="nonzero" fill-opacity="1" /><path clip-path="url(#clip390)" d="M1532.29 1404.79 Q1532.29 1406.75 1531.06 1407.88 Q1529.83 1408.97 1528.43 1408.97 Q1527.09 1408.97 1526.39 1408.19 Q1525.69 1407.42 1525.69 1406.44 Q1525.69 1405.1 1526.67 1403.94 Q1527.65 1402.78 1529.13 1402.54 Q1527.69 1401.62 1525.55 1401.62 Q1524.14 1401.62 1522.91 1402.36 Q1521.72 1403.1 1520.98 1404.05 Q1520.28 1405 1519.64 1406.37 Q1519.05 1407.7 1518.8 1408.51 Q1518.59 1409.28 1518.41 1410.13 L1515.95 1419.96 Q1514.76 1424.64 1514.76 1426.29 Q1514.76 1428.33 1515.74 1429.7 Q1516.73 1431.03 1518.69 1431.03 Q1519.47 1431.03 1520.35 1430.82 Q1521.22 1430.57 1522.35 1429.94 Q1523.51 1429.27 1524.53 1428.29 Q1525.58 1427.27 1526.6 1425.55 Q1527.62 1423.83 1528.29 1421.62 Q1528.5 1420.84 1529.2 1420.84 Q1530.08 1420.84 1530.08 1421.55 Q1530.08 1422.14 1529.59 1423.41 Q1529.13 1424.64 1528.11 1426.25 Q1527.13 1427.83 1525.83 1429.27 Q1524.53 1430.68 1522.59 1431.66 Q1520.66 1432.65 1518.55 1432.65 Q1515.53 1432.65 1513.53 1431.03 Q1511.53 1429.42 1510.79 1427.17 Q1510.61 1427.48 1510.37 1427.9 Q1510.12 1428.33 1509.38 1429.27 Q1508.68 1430.19 1507.87 1430.89 Q1507.07 1431.56 1505.8 1432.09 Q1504.57 1432.65 1503.24 1432.65 Q1501.55 1432.65 1500.04 1432.16 Q1498.56 1431.66 1497.51 1430.54 Q1496.45 1429.42 1496.45 1427.87 Q1496.45 1426.15 1497.61 1424.95 Q1498.81 1423.72 1500.42 1423.72 Q1501.44 1423.72 1502.25 1424.32 Q1503.09 1424.92 1503.09 1426.22 Q1503.09 1427.66 1502.11 1428.75 Q1501.13 1429.84 1499.72 1430.12 Q1501.16 1431.03 1503.31 1431.03 Q1505.62 1431.03 1507.45 1428.99 Q1509.28 1426.96 1510.16 1423.55 Q1512.34 1415.36 1513.18 1411.71 Q1514.02 1408.02 1514.02 1406.44 Q1514.02 1404.96 1513.64 1403.94 Q1513.25 1402.92 1512.58 1402.47 Q1511.95 1401.98 1511.35 1401.8 Q1510.79 1401.62 1510.16 1401.62 Q1509.1 1401.62 1507.91 1402.05 Q1506.75 1402.47 1505.34 1403.45 Q1503.97 1404.4 1502.67 1406.37 Q1501.37 1408.34 1500.5 1411.04 Q1500.32 1411.85 1499.55 1411.85 Q1498.7 1411.81 1498.7 1411.11 Q1498.7 1410.51 1499.16 1409.28 Q1499.65 1408.02 1500.64 1406.44 Q1501.65 1404.86 1502.95 1403.45 Q1504.29 1402.01 1506.22 1401.03 Q1508.19 1400.04 1510.3 1400.04 Q1511.25 1400.04 1512.16 1400.25 Q1513.11 1400.43 1514.23 1400.96 Q1515.39 1401.48 1516.41 1402.64 Q1517.43 1403.8 1518.06 1405.49 Q1518.48 1404.68 1519.05 1403.91 Q1519.64 1403.14 1520.56 1402.19 Q1521.51 1401.2 1522.8 1400.64 Q1524.14 1400.04 1525.62 1400.04 Q1527.06 1400.04 1528.46 1400.43 Q1529.87 1400.78 1531.06 1401.94 Q1532.29 1403.07 1532.29 1404.79 Z" fill="#000000" fill-rule="nonzero" fill-opacity="1" /><path clip-path="url(#clip390)" d="M1604.67 1412.83 Q1605.09 1413.25 1605.09 1413.85 Q1605.09 1414.45 1604.67 1414.87 Q1604.24 1415.29 1603.65 1415.29 L1558.6 1415.29 Q1558.01 1415.29 1557.59 1414.87 Q1557.16 1414.45 1557.16 1413.85 Q1557.16 1413.25 1557.59 1412.83 Q1558.01 1412.41 1558.6 1412.41 L1603.65 1412.41 Q1604.24 1412.41 1604.67 1412.83 Z" fill="#000000" fill-rule="nonzero" fill-opacity="1" /><path clip-path="url(#clip390)" d="M1632.56 1408.83 Q1632.56 1398.25 1635.23 1392.49 Q1638.95 1383.92 1647.74 1383.92 Q1649.6 1383.92 1651.53 1384.44 Q1653.5 1384.94 1655.96 1386.87 Q1658.45 1388.8 1659.96 1391.96 Q1662.84 1398.08 1662.84 1408.83 Q1662.84 1419.33 1660.17 1425.06 Q1656.27 1433.42 1647.67 1433.42 Q1644.43 1433.42 1641.13 1431.77 Q1637.86 1430.12 1635.79 1426.15 Q1632.56 1420.21 1632.56 1408.83 M1638.53 1407.95 Q1638.53 1418.8 1639.3 1423.13 Q1640.18 1427.8 1642.57 1429.84 Q1645 1431.84 1647.67 1431.84 Q1650.55 1431.84 1652.94 1429.7 Q1655.36 1427.52 1656.1 1422.85 Q1656.91 1418.24 1656.87 1407.95 Q1656.87 1397.94 1656.17 1393.93 Q1655.22 1389.26 1652.69 1387.4 Q1650.2 1385.5 1647.67 1385.5 Q1646.72 1385.5 1645.7 1385.78 Q1644.71 1386.06 1643.27 1386.87 Q1641.83 1387.68 1640.71 1389.68 Q1639.62 1391.68 1639.09 1394.7 Q1638.53 1398.6 1638.53 1407.95 Z" fill="#000000" fill-rule="nonzero" fill-opacity="1" /><path clip-path="url(#clip390)" d="M1669.28 1430.68 Q1668.19 1429.52 1668.19 1428.01 Q1668.19 1426.5 1669.28 1425.41 Q1670.37 1424.29 1672.02 1424.29 Q1673.6 1424.29 1674.66 1425.34 Q1675.75 1426.36 1675.75 1428.05 Q1675.75 1429.7 1674.59 1430.79 Q1673.46 1431.84 1672.02 1431.84 Q1670.37 1431.84 1669.28 1430.68 Z" fill="#000000" fill-rule="nonzero" fill-opacity="1" /><path clip-path="url(#clip390)" d="M1687.99 1408.83 Q1687.99 1398.25 1690.66 1392.49 Q1694.39 1383.92 1703.17 1383.92 Q1705.03 1383.92 1706.96 1384.44 Q1708.93 1384.94 1711.39 1386.87 Q1713.88 1388.8 1715.4 1391.96 Q1718.28 1398.08 1718.28 1408.83 Q1718.28 1419.33 1715.61 1425.06 Q1711.71 1433.42 1703.1 1433.42 Q1699.87 1433.42 1696.56 1431.77 Q1693.3 1430.12 1691.22 1426.15 Q1687.99 1420.21 1687.99 1408.83 M1693.96 1407.95 Q1693.96 1418.8 1694.74 1423.13 Q1695.62 1427.8 1698 1429.84 Q1700.43 1431.84 1703.1 1431.84 Q1705.98 1431.84 1708.37 1429.7 Q1710.79 1427.52 1711.53 1422.85 Q1712.34 1418.24 1712.3 1407.95 Q1712.3 1397.94 1711.6 1393.93 Q1710.65 1389.26 1708.12 1387.4 Q1705.63 1385.5 1703.1 1385.5 Q1702.15 1385.5 1701.13 1385.78 Q1700.15 1386.06 1698.71 1386.87 Q1697.27 1387.68 1696.14 1389.68 Q1695.05 1391.68 1694.53 1394.7 Q1693.96 1398.6 1693.96 1407.95 Z" fill="#000000" fill-rule="nonzero" fill-opacity="1" /><path clip-path="url(#clip390)" d="M1755.67 1402.78 Q1755.67 1403.28 1755.36 1404.44 L1748.47 1431.91 Q1746.96 1438.02 1742.04 1442.31 Q1737.16 1446.6 1731.61 1446.6 Q1728.27 1446.6 1726.13 1444.8 Q1723.98 1443.05 1723.98 1440.34 Q1723.98 1437.95 1725.25 1436.79 Q1726.51 1435.67 1728.02 1435.67 Q1728.52 1435.67 1729.04 1435.81 Q1729.57 1435.95 1730.13 1436.55 Q1730.69 1437.14 1730.69 1438.16 Q1730.69 1439.81 1729.25 1441.11 Q1728.55 1441.71 1727.88 1441.85 Q1727.25 1441.99 1726.16 1441.99 Q1726.58 1442.98 1727.36 1443.64 Q1728.13 1444.31 1729.01 1444.56 Q1729.89 1444.84 1730.45 1444.91 Q1731.04 1445.01 1731.61 1445.01 Q1736.1 1445.01 1739.55 1440.48 Q1740.57 1439.11 1741.3 1437.74 Q1742.08 1436.41 1742.64 1434.76 Q1743.2 1433.14 1743.45 1432.26 Q1743.73 1431.38 1744.22 1429.38 Q1740.95 1432.65 1736.95 1432.65 Q1735.26 1432.65 1733.75 1432.19 Q1732.27 1431.73 1730.97 1430.79 Q1729.67 1429.8 1728.9 1428.08 Q1728.16 1426.36 1728.16 1424.08 Q1728.16 1421.65 1729.11 1418.35 Q1730.06 1415.05 1732.34 1408.97 Q1733.57 1405.56 1733.57 1403.91 Q1733.57 1403.1 1733.4 1402.61 Q1733.22 1402.08 1732.87 1401.91 Q1732.52 1401.69 1732.31 1401.66 Q1732.13 1401.62 1731.78 1401.62 Q1729.71 1401.62 1727.78 1403.73 Q1725.84 1405.84 1724.51 1410.55 Q1724.23 1411.43 1724.05 1411.64 Q1723.88 1411.85 1723.35 1411.85 Q1722.47 1411.81 1722.47 1411.11 Q1722.47 1410.83 1722.79 1409.74 Q1723.1 1408.62 1723.84 1406.96 Q1724.62 1405.28 1725.67 1403.77 Q1726.72 1402.22 1728.37 1401.13 Q1730.06 1400.04 1731.99 1400.04 Q1734.63 1400.04 1736.24 1401.77 Q1737.9 1403.45 1737.9 1405.95 Q1737.9 1406.96 1737.61 1407.88 Q1737.37 1408.76 1736.46 1411.11 Q1732.77 1420.6 1732.77 1425.23 Q1732.77 1426.36 1732.94 1427.31 Q1733.15 1428.22 1733.61 1429.13 Q1734.07 1430.01 1734.98 1430.54 Q1735.93 1431.03 1737.23 1431.03 Q1738.88 1431.03 1740.43 1430.26 Q1742.01 1429.45 1742.99 1428.36 Q1744.01 1427.27 1744.61 1426.36 Q1745.24 1425.41 1745.38 1424.92 L1748.61 1411.99 L1750.05 1406.23 Q1750.72 1403.1 1751.04 1402.33 Q1751.46 1401.59 1752.2 1401.2 Q1752.93 1400.82 1753.57 1400.82 Q1754.44 1400.82 1755.04 1401.34 Q1755.67 1401.87 1755.67 1402.78 Z" fill="#000000" fill-rule="nonzero" fill-opacity="1" /><path clip-path="url(#clip390)" d="M1778.99 1414.73 Q1777.34 1414.73 1777.34 1413.85 Q1777.34 1412.97 1779.06 1412.97 Q1779.27 1412.97 1779.62 1413.01 Q1780.01 1413.04 1780.08 1413.04 L1800.35 1413.04 L1800.35 1392.7 Q1800.35 1392.63 1800.31 1392.31 Q1800.28 1391.96 1800.28 1391.75 Q1800.28 1390.03 1801.12 1390.03 Q1802 1390.03 1802 1391.75 L1802 1413.04 L1822.31 1413.04 Q1822.38 1413.04 1822.73 1413.01 Q1823.08 1412.97 1823.29 1412.97 Q1824.94 1412.97 1824.94 1413.85 Q1824.98 1414.73 1823.22 1414.73 Q1823.01 1414.73 1822.69 1414.69 Q1822.38 1414.66 1822.31 1414.66 L1802 1414.66 L1802 1436.02 Q1802 1437.67 1801.12 1437.67 Q1800.28 1437.67 1800.28 1435.95 Q1800.28 1435.74 1800.31 1435.39 Q1800.35 1435.07 1800.35 1435 L1800.35 1414.66 L1780.08 1414.66 Q1780.01 1414.66 1779.58 1414.69 Q1779.2 1414.73 1778.99 1414.73 Z" fill="#000000" fill-rule="nonzero" fill-opacity="1" /><path clip-path="url(#clip390)" d="M1852.73 1390.77 L1852.73 1388.52 Q1861.37 1388.52 1865.83 1383.92 Q1867.06 1383.92 1867.28 1384.2 Q1867.49 1384.48 1867.49 1385.78 L1867.49 1426.15 Q1867.49 1428.29 1868.54 1428.96 Q1869.59 1429.63 1874.2 1429.63 L1876.48 1429.63 L1876.48 1431.84 Q1873.95 1431.63 1864.82 1431.63 Q1855.68 1431.63 1853.19 1431.84 L1853.19 1429.63 L1855.47 1429.63 Q1860 1429.63 1861.09 1428.99 Q1862.18 1428.33 1862.18 1426.15 L1862.18 1388.87 Q1858.42 1390.77 1852.73 1390.77 Z" fill="#000000" fill-rule="nonzero" fill-opacity="1" /><path clip-path="url(#clip390)" d="M1908.32 1420.91 Q1908.39 1420.03 1909.76 1420.03 L1953.86 1420.03 Q1955.93 1420.03 1955.97 1420.84 Q1955.97 1421.72 1954 1421.69 L1910.26 1421.69 Q1908.32 1421.72 1908.32 1420.91 M1908.32 1406.86 Q1908.32 1405.98 1909.84 1406.02 L1953.79 1406.02 Q1955.93 1406.02 1955.97 1406.86 Q1955.97 1407.67 1954.14 1407.67 L1909.76 1407.67 Q1908.32 1407.67 1908.32 1406.86 Z" fill="#000000" fill-rule="nonzero" fill-opacity="1" /><path clip-path="url(#clip390)" d="M1983.72 1408.83 Q1983.72 1398.25 1986.39 1392.49 Q1990.11 1383.92 1998.9 1383.92 Q2000.76 1383.92 2002.69 1384.44 Q2004.66 1384.94 2007.12 1386.87 Q2009.61 1388.8 2011.12 1391.96 Q2014 1398.08 2014 1408.83 Q2014 1419.33 2011.33 1425.06 Q2007.43 1433.42 1998.83 1433.42 Q1995.59 1433.42 1992.29 1431.77 Q1989.02 1430.12 1986.95 1426.15 Q1983.72 1420.21 1983.72 1408.83 M1989.69 1407.95 Q1989.69 1418.8 1990.46 1423.13 Q1991.34 1427.8 1993.73 1429.84 Q1996.16 1431.84 1998.83 1431.84 Q2001.71 1431.84 2004.1 1429.7 Q2006.52 1427.52 2007.26 1422.85 Q2008.07 1418.24 2008.03 1407.95 Q2008.03 1397.94 2007.33 1393.93 Q2006.38 1389.26 2003.85 1387.4 Q2001.36 1385.5 1998.83 1385.5 Q1997.88 1385.5 1996.86 1385.78 Q1995.88 1386.06 1994.43 1386.87 Q1992.99 1387.68 1991.87 1389.68 Q1990.78 1391.68 1990.25 1394.7 Q1989.69 1398.6 1989.69 1407.95 Z" fill="#000000" fill-rule="nonzero" fill-opacity="1" /></svg>
