<?xml version="1.0" encoding="utf-8"?>
<svg xmlns="http://www.w3.org/2000/svg" xmlns:xlink="http://www.w3.org/1999/xlink" width="600" height="400" viewBox="0 0 2400 1600">
<defs>
  <clipPath id="clip870">
    <rect x="0" y="0" width="2400" height="1600"/>
  </clipPath>
</defs>
<path clip-path="url(#clip870)" d="M0 1600 L2400 1600 L2400 0 L0 0  Z" fill="#ffffff" fill-rule="evenodd" fill-opacity="1"/>
<defs>
  <clipPath id="clip871">
    <rect x="480" y="0" width="1681" height="1600"/>
  </clipPath>
</defs>
<path clip-path="url(#clip870)" d="M178.867 1486.45 L2352.76 1486.45 L2352.76 47.2441 L178.867 47.2441  Z" fill="#ffffff" fill-rule="evenodd" fill-opacity="1"/>
<defs>
  <clipPath id="clip872">
    <rect x="178" y="47" width="2175" height="1440"/>
  </clipPath>
</defs>
<polyline clip-path="url(#clip872)" style="stroke:#000000; stroke-linecap:round; stroke-linejoin:round; stroke-width:2; stroke-opacity:0.1; fill:none" points="247.507,1486.45 247.507,47.2441 "/>
<polyline clip-path="url(#clip872)" style="stroke:#000000; stroke-linecap:round; stroke-linejoin:round; stroke-width:2; stroke-opacity:0.1; fill:none" points="586.942,1486.45 586.942,47.2441 "/>
<polyline clip-path="url(#clip872)" style="stroke:#000000; stroke-linecap:round; stroke-linejoin:round; stroke-width:2; stroke-opacity:0.1; fill:none" points="926.376,1486.45 926.376,47.2441 "/>
<polyline clip-path="url(#clip872)" style="stroke:#000000; stroke-linecap:round; stroke-linejoin:round; stroke-width:2; stroke-opacity:0.1; fill:none" points="1265.81,1486.45 1265.81,47.2441 "/>
<polyline clip-path="url(#clip872)" style="stroke:#000000; stroke-linecap:round; stroke-linejoin:round; stroke-width:2; stroke-opacity:0.1; fill:none" points="1605.25,1486.45 1605.25,47.2441 "/>
<polyline clip-path="url(#clip872)" style="stroke:#000000; stroke-linecap:round; stroke-linejoin:round; stroke-width:2; stroke-opacity:0.1; fill:none" points="1944.68,1486.45 1944.68,47.2441 "/>
<polyline clip-path="url(#clip872)" style="stroke:#000000; stroke-linecap:round; stroke-linejoin:round; stroke-width:2; stroke-opacity:0.1; fill:none" points="2284.12,1486.45 2284.12,47.2441 "/>
<polyline clip-path="url(#clip870)" style="stroke:#000000; stroke-linecap:round; stroke-linejoin:round; stroke-width:4; stroke-opacity:1; fill:none" points="178.867,1486.45 2352.76,1486.45 "/>
<polyline clip-path="url(#clip870)" style="stroke:#000000; stroke-linecap:round; stroke-linejoin:round; stroke-width:4; stroke-opacity:1; fill:none" points="247.507,1486.45 247.507,1467.55 "/>
<polyline clip-path="url(#clip870)" style="stroke:#000000; stroke-linecap:round; stroke-linejoin:round; stroke-width:4; stroke-opacity:1; fill:none" points="586.942,1486.45 586.942,1467.55 "/>
<polyline clip-path="url(#clip870)" style="stroke:#000000; stroke-linecap:round; stroke-linejoin:round; stroke-width:4; stroke-opacity:1; fill:none" points="926.376,1486.45 926.376,1467.55 "/>
<polyline clip-path="url(#clip870)" style="stroke:#000000; stroke-linecap:round; stroke-linejoin:round; stroke-width:4; stroke-opacity:1; fill:none" points="1265.81,1486.45 1265.81,1467.55 "/>
<polyline clip-path="url(#clip870)" style="stroke:#000000; stroke-linecap:round; stroke-linejoin:round; stroke-width:4; stroke-opacity:1; fill:none" points="1605.25,1486.45 1605.25,1467.55 "/>
<polyline clip-path="url(#clip870)" style="stroke:#000000; stroke-linecap:round; stroke-linejoin:round; stroke-width:4; stroke-opacity:1; fill:none" points="1944.68,1486.45 1944.68,1467.55 "/>
<polyline clip-path="url(#clip870)" style="stroke:#000000; stroke-linecap:round; stroke-linejoin:round; stroke-width:4; stroke-opacity:1; fill:none" points="2284.12,1486.45 2284.12,1467.55 "/>
<path clip-path="url(#clip870)" d="M201.569 1532.02 L231.245 1532.02 L231.245 1535.95 L201.569 1535.95 L201.569 1532.02 Z" fill="#000000" fill-rule="nonzero" fill-opacity="1" /><path clip-path="url(#clip870)" d="M255.504 1530.21 Q258.861 1530.93 260.736 1533.2 Q262.634 1535.47 262.634 1538.8 Q262.634 1543.92 259.115 1546.72 Q255.597 1549.52 249.115 1549.52 Q246.94 1549.52 244.625 1549.08 Q242.333 1548.66 239.879 1547.81 L239.879 1543.29 Q241.824 1544.43 244.139 1545.01 Q246.453 1545.58 248.977 1545.58 Q253.375 1545.58 255.666 1543.85 Q257.981 1542.11 257.981 1538.8 Q257.981 1535.75 255.828 1534.03 Q253.699 1532.3 249.879 1532.3 L245.852 1532.3 L245.852 1528.45 L250.065 1528.45 Q253.514 1528.45 255.342 1527.09 Q257.171 1525.7 257.171 1523.11 Q257.171 1520.45 255.273 1519.03 Q253.398 1517.6 249.879 1517.6 Q247.958 1517.6 245.759 1518.01 Q243.56 1518.43 240.921 1519.31 L240.921 1515.14 Q243.583 1514.4 245.898 1514.03 Q248.236 1513.66 250.296 1513.66 Q255.62 1513.66 258.722 1516.09 Q261.824 1518.5 261.824 1522.62 Q261.824 1525.49 260.18 1527.48 Q258.537 1529.45 255.504 1530.21 Z" fill="#000000" fill-rule="nonzero" fill-opacity="1" /><path clip-path="url(#clip870)" d="M281.5 1517.37 Q277.888 1517.37 276.06 1520.93 Q274.254 1524.47 274.254 1531.6 Q274.254 1538.71 276.06 1542.27 Q277.888 1545.82 281.5 1545.82 Q285.134 1545.82 286.939 1542.27 Q288.768 1538.71 288.768 1531.6 Q288.768 1524.47 286.939 1520.93 Q285.134 1517.37 281.5 1517.37 M281.5 1513.66 Q287.31 1513.66 290.365 1518.27 Q293.444 1522.85 293.444 1531.6 Q293.444 1540.33 290.365 1544.94 Q287.31 1549.52 281.5 1549.52 Q275.689 1549.52 272.611 1544.94 Q269.555 1540.33 269.555 1531.6 Q269.555 1522.85 272.611 1518.27 Q275.689 1513.66 281.5 1513.66 Z" fill="#000000" fill-rule="nonzero" fill-opacity="1" /><path clip-path="url(#clip870)" d="M541.004 1532.02 L570.68 1532.02 L570.68 1535.95 L541.004 1535.95 L541.004 1532.02 Z" fill="#000000" fill-rule="nonzero" fill-opacity="1" /><path clip-path="url(#clip870)" d="M584.8 1544.91 L601.12 1544.91 L601.12 1548.85 L579.175 1548.85 L579.175 1544.91 Q581.837 1542.16 586.421 1537.53 Q591.027 1532.88 592.208 1531.53 Q594.453 1529.01 595.333 1527.27 Q596.235 1525.51 596.235 1523.82 Q596.235 1521.07 594.291 1519.33 Q592.37 1517.6 589.268 1517.6 Q587.069 1517.6 584.615 1518.36 Q582.185 1519.13 579.407 1520.68 L579.407 1515.95 Q582.231 1514.82 584.685 1514.24 Q587.138 1513.66 589.175 1513.66 Q594.546 1513.66 597.74 1516.35 Q600.935 1519.03 600.935 1523.52 Q600.935 1525.65 600.124 1527.57 Q599.337 1529.47 597.231 1532.07 Q596.652 1532.74 593.55 1535.95 Q590.448 1539.15 584.8 1544.91 Z" fill="#000000" fill-rule="nonzero" fill-opacity="1" /><path clip-path="url(#clip870)" d="M620.934 1517.37 Q617.323 1517.37 615.495 1520.93 Q613.689 1524.47 613.689 1531.6 Q613.689 1538.71 615.495 1542.27 Q617.323 1545.82 620.934 1545.82 Q624.569 1545.82 626.374 1542.27 Q628.203 1538.71 628.203 1531.6 Q628.203 1524.47 626.374 1520.93 Q624.569 1517.37 620.934 1517.37 M620.934 1513.66 Q626.745 1513.66 629.8 1518.27 Q632.879 1522.85 632.879 1531.6 Q632.879 1540.33 629.8 1544.94 Q626.745 1549.52 620.934 1549.52 Q615.124 1549.52 612.046 1544.94 Q608.99 1540.33 608.99 1531.6 Q608.99 1522.85 612.046 1518.27 Q615.124 1513.66 620.934 1513.66 Z" fill="#000000" fill-rule="nonzero" fill-opacity="1" /><path clip-path="url(#clip870)" d="M880.439 1532.02 L910.115 1532.02 L910.115 1535.95 L880.439 1535.95 L880.439 1532.02 Z" fill="#000000" fill-rule="nonzero" fill-opacity="1" /><path clip-path="url(#clip870)" d="M921.018 1544.91 L928.656 1544.91 L928.656 1518.55 L920.346 1520.21 L920.346 1515.95 L928.61 1514.29 L933.286 1514.29 L933.286 1544.91 L940.925 1544.91 L940.925 1548.85 L921.018 1548.85 L921.018 1544.91 Z" fill="#000000" fill-rule="nonzero" fill-opacity="1" /><path clip-path="url(#clip870)" d="M960.369 1517.37 Q956.758 1517.37 954.93 1520.93 Q953.124 1524.47 953.124 1531.6 Q953.124 1538.71 954.93 1542.27 Q956.758 1545.82 960.369 1545.82 Q964.004 1545.82 965.809 1542.27 Q967.638 1538.71 967.638 1531.6 Q967.638 1524.47 965.809 1520.93 Q964.004 1517.37 960.369 1517.37 M960.369 1513.66 Q966.179 1513.66 969.235 1518.27 Q972.314 1522.85 972.314 1531.6 Q972.314 1540.33 969.235 1544.94 Q966.179 1549.52 960.369 1549.52 Q954.559 1549.52 951.48 1544.94 Q948.425 1540.33 948.425 1531.6 Q948.425 1522.85 951.48 1518.27 Q954.559 1513.66 960.369 1513.66 Z" fill="#000000" fill-rule="nonzero" fill-opacity="1" /><path clip-path="url(#clip870)" d="M1265.81 1517.37 Q1262.2 1517.37 1260.37 1520.93 Q1258.57 1524.47 1258.57 1531.6 Q1258.57 1538.71 1260.37 1542.27 Q1262.2 1545.82 1265.81 1545.82 Q1269.45 1545.82 1271.25 1542.27 Q1273.08 1538.71 1273.08 1531.6 Q1273.08 1524.47 1271.25 1520.93 Q1269.45 1517.37 1265.81 1517.37 M1265.81 1513.66 Q1271.62 1513.66 1274.68 1518.27 Q1277.76 1522.85 1277.76 1531.6 Q1277.76 1540.33 1274.68 1544.94 Q1271.62 1549.52 1265.81 1549.52 Q1260 1549.52 1256.92 1544.94 Q1253.87 1540.33 1253.87 1531.6 Q1253.87 1522.85 1256.92 1518.27 Q1260 1513.66 1265.81 1513.66 Z" fill="#000000" fill-rule="nonzero" fill-opacity="1" /><path clip-path="url(#clip870)" d="M1579.93 1544.91 L1587.57 1544.91 L1587.57 1518.55 L1579.26 1520.21 L1579.26 1515.95 L1587.53 1514.29 L1592.2 1514.29 L1592.2 1544.91 L1599.84 1544.91 L1599.84 1548.85 L1579.93 1548.85 L1579.93 1544.91 Z" fill="#000000" fill-rule="nonzero" fill-opacity="1" /><path clip-path="url(#clip870)" d="M1619.29 1517.37 Q1615.67 1517.37 1613.85 1520.93 Q1612.04 1524.47 1612.04 1531.6 Q1612.04 1538.71 1613.85 1542.27 Q1615.67 1545.82 1619.29 1545.82 Q1622.92 1545.82 1624.73 1542.27 Q1626.55 1538.71 1626.55 1531.6 Q1626.55 1524.47 1624.73 1520.93 Q1622.92 1517.37 1619.29 1517.37 M1619.29 1513.66 Q1625.1 1513.66 1628.15 1518.27 Q1631.23 1522.85 1631.23 1531.6 Q1631.23 1540.33 1628.15 1544.94 Q1625.1 1549.52 1619.29 1549.52 Q1613.48 1549.52 1610.4 1544.94 Q1607.34 1540.33 1607.34 1531.6 Q1607.34 1522.85 1610.4 1518.27 Q1613.48 1513.66 1619.29 1513.66 Z" fill="#000000" fill-rule="nonzero" fill-opacity="1" /><path clip-path="url(#clip870)" d="M1923.45 1544.91 L1939.77 1544.91 L1939.77 1548.85 L1917.83 1548.85 L1917.83 1544.91 Q1920.49 1542.16 1925.07 1537.53 Q1929.68 1532.88 1930.86 1531.53 Q1933.11 1529.01 1933.99 1527.27 Q1934.89 1525.51 1934.89 1523.82 Q1934.89 1521.07 1932.94 1519.33 Q1931.02 1517.6 1927.92 1517.6 Q1925.72 1517.6 1923.27 1518.36 Q1920.84 1519.13 1918.06 1520.68 L1918.06 1515.95 Q1920.88 1514.82 1923.34 1514.24 Q1925.79 1513.66 1927.83 1513.66 Q1933.2 1513.66 1936.39 1516.35 Q1939.59 1519.03 1939.59 1523.52 Q1939.59 1525.65 1938.78 1527.57 Q1937.99 1529.47 1935.88 1532.07 Q1935.31 1532.74 1932.2 1535.95 Q1929.1 1539.15 1923.45 1544.91 Z" fill="#000000" fill-rule="nonzero" fill-opacity="1" /><path clip-path="url(#clip870)" d="M1959.59 1517.37 Q1955.98 1517.37 1954.15 1520.93 Q1952.34 1524.47 1952.34 1531.6 Q1952.34 1538.71 1954.15 1542.27 Q1955.98 1545.82 1959.59 1545.82 Q1963.22 1545.82 1965.03 1542.27 Q1966.86 1538.71 1966.86 1531.6 Q1966.86 1524.47 1965.03 1520.93 Q1963.22 1517.37 1959.59 1517.37 M1959.59 1513.66 Q1965.4 1513.66 1968.45 1518.27 Q1971.53 1522.85 1971.53 1531.6 Q1971.53 1540.33 1968.45 1544.94 Q1965.4 1549.52 1959.59 1549.52 Q1953.78 1549.52 1950.7 1544.94 Q1947.64 1540.33 1947.64 1531.6 Q1947.64 1522.85 1950.7 1518.27 Q1953.78 1513.66 1959.59 1513.66 Z" fill="#000000" fill-rule="nonzero" fill-opacity="1" /><path clip-path="url(#clip870)" d="M2272.96 1530.21 Q2276.31 1530.93 2278.19 1533.2 Q2280.09 1535.47 2280.09 1538.8 Q2280.09 1543.92 2276.57 1546.72 Q2273.05 1549.52 2266.57 1549.52 Q2264.39 1549.52 2262.08 1549.08 Q2259.79 1548.66 2257.33 1547.81 L2257.33 1543.29 Q2259.28 1544.43 2261.59 1545.01 Q2263.91 1545.58 2266.43 1545.58 Q2270.83 1545.58 2273.12 1543.85 Q2275.44 1542.11 2275.44 1538.8 Q2275.44 1535.75 2273.28 1534.03 Q2271.15 1532.3 2267.33 1532.3 L2263.31 1532.3 L2263.31 1528.45 L2267.52 1528.45 Q2270.97 1528.45 2272.8 1527.09 Q2274.63 1525.7 2274.63 1523.11 Q2274.63 1520.45 2272.73 1519.03 Q2270.85 1517.6 2267.33 1517.6 Q2265.41 1517.6 2263.21 1518.01 Q2261.01 1518.43 2258.38 1519.31 L2258.38 1515.14 Q2261.04 1514.4 2263.35 1514.03 Q2265.69 1513.66 2267.75 1513.66 Q2273.07 1513.66 2276.18 1516.09 Q2279.28 1518.5 2279.28 1522.62 Q2279.28 1525.49 2277.63 1527.48 Q2275.99 1529.45 2272.96 1530.21 Z" fill="#000000" fill-rule="nonzero" fill-opacity="1" /><path clip-path="url(#clip870)" d="M2298.95 1517.37 Q2295.34 1517.37 2293.51 1520.93 Q2291.71 1524.47 2291.71 1531.6 Q2291.71 1538.71 2293.51 1542.27 Q2295.34 1545.82 2298.95 1545.82 Q2302.59 1545.82 2304.39 1542.27 Q2306.22 1538.71 2306.22 1531.6 Q2306.22 1524.47 2304.39 1520.93 Q2302.59 1517.37 2298.95 1517.37 M2298.95 1513.66 Q2304.76 1513.66 2307.82 1518.27 Q2310.9 1522.85 2310.9 1531.6 Q2310.9 1540.33 2307.82 1544.94 Q2304.76 1549.52 2298.95 1549.52 Q2293.14 1549.52 2290.06 1544.94 Q2287.01 1540.33 2287.01 1531.6 Q2287.01 1522.85 2290.06 1518.27 Q2293.14 1513.66 2298.95 1513.66 Z" fill="#000000" fill-rule="nonzero" fill-opacity="1" /><polyline clip-path="url(#clip872)" style="stroke:#000000; stroke-linecap:round; stroke-linejoin:round; stroke-width:2; stroke-opacity:0.1; fill:none" points="178.867,1445.72 2352.76,1445.72 "/>
<polyline clip-path="url(#clip872)" style="stroke:#000000; stroke-linecap:round; stroke-linejoin:round; stroke-width:2; stroke-opacity:0.1; fill:none" points="178.867,1106.28 2352.76,1106.28 "/>
<polyline clip-path="url(#clip872)" style="stroke:#000000; stroke-linecap:round; stroke-linejoin:round; stroke-width:2; stroke-opacity:0.1; fill:none" points="178.867,766.846 2352.76,766.846 "/>
<polyline clip-path="url(#clip872)" style="stroke:#000000; stroke-linecap:round; stroke-linejoin:round; stroke-width:2; stroke-opacity:0.1; fill:none" points="178.867,427.411 2352.76,427.411 "/>
<polyline clip-path="url(#clip872)" style="stroke:#000000; stroke-linecap:round; stroke-linejoin:round; stroke-width:2; stroke-opacity:0.1; fill:none" points="178.867,87.9763 2352.76,87.9763 "/>
<polyline clip-path="url(#clip870)" style="stroke:#000000; stroke-linecap:round; stroke-linejoin:round; stroke-width:4; stroke-opacity:1; fill:none" points="178.867,1486.45 178.867,47.2441 "/>
<polyline clip-path="url(#clip870)" style="stroke:#000000; stroke-linecap:round; stroke-linejoin:round; stroke-width:4; stroke-opacity:1; fill:none" points="178.867,1445.72 197.764,1445.72 "/>
<polyline clip-path="url(#clip870)" style="stroke:#000000; stroke-linecap:round; stroke-linejoin:round; stroke-width:4; stroke-opacity:1; fill:none" points="178.867,1106.28 197.764,1106.28 "/>
<polyline clip-path="url(#clip870)" style="stroke:#000000; stroke-linecap:round; stroke-linejoin:round; stroke-width:4; stroke-opacity:1; fill:none" points="178.867,766.846 197.764,766.846 "/>
<polyline clip-path="url(#clip870)" style="stroke:#000000; stroke-linecap:round; stroke-linejoin:round; stroke-width:4; stroke-opacity:1; fill:none" points="178.867,427.411 197.764,427.411 "/>
<polyline clip-path="url(#clip870)" style="stroke:#000000; stroke-linecap:round; stroke-linejoin:round; stroke-width:4; stroke-opacity:1; fill:none" points="178.867,87.9763 197.764,87.9763 "/>
<path clip-path="url(#clip870)" d="M50.9921 1446.17 L80.6679 1446.17 L80.6679 1450.1 L50.9921 1450.1 L50.9921 1446.17 Z" fill="#000000" fill-rule="nonzero" fill-opacity="1" /><path clip-path="url(#clip870)" d="M94.7882 1459.06 L111.108 1459.06 L111.108 1463 L89.1632 1463 L89.1632 1459.06 Q91.8252 1456.31 96.4085 1451.68 Q101.015 1447.02 102.196 1445.68 Q104.441 1443.16 105.321 1441.42 Q106.223 1439.66 106.223 1437.97 Q106.223 1435.22 104.279 1433.48 Q102.358 1431.75 99.2558 1431.75 Q97.0567 1431.75 94.603 1432.51 Q92.1725 1433.27 89.3947 1434.82 L89.3947 1430.1 Q92.2188 1428.97 94.6724 1428.39 Q97.1261 1427.81 99.1632 1427.81 Q104.534 1427.81 107.728 1430.5 Q110.922 1433.18 110.922 1437.67 Q110.922 1439.8 110.112 1441.72 Q109.325 1443.62 107.219 1446.21 Q106.64 1446.88 103.538 1450.1 Q100.436 1453.3 94.7882 1459.06 Z" fill="#000000" fill-rule="nonzero" fill-opacity="1" /><path clip-path="url(#clip870)" d="M130.922 1431.51 Q127.311 1431.51 125.482 1435.08 Q123.677 1438.62 123.677 1445.75 Q123.677 1452.86 125.482 1456.42 Q127.311 1459.96 130.922 1459.96 Q134.556 1459.96 136.362 1456.42 Q138.191 1452.86 138.191 1445.75 Q138.191 1438.62 136.362 1435.08 Q134.556 1431.51 130.922 1431.51 M130.922 1427.81 Q136.732 1427.81 139.788 1432.42 Q142.867 1437 142.867 1445.75 Q142.867 1454.48 139.788 1459.08 Q136.732 1463.67 130.922 1463.67 Q125.112 1463.67 122.033 1459.08 Q118.978 1454.48 118.978 1445.75 Q118.978 1437 122.033 1432.42 Q125.112 1427.81 130.922 1427.81 Z" fill="#000000" fill-rule="nonzero" fill-opacity="1" /><path clip-path="url(#clip870)" d="M50.9921 1106.73 L80.6679 1106.73 L80.6679 1110.67 L50.9921 1110.67 L50.9921 1106.73 Z" fill="#000000" fill-rule="nonzero" fill-opacity="1" /><path clip-path="url(#clip870)" d="M91.5706 1119.63 L99.2095 1119.63 L99.2095 1093.26 L90.8993 1094.93 L90.8993 1090.67 L99.1632 1089 L103.839 1089 L103.839 1119.63 L111.478 1119.63 L111.478 1123.56 L91.5706 1123.56 L91.5706 1119.63 Z" fill="#000000" fill-rule="nonzero" fill-opacity="1" /><path clip-path="url(#clip870)" d="M130.922 1092.08 Q127.311 1092.08 125.482 1095.64 Q123.677 1099.19 123.677 1106.32 Q123.677 1113.42 125.482 1116.99 Q127.311 1120.53 130.922 1120.53 Q134.556 1120.53 136.362 1116.99 Q138.191 1113.42 138.191 1106.32 Q138.191 1099.19 136.362 1095.64 Q134.556 1092.08 130.922 1092.08 M130.922 1088.38 Q136.732 1088.38 139.788 1092.98 Q142.867 1097.57 142.867 1106.32 Q142.867 1115.04 139.788 1119.65 Q136.732 1124.23 130.922 1124.23 Q125.112 1124.23 122.033 1119.65 Q118.978 1115.04 118.978 1106.32 Q118.978 1097.57 122.033 1092.98 Q125.112 1088.38 130.922 1088.38 Z" fill="#000000" fill-rule="nonzero" fill-opacity="1" /><path clip-path="url(#clip870)" d="M130.922 752.645 Q127.311 752.645 125.482 756.209 Q123.677 759.751 123.677 766.881 Q123.677 773.987 125.482 777.552 Q127.311 781.094 130.922 781.094 Q134.556 781.094 136.362 777.552 Q138.191 773.987 138.191 766.881 Q138.191 759.751 136.362 756.209 Q134.556 752.645 130.922 752.645 M130.922 748.941 Q136.732 748.941 139.788 753.547 Q142.867 758.131 142.867 766.881 Q142.867 775.608 139.788 780.214 Q136.732 784.797 130.922 784.797 Q125.112 784.797 122.033 780.214 Q118.978 775.608 118.978 766.881 Q118.978 758.131 122.033 753.547 Q125.112 748.941 130.922 748.941 Z" fill="#000000" fill-rule="nonzero" fill-opacity="1" /><path clip-path="url(#clip870)" d="M91.5706 440.756 L99.2095 440.756 L99.2095 414.39 L90.8993 416.057 L90.8993 411.798 L99.1632 410.131 L103.839 410.131 L103.839 440.756 L111.478 440.756 L111.478 444.691 L91.5706 444.691 L91.5706 440.756 Z" fill="#000000" fill-rule="nonzero" fill-opacity="1" /><path clip-path="url(#clip870)" d="M130.922 413.21 Q127.311 413.21 125.482 416.775 Q123.677 420.316 123.677 427.446 Q123.677 434.552 125.482 438.117 Q127.311 441.659 130.922 441.659 Q134.556 441.659 136.362 438.117 Q138.191 434.552 138.191 427.446 Q138.191 420.316 136.362 416.775 Q134.556 413.21 130.922 413.21 M130.922 409.506 Q136.732 409.506 139.788 414.113 Q142.867 418.696 142.867 427.446 Q142.867 436.173 139.788 440.779 Q136.732 445.362 130.922 445.362 Q125.112 445.362 122.033 440.779 Q118.978 436.173 118.978 427.446 Q118.978 418.696 122.033 414.113 Q125.112 409.506 130.922 409.506 Z" fill="#000000" fill-rule="nonzero" fill-opacity="1" /><path clip-path="url(#clip870)" d="M94.7882 101.321 L111.108 101.321 L111.108 105.256 L89.1632 105.256 L89.1632 101.321 Q91.8252 98.5665 96.4085 93.9369 Q101.015 89.2841 102.196 87.9416 Q104.441 85.4184 105.321 83.6823 Q106.223 81.9231 106.223 80.2333 Q106.223 77.4786 104.279 75.7425 Q102.358 74.0064 99.2558 74.0064 Q97.0567 74.0064 94.603 74.7703 Q92.1725 75.5342 89.3947 77.0851 L89.3947 72.3629 Q92.2188 71.2287 94.6724 70.65 Q97.1261 70.0713 99.1632 70.0713 Q104.534 70.0713 107.728 72.7565 Q110.922 75.4416 110.922 79.9323 Q110.922 82.062 110.112 83.9832 Q109.325 85.8814 107.219 88.474 Q106.64 89.1453 103.538 92.3628 Q100.436 95.5573 94.7882 101.321 Z" fill="#000000" fill-rule="nonzero" fill-opacity="1" /><path clip-path="url(#clip870)" d="M130.922 73.775 Q127.311 73.775 125.482 77.3398 Q123.677 80.8814 123.677 88.011 Q123.677 95.1174 125.482 98.6822 Q127.311 102.224 130.922 102.224 Q134.556 102.224 136.362 98.6822 Q138.191 95.1174 138.191 88.011 Q138.191 80.8814 136.362 77.3398 Q134.556 73.775 130.922 73.775 M130.922 70.0713 Q136.732 70.0713 139.788 74.6777 Q142.867 79.261 142.867 88.011 Q142.867 96.7378 139.788 101.344 Q136.732 105.928 130.922 105.928 Q125.112 105.928 122.033 101.344 Q118.978 96.7378 118.978 88.011 Q118.978 79.261 122.033 74.6777 Q125.112 70.0713 130.922 70.0713 Z" fill="#000000" fill-rule="nonzero" fill-opacity="1" /><polyline clip-path="url(#clip872)" style="stroke:#0000ff; stroke-linecap:round; stroke-linejoin:round; stroke-width:4; stroke-opacity:1; fill:none" points="1153.63,1007.84 1153.8,1009.02 1154.13,1011.24 1154.74,1014.63 1155.45,1018.03 1156.27,1021.42 1157.19,1024.82 1158.25,1028.21 1159.42,1031.61 1160.59,1034.71 1160.7,1035 1162.13,1038.39 1163.67,1041.79 1163.98,1042.44 1165.36,1045.18 1167.18,1048.58 1167.38,1048.91 1169.18,1051.97 1170.77,1054.51 1171.32,1055.37 1173.65,1058.76 1174.16,1059.47 1176.17,1062.15 1177.56,1063.92 1178.89,1065.55 1180.95,1067.96 1181.83,1068.94 1184.35,1071.64 1185.02,1072.34 1187.74,1075.02 1188.5,1075.73 1191.14,1078.12 1192.29,1079.13 1194.53,1080.99 1196.46,1082.52 1197.92,1083.64 1201.06,1085.91 1201.32,1086.1 1204.71,1088.35 1206.23,1089.31 1208.11,1090.45 1211.5,1092.39 1212.09,1092.7 1214.9,1094.16 1218.29,1095.81 1218.92,1096.1 1221.68,1097.31 1225.08,1098.68 1227.24,1099.49 1228.47,1099.94 1231.87,1101.06 1235.26,1102.07 1238.32,1102.89 1238.66,1102.97 1242.05,1103.75 1245.45,1104.42 1248.84,1104.99 1252.23,1105.45 1255.63,1105.82 1259.02,1106.07 1262.42,1106.23 1265.81,1106.28 1269.21,1106.23 1272.6,1106.07 1275.99,1105.82 1279.39,1105.45 1282.78,1104.99 1286.18,1104.42 1289.57,1103.75 1292.97,1102.97 1293.3,1102.89 1296.36,1102.07 1299.75,1101.06 1303.15,1099.94 1304.38,1099.49 1306.54,1098.68 1309.94,1097.31 1312.7,1096.1 1313.33,1095.81 1316.73,1094.16 1319.54,1092.7 1320.12,1092.39 1323.52,1090.45 1325.39,1089.31 1326.91,1088.35 1330.3,1086.1 1330.56,1085.91 1333.7,1083.64 1335.16,1082.52 1337.09,1080.99 1339.33,1079.13 1340.49,1078.12 1343.13,1075.73 1343.88,1075.02 1346.6,1072.34 1347.28,1071.64 1349.79,1068.94 1350.67,1067.96 1352.73,1065.55 1354.06,1063.92 1355.45,1062.15 1357.46,1059.47 1357.97,1058.76 1360.3,1055.37 1360.85,1054.51 1362.44,1051.97 1364.25,1048.91 1364.44,1048.58 1366.26,1045.18 1367.64,1042.44 1367.96,1041.79 1369.5,1038.39 1370.92,1035 1371.04,1034.71 1372.2,1031.61 1373.37,1028.21 1374.43,1024.82 1375.35,1021.42 1376.17,1018.03 1376.88,1014.63 1377.49,1011.24 1377.82,1009.02 1377.99,1007.84 1378.38,1004.45 1378.67,1001.06 1378.85,997.662 1378.94,994.267 1378.92,990.873 1378.8,987.479 1378.58,984.084 1378.26,980.69 1377.84,977.296 1377.82,977.186 1377.3,973.901 1376.66,970.507 1375.91,967.113 1375.06,963.718 1374.43,961.496 1374.09,960.324 1372.99,956.93 1371.79,953.535 1371.04,951.582 1370.46,950.141 1369,946.746 1367.64,943.831 1367.41,943.352 1365.67,939.958 1364.25,937.368 1363.79,936.563 1361.75,933.169 1360.85,931.768 1359.54,929.775 1357.46,926.794 1357.16,926.38 1354.58,922.986 1354.06,922.345 1351.78,919.592 1350.67,918.316 1348.75,916.197 1347.28,914.634 1345.47,912.803 1343.88,911.258 1341.89,909.409 1340.49,908.15 1337.99,906.014 1337.09,905.279 1333.7,902.62 1330.3,900.183 1328.9,899.226 1326.91,897.92 1323.55,895.831 1323.52,895.812 1320.12,893.892 1317.38,892.437 1316.73,892.099 1313.33,890.468 1310.15,889.043 1309.94,888.952 1306.54,887.59 1303.15,886.338 1301.1,885.648 1299.75,885.209 1296.36,884.206 1292.97,883.309 1289.57,882.518 1288.27,882.254 1286.18,881.844 1282.78,881.282 1279.39,880.821 1275.99,880.463 1272.6,880.207 1269.21,880.053 1265.81,880.002 1262.42,880.053 1259.02,880.207 1255.63,880.463 1252.23,880.821 1248.84,881.282 1245.45,881.844 1243.36,882.254 1242.05,882.518 1238.66,883.309 1235.26,884.206 1231.87,885.209 1230.52,885.648 1228.47,886.338 1225.08,887.59 1221.68,888.952 1221.48,889.043 1218.29,890.468 1214.9,892.099 1214.24,892.437 1211.5,893.892 1208.11,895.812 1208.08,895.831 1204.71,897.92 1202.73,899.226 1201.32,900.183 1197.92,902.62 1194.53,905.279 1193.64,906.014 1191.14,908.15 1189.73,909.409 1187.74,911.258 1186.15,912.803 1184.35,914.634 1182.87,916.197 1180.95,918.316 1179.84,919.592 1177.56,922.345 1177.05,922.986 1174.46,926.38 1174.16,926.794 1172.09,929.775 1170.77,931.768 1169.88,933.169 1167.83,936.563 1167.38,937.368 1165.96,939.958 1164.21,943.352 1163.98,943.831 1162.63,946.746 1161.16,950.141 1160.59,951.582 1159.83,953.535 1158.63,956.93 1157.53,960.324 1157.19,961.496 1156.57,963.718 1155.71,967.113 1154.96,970.507 1154.32,973.901 1153.8,977.186 1153.78,977.296 1153.36,980.69 1153.04,984.084 1152.82,987.479 1152.7,990.873 1152.68,994.267 1152.77,997.662 1152.95,1001.06 1153.24,1004.45 1153.63,1007.84 "/>
<polyline clip-path="url(#clip872)" style="stroke:#0000ff; stroke-linecap:round; stroke-linejoin:round; stroke-width:4; stroke-opacity:1; fill:none" points="1374.25,661.621 1374.43,662.409 1375.08,665.016 1376.19,668.41 1377.57,671.804 1377.82,672.326 1379.34,675.199 1381.22,678.196 1381.49,678.593 1384.16,681.987 1384.61,682.489 1387.47,685.382 1388.01,685.863 1391.4,688.607 1391.64,688.776 1394.8,690.835 1397.14,692.17 1398.19,692.714 1401.59,694.251 1404.98,695.552 1405.02,695.565 1408.37,696.568 1411.77,697.389 1415.16,698.027 1418.56,698.492 1421.95,698.794 1425.35,698.941 1428.74,698.941 1432.13,698.803 1435.53,698.532 1438.92,698.136 1442.32,697.621 1445.71,696.993 1449.11,696.257 1451.9,695.565 1452.5,695.41 1455.89,694.428 1459.29,693.35 1462.68,692.179 1462.71,692.17 1466.08,690.861 1469.47,689.457 1471.01,688.776 1472.87,687.932 1476.26,686.294 1478.05,685.382 1479.66,684.54 1483.05,682.669 1484.23,681.987 1486.44,680.665 1489.79,678.593 1489.84,678.559 1493.23,676.282 1494.79,675.199 1496.63,673.879 1499.42,671.804 1500.02,671.341 1503.42,668.638 1503.69,668.41 1506.81,665.748 1507.64,665.016 1510.2,662.677 1511.33,661.621 1513.6,659.402 1514.77,658.227 1516.99,655.901 1517.99,654.832 1520.39,652.141 1521,651.438 1523.78,648.09 1523.82,648.044 1526.43,644.649 1527.18,643.634 1528.87,641.255 1530.57,638.754 1531.16,637.861 1533.27,634.466 1533.96,633.28 1535.22,631.072 1537.03,627.678 1537.36,627 1538.66,624.283 1540.15,620.889 1540.75,619.373 1541.48,617.495 1542.66,614.1 1543.69,610.706 1544.15,608.927 1544.55,607.312 1545.25,603.917 1545.79,600.523 1546.15,597.129 1546.34,593.734 1546.34,590.34 1546.14,586.946 1545.72,583.551 1545.08,580.157 1544.2,576.762 1544.15,576.616 1543,573.368 1541.5,569.974 1540.75,568.542 1539.64,566.579 1537.36,563.185 1534.51,559.791 1533.96,559.219 1530.99,556.396 1530.57,556.043 1527.18,553.463 1526.49,553.002 1523.78,551.345 1520.51,549.608 1520.39,549.548 1516.99,548.107 1513.6,546.893 1511.31,546.213 1510.2,545.911 1506.81,545.156 1503.42,544.577 1500.02,544.166 1496.63,543.913 1493.23,543.81 1489.84,543.849 1486.44,544.023 1483.05,544.326 1479.66,544.75 1476.26,545.291 1472.87,545.942 1471.66,546.213 1469.47,546.722 1466.08,547.619 1462.68,548.615 1459.6,549.608 1459.29,549.711 1455.89,550.948 1452.5,552.273 1450.76,553.002 1449.11,553.715 1445.71,555.275 1443.4,556.396 1442.32,556.938 1438.92,558.733 1437.01,559.791 1435.53,560.639 1432.13,562.668 1431.31,563.185 1428.74,564.841 1426.14,566.579 1425.35,567.13 1421.95,569.569 1421.41,569.974 1418.56,572.174 1417.06,573.368 1415.16,574.932 1413.01,576.762 1411.77,577.861 1409.25,580.157 1408.37,580.981 1405.73,583.551 1404.98,584.316 1402.46,586.946 1401.59,587.893 1399.39,590.34 1398.19,591.745 1396.53,593.734 1394.8,595.91 1393.85,597.129 1391.4,600.434 1391.34,600.523 1389.03,603.917 1388.01,605.497 1386.87,607.312 1384.86,610.706 1384.61,611.149 1383.03,614.1 1381.33,617.495 1381.22,617.736 1379.81,620.889 1378.43,624.283 1377.82,625.941 1377.21,627.678 1376.15,631.072 1375.23,634.466 1374.47,637.861 1374.43,638.07 1373.89,641.255 1373.48,644.649 1373.24,648.044 1373.19,651.438 1373.33,654.832 1373.68,658.227 1374.25,661.621 "/>
<polyline clip-path="url(#clip872)" style="stroke:#0000ff; stroke-linecap:round; stroke-linejoin:round; stroke-width:4; stroke-opacity:1; fill:none" points="1123.25,696.568 1119.85,697.389 1116.46,698.027 1113.07,698.492 1109.67,698.794 1106.28,698.941 1102.88,698.941 1099.49,698.803 1096.09,698.532 1092.7,698.136 1089.31,697.621 1085.91,696.993 1082.52,696.257 1079.73,695.565 1079.12,695.41 1075.73,694.428 1072.33,693.35 1068.94,692.179 1068.92,692.17 1065.54,690.861 1062.15,689.457 1060.61,688.776 1058.76,687.932 1055.36,686.294 1053.57,685.382 1051.97,684.54 1048.57,682.669 1047.39,681.987 1045.18,680.665 1041.84,678.593 1041.78,678.559 1038.39,676.282 1036.83,675.199 1035,673.879 1032.2,671.804 1031.6,671.341 1028.21,668.638 1027.93,668.41 1024.81,665.748 1023.98,665.016 1021.42,662.677 1020.3,661.621 1018.02,659.402 1016.85,658.227 1014.63,655.901 1013.64,654.832 1011.24,652.141 1010.62,651.438 1007.84,648.09 1007.8,648.044 1005.19,644.649 1004.45,643.634 1002.75,641.255 1001.05,638.754 1000.46,637.861 998.35,634.466 997.658,633.28 996.402,631.072 994.595,627.678 994.263,627 992.965,624.283 991.472,620.889 990.869,619.373 990.14,617.495 988.967,614.1 987.934,610.706 987.475,608.927 987.068,607.312 986.372,603.917 985.837,600.523 985.47,597.129 985.282,593.734 985.284,590.34 985.487,586.946 985.902,583.551 986.544,580.157 987.427,576.762 987.475,576.616 988.625,573.368 990.118,569.974 990.869,568.542 991.987,566.579 994.263,563.185 997.113,559.791 997.658,559.219 1000.63,556.396 1001.05,556.043 1004.45,553.463 1005.13,553.002 1007.84,551.345 1011.11,549.608 1011.24,549.548 1014.63,548.107 1018.02,546.893 1020.32,546.213 1021.42,545.911 1024.81,545.156 1028.21,544.577 1031.6,544.166 1035,543.913 1038.39,543.81 1041.78,543.849 1045.18,544.023 1048.57,544.326 1051.97,544.75 1055.36,545.291 1058.76,545.942 1059.96,546.213 1062.15,546.722 1065.54,547.619 1068.94,548.615 1072.02,549.608 1072.33,549.711 1075.73,550.948 1079.12,552.273 1080.87,553.002 1082.52,553.715 1085.91,555.275 1088.22,556.396 1089.31,556.938 1092.7,558.733 1094.61,559.791 1096.09,560.639 1099.49,562.668 1100.32,563.185 1102.88,564.841 1105.48,566.579 1106.28,567.13 1109.67,569.569 1110.21,569.974 1113.07,572.174 1114.57,573.368 1116.46,574.932 1118.61,576.762 1119.85,577.861 1122.38,580.157 1123.25,580.981 1125.89,583.551 1126.64,584.316 1129.17,586.946 1130.04,587.893 1132.23,590.34 1133.43,591.745 1135.09,593.734 1136.83,595.91 1137.77,597.129 1140.22,600.434 1140.28,600.523 1142.6,603.917 1143.61,605.497 1144.76,607.312 1146.77,610.706 1147.01,611.149 1148.59,614.1 1150.29,617.495 1150.4,617.736 1151.81,620.889 1153.19,624.283 1153.8,625.941 1154.42,627.678 1155.48,631.072 1156.39,634.466 1157.16,637.861 1157.19,638.07 1157.73,641.255 1158.14,644.649 1158.38,648.044 1158.43,651.438 1158.29,654.832 1157.94,658.227 1157.37,661.621 1157.19,662.409 1156.54,665.016 1155.44,668.41 1154.05,671.804 1153.8,672.326 1152.28,675.199 1150.4,678.196 1150.13,678.593 1147.46,681.987 1147.01,682.489 1144.15,685.382 1143.61,685.863 1140.22,688.607 1139.99,688.776 1136.83,690.835 1134.48,692.17 1133.43,692.714 1130.04,694.251 1126.64,695.552 1126.6,695.565 1123.25,696.568 "/>
<polyline clip-path="url(#clip872)" style="stroke:#0000ff; stroke-linecap:round; stroke-linejoin:round; stroke-width:4; stroke-opacity:1; fill:none" points="1523.78,507.948 1520.39,508.274 1516.99,508.488 1513.6,508.584 1510.2,508.556 1506.81,508.4 1503.42,508.108 1500.02,507.674 1496.63,507.091 1493.23,506.35 1489.97,505.481 1489.84,505.443 1486.44,504.328 1483.05,503.023 1480.93,502.087 1479.66,501.496 1476.26,499.713 1474.53,498.692 1472.87,497.657 1469.47,495.298 1466.08,492.549 1465.35,491.904 1462.68,489.375 1461.84,488.509 1459.29,485.682 1458.81,485.115 1456.18,481.721 1455.89,481.327 1453.88,478.326 1452.5,476.08 1451.84,474.932 1450.05,471.538 1449.11,469.583 1448.45,468.143 1447.06,464.749 1445.81,461.355 1445.71,461.044 1444.75,457.96 1443.81,454.566 1443,451.172 1442.32,447.836 1442.31,447.777 1441.74,444.383 1441.28,440.989 1440.92,437.594 1440.65,434.2 1440.47,430.805 1440.37,427.411 1440.36,424.017 1440.43,420.622 1440.58,417.228 1440.8,413.834 1441.09,410.439 1441.45,407.045 1441.87,403.651 1442.32,400.547 1442.36,400.256 1442.92,396.862 1443.55,393.468 1444.23,390.073 1444.97,386.679 1445.71,383.503 1445.76,383.285 1446.63,379.89 1447.55,376.496 1448.52,373.102 1449.11,371.152 1449.55,369.707 1450.64,366.313 1451.77,362.919 1452.5,360.84 1452.97,359.524 1454.22,356.13 1455.52,352.735 1455.89,351.784 1456.88,349.341 1458.29,345.947 1459.29,343.609 1459.75,342.552 1461.27,339.158 1462.68,336.086 1462.83,335.764 1464.47,332.369 1466.08,329.095 1466.14,328.975 1467.88,325.581 1469.47,322.544 1469.66,322.186 1471.52,318.792 1472.87,316.362 1473.41,315.398 1475.37,312.003 1476.26,310.492 1477.39,308.609 1479.45,305.215 1479.66,304.888 1481.59,301.82 1483.05,299.548 1483.78,298.426 1486.03,295.032 1486.44,294.421 1488.35,291.637 1489.84,289.506 1490.73,288.243 1493.17,284.848 1493.23,284.762 1495.69,281.454 1496.63,280.213 1498.28,278.06 1500.02,275.814 1500.93,274.665 1503.42,271.559 1503.65,271.271 1506.46,267.877 1506.81,267.454 1509.35,264.482 1510.2,263.488 1512.32,261.088 1513.6,259.646 1515.37,257.694 1516.99,255.925 1518.51,254.299 1520.39,252.32 1521.75,250.905 1523.78,248.827 1525.09,247.511 1527.18,245.442 1528.54,244.116 1530.57,242.162 1532.1,240.722 1533.96,238.984 1535.78,237.328 1537.36,235.903 1539.59,233.933 1540.75,232.917 1543.54,230.539 1544.15,230.022 1547.54,227.219 1547.63,227.145 1550.94,224.515 1551.92,223.75 1554.33,221.897 1556.38,220.356 1557.73,219.361 1561.04,216.962 1561.12,216.904 1564.51,214.548 1565.97,213.567 1567.91,212.27 1571.13,210.173 1571.3,210.064 1574.7,207.959 1576.66,206.778 1578.09,205.925 1581.49,203.974 1582.55,203.384 1584.88,202.111 1588.27,200.32 1588.93,199.99 1591.67,198.624 1595.06,196.998 1595.95,196.595 1598.46,195.467 1601.85,194.013 1603.85,193.201 1605.25,192.643 1608.64,191.366 1612.03,190.164 1613.13,189.807 1615.43,189.061 1618.82,188.047 1622.22,187.118 1625.07,186.412 1625.61,186.281 1629.01,185.551 1632.4,184.916 1635.8,184.379 1639.19,183.946 1642.58,183.619 1645.98,183.406 1649.37,183.31 1652.77,183.337 1656.16,183.493 1659.56,183.785 1662.95,184.219 1666.34,184.803 1669.74,185.543 1673,186.412 1673.13,186.45 1676.53,187.565 1679.92,188.871 1682.04,189.807 1683.32,190.398 1686.71,192.18 1688.44,193.201 1690.1,194.237 1693.5,196.595 1693.5,196.595 1696.89,199.344 1697.62,199.99 1700.29,202.519 1701.13,203.384 1703.68,206.212 1704.16,206.778 1706.79,210.173 1707.08,210.567 1709.09,213.567 1710.47,215.814 1711.13,216.962 1712.93,220.356 1713.87,222.311 1714.52,223.75 1715.91,227.145 1717.16,230.539 1717.26,230.849 1718.22,233.933 1719.16,237.328 1719.97,240.722 1720.65,244.058 1720.67,244.116 1721.23,247.511 1721.69,250.905 1722.05,254.299 1722.32,257.694 1722.5,261.088 1722.6,264.482 1722.61,267.877 1722.54,271.271 1722.39,274.665 1722.17,278.06 1721.88,281.454 1721.52,284.848 1721.1,288.243 1720.65,291.347 1720.61,291.637 1720.05,295.032 1719.42,298.426 1718.74,301.82 1718,305.215 1717.26,308.39 1717.21,308.609 1716.34,312.003 1715.42,315.398 1714.45,318.792 1713.87,320.742 1713.42,322.186 1712.33,325.581 1711.2,328.975 1710.47,331.054 1710,332.369 1708.75,335.764 1707.45,339.158 1707.08,340.11 1706.09,342.552 1704.68,345.947 1703.68,348.284 1703.22,349.341 1701.7,352.735 1700.29,355.808 1700.14,356.13 1698.5,359.524 1696.89,362.799 1696.83,362.919 1695.09,366.313 1693.5,369.35 1693.31,369.707 1691.46,373.102 1690.1,375.532 1689.56,376.496 1687.6,379.89 1686.71,381.402 1685.58,383.285 1683.52,386.679 1683.32,387.006 1681.38,390.073 1679.92,392.345 1679.19,393.468 1676.94,396.862 1676.53,397.473 1674.62,400.256 1673.13,402.388 1672.24,403.651 1669.8,407.045 1669.74,407.131 1667.28,410.439 1666.34,411.681 1664.69,413.834 1662.95,416.08 1662.04,417.228 1659.56,420.335 1659.32,420.622 1656.52,424.017 1656.16,424.439 1653.63,427.411 1652.77,428.406 1650.66,430.805 1649.37,432.247 1647.6,434.2 1645.98,435.969 1644.46,437.594 1642.58,439.574 1641.22,440.989 1639.19,443.067 1637.88,444.383 1635.8,446.451 1634.43,447.777 1632.4,449.731 1630.87,451.172 1629.01,452.91 1627.19,454.566 1625.61,455.991 1623.38,457.96 1622.22,458.977 1619.43,461.355 1618.82,461.871 1615.43,464.675 1615.34,464.749 1612.03,467.378 1611.05,468.143 1608.64,469.996 1606.59,471.538 1605.25,472.533 1601.93,474.932 1601.85,474.989 1598.46,477.345 1597,478.326 1595.06,479.624 1591.84,481.721 1591.67,481.829 1588.27,483.935 1586.31,485.115 1584.88,485.968 1581.49,487.919 1580.42,488.509 1578.09,489.783 1574.7,491.573 1574.04,491.904 1571.3,493.27 1567.91,494.895 1567.02,495.298 1564.51,496.427 1561.12,497.881 1559.12,498.692 1557.73,499.251 1554.33,500.528 1550.94,501.729 1549.85,502.087 1547.54,502.833 1544.15,503.847 1540.75,504.776 1537.9,505.481 1537.36,505.613 1533.96,506.342 1530.57,506.978 1527.18,507.514 1523.78,507.948 "/>
<polyline clip-path="url(#clip872)" style="stroke:#0000ff; stroke-linecap:round; stroke-linejoin:round; stroke-width:4; stroke-opacity:1; fill:none" points="1038.39,506.35 1035,507.091 1031.6,507.674 1028.21,508.108 1024.81,508.4 1021.42,508.556 1018.02,508.584 1014.63,508.488 1011.24,508.274 1007.84,507.948 1004.45,507.514 1001.05,506.978 997.658,506.342 994.263,505.613 993.724,505.481 990.869,504.776 987.475,503.847 984.08,502.833 981.777,502.087 980.686,501.729 977.292,500.528 973.897,499.251 972.506,498.692 970.503,497.881 967.109,496.427 964.6,495.298 963.714,494.895 960.32,493.27 957.581,491.904 956.926,491.573 953.531,489.783 951.204,488.509 950.137,487.919 946.743,485.968 945.31,485.115 943.348,483.935 939.954,481.829 939.785,481.721 936.559,479.624 934.618,478.326 933.165,477.345 929.771,474.989 929.691,474.932 926.376,472.533 925.036,471.538 922.982,469.996 920.572,468.143 919.588,467.378 916.285,464.749 916.193,464.675 912.799,461.871 912.188,461.355 909.405,458.977 908.241,457.96 906.01,455.991 904.431,454.566 902.616,452.91 900.75,451.172 899.222,449.731 897.19,447.777 895.827,446.451 893.744,444.383 892.433,443.067 890.404,440.989 889.039,439.574 887.165,437.594 885.644,435.969 884.021,434.2 882.25,432.247 880.966,430.805 878.856,428.406 877.997,427.411 875.461,424.439 875.107,424.017 872.301,420.622 872.067,420.335 869.58,417.228 868.672,416.08 866.928,413.834 865.278,411.681 864.343,410.439 861.884,407.131 861.821,407.045 859.384,403.651 858.489,402.388 857.006,400.256 855.095,397.473 854.683,396.862 852.433,393.468 851.701,392.345 850.244,390.073 848.306,387.006 848.103,386.679 846.038,383.285 844.912,381.402 844.022,379.89 842.063,376.496 841.518,375.532 840.167,373.102 838.314,369.707 838.123,369.35 836.534,366.313 834.789,362.919 834.729,362.799 833.12,359.524 831.485,356.13 831.335,355.808 829.923,352.735 828.4,349.341 827.94,348.284 826.94,345.947 825.53,342.552 824.546,340.11 824.169,339.158 822.873,335.764 821.618,332.369 821.152,331.054 820.426,328.975 819.29,325.581 818.199,322.186 817.757,320.742 817.171,318.792 816.202,315.398 815.283,312.003 814.415,308.609 814.363,308.39 813.621,305.215 812.883,301.82 812.2,298.426 811.576,295.032 811.011,291.637 810.969,291.347 810.522,288.243 810.098,284.848 809.739,281.454 809.449,278.06 809.23,274.665 809.084,271.271 809.014,267.877 809.025,264.482 809.118,261.088 809.298,257.694 809.568,254.299 809.931,250.905 810.393,247.511 810.957,244.116 810.969,244.058 811.652,240.722 812.464,237.328 813.399,233.933 814.363,230.849 814.465,230.539 815.711,227.145 817.106,223.75 817.757,222.311 818.697,220.356 820.491,216.962 821.152,215.814 822.533,213.567 824.546,210.567 824.829,210.173 827.466,206.778 827.94,206.212 830.495,203.384 831.335,202.519 834.002,199.99 834.729,199.344 838.123,196.595 838.123,196.595 841.518,194.237 843.178,193.201 844.912,192.18 848.306,190.398 849.578,189.807 851.701,188.871 855.095,187.565 858.489,186.45 858.625,186.412 861.884,185.543 865.278,184.803 868.672,184.219 872.067,183.785 875.461,183.493 878.856,183.337 882.25,183.31 885.644,183.406 889.039,183.619 892.433,183.946 895.827,184.379 899.222,184.916 902.616,185.551 906.01,186.281 906.55,186.412 909.405,187.118 912.799,188.047 916.193,189.061 918.496,189.807 919.588,190.164 922.982,191.366 926.376,192.643 927.768,193.201 929.771,194.013 933.165,195.467 935.673,196.595 936.559,196.998 939.954,198.624 942.693,199.99 943.348,200.32 946.743,202.111 949.069,203.384 950.137,203.974 953.531,205.925 954.964,206.778 956.926,207.959 960.32,210.064 960.488,210.173 963.714,212.27 965.656,213.567 967.109,214.548 970.503,216.904 970.583,216.962 973.897,219.361 975.238,220.356 977.292,221.897 979.702,223.75 980.686,224.515 983.988,227.145 984.08,227.219 987.475,230.022 988.086,230.539 990.869,232.917 992.033,233.933 994.263,235.903 995.842,237.328 997.658,238.984 999.523,240.722 1001.05,242.162 1003.08,244.116 1004.45,245.442 1006.53,247.511 1007.84,248.827 1009.87,250.905 1011.24,252.32 1013.11,254.299 1014.63,255.925 1016.25,257.694 1018.02,259.646 1019.31,261.088 1021.42,263.488 1022.28,264.482 1024.81,267.454 1025.17,267.877 1027.97,271.271 1028.21,271.559 1030.69,274.665 1031.6,275.814 1033.35,278.06 1035,280.213 1035.93,281.454 1038.39,284.762 1038.45,284.848 1040.89,288.243 1041.78,289.506 1043.27,291.637 1045.18,294.421 1045.59,295.032 1047.84,298.426 1048.57,299.548 1050.03,301.82 1051.97,304.888 1052.17,305.215 1054.24,308.609 1055.36,310.492 1056.25,312.003 1058.21,315.398 1058.76,316.362 1060.11,318.792 1061.96,322.186 1062.15,322.544 1063.74,325.581 1065.48,328.975 1065.54,329.095 1067.15,332.369 1068.79,335.764 1068.94,336.086 1070.35,339.158 1071.87,342.552 1072.33,343.609 1073.33,345.947 1074.74,349.341 1075.73,351.784 1076.11,352.735 1077.4,356.13 1078.66,359.524 1079.12,360.84 1079.85,362.919 1080.98,366.313 1082.07,369.707 1082.52,371.152 1083.1,373.102 1084.07,376.496 1084.99,379.89 1085.86,383.285 1085.91,383.503 1086.65,386.679 1087.39,390.073 1088.07,393.468 1088.7,396.862 1089.26,400.256 1089.31,400.547 1089.75,403.651 1090.18,407.045 1090.53,410.439 1090.82,413.834 1091.04,417.228 1091.19,420.622 1091.26,424.017 1091.25,427.411 1091.16,430.805 1090.98,434.2 1090.71,437.594 1090.34,440.989 1089.88,444.383 1089.32,447.777 1089.31,447.836 1088.62,451.172 1087.81,454.566 1086.87,457.96 1085.91,461.044 1085.81,461.355 1084.56,464.749 1083.17,468.143 1082.52,469.583 1081.58,471.538 1079.78,474.932 1079.12,476.08 1077.74,478.326 1075.73,481.327 1075.44,481.721 1072.81,485.115 1072.33,485.682 1069.78,488.509 1068.94,489.375 1066.27,491.904 1065.54,492.549 1062.15,495.298 1058.76,497.657 1057.1,498.692 1055.36,499.713 1051.97,501.496 1050.7,502.087 1048.57,503.023 1045.18,504.328 1041.78,505.443 1041.65,505.481 1038.39,506.35 "/>
<circle clip-path="url(#clip872)" cx="1239.26" cy="883.151" r="14.4" fill="#000000" fill-rule="evenodd" fill-opacity="1" stroke="none"/>
<circle clip-path="url(#clip872)" cx="1376.56" cy="629.628" r="14.4" fill="#000000" fill-rule="evenodd" fill-opacity="1" stroke="none"/>
<circle clip-path="url(#clip872)" cx="1000.12" cy="637.345" r="14.4" fill="#000000" fill-rule="evenodd" fill-opacity="1" stroke="none"/>
<circle clip-path="url(#clip872)" cx="1446.59" cy="380.016" r="14.4" fill="#000000" fill-rule="evenodd" fill-opacity="1" stroke="none"/>
<circle clip-path="url(#clip872)" cx="844.122" cy="380.076" r="14.4" fill="#000000" fill-rule="evenodd" fill-opacity="1" stroke="none"/>
<polyline clip-path="url(#clip872)" style="stroke:#ff0000; stroke-linecap:round; stroke-linejoin:round; stroke-width:4; stroke-opacity:1; fill:none" points="1519.8,87.9763 1518.97,91.3706 1518.14,94.765 1517.32,98.1593 1516.99,99.5011 1516.49,101.554 1515.66,104.948 1514.83,108.342 1514.01,111.737 1513.6,113.415 1513.18,115.131 1512.35,118.525 1511.52,121.92 1510.69,125.314 1510.2,127.298 1509.86,128.708 1509.02,132.103 1508.19,135.497 1507.36,138.892 1506.81,141.148 1506.53,142.286 1505.69,145.68 1504.86,149.075 1504.03,152.469 1503.42,154.966 1503.19,155.863 1502.36,159.258 1501.52,162.652 1500.68,166.046 1500.02,168.748 1499.85,169.441 1499.01,172.835 1498.17,176.229 1497.33,179.624 1496.63,182.495 1496.5,183.018 1495.65,186.412 1494.81,189.807 1493.97,193.201 1493.23,196.205 1493.14,196.595 1492.29,199.99 1491.45,203.384 1490.61,206.778 1489.84,209.877 1489.76,210.173 1488.92,213.567 1488.07,216.962 1487.23,220.356 1486.44,223.509 1486.38,223.75 1485.53,227.145 1484.69,230.539 1483.84,233.933 1483.05,237.1 1482.99,237.328 1482.14,240.722 1481.29,244.116 1480.44,247.511 1479.66,250.648 1479.59,250.905 1478.74,254.299 1477.88,257.694 1477.03,261.088 1476.26,264.152 1476.18,264.482 1475.32,267.877 1474.46,271.271 1473.61,274.665 1472.87,277.61 1472.75,278.06 1471.89,281.454 1471.03,284.848 1470.17,288.243 1469.47,291.019 1469.31,291.637 1468.45,295.032 1467.59,298.426 1466.73,301.82 1466.08,304.38 1465.86,305.215 1465,308.609 1464.13,312.003 1463.27,315.398 1462.68,317.688 1462.4,318.792 1461.53,322.186 1460.66,325.581 1459.79,328.975 1459.29,330.942 1458.92,332.369 1458.05,335.764 1457.17,339.158 1456.3,342.552 1455.89,344.141 1455.43,345.947 1454.55,349.341 1453.67,352.735 1452.8,356.13 1452.5,357.281 1451.92,359.524 1451.03,362.919 1450.15,366.313 1449.27,369.707 1449.11,370.361 1448.39,373.102 1447.5,376.496 1446.62,379.89 1445.74,383.285 1445.71,383.376 1444.84,386.679 1443.95,390.073 1443.07,393.468 1442.32,396.329 1442.18,396.862 1441.28,400.256 1440.39,403.651 1439.49,407.045 1438.92,409.214 1438.6,410.439 1437.7,413.834 1436.8,417.228 1435.9,420.622 1435.53,422.026 1435,424.017 1434.09,427.411 1433.19,430.805 1432.28,434.2 1432.13,434.764 1431.37,437.594 1430.46,440.989 1429.55,444.383 1428.74,447.425 1428.64,447.777 1427.73,451.172 1426.81,454.566 1425.9,457.96 1425.35,460.009 1424.98,461.355 1424.06,464.749 1423.13,468.143 1422.21,471.538 1421.95,472.507 1421.29,474.932 1420.36,478.326 1419.43,481.721 1418.56,484.917 1418.5,485.115 1417.56,488.509 1416.63,491.904 1415.7,495.298 1415.16,497.239 1414.76,498.692 1413.81,502.087 1412.87,505.481 1411.93,508.875 1411.77,509.464 1410.98,512.27 1410.03,515.664 1409.08,519.059 1408.37,521.593 1408.13,522.453 1407.17,525.847 1406.21,529.242 1405.26,532.636 1404.98,533.618 1404.29,536.03 1403.32,539.425 1402.36,542.819 1401.59,545.536 1401.39,546.213 1400.41,549.608 1399.44,553.002 1398.46,556.396 1398.19,557.343 1397.48,559.791 1396.49,563.185 1395.51,566.579 1394.8,569.034 1394.52,569.974 1393.52,573.368 1392.53,576.762 1391.53,580.157 1391.4,580.603 1390.53,583.551 1389.52,586.946 1388.51,590.34 1388.01,592.048 1387.5,593.734 1386.48,597.129 1385.46,600.523 1384.61,603.358 1384.44,603.917 1383.41,607.312 1382.38,610.706 1381.35,614.1 1381.22,614.533 1380.31,617.495 1379.26,620.889 1378.22,624.283 1377.82,625.567 1377.16,627.678 1376.11,631.072 1375.05,634.466 1374.43,636.451 1373.98,637.861 1372.91,641.255 1371.83,644.649 1371.04,647.18 1370.76,648.044 1369.67,651.438 1368.58,654.832 1367.64,657.749 1367.48,658.227 1366.38,661.621 1365.27,665.016 1364.25,668.15 1364.16,668.41 1363.03,671.804 1361.91,675.199 1360.85,678.379 1360.78,678.593 1359.63,681.987 1358.49,685.382 1357.46,688.427 1357.34,688.776 1356.17,692.17 1355,695.565 1354.06,698.29 1353.83,698.959 1352.64,702.353 1351.44,705.748 1350.67,707.959 1350.24,709.142 1349.03,712.536 1347.81,715.931 1347.28,717.426 1346.58,719.325 1345.33,722.719 1344.09,726.114 1343.88,726.684 1342.82,729.508 1341.55,732.902 1340.49,735.729 1340.27,736.297 1338.96,739.691 1337.66,743.086 1337.09,744.554 1336.33,746.48 1334.99,749.874 1333.7,753.146 1333.65,753.269 1332.27,756.663 1330.89,760.057 1330.3,761.508 1329.49,763.452 1328.07,766.846 1326.91,769.624 1326.64,770.24 1325.18,773.635 1323.71,777.029 1323.52,777.492 1322.21,780.423 1320.7,783.818 1320.12,785.107 1319.15,787.212 1317.58,790.606 1316.73,792.46 1315.99,794.001 1314.36,797.395 1313.33,799.547 1312.71,800.789 1311.02,804.184 1309.94,806.362 1309.31,807.578 1307.54,810.973 1306.54,812.9 1305.75,814.367 1303.91,817.761 1303.15,819.157 1302.01,821.156 1300.08,824.55 1299.75,825.128 1298.08,827.944 1296.36,830.813 1296.03,831.339 1293.9,834.733 1292.97,836.208 1291.69,838.127 1289.57,841.307 1289.42,841.522 1287.03,844.916 1286.18,846.116 1284.53,848.31 1282.78,850.628 1281.92,851.705 1279.39,854.843 1279.17,855.099 1276.23,858.493 1275.99,858.766 1273.08,861.888 1272.6,862.397 1269.67,865.282 1269.21,865.736 1265.93,868.676 1265.81,868.785 1262.42,871.552 1261.71,872.071 1259.02,874.037 1256.83,875.465 1255.63,876.242 1252.23,878.176 1250.84,878.859 1248.84,879.843 1245.45,881.247 1242.47,882.254 1242.05,882.394 1238.66,883.295 1235.26,883.952 1231.87,884.371 1228.47,884.561 1225.08,884.528 1221.68,884.279 1218.29,883.822 1214.9,883.162 1211.5,882.305 1211.34,882.254 1208.11,881.265 1204.71,880.042 1201.85,878.859 1201.32,878.642 1197.92,877.078 1194.76,875.465 1194.53,875.348 1191.14,873.467 1188.82,872.071 1187.74,871.434 1184.35,869.258 1183.5,868.676 1180.95,866.945 1178.66,865.282 1177.56,864.498 1174.16,861.923 1174.12,861.888 1170.77,859.23 1169.89,858.493 1167.38,856.419 1165.86,855.099 1163.98,853.495 1161.99,851.705 1160.59,850.462 1158.27,848.31 1157.19,847.327 1154.67,844.916 1153.8,844.093 1151.19,841.522 1150.4,840.763 1147.8,838.127 1147.01,837.342 1144.49,834.733 1143.61,833.834 1141.27,831.339 1140.22,830.243 1138.11,827.944 1136.83,826.57 1135.01,824.55 1133.43,822.82 1131.97,821.156 1130.04,818.995 1128.97,817.761 1126.64,815.098 1126.02,814.367 1123.25,811.133 1123.12,810.973 1120.26,807.578 1119.85,807.103 1117.44,804.184 1116.46,803.011 1114.66,800.789 1113.07,798.856 1111.9,797.395 1109.67,794.642 1109.17,794.001 1106.47,790.606 1106.28,790.373 1103.8,787.212 1102.88,786.051 1101.16,783.818 1099.49,781.675 1098.54,780.423 1096.09,777.249 1095.93,777.029 1093.36,773.635 1092.7,772.776 1090.8,770.24 1089.31,768.256 1088.26,766.846 1085.91,763.69 1085.74,763.452 1083.24,760.057 1082.52,759.084 1080.76,756.663 1079.12,754.435 1078.29,753.269 1075.82,749.874 1075.73,749.744 1073.39,746.48 1072.33,745.018 1070.97,743.086 1068.94,740.252 1068.55,739.691 1066.15,736.297 1065.54,735.451 1063.76,732.902 1062.15,730.616 1061.38,729.508 1059.02,726.114 1058.76,725.746 1056.67,722.719 1055.36,720.845 1054.32,719.325 1051.98,715.931 1051.97,715.911 1049.67,712.536 1048.57,710.95 1047.35,709.142 1045.18,705.957 1045.04,705.748 1042.75,702.353 1041.78,700.938 1040.46,698.959 1038.39,695.89 1038.17,695.565 1035.91,692.17 1035,690.817 1033.64,688.776 1031.6,685.717 1031.38,685.382 1029.14,681.987 1028.21,680.594 1026.89,678.593 1024.81,675.445 1024.65,675.199 1022.43,671.804 1021.42,670.276 1020.21,668.41 1018.02,665.081 1017.98,665.016 1015.78,661.621 1014.63,659.868 1013.57,658.227 1011.37,654.832 1011.24,654.631 1009.18,651.438 1007.84,649.375 1006.99,648.044 1004.8,644.649 1004.45,644.099 1002.63,641.255 1001.05,638.804 1000.45,637.861 998.286,634.466 997.658,633.49 996.125,631.072 994.263,628.158 993.961,627.678 991.81,624.283 990.869,622.809 989.661,620.889 987.508,617.495 987.475,617.442 985.373,614.1 984.08,612.06 983.234,610.706 981.098,607.312 980.686,606.661 978.972,603.917 977.292,601.247 976.842,600.523 974.722,597.129 973.897,595.817 972.605,593.734 970.503,590.372 970.483,590.34 968.378,586.946 967.109,584.915 966.268,583.551 964.161,580.157 963.714,579.442 962.063,576.762 960.32,573.956 959.96,573.368 957.867,569.974 956.926,568.457 955.775,566.579 953.681,563.185 953.531,562.944 951.599,559.791 950.137,557.421 949.513,556.396 947.432,553.002 946.743,551.884 945.356,549.608 943.348,546.335 943.274,546.213 941.207,542.819 939.954,540.776 939.135,539.425 937.065,536.03 936.559,535.205 935.003,532.636 933.165,529.623 932.935,529.242 930.878,525.847 929.771,524.031 928.82,522.453 926.761,519.059 926.376,518.428 924.711,515.664 922.982,512.815 922.655,512.27 920.609,508.875 919.588,507.193 918.561,505.481 916.513,502.087 916.193,501.56 914.474,498.692 912.799,495.918 912.429,495.298 910.392,491.904 909.405,490.268 908.355,488.509 906.317,485.115 906.01,484.607 904.287,481.721 902.616,478.939 902.252,478.326 900.225,474.932 899.222,473.263 898.197,471.538 896.168,468.143 895.827,467.577 894.147,464.749 892.433,461.883 892.12,461.355 890.102,457.96 889.039,456.183 888.082,454.566 886.062,451.172 885.644,450.474 884.048,447.777 882.25,444.757 882.03,444.383 880.02,440.989 878.856,439.034 878.007,437.594 875.996,434.2 875.461,433.302 873.989,430.805 872.067,427.564 871.977,427.411 869.976,424.017 868.672,421.82 867.97,420.622 865.966,417.228 865.278,416.068 863.966,413.834 861.961,410.439 861.884,410.309 859.966,407.045 858.489,404.545 857.966,403.651 855.971,400.256 855.095,398.774 853.976,396.862 851.979,393.468 851.701,392.997 849.99,390.073 848.306,387.214 847.995,386.679 846.007,383.285 844.912,381.425 844.017,379.89 842.027,376.496 841.518,375.63 840.043,373.102 838.123,369.829 838.052,369.707 836.072,366.313 834.729,364.024 834.086,362.919 832.104,359.524 831.335,358.213 830.123,356.13 828.14,352.735 827.94,352.396 826.164,349.341 824.546,346.574 824.182,345.947 822.207,342.552 821.152,340.748 820.23,339.158 818.253,335.764 817.757,334.916 816.281,332.369 814.363,329.079 814.303,328.975 812.334,325.581 810.969,323.238 810.361,322.186 808.391,318.792 807.574,317.392 806.421,315.398 804.45,312.003 804.18,311.541 802.484,308.609 800.786,305.686 800.514,305.215 798.55,301.82 797.391,299.827 796.584,298.426 794.618,295.032 793.997,293.963 792.656,291.637 790.689,288.243 790.602,288.094 788.73,284.848 787.208,282.222 786.767,281.454 784.807,278.06 783.814,276.346 782.847,274.665 780.887,271.271 780.419,270.466 778.93,267.877 777.025,264.581 776.969,264.482 775.015,261.088 773.631,258.693 773.057,257.694 771.103,254.299 770.236,252.801 769.148,250.905 767.192,247.511 766.842,246.906 765.241,244.116 763.448,241.006 763.285,240.722 761.336,237.328 760.053,235.104 759.383,233.933 757.433,230.539 756.659,229.198 755.484,227.145 753.532,223.75 753.265,223.287 751.586,220.356 749.87,217.374 749.635,216.962 747.69,213.567 746.476,211.458 745.742,210.173 743.795,206.778 743.082,205.539 741.851,203.384 739.903,199.99 739.687,199.615 737.961,196.595 736.293,193.689 736.015,193.201 734.074,189.807 732.899,187.761 732.13,186.412 730.188,183.018 729.504,181.828 728.247,179.624 726.303,176.229 726.11,175.893 724.366,172.835 722.716,169.955 722.423,169.441 720.486,166.046 719.321,164.014 718.546,162.652 716.607,159.258 715.927,158.071 714.67,155.863 712.73,152.469 712.532,152.124 710.796,149.075 709.138,146.174 708.858,145.68 706.924,142.286 705.744,140.223 704.988,138.892 703.053,135.497 702.349,134.268 701.119,132.103 699.183,128.708 698.955,128.311 697.252,125.314 695.561,122.351 695.316,121.92 693.386,118.525 692.166,116.389 691.453,115.131 689.522,111.737 688.772,110.424 687.591,108.342 685.658,104.948 685.378,104.457 683.73,101.554 681.983,98.4871 681.798,98.1593 679.871,94.765 678.589,92.5156 677.941,91.3706 676.013,87.9763 "/>
<path clip-path="url(#clip870)" d="M435.696 1412.83 Q436.118 1413.25 436.118 1413.85 Q436.118 1414.45 435.696 1414.87 Q435.275 1415.29 434.678 1415.29 L389.636 1415.29 Q389.039 1415.29 388.617 1414.87 Q388.196 1414.45 388.196 1413.85 Q388.196 1413.25 388.617 1412.83 Q389.039 1412.41 389.636 1412.41 L434.678 1412.41 Q435.275 1412.41 435.696 1412.83 Z" fill="#000000" fill-rule="nonzero" fill-opacity="1" /><path clip-path="url(#clip870)" d="M443.628 1408.83 Q443.628 1398.25 446.299 1392.49 Q450.023 1383.92 458.806 1383.92 Q460.668 1383.92 462.601 1384.44 Q464.568 1384.94 467.027 1386.87 Q469.522 1388.8 471.033 1391.96 Q473.914 1398.08 473.914 1408.83 Q473.914 1419.33 471.243 1425.06 Q467.344 1433.42 458.736 1433.42 Q455.504 1433.42 452.201 1431.77 Q448.934 1430.12 446.861 1426.15 Q443.628 1420.21 443.628 1408.83 M449.601 1407.95 Q449.601 1418.8 450.374 1423.13 Q451.252 1427.8 453.641 1429.84 Q456.066 1431.84 458.736 1431.84 Q461.617 1431.84 464.006 1429.7 Q466.43 1427.52 467.168 1422.85 Q467.976 1418.24 467.941 1407.95 Q467.941 1397.94 467.238 1393.93 Q466.29 1389.26 463.76 1387.4 Q461.265 1385.5 458.736 1385.5 Q457.787 1385.5 456.768 1385.78 Q455.785 1386.06 454.344 1386.87 Q452.904 1387.68 451.779 1389.68 Q450.69 1391.68 450.163 1394.7 Q449.601 1398.6 449.601 1407.95 Z" fill="#000000" fill-rule="nonzero" fill-opacity="1" /><path clip-path="url(#clip870)" d="M480.35 1430.68 Q479.261 1429.52 479.261 1428.01 Q479.261 1426.5 480.35 1425.41 Q481.439 1424.29 483.091 1424.29 Q484.672 1424.29 485.726 1425.34 Q486.815 1426.36 486.815 1428.05 Q486.815 1429.7 485.656 1430.79 Q484.531 1431.84 483.091 1431.84 Q481.439 1431.84 480.35 1430.68 Z" fill="#000000" fill-rule="nonzero" fill-opacity="1" /><path clip-path="url(#clip870)" d="M491.811 1390.77 L491.811 1388.52 Q500.454 1388.52 504.916 1383.92 Q506.146 1383.92 506.356 1384.2 Q506.567 1384.48 506.567 1385.78 L506.567 1426.15 Q506.567 1428.29 507.621 1428.96 Q508.675 1429.63 513.278 1429.63 L515.561 1429.63 L515.561 1431.84 Q513.032 1431.63 503.897 1431.63 Q494.762 1431.63 492.268 1431.84 L492.268 1429.63 L494.551 1429.63 Q499.084 1429.63 500.173 1428.99 Q501.262 1428.33 501.262 1426.15 L501.262 1388.87 Q497.503 1390.77 491.811 1390.77 Z" fill="#000000" fill-rule="nonzero" fill-opacity="1" /><path clip-path="url(#clip870)" d="M519.102 1408.83 Q519.102 1398.25 521.772 1392.49 Q525.496 1383.92 534.28 1383.92 Q536.142 1383.92 538.074 1384.44 Q540.042 1384.94 542.501 1386.87 Q544.995 1388.8 546.506 1391.96 Q549.387 1398.08 549.387 1408.83 Q549.387 1419.33 546.717 1425.06 Q542.817 1433.42 534.209 1433.42 Q530.977 1433.42 527.674 1431.77 Q524.407 1430.12 522.334 1426.15 Q519.102 1420.21 519.102 1408.83 M525.075 1407.95 Q525.075 1418.8 525.848 1423.13 Q526.726 1427.8 529.115 1429.84 Q531.539 1431.84 534.209 1431.84 Q537.09 1431.84 539.479 1429.7 Q541.904 1427.52 542.641 1422.85 Q543.45 1418.24 543.414 1407.95 Q543.414 1397.94 542.712 1393.93 Q541.763 1389.26 539.233 1387.4 Q536.739 1385.5 534.209 1385.5 Q533.261 1385.5 532.242 1385.78 Q531.258 1386.06 529.818 1386.87 Q528.377 1387.68 527.253 1389.68 Q526.164 1391.68 525.637 1394.7 Q525.075 1398.6 525.075 1407.95 Z" fill="#000000" fill-rule="nonzero" fill-opacity="1" /><path clip-path="url(#clip870)" d="M550.083 1419.96 L550.083 1417.75 L572.182 1383.99 Q572.744 1383.11 573.622 1383.14 Q574.43 1383.14 574.606 1383.46 Q574.782 1383.78 574.782 1385.01 L574.782 1417.75 L581.984 1417.75 L581.984 1419.96 L574.782 1419.96 L574.782 1426.22 Q574.782 1428.29 575.625 1428.96 Q576.503 1429.63 580.227 1429.63 L581.738 1429.63 L581.738 1431.84 Q578.787 1431.63 571.971 1431.63 Q565.19 1431.63 562.239 1431.84 L562.239 1429.63 L563.75 1429.63 Q567.474 1429.63 568.352 1428.99 Q569.231 1428.33 569.231 1426.22 L569.231 1419.96 L550.083 1419.96 M552.12 1417.75 L569.652 1417.75 L569.652 1390.91 L552.12 1417.75 Z" fill="#000000" fill-rule="nonzero" fill-opacity="1" /><path clip-path="url(#clip870)" d="M621.552 1404.79 Q621.552 1406.75 620.322 1407.88 Q619.092 1408.97 617.687 1408.97 Q616.352 1408.97 615.649 1408.19 Q614.947 1407.42 614.947 1406.44 Q614.947 1405.1 615.93 1403.94 Q616.914 1402.78 618.39 1402.54 Q616.949 1401.62 614.806 1401.62 Q613.401 1401.62 612.171 1402.36 Q610.977 1403.1 610.239 1404.05 Q609.536 1405 608.904 1406.37 Q608.306 1407.7 608.061 1408.51 Q607.85 1409.28 607.674 1410.13 L605.215 1419.96 Q604.02 1424.64 604.02 1426.29 Q604.02 1428.33 605.004 1429.7 Q605.988 1431.03 607.955 1431.03 Q608.728 1431.03 609.606 1430.82 Q610.485 1430.57 611.609 1429.94 Q612.768 1429.27 613.787 1428.29 Q614.841 1427.27 615.86 1425.55 Q616.879 1423.83 617.547 1421.62 Q617.757 1420.84 618.46 1420.84 Q619.338 1420.84 619.338 1421.55 Q619.338 1422.14 618.847 1423.41 Q618.39 1424.64 617.371 1426.25 Q616.387 1427.83 615.087 1429.27 Q613.787 1430.68 611.855 1431.66 Q609.923 1432.65 607.815 1432.65 Q604.793 1432.65 602.79 1431.03 Q600.788 1429.42 600.05 1427.17 Q599.874 1427.48 599.628 1427.9 Q599.382 1428.33 598.645 1429.27 Q597.942 1430.19 597.134 1430.89 Q596.326 1431.56 595.061 1432.09 Q593.831 1432.65 592.496 1432.65 Q590.81 1432.65 589.299 1432.16 Q587.824 1431.66 586.77 1430.54 Q585.715 1429.42 585.715 1427.87 Q585.715 1426.15 586.875 1424.95 Q588.069 1423.72 589.686 1423.72 Q590.704 1423.72 591.513 1424.32 Q592.356 1424.92 592.356 1426.22 Q592.356 1427.66 591.372 1428.75 Q590.388 1429.84 588.983 1430.12 Q590.423 1431.03 592.567 1431.03 Q594.885 1431.03 596.712 1428.99 Q598.539 1426.96 599.418 1423.55 Q601.596 1415.36 602.439 1411.71 Q603.282 1408.02 603.282 1406.44 Q603.282 1404.96 602.896 1403.94 Q602.509 1402.92 601.842 1402.47 Q601.209 1401.98 600.612 1401.8 Q600.05 1401.62 599.418 1401.62 Q598.364 1401.62 597.169 1402.05 Q596.01 1402.47 594.604 1403.45 Q593.234 1404.4 591.934 1406.37 Q590.634 1408.34 589.756 1411.04 Q589.58 1411.85 588.807 1411.85 Q587.964 1411.81 587.964 1411.11 Q587.964 1410.51 588.421 1409.28 Q588.913 1408.02 589.896 1406.44 Q590.915 1404.86 592.215 1403.45 Q593.55 1402.01 595.483 1401.03 Q597.45 1400.04 599.558 1400.04 Q600.507 1400.04 601.42 1400.25 Q602.369 1400.43 603.493 1400.96 Q604.653 1401.48 605.671 1402.64 Q606.69 1403.8 607.323 1405.49 Q607.744 1404.68 608.306 1403.91 Q608.904 1403.14 609.817 1402.19 Q610.766 1401.2 612.066 1400.64 Q613.401 1400.04 614.876 1400.04 Q616.317 1400.04 617.722 1400.43 Q619.128 1400.78 620.322 1401.94 Q621.552 1403.07 621.552 1404.79 Z" fill="#000000" fill-rule="nonzero" fill-opacity="1" /><path clip-path="url(#clip870)" d="M628.88 1410.32 Q628.88 1409.41 628.954 1409.14 Q629.052 1408.87 629.446 1408.45 L639.111 1397.68 Q644.398 1391.73 644.398 1386.54 Q644.398 1383.17 642.628 1380.76 Q640.882 1378.35 637.66 1378.35 Q635.446 1378.35 633.577 1379.7 Q631.708 1381.06 630.847 1383.47 Q630.995 1383.42 631.511 1383.42 Q632.766 1383.42 633.454 1384.21 Q634.167 1384.99 634.167 1386.05 Q634.167 1387.4 633.282 1388.07 Q632.421 1388.71 631.561 1388.71 Q631.216 1388.71 630.749 1388.63 Q630.306 1388.56 629.593 1387.87 Q628.88 1387.16 628.88 1385.9 Q628.88 1382.39 631.536 1379.58 Q634.217 1376.78 638.299 1376.78 Q642.923 1376.78 645.948 1379.53 Q648.997 1382.26 648.997 1386.54 Q648.997 1388.04 648.53 1389.42 Q648.087 1390.77 647.473 1391.83 Q646.882 1392.89 645.259 1394.58 Q643.636 1396.28 642.333 1397.49 Q641.029 1398.69 638.102 1401.25 L632.766 1406.44 L641.841 1406.44 Q646.268 1406.44 646.612 1406.04 Q647.104 1405.33 647.719 1401.57 L648.997 1401.57 L647.571 1410.32 L628.88 1410.32 Z" fill="#000000" fill-rule="nonzero" fill-opacity="1" /><path clip-path="url(#clip870)" d="M723.939 1412.83 Q724.361 1413.25 724.361 1413.85 Q724.361 1414.45 723.939 1414.87 Q723.518 1415.29 722.921 1415.29 L677.879 1415.29 Q677.282 1415.29 676.86 1414.87 Q676.439 1414.45 676.439 1413.85 Q676.439 1413.25 676.86 1412.83 Q677.282 1412.41 677.879 1412.41 L722.921 1412.41 Q723.518 1412.41 723.939 1412.83 Z" fill="#000000" fill-rule="nonzero" fill-opacity="1" /><path clip-path="url(#clip870)" d="M751.833 1408.83 Q751.833 1398.25 754.503 1392.49 Q758.227 1383.92 767.011 1383.92 Q768.873 1383.92 770.805 1384.44 Q772.773 1384.94 775.232 1386.87 Q777.726 1388.8 779.237 1391.96 Q782.118 1398.08 782.118 1408.83 Q782.118 1419.33 779.448 1425.06 Q775.548 1433.42 766.94 1433.42 Q763.708 1433.42 760.406 1431.77 Q757.138 1430.12 755.065 1426.15 Q751.833 1420.21 751.833 1408.83 M757.806 1407.95 Q757.806 1418.8 758.579 1423.13 Q759.457 1427.8 761.846 1429.84 Q764.27 1431.84 766.94 1431.84 Q769.821 1431.84 772.21 1429.7 Q774.635 1427.52 775.372 1422.85 Q776.181 1418.24 776.145 1407.95 Q776.145 1397.94 775.443 1393.93 Q774.494 1389.26 771.965 1387.4 Q769.47 1385.5 766.94 1385.5 Q765.992 1385.5 764.973 1385.78 Q763.989 1386.06 762.549 1386.87 Q761.108 1387.68 759.984 1389.68 Q758.895 1391.68 758.368 1394.7 Q757.806 1398.6 757.806 1407.95 Z" fill="#000000" fill-rule="nonzero" fill-opacity="1" /><path clip-path="url(#clip870)" d="M788.555 1430.68 Q787.466 1429.52 787.466 1428.01 Q787.466 1426.5 788.555 1425.41 Q789.644 1424.29 791.295 1424.29 Q792.876 1424.29 793.93 1425.34 Q795.019 1426.36 795.019 1428.05 Q795.019 1429.7 793.86 1430.79 Q792.736 1431.84 791.295 1431.84 Q789.644 1431.84 788.555 1430.68 Z" fill="#000000" fill-rule="nonzero" fill-opacity="1" /><path clip-path="url(#clip870)" d="M807.266 1408.83 Q807.266 1398.25 809.936 1392.49 Q813.66 1383.92 822.443 1383.92 Q824.305 1383.92 826.238 1384.44 Q828.205 1384.94 830.665 1386.87 Q833.159 1388.8 834.67 1391.96 Q837.551 1398.08 837.551 1408.83 Q837.551 1419.33 834.881 1425.06 Q830.981 1433.42 822.373 1433.42 Q819.141 1433.42 815.838 1431.77 Q812.571 1430.12 810.498 1426.15 Q807.266 1420.21 807.266 1408.83 M813.238 1407.95 Q813.238 1418.8 814.011 1423.13 Q814.89 1427.8 817.279 1429.84 Q819.703 1431.84 822.373 1431.84 Q825.254 1431.84 827.643 1429.7 Q830.067 1427.52 830.805 1422.85 Q831.613 1418.24 831.578 1407.95 Q831.578 1397.94 830.875 1393.93 Q829.927 1389.26 827.397 1387.4 Q824.903 1385.5 822.373 1385.5 Q821.424 1385.5 820.406 1385.78 Q819.422 1386.06 817.981 1386.87 Q816.541 1387.68 815.417 1389.68 Q814.327 1391.68 813.8 1394.7 Q813.238 1398.6 813.238 1407.95 Z" fill="#000000" fill-rule="nonzero" fill-opacity="1" /><path clip-path="url(#clip870)" d="M843.186 1422.14 Q843.186 1420 844.416 1418.98 Q845.646 1417.96 847.227 1417.96 Q848.878 1417.96 850.037 1419.05 Q851.232 1420.1 851.232 1421.97 Q851.232 1423.97 849.827 1425.09 Q848.456 1426.22 846.489 1425.94 Q848.211 1428.82 851.373 1430.12 Q854.57 1431.42 857.521 1431.42 Q860.613 1431.42 863.107 1428.75 Q865.637 1426.08 865.637 1419.54 Q865.637 1413.99 863.459 1410.79 Q861.315 1407.6 857.064 1407.6 L853.902 1407.6 Q852.813 1407.6 852.497 1407.49 Q852.181 1407.39 852.181 1406.79 Q852.181 1406.09 853.27 1405.95 Q854.359 1405.95 856.08 1405.74 Q860.261 1405.59 862.475 1401.98 Q864.477 1398.6 864.477 1393.79 Q864.477 1389.4 862.369 1387.57 Q860.297 1385.71 857.591 1385.71 Q855.062 1385.71 852.286 1386.76 Q849.51 1387.82 848 1390.17 Q852.462 1390.17 852.462 1393.79 Q852.462 1395.37 851.443 1396.42 Q850.459 1397.44 848.808 1397.44 Q847.227 1397.44 846.173 1396.46 Q845.119 1395.44 845.119 1393.72 Q845.119 1389.61 848.773 1386.76 Q852.462 1383.92 857.872 1383.92 Q863.213 1383.92 867.148 1386.73 Q871.118 1389.54 871.118 1393.86 Q871.118 1398.11 868.307 1401.59 Q865.496 1405.07 861.034 1406.51 Q866.515 1407.6 869.783 1411.32 Q873.05 1415.01 873.05 1419.54 Q873.05 1425.16 868.623 1429.31 Q864.196 1433.42 857.732 1433.42 Q851.759 1433.42 847.473 1430.19 Q843.186 1426.96 843.186 1422.14 Z" fill="#000000" fill-rule="nonzero" fill-opacity="1" /><path clip-path="url(#clip870)" d="M874.417 1419.96 L874.417 1417.75 L896.516 1383.99 Q897.078 1383.11 897.957 1383.14 Q898.765 1383.14 898.941 1383.46 Q899.116 1383.78 899.116 1385.01 L899.116 1417.75 L906.319 1417.75 L906.319 1419.96 L899.116 1419.96 L899.116 1426.22 Q899.116 1428.29 899.959 1428.96 Q900.838 1429.63 904.562 1429.63 L906.073 1429.63 L906.073 1431.84 Q903.121 1431.63 896.306 1431.63 Q889.525 1431.63 886.573 1431.84 L886.573 1429.63 L888.084 1429.63 Q891.808 1429.63 892.687 1428.99 Q893.565 1428.33 893.565 1426.22 L893.565 1419.96 L874.417 1419.96 M876.455 1417.75 L893.987 1417.75 L893.987 1390.91 L876.455 1417.75 Z" fill="#000000" fill-rule="nonzero" fill-opacity="1" /><path clip-path="url(#clip870)" d="M946.462 1404.79 Q946.462 1406.75 945.233 1407.88 Q944.003 1408.97 942.598 1408.97 Q941.263 1408.97 940.56 1408.19 Q939.857 1407.42 939.857 1406.44 Q939.857 1405.1 940.841 1403.94 Q941.825 1402.78 943.3 1402.54 Q941.86 1401.62 939.717 1401.62 Q938.311 1401.62 937.082 1402.36 Q935.887 1403.1 935.149 1404.05 Q934.447 1405 933.814 1406.37 Q933.217 1407.7 932.971 1408.51 Q932.76 1409.28 932.585 1410.13 L930.125 1419.96 Q928.931 1424.64 928.931 1426.29 Q928.931 1428.33 929.914 1429.7 Q930.898 1431.03 932.866 1431.03 Q933.639 1431.03 934.517 1430.82 Q935.395 1430.57 936.52 1429.94 Q937.679 1429.27 938.698 1428.29 Q939.752 1427.27 940.771 1425.55 Q941.79 1423.83 942.457 1421.62 Q942.668 1420.84 943.371 1420.84 Q944.249 1420.84 944.249 1421.55 Q944.249 1422.14 943.757 1423.41 Q943.3 1424.64 942.281 1426.25 Q941.298 1427.83 939.998 1429.27 Q938.698 1430.68 936.766 1431.66 Q934.833 1432.65 932.725 1432.65 Q929.704 1432.65 927.701 1431.03 Q925.698 1429.42 924.961 1427.17 Q924.785 1427.48 924.539 1427.9 Q924.293 1428.33 923.555 1429.27 Q922.853 1430.19 922.044 1430.89 Q921.236 1431.56 919.972 1432.09 Q918.742 1432.65 917.407 1432.65 Q915.72 1432.65 914.21 1432.16 Q912.734 1431.66 911.68 1430.54 Q910.626 1429.42 910.626 1427.87 Q910.626 1426.15 911.785 1424.95 Q912.98 1423.72 914.596 1423.72 Q915.615 1423.72 916.423 1424.32 Q917.266 1424.92 917.266 1426.22 Q917.266 1427.66 916.283 1428.75 Q915.299 1429.84 913.893 1430.12 Q915.334 1431.03 917.477 1431.03 Q919.796 1431.03 921.623 1428.99 Q923.45 1426.96 924.328 1423.55 Q926.506 1415.36 927.35 1411.71 Q928.193 1408.02 928.193 1406.44 Q928.193 1404.96 927.806 1403.94 Q927.42 1402.92 926.752 1402.47 Q926.12 1401.98 925.523 1401.8 Q924.961 1401.62 924.328 1401.62 Q923.274 1401.62 922.08 1402.05 Q920.92 1402.47 919.515 1403.45 Q918.145 1404.4 916.845 1406.37 Q915.545 1408.34 914.666 1411.04 Q914.491 1411.85 913.718 1411.85 Q912.875 1411.81 912.875 1411.11 Q912.875 1410.51 913.331 1409.28 Q913.823 1408.02 914.807 1406.44 Q915.826 1404.86 917.126 1403.45 Q918.461 1402.01 920.393 1401.03 Q922.361 1400.04 924.469 1400.04 Q925.417 1400.04 926.331 1400.25 Q927.279 1400.43 928.404 1400.96 Q929.563 1401.48 930.582 1402.64 Q931.601 1403.8 932.233 1405.49 Q932.655 1404.68 933.217 1403.91 Q933.814 1403.14 934.728 1402.19 Q935.676 1401.2 936.976 1400.64 Q938.311 1400.04 939.787 1400.04 Q941.227 1400.04 942.633 1400.43 Q944.038 1400.78 945.233 1401.94 Q946.462 1403.07 946.462 1404.79 Z" fill="#000000" fill-rule="nonzero" fill-opacity="1" /><path clip-path="url(#clip870)" d="M983.711 1402.78 Q983.711 1403.28 983.395 1404.44 L976.509 1431.91 Q974.998 1438.02 970.08 1442.31 Q965.196 1446.6 959.645 1446.6 Q956.307 1446.6 954.164 1444.8 Q952.021 1443.05 952.021 1440.34 Q952.021 1437.95 953.286 1436.79 Q954.55 1435.67 956.061 1435.67 Q956.553 1435.67 957.08 1435.81 Q957.607 1435.95 958.169 1436.55 Q958.731 1437.14 958.731 1438.16 Q958.731 1439.81 957.291 1441.11 Q956.588 1441.71 955.921 1441.85 Q955.288 1441.99 954.199 1441.99 Q954.621 1442.98 955.394 1443.64 Q956.167 1444.31 957.045 1444.56 Q957.923 1444.84 958.485 1444.91 Q959.083 1445.01 959.645 1445.01 Q964.142 1445.01 967.585 1440.48 Q968.604 1439.11 969.342 1437.74 Q970.115 1436.41 970.677 1434.76 Q971.239 1433.14 971.485 1432.26 Q971.766 1431.38 972.258 1429.38 Q968.99 1432.65 964.985 1432.65 Q963.299 1432.65 961.788 1432.19 Q960.312 1431.73 959.012 1430.79 Q957.713 1429.8 956.94 1428.08 Q956.202 1426.36 956.202 1424.08 Q956.202 1421.65 957.15 1418.35 Q958.099 1415.05 960.383 1408.97 Q961.612 1405.56 961.612 1403.91 Q961.612 1403.1 961.437 1402.61 Q961.261 1402.08 960.91 1401.91 Q960.558 1401.69 960.348 1401.66 Q960.172 1401.62 959.821 1401.62 Q957.748 1401.62 955.815 1403.73 Q953.883 1405.84 952.548 1410.55 Q952.267 1411.43 952.091 1411.64 Q951.915 1411.85 951.388 1411.85 Q950.51 1411.81 950.51 1411.11 Q950.51 1410.83 950.826 1409.74 Q951.143 1408.62 951.88 1406.96 Q952.653 1405.28 953.707 1403.77 Q954.761 1402.22 956.413 1401.13 Q958.099 1400.04 960.031 1400.04 Q962.666 1400.04 964.283 1401.77 Q965.934 1403.45 965.934 1405.95 Q965.934 1406.96 965.653 1407.88 Q965.407 1408.76 964.493 1411.11 Q960.804 1420.6 960.804 1425.23 Q960.804 1426.36 960.98 1427.31 Q961.191 1428.22 961.647 1429.13 Q962.104 1430.01 963.018 1430.54 Q963.966 1431.03 965.266 1431.03 Q966.918 1431.03 968.463 1430.26 Q970.044 1429.45 971.028 1428.36 Q972.047 1427.27 972.644 1426.36 Q973.277 1425.41 973.417 1424.92 L976.65 1411.99 L978.09 1406.23 Q978.758 1403.1 979.074 1402.33 Q979.495 1401.59 980.233 1401.2 Q980.971 1400.82 981.603 1400.82 Q982.482 1400.82 983.079 1401.34 Q983.711 1401.87 983.711 1402.78 Z" fill="#000000" fill-rule="nonzero" fill-opacity="1" /><path clip-path="url(#clip870)" d="M1007.03 1414.73 Q1005.37 1414.73 1005.37 1413.85 Q1005.37 1412.97 1007.1 1412.97 Q1007.31 1412.97 1007.66 1413.01 Q1008.04 1413.04 1008.11 1413.04 L1028.39 1413.04 L1028.39 1392.7 Q1028.39 1392.63 1028.35 1392.31 Q1028.32 1391.96 1028.32 1391.75 Q1028.32 1390.03 1029.16 1390.03 Q1030.04 1390.03 1030.04 1391.75 L1030.04 1413.04 L1050.34 1413.04 Q1050.42 1413.04 1050.77 1413.01 Q1051.12 1412.97 1051.33 1412.97 Q1052.98 1412.97 1052.98 1413.85 Q1053.02 1414.73 1051.26 1414.73 Q1051.05 1414.73 1050.73 1414.69 Q1050.42 1414.66 1050.34 1414.66 L1030.04 1414.66 L1030.04 1436.02 Q1030.04 1437.67 1029.16 1437.67 Q1028.32 1437.67 1028.32 1435.95 Q1028.32 1435.74 1028.35 1435.39 Q1028.39 1435.07 1028.39 1435 L1028.39 1414.66 L1008.11 1414.66 Q1008.04 1414.66 1007.62 1414.69 Q1007.24 1414.73 1007.03 1414.73 Z" fill="#000000" fill-rule="nonzero" fill-opacity="1" /><path clip-path="url(#clip870)" d="M1080.77 1408.83 Q1080.77 1398.25 1083.44 1392.49 Q1087.16 1383.92 1095.95 1383.92 Q1097.81 1383.92 1099.74 1384.44 Q1101.71 1384.94 1104.17 1386.87 Q1106.66 1388.8 1108.17 1391.96 Q1111.05 1398.08 1111.05 1408.83 Q1111.05 1419.33 1108.38 1425.06 Q1104.48 1433.42 1095.88 1433.42 Q1092.64 1433.42 1089.34 1431.77 Q1086.07 1430.12 1084 1426.15 Q1080.77 1420.21 1080.77 1408.83 M1086.74 1407.95 Q1086.74 1418.8 1087.51 1423.13 Q1088.39 1427.8 1090.78 1429.84 Q1093.21 1431.84 1095.88 1431.84 Q1098.76 1431.84 1101.15 1429.7 Q1103.57 1427.52 1104.31 1422.85 Q1105.12 1418.24 1105.08 1407.95 Q1105.08 1397.94 1104.38 1393.93 Q1103.43 1389.26 1100.9 1387.4 Q1098.41 1385.5 1095.88 1385.5 Q1094.93 1385.5 1093.91 1385.78 Q1092.92 1386.06 1091.48 1386.87 Q1090.04 1387.68 1088.92 1389.68 Q1087.83 1391.68 1087.3 1394.7 Q1086.74 1398.6 1086.74 1407.95 Z" fill="#000000" fill-rule="nonzero" fill-opacity="1" /><path clip-path="url(#clip870)" d="M1117.49 1430.68 Q1116.4 1429.52 1116.4 1428.01 Q1116.4 1426.5 1117.49 1425.41 Q1118.58 1424.29 1120.23 1424.29 Q1121.81 1424.29 1122.87 1425.34 Q1123.95 1426.36 1123.95 1428.05 Q1123.95 1429.7 1122.8 1430.79 Q1121.67 1431.84 1120.23 1431.84 Q1118.58 1431.84 1117.49 1430.68 Z" fill="#000000" fill-rule="nonzero" fill-opacity="1" /><path clip-path="url(#clip870)" d="M1136.2 1408.83 Q1136.2 1398.25 1138.87 1392.49 Q1142.6 1383.92 1151.38 1383.92 Q1153.24 1383.92 1155.17 1384.44 Q1157.14 1384.94 1159.6 1386.87 Q1162.09 1388.8 1163.6 1391.96 Q1166.49 1398.08 1166.49 1408.83 Q1166.49 1419.33 1163.82 1425.06 Q1159.92 1433.42 1151.31 1433.42 Q1148.08 1433.42 1144.77 1431.77 Q1141.51 1430.12 1139.43 1426.15 Q1136.2 1420.21 1136.2 1408.83 M1142.17 1407.95 Q1142.17 1418.8 1142.95 1423.13 Q1143.82 1427.8 1146.21 1429.84 Q1148.64 1431.84 1151.31 1431.84 Q1154.19 1431.84 1156.58 1429.7 Q1159 1427.52 1159.74 1422.85 Q1160.55 1418.24 1160.51 1407.95 Q1160.51 1397.94 1159.81 1393.93 Q1158.86 1389.26 1156.33 1387.4 Q1153.84 1385.5 1151.31 1385.5 Q1150.36 1385.5 1149.34 1385.78 Q1148.36 1386.06 1146.92 1386.87 Q1145.48 1387.68 1144.35 1389.68 Q1143.26 1391.68 1142.74 1394.7 Q1142.17 1398.6 1142.17 1407.95 Z" fill="#000000" fill-rule="nonzero" fill-opacity="1" /><path clip-path="url(#clip870)" d="M1169.71 1390.77 L1169.71 1388.52 Q1178.36 1388.52 1182.82 1383.92 Q1184.05 1383.92 1184.26 1384.2 Q1184.47 1384.48 1184.47 1385.78 L1184.47 1426.15 Q1184.47 1428.29 1185.52 1428.96 Q1186.58 1429.63 1191.18 1429.63 L1193.46 1429.63 L1193.46 1431.84 Q1190.93 1431.63 1181.8 1431.63 Q1172.66 1431.63 1170.17 1431.84 L1170.17 1429.63 L1172.45 1429.63 Q1176.99 1429.63 1178.08 1428.99 Q1179.16 1428.33 1179.16 1426.15 L1179.16 1388.87 Q1175.41 1390.77 1169.71 1390.77 Z" fill="#000000" fill-rule="nonzero" fill-opacity="1" /><path clip-path="url(#clip870)" d="M1199 1422.14 Q1199 1420 1200.23 1418.98 Q1201.46 1417.96 1203.04 1417.96 Q1204.7 1417.96 1205.86 1419.05 Q1207.05 1420.1 1207.05 1421.97 Q1207.05 1423.97 1205.64 1425.09 Q1204.27 1426.22 1202.31 1425.94 Q1204.03 1428.82 1207.19 1430.12 Q1210.39 1431.42 1213.34 1431.42 Q1216.43 1431.42 1218.93 1428.75 Q1221.45 1426.08 1221.45 1419.54 Q1221.45 1413.99 1219.28 1410.79 Q1217.13 1407.6 1212.88 1407.6 L1209.72 1407.6 Q1208.63 1407.6 1208.31 1407.49 Q1208 1407.39 1208 1406.79 Q1208 1406.09 1209.09 1405.95 Q1210.18 1405.95 1211.9 1405.74 Q1216.08 1405.59 1218.29 1401.98 Q1220.3 1398.6 1220.3 1393.79 Q1220.3 1389.4 1218.19 1387.57 Q1216.11 1385.71 1213.41 1385.71 Q1210.88 1385.71 1208.1 1386.76 Q1205.33 1387.82 1203.82 1390.17 Q1208.28 1390.17 1208.28 1393.79 Q1208.28 1395.37 1207.26 1396.42 Q1206.28 1397.44 1204.63 1397.44 Q1203.04 1397.44 1201.99 1396.46 Q1200.94 1395.44 1200.94 1393.72 Q1200.94 1389.61 1204.59 1386.76 Q1208.28 1383.92 1213.69 1383.92 Q1219.03 1383.92 1222.97 1386.73 Q1226.94 1389.54 1226.94 1393.86 Q1226.94 1398.11 1224.12 1401.59 Q1221.31 1405.07 1216.85 1406.51 Q1222.33 1407.6 1225.6 1411.32 Q1228.87 1415.01 1228.87 1419.54 Q1228.87 1425.16 1224.44 1429.31 Q1220.01 1433.42 1213.55 1433.42 Q1207.58 1433.42 1203.29 1430.19 Q1199 1426.96 1199 1422.14 Z" fill="#000000" fill-rule="nonzero" fill-opacity="1" /><path clip-path="url(#clip870)" d="M1267.84 1402.78 Q1267.84 1403.28 1267.52 1404.44 L1260.64 1431.91 Q1259.13 1438.02 1254.21 1442.31 Q1249.32 1446.6 1243.77 1446.6 Q1240.43 1446.6 1238.29 1444.8 Q1236.15 1443.05 1236.15 1440.34 Q1236.15 1437.95 1237.41 1436.79 Q1238.68 1435.67 1240.19 1435.67 Q1240.68 1435.67 1241.21 1435.81 Q1241.73 1435.95 1242.3 1436.55 Q1242.86 1437.14 1242.86 1438.16 Q1242.86 1439.81 1241.42 1441.11 Q1240.72 1441.71 1240.05 1441.85 Q1239.42 1441.99 1238.33 1441.99 Q1238.75 1442.98 1239.52 1443.64 Q1240.29 1444.31 1241.17 1444.56 Q1242.05 1444.84 1242.61 1444.91 Q1243.21 1445.01 1243.77 1445.01 Q1248.27 1445.01 1251.71 1440.48 Q1252.73 1439.11 1253.47 1437.74 Q1254.24 1436.41 1254.8 1434.76 Q1255.37 1433.14 1255.61 1432.26 Q1255.89 1431.38 1256.38 1429.38 Q1253.12 1432.65 1249.11 1432.65 Q1247.43 1432.65 1245.92 1432.19 Q1244.44 1431.73 1243.14 1430.79 Q1241.84 1429.8 1241.07 1428.08 Q1240.33 1426.36 1240.33 1424.08 Q1240.33 1421.65 1241.28 1418.35 Q1242.23 1415.05 1244.51 1408.97 Q1245.74 1405.56 1245.74 1403.91 Q1245.74 1403.1 1245.56 1402.61 Q1245.39 1402.08 1245.04 1401.91 Q1244.69 1401.69 1244.47 1401.66 Q1244.3 1401.62 1243.95 1401.62 Q1241.87 1401.62 1239.94 1403.73 Q1238.01 1405.84 1236.67 1410.55 Q1236.39 1411.43 1236.22 1411.64 Q1236.04 1411.85 1235.52 1411.85 Q1234.64 1411.81 1234.64 1411.11 Q1234.64 1410.83 1234.95 1409.74 Q1235.27 1408.62 1236.01 1406.96 Q1236.78 1405.28 1237.83 1403.77 Q1238.89 1402.22 1240.54 1401.13 Q1242.23 1400.04 1244.16 1400.04 Q1246.79 1400.04 1248.41 1401.77 Q1250.06 1403.45 1250.06 1405.95 Q1250.06 1406.96 1249.78 1407.88 Q1249.53 1408.76 1248.62 1411.11 Q1244.93 1420.6 1244.93 1425.23 Q1244.93 1426.36 1245.11 1427.31 Q1245.32 1428.22 1245.77 1429.13 Q1246.23 1430.01 1247.14 1430.54 Q1248.09 1431.03 1249.39 1431.03 Q1251.04 1431.03 1252.59 1430.26 Q1254.17 1429.45 1255.16 1428.36 Q1256.17 1427.27 1256.77 1426.36 Q1257.4 1425.41 1257.54 1424.92 L1260.78 1411.99 L1262.22 1406.23 Q1262.88 1403.1 1263.2 1402.33 Q1263.62 1401.59 1264.36 1401.2 Q1265.1 1400.82 1265.73 1400.82 Q1266.61 1400.82 1267.21 1401.34 Q1267.84 1401.87 1267.84 1402.78 Z" fill="#000000" fill-rule="nonzero" fill-opacity="1" /><path clip-path="url(#clip870)" d="M1275.19 1410.32 Q1275.19 1409.41 1275.27 1409.14 Q1275.36 1408.87 1275.76 1408.45 L1285.42 1397.68 Q1290.71 1391.73 1290.71 1386.54 Q1290.71 1383.17 1288.94 1380.76 Q1287.19 1378.35 1283.97 1378.35 Q1281.76 1378.35 1279.89 1379.7 Q1278.02 1381.06 1277.16 1383.47 Q1277.31 1383.42 1277.82 1383.42 Q1279.08 1383.42 1279.77 1384.21 Q1280.48 1384.99 1280.48 1386.05 Q1280.48 1387.4 1279.59 1388.07 Q1278.73 1388.71 1277.87 1388.71 Q1277.53 1388.71 1277.06 1388.63 Q1276.62 1388.56 1275.91 1387.87 Q1275.19 1387.16 1275.19 1385.9 Q1275.19 1382.39 1277.85 1379.58 Q1280.53 1376.78 1284.61 1376.78 Q1289.24 1376.78 1292.26 1379.53 Q1295.31 1382.26 1295.31 1386.54 Q1295.31 1388.04 1294.84 1389.42 Q1294.4 1390.77 1293.78 1391.83 Q1293.19 1392.89 1291.57 1394.58 Q1289.95 1396.28 1288.64 1397.49 Q1287.34 1398.69 1284.41 1401.25 L1279.08 1406.44 L1288.15 1406.44 Q1292.58 1406.44 1292.92 1406.04 Q1293.42 1405.33 1294.03 1401.57 L1295.31 1401.57 L1293.88 1410.32 L1275.19 1410.32 Z" fill="#000000" fill-rule="nonzero" fill-opacity="1" /><path clip-path="url(#clip870)" d="M1370.25 1412.83 Q1370.67 1413.25 1370.67 1413.85 Q1370.67 1414.45 1370.25 1414.87 Q1369.83 1415.29 1369.23 1415.29 L1324.19 1415.29 Q1323.59 1415.29 1323.17 1414.87 Q1322.75 1414.45 1322.75 1413.85 Q1322.75 1413.25 1323.17 1412.83 Q1323.59 1412.41 1324.19 1412.41 L1369.23 1412.41 Q1369.83 1412.41 1370.25 1412.83 Z" fill="#000000" fill-rule="nonzero" fill-opacity="1" /><path clip-path="url(#clip870)" d="M1398.15 1408.83 Q1398.15 1398.25 1400.82 1392.49 Q1404.54 1383.92 1413.32 1383.92 Q1415.19 1383.92 1417.12 1384.44 Q1419.08 1384.94 1421.54 1386.87 Q1424.04 1388.8 1425.55 1391.96 Q1428.43 1398.08 1428.43 1408.83 Q1428.43 1419.33 1425.76 1425.06 Q1421.86 1433.42 1413.25 1433.42 Q1410.02 1433.42 1406.72 1431.77 Q1403.45 1430.12 1401.38 1426.15 Q1398.15 1420.21 1398.15 1408.83 M1404.12 1407.95 Q1404.12 1418.8 1404.89 1423.13 Q1405.77 1427.8 1408.16 1429.84 Q1410.58 1431.84 1413.25 1431.84 Q1416.13 1431.84 1418.52 1429.7 Q1420.95 1427.52 1421.68 1422.85 Q1422.49 1418.24 1422.46 1407.95 Q1422.46 1397.94 1421.76 1393.93 Q1420.81 1389.26 1418.28 1387.4 Q1415.78 1385.5 1413.25 1385.5 Q1412.3 1385.5 1411.29 1385.78 Q1410.3 1386.06 1408.86 1386.87 Q1407.42 1387.68 1406.3 1389.68 Q1405.21 1391.68 1404.68 1394.7 Q1404.12 1398.6 1404.12 1407.95 Z" fill="#000000" fill-rule="nonzero" fill-opacity="1" /><path clip-path="url(#clip870)" d="M1434.87 1430.68 Q1433.78 1429.52 1433.78 1428.01 Q1433.78 1426.5 1434.87 1425.41 Q1435.96 1424.29 1437.61 1424.29 Q1439.19 1424.29 1440.24 1425.34 Q1441.33 1426.36 1441.33 1428.05 Q1441.33 1429.7 1440.17 1430.79 Q1439.05 1431.84 1437.61 1431.84 Q1435.96 1431.84 1434.87 1430.68 Z" fill="#000000" fill-rule="nonzero" fill-opacity="1" /><path clip-path="url(#clip870)" d="M1453.58 1422.14 Q1453.58 1420 1454.81 1418.98 Q1456.04 1417.96 1457.62 1417.96 Q1459.27 1417.96 1460.43 1419.05 Q1461.62 1420.1 1461.62 1421.97 Q1461.62 1423.97 1460.22 1425.09 Q1458.85 1426.22 1456.88 1425.94 Q1458.6 1428.82 1461.76 1430.12 Q1464.96 1431.42 1467.91 1431.42 Q1471 1431.42 1473.5 1428.75 Q1476.03 1426.08 1476.03 1419.54 Q1476.03 1413.99 1473.85 1410.79 Q1471.71 1407.6 1467.46 1407.6 L1464.29 1407.6 Q1463.2 1407.6 1462.89 1407.49 Q1462.57 1407.39 1462.57 1406.79 Q1462.57 1406.09 1463.66 1405.95 Q1464.75 1405.95 1466.47 1405.74 Q1470.65 1405.59 1472.87 1401.98 Q1474.87 1398.6 1474.87 1393.79 Q1474.87 1389.4 1472.76 1387.57 Q1470.69 1385.71 1467.98 1385.71 Q1465.45 1385.71 1462.68 1386.76 Q1459.9 1387.82 1458.39 1390.17 Q1462.85 1390.17 1462.85 1393.79 Q1462.85 1395.37 1461.83 1396.42 Q1460.85 1397.44 1459.2 1397.44 Q1457.62 1397.44 1456.56 1396.46 Q1455.51 1395.44 1455.51 1393.72 Q1455.51 1389.61 1459.16 1386.76 Q1462.85 1383.92 1468.26 1383.92 Q1473.6 1383.92 1477.54 1386.73 Q1481.51 1389.54 1481.51 1393.86 Q1481.51 1398.11 1478.7 1401.59 Q1475.89 1405.07 1471.43 1406.51 Q1476.91 1407.6 1480.17 1411.32 Q1483.44 1415.01 1483.44 1419.54 Q1483.44 1425.16 1479.01 1429.31 Q1474.59 1433.42 1468.12 1433.42 Q1462.15 1433.42 1457.86 1430.19 Q1453.58 1426.96 1453.58 1422.14 Z" fill="#000000" fill-rule="nonzero" fill-opacity="1" /><path clip-path="url(#clip870)" d="M1489.5 1420.25 Q1489.5 1418.1 1490.66 1417.29 Q1491.82 1416.45 1493.05 1416.45 Q1494.7 1416.45 1495.65 1417.51 Q1496.63 1418.52 1496.63 1419.96 Q1496.63 1421.4 1495.65 1422.46 Q1494.7 1423.48 1493.05 1423.48 Q1492.24 1423.48 1491.82 1423.34 Q1492.77 1426.64 1495.65 1429.03 Q1498.56 1431.42 1502.39 1431.42 Q1507.21 1431.42 1510.09 1426.75 Q1511.81 1423.72 1511.81 1416.87 Q1511.81 1410.83 1510.51 1407.81 Q1508.51 1403.21 1504.4 1403.21 Q1498.56 1403.21 1495.12 1408.23 Q1494.7 1408.86 1494.21 1408.9 Q1493.5 1408.9 1493.33 1408.51 Q1493.19 1408.09 1493.19 1407 L1493.19 1385.71 Q1493.19 1383.99 1493.89 1383.99 Q1494.17 1383.99 1494.77 1384.2 Q1499.3 1386.2 1504.33 1386.24 Q1509.49 1386.24 1514.13 1384.13 Q1514.48 1383.92 1514.69 1383.92 Q1515.39 1383.92 1515.43 1384.73 Q1515.43 1385.01 1514.83 1385.85 Q1514.27 1386.66 1513.04 1387.75 Q1511.81 1388.8 1510.23 1389.82 Q1508.65 1390.84 1506.33 1391.54 Q1504.04 1392.21 1501.51 1392.21 Q1498.49 1392.21 1495.4 1391.26 L1495.4 1405.28 Q1499.13 1401.62 1504.54 1401.62 Q1510.3 1401.62 1514.27 1406.26 Q1518.24 1410.9 1518.24 1417.36 Q1518.24 1424.15 1513.53 1428.78 Q1508.86 1433.42 1502.53 1433.42 Q1496.77 1433.42 1493.12 1429.31 Q1489.5 1425.2 1489.5 1420.25 Z" fill="#000000" fill-rule="nonzero" fill-opacity="1" /><path clip-path="url(#clip870)" d="M1520.44 1419.96 L1520.44 1417.75 L1542.54 1383.99 Q1543.1 1383.11 1543.98 1383.14 Q1544.79 1383.14 1544.96 1383.46 Q1545.14 1383.78 1545.14 1385.01 L1545.14 1417.75 L1552.34 1417.75 L1552.34 1419.96 L1545.14 1419.96 L1545.14 1426.22 Q1545.14 1428.29 1545.98 1428.96 Q1546.86 1429.63 1550.59 1429.63 L1552.1 1429.63 L1552.1 1431.84 Q1549.15 1431.63 1542.33 1431.63 Q1535.55 1431.63 1532.6 1431.84 L1532.6 1429.63 L1534.11 1429.63 Q1537.83 1429.63 1538.71 1428.99 Q1539.59 1428.33 1539.59 1426.22 L1539.59 1419.96 L1520.44 1419.96 M1522.48 1417.75 L1540.01 1417.75 L1540.01 1390.91 L1522.48 1417.75 Z" fill="#000000" fill-rule="nonzero" fill-opacity="1" /><path clip-path="url(#clip870)" d="M1592.49 1404.79 Q1592.49 1406.75 1591.26 1407.88 Q1590.03 1408.97 1588.62 1408.97 Q1587.29 1408.97 1586.58 1408.19 Q1585.88 1407.42 1585.88 1406.44 Q1585.88 1405.1 1586.87 1403.94 Q1587.85 1402.78 1589.32 1402.54 Q1587.88 1401.62 1585.74 1401.62 Q1584.34 1401.62 1583.11 1402.36 Q1581.91 1403.1 1581.17 1404.05 Q1580.47 1405 1579.84 1406.37 Q1579.24 1407.7 1579 1408.51 Q1578.78 1409.28 1578.61 1410.13 L1576.15 1419.96 Q1574.95 1424.64 1574.95 1426.29 Q1574.95 1428.33 1575.94 1429.7 Q1576.92 1431.03 1578.89 1431.03 Q1579.66 1431.03 1580.54 1430.82 Q1581.42 1430.57 1582.54 1429.94 Q1583.7 1429.27 1584.72 1428.29 Q1585.78 1427.27 1586.8 1425.55 Q1587.81 1423.83 1588.48 1421.62 Q1588.69 1420.84 1589.39 1420.84 Q1590.27 1420.84 1590.27 1421.55 Q1590.27 1422.14 1589.78 1423.41 Q1589.32 1424.64 1588.31 1426.25 Q1587.32 1427.83 1586.02 1429.27 Q1584.72 1430.68 1582.79 1431.66 Q1580.86 1432.65 1578.75 1432.65 Q1575.73 1432.65 1573.73 1431.03 Q1571.72 1429.42 1570.98 1427.17 Q1570.81 1427.48 1570.56 1427.9 Q1570.32 1428.33 1569.58 1429.27 Q1568.88 1430.19 1568.07 1430.89 Q1567.26 1431.56 1566 1432.09 Q1564.77 1432.65 1563.43 1432.65 Q1561.74 1432.65 1560.23 1432.16 Q1558.76 1431.66 1557.7 1430.54 Q1556.65 1429.42 1556.65 1427.87 Q1556.65 1426.15 1557.81 1424.95 Q1559 1423.72 1560.62 1423.72 Q1561.64 1423.72 1562.45 1424.32 Q1563.29 1424.92 1563.29 1426.22 Q1563.29 1427.66 1562.31 1428.75 Q1561.32 1429.84 1559.92 1430.12 Q1561.36 1431.03 1563.5 1431.03 Q1565.82 1431.03 1567.65 1428.99 Q1569.47 1426.96 1570.35 1423.55 Q1572.53 1415.36 1573.37 1411.71 Q1574.22 1408.02 1574.22 1406.44 Q1574.22 1404.96 1573.83 1403.94 Q1573.44 1402.92 1572.78 1402.47 Q1572.14 1401.98 1571.55 1401.8 Q1570.98 1401.62 1570.35 1401.62 Q1569.3 1401.62 1568.1 1402.05 Q1566.94 1402.47 1565.54 1403.45 Q1564.17 1404.4 1562.87 1406.37 Q1561.57 1408.34 1560.69 1411.04 Q1560.52 1411.85 1559.74 1411.85 Q1558.9 1411.81 1558.9 1411.11 Q1558.9 1410.51 1559.36 1409.28 Q1559.85 1408.02 1560.83 1406.44 Q1561.85 1404.86 1563.15 1403.45 Q1564.49 1402.01 1566.42 1401.03 Q1568.38 1400.04 1570.49 1400.04 Q1571.44 1400.04 1572.36 1400.25 Q1573.3 1400.43 1574.43 1400.96 Q1575.59 1401.48 1576.61 1402.64 Q1577.63 1403.8 1578.26 1405.49 Q1578.68 1404.68 1579.24 1403.91 Q1579.84 1403.14 1580.75 1402.19 Q1581.7 1401.2 1583 1400.64 Q1584.34 1400.04 1585.81 1400.04 Q1587.25 1400.04 1588.66 1400.43 Q1590.06 1400.78 1591.26 1401.94 Q1592.49 1403.07 1592.49 1404.79 Z" fill="#000000" fill-rule="nonzero" fill-opacity="1" /><path clip-path="url(#clip870)" d="M1619.01 1414.73 Q1617.36 1414.73 1617.36 1413.85 Q1617.36 1412.97 1619.08 1412.97 Q1619.29 1412.97 1619.64 1413.01 Q1620.03 1413.04 1620.1 1413.04 L1640.37 1413.04 L1640.37 1392.7 Q1640.37 1392.63 1640.34 1392.31 Q1640.3 1391.96 1640.3 1391.75 Q1640.3 1390.03 1641.15 1390.03 Q1642.02 1390.03 1642.02 1391.75 L1642.02 1413.04 L1662.33 1413.04 Q1662.4 1413.04 1662.75 1413.01 Q1663.1 1412.97 1663.31 1412.97 Q1664.97 1412.97 1664.97 1413.85 Q1665 1414.73 1663.24 1414.73 Q1663.03 1414.73 1662.72 1414.69 Q1662.4 1414.66 1662.33 1414.66 L1642.02 1414.66 L1642.02 1436.02 Q1642.02 1437.67 1641.15 1437.67 Q1640.3 1437.67 1640.3 1435.95 Q1640.3 1435.74 1640.34 1435.39 Q1640.37 1435.07 1640.37 1435 L1640.37 1414.66 L1620.1 1414.66 Q1620.03 1414.66 1619.61 1414.69 Q1619.22 1414.73 1619.01 1414.73 Z" fill="#000000" fill-rule="nonzero" fill-opacity="1" /><path clip-path="url(#clip870)" d="M1692.75 1408.83 Q1692.75 1398.25 1695.42 1392.49 Q1699.15 1383.92 1707.93 1383.92 Q1709.79 1383.92 1711.73 1384.44 Q1713.69 1384.94 1716.15 1386.87 Q1718.65 1388.8 1720.16 1391.96 Q1723.04 1398.08 1723.04 1408.83 Q1723.04 1419.33 1720.37 1425.06 Q1716.47 1433.42 1707.86 1433.42 Q1704.63 1433.42 1701.33 1431.77 Q1698.06 1430.12 1695.99 1426.15 Q1692.75 1420.21 1692.75 1408.83 M1698.73 1407.95 Q1698.73 1418.8 1699.5 1423.13 Q1700.38 1427.8 1702.77 1429.84 Q1705.19 1431.84 1707.86 1431.84 Q1710.74 1431.84 1713.13 1429.7 Q1715.56 1427.52 1716.29 1422.85 Q1717.1 1418.24 1717.07 1407.95 Q1717.07 1397.94 1716.36 1393.93 Q1715.42 1389.26 1712.89 1387.4 Q1710.39 1385.5 1707.86 1385.5 Q1706.91 1385.5 1705.89 1385.78 Q1704.91 1386.06 1703.47 1386.87 Q1702.03 1387.68 1700.91 1389.68 Q1699.82 1391.68 1699.29 1394.7 Q1698.73 1398.6 1698.73 1407.95 Z" fill="#000000" fill-rule="nonzero" fill-opacity="1" /><path clip-path="url(#clip870)" d="M1729.48 1430.68 Q1728.39 1429.52 1728.39 1428.01 Q1728.39 1426.5 1729.48 1425.41 Q1730.57 1424.29 1732.22 1424.29 Q1733.8 1424.29 1734.85 1425.34 Q1735.94 1426.36 1735.94 1428.05 Q1735.94 1429.7 1734.78 1430.79 Q1733.66 1431.84 1732.22 1431.84 Q1730.57 1431.84 1729.48 1430.68 Z" fill="#000000" fill-rule="nonzero" fill-opacity="1" /><path clip-path="url(#clip870)" d="M1748.19 1422.14 Q1748.19 1420 1749.42 1418.98 Q1750.65 1417.96 1752.23 1417.96 Q1753.88 1417.96 1755.04 1419.05 Q1756.23 1420.1 1756.23 1421.97 Q1756.23 1423.97 1754.83 1425.09 Q1753.46 1426.22 1751.49 1425.94 Q1753.21 1428.82 1756.37 1430.12 Q1759.57 1431.42 1762.52 1431.42 Q1765.61 1431.42 1768.11 1428.75 Q1770.64 1426.08 1770.64 1419.54 Q1770.64 1413.99 1768.46 1410.79 Q1766.32 1407.6 1762.06 1407.6 L1758.9 1407.6 Q1757.81 1407.6 1757.5 1407.49 Q1757.18 1407.39 1757.18 1406.79 Q1757.18 1406.09 1758.27 1405.95 Q1759.36 1405.95 1761.08 1405.74 Q1765.26 1405.59 1767.48 1401.98 Q1769.48 1398.6 1769.48 1393.79 Q1769.48 1389.4 1767.37 1387.57 Q1765.3 1385.71 1762.59 1385.71 Q1760.06 1385.71 1757.29 1386.76 Q1754.51 1387.82 1753 1390.17 Q1757.46 1390.17 1757.46 1393.79 Q1757.46 1395.37 1756.44 1396.42 Q1755.46 1397.44 1753.81 1397.44 Q1752.23 1397.44 1751.17 1396.46 Q1750.12 1395.44 1750.12 1393.72 Q1750.12 1389.61 1753.77 1386.76 Q1757.46 1383.92 1762.87 1383.92 Q1768.21 1383.92 1772.15 1386.73 Q1776.12 1389.54 1776.12 1393.86 Q1776.12 1398.11 1773.31 1401.59 Q1770.5 1405.07 1766.03 1406.51 Q1771.52 1407.6 1774.78 1411.32 Q1778.05 1415.01 1778.05 1419.54 Q1778.05 1425.16 1773.62 1429.31 Q1769.2 1433.42 1762.73 1433.42 Q1756.76 1433.42 1752.47 1430.19 Q1748.19 1426.96 1748.19 1422.14 Z" fill="#000000" fill-rule="nonzero" fill-opacity="1" /><path clip-path="url(#clip870)" d="M1781.42 1398.01 L1783.78 1383.21 L1785.57 1383.21 Q1785.78 1384.09 1786.13 1384.48 Q1786.52 1384.87 1788.55 1385.18 Q1790.63 1385.5 1794.81 1385.5 L1812.27 1385.5 Q1812.27 1387.15 1811.64 1388.03 L1801.91 1401.69 Q1798.81 1406.02 1797.44 1413.99 Q1796.64 1419.33 1796.67 1425.8 L1796.67 1429.45 Q1796.67 1433.42 1793.33 1433.42 Q1790.03 1433.42 1790.03 1429.45 Q1790.03 1415.71 1798.88 1402.4 Q1799.83 1401.03 1803.31 1396.14 Q1806.82 1391.26 1806.96 1391.05 L1792.07 1391.05 Q1785.53 1391.05 1785.01 1391.47 Q1784.3 1392.1 1783.21 1398.01 L1781.42 1398.01 Z" fill="#000000" fill-rule="nonzero" fill-opacity="1" /><path clip-path="url(#clip870)" d="M1814.66 1390.77 L1814.66 1388.52 Q1823.3 1388.52 1827.76 1383.92 Q1828.99 1383.92 1829.2 1384.2 Q1829.41 1384.48 1829.41 1385.78 L1829.41 1426.15 Q1829.41 1428.29 1830.47 1428.96 Q1831.52 1429.63 1836.13 1429.63 L1838.41 1429.63 L1838.41 1431.84 Q1835.88 1431.63 1826.74 1431.63 Q1817.61 1431.63 1815.12 1431.84 L1815.12 1429.63 L1817.4 1429.63 Q1821.93 1429.63 1823.02 1428.99 Q1824.11 1428.33 1824.11 1426.15 L1824.11 1388.87 Q1820.35 1390.77 1814.66 1390.77 Z" fill="#000000" fill-rule="nonzero" fill-opacity="1" /><path clip-path="url(#clip870)" d="M1879.75 1402.78 Q1879.75 1403.28 1879.43 1404.44 L1872.55 1431.91 Q1871.04 1438.02 1866.12 1442.31 Q1861.23 1446.6 1855.68 1446.6 Q1852.34 1446.6 1850.2 1444.8 Q1848.06 1443.05 1848.06 1440.34 Q1848.06 1437.95 1849.32 1436.79 Q1850.59 1435.67 1852.1 1435.67 Q1852.59 1435.67 1853.12 1435.81 Q1853.64 1435.95 1854.21 1436.55 Q1854.77 1437.14 1854.77 1438.16 Q1854.77 1439.81 1853.33 1441.11 Q1852.63 1441.71 1851.96 1441.85 Q1851.33 1441.99 1850.24 1441.99 Q1850.66 1442.98 1851.43 1443.64 Q1852.2 1444.31 1853.08 1444.56 Q1853.96 1444.84 1854.52 1444.91 Q1855.12 1445.01 1855.68 1445.01 Q1860.18 1445.01 1863.62 1440.48 Q1864.64 1439.11 1865.38 1437.74 Q1866.15 1436.41 1866.71 1434.76 Q1867.28 1433.14 1867.52 1432.26 Q1867.8 1431.38 1868.3 1429.38 Q1865.03 1432.65 1861.02 1432.65 Q1859.34 1432.65 1857.83 1432.19 Q1856.35 1431.73 1855.05 1430.79 Q1853.75 1429.8 1852.98 1428.08 Q1852.24 1426.36 1852.24 1424.08 Q1852.24 1421.65 1853.19 1418.35 Q1854.14 1415.05 1856.42 1408.97 Q1857.65 1405.56 1857.65 1403.91 Q1857.65 1403.1 1857.47 1402.61 Q1857.3 1402.08 1856.95 1401.91 Q1856.6 1401.69 1856.38 1401.66 Q1856.21 1401.62 1855.86 1401.62 Q1853.78 1401.62 1851.85 1403.73 Q1849.92 1405.84 1848.59 1410.55 Q1848.3 1411.43 1848.13 1411.64 Q1847.95 1411.85 1847.43 1411.85 Q1846.55 1411.81 1846.55 1411.11 Q1846.55 1410.83 1846.86 1409.74 Q1847.18 1408.62 1847.92 1406.96 Q1848.69 1405.28 1849.74 1403.77 Q1850.8 1402.22 1852.45 1401.13 Q1854.14 1400.04 1856.07 1400.04 Q1858.7 1400.04 1860.32 1401.77 Q1861.97 1403.45 1861.97 1405.95 Q1861.97 1406.96 1861.69 1407.88 Q1861.44 1408.76 1860.53 1411.11 Q1856.84 1420.6 1856.84 1425.23 Q1856.84 1426.36 1857.02 1427.31 Q1857.23 1428.22 1857.68 1429.13 Q1858.14 1430.01 1859.05 1430.54 Q1860 1431.03 1861.3 1431.03 Q1862.95 1431.03 1864.5 1430.26 Q1866.08 1429.45 1867.07 1428.36 Q1868.08 1427.27 1868.68 1426.36 Q1869.31 1425.41 1869.45 1424.92 L1872.69 1411.99 L1874.13 1406.23 Q1874.79 1403.1 1875.11 1402.33 Q1875.53 1401.59 1876.27 1401.2 Q1877.01 1400.82 1877.64 1400.82 Q1878.52 1400.82 1879.12 1401.34 Q1879.75 1401.87 1879.75 1402.78 Z" fill="#000000" fill-rule="nonzero" fill-opacity="1" /><path clip-path="url(#clip870)" d="M1903.06 1414.73 Q1901.41 1414.73 1901.41 1413.85 Q1901.41 1412.97 1903.13 1412.97 Q1903.34 1412.97 1903.69 1413.01 Q1904.08 1413.04 1904.15 1413.04 L1924.42 1413.04 L1924.42 1392.7 Q1924.42 1392.63 1924.39 1392.31 Q1924.35 1391.96 1924.35 1391.75 Q1924.35 1390.03 1925.2 1390.03 Q1926.07 1390.03 1926.07 1391.75 L1926.07 1413.04 L1946.38 1413.04 Q1946.45 1413.04 1946.8 1413.01 Q1947.16 1412.97 1947.37 1412.97 Q1949.02 1412.97 1949.02 1413.85 Q1949.05 1414.73 1947.3 1414.73 Q1947.08 1414.73 1946.77 1414.69 Q1946.45 1414.66 1946.38 1414.66 L1926.07 1414.66 L1926.07 1436.02 Q1926.07 1437.67 1925.2 1437.67 Q1924.35 1437.67 1924.35 1435.95 Q1924.35 1435.74 1924.39 1435.39 Q1924.42 1435.07 1924.42 1435 L1924.42 1414.66 L1904.15 1414.66 Q1904.08 1414.66 1903.66 1414.69 Q1903.27 1414.73 1903.06 1414.73 Z" fill="#000000" fill-rule="nonzero" fill-opacity="1" /><path clip-path="url(#clip870)" d="M1976.81 1390.77 L1976.81 1388.52 Q1985.45 1388.52 1989.91 1383.92 Q1991.14 1383.92 1991.35 1384.2 Q1991.56 1384.48 1991.56 1385.78 L1991.56 1426.15 Q1991.56 1428.29 1992.62 1428.96 Q1993.67 1429.63 1998.27 1429.63 L2000.56 1429.63 L2000.56 1431.84 Q1998.03 1431.63 1988.89 1431.63 Q1979.76 1431.63 1977.26 1431.84 L1977.26 1429.63 L1979.55 1429.63 Q1984.08 1429.63 1985.17 1428.99 Q1986.26 1428.33 1986.26 1426.15 L1986.26 1388.87 Q1982.5 1390.77 1976.81 1390.77 Z" fill="#000000" fill-rule="nonzero" fill-opacity="1" /><path clip-path="url(#clip870)" d="M2032.4 1420.91 Q2032.47 1420.03 2033.84 1420.03 L2077.93 1420.03 Q2080.01 1420.03 2080.04 1420.84 Q2080.04 1421.72 2078.07 1421.69 L2034.33 1421.69 Q2032.4 1421.72 2032.4 1420.91 M2032.4 1406.86 Q2032.4 1405.98 2033.91 1406.02 L2077.86 1406.02 Q2080.01 1406.02 2080.04 1406.86 Q2080.04 1407.67 2078.21 1407.67 L2033.84 1407.67 Q2032.4 1407.67 2032.4 1406.86 Z" fill="#000000" fill-rule="nonzero" fill-opacity="1" /><path clip-path="url(#clip870)" d="M2107.79 1408.83 Q2107.79 1398.25 2110.46 1392.49 Q2114.19 1383.92 2122.97 1383.92 Q2124.83 1383.92 2126.77 1384.44 Q2128.73 1384.94 2131.19 1386.87 Q2133.69 1388.8 2135.2 1391.96 Q2138.08 1398.08 2138.08 1408.83 Q2138.08 1419.33 2135.41 1425.06 Q2131.51 1433.42 2122.9 1433.42 Q2119.67 1433.42 2116.37 1431.77 Q2113.1 1430.12 2111.03 1426.15 Q2107.79 1420.21 2107.79 1408.83 M2113.77 1407.95 Q2113.77 1418.8 2114.54 1423.13 Q2115.42 1427.8 2117.81 1429.84 Q2120.23 1431.84 2122.9 1431.84 Q2125.78 1431.84 2128.17 1429.7 Q2130.6 1427.52 2131.33 1422.85 Q2132.14 1418.24 2132.11 1407.95 Q2132.11 1397.94 2131.4 1393.93 Q2130.46 1389.26 2127.93 1387.4 Q2125.43 1385.5 2122.9 1385.5 Q2121.95 1385.5 2120.93 1385.78 Q2119.95 1386.06 2118.51 1386.87 Q2117.07 1387.68 2115.95 1389.68 Q2114.86 1391.68 2114.33 1394.7 Q2113.77 1398.6 2113.77 1407.95 Z" fill="#000000" fill-rule="nonzero" fill-opacity="1" /></svg>
