<?xml version="1.0" encoding="utf-8"?>
<svg xmlns="http://www.w3.org/2000/svg" xmlns:xlink="http://www.w3.org/1999/xlink" width="600" height="400" viewBox="0 0 2400 1600">
<defs>
  <clipPath id="clip670">
    <rect x="0" y="0" width="2400" height="1600"/>
  </clipPath>
</defs>
<path clip-path="url(#clip670)" d="M0 1600 L2400 1600 L2400 0 L0 0  Z" fill="#ffffff" fill-rule="evenodd" fill-opacity="1"/>
<defs>
  <clipPath id="clip671">
    <rect x="480" y="0" width="1681" height="1600"/>
  </clipPath>
</defs>
<path clip-path="url(#clip670)" d="M178.867 1486.45 L2352.76 1486.45 L2352.76 47.2441 L178.867 47.2441  Z" fill="#ffffff" fill-rule="evenodd" fill-opacity="1"/>
<defs>
  <clipPath id="clip672">
    <rect x="178" y="47" width="2175" height="1440"/>
  </clipPath>
</defs>
<polyline clip-path="url(#clip672)" style="stroke:#000000; stroke-linecap:round; stroke-linejoin:round; stroke-width:2; stroke-opacity:0.1; fill:none" points="247.507,1486.45 247.507,47.2441 "/>
<polyline clip-path="url(#clip672)" style="stroke:#000000; stroke-linecap:round; stroke-linejoin:round; stroke-width:2; stroke-opacity:0.1; fill:none" points="586.942,1486.45 586.942,47.2441 "/>
<polyline clip-path="url(#clip672)" style="stroke:#000000; stroke-linecap:round; stroke-linejoin:round; stroke-width:2; stroke-opacity:0.1; fill:none" points="926.376,1486.45 926.376,47.2441 "/>
<polyline clip-path="url(#clip672)" style="stroke:#000000; stroke-linecap:round; stroke-linejoin:round; stroke-width:2; stroke-opacity:0.1; fill:none" points="1265.81,1486.45 1265.81,47.2441 "/>
<polyline clip-path="url(#clip672)" style="stroke:#000000; stroke-linecap:round; stroke-linejoin:round; stroke-width:2; stroke-opacity:0.1; fill:none" points="1605.25,1486.45 1605.25,47.2441 "/>
<polyline clip-path="url(#clip672)" style="stroke:#000000; stroke-linecap:round; stroke-linejoin:round; stroke-width:2; stroke-opacity:0.1; fill:none" points="1944.68,1486.45 1944.68,47.2441 "/>
<polyline clip-path="url(#clip672)" style="stroke:#000000; stroke-linecap:round; stroke-linejoin:round; stroke-width:2; stroke-opacity:0.1; fill:none" points="2284.12,1486.45 2284.12,47.2441 "/>
<polyline clip-path="url(#clip670)" style="stroke:#000000; stroke-linecap:round; stroke-linejoin:round; stroke-width:4; stroke-opacity:1; fill:none" points="178.867,1486.45 2352.76,1486.45 "/>
<polyline clip-path="url(#clip670)" style="stroke:#000000; stroke-linecap:round; stroke-linejoin:round; stroke-width:4; stroke-opacity:1; fill:none" points="247.507,1486.45 247.507,1467.55 "/>
<polyline clip-path="url(#clip670)" style="stroke:#000000; stroke-linecap:round; stroke-linejoin:round; stroke-width:4; stroke-opacity:1; fill:none" points="586.942,1486.45 586.942,1467.55 "/>
<polyline clip-path="url(#clip670)" style="stroke:#000000; stroke-linecap:round; stroke-linejoin:round; stroke-width:4; stroke-opacity:1; fill:none" points="926.376,1486.45 926.376,1467.55 "/>
<polyline clip-path="url(#clip670)" style="stroke:#000000; stroke-linecap:round; stroke-linejoin:round; stroke-width:4; stroke-opacity:1; fill:none" points="1265.81,1486.45 1265.81,1467.55 "/>
<polyline clip-path="url(#clip670)" style="stroke:#000000; stroke-linecap:round; stroke-linejoin:round; stroke-width:4; stroke-opacity:1; fill:none" points="1605.25,1486.45 1605.25,1467.55 "/>
<polyline clip-path="url(#clip670)" style="stroke:#000000; stroke-linecap:round; stroke-linejoin:round; stroke-width:4; stroke-opacity:1; fill:none" points="1944.68,1486.45 1944.68,1467.55 "/>
<polyline clip-path="url(#clip670)" style="stroke:#000000; stroke-linecap:round; stroke-linejoin:round; stroke-width:4; stroke-opacity:1; fill:none" points="2284.12,1486.45 2284.12,1467.55 "/>
<path clip-path="url(#clip670)" d="M201.569 1532.02 L231.245 1532.02 L231.245 1535.95 L201.569 1535.95 L201.569 1532.02 Z" fill="#000000" fill-rule="nonzero" fill-opacity="1" /><path clip-path="url(#clip670)" d="M255.504 1530.21 Q258.861 1530.93 260.736 1533.2 Q262.634 1535.47 262.634 1538.8 Q262.634 1543.92 259.115 1546.72 Q255.597 1549.52 249.115 1549.52 Q246.94 1549.52 244.625 1549.08 Q242.333 1548.66 239.879 1547.81 L239.879 1543.29 Q241.824 1544.43 244.139 1545.01 Q246.453 1545.58 248.977 1545.58 Q253.375 1545.58 255.666 1543.85 Q257.981 1542.11 257.981 1538.8 Q257.981 1535.75 255.828 1534.03 Q253.699 1532.3 249.879 1532.3 L245.852 1532.3 L245.852 1528.45 L250.065 1528.45 Q253.514 1528.45 255.342 1527.09 Q257.171 1525.7 257.171 1523.11 Q257.171 1520.45 255.273 1519.03 Q253.398 1517.6 249.879 1517.6 Q247.958 1517.6 245.759 1518.01 Q243.56 1518.43 240.921 1519.31 L240.921 1515.14 Q243.583 1514.4 245.898 1514.03 Q248.236 1513.66 250.296 1513.66 Q255.62 1513.66 258.722 1516.09 Q261.824 1518.5 261.824 1522.62 Q261.824 1525.49 260.18 1527.48 Q258.537 1529.45 255.504 1530.21 Z" fill="#000000" fill-rule="nonzero" fill-opacity="1" /><path clip-path="url(#clip670)" d="M281.5 1517.37 Q277.888 1517.37 276.06 1520.93 Q274.254 1524.47 274.254 1531.6 Q274.254 1538.71 276.06 1542.27 Q277.888 1545.82 281.5 1545.82 Q285.134 1545.82 286.939 1542.27 Q288.768 1538.71 288.768 1531.6 Q288.768 1524.47 286.939 1520.93 Q285.134 1517.37 281.5 1517.37 M281.5 1513.66 Q287.31 1513.66 290.365 1518.27 Q293.444 1522.85 293.444 1531.6 Q293.444 1540.33 290.365 1544.94 Q287.31 1549.52 281.5 1549.52 Q275.689 1549.52 272.611 1544.94 Q269.555 1540.33 269.555 1531.6 Q269.555 1522.85 272.611 1518.27 Q275.689 1513.66 281.5 1513.66 Z" fill="#000000" fill-rule="nonzero" fill-opacity="1" /><path clip-path="url(#clip670)" d="M541.004 1532.02 L570.68 1532.02 L570.68 1535.95 L541.004 1535.95 L541.004 1532.02 Z" fill="#000000" fill-rule="nonzero" fill-opacity="1" /><path clip-path="url(#clip670)" d="M584.8 1544.91 L601.12 1544.91 L601.12 1548.85 L579.175 1548.85 L579.175 1544.91 Q581.837 1542.16 586.421 1537.53 Q591.027 1532.88 592.208 1531.53 Q594.453 1529.01 595.333 1527.27 Q596.235 1525.51 596.235 1523.82 Q596.235 1521.07 594.291 1519.33 Q592.37 1517.6 589.268 1517.6 Q587.069 1517.6 584.615 1518.36 Q582.185 1519.13 579.407 1520.68 L579.407 1515.95 Q582.231 1514.82 584.685 1514.24 Q587.138 1513.66 589.175 1513.66 Q594.546 1513.66 597.74 1516.35 Q600.935 1519.03 600.935 1523.52 Q600.935 1525.65 600.124 1527.57 Q599.337 1529.47 597.231 1532.07 Q596.652 1532.74 593.55 1535.95 Q590.448 1539.15 584.8 1544.91 Z" fill="#000000" fill-rule="nonzero" fill-opacity="1" /><path clip-path="url(#clip670)" d="M620.934 1517.37 Q617.323 1517.37 615.495 1520.93 Q613.689 1524.47 613.689 1531.6 Q613.689 1538.71 615.495 1542.27 Q617.323 1545.82 620.934 1545.82 Q624.569 1545.82 626.374 1542.27 Q628.203 1538.71 628.203 1531.6 Q628.203 1524.47 626.374 1520.93 Q624.569 1517.37 620.934 1517.37 M620.934 1513.66 Q626.745 1513.66 629.8 1518.27 Q632.879 1522.85 632.879 1531.6 Q632.879 1540.33 629.8 1544.94 Q626.745 1549.52 620.934 1549.52 Q615.124 1549.52 612.046 1544.94 Q608.99 1540.33 608.99 1531.6 Q608.99 1522.85 612.046 1518.27 Q615.124 1513.66 620.934 1513.66 Z" fill="#000000" fill-rule="nonzero" fill-opacity="1" /><path clip-path="url(#clip670)" d="M880.439 1532.02 L910.115 1532.02 L910.115 1535.95 L880.439 1535.95 L880.439 1532.02 Z" fill="#000000" fill-rule="nonzero" fill-opacity="1" /><path clip-path="url(#clip670)" d="M921.018 1544.91 L928.656 1544.91 L928.656 1518.55 L920.346 1520.21 L920.346 1515.95 L928.61 1514.29 L933.286 1514.29 L933.286 1544.91 L940.925 1544.91 L940.925 1548.85 L921.018 1548.85 L921.018 1544.91 Z" fill="#000000" fill-rule="nonzero" fill-opacity="1" /><path clip-path="url(#clip670)" d="M960.369 1517.37 Q956.758 1517.37 954.93 1520.93 Q953.124 1524.47 953.124 1531.6 Q953.124 1538.71 954.93 1542.27 Q956.758 1545.82 960.369 1545.82 Q964.004 1545.82 965.809 1542.27 Q967.638 1538.71 967.638 1531.6 Q967.638 1524.47 965.809 1520.93 Q964.004 1517.37 960.369 1517.37 M960.369 1513.66 Q966.179 1513.66 969.235 1518.27 Q972.314 1522.85 972.314 1531.6 Q972.314 1540.33 969.235 1544.94 Q966.179 1549.52 960.369 1549.52 Q954.559 1549.52 951.48 1544.94 Q948.425 1540.33 948.425 1531.6 Q948.425 1522.85 951.48 1518.27 Q954.559 1513.66 960.369 1513.66 Z" fill="#000000" fill-rule="nonzero" fill-opacity="1" /><path clip-path="url(#clip670)" d="M1265.81 1517.37 Q1262.2 1517.37 1260.37 1520.93 Q1258.57 1524.47 1258.57 1531.6 Q1258.57 1538.71 1260.37 1542.27 Q1262.2 1545.82 1265.81 1545.82 Q1269.45 1545.82 1271.25 1542.27 Q1273.08 1538.71 1273.08 1531.6 Q1273.08 1524.47 1271.25 1520.93 Q1269.45 1517.37 1265.81 1517.37 M1265.81 1513.66 Q1271.62 1513.66 1274.68 1518.27 Q1277.76 1522.85 1277.76 1531.6 Q1277.76 1540.33 1274.68 1544.94 Q1271.62 1549.52 1265.81 1549.52 Q1260 1549.52 1256.92 1544.94 Q1253.87 1540.33 1253.87 1531.6 Q1253.87 1522.85 1256.92 1518.27 Q1260 1513.66 1265.81 1513.66 Z" fill="#000000" fill-rule="nonzero" fill-opacity="1" /><path clip-path="url(#clip670)" d="M1579.93 1544.91 L1587.57 1544.91 L1587.57 1518.55 L1579.26 1520.21 L1579.26 1515.95 L1587.53 1514.29 L1592.2 1514.29 L1592.2 1544.91 L1599.84 1544.91 L1599.84 1548.85 L1579.93 1548.85 L1579.93 1544.91 Z" fill="#000000" fill-rule="nonzero" fill-opacity="1" /><path clip-path="url(#clip670)" d="M1619.29 1517.37 Q1615.67 1517.37 1613.85 1520.93 Q1612.04 1524.47 1612.04 1531.6 Q1612.04 1538.71 1613.85 1542.27 Q1615.67 1545.82 1619.29 1545.82 Q1622.92 1545.82 1624.73 1542.27 Q1626.55 1538.71 1626.55 1531.6 Q1626.55 1524.47 1624.73 1520.93 Q1622.92 1517.37 1619.29 1517.37 M1619.29 1513.66 Q1625.1 1513.66 1628.15 1518.27 Q1631.23 1522.85 1631.23 1531.6 Q1631.23 1540.33 1628.15 1544.94 Q1625.1 1549.52 1619.29 1549.52 Q1613.48 1549.52 1610.4 1544.94 Q1607.34 1540.33 1607.34 1531.6 Q1607.34 1522.85 1610.4 1518.27 Q1613.48 1513.66 1619.29 1513.66 Z" fill="#000000" fill-rule="nonzero" fill-opacity="1" /><path clip-path="url(#clip670)" d="M1923.45 1544.91 L1939.77 1544.91 L1939.77 1548.85 L1917.83 1548.85 L1917.83 1544.91 Q1920.49 1542.16 1925.07 1537.53 Q1929.68 1532.88 1930.86 1531.53 Q1933.11 1529.01 1933.99 1527.27 Q1934.89 1525.51 1934.89 1523.82 Q1934.89 1521.07 1932.94 1519.33 Q1931.02 1517.6 1927.92 1517.6 Q1925.72 1517.6 1923.27 1518.36 Q1920.84 1519.13 1918.06 1520.68 L1918.06 1515.95 Q1920.88 1514.82 1923.34 1514.24 Q1925.79 1513.66 1927.83 1513.66 Q1933.2 1513.66 1936.39 1516.35 Q1939.59 1519.03 1939.59 1523.52 Q1939.59 1525.65 1938.78 1527.57 Q1937.99 1529.47 1935.88 1532.07 Q1935.31 1532.74 1932.2 1535.95 Q1929.1 1539.15 1923.45 1544.91 Z" fill="#000000" fill-rule="nonzero" fill-opacity="1" /><path clip-path="url(#clip670)" d="M1959.59 1517.37 Q1955.98 1517.37 1954.15 1520.93 Q1952.34 1524.47 1952.34 1531.6 Q1952.34 1538.71 1954.15 1542.27 Q1955.98 1545.82 1959.59 1545.82 Q1963.22 1545.82 1965.03 1542.27 Q1966.86 1538.71 1966.86 1531.6 Q1966.86 1524.47 1965.03 1520.93 Q1963.22 1517.37 1959.59 1517.37 M1959.59 1513.66 Q1965.4 1513.66 1968.45 1518.27 Q1971.53 1522.85 1971.53 1531.6 Q1971.53 1540.33 1968.45 1544.94 Q1965.4 1549.52 1959.59 1549.52 Q1953.78 1549.52 1950.7 1544.94 Q1947.64 1540.33 1947.64 1531.6 Q1947.64 1522.85 1950.7 1518.27 Q1953.78 1513.66 1959.59 1513.66 Z" fill="#000000" fill-rule="nonzero" fill-opacity="1" /><path clip-path="url(#clip670)" d="M2272.96 1530.21 Q2276.31 1530.93 2278.19 1533.2 Q2280.09 1535.47 2280.09 1538.8 Q2280.09 1543.92 2276.57 1546.72 Q2273.05 1549.52 2266.57 1549.52 Q2264.39 1549.52 2262.08 1549.08 Q2259.79 1548.66 2257.33 1547.81 L2257.33 1543.29 Q2259.28 1544.43 2261.59 1545.01 Q2263.91 1545.58 2266.43 1545.58 Q2270.83 1545.58 2273.12 1543.85 Q2275.44 1542.11 2275.44 1538.8 Q2275.44 1535.75 2273.28 1534.03 Q2271.15 1532.3 2267.33 1532.3 L2263.31 1532.3 L2263.31 1528.45 L2267.52 1528.45 Q2270.97 1528.45 2272.8 1527.09 Q2274.63 1525.7 2274.63 1523.11 Q2274.63 1520.45 2272.73 1519.03 Q2270.85 1517.6 2267.33 1517.6 Q2265.41 1517.6 2263.21 1518.01 Q2261.01 1518.43 2258.38 1519.31 L2258.38 1515.14 Q2261.04 1514.4 2263.35 1514.03 Q2265.69 1513.66 2267.75 1513.66 Q2273.07 1513.66 2276.18 1516.09 Q2279.28 1518.5 2279.28 1522.62 Q2279.28 1525.49 2277.63 1527.48 Q2275.99 1529.45 2272.96 1530.21 Z" fill="#000000" fill-rule="nonzero" fill-opacity="1" /><path clip-path="url(#clip670)" d="M2298.95 1517.37 Q2295.34 1517.37 2293.51 1520.93 Q2291.71 1524.47 2291.71 1531.6 Q2291.71 1538.71 2293.51 1542.27 Q2295.34 1545.82 2298.95 1545.82 Q2302.59 1545.82 2304.39 1542.27 Q2306.22 1538.71 2306.22 1531.6 Q2306.22 1524.47 2304.39 1520.93 Q2302.59 1517.37 2298.95 1517.37 M2298.95 1513.66 Q2304.76 1513.66 2307.82 1518.27 Q2310.9 1522.85 2310.9 1531.6 Q2310.9 1540.33 2307.82 1544.94 Q2304.76 1549.52 2298.95 1549.52 Q2293.14 1549.52 2290.06 1544.94 Q2287.01 1540.33 2287.01 1531.6 Q2287.01 1522.85 2290.06 1518.27 Q2293.14 1513.66 2298.95 1513.66 Z" fill="#000000" fill-rule="nonzero" fill-opacity="1" /><polyline clip-path="url(#clip672)" style="stroke:#000000; stroke-linecap:round; stroke-linejoin:round; stroke-width:2; stroke-opacity:0.1; fill:none" points="178.867,1445.72 2352.76,1445.72 "/>
<polyline clip-path="url(#clip672)" style="stroke:#000000; stroke-linecap:round; stroke-linejoin:round; stroke-width:2; stroke-opacity:0.1; fill:none" points="178.867,1106.28 2352.76,1106.28 "/>
<polyline clip-path="url(#clip672)" style="stroke:#000000; stroke-linecap:round; stroke-linejoin:round; stroke-width:2; stroke-opacity:0.1; fill:none" points="178.867,766.846 2352.76,766.846 "/>
<polyline clip-path="url(#clip672)" style="stroke:#000000; stroke-linecap:round; stroke-linejoin:round; stroke-width:2; stroke-opacity:0.1; fill:none" points="178.867,427.411 2352.76,427.411 "/>
<polyline clip-path="url(#clip672)" style="stroke:#000000; stroke-linecap:round; stroke-linejoin:round; stroke-width:2; stroke-opacity:0.1; fill:none" points="178.867,87.9763 2352.76,87.9763 "/>
<polyline clip-path="url(#clip670)" style="stroke:#000000; stroke-linecap:round; stroke-linejoin:round; stroke-width:4; stroke-opacity:1; fill:none" points="178.867,1486.45 178.867,47.2441 "/>
<polyline clip-path="url(#clip670)" style="stroke:#000000; stroke-linecap:round; stroke-linejoin:round; stroke-width:4; stroke-opacity:1; fill:none" points="178.867,1445.72 197.764,1445.72 "/>
<polyline clip-path="url(#clip670)" style="stroke:#000000; stroke-linecap:round; stroke-linejoin:round; stroke-width:4; stroke-opacity:1; fill:none" points="178.867,1106.28 197.764,1106.28 "/>
<polyline clip-path="url(#clip670)" style="stroke:#000000; stroke-linecap:round; stroke-linejoin:round; stroke-width:4; stroke-opacity:1; fill:none" points="178.867,766.846 197.764,766.846 "/>
<polyline clip-path="url(#clip670)" style="stroke:#000000; stroke-linecap:round; stroke-linejoin:round; stroke-width:4; stroke-opacity:1; fill:none" points="178.867,427.411 197.764,427.411 "/>
<polyline clip-path="url(#clip670)" style="stroke:#000000; stroke-linecap:round; stroke-linejoin:round; stroke-width:4; stroke-opacity:1; fill:none" points="178.867,87.9763 197.764,87.9763 "/>
<path clip-path="url(#clip670)" d="M50.9921 1446.17 L80.6679 1446.17 L80.6679 1450.1 L50.9921 1450.1 L50.9921 1446.17 Z" fill="#000000" fill-rule="nonzero" fill-opacity="1" /><path clip-path="url(#clip670)" d="M94.7882 1459.06 L111.108 1459.06 L111.108 1463 L89.1632 1463 L89.1632 1459.06 Q91.8252 1456.31 96.4085 1451.68 Q101.015 1447.02 102.196 1445.68 Q104.441 1443.16 105.321 1441.42 Q106.223 1439.66 106.223 1437.97 Q106.223 1435.22 104.279 1433.48 Q102.358 1431.75 99.2558 1431.75 Q97.0567 1431.75 94.603 1432.51 Q92.1725 1433.27 89.3947 1434.82 L89.3947 1430.1 Q92.2188 1428.97 94.6724 1428.39 Q97.1261 1427.81 99.1632 1427.81 Q104.534 1427.81 107.728 1430.5 Q110.922 1433.18 110.922 1437.67 Q110.922 1439.8 110.112 1441.72 Q109.325 1443.62 107.219 1446.21 Q106.64 1446.88 103.538 1450.1 Q100.436 1453.3 94.7882 1459.06 Z" fill="#000000" fill-rule="nonzero" fill-opacity="1" /><path clip-path="url(#clip670)" d="M130.922 1431.51 Q127.311 1431.51 125.482 1435.08 Q123.677 1438.62 123.677 1445.75 Q123.677 1452.86 125.482 1456.42 Q127.311 1459.96 130.922 1459.96 Q134.556 1459.96 136.362 1456.42 Q138.191 1452.86 138.191 1445.75 Q138.191 1438.62 136.362 1435.08 Q134.556 1431.51 130.922 1431.51 M130.922 1427.81 Q136.732 1427.81 139.788 1432.42 Q142.867 1437 142.867 1445.75 Q142.867 1454.48 139.788 1459.08 Q136.732 1463.67 130.922 1463.67 Q125.112 1463.67 122.033 1459.08 Q118.978 1454.48 118.978 1445.75 Q118.978 1437 122.033 1432.42 Q125.112 1427.81 130.922 1427.81 Z" fill="#000000" fill-rule="nonzero" fill-opacity="1" /><path clip-path="url(#clip670)" d="M50.9921 1106.73 L80.6679 1106.73 L80.6679 1110.67 L50.9921 1110.67 L50.9921 1106.73 Z" fill="#000000" fill-rule="nonzero" fill-opacity="1" /><path clip-path="url(#clip670)" d="M91.5706 1119.63 L99.2095 1119.63 L99.2095 1093.26 L90.8993 1094.93 L90.8993 1090.67 L99.1632 1089 L103.839 1089 L103.839 1119.63 L111.478 1119.63 L111.478 1123.56 L91.5706 1123.56 L91.5706 1119.63 Z" fill="#000000" fill-rule="nonzero" fill-opacity="1" /><path clip-path="url(#clip670)" d="M130.922 1092.08 Q127.311 1092.08 125.482 1095.64 Q123.677 1099.19 123.677 1106.32 Q123.677 1113.42 125.482 1116.99 Q127.311 1120.53 130.922 1120.53 Q134.556 1120.53 136.362 1116.99 Q138.191 1113.42 138.191 1106.32 Q138.191 1099.19 136.362 1095.64 Q134.556 1092.08 130.922 1092.08 M130.922 1088.38 Q136.732 1088.38 139.788 1092.98 Q142.867 1097.57 142.867 1106.32 Q142.867 1115.04 139.788 1119.65 Q136.732 1124.23 130.922 1124.23 Q125.112 1124.23 122.033 1119.65 Q118.978 1115.04 118.978 1106.32 Q118.978 1097.57 122.033 1092.98 Q125.112 1088.38 130.922 1088.38 Z" fill="#000000" fill-rule="nonzero" fill-opacity="1" /><path clip-path="url(#clip670)" d="M130.922 752.645 Q127.311 752.645 125.482 756.209 Q123.677 759.751 123.677 766.881 Q123.677 773.987 125.482 777.552 Q127.311 781.094 130.922 781.094 Q134.556 781.094 136.362 777.552 Q138.191 773.987 138.191 766.881 Q138.191 759.751 136.362 756.209 Q134.556 752.645 130.922 752.645 M130.922 748.941 Q136.732 748.941 139.788 753.547 Q142.867 758.131 142.867 766.881 Q142.867 775.608 139.788 780.214 Q136.732 784.797 130.922 784.797 Q125.112 784.797 122.033 780.214 Q118.978 775.608 118.978 766.881 Q118.978 758.131 122.033 753.547 Q125.112 748.941 130.922 748.941 Z" fill="#000000" fill-rule="nonzero" fill-opacity="1" /><path clip-path="url(#clip670)" d="M91.5706 440.756 L99.2095 440.756 L99.2095 414.39 L90.8993 416.057 L90.8993 411.798 L99.1632 410.131 L103.839 410.131 L103.839 440.756 L111.478 440.756 L111.478 444.691 L91.5706 444.691 L91.5706 440.756 Z" fill="#000000" fill-rule="nonzero" fill-opacity="1" /><path clip-path="url(#clip670)" d="M130.922 413.21 Q127.311 413.21 125.482 416.775 Q123.677 420.316 123.677 427.446 Q123.677 434.552 125.482 438.117 Q127.311 441.659 130.922 441.659 Q134.556 441.659 136.362 438.117 Q138.191 434.552 138.191 427.446 Q138.191 420.316 136.362 416.775 Q134.556 413.21 130.922 413.21 M130.922 409.506 Q136.732 409.506 139.788 414.113 Q142.867 418.696 142.867 427.446 Q142.867 436.173 139.788 440.779 Q136.732 445.362 130.922 445.362 Q125.112 445.362 122.033 440.779 Q118.978 436.173 118.978 427.446 Q118.978 418.696 122.033 414.113 Q125.112 409.506 130.922 409.506 Z" fill="#000000" fill-rule="nonzero" fill-opacity="1" /><path clip-path="url(#clip670)" d="M94.7882 101.321 L111.108 101.321 L111.108 105.256 L89.1632 105.256 L89.1632 101.321 Q91.8252 98.5665 96.4085 93.9369 Q101.015 89.2841 102.196 87.9416 Q104.441 85.4184 105.321 83.6823 Q106.223 81.9231 106.223 80.2333 Q106.223 77.4786 104.279 75.7425 Q102.358 74.0064 99.2558 74.0064 Q97.0567 74.0064 94.603 74.7703 Q92.1725 75.5342 89.3947 77.0851 L89.3947 72.3629 Q92.2188 71.2287 94.6724 70.65 Q97.1261 70.0713 99.1632 70.0713 Q104.534 70.0713 107.728 72.7565 Q110.922 75.4416 110.922 79.9323 Q110.922 82.062 110.112 83.9832 Q109.325 85.8814 107.219 88.474 Q106.64 89.1453 103.538 92.3628 Q100.436 95.5573 94.7882 101.321 Z" fill="#000000" fill-rule="nonzero" fill-opacity="1" /><path clip-path="url(#clip670)" d="M130.922 73.775 Q127.311 73.775 125.482 77.3398 Q123.677 80.8814 123.677 88.011 Q123.677 95.1174 125.482 98.6822 Q127.311 102.224 130.922 102.224 Q134.556 102.224 136.362 98.6822 Q138.191 95.1174 138.191 88.011 Q138.191 80.8814 136.362 77.3398 Q134.556 73.775 130.922 73.775 M130.922 70.0713 Q136.732 70.0713 139.788 74.6777 Q142.867 79.261 142.867 88.011 Q142.867 96.7378 139.788 101.344 Q136.732 105.928 130.922 105.928 Q125.112 105.928 122.033 101.344 Q118.978 96.7378 118.978 88.011 Q118.978 79.261 122.033 74.6777 Q125.112 70.0713 130.922 70.0713 Z" fill="#000000" fill-rule="nonzero" fill-opacity="1" /><polyline clip-path="url(#clip672)" style="stroke:#0000ff; stroke-linecap:round; stroke-linejoin:round; stroke-width:4; stroke-opacity:1; fill:none" points="1153.63,1007.84 1153.8,1009.02 1154.13,1011.24 1154.74,1014.63 1155.45,1018.03 1156.27,1021.42 1157.19,1024.82 1158.25,1028.21 1159.42,1031.61 1160.59,1034.71 1160.7,1035 1162.13,1038.39 1163.67,1041.79 1163.98,1042.44 1165.36,1045.18 1167.18,1048.58 1167.38,1048.91 1169.18,1051.97 1170.77,1054.51 1171.32,1055.37 1173.65,1058.76 1174.16,1059.47 1176.17,1062.15 1177.56,1063.92 1178.89,1065.55 1180.95,1067.96 1181.83,1068.94 1184.35,1071.64 1185.02,1072.34 1187.74,1075.02 1188.5,1075.73 1191.14,1078.12 1192.29,1079.13 1194.53,1080.99 1196.46,1082.52 1197.92,1083.64 1201.06,1085.91 1201.32,1086.1 1204.71,1088.35 1206.23,1089.31 1208.11,1090.45 1211.5,1092.39 1212.09,1092.7 1214.9,1094.16 1218.29,1095.81 1218.92,1096.1 1221.68,1097.31 1225.08,1098.68 1227.24,1099.49 1228.47,1099.94 1231.87,1101.06 1235.26,1102.07 1238.32,1102.89 1238.66,1102.97 1242.05,1103.75 1245.45,1104.42 1248.84,1104.99 1252.23,1105.45 1255.63,1105.82 1259.02,1106.07 1262.42,1106.23 1265.81,1106.28 1269.21,1106.23 1272.6,1106.07 1275.99,1105.82 1279.39,1105.45 1282.78,1104.99 1286.18,1104.42 1289.57,1103.75 1292.97,1102.97 1293.3,1102.89 1296.36,1102.07 1299.75,1101.06 1303.15,1099.94 1304.38,1099.49 1306.54,1098.68 1309.94,1097.31 1312.7,1096.1 1313.33,1095.81 1316.73,1094.16 1319.54,1092.7 1320.12,1092.39 1323.52,1090.45 1325.39,1089.31 1326.91,1088.35 1330.3,1086.1 1330.56,1085.91 1333.7,1083.64 1335.16,1082.52 1337.09,1080.99 1339.33,1079.13 1340.49,1078.12 1343.13,1075.73 1343.88,1075.02 1346.6,1072.34 1347.28,1071.64 1349.79,1068.94 1350.67,1067.96 1352.73,1065.55 1354.06,1063.92 1355.45,1062.15 1357.46,1059.47 1357.97,1058.76 1360.3,1055.37 1360.85,1054.51 1362.44,1051.97 1364.25,1048.91 1364.44,1048.58 1366.26,1045.18 1367.64,1042.44 1367.96,1041.79 1369.5,1038.39 1370.92,1035 1371.04,1034.71 1372.2,1031.61 1373.37,1028.21 1374.43,1024.82 1375.35,1021.42 1376.17,1018.03 1376.88,1014.63 1377.49,1011.24 1377.82,1009.02 1377.99,1007.84 1378.38,1004.45 1378.67,1001.06 1378.85,997.662 1378.94,994.267 1378.92,990.873 1378.8,987.479 1378.58,984.084 1378.26,980.69 1377.84,977.296 1377.82,977.186 1377.3,973.901 1376.66,970.507 1375.91,967.113 1375.06,963.718 1374.43,961.496 1374.09,960.324 1372.99,956.93 1371.79,953.535 1371.04,951.582 1370.46,950.141 1369,946.746 1367.64,943.831 1367.41,943.352 1365.67,939.958 1364.25,937.368 1363.79,936.563 1361.75,933.169 1360.85,931.768 1359.54,929.775 1357.46,926.794 1357.16,926.38 1354.58,922.986 1354.06,922.345 1351.78,919.592 1350.67,918.316 1348.75,916.197 1347.28,914.634 1345.47,912.803 1343.88,911.258 1341.89,909.409 1340.49,908.15 1337.99,906.014 1337.09,905.279 1333.7,902.62 1330.3,900.183 1328.9,899.226 1326.91,897.92 1323.55,895.831 1323.52,895.812 1320.12,893.892 1317.38,892.437 1316.73,892.099 1313.33,890.468 1310.15,889.043 1309.94,888.952 1306.54,887.59 1303.15,886.338 1301.1,885.648 1299.75,885.209 1296.36,884.206 1292.97,883.309 1289.57,882.518 1288.27,882.254 1286.18,881.844 1282.78,881.282 1279.39,880.821 1275.99,880.463 1272.6,880.207 1269.21,880.053 1265.81,880.002 1262.42,880.053 1259.02,880.207 1255.63,880.463 1252.23,880.821 1248.84,881.282 1245.45,881.844 1243.36,882.254 1242.05,882.518 1238.66,883.309 1235.26,884.206 1231.87,885.209 1230.52,885.648 1228.47,886.338 1225.08,887.59 1221.68,888.952 1221.48,889.043 1218.29,890.468 1214.9,892.099 1214.24,892.437 1211.5,893.892 1208.11,895.812 1208.08,895.831 1204.71,897.92 1202.73,899.226 1201.32,900.183 1197.92,902.62 1194.53,905.279 1193.64,906.014 1191.14,908.15 1189.73,909.409 1187.74,911.258 1186.15,912.803 1184.35,914.634 1182.87,916.197 1180.95,918.316 1179.84,919.592 1177.56,922.345 1177.05,922.986 1174.46,926.38 1174.16,926.794 1172.09,929.775 1170.77,931.768 1169.88,933.169 1167.83,936.563 1167.38,937.368 1165.96,939.958 1164.21,943.352 1163.98,943.831 1162.63,946.746 1161.16,950.141 1160.59,951.582 1159.83,953.535 1158.63,956.93 1157.53,960.324 1157.19,961.496 1156.57,963.718 1155.71,967.113 1154.96,970.507 1154.32,973.901 1153.8,977.186 1153.78,977.296 1153.36,980.69 1153.04,984.084 1152.82,987.479 1152.7,990.873 1152.68,994.267 1152.77,997.662 1152.95,1001.06 1153.24,1004.45 1153.63,1007.84 "/>
<polyline clip-path="url(#clip672)" style="stroke:#0000ff; stroke-linecap:round; stroke-linejoin:round; stroke-width:4; stroke-opacity:1; fill:none" points="1374.25,661.621 1374.43,662.409 1375.08,665.016 1376.19,668.41 1377.57,671.804 1377.82,672.326 1379.34,675.199 1381.22,678.196 1381.49,678.593 1384.16,681.987 1384.61,682.489 1387.47,685.382 1388.01,685.863 1391.4,688.607 1391.64,688.776 1394.8,690.835 1397.14,692.17 1398.19,692.714 1401.59,694.251 1404.98,695.552 1405.02,695.565 1408.37,696.568 1411.77,697.389 1415.16,698.027 1418.56,698.492 1421.95,698.794 1425.35,698.941 1428.74,698.941 1432.13,698.803 1435.53,698.532 1438.92,698.136 1442.32,697.621 1445.71,696.993 1449.11,696.257 1451.9,695.565 1452.5,695.41 1455.89,694.428 1459.29,693.35 1462.68,692.179 1462.71,692.17 1466.08,690.861 1469.47,689.457 1471.01,688.776 1472.87,687.932 1476.26,686.294 1478.05,685.382 1479.66,684.54 1483.05,682.669 1484.23,681.987 1486.44,680.665 1489.79,678.593 1489.84,678.559 1493.23,676.282 1494.79,675.199 1496.63,673.879 1499.42,671.804 1500.02,671.341 1503.42,668.638 1503.69,668.41 1506.81,665.748 1507.64,665.016 1510.2,662.677 1511.33,661.621 1513.6,659.402 1514.77,658.227 1516.99,655.901 1517.99,654.832 1520.39,652.141 1521,651.438 1523.78,648.09 1523.82,648.044 1526.43,644.649 1527.18,643.634 1528.87,641.255 1530.57,638.754 1531.16,637.861 1533.27,634.466 1533.96,633.28 1535.22,631.072 1537.03,627.678 1537.36,627 1538.66,624.283 1540.15,620.889 1540.75,619.373 1541.48,617.495 1542.66,614.1 1543.69,610.706 1544.15,608.927 1544.55,607.312 1545.25,603.917 1545.79,600.523 1546.15,597.129 1546.34,593.734 1546.34,590.34 1546.14,586.946 1545.72,583.551 1545.08,580.157 1544.2,576.762 1544.15,576.616 1543,573.368 1541.5,569.974 1540.75,568.542 1539.64,566.579 1537.36,563.185 1534.51,559.791 1533.96,559.219 1530.99,556.396 1530.57,556.043 1527.18,553.463 1526.49,553.002 1523.78,551.345 1520.51,549.608 1520.39,549.548 1516.99,548.107 1513.6,546.893 1511.31,546.213 1510.2,545.911 1506.81,545.156 1503.42,544.577 1500.02,544.166 1496.63,543.913 1493.23,543.81 1489.84,543.849 1486.44,544.023 1483.05,544.326 1479.66,544.75 1476.26,545.291 1472.87,545.942 1471.66,546.213 1469.47,546.722 1466.08,547.619 1462.68,548.615 1459.6,549.608 1459.29,549.711 1455.89,550.948 1452.5,552.273 1450.76,553.002 1449.11,553.715 1445.71,555.275 1443.4,556.396 1442.32,556.938 1438.92,558.733 1437.01,559.791 1435.53,560.639 1432.13,562.668 1431.31,563.185 1428.74,564.841 1426.14,566.579 1425.35,567.13 1421.95,569.569 1421.41,569.974 1418.56,572.174 1417.06,573.368 1415.16,574.932 1413.01,576.762 1411.77,577.861 1409.25,580.157 1408.37,580.981 1405.73,583.551 1404.98,584.316 1402.46,586.946 1401.59,587.893 1399.39,590.34 1398.19,591.745 1396.53,593.734 1394.8,595.91 1393.85,597.129 1391.4,600.434 1391.34,600.523 1389.03,603.917 1388.01,605.497 1386.87,607.312 1384.86,610.706 1384.61,611.149 1383.03,614.1 1381.33,617.495 1381.22,617.736 1379.81,620.889 1378.43,624.283 1377.82,625.941 1377.21,627.678 1376.15,631.072 1375.23,634.466 1374.47,637.861 1374.43,638.07 1373.89,641.255 1373.48,644.649 1373.24,648.044 1373.19,651.438 1373.33,654.832 1373.68,658.227 1374.25,661.621 "/>
<polyline clip-path="url(#clip672)" style="stroke:#0000ff; stroke-linecap:round; stroke-linejoin:round; stroke-width:4; stroke-opacity:1; fill:none" points="1123.25,696.568 1119.85,697.389 1116.46,698.027 1113.07,698.492 1109.67,698.794 1106.28,698.941 1102.88,698.941 1099.49,698.803 1096.09,698.532 1092.7,698.136 1089.31,697.621 1085.91,696.993 1082.52,696.257 1079.73,695.565 1079.12,695.41 1075.73,694.428 1072.33,693.35 1068.94,692.179 1068.92,692.17 1065.54,690.861 1062.15,689.457 1060.61,688.776 1058.76,687.932 1055.36,686.294 1053.57,685.382 1051.97,684.54 1048.57,682.669 1047.39,681.987 1045.18,680.665 1041.84,678.593 1041.78,678.559 1038.39,676.282 1036.83,675.199 1035,673.879 1032.2,671.804 1031.6,671.341 1028.21,668.638 1027.93,668.41 1024.81,665.748 1023.98,665.016 1021.42,662.677 1020.3,661.621 1018.02,659.402 1016.85,658.227 1014.63,655.901 1013.64,654.832 1011.24,652.141 1010.62,651.438 1007.84,648.09 1007.8,648.044 1005.19,644.649 1004.45,643.634 1002.75,641.255 1001.05,638.754 1000.46,637.861 998.35,634.466 997.658,633.28 996.402,631.072 994.595,627.678 994.263,627 992.965,624.283 991.472,620.889 990.869,619.373 990.14,617.495 988.967,614.1 987.934,610.706 987.475,608.927 987.068,607.312 986.372,603.917 985.837,600.523 985.47,597.129 985.282,593.734 985.284,590.34 985.487,586.946 985.902,583.551 986.544,580.157 987.427,576.762 987.475,576.616 988.625,573.368 990.118,569.974 990.869,568.542 991.987,566.579 994.263,563.185 997.113,559.791 997.658,559.219 1000.63,556.396 1001.05,556.043 1004.45,553.463 1005.13,553.002 1007.84,551.345 1011.11,549.608 1011.24,549.548 1014.63,548.107 1018.02,546.893 1020.32,546.213 1021.42,545.911 1024.81,545.156 1028.21,544.577 1031.6,544.166 1035,543.913 1038.39,543.81 1041.78,543.849 1045.18,544.023 1048.57,544.326 1051.97,544.75 1055.36,545.291 1058.76,545.942 1059.96,546.213 1062.15,546.722 1065.54,547.619 1068.94,548.615 1072.02,549.608 1072.33,549.711 1075.73,550.948 1079.12,552.273 1080.87,553.002 1082.52,553.715 1085.91,555.275 1088.22,556.396 1089.31,556.938 1092.7,558.733 1094.61,559.791 1096.09,560.639 1099.49,562.668 1100.32,563.185 1102.88,564.841 1105.48,566.579 1106.28,567.13 1109.67,569.569 1110.21,569.974 1113.07,572.174 1114.57,573.368 1116.46,574.932 1118.61,576.762 1119.85,577.861 1122.38,580.157 1123.25,580.981 1125.89,583.551 1126.64,584.316 1129.17,586.946 1130.04,587.893 1132.23,590.34 1133.43,591.745 1135.09,593.734 1136.83,595.91 1137.77,597.129 1140.22,600.434 1140.28,600.523 1142.6,603.917 1143.61,605.497 1144.76,607.312 1146.77,610.706 1147.01,611.149 1148.59,614.1 1150.29,617.495 1150.4,617.736 1151.81,620.889 1153.19,624.283 1153.8,625.941 1154.42,627.678 1155.48,631.072 1156.39,634.466 1157.16,637.861 1157.19,638.07 1157.73,641.255 1158.14,644.649 1158.38,648.044 1158.43,651.438 1158.29,654.832 1157.94,658.227 1157.37,661.621 1157.19,662.409 1156.54,665.016 1155.44,668.41 1154.05,671.804 1153.8,672.326 1152.28,675.199 1150.4,678.196 1150.13,678.593 1147.46,681.987 1147.01,682.489 1144.15,685.382 1143.61,685.863 1140.22,688.607 1139.99,688.776 1136.83,690.835 1134.48,692.17 1133.43,692.714 1130.04,694.251 1126.64,695.552 1126.6,695.565 1123.25,696.568 "/>
<polyline clip-path="url(#clip672)" style="stroke:#0000ff; stroke-linecap:round; stroke-linejoin:round; stroke-width:4; stroke-opacity:1; fill:none" points="1523.78,507.948 1520.39,508.274 1516.99,508.488 1513.6,508.584 1510.2,508.556 1506.81,508.4 1503.42,508.108 1500.02,507.674 1496.63,507.091 1493.23,506.35 1489.97,505.481 1489.84,505.443 1486.44,504.328 1483.05,503.023 1480.93,502.087 1479.66,501.496 1476.26,499.713 1474.53,498.692 1472.87,497.657 1469.47,495.298 1466.08,492.549 1465.35,491.904 1462.68,489.375 1461.84,488.509 1459.29,485.682 1458.81,485.115 1456.18,481.721 1455.89,481.327 1453.88,478.326 1452.5,476.08 1451.84,474.932 1450.05,471.538 1449.11,469.583 1448.45,468.143 1447.06,464.749 1445.81,461.355 1445.71,461.044 1444.75,457.96 1443.81,454.566 1443,451.172 1442.32,447.836 1442.31,447.777 1441.74,444.383 1441.28,440.989 1440.92,437.594 1440.65,434.2 1440.47,430.805 1440.37,427.411 1440.36,424.017 1440.43,420.622 1440.58,417.228 1440.8,413.834 1441.09,410.439 1441.45,407.045 1441.87,403.651 1442.32,400.547 1442.36,400.256 1442.92,396.862 1443.55,393.468 1444.23,390.073 1444.97,386.679 1445.71,383.503 1445.76,383.285 1446.63,379.89 1447.55,376.496 1448.52,373.102 1449.11,371.152 1449.55,369.707 1450.64,366.313 1451.77,362.919 1452.5,360.84 1452.97,359.524 1454.22,356.13 1455.52,352.735 1455.89,351.784 1456.88,349.341 1458.29,345.947 1459.29,343.609 1459.75,342.552 1461.27,339.158 1462.68,336.086 1462.83,335.764 1464.47,332.369 1466.08,329.095 1466.14,328.975 1467.88,325.581 1469.47,322.544 1469.66,322.186 1471.52,318.792 1472.87,316.362 1473.41,315.398 1475.37,312.003 1476.26,310.492 1477.39,308.609 1479.45,305.215 1479.66,304.888 1481.59,301.82 1483.05,299.548 1483.78,298.426 1486.03,295.032 1486.44,294.421 1488.35,291.637 1489.84,289.506 1490.73,288.243 1493.17,284.848 1493.23,284.762 1495.69,281.454 1496.63,280.213 1498.28,278.06 1500.02,275.814 1500.93,274.665 1503.42,271.559 1503.65,271.271 1506.46,267.877 1506.81,267.454 1509.35,264.482 1510.2,263.488 1512.32,261.088 1513.6,259.646 1515.37,257.694 1516.99,255.925 1518.51,254.299 1520.39,252.32 1521.75,250.905 1523.78,248.827 1525.09,247.511 1527.18,245.442 1528.54,244.116 1530.57,242.162 1532.1,240.722 1533.96,238.984 1535.78,237.328 1537.36,235.903 1539.59,233.933 1540.75,232.917 1543.54,230.539 1544.15,230.022 1547.54,227.219 1547.63,227.145 1550.94,224.515 1551.92,223.75 1554.33,221.897 1556.38,220.356 1557.73,219.361 1561.04,216.962 1561.12,216.904 1564.51,214.548 1565.97,213.567 1567.91,212.27 1571.13,210.173 1571.3,210.064 1574.7,207.959 1576.66,206.778 1578.09,205.925 1581.49,203.974 1582.55,203.384 1584.88,202.111 1588.27,200.32 1588.93,199.99 1591.67,198.624 1595.06,196.998 1595.95,196.595 1598.46,195.467 1601.85,194.013 1603.85,193.201 1605.25,192.643 1608.64,191.366 1612.03,190.164 1613.13,189.807 1615.43,189.061 1618.82,188.047 1622.22,187.118 1625.07,186.412 1625.61,186.281 1629.01,185.551 1632.4,184.916 1635.8,184.379 1639.19,183.946 1642.58,183.619 1645.98,183.406 1649.37,183.31 1652.77,183.337 1656.16,183.493 1659.56,183.785 1662.95,184.219 1666.34,184.803 1669.74,185.543 1673,186.412 1673.13,186.45 1676.53,187.565 1679.92,188.871 1682.04,189.807 1683.32,190.398 1686.71,192.18 1688.44,193.201 1690.1,194.237 1693.5,196.595 1693.5,196.595 1696.89,199.344 1697.62,199.99 1700.29,202.519 1701.13,203.384 1703.68,206.212 1704.16,206.778 1706.79,210.173 1707.08,210.567 1709.09,213.567 1710.47,215.814 1711.13,216.962 1712.93,220.356 1713.87,222.311 1714.52,223.75 1715.91,227.145 1717.16,230.539 1717.26,230.849 1718.22,233.933 1719.16,237.328 1719.97,240.722 1720.65,244.058 1720.67,244.116 1721.23,247.511 1721.69,250.905 1722.05,254.299 1722.32,257.694 1722.5,261.088 1722.6,264.482 1722.61,267.877 1722.54,271.271 1722.39,274.665 1722.17,278.06 1721.88,281.454 1721.52,284.848 1721.1,288.243 1720.65,291.347 1720.61,291.637 1720.05,295.032 1719.42,298.426 1718.74,301.82 1718,305.215 1717.26,308.39 1717.21,308.609 1716.34,312.003 1715.42,315.398 1714.45,318.792 1713.87,320.742 1713.42,322.186 1712.33,325.581 1711.2,328.975 1710.47,331.054 1710,332.369 1708.75,335.764 1707.45,339.158 1707.08,340.11 1706.09,342.552 1704.68,345.947 1703.68,348.284 1703.22,349.341 1701.7,352.735 1700.29,355.808 1700.14,356.13 1698.5,359.524 1696.89,362.799 1696.83,362.919 1695.09,366.313 1693.5,369.35 1693.31,369.707 1691.46,373.102 1690.1,375.532 1689.56,376.496 1687.6,379.89 1686.71,381.402 1685.58,383.285 1683.52,386.679 1683.32,387.006 1681.38,390.073 1679.92,392.345 1679.19,393.468 1676.94,396.862 1676.53,397.473 1674.62,400.256 1673.13,402.388 1672.24,403.651 1669.8,407.045 1669.74,407.131 1667.28,410.439 1666.34,411.681 1664.69,413.834 1662.95,416.08 1662.04,417.228 1659.56,420.335 1659.32,420.622 1656.52,424.017 1656.16,424.439 1653.63,427.411 1652.77,428.406 1650.66,430.805 1649.37,432.247 1647.6,434.2 1645.98,435.969 1644.46,437.594 1642.58,439.574 1641.22,440.989 1639.19,443.067 1637.88,444.383 1635.8,446.451 1634.43,447.777 1632.4,449.731 1630.87,451.172 1629.01,452.91 1627.19,454.566 1625.61,455.991 1623.38,457.96 1622.22,458.977 1619.43,461.355 1618.82,461.871 1615.43,464.675 1615.34,464.749 1612.03,467.378 1611.05,468.143 1608.64,469.996 1606.59,471.538 1605.25,472.533 1601.93,474.932 1601.85,474.989 1598.46,477.345 1597,478.326 1595.06,479.624 1591.84,481.721 1591.67,481.829 1588.27,483.935 1586.31,485.115 1584.88,485.968 1581.49,487.919 1580.42,488.509 1578.09,489.783 1574.7,491.573 1574.04,491.904 1571.3,493.27 1567.91,494.895 1567.02,495.298 1564.51,496.427 1561.12,497.881 1559.12,498.692 1557.73,499.251 1554.33,500.528 1550.94,501.729 1549.85,502.087 1547.54,502.833 1544.15,503.847 1540.75,504.776 1537.9,505.481 1537.36,505.613 1533.96,506.342 1530.57,506.978 1527.18,507.514 1523.78,507.948 "/>
<polyline clip-path="url(#clip672)" style="stroke:#0000ff; stroke-linecap:round; stroke-linejoin:round; stroke-width:4; stroke-opacity:1; fill:none" points="1038.39,506.35 1035,507.091 1031.6,507.674 1028.21,508.108 1024.81,508.4 1021.42,508.556 1018.02,508.584 1014.63,508.488 1011.24,508.274 1007.84,507.948 1004.45,507.514 1001.05,506.978 997.658,506.342 994.263,505.613 993.724,505.481 990.869,504.776 987.475,503.847 984.08,502.833 981.777,502.087 980.686,501.729 977.292,500.528 973.897,499.251 972.506,498.692 970.503,497.881 967.109,496.427 964.6,495.298 963.714,494.895 960.32,493.27 957.581,491.904 956.926,491.573 953.531,489.783 951.204,488.509 950.137,487.919 946.743,485.968 945.31,485.115 943.348,483.935 939.954,481.829 939.785,481.721 936.559,479.624 934.618,478.326 933.165,477.345 929.771,474.989 929.691,474.932 926.376,472.533 925.036,471.538 922.982,469.996 920.572,468.143 919.588,467.378 916.285,464.749 916.193,464.675 912.799,461.871 912.188,461.355 909.405,458.977 908.241,457.96 906.01,455.991 904.431,454.566 902.616,452.91 900.75,451.172 899.222,449.731 897.19,447.777 895.827,446.451 893.744,444.383 892.433,443.067 890.404,440.989 889.039,439.574 887.165,437.594 885.644,435.969 884.021,434.2 882.25,432.247 880.966,430.805 878.856,428.406 877.997,427.411 875.461,424.439 875.107,424.017 872.301,420.622 872.067,420.335 869.58,417.228 868.672,416.08 866.928,413.834 865.278,411.681 864.343,410.439 861.884,407.131 861.821,407.045 859.384,403.651 858.489,402.388 857.006,400.256 855.095,397.473 854.683,396.862 852.433,393.468 851.701,392.345 850.244,390.073 848.306,387.006 848.103,386.679 846.038,383.285 844.912,381.402 844.022,379.89 842.063,376.496 841.518,375.532 840.167,373.102 838.314,369.707 838.123,369.35 836.534,366.313 834.789,362.919 834.729,362.799 833.12,359.524 831.485,356.13 831.335,355.808 829.923,352.735 828.4,349.341 827.94,348.284 826.94,345.947 825.53,342.552 824.546,340.11 824.169,339.158 822.873,335.764 821.618,332.369 821.152,331.054 820.426,328.975 819.29,325.581 818.199,322.186 817.757,320.742 817.171,318.792 816.202,315.398 815.283,312.003 814.415,308.609 814.363,308.39 813.621,305.215 812.883,301.82 812.2,298.426 811.576,295.032 811.011,291.637 810.969,291.347 810.522,288.243 810.098,284.848 809.739,281.454 809.449,278.06 809.23,274.665 809.084,271.271 809.014,267.877 809.025,264.482 809.118,261.088 809.298,257.694 809.568,254.299 809.931,250.905 810.393,247.511 810.957,244.116 810.969,244.058 811.652,240.722 812.464,237.328 813.399,233.933 814.363,230.849 814.465,230.539 815.711,227.145 817.106,223.75 817.757,222.311 818.697,220.356 820.491,216.962 821.152,215.814 822.533,213.567 824.546,210.567 824.829,210.173 827.466,206.778 827.94,206.212 830.495,203.384 831.335,202.519 834.002,199.99 834.729,199.344 838.123,196.595 838.123,196.595 841.518,194.237 843.178,193.201 844.912,192.18 848.306,190.398 849.578,189.807 851.701,188.871 855.095,187.565 858.489,186.45 858.625,186.412 861.884,185.543 865.278,184.803 868.672,184.219 872.067,183.785 875.461,183.493 878.856,183.337 882.25,183.31 885.644,183.406 889.039,183.619 892.433,183.946 895.827,184.379 899.222,184.916 902.616,185.551 906.01,186.281 906.55,186.412 909.405,187.118 912.799,188.047 916.193,189.061 918.496,189.807 919.588,190.164 922.982,191.366 926.376,192.643 927.768,193.201 929.771,194.013 933.165,195.467 935.673,196.595 936.559,196.998 939.954,198.624 942.693,199.99 943.348,200.32 946.743,202.111 949.069,203.384 950.137,203.974 953.531,205.925 954.964,206.778 956.926,207.959 960.32,210.064 960.488,210.173 963.714,212.27 965.656,213.567 967.109,214.548 970.503,216.904 970.583,216.962 973.897,219.361 975.238,220.356 977.292,221.897 979.702,223.75 980.686,224.515 983.988,227.145 984.08,227.219 987.475,230.022 988.086,230.539 990.869,232.917 992.033,233.933 994.263,235.903 995.842,237.328 997.658,238.984 999.523,240.722 1001.05,242.162 1003.08,244.116 1004.45,245.442 1006.53,247.511 1007.84,248.827 1009.87,250.905 1011.24,252.32 1013.11,254.299 1014.63,255.925 1016.25,257.694 1018.02,259.646 1019.31,261.088 1021.42,263.488 1022.28,264.482 1024.81,267.454 1025.17,267.877 1027.97,271.271 1028.21,271.559 1030.69,274.665 1031.6,275.814 1033.35,278.06 1035,280.213 1035.93,281.454 1038.39,284.762 1038.45,284.848 1040.89,288.243 1041.78,289.506 1043.27,291.637 1045.18,294.421 1045.59,295.032 1047.84,298.426 1048.57,299.548 1050.03,301.82 1051.97,304.888 1052.17,305.215 1054.24,308.609 1055.36,310.492 1056.25,312.003 1058.21,315.398 1058.76,316.362 1060.11,318.792 1061.96,322.186 1062.15,322.544 1063.74,325.581 1065.48,328.975 1065.54,329.095 1067.15,332.369 1068.79,335.764 1068.94,336.086 1070.35,339.158 1071.87,342.552 1072.33,343.609 1073.33,345.947 1074.74,349.341 1075.73,351.784 1076.11,352.735 1077.4,356.13 1078.66,359.524 1079.12,360.84 1079.85,362.919 1080.98,366.313 1082.07,369.707 1082.52,371.152 1083.1,373.102 1084.07,376.496 1084.99,379.89 1085.86,383.285 1085.91,383.503 1086.65,386.679 1087.39,390.073 1088.07,393.468 1088.7,396.862 1089.26,400.256 1089.31,400.547 1089.75,403.651 1090.18,407.045 1090.53,410.439 1090.82,413.834 1091.04,417.228 1091.19,420.622 1091.26,424.017 1091.25,427.411 1091.16,430.805 1090.98,434.2 1090.71,437.594 1090.34,440.989 1089.88,444.383 1089.32,447.777 1089.31,447.836 1088.62,451.172 1087.81,454.566 1086.87,457.96 1085.91,461.044 1085.81,461.355 1084.56,464.749 1083.17,468.143 1082.52,469.583 1081.58,471.538 1079.78,474.932 1079.12,476.08 1077.74,478.326 1075.73,481.327 1075.44,481.721 1072.81,485.115 1072.33,485.682 1069.78,488.509 1068.94,489.375 1066.27,491.904 1065.54,492.549 1062.15,495.298 1058.76,497.657 1057.1,498.692 1055.36,499.713 1051.97,501.496 1050.7,502.087 1048.57,503.023 1045.18,504.328 1041.78,505.443 1041.65,505.481 1038.39,506.35 "/>
<circle clip-path="url(#clip672)" cx="1265.81" cy="879.991" r="14.4" fill="#000000" fill-rule="evenodd" fill-opacity="1" stroke="none"/>
<circle clip-path="url(#clip672)" cx="1376.21" cy="630.788" r="14.4" fill="#000000" fill-rule="evenodd" fill-opacity="1" stroke="none"/>
<circle clip-path="url(#clip672)" cx="1155.41" cy="630.788" r="14.4" fill="#000000" fill-rule="evenodd" fill-opacity="1" stroke="none"/>
<circle clip-path="url(#clip672)" cx="1447.14" cy="377.935" r="14.4" fill="#000000" fill-rule="evenodd" fill-opacity="1" stroke="none"/>
<circle clip-path="url(#clip672)" cx="1084.48" cy="377.935" r="14.4" fill="#000000" fill-rule="evenodd" fill-opacity="1" stroke="none"/>
<polyline clip-path="url(#clip672)" style="stroke:#ff0000; stroke-linecap:round; stroke-linejoin:round; stroke-width:4; stroke-opacity:1; fill:none" points="1215.11,1445.72 1216.54,1442.32 1217.95,1438.93 1218.29,1438.11 1219.43,1435.53 1220.92,1432.14 1221.68,1430.36 1222.44,1428.74 1224.01,1425.35 1225.08,1423.01 1225.6,1421.96 1227.27,1418.56 1228.47,1416.07 1228.95,1415.17 1230.74,1411.77 1231.87,1409.59 1232.56,1408.38 1234.49,1404.98 1235.26,1403.6 1236.52,1401.59 1238.61,1398.19 1238.66,1398.13 1240.96,1394.8 1242.05,1393.2 1243.46,1391.41 1245.45,1388.85 1246.22,1388.01 1248.84,1385.12 1249.4,1384.62 1252.23,1382.02 1253.36,1381.22 1255.63,1379.59 1259.02,1377.84 1259.06,1377.83 1262.42,1376.78 1265.81,1376.42 1269.21,1376.78 1272.56,1377.83 1272.6,1377.84 1275.99,1379.59 1278.26,1381.22 1279.39,1382.02 1282.23,1384.62 1282.78,1385.12 1285.41,1388.01 1286.18,1388.85 1288.16,1391.41 1289.57,1393.2 1290.67,1394.8 1292.97,1398.13 1293.01,1398.19 1295.1,1401.59 1296.36,1403.6 1297.14,1404.98 1299.06,1408.38 1299.75,1409.59 1300.89,1411.77 1302.67,1415.17 1303.15,1416.07 1304.36,1418.56 1306.02,1421.96 1306.54,1423.01 1307.61,1425.35 1309.18,1428.74 1309.94,1430.36 1310.71,1432.14 1312.19,1435.53 1313.33,1438.11 1313.67,1438.93 1315.08,1442.32 1316.51,1445.72 "/>
<polyline clip-path="url(#clip672)" style="stroke:#ff0000; stroke-linecap:round; stroke-linejoin:round; stroke-width:4; stroke-opacity:1; fill:none" points="1524.53,87.9763 1523.78,90.8127 1523.63,91.3706 1522.73,94.765 1521.84,98.1593 1520.94,101.554 1520.39,103.677 1520.05,104.948 1519.15,108.342 1518.25,111.737 1517.36,115.131 1516.99,116.53 1516.46,118.525 1515.56,121.92 1514.67,125.314 1513.77,128.708 1513.6,129.373 1512.87,132.103 1511.97,135.497 1511.08,138.892 1510.2,142.205 1510.18,142.286 1509.28,145.68 1508.38,149.075 1507.48,152.469 1506.81,155.026 1506.59,155.863 1505.68,159.258 1504.78,162.652 1503.89,166.046 1503.42,167.836 1502.99,169.441 1502.08,172.835 1501.18,176.229 1500.29,179.624 1500.02,180.633 1499.38,183.018 1498.48,186.412 1497.58,189.807 1496.68,193.201 1496.63,193.416 1495.78,196.595 1494.87,199.99 1493.97,203.384 1493.23,206.188 1493.07,206.778 1492.17,210.173 1491.26,213.567 1490.36,216.962 1489.84,218.945 1489.46,220.356 1488.55,223.75 1487.65,227.145 1486.75,230.539 1486.44,231.688 1485.84,233.933 1484.93,237.328 1484.03,240.722 1483.13,244.116 1483.05,244.415 1482.22,247.511 1481.31,250.905 1480.41,254.299 1479.66,257.127 1479.5,257.694 1478.59,261.088 1477.68,264.482 1476.78,267.877 1476.26,269.824 1475.87,271.271 1474.96,274.665 1474.05,278.06 1473.14,281.454 1472.87,282.502 1472.23,284.848 1471.32,288.243 1470.41,291.637 1469.51,295.032 1469.47,295.162 1468.59,298.426 1467.68,301.82 1466.77,305.215 1466.08,307.805 1465.86,308.609 1464.94,312.003 1464.03,315.398 1463.12,318.792 1462.68,320.428 1462.21,322.186 1461.29,325.581 1460.37,328.975 1459.47,332.369 1459.29,333.029 1458.55,335.764 1457.63,339.158 1456.71,342.552 1455.89,345.609 1455.8,345.947 1454.88,349.341 1453.96,352.735 1453.05,356.13 1452.5,358.167 1452.13,359.524 1451.21,362.919 1450.29,366.313 1449.37,369.707 1449.11,370.701 1448.45,373.102 1447.53,376.496 1446.61,379.89 1445.71,383.209 1445.69,383.285 1444.76,386.679 1443.84,390.073 1442.92,393.468 1442.32,395.693 1442,396.862 1441.07,400.256 1440.14,403.651 1439.22,407.045 1438.92,408.149 1438.29,410.439 1437.36,413.834 1436.44,417.228 1435.53,420.573 1435.52,420.622 1434.58,424.017 1433.65,427.411 1432.72,430.805 1432.13,432.971 1431.79,434.2 1430.86,437.594 1429.93,440.989 1429,444.383 1428.74,445.335 1428.06,447.777 1427.12,451.172 1426.19,454.566 1425.35,457.663 1425.26,457.96 1424.32,461.355 1423.38,464.749 1422.45,468.143 1421.95,469.958 1421.51,471.538 1420.57,474.932 1419.63,478.326 1418.69,481.721 1418.56,482.213 1417.74,485.115 1416.8,488.509 1415.86,491.904 1415.16,494.429 1414.92,495.298 1413.97,498.692 1413.02,502.087 1412.08,505.481 1411.77,506.603 1411.13,508.875 1410.17,512.27 1409.23,515.664 1408.37,518.729 1408.28,519.059 1407.32,522.453 1406.37,525.847 1405.42,529.242 1404.98,530.811 1404.46,532.636 1403.5,536.03 1402.54,539.425 1401.59,542.819 1401.59,542.838 1400.62,546.213 1399.66,549.608 1398.7,553.002 1398.19,554.816 1397.74,556.396 1396.76,559.791 1395.8,563.185 1394.84,566.579 1394.8,566.732 1393.86,569.974 1392.89,573.368 1391.92,576.762 1391.4,578.591 1390.95,580.157 1389.96,583.551 1388.99,586.946 1388.02,590.34 1388.01,590.38 1387.03,593.734 1386.04,597.129 1385.07,600.523 1384.61,602.105 1384.08,603.917 1383.09,607.312 1382.1,610.706 1381.22,613.751 1381.12,614.1 1380.11,617.495 1379.12,620.889 1378.13,624.283 1377.82,625.32 1377.12,627.678 1376.11,631.072 1375.11,634.466 1374.43,636.803 1374.11,637.861 1373.09,641.255 1372.08,644.649 1371.08,648.044 1371.04,648.193 1370.05,651.438 1369.03,654.832 1368.02,658.227 1367.64,659.489 1366.99,661.621 1365.95,665.016 1364.93,668.41 1364.25,670.678 1363.9,671.804 1362.85,675.199 1361.81,678.593 1360.85,681.751 1360.78,681.987 1359.72,685.382 1358.67,688.776 1357.62,692.17 1357.46,692.706 1356.55,695.565 1355.49,698.959 1354.43,702.353 1354.06,703.53 1353.35,705.748 1352.27,709.142 1351.2,712.536 1350.67,714.212 1350.11,715.931 1349.01,719.325 1347.92,722.719 1347.28,724.741 1346.82,726.114 1345.7,729.508 1344.59,732.902 1343.88,735.105 1343.48,736.297 1342.34,739.691 1341.21,743.086 1340.49,745.291 1340.08,746.48 1338.92,749.874 1337.77,753.269 1337.09,755.284 1336.61,756.663 1335.42,760.057 1334.25,763.452 1333.7,765.069 1333.06,766.846 1331.85,770.24 1330.65,773.635 1330.3,774.626 1329.42,777.029 1328.18,780.423 1326.95,783.818 1326.91,783.936 1325.67,787.212 1324.4,790.606 1323.52,792.987 1323.12,794.001 1321.79,797.395 1320.49,800.789 1320.12,801.747 1319.13,804.184 1317.77,807.578 1316.73,810.196 1316.4,810.973 1314.97,814.367 1313.56,817.761 1313.33,818.308 1312.07,821.156 1310.59,824.55 1309.94,826.059 1309.06,827.944 1307.49,831.339 1306.54,833.415 1305.89,834.733 1304.23,838.127 1303.15,840.348 1302.53,841.522 1300.75,844.916 1299.75,846.829 1298.91,848.31 1296.99,851.705 1296.36,852.823 1294.94,855.099 1292.97,858.295 1292.83,858.493 1290.48,861.888 1289.57,863.225 1287.95,865.282 1286.18,867.569 1285.16,868.676 1282.78,871.301 1281.93,872.071 1279.39,874.398 1277.89,875.465 1275.99,876.832 1272.6,878.581 1271.7,878.859 1269.21,879.641 1265.81,879.996 1262.42,879.641 1259.92,878.859 1259.02,878.581 1255.63,876.832 1253.73,875.465 1252.23,874.398 1249.69,872.071 1248.84,871.301 1246.46,868.676 1245.45,867.569 1243.67,865.282 1242.05,863.225 1241.14,861.888 1238.8,858.493 1238.66,858.295 1236.68,855.099 1235.26,852.823 1234.64,851.705 1232.72,848.31 1231.87,846.829 1230.88,844.916 1229.1,841.522 1228.47,840.348 1227.4,838.127 1225.73,834.733 1225.08,833.415 1224.13,831.339 1222.57,827.944 1221.68,826.059 1221.03,824.55 1219.55,821.156 1218.29,818.308 1218.07,817.761 1216.65,814.367 1215.23,810.973 1214.9,810.196 1213.86,807.578 1212.49,804.184 1211.5,801.747 1211.14,800.789 1209.83,797.395 1208.51,794.001 1208.11,792.987 1207.22,790.606 1205.95,787.212 1204.71,783.936 1204.67,783.818 1203.44,780.423 1202.2,777.029 1201.32,774.626 1200.97,773.635 1199.77,770.24 1198.56,766.846 1197.92,765.069 1197.37,763.452 1196.2,760.057 1195.02,756.663 1194.53,755.284 1193.85,753.269 1192.7,749.874 1191.55,746.48 1191.14,745.291 1190.41,743.086 1189.28,739.691 1188.14,736.297 1187.74,735.105 1187.03,732.902 1185.92,729.508 1184.8,726.114 1184.35,724.741 1183.7,722.719 1182.61,719.325 1181.51,715.931 1180.95,714.212 1180.43,712.536 1179.35,709.142 1178.27,705.748 1177.56,703.53 1177.19,702.353 1176.14,698.959 1175.07,695.565 1174.16,692.706 1174,692.17 1172.96,688.776 1171.9,685.382 1170.84,681.987 1170.77,681.751 1169.81,678.593 1168.77,675.199 1167.73,671.804 1167.38,670.678 1166.69,668.41 1165.67,665.016 1164.63,661.621 1163.98,659.489 1163.61,658.227 1162.59,654.832 1161.57,651.438 1160.59,648.193 1160.54,648.044 1159.54,644.649 1158.53,641.255 1157.51,637.861 1157.19,636.803 1156.51,634.466 1155.51,631.072 1154.5,627.678 1153.8,625.32 1153.5,624.283 1152.51,620.889 1151.51,617.495 1150.51,614.1 1150.4,613.751 1149.52,610.706 1148.54,607.312 1147.54,603.917 1147.01,602.105 1146.56,600.523 1145.58,597.129 1144.59,593.734 1143.61,590.38 1143.6,590.34 1142.63,586.946 1141.66,583.551 1140.68,580.157 1140.22,578.591 1139.7,576.762 1138.73,573.368 1137.76,569.974 1136.83,566.732 1136.78,566.579 1135.82,563.185 1134.86,559.791 1133.89,556.396 1133.43,554.816 1132.92,553.002 1131.96,549.608 1131,546.213 1130.04,542.838 1130.03,542.819 1129.08,539.425 1128.12,536.03 1127.16,532.636 1126.64,530.811 1126.21,529.242 1125.26,525.847 1124.3,522.453 1123.34,519.059 1123.25,518.729 1122.4,515.664 1121.45,512.27 1120.5,508.875 1119.85,506.603 1119.54,505.481 1118.6,502.087 1117.66,498.692 1116.7,495.298 1116.46,494.429 1115.76,491.904 1114.82,488.509 1113.88,485.115 1113.07,482.213 1112.93,481.721 1112,478.326 1111.06,474.932 1110.11,471.538 1109.67,469.958 1109.17,468.143 1108.24,464.749 1107.3,461.355 1106.36,457.96 1106.28,457.663 1105.43,454.566 1104.5,451.172 1103.56,447.777 1102.88,445.335 1102.62,444.383 1101.7,440.989 1100.77,437.594 1099.83,434.2 1099.49,432.971 1098.9,430.805 1097.97,427.411 1097.04,424.017 1096.11,420.622 1096.09,420.573 1095.19,417.228 1094.26,413.834 1093.33,410.439 1092.7,408.149 1092.4,407.045 1091.48,403.651 1090.56,400.256 1089.63,396.862 1089.31,395.693 1088.7,393.468 1087.78,390.073 1086.86,386.679 1085.93,383.285 1085.91,383.209 1085.02,379.89 1084.1,376.496 1083.17,373.102 1082.52,370.701 1082.25,369.707 1081.33,366.313 1080.42,362.919 1079.49,359.524 1079.12,358.167 1078.58,356.13 1077.66,352.735 1076.74,349.341 1075.82,345.947 1075.73,345.609 1074.91,342.552 1073.99,339.158 1073.08,335.764 1072.33,333.029 1072.16,332.369 1071.25,328.975 1070.33,325.581 1069.42,322.186 1068.94,320.428 1068.5,318.792 1067.59,315.398 1066.68,312.003 1065.76,308.609 1065.54,307.805 1064.85,305.215 1063.94,301.82 1063.03,298.426 1062.15,295.162 1062.12,295.032 1061.21,291.637 1060.3,288.243 1059.39,284.848 1058.76,282.502 1058.48,281.454 1057.57,278.06 1056.66,274.665 1055.75,271.271 1055.36,269.824 1054.84,267.877 1053.94,264.482 1053.03,261.088 1052.12,257.694 1051.97,257.127 1051.22,254.299 1050.31,250.905 1049.4,247.511 1048.57,244.415 1048.49,244.116 1047.59,240.722 1046.69,237.328 1045.78,233.933 1045.18,231.688 1044.87,230.539 1043.97,227.145 1043.07,223.75 1042.16,220.356 1041.78,218.945 1041.26,216.962 1040.36,213.567 1039.46,210.173 1038.55,206.778 1038.39,206.188 1037.65,203.384 1036.75,199.99 1035.85,196.595 1035,193.416 1034.94,193.201 1034.04,189.807 1033.14,186.412 1032.24,183.018 1031.6,180.633 1031.34,179.624 1030.44,176.229 1029.54,172.835 1028.64,169.441 1028.21,167.836 1027.74,166.046 1026.84,162.652 1025.94,159.258 1025.04,155.863 1024.81,155.026 1024.14,152.469 1023.24,149.075 1022.34,145.68 1021.44,142.286 1021.42,142.205 1020.55,138.892 1019.65,135.497 1018.75,132.103 1018.02,129.373 1017.85,128.708 1016.96,125.314 1016.06,121.92 1015.16,118.525 1014.63,116.53 1014.26,115.131 1013.37,111.737 1012.47,108.342 1011.57,104.948 1011.24,103.677 1010.68,101.554 1009.78,98.1593 1008.89,94.765 1007.99,91.3706 1007.84,90.8127 1007.1,87.9763 "/>
<path clip-path="url(#clip670)" d="M491.759 1412.83 Q492.18 1413.25 492.18 1413.85 Q492.18 1414.45 491.759 1414.87 Q491.337 1415.29 490.74 1415.29 L445.698 1415.29 Q445.101 1415.29 444.679 1414.87 Q444.258 1414.45 444.258 1413.85 Q444.258 1413.25 444.679 1412.83 Q445.101 1412.41 445.698 1412.41 L490.74 1412.41 Q491.337 1412.41 491.759 1412.83 Z" fill="#000000" fill-rule="nonzero" fill-opacity="1" /><path clip-path="url(#clip670)" d="M499.691 1408.83 Q499.691 1398.25 502.361 1392.49 Q506.085 1383.92 514.868 1383.92 Q516.73 1383.92 518.663 1384.44 Q520.63 1384.94 523.09 1386.87 Q525.584 1388.8 527.095 1391.96 Q529.976 1398.08 529.976 1408.83 Q529.976 1419.33 527.306 1425.06 Q523.406 1433.42 514.798 1433.42 Q511.566 1433.42 508.263 1431.77 Q504.996 1430.12 502.923 1426.15 Q499.691 1420.21 499.691 1408.83 M505.663 1407.95 Q505.663 1418.8 506.436 1423.13 Q507.315 1427.8 509.704 1429.84 Q512.128 1431.84 514.798 1431.84 Q517.679 1431.84 520.068 1429.7 Q522.492 1427.52 523.23 1422.85 Q524.038 1418.24 524.003 1407.95 Q524.003 1397.94 523.3 1393.93 Q522.352 1389.26 519.822 1387.4 Q517.328 1385.5 514.798 1385.5 Q513.849 1385.5 512.83 1385.78 Q511.847 1386.06 510.406 1386.87 Q508.966 1387.68 507.842 1389.68 Q506.752 1391.68 506.225 1394.7 Q505.663 1398.6 505.663 1407.95 Z" fill="#000000" fill-rule="nonzero" fill-opacity="1" /><path clip-path="url(#clip670)" d="M536.412 1430.68 Q535.323 1429.52 535.323 1428.01 Q535.323 1426.5 536.412 1425.41 Q537.502 1424.29 539.153 1424.29 Q540.734 1424.29 541.788 1425.34 Q542.877 1426.36 542.877 1428.05 Q542.877 1429.7 541.718 1430.79 Q540.593 1431.84 539.153 1431.84 Q537.502 1431.84 536.412 1430.68 Z" fill="#000000" fill-rule="nonzero" fill-opacity="1" /><path clip-path="url(#clip670)" d="M555.123 1431.84 Q555.123 1430.54 555.229 1430.15 Q555.369 1429.77 555.931 1429.17 L569.739 1413.78 Q577.293 1405.28 577.293 1397.87 Q577.293 1393.05 574.763 1389.61 Q572.268 1386.17 567.666 1386.17 Q564.504 1386.17 561.834 1388.1 Q559.164 1390.03 557.934 1393.47 Q558.145 1393.4 558.882 1393.4 Q560.674 1393.4 561.658 1394.53 Q562.677 1395.65 562.677 1397.16 Q562.677 1399.09 561.412 1400.04 Q560.182 1400.96 558.953 1400.96 Q558.461 1400.96 557.793 1400.85 Q557.161 1400.75 556.142 1399.76 Q555.123 1398.74 555.123 1396.95 Q555.123 1391.93 558.918 1387.92 Q562.747 1383.92 568.579 1383.92 Q575.185 1383.92 579.506 1387.85 Q583.863 1391.75 583.863 1397.87 Q583.863 1400.01 583.195 1401.98 Q582.563 1403.91 581.684 1405.42 Q580.841 1406.93 578.522 1409.35 Q576.203 1411.78 574.341 1413.5 Q572.479 1415.22 568.298 1418.88 L560.674 1426.29 L573.639 1426.29 Q579.963 1426.29 580.455 1425.73 Q581.157 1424.71 582.036 1419.33 L583.863 1419.33 L581.825 1431.84 L555.123 1431.84 Z" fill="#000000" fill-rule="nonzero" fill-opacity="1" /><path clip-path="url(#clip670)" d="M591.044 1420.25 Q591.044 1418.1 592.203 1417.29 Q593.363 1416.45 594.592 1416.45 Q596.244 1416.45 597.192 1417.51 Q598.176 1418.52 598.176 1419.96 Q598.176 1421.4 597.192 1422.46 Q596.244 1423.48 594.592 1423.48 Q593.784 1423.48 593.363 1423.34 Q594.311 1426.64 597.192 1429.03 Q600.108 1431.42 603.938 1431.42 Q608.751 1431.42 611.632 1426.75 Q613.354 1423.72 613.354 1416.87 Q613.354 1410.83 612.054 1407.81 Q610.051 1403.21 605.941 1403.21 Q600.108 1403.21 596.665 1408.23 Q596.244 1408.86 595.752 1408.9 Q595.049 1408.9 594.874 1408.51 Q594.733 1408.09 594.733 1407 L594.733 1385.71 Q594.733 1383.99 595.436 1383.99 Q595.717 1383.99 596.314 1384.2 Q600.846 1386.2 605.87 1386.24 Q611.035 1386.24 615.673 1384.13 Q616.024 1383.92 616.235 1383.92 Q616.938 1383.92 616.973 1384.73 Q616.973 1385.01 616.375 1385.85 Q615.813 1386.66 614.584 1387.75 Q613.354 1388.8 611.773 1389.82 Q610.192 1390.84 607.873 1391.54 Q605.589 1392.21 603.06 1392.21 Q600.038 1392.21 596.946 1391.26 L596.946 1405.28 Q600.671 1401.62 606.081 1401.62 Q611.843 1401.62 615.813 1406.26 Q619.783 1410.9 619.783 1417.36 Q619.783 1424.15 615.075 1428.78 Q610.403 1433.42 604.079 1433.42 Q598.317 1433.42 594.663 1429.31 Q591.044 1425.2 591.044 1420.25 Z" fill="#000000" fill-rule="nonzero" fill-opacity="1" /><path clip-path="url(#clip670)" d="M626.965 1420.25 Q626.965 1418.1 628.124 1417.29 Q629.284 1416.45 630.513 1416.45 Q632.165 1416.45 633.113 1417.51 Q634.097 1418.52 634.097 1419.96 Q634.097 1421.4 633.113 1422.46 Q632.165 1423.48 630.513 1423.48 Q629.705 1423.48 629.284 1423.34 Q630.232 1426.64 633.113 1429.03 Q636.029 1431.42 639.859 1431.42 Q644.672 1431.42 647.553 1426.75 Q649.275 1423.72 649.275 1416.87 Q649.275 1410.83 647.975 1407.81 Q645.972 1403.21 641.861 1403.21 Q636.029 1403.21 632.586 1408.23 Q632.165 1408.86 631.673 1408.9 Q630.97 1408.9 630.794 1408.51 Q630.654 1408.09 630.654 1407 L630.654 1385.71 Q630.654 1383.99 631.357 1383.99 Q631.638 1383.99 632.235 1384.2 Q636.767 1386.2 641.791 1386.24 Q646.956 1386.24 651.594 1384.13 Q651.945 1383.92 652.156 1383.92 Q652.858 1383.92 652.893 1384.73 Q652.893 1385.01 652.296 1385.85 Q651.734 1386.66 650.504 1387.75 Q649.275 1388.8 647.694 1389.82 Q646.113 1390.84 643.794 1391.54 Q641.51 1392.21 638.981 1392.21 Q635.959 1392.21 632.867 1391.26 L632.867 1405.28 Q636.591 1401.62 642.002 1401.62 Q647.764 1401.62 651.734 1406.26 Q655.704 1410.9 655.704 1417.36 Q655.704 1424.15 650.996 1428.78 Q646.323 1433.42 639.999 1433.42 Q634.237 1433.42 630.584 1429.31 Q626.965 1425.2 626.965 1420.25 Z" fill="#000000" fill-rule="nonzero" fill-opacity="1" /><path clip-path="url(#clip670)" d="M698.434 1404.79 Q698.434 1406.75 697.204 1407.88 Q695.975 1408.97 694.569 1408.97 Q693.234 1408.97 692.532 1408.19 Q691.829 1407.42 691.829 1406.44 Q691.829 1405.1 692.813 1403.94 Q693.796 1402.78 695.272 1402.54 Q693.831 1401.62 691.688 1401.62 Q690.283 1401.62 689.053 1402.36 Q687.859 1403.1 687.121 1404.05 Q686.418 1405 685.786 1406.37 Q685.189 1407.7 684.943 1408.51 Q684.732 1409.28 684.556 1410.13 L682.097 1419.96 Q680.902 1424.64 680.902 1426.29 Q680.902 1428.33 681.886 1429.7 Q682.87 1431.03 684.837 1431.03 Q685.61 1431.03 686.489 1430.82 Q687.367 1430.57 688.491 1429.94 Q689.651 1429.27 690.669 1428.29 Q691.723 1427.27 692.742 1425.55 Q693.761 1423.83 694.429 1421.62 Q694.64 1420.84 695.342 1420.84 Q696.221 1420.84 696.221 1421.55 Q696.221 1422.14 695.729 1423.41 Q695.272 1424.64 694.253 1426.25 Q693.269 1427.83 691.969 1429.27 Q690.669 1430.68 688.737 1431.66 Q686.805 1432.65 684.697 1432.65 Q681.675 1432.65 679.673 1431.03 Q677.67 1429.42 676.932 1427.17 Q676.756 1427.48 676.511 1427.9 Q676.265 1428.33 675.527 1429.27 Q674.824 1430.19 674.016 1430.89 Q673.208 1431.56 671.943 1432.09 Q670.714 1432.65 669.378 1432.65 Q667.692 1432.65 666.181 1432.16 Q664.706 1431.66 663.652 1430.54 Q662.598 1429.42 662.598 1427.87 Q662.598 1426.15 663.757 1424.95 Q664.952 1423.72 666.568 1423.72 Q667.587 1423.72 668.395 1424.32 Q669.238 1424.92 669.238 1426.22 Q669.238 1427.66 668.254 1428.75 Q667.27 1429.84 665.865 1430.12 Q667.306 1431.03 669.449 1431.03 Q671.768 1431.03 673.594 1428.99 Q675.421 1426.96 676.3 1423.55 Q678.478 1415.36 679.321 1411.71 Q680.164 1408.02 680.164 1406.44 Q680.164 1404.96 679.778 1403.94 Q679.392 1402.92 678.724 1402.47 Q678.092 1401.98 677.494 1401.8 Q676.932 1401.62 676.3 1401.62 Q675.246 1401.62 674.051 1402.05 Q672.892 1402.47 671.486 1403.45 Q670.116 1404.4 668.816 1406.37 Q667.516 1408.34 666.638 1411.04 Q666.462 1411.85 665.689 1411.85 Q664.846 1411.81 664.846 1411.11 Q664.846 1410.51 665.303 1409.28 Q665.795 1408.02 666.779 1406.44 Q667.797 1404.86 669.097 1403.45 Q670.432 1402.01 672.365 1401.03 Q674.332 1400.04 676.44 1400.04 Q677.389 1400.04 678.302 1400.25 Q679.251 1400.43 680.375 1400.96 Q681.535 1401.48 682.554 1402.64 Q683.572 1403.8 684.205 1405.49 Q684.626 1404.68 685.189 1403.91 Q685.786 1403.14 686.699 1402.19 Q687.648 1401.2 688.948 1400.64 Q690.283 1400.04 691.759 1400.04 Q693.199 1400.04 694.604 1400.43 Q696.01 1400.78 697.204 1401.94 Q698.434 1403.07 698.434 1404.79 Z" fill="#000000" fill-rule="nonzero" fill-opacity="1" /><path clip-path="url(#clip670)" d="M705.762 1410.32 Q705.762 1409.41 705.836 1409.14 Q705.934 1408.87 706.328 1408.45 L715.993 1397.68 Q721.281 1391.73 721.281 1386.54 Q721.281 1383.17 719.51 1380.76 Q717.764 1378.35 714.542 1378.35 Q712.328 1378.35 710.459 1379.7 Q708.59 1381.06 707.729 1383.47 Q707.877 1383.42 708.394 1383.42 Q709.648 1383.42 710.336 1384.21 Q711.05 1384.99 711.05 1386.05 Q711.05 1387.4 710.164 1388.07 Q709.303 1388.71 708.443 1388.71 Q708.098 1388.71 707.631 1388.63 Q707.188 1388.56 706.475 1387.87 Q705.762 1387.16 705.762 1385.9 Q705.762 1382.39 708.418 1379.58 Q711.099 1376.78 715.181 1376.78 Q719.805 1376.78 722.83 1379.53 Q725.88 1382.26 725.88 1386.54 Q725.88 1388.04 725.412 1389.42 Q724.97 1390.77 724.355 1391.83 Q723.764 1392.89 722.141 1394.58 Q720.518 1396.28 719.215 1397.49 Q717.911 1398.69 714.985 1401.25 L709.648 1406.44 L718.723 1406.44 Q723.15 1406.44 723.494 1406.04 Q723.986 1405.33 724.601 1401.57 L725.88 1401.57 L724.453 1410.32 L705.762 1410.32 Z" fill="#000000" fill-rule="nonzero" fill-opacity="1" /><path clip-path="url(#clip670)" d="M800.822 1412.83 Q801.243 1413.25 801.243 1413.85 Q801.243 1414.45 800.822 1414.87 Q800.4 1415.29 799.803 1415.29 L754.761 1415.29 Q754.164 1415.29 753.742 1414.87 Q753.321 1414.45 753.321 1413.85 Q753.321 1413.25 753.742 1412.83 Q754.164 1412.41 754.761 1412.41 L799.803 1412.41 Q800.4 1412.41 800.822 1412.83 Z" fill="#000000" fill-rule="nonzero" fill-opacity="1" /><path clip-path="url(#clip670)" d="M828.715 1408.83 Q828.715 1398.25 831.385 1392.49 Q835.109 1383.92 843.893 1383.92 Q845.755 1383.92 847.687 1384.44 Q849.655 1384.94 852.114 1386.87 Q854.609 1388.8 856.119 1391.96 Q859 1398.08 859 1408.83 Q859 1419.33 856.33 1425.06 Q852.43 1433.42 843.823 1433.42 Q840.59 1433.42 837.288 1431.77 Q834.02 1430.12 831.947 1426.15 Q828.715 1420.21 828.715 1408.83 M834.688 1407.95 Q834.688 1418.8 835.461 1423.13 Q836.339 1427.8 838.728 1429.84 Q841.152 1431.84 843.823 1431.84 Q846.704 1431.84 849.093 1429.7 Q851.517 1427.52 852.255 1422.85 Q853.063 1418.24 853.028 1407.95 Q853.028 1397.94 852.325 1393.93 Q851.376 1389.26 848.847 1387.4 Q846.352 1385.5 843.823 1385.5 Q842.874 1385.5 841.855 1385.78 Q840.871 1386.06 839.431 1386.87 Q837.99 1387.68 836.866 1389.68 Q835.777 1391.68 835.25 1394.7 Q834.688 1398.6 834.688 1407.95 Z" fill="#000000" fill-rule="nonzero" fill-opacity="1" /><path clip-path="url(#clip670)" d="M865.437 1430.68 Q864.348 1429.52 864.348 1428.01 Q864.348 1426.5 865.437 1425.41 Q866.526 1424.29 868.177 1424.29 Q869.758 1424.29 870.812 1425.34 Q871.902 1426.36 871.902 1428.05 Q871.902 1429.7 870.742 1430.79 Q869.618 1431.84 868.177 1431.84 Q866.526 1431.84 865.437 1430.68 Z" fill="#000000" fill-rule="nonzero" fill-opacity="1" /><path clip-path="url(#clip670)" d="M884.148 1408.83 Q884.148 1398.25 886.818 1392.49 Q890.542 1383.92 899.325 1383.92 Q901.188 1383.92 903.12 1384.44 Q905.087 1384.94 907.547 1386.87 Q910.041 1388.8 911.552 1391.96 Q914.433 1398.08 914.433 1408.83 Q914.433 1419.33 911.763 1425.06 Q907.863 1433.42 899.255 1433.42 Q896.023 1433.42 892.72 1431.77 Q889.453 1430.12 887.38 1426.15 Q884.148 1420.21 884.148 1408.83 M890.12 1407.95 Q890.12 1418.8 890.893 1423.13 Q891.772 1427.8 894.161 1429.84 Q896.585 1431.84 899.255 1431.84 Q902.136 1431.84 904.525 1429.7 Q906.949 1427.52 907.687 1422.85 Q908.495 1418.24 908.46 1407.95 Q908.46 1397.94 907.758 1393.93 Q906.809 1389.26 904.279 1387.4 Q901.785 1385.5 899.255 1385.5 Q898.307 1385.5 897.288 1385.78 Q896.304 1386.06 894.864 1386.87 Q893.423 1387.68 892.299 1389.68 Q891.21 1391.68 890.683 1394.7 Q890.12 1398.6 890.12 1407.95 Z" fill="#000000" fill-rule="nonzero" fill-opacity="1" /><path clip-path="url(#clip670)" d="M954.465 1404.79 Q954.465 1406.75 953.235 1407.88 Q952.006 1408.97 950.6 1408.97 Q949.265 1408.97 948.562 1408.19 Q947.86 1407.42 947.86 1406.44 Q947.86 1405.1 948.844 1403.94 Q949.827 1402.78 951.303 1402.54 Q949.862 1401.62 947.719 1401.62 Q946.314 1401.62 945.084 1402.36 Q943.89 1403.1 943.152 1404.05 Q942.449 1405 941.817 1406.37 Q941.22 1407.7 940.974 1408.51 Q940.763 1409.28 940.587 1410.13 L938.128 1419.96 Q936.933 1424.64 936.933 1426.29 Q936.933 1428.33 937.917 1429.7 Q938.901 1431.03 940.868 1431.03 Q941.641 1431.03 942.519 1430.82 Q943.398 1430.57 944.522 1429.94 Q945.681 1429.27 946.7 1428.29 Q947.754 1427.27 948.773 1425.55 Q949.792 1423.83 950.46 1421.62 Q950.67 1420.84 951.373 1420.84 Q952.251 1420.84 952.251 1421.55 Q952.251 1422.14 951.76 1423.41 Q951.303 1424.64 950.284 1426.25 Q949.3 1427.83 948 1429.27 Q946.7 1430.68 944.768 1431.66 Q942.836 1432.65 940.728 1432.65 Q937.706 1432.65 935.704 1431.03 Q933.701 1429.42 932.963 1427.17 Q932.787 1427.48 932.541 1427.9 Q932.296 1428.33 931.558 1429.27 Q930.855 1430.19 930.047 1430.89 Q929.239 1431.56 927.974 1432.09 Q926.744 1432.65 925.409 1432.65 Q923.723 1432.65 922.212 1432.16 Q920.737 1431.66 919.683 1430.54 Q918.629 1429.42 918.629 1427.87 Q918.629 1426.15 919.788 1424.95 Q920.983 1423.72 922.599 1423.72 Q923.618 1423.72 924.426 1424.32 Q925.269 1424.92 925.269 1426.22 Q925.269 1427.66 924.285 1428.75 Q923.301 1429.84 921.896 1430.12 Q923.336 1431.03 925.48 1431.03 Q927.798 1431.03 929.625 1428.99 Q931.452 1426.96 932.331 1423.55 Q934.509 1415.36 935.352 1411.71 Q936.195 1408.02 936.195 1406.44 Q936.195 1404.96 935.809 1403.94 Q935.422 1402.92 934.755 1402.47 Q934.123 1401.98 933.525 1401.8 Q932.963 1401.62 932.331 1401.62 Q931.277 1401.62 930.082 1402.05 Q928.923 1402.47 927.517 1403.45 Q926.147 1404.4 924.847 1406.37 Q923.547 1408.34 922.669 1411.04 Q922.493 1411.85 921.72 1411.85 Q920.877 1411.81 920.877 1411.11 Q920.877 1410.51 921.334 1409.28 Q921.826 1408.02 922.809 1406.44 Q923.828 1404.86 925.128 1403.45 Q926.463 1402.01 928.396 1401.03 Q930.363 1400.04 932.471 1400.04 Q933.42 1400.04 934.333 1400.25 Q935.282 1400.43 936.406 1400.96 Q937.566 1401.48 938.584 1402.64 Q939.603 1403.8 940.236 1405.49 Q940.657 1404.68 941.22 1403.91 Q941.817 1403.14 942.73 1402.19 Q943.679 1401.2 944.979 1400.64 Q946.314 1400.04 947.789 1400.04 Q949.23 1400.04 950.635 1400.43 Q952.041 1400.78 953.235 1401.94 Q954.465 1403.07 954.465 1404.79 Z" fill="#000000" fill-rule="nonzero" fill-opacity="1" /><path clip-path="url(#clip670)" d="M991.714 1402.78 Q991.714 1403.28 991.398 1404.44 L984.512 1431.91 Q983.001 1438.02 978.082 1442.31 Q973.198 1446.6 967.647 1446.6 Q964.31 1446.6 962.167 1444.8 Q960.023 1443.05 960.023 1440.34 Q960.023 1437.95 961.288 1436.79 Q962.553 1435.67 964.064 1435.67 Q964.556 1435.67 965.083 1435.81 Q965.61 1435.95 966.172 1436.55 Q966.734 1437.14 966.734 1438.16 Q966.734 1439.81 965.293 1441.11 Q964.591 1441.71 963.923 1441.85 Q963.291 1441.99 962.202 1441.99 Q962.623 1442.98 963.396 1443.64 Q964.169 1444.31 965.047 1444.56 Q965.926 1444.84 966.488 1444.91 Q967.085 1445.01 967.647 1445.01 Q972.144 1445.01 975.588 1440.48 Q976.606 1439.11 977.344 1437.74 Q978.117 1436.41 978.679 1434.76 Q979.241 1433.14 979.487 1432.26 Q979.768 1431.38 980.26 1429.38 Q976.993 1432.65 972.988 1432.65 Q971.301 1432.65 969.791 1432.19 Q968.315 1431.73 967.015 1430.79 Q965.715 1429.8 964.942 1428.08 Q964.204 1426.36 964.204 1424.08 Q964.204 1421.65 965.153 1418.35 Q966.101 1415.05 968.385 1408.97 Q969.615 1405.56 969.615 1403.91 Q969.615 1403.1 969.439 1402.61 Q969.264 1402.08 968.912 1401.91 Q968.561 1401.69 968.35 1401.66 Q968.174 1401.62 967.823 1401.62 Q965.75 1401.62 963.818 1403.73 Q961.885 1405.84 960.55 1410.55 Q960.269 1411.43 960.094 1411.64 Q959.918 1411.85 959.391 1411.85 Q958.513 1411.81 958.513 1411.11 Q958.513 1410.83 958.829 1409.74 Q959.145 1408.62 959.883 1406.96 Q960.656 1405.28 961.71 1403.77 Q962.764 1402.22 964.415 1401.13 Q966.101 1400.04 968.034 1400.04 Q970.669 1400.04 972.285 1401.77 Q973.936 1403.45 973.936 1405.95 Q973.936 1406.96 973.655 1407.88 Q973.409 1408.76 972.496 1411.11 Q968.807 1420.6 968.807 1425.23 Q968.807 1426.36 968.982 1427.31 Q969.193 1428.22 969.65 1429.13 Q970.107 1430.01 971.02 1430.54 Q971.969 1431.03 973.269 1431.03 Q974.92 1431.03 976.466 1430.26 Q978.047 1429.45 979.031 1428.36 Q980.05 1427.27 980.647 1426.36 Q981.279 1425.41 981.42 1424.92 L984.652 1411.99 L986.093 1406.23 Q986.76 1403.1 987.076 1402.33 Q987.498 1401.59 988.236 1401.2 Q988.974 1400.82 989.606 1400.82 Q990.484 1400.82 991.082 1401.34 Q991.714 1401.87 991.714 1402.78 Z" fill="#000000" fill-rule="nonzero" fill-opacity="1" /><path clip-path="url(#clip670)" d="M1015.03 1414.73 Q1013.38 1414.73 1013.38 1413.85 Q1013.38 1412.97 1015.1 1412.97 Q1015.31 1412.97 1015.66 1413.01 Q1016.05 1413.04 1016.12 1413.04 L1036.39 1413.04 L1036.39 1392.7 Q1036.39 1392.63 1036.35 1392.31 Q1036.32 1391.96 1036.32 1391.75 Q1036.32 1390.03 1037.16 1390.03 Q1038.04 1390.03 1038.04 1391.75 L1038.04 1413.04 L1058.35 1413.04 Q1058.42 1413.04 1058.77 1413.01 Q1059.12 1412.97 1059.33 1412.97 Q1060.98 1412.97 1060.98 1413.85 Q1061.02 1414.73 1059.26 1414.73 Q1059.05 1414.73 1058.73 1414.69 Q1058.42 1414.66 1058.35 1414.66 L1038.04 1414.66 L1038.04 1436.02 Q1038.04 1437.67 1037.16 1437.67 Q1036.32 1437.67 1036.32 1435.95 Q1036.32 1435.74 1036.35 1435.39 Q1036.39 1435.07 1036.39 1435 L1036.39 1414.66 L1016.12 1414.66 Q1016.05 1414.66 1015.62 1414.69 Q1015.24 1414.73 1015.03 1414.73 Z" fill="#000000" fill-rule="nonzero" fill-opacity="1" /><path clip-path="url(#clip670)" d="M1088.77 1408.83 Q1088.77 1398.25 1091.44 1392.49 Q1095.16 1383.92 1103.95 1383.92 Q1105.81 1383.92 1107.74 1384.44 Q1109.71 1384.94 1112.17 1386.87 Q1114.66 1388.8 1116.17 1391.96 Q1119.06 1398.08 1119.06 1408.83 Q1119.06 1419.33 1116.39 1425.06 Q1112.49 1433.42 1103.88 1433.42 Q1100.65 1433.42 1097.34 1431.77 Q1094.08 1430.12 1092 1426.15 Q1088.77 1420.21 1088.77 1408.83 M1094.74 1407.95 Q1094.74 1418.8 1095.52 1423.13 Q1096.39 1427.8 1098.78 1429.84 Q1101.21 1431.84 1103.88 1431.84 Q1106.76 1431.84 1109.15 1429.7 Q1111.57 1427.52 1112.31 1422.85 Q1113.12 1418.24 1113.08 1407.95 Q1113.08 1397.94 1112.38 1393.93 Q1111.43 1389.26 1108.9 1387.4 Q1106.41 1385.5 1103.88 1385.5 Q1102.93 1385.5 1101.91 1385.78 Q1100.93 1386.06 1099.49 1386.87 Q1098.05 1387.68 1096.92 1389.68 Q1095.83 1391.68 1095.31 1394.7 Q1094.74 1398.6 1094.74 1407.95 Z" fill="#000000" fill-rule="nonzero" fill-opacity="1" /><path clip-path="url(#clip670)" d="M1125.49 1430.68 Q1124.4 1429.52 1124.4 1428.01 Q1124.4 1426.5 1125.49 1425.41 Q1126.58 1424.29 1128.23 1424.29 Q1129.81 1424.29 1130.87 1425.34 Q1131.96 1426.36 1131.96 1428.05 Q1131.96 1429.7 1130.8 1430.79 Q1129.67 1431.84 1128.23 1431.84 Q1126.58 1431.84 1125.49 1430.68 Z" fill="#000000" fill-rule="nonzero" fill-opacity="1" /><path clip-path="url(#clip670)" d="M1144.2 1408.83 Q1144.2 1398.25 1146.87 1392.49 Q1150.6 1383.92 1159.38 1383.92 Q1161.24 1383.92 1163.18 1384.44 Q1165.14 1384.94 1167.6 1386.87 Q1170.1 1388.8 1171.61 1391.96 Q1174.49 1398.08 1174.49 1408.83 Q1174.49 1419.33 1171.82 1425.06 Q1167.92 1433.42 1159.31 1433.42 Q1156.08 1433.42 1152.78 1431.77 Q1149.51 1430.12 1147.44 1426.15 Q1144.2 1420.21 1144.2 1408.83 M1150.18 1407.95 Q1150.18 1418.8 1150.95 1423.13 Q1151.83 1427.8 1154.22 1429.84 Q1156.64 1431.84 1159.31 1431.84 Q1162.19 1431.84 1164.58 1429.7 Q1167 1427.52 1167.74 1422.85 Q1168.55 1418.24 1168.52 1407.95 Q1168.52 1397.94 1167.81 1393.93 Q1166.86 1389.26 1164.33 1387.4 Q1161.84 1385.5 1159.31 1385.5 Q1158.36 1385.5 1157.34 1385.78 Q1156.36 1386.06 1154.92 1386.87 Q1153.48 1387.68 1152.35 1389.68 Q1151.27 1391.68 1150.74 1394.7 Q1150.18 1398.6 1150.18 1407.95 Z" fill="#000000" fill-rule="nonzero" fill-opacity="1" /><path clip-path="url(#clip670)" d="M1177.72 1390.77 L1177.72 1388.52 Q1186.36 1388.52 1190.82 1383.92 Q1192.05 1383.92 1192.26 1384.2 Q1192.47 1384.48 1192.47 1385.78 L1192.47 1426.15 Q1192.47 1428.29 1193.53 1428.96 Q1194.58 1429.63 1199.18 1429.63 L1201.47 1429.63 L1201.47 1431.84 Q1198.94 1431.63 1189.8 1431.63 Q1180.67 1431.63 1178.17 1431.84 L1178.17 1429.63 L1180.46 1429.63 Q1184.99 1429.63 1186.08 1428.99 Q1187.17 1428.33 1187.17 1426.15 L1187.17 1388.87 Q1183.41 1390.77 1177.72 1390.77 Z" fill="#000000" fill-rule="nonzero" fill-opacity="1" /><path clip-path="url(#clip670)" d="M1203.57 1398.01 L1205.93 1383.21 L1207.72 1383.21 Q1207.93 1384.09 1208.28 1384.48 Q1208.67 1384.87 1210.7 1385.18 Q1212.78 1385.5 1216.96 1385.5 L1234.42 1385.5 Q1234.42 1387.15 1233.79 1388.03 L1224.05 1401.69 Q1220.96 1406.02 1219.59 1413.99 Q1218.78 1419.33 1218.82 1425.8 L1218.82 1429.45 Q1218.82 1433.42 1215.48 1433.42 Q1212.18 1433.42 1212.18 1429.45 Q1212.18 1415.71 1221.03 1402.4 Q1221.98 1401.03 1225.46 1396.14 Q1228.97 1391.26 1229.11 1391.05 L1214.22 1391.05 Q1207.68 1391.05 1207.16 1391.47 Q1206.45 1392.1 1205.36 1398.01 L1203.57 1398.01 Z" fill="#000000" fill-rule="nonzero" fill-opacity="1" /><path clip-path="url(#clip670)" d="M1272.41 1402.78 Q1272.41 1403.28 1272.09 1404.44 L1265.2 1431.91 Q1263.69 1438.02 1258.77 1442.31 Q1253.89 1446.6 1248.34 1446.6 Q1245 1446.6 1242.86 1444.8 Q1240.72 1443.05 1240.72 1440.34 Q1240.72 1437.95 1241.98 1436.79 Q1243.25 1435.67 1244.76 1435.67 Q1245.25 1435.67 1245.77 1435.81 Q1246.3 1435.95 1246.86 1436.55 Q1247.43 1437.14 1247.43 1438.16 Q1247.43 1439.81 1245.99 1441.11 Q1245.28 1441.71 1244.62 1441.85 Q1243.98 1441.99 1242.89 1441.99 Q1243.32 1442.98 1244.09 1443.64 Q1244.86 1444.31 1245.74 1444.56 Q1246.62 1444.84 1247.18 1444.91 Q1247.78 1445.01 1248.34 1445.01 Q1252.84 1445.01 1256.28 1440.48 Q1257.3 1439.11 1258.04 1437.74 Q1258.81 1436.41 1259.37 1434.76 Q1259.93 1433.14 1260.18 1432.26 Q1260.46 1431.38 1260.95 1429.38 Q1257.68 1432.65 1253.68 1432.65 Q1251.99 1432.65 1250.48 1432.19 Q1249.01 1431.73 1247.71 1430.79 Q1246.41 1429.8 1245.63 1428.08 Q1244.9 1426.36 1244.9 1424.08 Q1244.9 1421.65 1245.84 1418.35 Q1246.79 1415.05 1249.08 1408.97 Q1250.31 1405.56 1250.31 1403.91 Q1250.31 1403.1 1250.13 1402.61 Q1249.96 1402.08 1249.6 1401.91 Q1249.25 1401.69 1249.04 1401.66 Q1248.87 1401.62 1248.52 1401.62 Q1246.44 1401.62 1244.51 1403.73 Q1242.58 1405.84 1241.24 1410.55 Q1240.96 1411.43 1240.79 1411.64 Q1240.61 1411.85 1240.08 1411.85 Q1239.2 1411.81 1239.2 1411.11 Q1239.2 1410.83 1239.52 1409.74 Q1239.84 1408.62 1240.57 1406.96 Q1241.35 1405.28 1242.4 1403.77 Q1243.46 1402.22 1245.11 1401.13 Q1246.79 1400.04 1248.73 1400.04 Q1251.36 1400.04 1252.98 1401.77 Q1254.63 1403.45 1254.63 1405.95 Q1254.63 1406.96 1254.35 1407.88 Q1254.1 1408.76 1253.19 1411.11 Q1249.5 1420.6 1249.5 1425.23 Q1249.5 1426.36 1249.67 1427.31 Q1249.89 1428.22 1250.34 1429.13 Q1250.8 1430.01 1251.71 1430.54 Q1252.66 1431.03 1253.96 1431.03 Q1255.61 1431.03 1257.16 1430.26 Q1258.74 1429.45 1259.72 1428.36 Q1260.74 1427.27 1261.34 1426.36 Q1261.97 1425.41 1262.11 1424.92 L1265.34 1411.99 L1266.78 1406.23 Q1267.45 1403.1 1267.77 1402.33 Q1268.19 1401.59 1268.93 1401.2 Q1269.67 1400.82 1270.3 1400.82 Q1271.18 1400.82 1271.77 1401.34 Q1272.41 1401.87 1272.41 1402.78 Z" fill="#000000" fill-rule="nonzero" fill-opacity="1" /><path clip-path="url(#clip670)" d="M1279.76 1410.32 Q1279.76 1409.41 1279.83 1409.14 Q1279.93 1408.87 1280.33 1408.45 L1289.99 1397.68 Q1295.28 1391.73 1295.28 1386.54 Q1295.28 1383.17 1293.51 1380.76 Q1291.76 1378.35 1288.54 1378.35 Q1286.33 1378.35 1284.46 1379.7 Q1282.59 1381.06 1281.73 1383.47 Q1281.87 1383.42 1282.39 1383.42 Q1283.65 1383.42 1284.33 1384.21 Q1285.05 1384.99 1285.05 1386.05 Q1285.05 1387.4 1284.16 1388.07 Q1283.3 1388.71 1282.44 1388.71 Q1282.1 1388.71 1281.63 1388.63 Q1281.19 1388.56 1280.47 1387.87 Q1279.76 1387.16 1279.76 1385.9 Q1279.76 1382.39 1282.42 1379.58 Q1285.1 1376.78 1289.18 1376.78 Q1293.8 1376.78 1296.83 1379.53 Q1299.88 1382.26 1299.88 1386.54 Q1299.88 1388.04 1299.41 1389.42 Q1298.97 1390.77 1298.35 1391.83 Q1297.76 1392.89 1296.14 1394.58 Q1294.52 1396.28 1293.21 1397.49 Q1291.91 1398.69 1288.98 1401.25 L1283.65 1406.44 L1292.72 1406.44 Q1297.15 1406.44 1297.49 1406.04 Q1297.98 1405.33 1298.6 1401.57 L1299.88 1401.57 L1298.45 1410.32 L1279.76 1410.32 Z" fill="#000000" fill-rule="nonzero" fill-opacity="1" /><path clip-path="url(#clip670)" d="M1328.97 1414.73 Q1327.32 1414.73 1327.32 1413.85 Q1327.32 1412.97 1329.04 1412.97 Q1329.25 1412.97 1329.6 1413.01 Q1329.99 1413.04 1330.06 1413.04 L1350.33 1413.04 L1350.33 1392.7 Q1350.33 1392.63 1350.3 1392.31 Q1350.26 1391.96 1350.26 1391.75 Q1350.26 1390.03 1351.1 1390.03 Q1351.98 1390.03 1351.98 1391.75 L1351.98 1413.04 L1372.29 1413.04 Q1372.36 1413.04 1372.71 1413.01 Q1373.06 1412.97 1373.27 1412.97 Q1374.92 1412.97 1374.92 1413.85 Q1374.96 1414.73 1373.2 1414.73 Q1372.99 1414.73 1372.68 1414.69 Q1372.36 1414.66 1372.29 1414.66 L1351.98 1414.66 L1351.98 1436.02 Q1351.98 1437.67 1351.1 1437.67 Q1350.26 1437.67 1350.26 1435.95 Q1350.26 1435.74 1350.3 1435.39 Q1350.33 1435.07 1350.33 1435 L1350.33 1414.66 L1330.06 1414.66 Q1329.99 1414.66 1329.57 1414.69 Q1329.18 1414.73 1328.97 1414.73 Z" fill="#000000" fill-rule="nonzero" fill-opacity="1" /><path clip-path="url(#clip670)" d="M1402.71 1408.83 Q1402.71 1398.25 1405.38 1392.49 Q1409.11 1383.92 1417.89 1383.92 Q1419.75 1383.92 1421.68 1384.44 Q1423.65 1384.94 1426.11 1386.87 Q1428.61 1388.8 1430.12 1391.96 Q1433 1398.08 1433 1408.83 Q1433 1419.33 1430.33 1425.06 Q1426.43 1433.42 1417.82 1433.42 Q1414.59 1433.42 1411.29 1431.77 Q1408.02 1430.12 1405.95 1426.15 Q1402.71 1420.21 1402.71 1408.83 M1408.69 1407.95 Q1408.69 1418.8 1409.46 1423.13 Q1410.34 1427.8 1412.73 1429.84 Q1415.15 1431.84 1417.82 1431.84 Q1420.7 1431.84 1423.09 1429.7 Q1425.51 1427.52 1426.25 1422.85 Q1427.06 1418.24 1427.03 1407.95 Q1427.03 1397.94 1426.32 1393.93 Q1425.37 1389.26 1422.84 1387.4 Q1420.35 1385.5 1417.82 1385.5 Q1416.87 1385.5 1415.85 1385.78 Q1414.87 1386.06 1413.43 1386.87 Q1411.99 1387.68 1410.86 1389.68 Q1409.77 1391.68 1409.25 1394.7 Q1408.69 1398.6 1408.69 1407.95 Z" fill="#000000" fill-rule="nonzero" fill-opacity="1" /><path clip-path="url(#clip670)" d="M1439.43 1430.68 Q1438.35 1429.52 1438.35 1428.01 Q1438.35 1426.5 1439.43 1425.41 Q1440.52 1424.29 1442.18 1424.29 Q1443.76 1424.29 1444.81 1425.34 Q1445.9 1426.36 1445.9 1428.05 Q1445.9 1429.7 1444.74 1430.79 Q1443.62 1431.84 1442.18 1431.84 Q1440.52 1431.84 1439.43 1430.68 Z" fill="#000000" fill-rule="nonzero" fill-opacity="1" /><path clip-path="url(#clip670)" d="M1458.15 1408.83 Q1458.15 1398.25 1460.82 1392.49 Q1464.54 1383.92 1473.32 1383.92 Q1475.19 1383.92 1477.12 1384.44 Q1479.09 1384.94 1481.54 1386.87 Q1484.04 1388.8 1485.55 1391.96 Q1488.43 1398.08 1488.43 1408.83 Q1488.43 1419.33 1485.76 1425.06 Q1481.86 1433.42 1473.25 1433.42 Q1470.02 1433.42 1466.72 1431.77 Q1463.45 1430.12 1461.38 1426.15 Q1458.15 1420.21 1458.15 1408.83 M1464.12 1407.95 Q1464.12 1418.8 1464.89 1423.13 Q1465.77 1427.8 1468.16 1429.84 Q1470.58 1431.84 1473.25 1431.84 Q1476.13 1431.84 1478.52 1429.7 Q1480.95 1427.52 1481.68 1422.85 Q1482.49 1418.24 1482.46 1407.95 Q1482.46 1397.94 1481.76 1393.93 Q1480.81 1389.26 1478.28 1387.4 Q1475.78 1385.5 1473.25 1385.5 Q1472.3 1385.5 1471.29 1385.78 Q1470.3 1386.06 1468.86 1386.87 Q1467.42 1387.68 1466.3 1389.68 Q1465.21 1391.68 1464.68 1394.7 Q1464.12 1398.6 1464.12 1407.95 Z" fill="#000000" fill-rule="nonzero" fill-opacity="1" /><path clip-path="url(#clip670)" d="M1528.46 1404.79 Q1528.46 1406.75 1527.23 1407.88 Q1526 1408.97 1524.6 1408.97 Q1523.26 1408.97 1522.56 1408.19 Q1521.86 1407.42 1521.86 1406.44 Q1521.86 1405.1 1522.84 1403.94 Q1523.82 1402.78 1525.3 1402.54 Q1523.86 1401.62 1521.72 1401.62 Q1520.31 1401.62 1519.08 1402.36 Q1517.89 1403.1 1517.15 1404.05 Q1516.45 1405 1515.81 1406.37 Q1515.22 1407.7 1514.97 1408.51 Q1514.76 1409.28 1514.58 1410.13 L1512.13 1419.96 Q1510.93 1424.64 1510.93 1426.29 Q1510.93 1428.33 1511.91 1429.7 Q1512.9 1431.03 1514.87 1431.03 Q1515.64 1431.03 1516.52 1430.82 Q1517.4 1430.57 1518.52 1429.94 Q1519.68 1429.27 1520.7 1428.29 Q1521.75 1427.27 1522.77 1425.55 Q1523.79 1423.83 1524.46 1421.62 Q1524.67 1420.84 1525.37 1420.84 Q1526.25 1420.84 1526.25 1421.55 Q1526.25 1422.14 1525.76 1423.41 Q1525.3 1424.64 1524.28 1426.25 Q1523.3 1427.83 1522 1429.27 Q1520.7 1430.68 1518.77 1431.66 Q1516.83 1432.65 1514.73 1432.65 Q1511.7 1432.65 1509.7 1431.03 Q1507.7 1429.42 1506.96 1427.17 Q1506.79 1427.48 1506.54 1427.9 Q1506.29 1428.33 1505.56 1429.27 Q1504.85 1430.19 1504.04 1430.89 Q1503.24 1431.56 1501.97 1432.09 Q1500.74 1432.65 1499.41 1432.65 Q1497.72 1432.65 1496.21 1432.16 Q1494.73 1431.66 1493.68 1430.54 Q1492.63 1429.42 1492.63 1427.87 Q1492.63 1426.15 1493.79 1424.95 Q1494.98 1423.72 1496.6 1423.72 Q1497.62 1423.72 1498.42 1424.32 Q1499.27 1424.92 1499.27 1426.22 Q1499.27 1427.66 1498.28 1428.75 Q1497.3 1429.84 1495.89 1430.12 Q1497.33 1431.03 1499.48 1431.03 Q1501.8 1431.03 1503.62 1428.99 Q1505.45 1426.96 1506.33 1423.55 Q1508.51 1415.36 1509.35 1411.71 Q1510.19 1408.02 1510.19 1406.44 Q1510.19 1404.96 1509.81 1403.94 Q1509.42 1402.92 1508.75 1402.47 Q1508.12 1401.98 1507.52 1401.8 Q1506.96 1401.62 1506.33 1401.62 Q1505.27 1401.62 1504.08 1402.05 Q1502.92 1402.47 1501.52 1403.45 Q1500.14 1404.4 1498.84 1406.37 Q1497.54 1408.34 1496.67 1411.04 Q1496.49 1411.85 1495.72 1411.85 Q1494.87 1411.81 1494.87 1411.11 Q1494.87 1410.51 1495.33 1409.28 Q1495.82 1408.02 1496.81 1406.44 Q1497.83 1404.86 1499.13 1403.45 Q1500.46 1402.01 1502.39 1401.03 Q1504.36 1400.04 1506.47 1400.04 Q1507.42 1400.04 1508.33 1400.25 Q1509.28 1400.43 1510.4 1400.96 Q1511.56 1401.48 1512.58 1402.64 Q1513.6 1403.8 1514.23 1405.49 Q1514.66 1404.68 1515.22 1403.91 Q1515.81 1403.14 1516.73 1402.19 Q1517.68 1401.2 1518.98 1400.64 Q1520.31 1400.04 1521.79 1400.04 Q1523.23 1400.04 1524.63 1400.43 Q1526.04 1400.78 1527.23 1401.94 Q1528.46 1403.07 1528.46 1404.79 Z" fill="#000000" fill-rule="nonzero" fill-opacity="1" /><path clip-path="url(#clip670)" d="M1554.99 1414.73 Q1553.34 1414.73 1553.34 1413.85 Q1553.34 1412.97 1555.06 1412.97 Q1555.27 1412.97 1555.62 1413.01 Q1556.01 1413.04 1556.08 1413.04 L1576.35 1413.04 L1576.35 1392.7 Q1576.35 1392.63 1576.31 1392.31 Q1576.28 1391.96 1576.28 1391.75 Q1576.28 1390.03 1577.12 1390.03 Q1578 1390.03 1578 1391.75 L1578 1413.04 L1598.31 1413.04 Q1598.38 1413.04 1598.73 1413.01 Q1599.08 1412.97 1599.29 1412.97 Q1600.94 1412.97 1600.94 1413.85 Q1600.98 1414.73 1599.22 1414.73 Q1599.01 1414.73 1598.69 1414.69 Q1598.38 1414.66 1598.31 1414.66 L1578 1414.66 L1578 1436.02 Q1578 1437.67 1577.12 1437.67 Q1576.28 1437.67 1576.28 1435.95 Q1576.28 1435.74 1576.31 1435.39 Q1576.35 1435.07 1576.35 1435 L1576.35 1414.66 L1556.08 1414.66 Q1556.01 1414.66 1555.58 1414.69 Q1555.2 1414.73 1554.99 1414.73 Z" fill="#000000" fill-rule="nonzero" fill-opacity="1" /><path clip-path="url(#clip670)" d="M1628.73 1408.83 Q1628.73 1398.25 1631.4 1392.49 Q1635.12 1383.92 1643.91 1383.92 Q1645.77 1383.92 1647.7 1384.44 Q1649.67 1384.94 1652.13 1386.87 Q1654.62 1388.8 1656.13 1391.96 Q1659.02 1398.08 1659.02 1408.83 Q1659.02 1419.33 1656.35 1425.06 Q1652.45 1433.42 1643.84 1433.42 Q1640.61 1433.42 1637.3 1431.77 Q1634.04 1430.12 1631.96 1426.15 Q1628.73 1420.21 1628.73 1408.83 M1634.7 1407.95 Q1634.7 1418.8 1635.48 1423.13 Q1636.35 1427.8 1638.74 1429.84 Q1641.17 1431.84 1643.84 1431.84 Q1646.72 1431.84 1649.11 1429.7 Q1651.53 1427.52 1652.27 1422.85 Q1653.08 1418.24 1653.04 1407.95 Q1653.04 1397.94 1652.34 1393.93 Q1651.39 1389.26 1648.86 1387.4 Q1646.37 1385.5 1643.84 1385.5 Q1642.89 1385.5 1641.87 1385.78 Q1640.89 1386.06 1639.45 1386.87 Q1638.01 1387.68 1636.88 1389.68 Q1635.79 1391.68 1635.27 1394.7 Q1634.7 1398.6 1634.7 1407.95 Z" fill="#000000" fill-rule="nonzero" fill-opacity="1" /><path clip-path="url(#clip670)" d="M1665.45 1430.68 Q1664.36 1429.52 1664.36 1428.01 Q1664.36 1426.5 1665.45 1425.41 Q1666.54 1424.29 1668.19 1424.29 Q1669.77 1424.29 1670.83 1425.34 Q1671.92 1426.36 1671.92 1428.05 Q1671.92 1429.7 1670.76 1430.79 Q1669.63 1431.84 1668.19 1431.84 Q1666.54 1431.84 1665.45 1430.68 Z" fill="#000000" fill-rule="nonzero" fill-opacity="1" /><path clip-path="url(#clip670)" d="M1684.16 1422.14 Q1684.16 1420 1685.39 1418.98 Q1686.62 1417.96 1688.2 1417.96 Q1689.85 1417.96 1691.01 1419.05 Q1692.21 1420.1 1692.21 1421.97 Q1692.21 1423.97 1690.8 1425.09 Q1689.43 1426.22 1687.47 1425.94 Q1689.19 1428.82 1692.35 1430.12 Q1695.55 1431.42 1698.5 1431.42 Q1701.59 1431.42 1704.08 1428.75 Q1706.61 1426.08 1706.61 1419.54 Q1706.61 1413.99 1704.43 1410.79 Q1702.29 1407.6 1698.04 1407.6 L1694.88 1407.6 Q1693.79 1407.6 1693.47 1407.49 Q1693.16 1407.39 1693.16 1406.79 Q1693.16 1406.09 1694.25 1405.95 Q1695.34 1405.95 1697.06 1405.74 Q1701.24 1405.59 1703.45 1401.98 Q1705.45 1398.6 1705.45 1393.79 Q1705.45 1389.4 1703.35 1387.57 Q1701.27 1385.71 1698.57 1385.71 Q1696.04 1385.71 1693.26 1386.76 Q1690.49 1387.82 1688.98 1390.17 Q1693.44 1390.17 1693.44 1393.79 Q1693.44 1395.37 1692.42 1396.42 Q1691.44 1397.44 1689.78 1397.44 Q1688.2 1397.44 1687.15 1396.46 Q1686.1 1395.44 1686.1 1393.72 Q1686.1 1389.61 1689.75 1386.76 Q1693.44 1383.92 1698.85 1383.92 Q1704.19 1383.92 1708.12 1386.73 Q1712.09 1389.54 1712.09 1393.86 Q1712.09 1398.11 1709.28 1401.59 Q1706.47 1405.07 1702.01 1406.51 Q1707.49 1407.6 1710.76 1411.32 Q1714.03 1415.01 1714.03 1419.54 Q1714.03 1425.16 1709.6 1429.31 Q1705.17 1433.42 1698.71 1433.42 Q1692.74 1433.42 1688.45 1430.19 Q1684.16 1426.96 1684.16 1422.14 Z" fill="#000000" fill-rule="nonzero" fill-opacity="1" /><path clip-path="url(#clip670)" d="M1720.08 1420.25 Q1720.08 1418.1 1721.24 1417.29 Q1722.4 1416.45 1723.63 1416.45 Q1725.28 1416.45 1726.23 1417.51 Q1727.22 1418.52 1727.22 1419.96 Q1727.22 1421.4 1726.23 1422.46 Q1725.28 1423.48 1723.63 1423.48 Q1722.82 1423.48 1722.4 1423.34 Q1723.35 1426.64 1726.23 1429.03 Q1729.15 1431.42 1732.98 1431.42 Q1737.79 1431.42 1740.67 1426.75 Q1742.39 1423.72 1742.39 1416.87 Q1742.39 1410.83 1741.09 1407.81 Q1739.09 1403.21 1734.98 1403.21 Q1729.15 1403.21 1725.71 1408.23 Q1725.28 1408.86 1724.79 1408.9 Q1724.09 1408.9 1723.91 1408.51 Q1723.77 1408.09 1723.77 1407 L1723.77 1385.71 Q1723.77 1383.99 1724.48 1383.99 Q1724.76 1383.99 1725.35 1384.2 Q1729.89 1386.2 1734.91 1386.24 Q1740.07 1386.24 1744.71 1384.13 Q1745.06 1383.92 1745.27 1383.92 Q1745.98 1383.92 1746.01 1384.73 Q1746.01 1385.01 1745.42 1385.85 Q1744.85 1386.66 1743.62 1387.75 Q1742.39 1388.8 1740.81 1389.82 Q1739.23 1390.84 1736.91 1391.54 Q1734.63 1392.21 1732.1 1392.21 Q1729.08 1392.21 1725.99 1391.26 L1725.99 1405.28 Q1729.71 1401.62 1735.12 1401.62 Q1740.88 1401.62 1744.85 1406.26 Q1748.82 1410.9 1748.82 1417.36 Q1748.82 1424.15 1744.12 1428.78 Q1739.44 1433.42 1733.12 1433.42 Q1727.36 1433.42 1723.7 1429.31 Q1720.08 1425.2 1720.08 1420.25 Z" fill="#000000" fill-rule="nonzero" fill-opacity="1" /><path clip-path="url(#clip670)" d="M1756 1409.11 Q1756 1397.8 1761.77 1390.87 Q1767.53 1383.92 1774.94 1383.92 Q1779.26 1383.92 1781.65 1386.13 Q1784.08 1388.31 1784.08 1391.68 Q1784.08 1393.54 1782.99 1394.35 Q1781.9 1395.16 1780.77 1395.16 Q1779.47 1395.16 1778.45 1394.28 Q1777.44 1393.4 1777.44 1391.82 Q1777.44 1388.59 1781.41 1388.59 Q1779.54 1385.71 1775.08 1385.71 Q1773.71 1385.71 1772.31 1386.13 Q1770.9 1386.52 1769.07 1387.85 Q1767.25 1389.19 1765.84 1391.3 Q1764.44 1393.4 1763.45 1397.37 Q1762.47 1401.34 1762.47 1406.51 L1762.47 1408.23 Q1765.42 1401.1 1771.46 1401.13 Q1777.51 1401.13 1781.69 1405.74 Q1785.87 1410.34 1785.87 1417.15 Q1785.87 1424.15 1781.51 1428.78 Q1777.15 1433.42 1771.04 1433.42 Q1768.3 1433.42 1765.81 1432.26 Q1763.35 1431.14 1761.03 1428.54 Q1758.74 1425.94 1757.37 1420.95 Q1756 1415.96 1756 1409.11 M1762.61 1415.57 Q1762.61 1422.63 1763.91 1426.01 Q1764.12 1426.57 1764.58 1427.34 Q1765.07 1428.12 1765.88 1429.13 Q1766.72 1430.12 1768.09 1430.79 Q1769.46 1431.42 1771.04 1431.42 Q1775.85 1431.42 1778.17 1426.75 Q1779.4 1424.15 1779.4 1417.08 Q1779.4 1409.88 1778.1 1407.25 Q1775.89 1402.78 1771.39 1402.78 Q1768.37 1402.78 1766.26 1404.86 Q1764.19 1406.93 1763.38 1409.71 Q1762.61 1412.48 1762.61 1415.57 Z" fill="#000000" fill-rule="nonzero" fill-opacity="1" /><path clip-path="url(#clip670)" d="M1823.69 1402.78 Q1823.69 1403.28 1823.37 1404.44 L1816.48 1431.91 Q1814.97 1438.02 1810.05 1442.31 Q1805.17 1446.6 1799.62 1446.6 Q1796.28 1446.6 1794.14 1444.8 Q1792 1443.05 1792 1440.34 Q1792 1437.95 1793.26 1436.79 Q1794.53 1435.67 1796.04 1435.67 Q1796.53 1435.67 1797.06 1435.81 Q1797.58 1435.95 1798.14 1436.55 Q1798.71 1437.14 1798.71 1438.16 Q1798.71 1439.81 1797.27 1441.11 Q1796.56 1441.71 1795.9 1441.85 Q1795.26 1441.99 1794.17 1441.99 Q1794.6 1442.98 1795.37 1443.64 Q1796.14 1444.31 1797.02 1444.56 Q1797.9 1444.84 1798.46 1444.91 Q1799.06 1445.01 1799.62 1445.01 Q1804.12 1445.01 1807.56 1440.48 Q1808.58 1439.11 1809.32 1437.74 Q1810.09 1436.41 1810.65 1434.76 Q1811.21 1433.14 1811.46 1432.26 Q1811.74 1431.38 1812.23 1429.38 Q1808.97 1432.65 1804.96 1432.65 Q1803.27 1432.65 1801.76 1432.19 Q1800.29 1431.73 1798.99 1430.79 Q1797.69 1429.8 1796.91 1428.08 Q1796.18 1426.36 1796.18 1424.08 Q1796.18 1421.65 1797.13 1418.35 Q1798.07 1415.05 1800.36 1408.97 Q1801.59 1405.56 1801.59 1403.91 Q1801.59 1403.1 1801.41 1402.61 Q1801.24 1402.08 1800.88 1401.91 Q1800.53 1401.69 1800.32 1401.66 Q1800.15 1401.62 1799.8 1401.62 Q1797.72 1401.62 1795.79 1403.73 Q1793.86 1405.84 1792.52 1410.55 Q1792.24 1411.43 1792.07 1411.64 Q1791.89 1411.85 1791.36 1411.85 Q1790.49 1411.81 1790.49 1411.11 Q1790.49 1410.83 1790.8 1409.74 Q1791.12 1408.62 1791.86 1406.96 Q1792.63 1405.28 1793.68 1403.77 Q1794.74 1402.22 1796.39 1401.13 Q1798.07 1400.04 1800.01 1400.04 Q1802.64 1400.04 1804.26 1401.77 Q1805.91 1403.45 1805.91 1405.95 Q1805.91 1406.96 1805.63 1407.88 Q1805.38 1408.76 1804.47 1411.11 Q1800.78 1420.6 1800.78 1425.23 Q1800.78 1426.36 1800.96 1427.31 Q1801.17 1428.22 1801.62 1429.13 Q1802.08 1430.01 1802.99 1430.54 Q1803.94 1431.03 1805.24 1431.03 Q1806.89 1431.03 1808.44 1430.26 Q1810.02 1429.45 1811 1428.36 Q1812.02 1427.27 1812.62 1426.36 Q1813.25 1425.41 1813.39 1424.92 L1816.62 1411.99 L1818.07 1406.23 Q1818.73 1403.1 1819.05 1402.33 Q1819.47 1401.59 1820.21 1401.2 Q1820.95 1400.82 1821.58 1400.82 Q1822.46 1400.82 1823.05 1401.34 Q1823.69 1401.87 1823.69 1402.78 Z" fill="#000000" fill-rule="nonzero" fill-opacity="1" /><path clip-path="url(#clip670)" d="M1847 1414.73 Q1845.35 1414.73 1845.35 1413.85 Q1845.35 1412.97 1847.07 1412.97 Q1847.28 1412.97 1847.63 1413.01 Q1848.02 1413.04 1848.09 1413.04 L1868.36 1413.04 L1868.36 1392.7 Q1868.36 1392.63 1868.33 1392.31 Q1868.29 1391.96 1868.29 1391.75 Q1868.29 1390.03 1869.13 1390.03 Q1870.01 1390.03 1870.01 1391.75 L1870.01 1413.04 L1890.32 1413.04 Q1890.39 1413.04 1890.74 1413.01 Q1891.09 1412.97 1891.3 1412.97 Q1892.96 1412.97 1892.96 1413.85 Q1892.99 1414.73 1891.23 1414.73 Q1891.02 1414.73 1890.71 1414.69 Q1890.39 1414.66 1890.32 1414.66 L1870.01 1414.66 L1870.01 1436.02 Q1870.01 1437.67 1869.13 1437.67 Q1868.29 1437.67 1868.29 1435.95 Q1868.29 1435.74 1868.33 1435.39 Q1868.36 1435.07 1868.36 1435 L1868.36 1414.66 L1848.09 1414.66 Q1848.02 1414.66 1847.6 1414.69 Q1847.21 1414.73 1847 1414.73 Z" fill="#000000" fill-rule="nonzero" fill-opacity="1" /><path clip-path="url(#clip670)" d="M1920.74 1390.77 L1920.74 1388.52 Q1929.39 1388.52 1933.85 1383.92 Q1935.08 1383.92 1935.29 1384.2 Q1935.5 1384.48 1935.5 1385.78 L1935.5 1426.15 Q1935.5 1428.29 1936.55 1428.96 Q1937.61 1429.63 1942.21 1429.63 L1944.49 1429.63 L1944.49 1431.84 Q1941.96 1431.63 1932.83 1431.63 Q1923.69 1431.63 1921.2 1431.84 L1921.2 1429.63 L1923.48 1429.63 Q1928.02 1429.63 1929.11 1428.99 Q1930.19 1428.33 1930.19 1426.15 L1930.19 1388.87 Q1926.43 1390.77 1920.74 1390.77 Z" fill="#000000" fill-rule="nonzero" fill-opacity="1" /><path clip-path="url(#clip670)" d="M1976.34 1420.91 Q1976.41 1420.03 1977.78 1420.03 L2021.87 1420.03 Q2023.94 1420.03 2023.98 1420.84 Q2023.98 1421.72 2022.01 1421.69 L1978.27 1421.69 Q1976.34 1421.72 1976.34 1420.91 M1976.34 1406.86 Q1976.34 1405.98 1977.85 1406.02 L2021.8 1406.02 Q2023.94 1406.02 2023.98 1406.86 Q2023.98 1407.67 2022.15 1407.67 L1977.78 1407.67 Q1976.34 1407.67 1976.34 1406.86 Z" fill="#000000" fill-rule="nonzero" fill-opacity="1" /><path clip-path="url(#clip670)" d="M2051.73 1408.83 Q2051.73 1398.25 2054.4 1392.49 Q2058.13 1383.92 2066.91 1383.92 Q2068.77 1383.92 2070.7 1384.44 Q2072.67 1384.94 2075.13 1386.87 Q2077.63 1388.8 2079.14 1391.96 Q2082.02 1398.08 2082.02 1408.83 Q2082.02 1419.33 2079.35 1425.06 Q2075.45 1433.42 2066.84 1433.42 Q2063.61 1433.42 2060.3 1431.77 Q2057.04 1430.12 2054.96 1426.15 Q2051.73 1420.21 2051.73 1408.83 M2057.7 1407.95 Q2057.7 1418.8 2058.48 1423.13 Q2059.36 1427.8 2061.74 1429.84 Q2064.17 1431.84 2066.84 1431.84 Q2069.72 1431.84 2072.11 1429.7 Q2074.53 1427.52 2075.27 1422.85 Q2076.08 1418.24 2076.04 1407.95 Q2076.04 1397.94 2075.34 1393.93 Q2074.39 1389.26 2071.86 1387.4 Q2069.37 1385.5 2066.84 1385.5 Q2065.89 1385.5 2064.87 1385.78 Q2063.89 1386.06 2062.45 1386.87 Q2061.01 1387.68 2059.88 1389.68 Q2058.79 1391.68 2058.27 1394.7 Q2057.7 1398.6 2057.7 1407.95 Z" fill="#000000" fill-rule="nonzero" fill-opacity="1" /></svg>
