<?xml version="1.0" encoding="utf-8"?>
<svg xmlns="http://www.w3.org/2000/svg" xmlns:xlink="http://www.w3.org/1999/xlink" width="600" height="400" viewBox="0 0 2400 1600">
<defs>
  <clipPath id="clip470">
    <rect x="0" y="0" width="2400" height="1600"/>
  </clipPath>
</defs>
<path clip-path="url(#clip470)" d="M0 1600 L2400 1600 L2400 0 L0 0  Z" fill="#ffffff" fill-rule="evenodd" fill-opacity="1"/>
<defs>
  <clipPath id="clip471">
    <rect x="480" y="0" width="1681" height="1600"/>
  </clipPath>
</defs>
<path clip-path="url(#clip470)" d="M178.867 1486.45 L2352.76 1486.45 L2352.76 47.2441 L178.867 47.2441  Z" fill="#ffffff" fill-rule="evenodd" fill-opacity="1"/>
<defs>
  <clipPath id="clip472">
    <rect x="178" y="47" width="2175" height="1440"/>
  </clipPath>
</defs>
<polyline clip-path="url(#clip472)" style="stroke:#000000; stroke-linecap:round; stroke-linejoin:round; stroke-width:2; stroke-opacity:0.1; fill:none" points="247.507,1486.45 247.507,47.2441 "/>
<polyline clip-path="url(#clip472)" style="stroke:#000000; stroke-linecap:round; stroke-linejoin:round; stroke-width:2; stroke-opacity:0.1; fill:none" points="586.942,1486.45 586.942,47.2441 "/>
<polyline clip-path="url(#clip472)" style="stroke:#000000; stroke-linecap:round; stroke-linejoin:round; stroke-width:2; stroke-opacity:0.1; fill:none" points="926.376,1486.45 926.376,47.2441 "/>
<polyline clip-path="url(#clip472)" style="stroke:#000000; stroke-linecap:round; stroke-linejoin:round; stroke-width:2; stroke-opacity:0.1; fill:none" points="1265.81,1486.45 1265.81,47.2441 "/>
<polyline clip-path="url(#clip472)" style="stroke:#000000; stroke-linecap:round; stroke-linejoin:round; stroke-width:2; stroke-opacity:0.1; fill:none" points="1605.25,1486.45 1605.25,47.2441 "/>
<polyline clip-path="url(#clip472)" style="stroke:#000000; stroke-linecap:round; stroke-linejoin:round; stroke-width:2; stroke-opacity:0.1; fill:none" points="1944.68,1486.45 1944.68,47.2441 "/>
<polyline clip-path="url(#clip472)" style="stroke:#000000; stroke-linecap:round; stroke-linejoin:round; stroke-width:2; stroke-opacity:0.1; fill:none" points="2284.12,1486.45 2284.12,47.2441 "/>
<polyline clip-path="url(#clip470)" style="stroke:#000000; stroke-linecap:round; stroke-linejoin:round; stroke-width:4; stroke-opacity:1; fill:none" points="178.867,1486.45 2352.76,1486.45 "/>
<polyline clip-path="url(#clip470)" style="stroke:#000000; stroke-linecap:round; stroke-linejoin:round; stroke-width:4; stroke-opacity:1; fill:none" points="247.507,1486.45 247.507,1467.55 "/>
<polyline clip-path="url(#clip470)" style="stroke:#000000; stroke-linecap:round; stroke-linejoin:round; stroke-width:4; stroke-opacity:1; fill:none" points="586.942,1486.45 586.942,1467.55 "/>
<polyline clip-path="url(#clip470)" style="stroke:#000000; stroke-linecap:round; stroke-linejoin:round; stroke-width:4; stroke-opacity:1; fill:none" points="926.376,1486.45 926.376,1467.55 "/>
<polyline clip-path="url(#clip470)" style="stroke:#000000; stroke-linecap:round; stroke-linejoin:round; stroke-width:4; stroke-opacity:1; fill:none" points="1265.81,1486.45 1265.81,1467.55 "/>
<polyline clip-path="url(#clip470)" style="stroke:#000000; stroke-linecap:round; stroke-linejoin:round; stroke-width:4; stroke-opacity:1; fill:none" points="1605.25,1486.45 1605.25,1467.55 "/>
<polyline clip-path="url(#clip470)" style="stroke:#000000; stroke-linecap:round; stroke-linejoin:round; stroke-width:4; stroke-opacity:1; fill:none" points="1944.68,1486.45 1944.68,1467.55 "/>
<polyline clip-path="url(#clip470)" style="stroke:#000000; stroke-linecap:round; stroke-linejoin:round; stroke-width:4; stroke-opacity:1; fill:none" points="2284.12,1486.45 2284.12,1467.55 "/>
<path clip-path="url(#clip470)" d="M201.569 1532.02 L231.245 1532.02 L231.245 1535.95 L201.569 1535.95 L201.569 1532.02 Z" fill="#000000" fill-rule="nonzero" fill-opacity="1" /><path clip-path="url(#clip470)" d="M255.504 1530.21 Q258.861 1530.93 260.736 1533.2 Q262.634 1535.47 262.634 1538.8 Q262.634 1543.92 259.115 1546.72 Q255.597 1549.52 249.115 1549.52 Q246.94 1549.52 244.625 1549.08 Q242.333 1548.66 239.879 1547.81 L239.879 1543.29 Q241.824 1544.43 244.139 1545.01 Q246.453 1545.58 248.977 1545.58 Q253.375 1545.58 255.666 1543.85 Q257.981 1542.11 257.981 1538.8 Q257.981 1535.75 255.828 1534.03 Q253.699 1532.3 249.879 1532.3 L245.852 1532.3 L245.852 1528.45 L250.065 1528.45 Q253.514 1528.45 255.342 1527.09 Q257.171 1525.7 257.171 1523.11 Q257.171 1520.45 255.273 1519.03 Q253.398 1517.6 249.879 1517.6 Q247.958 1517.6 245.759 1518.01 Q243.56 1518.43 240.921 1519.31 L240.921 1515.14 Q243.583 1514.4 245.898 1514.03 Q248.236 1513.66 250.296 1513.66 Q255.62 1513.66 258.722 1516.09 Q261.824 1518.5 261.824 1522.62 Q261.824 1525.49 260.18 1527.48 Q258.537 1529.45 255.504 1530.21 Z" fill="#000000" fill-rule="nonzero" fill-opacity="1" /><path clip-path="url(#clip470)" d="M281.5 1517.37 Q277.888 1517.37 276.06 1520.93 Q274.254 1524.47 274.254 1531.6 Q274.254 1538.71 276.06 1542.27 Q277.888 1545.82 281.5 1545.82 Q285.134 1545.82 286.939 1542.27 Q288.768 1538.71 288.768 1531.6 Q288.768 1524.47 286.939 1520.93 Q285.134 1517.37 281.5 1517.37 M281.5 1513.66 Q287.31 1513.66 290.365 1518.27 Q293.444 1522.85 293.444 1531.6 Q293.444 1540.33 290.365 1544.94 Q287.31 1549.52 281.5 1549.52 Q275.689 1549.52 272.611 1544.94 Q269.555 1540.33 269.555 1531.6 Q269.555 1522.85 272.611 1518.27 Q275.689 1513.66 281.5 1513.66 Z" fill="#000000" fill-rule="nonzero" fill-opacity="1" /><path clip-path="url(#clip470)" d="M541.004 1532.02 L570.68 1532.02 L570.68 1535.95 L541.004 1535.95 L541.004 1532.02 Z" fill="#000000" fill-rule="nonzero" fill-opacity="1" /><path clip-path="url(#clip470)" d="M584.8 1544.91 L601.12 1544.91 L601.12 1548.85 L579.175 1548.85 L579.175 1544.91 Q581.837 1542.16 586.421 1537.53 Q591.027 1532.88 592.208 1531.53 Q594.453 1529.01 595.333 1527.27 Q596.235 1525.51 596.235 1523.82 Q596.235 1521.07 594.291 1519.33 Q592.37 1517.6 589.268 1517.6 Q587.069 1517.6 584.615 1518.36 Q582.185 1519.13 579.407 1520.68 L579.407 1515.95 Q582.231 1514.82 584.685 1514.24 Q587.138 1513.66 589.175 1513.66 Q594.546 1513.66 597.74 1516.35 Q600.935 1519.03 600.935 1523.52 Q600.935 1525.65 600.124 1527.57 Q599.337 1529.47 597.231 1532.07 Q596.652 1532.74 593.55 1535.95 Q590.448 1539.15 584.8 1544.91 Z" fill="#000000" fill-rule="nonzero" fill-opacity="1" /><path clip-path="url(#clip470)" d="M620.934 1517.37 Q617.323 1517.37 615.495 1520.93 Q613.689 1524.47 613.689 1531.6 Q613.689 1538.71 615.495 1542.27 Q617.323 1545.82 620.934 1545.82 Q624.569 1545.82 626.374 1542.27 Q628.203 1538.71 628.203 1531.6 Q628.203 1524.47 626.374 1520.93 Q624.569 1517.37 620.934 1517.37 M620.934 1513.66 Q626.745 1513.66 629.8 1518.27 Q632.879 1522.85 632.879 1531.6 Q632.879 1540.33 629.8 1544.94 Q626.745 1549.52 620.934 1549.52 Q615.124 1549.52 612.046 1544.94 Q608.99 1540.33 608.99 1531.6 Q608.99 1522.85 612.046 1518.27 Q615.124 1513.66 620.934 1513.66 Z" fill="#000000" fill-rule="nonzero" fill-opacity="1" /><path clip-path="url(#clip470)" d="M880.439 1532.02 L910.115 1532.02 L910.115 1535.95 L880.439 1535.95 L880.439 1532.02 Z" fill="#000000" fill-rule="nonzero" fill-opacity="1" /><path clip-path="url(#clip470)" d="M921.018 1544.91 L928.656 1544.91 L928.656 1518.55 L920.346 1520.21 L920.346 1515.95 L928.61 1514.29 L933.286 1514.29 L933.286 1544.91 L940.925 1544.91 L940.925 1548.85 L921.018 1548.85 L921.018 1544.91 Z" fill="#000000" fill-rule="nonzero" fill-opacity="1" /><path clip-path="url(#clip470)" d="M960.369 1517.37 Q956.758 1517.37 954.93 1520.93 Q953.124 1524.47 953.124 1531.6 Q953.124 1538.71 954.93 1542.27 Q956.758 1545.82 960.369 1545.82 Q964.004 1545.82 965.809 1542.27 Q967.638 1538.71 967.638 1531.6 Q967.638 1524.47 965.809 1520.93 Q964.004 1517.37 960.369 1517.37 M960.369 1513.66 Q966.179 1513.66 969.235 1518.27 Q972.314 1522.85 972.314 1531.6 Q972.314 1540.33 969.235 1544.94 Q966.179 1549.52 960.369 1549.52 Q954.559 1549.52 951.48 1544.94 Q948.425 1540.33 948.425 1531.6 Q948.425 1522.85 951.48 1518.27 Q954.559 1513.66 960.369 1513.66 Z" fill="#000000" fill-rule="nonzero" fill-opacity="1" /><path clip-path="url(#clip470)" d="M1265.81 1517.37 Q1262.2 1517.37 1260.37 1520.93 Q1258.57 1524.47 1258.57 1531.6 Q1258.57 1538.71 1260.37 1542.27 Q1262.2 1545.82 1265.81 1545.82 Q1269.45 1545.82 1271.25 1542.27 Q1273.08 1538.71 1273.08 1531.6 Q1273.08 1524.47 1271.25 1520.93 Q1269.45 1517.37 1265.81 1517.37 M1265.81 1513.66 Q1271.62 1513.66 1274.68 1518.27 Q1277.76 1522.85 1277.76 1531.6 Q1277.76 1540.33 1274.68 1544.94 Q1271.62 1549.52 1265.81 1549.52 Q1260 1549.52 1256.92 1544.94 Q1253.87 1540.33 1253.87 1531.6 Q1253.87 1522.85 1256.92 1518.27 Q1260 1513.66 1265.81 1513.66 Z" fill="#000000" fill-rule="nonzero" fill-opacity="1" /><path clip-path="url(#clip470)" d="M1579.93 1544.91 L1587.57 1544.91 L1587.57 1518.55 L1579.26 1520.21 L1579.26 1515.95 L1587.53 1514.29 L1592.2 1514.29 L1592.2 1544.91 L1599.84 1544.91 L1599.84 1548.85 L1579.93 1548.85 L1579.93 1544.91 Z" fill="#000000" fill-rule="nonzero" fill-opacity="1" /><path clip-path="url(#clip470)" d="M1619.29 1517.37 Q1615.67 1517.37 1613.85 1520.93 Q1612.04 1524.47 1612.04 1531.6 Q1612.04 1538.71 1613.85 1542.27 Q1615.67 1545.82 1619.29 1545.82 Q1622.92 1545.82 1624.73 1542.27 Q1626.55 1538.71 1626.55 1531.6 Q1626.55 1524.47 1624.73 1520.93 Q1622.92 1517.37 1619.29 1517.37 M1619.29 1513.66 Q1625.1 1513.66 1628.15 1518.27 Q1631.23 1522.85 1631.23 1531.6 Q1631.23 1540.33 1628.15 1544.94 Q1625.1 1549.52 1619.29 1549.52 Q1613.48 1549.52 1610.4 1544.94 Q1607.34 1540.33 1607.34 1531.6 Q1607.34 1522.85 1610.4 1518.27 Q1613.48 1513.66 1619.29 1513.66 Z" fill="#000000" fill-rule="nonzero" fill-opacity="1" /><path clip-path="url(#clip470)" d="M1923.45 1544.91 L1939.77 1544.91 L1939.77 1548.85 L1917.83 1548.85 L1917.83 1544.91 Q1920.49 1542.16 1925.07 1537.53 Q1929.68 1532.88 1930.86 1531.53 Q1933.11 1529.01 1933.99 1527.27 Q1934.89 1525.51 1934.89 1523.82 Q1934.89 1521.07 1932.94 1519.33 Q1931.02 1517.6 1927.92 1517.6 Q1925.72 1517.6 1923.27 1518.36 Q1920.84 1519.13 1918.06 1520.68 L1918.06 1515.95 Q1920.88 1514.82 1923.34 1514.24 Q1925.79 1513.66 1927.83 1513.66 Q1933.2 1513.66 1936.39 1516.35 Q1939.59 1519.03 1939.59 1523.52 Q1939.59 1525.65 1938.78 1527.57 Q1937.99 1529.47 1935.88 1532.07 Q1935.31 1532.74 1932.2 1535.95 Q1929.1 1539.15 1923.45 1544.91 Z" fill="#000000" fill-rule="nonzero" fill-opacity="1" /><path clip-path="url(#clip470)" d="M1959.59 1517.37 Q1955.98 1517.37 1954.15 1520.93 Q1952.34 1524.47 1952.34 1531.6 Q1952.34 1538.71 1954.15 1542.27 Q1955.98 1545.82 1959.59 1545.82 Q1963.22 1545.82 1965.03 1542.27 Q1966.86 1538.71 1966.86 1531.6 Q1966.86 1524.47 1965.03 1520.93 Q1963.22 1517.37 1959.59 1517.37 M1959.59 1513.66 Q1965.4 1513.66 1968.45 1518.27 Q1971.53 1522.85 1971.53 1531.6 Q1971.53 1540.33 1968.45 1544.94 Q1965.4 1549.52 1959.59 1549.52 Q1953.78 1549.52 1950.7 1544.94 Q1947.64 1540.33 1947.64 1531.6 Q1947.64 1522.85 1950.7 1518.27 Q1953.78 1513.66 1959.59 1513.66 Z" fill="#000000" fill-rule="nonzero" fill-opacity="1" /><path clip-path="url(#clip470)" d="M2272.96 1530.21 Q2276.31 1530.93 2278.19 1533.2 Q2280.09 1535.47 2280.09 1538.8 Q2280.09 1543.92 2276.57 1546.72 Q2273.05 1549.52 2266.57 1549.52 Q2264.39 1549.52 2262.08 1549.08 Q2259.79 1548.66 2257.33 1547.81 L2257.33 1543.29 Q2259.28 1544.43 2261.59 1545.01 Q2263.91 1545.58 2266.43 1545.58 Q2270.83 1545.58 2273.12 1543.85 Q2275.44 1542.11 2275.44 1538.8 Q2275.44 1535.75 2273.28 1534.03 Q2271.15 1532.3 2267.33 1532.3 L2263.31 1532.3 L2263.31 1528.45 L2267.52 1528.45 Q2270.97 1528.45 2272.8 1527.09 Q2274.63 1525.7 2274.63 1523.11 Q2274.63 1520.45 2272.73 1519.03 Q2270.85 1517.6 2267.33 1517.6 Q2265.41 1517.6 2263.21 1518.01 Q2261.01 1518.43 2258.38 1519.31 L2258.38 1515.14 Q2261.04 1514.4 2263.35 1514.03 Q2265.69 1513.66 2267.75 1513.66 Q2273.07 1513.66 2276.18 1516.09 Q2279.28 1518.5 2279.28 1522.62 Q2279.28 1525.49 2277.63 1527.48 Q2275.99 1529.45 2272.96 1530.21 Z" fill="#000000" fill-rule="nonzero" fill-opacity="1" /><path clip-path="url(#clip470)" d="M2298.95 1517.37 Q2295.34 1517.37 2293.51 1520.93 Q2291.71 1524.47 2291.71 1531.6 Q2291.71 1538.71 2293.51 1542.27 Q2295.34 1545.82 2298.95 1545.82 Q2302.59 1545.82 2304.39 1542.27 Q2306.22 1538.71 2306.22 1531.6 Q2306.22 1524.47 2304.39 1520.93 Q2302.59 1517.37 2298.95 1517.37 M2298.95 1513.66 Q2304.76 1513.66 2307.82 1518.27 Q2310.9 1522.85 2310.9 1531.6 Q2310.9 1540.33 2307.82 1544.94 Q2304.76 1549.52 2298.95 1549.52 Q2293.14 1549.52 2290.06 1544.94 Q2287.01 1540.33 2287.01 1531.6 Q2287.01 1522.85 2290.06 1518.27 Q2293.14 1513.66 2298.95 1513.66 Z" fill="#000000" fill-rule="nonzero" fill-opacity="1" /><polyline clip-path="url(#clip472)" style="stroke:#000000; stroke-linecap:round; stroke-linejoin:round; stroke-width:2; stroke-opacity:0.1; fill:none" points="178.867,1445.72 2352.76,1445.72 "/>
<polyline clip-path="url(#clip472)" style="stroke:#000000; stroke-linecap:round; stroke-linejoin:round; stroke-width:2; stroke-opacity:0.1; fill:none" points="178.867,1106.28 2352.76,1106.28 "/>
<polyline clip-path="url(#clip472)" style="stroke:#000000; stroke-linecap:round; stroke-linejoin:round; stroke-width:2; stroke-opacity:0.1; fill:none" points="178.867,766.846 2352.76,766.846 "/>
<polyline clip-path="url(#clip472)" style="stroke:#000000; stroke-linecap:round; stroke-linejoin:round; stroke-width:2; stroke-opacity:0.1; fill:none" points="178.867,427.411 2352.76,427.411 "/>
<polyline clip-path="url(#clip472)" style="stroke:#000000; stroke-linecap:round; stroke-linejoin:round; stroke-width:2; stroke-opacity:0.1; fill:none" points="178.867,87.9763 2352.76,87.9763 "/>
<polyline clip-path="url(#clip470)" style="stroke:#000000; stroke-linecap:round; stroke-linejoin:round; stroke-width:4; stroke-opacity:1; fill:none" points="178.867,1486.45 178.867,47.2441 "/>
<polyline clip-path="url(#clip470)" style="stroke:#000000; stroke-linecap:round; stroke-linejoin:round; stroke-width:4; stroke-opacity:1; fill:none" points="178.867,1445.72 197.764,1445.72 "/>
<polyline clip-path="url(#clip470)" style="stroke:#000000; stroke-linecap:round; stroke-linejoin:round; stroke-width:4; stroke-opacity:1; fill:none" points="178.867,1106.28 197.764,1106.28 "/>
<polyline clip-path="url(#clip470)" style="stroke:#000000; stroke-linecap:round; stroke-linejoin:round; stroke-width:4; stroke-opacity:1; fill:none" points="178.867,766.846 197.764,766.846 "/>
<polyline clip-path="url(#clip470)" style="stroke:#000000; stroke-linecap:round; stroke-linejoin:round; stroke-width:4; stroke-opacity:1; fill:none" points="178.867,427.411 197.764,427.411 "/>
<polyline clip-path="url(#clip470)" style="stroke:#000000; stroke-linecap:round; stroke-linejoin:round; stroke-width:4; stroke-opacity:1; fill:none" points="178.867,87.9763 197.764,87.9763 "/>
<path clip-path="url(#clip470)" d="M50.9921 1446.17 L80.6679 1446.17 L80.6679 1450.1 L50.9921 1450.1 L50.9921 1446.17 Z" fill="#000000" fill-rule="nonzero" fill-opacity="1" /><path clip-path="url(#clip470)" d="M94.7882 1459.06 L111.108 1459.06 L111.108 1463 L89.1632 1463 L89.1632 1459.06 Q91.8252 1456.31 96.4085 1451.68 Q101.015 1447.02 102.196 1445.68 Q104.441 1443.16 105.321 1441.42 Q106.223 1439.66 106.223 1437.97 Q106.223 1435.22 104.279 1433.48 Q102.358 1431.75 99.2558 1431.75 Q97.0567 1431.75 94.603 1432.51 Q92.1725 1433.27 89.3947 1434.82 L89.3947 1430.1 Q92.2188 1428.97 94.6724 1428.39 Q97.1261 1427.81 99.1632 1427.81 Q104.534 1427.81 107.728 1430.5 Q110.922 1433.18 110.922 1437.67 Q110.922 1439.8 110.112 1441.72 Q109.325 1443.62 107.219 1446.21 Q106.64 1446.88 103.538 1450.1 Q100.436 1453.3 94.7882 1459.06 Z" fill="#000000" fill-rule="nonzero" fill-opacity="1" /><path clip-path="url(#clip470)" d="M130.922 1431.51 Q127.311 1431.51 125.482 1435.08 Q123.677 1438.62 123.677 1445.75 Q123.677 1452.86 125.482 1456.42 Q127.311 1459.96 130.922 1459.96 Q134.556 1459.96 136.362 1456.42 Q138.191 1452.86 138.191 1445.75 Q138.191 1438.62 136.362 1435.08 Q134.556 1431.51 130.922 1431.51 M130.922 1427.81 Q136.732 1427.81 139.788 1432.42 Q142.867 1437 142.867 1445.75 Q142.867 1454.48 139.788 1459.08 Q136.732 1463.67 130.922 1463.67 Q125.112 1463.67 122.033 1459.08 Q118.978 1454.48 118.978 1445.75 Q118.978 1437 122.033 1432.42 Q125.112 1427.81 130.922 1427.81 Z" fill="#000000" fill-rule="nonzero" fill-opacity="1" /><path clip-path="url(#clip470)" d="M50.9921 1106.73 L80.6679 1106.73 L80.6679 1110.67 L50.9921 1110.67 L50.9921 1106.73 Z" fill="#000000" fill-rule="nonzero" fill-opacity="1" /><path clip-path="url(#clip470)" d="M91.5706 1119.63 L99.2095 1119.63 L99.2095 1093.26 L90.8993 1094.93 L90.8993 1090.67 L99.1632 1089 L103.839 1089 L103.839 1119.63 L111.478 1119.63 L111.478 1123.56 L91.5706 1123.56 L91.5706 1119.63 Z" fill="#000000" fill-rule="nonzero" fill-opacity="1" /><path clip-path="url(#clip470)" d="M130.922 1092.08 Q127.311 1092.08 125.482 1095.64 Q123.677 1099.19 123.677 1106.32 Q123.677 1113.42 125.482 1116.99 Q127.311 1120.53 130.922 1120.53 Q134.556 1120.53 136.362 1116.99 Q138.191 1113.42 138.191 1106.32 Q138.191 1099.19 136.362 1095.64 Q134.556 1092.08 130.922 1092.08 M130.922 1088.38 Q136.732 1088.38 139.788 1092.98 Q142.867 1097.57 142.867 1106.32 Q142.867 1115.04 139.788 1119.65 Q136.732 1124.23 130.922 1124.23 Q125.112 1124.23 122.033 1119.65 Q118.978 1115.04 118.978 1106.32 Q118.978 1097.57 122.033 1092.98 Q125.112 1088.38 130.922 1088.38 Z" fill="#000000" fill-rule="nonzero" fill-opacity="1" /><path clip-path="url(#clip470)" d="M130.922 752.645 Q127.311 752.645 125.482 756.209 Q123.677 759.751 123.677 766.881 Q123.677 773.987 125.482 777.552 Q127.311 781.094 130.922 781.094 Q134.556 781.094 136.362 777.552 Q138.191 773.987 138.191 766.881 Q138.191 759.751 136.362 756.209 Q134.556 752.645 130.922 752.645 M130.922 748.941 Q136.732 748.941 139.788 753.547 Q142.867 758.131 142.867 766.881 Q142.867 775.608 139.788 780.214 Q136.732 784.797 130.922 784.797 Q125.112 784.797 122.033 780.214 Q118.978 775.608 118.978 766.881 Q118.978 758.131 122.033 753.547 Q125.112 748.941 130.922 748.941 Z" fill="#000000" fill-rule="nonzero" fill-opacity="1" /><path clip-path="url(#clip470)" d="M91.5706 440.756 L99.2095 440.756 L99.2095 414.39 L90.8993 416.057 L90.8993 411.798 L99.1632 410.131 L103.839 410.131 L103.839 440.756 L111.478 440.756 L111.478 444.691 L91.5706 444.691 L91.5706 440.756 Z" fill="#000000" fill-rule="nonzero" fill-opacity="1" /><path clip-path="url(#clip470)" d="M130.922 413.21 Q127.311 413.21 125.482 416.775 Q123.677 420.316 123.677 427.446 Q123.677 434.552 125.482 438.117 Q127.311 441.659 130.922 441.659 Q134.556 441.659 136.362 438.117 Q138.191 434.552 138.191 427.446 Q138.191 420.316 136.362 416.775 Q134.556 413.21 130.922 413.21 M130.922 409.506 Q136.732 409.506 139.788 414.113 Q142.867 418.696 142.867 427.446 Q142.867 436.173 139.788 440.779 Q136.732 445.362 130.922 445.362 Q125.112 445.362 122.033 440.779 Q118.978 436.173 118.978 427.446 Q118.978 418.696 122.033 414.113 Q125.112 409.506 130.922 409.506 Z" fill="#000000" fill-rule="nonzero" fill-opacity="1" /><path clip-path="url(#clip470)" d="M94.7882 101.321 L111.108 101.321 L111.108 105.256 L89.1632 105.256 L89.1632 101.321 Q91.8252 98.5665 96.4085 93.9369 Q101.015 89.2841 102.196 87.9416 Q104.441 85.4184 105.321 83.6823 Q106.223 81.9231 106.223 80.2333 Q106.223 77.4786 104.279 75.7425 Q102.358 74.0064 99.2558 74.0064 Q97.0567 74.0064 94.603 74.7703 Q92.1725 75.5342 89.3947 77.0851 L89.3947 72.3629 Q92.2188 71.2287 94.6724 70.65 Q97.1261 70.0713 99.1632 70.0713 Q104.534 70.0713 107.728 72.7565 Q110.922 75.4416 110.922 79.9323 Q110.922 82.062 110.112 83.9832 Q109.325 85.8814 107.219 88.474 Q106.64 89.1453 103.538 92.3628 Q100.436 95.5573 94.7882 101.321 Z" fill="#000000" fill-rule="nonzero" fill-opacity="1" /><path clip-path="url(#clip470)" d="M130.922 73.775 Q127.311 73.775 125.482 77.3398 Q123.677 80.8814 123.677 88.011 Q123.677 95.1174 125.482 98.6822 Q127.311 102.224 130.922 102.224 Q134.556 102.224 136.362 98.6822 Q138.191 95.1174 138.191 88.011 Q138.191 80.8814 136.362 77.3398 Q134.556 73.775 130.922 73.775 M130.922 70.0713 Q136.732 70.0713 139.788 74.6777 Q142.867 79.261 142.867 88.011 Q142.867 96.7378 139.788 101.344 Q136.732 105.928 130.922 105.928 Q125.112 105.928 122.033 101.344 Q118.978 96.7378 118.978 88.011 Q118.978 79.261 122.033 74.6777 Q125.112 70.0713 130.922 70.0713 Z" fill="#000000" fill-rule="nonzero" fill-opacity="1" /><polyline clip-path="url(#clip472)" style="stroke:#0000ff; stroke-linecap:round; stroke-linejoin:round; stroke-width:4; stroke-opacity:1; fill:none" points="1153.63,1007.84 1153.8,1009.02 1154.13,1011.24 1154.74,1014.63 1155.45,1018.03 1156.27,1021.42 1157.19,1024.82 1158.25,1028.21 1159.42,1031.61 1160.59,1034.71 1160.7,1035 1162.13,1038.39 1163.67,1041.79 1163.98,1042.44 1165.36,1045.18 1167.18,1048.58 1167.38,1048.91 1169.18,1051.97 1170.77,1054.51 1171.32,1055.37 1173.65,1058.76 1174.16,1059.47 1176.17,1062.15 1177.56,1063.92 1178.89,1065.55 1180.95,1067.96 1181.83,1068.94 1184.35,1071.64 1185.02,1072.34 1187.74,1075.02 1188.5,1075.73 1191.14,1078.12 1192.29,1079.13 1194.53,1080.99 1196.46,1082.52 1197.92,1083.64 1201.06,1085.91 1201.32,1086.1 1204.71,1088.35 1206.23,1089.31 1208.11,1090.45 1211.5,1092.39 1212.09,1092.7 1214.9,1094.16 1218.29,1095.81 1218.92,1096.1 1221.68,1097.31 1225.08,1098.68 1227.24,1099.49 1228.47,1099.94 1231.87,1101.06 1235.26,1102.07 1238.32,1102.89 1238.66,1102.97 1242.05,1103.75 1245.45,1104.42 1248.84,1104.99 1252.23,1105.45 1255.63,1105.82 1259.02,1106.07 1262.42,1106.23 1265.81,1106.28 1269.21,1106.23 1272.6,1106.07 1275.99,1105.82 1279.39,1105.45 1282.78,1104.99 1286.18,1104.42 1289.57,1103.75 1292.97,1102.97 1293.3,1102.89 1296.36,1102.07 1299.75,1101.06 1303.15,1099.94 1304.38,1099.49 1306.54,1098.68 1309.94,1097.31 1312.7,1096.1 1313.33,1095.81 1316.73,1094.16 1319.54,1092.7 1320.12,1092.39 1323.52,1090.45 1325.39,1089.31 1326.91,1088.35 1330.3,1086.1 1330.56,1085.91 1333.7,1083.64 1335.16,1082.52 1337.09,1080.99 1339.33,1079.13 1340.49,1078.12 1343.13,1075.73 1343.88,1075.02 1346.6,1072.34 1347.28,1071.64 1349.79,1068.94 1350.67,1067.96 1352.73,1065.55 1354.06,1063.92 1355.45,1062.15 1357.46,1059.47 1357.97,1058.76 1360.3,1055.37 1360.85,1054.51 1362.44,1051.97 1364.25,1048.91 1364.44,1048.58 1366.26,1045.18 1367.64,1042.44 1367.96,1041.79 1369.5,1038.39 1370.92,1035 1371.04,1034.71 1372.2,1031.61 1373.37,1028.21 1374.43,1024.82 1375.35,1021.42 1376.17,1018.03 1376.88,1014.63 1377.49,1011.24 1377.82,1009.02 1377.99,1007.84 1378.38,1004.45 1378.67,1001.06 1378.85,997.662 1378.94,994.267 1378.92,990.873 1378.8,987.479 1378.58,984.084 1378.26,980.69 1377.84,977.296 1377.82,977.186 1377.3,973.901 1376.66,970.507 1375.91,967.113 1375.06,963.718 1374.43,961.496 1374.09,960.324 1372.99,956.93 1371.79,953.535 1371.04,951.582 1370.46,950.141 1369,946.746 1367.64,943.831 1367.41,943.352 1365.67,939.958 1364.25,937.368 1363.79,936.563 1361.75,933.169 1360.85,931.768 1359.54,929.775 1357.46,926.794 1357.16,926.38 1354.58,922.986 1354.06,922.345 1351.78,919.592 1350.67,918.316 1348.75,916.197 1347.28,914.634 1345.47,912.803 1343.88,911.258 1341.89,909.409 1340.49,908.15 1337.99,906.014 1337.09,905.279 1333.7,902.62 1330.3,900.183 1328.9,899.226 1326.91,897.92 1323.55,895.831 1323.52,895.812 1320.12,893.892 1317.38,892.437 1316.73,892.099 1313.33,890.468 1310.15,889.043 1309.94,888.952 1306.54,887.59 1303.15,886.338 1301.1,885.648 1299.75,885.209 1296.36,884.206 1292.97,883.309 1289.57,882.518 1288.27,882.254 1286.18,881.844 1282.78,881.282 1279.39,880.821 1275.99,880.463 1272.6,880.207 1269.21,880.053 1265.81,880.002 1262.42,880.053 1259.02,880.207 1255.63,880.463 1252.23,880.821 1248.84,881.282 1245.45,881.844 1243.36,882.254 1242.05,882.518 1238.66,883.309 1235.26,884.206 1231.87,885.209 1230.52,885.648 1228.47,886.338 1225.08,887.59 1221.68,888.952 1221.48,889.043 1218.29,890.468 1214.9,892.099 1214.24,892.437 1211.5,893.892 1208.11,895.812 1208.08,895.831 1204.71,897.92 1202.73,899.226 1201.32,900.183 1197.92,902.62 1194.53,905.279 1193.64,906.014 1191.14,908.15 1189.73,909.409 1187.74,911.258 1186.15,912.803 1184.35,914.634 1182.87,916.197 1180.95,918.316 1179.84,919.592 1177.56,922.345 1177.05,922.986 1174.46,926.38 1174.16,926.794 1172.09,929.775 1170.77,931.768 1169.88,933.169 1167.83,936.563 1167.38,937.368 1165.96,939.958 1164.21,943.352 1163.98,943.831 1162.63,946.746 1161.16,950.141 1160.59,951.582 1159.83,953.535 1158.63,956.93 1157.53,960.324 1157.19,961.496 1156.57,963.718 1155.71,967.113 1154.96,970.507 1154.32,973.901 1153.8,977.186 1153.78,977.296 1153.36,980.69 1153.04,984.084 1152.82,987.479 1152.7,990.873 1152.68,994.267 1152.77,997.662 1152.95,1001.06 1153.24,1004.45 1153.63,1007.84 "/>
<polyline clip-path="url(#clip472)" style="stroke:#0000ff; stroke-linecap:round; stroke-linejoin:round; stroke-width:4; stroke-opacity:1; fill:none" points="1374.25,661.621 1374.43,662.409 1375.08,665.016 1376.19,668.41 1377.57,671.804 1377.82,672.326 1379.34,675.199 1381.22,678.196 1381.49,678.593 1384.16,681.987 1384.61,682.489 1387.47,685.382 1388.01,685.863 1391.4,688.607 1391.64,688.776 1394.8,690.835 1397.14,692.17 1398.19,692.714 1401.59,694.251 1404.98,695.552 1405.02,695.565 1408.37,696.568 1411.77,697.389 1415.16,698.027 1418.56,698.492 1421.95,698.794 1425.35,698.941 1428.74,698.941 1432.13,698.803 1435.53,698.532 1438.92,698.136 1442.32,697.621 1445.71,696.993 1449.11,696.257 1451.9,695.565 1452.5,695.41 1455.89,694.428 1459.29,693.35 1462.68,692.179 1462.71,692.17 1466.08,690.861 1469.47,689.457 1471.01,688.776 1472.87,687.932 1476.26,686.294 1478.05,685.382 1479.66,684.54 1483.05,682.669 1484.23,681.987 1486.44,680.665 1489.79,678.593 1489.84,678.559 1493.23,676.282 1494.79,675.199 1496.63,673.879 1499.42,671.804 1500.02,671.341 1503.42,668.638 1503.69,668.41 1506.81,665.748 1507.64,665.016 1510.2,662.677 1511.33,661.621 1513.6,659.402 1514.77,658.227 1516.99,655.901 1517.99,654.832 1520.39,652.141 1521,651.438 1523.78,648.09 1523.82,648.044 1526.43,644.649 1527.18,643.634 1528.87,641.255 1530.57,638.754 1531.16,637.861 1533.27,634.466 1533.96,633.28 1535.22,631.072 1537.03,627.678 1537.36,627 1538.66,624.283 1540.15,620.889 1540.75,619.373 1541.48,617.495 1542.66,614.1 1543.69,610.706 1544.15,608.927 1544.55,607.312 1545.25,603.917 1545.79,600.523 1546.15,597.129 1546.34,593.734 1546.34,590.34 1546.14,586.946 1545.72,583.551 1545.08,580.157 1544.2,576.762 1544.15,576.616 1543,573.368 1541.5,569.974 1540.75,568.542 1539.64,566.579 1537.36,563.185 1534.51,559.791 1533.96,559.219 1530.99,556.396 1530.57,556.043 1527.18,553.463 1526.49,553.002 1523.78,551.345 1520.51,549.608 1520.39,549.548 1516.99,548.107 1513.6,546.893 1511.31,546.213 1510.2,545.911 1506.81,545.156 1503.42,544.577 1500.02,544.166 1496.63,543.913 1493.23,543.81 1489.84,543.849 1486.44,544.023 1483.05,544.326 1479.66,544.75 1476.26,545.291 1472.87,545.942 1471.66,546.213 1469.47,546.722 1466.08,547.619 1462.68,548.615 1459.6,549.608 1459.29,549.711 1455.89,550.948 1452.5,552.273 1450.76,553.002 1449.11,553.715 1445.71,555.275 1443.4,556.396 1442.32,556.938 1438.92,558.733 1437.01,559.791 1435.53,560.639 1432.13,562.668 1431.31,563.185 1428.74,564.841 1426.14,566.579 1425.35,567.13 1421.95,569.569 1421.41,569.974 1418.56,572.174 1417.06,573.368 1415.16,574.932 1413.01,576.762 1411.77,577.861 1409.25,580.157 1408.37,580.981 1405.73,583.551 1404.98,584.316 1402.46,586.946 1401.59,587.893 1399.39,590.34 1398.19,591.745 1396.53,593.734 1394.8,595.91 1393.85,597.129 1391.4,600.434 1391.34,600.523 1389.03,603.917 1388.01,605.497 1386.87,607.312 1384.86,610.706 1384.61,611.149 1383.03,614.1 1381.33,617.495 1381.22,617.736 1379.81,620.889 1378.43,624.283 1377.82,625.941 1377.21,627.678 1376.15,631.072 1375.23,634.466 1374.47,637.861 1374.43,638.07 1373.89,641.255 1373.48,644.649 1373.24,648.044 1373.19,651.438 1373.33,654.832 1373.68,658.227 1374.25,661.621 "/>
<polyline clip-path="url(#clip472)" style="stroke:#0000ff; stroke-linecap:round; stroke-linejoin:round; stroke-width:4; stroke-opacity:1; fill:none" points="1123.25,696.568 1119.85,697.389 1116.46,698.027 1113.07,698.492 1109.67,698.794 1106.28,698.941 1102.88,698.941 1099.49,698.803 1096.09,698.532 1092.7,698.136 1089.31,697.621 1085.91,696.993 1082.52,696.257 1079.73,695.565 1079.12,695.41 1075.73,694.428 1072.33,693.35 1068.94,692.179 1068.92,692.17 1065.54,690.861 1062.15,689.457 1060.61,688.776 1058.76,687.932 1055.36,686.294 1053.57,685.382 1051.97,684.54 1048.57,682.669 1047.39,681.987 1045.18,680.665 1041.84,678.593 1041.78,678.559 1038.39,676.282 1036.83,675.199 1035,673.879 1032.2,671.804 1031.6,671.341 1028.21,668.638 1027.93,668.41 1024.81,665.748 1023.98,665.016 1021.42,662.677 1020.3,661.621 1018.02,659.402 1016.85,658.227 1014.63,655.901 1013.64,654.832 1011.24,652.141 1010.62,651.438 1007.84,648.09 1007.8,648.044 1005.19,644.649 1004.45,643.634 1002.75,641.255 1001.05,638.754 1000.46,637.861 998.35,634.466 997.658,633.28 996.402,631.072 994.595,627.678 994.263,627 992.965,624.283 991.472,620.889 990.869,619.373 990.14,617.495 988.967,614.1 987.934,610.706 987.475,608.927 987.068,607.312 986.372,603.917 985.837,600.523 985.47,597.129 985.282,593.734 985.284,590.34 985.487,586.946 985.902,583.551 986.544,580.157 987.427,576.762 987.475,576.616 988.625,573.368 990.118,569.974 990.869,568.542 991.987,566.579 994.263,563.185 997.113,559.791 997.658,559.219 1000.63,556.396 1001.05,556.043 1004.45,553.463 1005.13,553.002 1007.84,551.345 1011.11,549.608 1011.24,549.548 1014.63,548.107 1018.02,546.893 1020.32,546.213 1021.42,545.911 1024.81,545.156 1028.21,544.577 1031.6,544.166 1035,543.913 1038.39,543.81 1041.78,543.849 1045.18,544.023 1048.57,544.326 1051.97,544.75 1055.36,545.291 1058.76,545.942 1059.96,546.213 1062.15,546.722 1065.54,547.619 1068.94,548.615 1072.02,549.608 1072.33,549.711 1075.73,550.948 1079.12,552.273 1080.87,553.002 1082.52,553.715 1085.91,555.275 1088.22,556.396 1089.31,556.938 1092.7,558.733 1094.61,559.791 1096.09,560.639 1099.49,562.668 1100.32,563.185 1102.88,564.841 1105.48,566.579 1106.28,567.13 1109.67,569.569 1110.21,569.974 1113.07,572.174 1114.57,573.368 1116.46,574.932 1118.61,576.762 1119.85,577.861 1122.38,580.157 1123.25,580.981 1125.89,583.551 1126.64,584.316 1129.17,586.946 1130.04,587.893 1132.23,590.34 1133.43,591.745 1135.09,593.734 1136.83,595.91 1137.77,597.129 1140.22,600.434 1140.28,600.523 1142.6,603.917 1143.61,605.497 1144.76,607.312 1146.77,610.706 1147.01,611.149 1148.59,614.1 1150.29,617.495 1150.4,617.736 1151.81,620.889 1153.19,624.283 1153.8,625.941 1154.42,627.678 1155.48,631.072 1156.39,634.466 1157.16,637.861 1157.19,638.07 1157.73,641.255 1158.14,644.649 1158.38,648.044 1158.43,651.438 1158.29,654.832 1157.94,658.227 1157.37,661.621 1157.19,662.409 1156.54,665.016 1155.44,668.41 1154.05,671.804 1153.8,672.326 1152.28,675.199 1150.4,678.196 1150.13,678.593 1147.46,681.987 1147.01,682.489 1144.15,685.382 1143.61,685.863 1140.22,688.607 1139.99,688.776 1136.83,690.835 1134.48,692.17 1133.43,692.714 1130.04,694.251 1126.64,695.552 1126.6,695.565 1123.25,696.568 "/>
<polyline clip-path="url(#clip472)" style="stroke:#0000ff; stroke-linecap:round; stroke-linejoin:round; stroke-width:4; stroke-opacity:1; fill:none" points="1523.78,507.948 1520.39,508.274 1516.99,508.488 1513.6,508.584 1510.2,508.556 1506.81,508.4 1503.42,508.108 1500.02,507.674 1496.63,507.091 1493.23,506.35 1489.97,505.481 1489.84,505.443 1486.44,504.328 1483.05,503.023 1480.93,502.087 1479.66,501.496 1476.26,499.713 1474.53,498.692 1472.87,497.657 1469.47,495.298 1466.08,492.549 1465.35,491.904 1462.68,489.375 1461.84,488.509 1459.29,485.682 1458.81,485.115 1456.18,481.721 1455.89,481.327 1453.88,478.326 1452.5,476.08 1451.84,474.932 1450.05,471.538 1449.11,469.583 1448.45,468.143 1447.06,464.749 1445.81,461.355 1445.71,461.044 1444.75,457.96 1443.81,454.566 1443,451.172 1442.32,447.836 1442.31,447.777 1441.74,444.383 1441.28,440.989 1440.92,437.594 1440.65,434.2 1440.47,430.805 1440.37,427.411 1440.36,424.017 1440.43,420.622 1440.58,417.228 1440.8,413.834 1441.09,410.439 1441.45,407.045 1441.87,403.651 1442.32,400.547 1442.36,400.256 1442.92,396.862 1443.55,393.468 1444.23,390.073 1444.97,386.679 1445.71,383.503 1445.76,383.285 1446.63,379.89 1447.55,376.496 1448.52,373.102 1449.11,371.152 1449.55,369.707 1450.64,366.313 1451.77,362.919 1452.5,360.84 1452.97,359.524 1454.22,356.13 1455.52,352.735 1455.89,351.784 1456.88,349.341 1458.29,345.947 1459.29,343.609 1459.75,342.552 1461.27,339.158 1462.68,336.086 1462.83,335.764 1464.47,332.369 1466.08,329.095 1466.14,328.975 1467.88,325.581 1469.47,322.544 1469.66,322.186 1471.52,318.792 1472.87,316.362 1473.41,315.398 1475.37,312.003 1476.26,310.492 1477.39,308.609 1479.45,305.215 1479.66,304.888 1481.59,301.82 1483.05,299.548 1483.78,298.426 1486.03,295.032 1486.44,294.421 1488.35,291.637 1489.84,289.506 1490.73,288.243 1493.17,284.848 1493.23,284.762 1495.69,281.454 1496.63,280.213 1498.28,278.06 1500.02,275.814 1500.93,274.665 1503.42,271.559 1503.65,271.271 1506.46,267.877 1506.81,267.454 1509.35,264.482 1510.2,263.488 1512.32,261.088 1513.6,259.646 1515.37,257.694 1516.99,255.925 1518.51,254.299 1520.39,252.32 1521.75,250.905 1523.78,248.827 1525.09,247.511 1527.18,245.442 1528.54,244.116 1530.57,242.162 1532.1,240.722 1533.96,238.984 1535.78,237.328 1537.36,235.903 1539.59,233.933 1540.75,232.917 1543.54,230.539 1544.15,230.022 1547.54,227.219 1547.63,227.145 1550.94,224.515 1551.92,223.75 1554.33,221.897 1556.38,220.356 1557.73,219.361 1561.04,216.962 1561.12,216.904 1564.51,214.548 1565.97,213.567 1567.91,212.27 1571.13,210.173 1571.3,210.064 1574.7,207.959 1576.66,206.778 1578.09,205.925 1581.49,203.974 1582.55,203.384 1584.88,202.111 1588.27,200.32 1588.93,199.99 1591.67,198.624 1595.06,196.998 1595.95,196.595 1598.46,195.467 1601.85,194.013 1603.85,193.201 1605.25,192.643 1608.64,191.366 1612.03,190.164 1613.13,189.807 1615.43,189.061 1618.82,188.047 1622.22,187.118 1625.07,186.412 1625.61,186.281 1629.01,185.551 1632.4,184.916 1635.8,184.379 1639.19,183.946 1642.58,183.619 1645.98,183.406 1649.37,183.31 1652.77,183.337 1656.16,183.493 1659.56,183.785 1662.95,184.219 1666.34,184.803 1669.74,185.543 1673,186.412 1673.13,186.45 1676.53,187.565 1679.92,188.871 1682.04,189.807 1683.32,190.398 1686.71,192.18 1688.44,193.201 1690.1,194.237 1693.5,196.595 1693.5,196.595 1696.89,199.344 1697.62,199.99 1700.29,202.519 1701.13,203.384 1703.68,206.212 1704.16,206.778 1706.79,210.173 1707.08,210.567 1709.09,213.567 1710.47,215.814 1711.13,216.962 1712.93,220.356 1713.87,222.311 1714.52,223.75 1715.91,227.145 1717.16,230.539 1717.26,230.849 1718.22,233.933 1719.16,237.328 1719.97,240.722 1720.65,244.058 1720.67,244.116 1721.23,247.511 1721.69,250.905 1722.05,254.299 1722.32,257.694 1722.5,261.088 1722.6,264.482 1722.61,267.877 1722.54,271.271 1722.39,274.665 1722.17,278.06 1721.88,281.454 1721.52,284.848 1721.1,288.243 1720.65,291.347 1720.61,291.637 1720.05,295.032 1719.42,298.426 1718.74,301.82 1718,305.215 1717.26,308.39 1717.21,308.609 1716.34,312.003 1715.42,315.398 1714.45,318.792 1713.87,320.742 1713.42,322.186 1712.33,325.581 1711.2,328.975 1710.47,331.054 1710,332.369 1708.75,335.764 1707.45,339.158 1707.08,340.11 1706.09,342.552 1704.68,345.947 1703.68,348.284 1703.22,349.341 1701.7,352.735 1700.29,355.808 1700.14,356.13 1698.5,359.524 1696.89,362.799 1696.83,362.919 1695.09,366.313 1693.5,369.35 1693.31,369.707 1691.46,373.102 1690.1,375.532 1689.56,376.496 1687.6,379.89 1686.71,381.402 1685.58,383.285 1683.52,386.679 1683.32,387.006 1681.38,390.073 1679.92,392.345 1679.19,393.468 1676.94,396.862 1676.53,397.473 1674.62,400.256 1673.13,402.388 1672.24,403.651 1669.8,407.045 1669.74,407.131 1667.28,410.439 1666.34,411.681 1664.69,413.834 1662.95,416.08 1662.04,417.228 1659.56,420.335 1659.32,420.622 1656.52,424.017 1656.16,424.439 1653.63,427.411 1652.77,428.406 1650.66,430.805 1649.37,432.247 1647.6,434.2 1645.98,435.969 1644.46,437.594 1642.58,439.574 1641.22,440.989 1639.19,443.067 1637.88,444.383 1635.8,446.451 1634.43,447.777 1632.4,449.731 1630.87,451.172 1629.01,452.91 1627.19,454.566 1625.61,455.991 1623.38,457.96 1622.22,458.977 1619.43,461.355 1618.82,461.871 1615.43,464.675 1615.34,464.749 1612.03,467.378 1611.05,468.143 1608.64,469.996 1606.59,471.538 1605.25,472.533 1601.93,474.932 1601.85,474.989 1598.46,477.345 1597,478.326 1595.06,479.624 1591.84,481.721 1591.67,481.829 1588.27,483.935 1586.31,485.115 1584.88,485.968 1581.49,487.919 1580.42,488.509 1578.09,489.783 1574.7,491.573 1574.04,491.904 1571.3,493.27 1567.91,494.895 1567.02,495.298 1564.51,496.427 1561.12,497.881 1559.12,498.692 1557.73,499.251 1554.33,500.528 1550.94,501.729 1549.85,502.087 1547.54,502.833 1544.15,503.847 1540.75,504.776 1537.9,505.481 1537.36,505.613 1533.96,506.342 1530.57,506.978 1527.18,507.514 1523.78,507.948 "/>
<polyline clip-path="url(#clip472)" style="stroke:#0000ff; stroke-linecap:round; stroke-linejoin:round; stroke-width:4; stroke-opacity:1; fill:none" points="1038.39,506.35 1035,507.091 1031.6,507.674 1028.21,508.108 1024.81,508.4 1021.42,508.556 1018.02,508.584 1014.63,508.488 1011.24,508.274 1007.84,507.948 1004.45,507.514 1001.05,506.978 997.658,506.342 994.263,505.613 993.724,505.481 990.869,504.776 987.475,503.847 984.08,502.833 981.777,502.087 980.686,501.729 977.292,500.528 973.897,499.251 972.506,498.692 970.503,497.881 967.109,496.427 964.6,495.298 963.714,494.895 960.32,493.27 957.581,491.904 956.926,491.573 953.531,489.783 951.204,488.509 950.137,487.919 946.743,485.968 945.31,485.115 943.348,483.935 939.954,481.829 939.785,481.721 936.559,479.624 934.618,478.326 933.165,477.345 929.771,474.989 929.691,474.932 926.376,472.533 925.036,471.538 922.982,469.996 920.572,468.143 919.588,467.378 916.285,464.749 916.193,464.675 912.799,461.871 912.188,461.355 909.405,458.977 908.241,457.96 906.01,455.991 904.431,454.566 902.616,452.91 900.75,451.172 899.222,449.731 897.19,447.777 895.827,446.451 893.744,444.383 892.433,443.067 890.404,440.989 889.039,439.574 887.165,437.594 885.644,435.969 884.021,434.2 882.25,432.247 880.966,430.805 878.856,428.406 877.997,427.411 875.461,424.439 875.107,424.017 872.301,420.622 872.067,420.335 869.58,417.228 868.672,416.08 866.928,413.834 865.278,411.681 864.343,410.439 861.884,407.131 861.821,407.045 859.384,403.651 858.489,402.388 857.006,400.256 855.095,397.473 854.683,396.862 852.433,393.468 851.701,392.345 850.244,390.073 848.306,387.006 848.103,386.679 846.038,383.285 844.912,381.402 844.022,379.89 842.063,376.496 841.518,375.532 840.167,373.102 838.314,369.707 838.123,369.35 836.534,366.313 834.789,362.919 834.729,362.799 833.12,359.524 831.485,356.13 831.335,355.808 829.923,352.735 828.4,349.341 827.94,348.284 826.94,345.947 825.53,342.552 824.546,340.11 824.169,339.158 822.873,335.764 821.618,332.369 821.152,331.054 820.426,328.975 819.29,325.581 818.199,322.186 817.757,320.742 817.171,318.792 816.202,315.398 815.283,312.003 814.415,308.609 814.363,308.39 813.621,305.215 812.883,301.82 812.2,298.426 811.576,295.032 811.011,291.637 810.969,291.347 810.522,288.243 810.098,284.848 809.739,281.454 809.449,278.06 809.23,274.665 809.084,271.271 809.014,267.877 809.025,264.482 809.118,261.088 809.298,257.694 809.568,254.299 809.931,250.905 810.393,247.511 810.957,244.116 810.969,244.058 811.652,240.722 812.464,237.328 813.399,233.933 814.363,230.849 814.465,230.539 815.711,227.145 817.106,223.75 817.757,222.311 818.697,220.356 820.491,216.962 821.152,215.814 822.533,213.567 824.546,210.567 824.829,210.173 827.466,206.778 827.94,206.212 830.495,203.384 831.335,202.519 834.002,199.99 834.729,199.344 838.123,196.595 838.123,196.595 841.518,194.237 843.178,193.201 844.912,192.18 848.306,190.398 849.578,189.807 851.701,188.871 855.095,187.565 858.489,186.45 858.625,186.412 861.884,185.543 865.278,184.803 868.672,184.219 872.067,183.785 875.461,183.493 878.856,183.337 882.25,183.31 885.644,183.406 889.039,183.619 892.433,183.946 895.827,184.379 899.222,184.916 902.616,185.551 906.01,186.281 906.55,186.412 909.405,187.118 912.799,188.047 916.193,189.061 918.496,189.807 919.588,190.164 922.982,191.366 926.376,192.643 927.768,193.201 929.771,194.013 933.165,195.467 935.673,196.595 936.559,196.998 939.954,198.624 942.693,199.99 943.348,200.32 946.743,202.111 949.069,203.384 950.137,203.974 953.531,205.925 954.964,206.778 956.926,207.959 960.32,210.064 960.488,210.173 963.714,212.27 965.656,213.567 967.109,214.548 970.503,216.904 970.583,216.962 973.897,219.361 975.238,220.356 977.292,221.897 979.702,223.75 980.686,224.515 983.988,227.145 984.08,227.219 987.475,230.022 988.086,230.539 990.869,232.917 992.033,233.933 994.263,235.903 995.842,237.328 997.658,238.984 999.523,240.722 1001.05,242.162 1003.08,244.116 1004.45,245.442 1006.53,247.511 1007.84,248.827 1009.87,250.905 1011.24,252.32 1013.11,254.299 1014.63,255.925 1016.25,257.694 1018.02,259.646 1019.31,261.088 1021.42,263.488 1022.28,264.482 1024.81,267.454 1025.17,267.877 1027.97,271.271 1028.21,271.559 1030.69,274.665 1031.6,275.814 1033.35,278.06 1035,280.213 1035.93,281.454 1038.39,284.762 1038.45,284.848 1040.89,288.243 1041.78,289.506 1043.27,291.637 1045.18,294.421 1045.59,295.032 1047.84,298.426 1048.57,299.548 1050.03,301.82 1051.97,304.888 1052.17,305.215 1054.24,308.609 1055.36,310.492 1056.25,312.003 1058.21,315.398 1058.76,316.362 1060.11,318.792 1061.96,322.186 1062.15,322.544 1063.74,325.581 1065.48,328.975 1065.54,329.095 1067.15,332.369 1068.79,335.764 1068.94,336.086 1070.35,339.158 1071.87,342.552 1072.33,343.609 1073.33,345.947 1074.74,349.341 1075.73,351.784 1076.11,352.735 1077.4,356.13 1078.66,359.524 1079.12,360.84 1079.85,362.919 1080.98,366.313 1082.07,369.707 1082.52,371.152 1083.1,373.102 1084.07,376.496 1084.99,379.89 1085.86,383.285 1085.91,383.503 1086.65,386.679 1087.39,390.073 1088.07,393.468 1088.7,396.862 1089.26,400.256 1089.31,400.547 1089.75,403.651 1090.18,407.045 1090.53,410.439 1090.82,413.834 1091.04,417.228 1091.19,420.622 1091.26,424.017 1091.25,427.411 1091.16,430.805 1090.98,434.2 1090.71,437.594 1090.34,440.989 1089.88,444.383 1089.32,447.777 1089.31,447.836 1088.62,451.172 1087.81,454.566 1086.87,457.96 1085.91,461.044 1085.81,461.355 1084.56,464.749 1083.17,468.143 1082.52,469.583 1081.58,471.538 1079.78,474.932 1079.12,476.08 1077.74,478.326 1075.73,481.327 1075.44,481.721 1072.81,485.115 1072.33,485.682 1069.78,488.509 1068.94,489.375 1066.27,491.904 1065.54,492.549 1062.15,495.298 1058.76,497.657 1057.1,498.692 1055.36,499.713 1051.97,501.496 1050.7,502.087 1048.57,503.023 1045.18,504.328 1041.78,505.443 1041.65,505.481 1038.39,506.35 "/>
<circle clip-path="url(#clip472)" cx="1375.99" cy="967.401" r="14.4" fill="#000000" fill-rule="evenodd" fill-opacity="1" stroke="none"/>
<circle clip-path="url(#clip472)" cx="1424.68" cy="567.586" r="14.4" fill="#000000" fill-rule="evenodd" fill-opacity="1" stroke="none"/>
<circle clip-path="url(#clip472)" cx="1005.29" cy="552.88" r="14.4" fill="#000000" fill-rule="evenodd" fill-opacity="1" stroke="none"/>
<circle clip-path="url(#clip472)" cx="1560.37" cy="498.198" r="14.4" fill="#000000" fill-rule="evenodd" fill-opacity="1" stroke="none"/>
<circle clip-path="url(#clip472)" cx="1083.1" cy="468.311" r="14.4" fill="#000000" fill-rule="evenodd" fill-opacity="1" stroke="none"/>
<polyline clip-path="url(#clip472)" style="stroke:#ff0000; stroke-linecap:round; stroke-linejoin:round; stroke-width:4; stroke-opacity:1; fill:none" points="586.942,718.267 590.336,717.179 593.73,716.09 594.23,715.931 597.125,714.999 600.519,713.907 603.913,712.814 604.779,712.536 607.308,711.719 610.702,710.622 614.096,709.526 615.287,709.142 617.491,708.427 620.885,707.326 624.279,706.225 625.754,705.748 627.674,705.121 631.068,704.016 634.462,702.91 636.175,702.353 637.857,701.802 641.251,700.692 644.645,699.581 646.551,698.959 648.04,698.469 651.434,697.353 654.829,696.238 656.879,695.565 658.223,695.12 661.617,693.999 665.012,692.878 667.158,692.17 668.406,691.755 671.8,690.629 675.195,689.502 677.384,688.776 678.589,688.373 681.983,687.24 685.378,686.107 687.555,685.382 688.772,684.972 692.166,683.834 695.561,682.694 697.67,681.987 698.955,681.552 702.349,680.407 705.744,679.261 707.725,678.593 709.138,678.112 712.532,676.96 715.927,675.806 717.719,675.199 719.321,674.65 722.716,673.49 726.11,672.329 727.647,671.804 729.504,671.164 732.899,669.996 736.293,668.827 737.508,668.41 739.687,667.654 743.082,666.477 746.476,665.299 747.297,665.016 749.87,664.116 753.265,662.931 756.659,661.744 757.011,661.621 760.053,660.551 763.448,659.355 766.65,658.227 766.842,658.158 770.236,656.954 773.631,655.749 776.211,654.832 777.025,654.54 780.419,653.325 783.814,652.108 785.686,651.438 787.208,650.887 790.602,649.661 793.997,648.432 795.072,648.044 797.391,647.197 800.786,645.958 804.18,644.716 804.364,644.649 807.574,643.467 810.969,642.214 813.566,641.255 814.363,640.957 817.757,639.693 821.152,638.426 822.667,637.861 824.546,637.152 827.94,635.872 831.335,634.589 831.66,634.466 834.729,633.296 838.123,632 840.551,631.072 841.518,630.698 844.912,629.387 848.306,628.072 849.326,627.678 851.701,626.748 855.095,625.417 857.983,624.283 858.489,624.082 861.884,622.735 865.278,621.384 866.522,620.889 868.672,620.022 872.067,618.653 874.931,617.495 875.461,617.277 878.856,615.889 882.25,614.495 883.213,614.1 885.644,613.089 889.039,611.674 891.358,610.706 892.433,610.25 895.827,608.813 899.222,607.369 899.358,607.312 902.616,605.909 906.01,604.441 907.223,603.917 909.405,602.959 912.799,601.464 914.933,600.523 916.193,599.957 919.588,598.435 922.487,597.129 922.982,596.902 926.376,595.349 929.771,593.786 929.884,593.734 933.165,592.201 936.559,590.604 937.123,590.34 939.954,588.986 943.348,587.352 944.194,586.946 946.743,585.697 950.137,584.024 951.095,583.551 953.531,582.326 956.926,580.61 957.822,580.157 960.32,578.868 963.714,577.104 964.372,576.762 967.109,575.311 970.503,573.496 970.741,573.368 973.897,571.645 976.932,569.974 977.292,569.771 980.686,567.86 982.942,566.579 984.08,565.918 987.475,563.94 988.764,563.185 990.869,561.923 994.263,559.87 994.395,559.791 997.658,557.767 999.848,556.396 1001.05,555.623 1004.45,553.431 1005.11,553.002 1007.84,551.183 1010.18,549.608 1011.24,548.882 1014.63,546.522 1015.07,546.213 1018.02,544.092 1019.78,542.819 1021.42,541.595 1024.3,539.425 1024.81,539.025 1028.21,536.371 1028.64,536.03 1031.6,533.623 1032.81,532.636 1035,530.779 1036.79,529.242 1038.39,527.829 1040.61,525.847 1041.78,524.759 1044.25,522.453 1045.18,521.558 1047.74,519.059 1048.57,518.209 1051.06,515.664 1051.97,514.695 1054.22,512.27 1055.36,510.995 1057.24,508.875 1058.76,507.083 1060.1,505.481 1062.15,502.929 1062.82,502.087 1065.4,498.692 1065.54,498.496 1067.86,495.298 1068.94,493.72 1070.18,491.904 1072.33,488.562 1072.37,488.509 1074.45,485.115 1075.73,482.903 1076.41,481.721 1078.26,478.326 1079.12,476.647 1080,474.932 1081.64,471.538 1082.52,469.615 1083.18,468.143 1084.63,464.749 1085.91,461.544 1085.99,461.355 1087.26,457.96 1088.45,454.566 1089.31,451.947 1089.56,451.172 1090.59,447.777 1091.55,444.383 1092.44,440.989 1092.7,439.934 1093.27,437.594 1094.03,434.2 1094.73,430.805 1095.37,427.411 1095.95,424.017 1096.09,423.114 1096.48,420.622 1096.97,417.228 1097.4,413.834 1097.78,410.439 1098.12,407.045 1098.41,403.651 1098.67,400.256 1098.88,396.862 1099.05,393.468 1099.19,390.073 1099.3,386.679 1099.37,383.285 1099.4,379.89 1099.41,376.496 1099.39,373.102 1099.34,369.707 1099.26,366.313 1099.15,362.919 1099.02,359.524 1098.86,356.13 1098.68,352.735 1098.48,349.341 1098.26,345.947 1098.01,342.552 1097.74,339.158 1097.46,335.764 1097.15,332.369 1096.83,328.975 1096.49,325.581 1096.13,322.186 1096.09,321.899 1095.75,318.792 1095.36,315.398 1094.96,312.003 1094.54,308.609 1094.1,305.215 1093.65,301.82 1093.19,298.426 1092.71,295.032 1092.7,294.949 1092.22,291.637 1091.73,288.243 1091.21,284.848 1090.69,281.454 1090.15,278.06 1089.61,274.665 1089.31,272.828 1089.05,271.271 1088.49,267.877 1087.91,264.482 1087.33,261.088 1086.73,257.694 1086.13,254.299 1085.91,253.108 1085.52,250.905 1084.9,247.511 1084.27,244.116 1083.63,240.722 1082.99,237.328 1082.52,234.897 1082.33,233.933 1081.67,230.539 1081.01,227.145 1080.34,223.75 1079.65,220.356 1079.12,217.736 1078.97,216.962 1078.27,213.567 1077.58,210.173 1076.87,206.778 1076.16,203.384 1075.73,201.356 1075.44,199.99 1074.72,196.595 1073.99,193.201 1073.26,189.807 1072.52,186.412 1072.33,185.575 1071.78,183.018 1071.03,179.624 1070.27,176.229 1069.52,172.835 1068.94,170.28 1068.75,169.441 1067.99,166.046 1067.21,162.652 1066.44,159.258 1065.66,155.863 1065.54,155.38 1064.87,152.469 1064.09,149.075 1063.29,145.68 1062.5,142.286 1062.15,140.819 1061.7,138.892 1060.9,135.497 1060.09,132.103 1059.28,128.708 1058.76,126.535 1058.47,125.314 1057.65,121.92 1056.83,118.525 1056.01,115.131 1055.36,112.494 1055.18,111.737 1054.35,108.342 1053.52,104.948 1052.68,101.554 1051.97,98.6651 1051.84,98.1593 1051,94.765 1050.16,91.3706 1049.31,87.9763 "/>
<polyline clip-path="url(#clip472)" style="stroke:#ff0000; stroke-linecap:round; stroke-linejoin:round; stroke-width:4; stroke-opacity:1; fill:none" points="1944.68,366.59 1941.29,367.651 1937.89,368.713 1934.71,369.707 1934.5,369.774 1931.1,370.838 1927.71,371.902 1924.31,372.966 1923.88,373.102 1920.92,374.033 1917.53,375.1 1914.13,376.167 1913.08,376.496 1910.74,377.236 1907.34,378.305 1903.95,379.375 1902.31,379.89 1900.55,380.447 1897.16,381.52 1893.77,382.593 1891.57,383.285 1890.37,383.667 1886.98,384.743 1883.58,385.819 1880.87,386.679 1880.19,386.896 1876.79,387.976 1873.4,389.055 1870.2,390.073 1870.01,390.135 1866.61,391.218 1863.22,392.301 1859.82,393.385 1859.56,393.468 1856.43,394.471 1853.03,395.558 1849.64,396.645 1848.96,396.862 1846.24,397.735 1842.85,398.826 1839.46,399.917 1838.4,400.256 1836.06,401.011 1832.67,402.105 1829.27,403.201 1827.87,403.651 1825.88,404.298 1822.48,405.397 1819.09,406.497 1817.39,407.045 1815.7,407.598 1812.3,408.702 1808.91,409.806 1806.96,410.439 1805.51,410.912 1802.12,412.02 1798.72,413.129 1796.56,413.834 1795.33,414.24 1791.94,415.353 1788.54,416.467 1786.22,417.228 1785.15,417.583 1781.75,418.701 1778.36,419.821 1775.92,420.622 1774.96,420.941 1771.57,422.066 1768.17,423.191 1765.68,424.017 1764.78,424.317 1761.39,425.447 1757.99,426.578 1755.49,427.411 1754.6,427.71 1751.2,428.847 1747.81,429.984 1745.35,430.805 1744.41,431.123 1741.02,432.266 1737.63,433.409 1735.28,434.2 1734.23,434.555 1730.84,435.705 1727.44,436.856 1725.26,437.594 1724.05,438.009 1720.65,439.166 1717.26,440.324 1715.31,440.989 1713.87,441.485 1710.47,442.65 1707.08,443.816 1705.42,444.383 1703.68,444.986 1700.29,446.16 1696.89,447.334 1695.61,447.777 1693.5,448.513 1690.1,449.695 1686.71,450.879 1685.87,451.172 1683.32,452.068 1679.92,453.259 1676.53,454.453 1676.2,454.566 1673.13,455.652 1669.74,456.854 1666.62,457.96 1666.34,458.058 1662.95,459.269 1659.56,460.481 1657.11,461.355 1656.16,461.697 1652.77,462.919 1649.37,464.144 1647.69,464.749 1645.98,465.373 1642.58,466.607 1639.19,467.844 1638.37,468.143 1635.8,469.088 1632.4,470.335 1629.14,471.538 1629.01,471.586 1625.61,472.845 1622.22,474.106 1620,474.932 1618.82,475.373 1615.43,476.647 1612.03,477.924 1610.96,478.326 1608.64,479.209 1605.25,480.499 1602.04,481.721 1601.85,481.794 1598.46,483.098 1595.06,484.406 1593.22,485.115 1591.67,485.721 1588.27,487.044 1584.88,488.371 1584.52,488.509 1581.49,489.709 1578.09,491.052 1575.94,491.904 1574.7,492.403 1571.3,493.764 1567.91,495.13 1567.49,495.298 1564.51,496.508 1561.12,497.893 1559.16,498.692 1557.73,499.286 1554.33,500.691 1550.97,502.087 1550.94,502.102 1547.54,503.528 1544.15,504.96 1542.91,505.481 1540.75,506.406 1537.36,507.862 1535,508.875 1533.96,509.329 1530.57,510.81 1527.24,512.27 1527.18,512.3 1523.78,513.808 1520.39,515.326 1519.63,515.664 1516.99,516.861 1513.6,518.408 1512.17,519.059 1510.2,519.972 1506.81,521.552 1504.88,522.453 1503.42,523.148 1500.02,524.763 1497.75,525.847 1496.63,526.394 1493.23,528.047 1490.79,529.242 1489.84,529.717 1486.44,531.411 1484,532.636 1483.05,533.124 1479.66,534.863 1477.39,536.03 1476.26,536.624 1472.87,538.412 1470.95,539.425 1469.47,540.226 1466.08,542.069 1464.7,542.819 1462.68,543.942 1459.29,545.845 1458.63,546.213 1455.89,547.785 1452.75,549.608 1452.5,549.754 1449.11,551.768 1447.04,553.002 1445.71,553.818 1442.32,555.91 1441.53,556.396 1438.92,558.05 1436.2,559.791 1435.53,560.234 1432.13,562.473 1431.06,563.185 1428.74,564.768 1426.11,566.579 1425.35,567.119 1421.95,569.536 1421.34,569.974 1418.56,572.025 1416.75,573.368 1415.16,574.587 1412.35,576.762 1411.77,577.227 1408.37,579.957 1408.13,580.157 1404.98,582.788 1404.08,583.551 1401.59,585.725 1400.2,586.946 1398.19,588.778 1396.49,590.34 1394.8,591.96 1392.95,593.734 1391.4,595.287 1389.58,597.129 1388.01,598.776 1386.36,600.523 1384.61,602.448 1383.29,603.917 1381.22,606.326 1380.38,607.312 1377.82,610.441 1377.61,610.706 1374.98,614.1 1374.43,614.838 1372.48,617.495 1371.04,619.56 1370.11,620.889 1367.88,624.283 1367.64,624.661 1365.76,627.678 1364.25,630.24 1363.76,631.072 1361.87,634.466 1360.85,636.402 1360.09,637.861 1358.42,641.255 1357.46,643.31 1356.84,644.649 1355.36,648.044 1354.06,651.211 1353.97,651.438 1352.67,654.832 1351.45,658.227 1350.67,660.556 1350.32,661.621 1349.25,665.016 1348.27,668.41 1347.36,671.804 1347.28,672.124 1346.51,675.199 1345.72,678.593 1345,681.987 1344.34,685.382 1343.88,687.978 1343.74,688.776 1343.19,692.17 1342.69,695.565 1342.24,698.959 1341.84,702.353 1341.49,705.748 1341.18,709.142 1340.91,712.536 1340.69,715.931 1340.5,719.325 1340.49,719.556 1340.35,722.719 1340.23,726.114 1340.15,729.508 1340.1,732.902 1340.08,736.297 1340.09,739.691 1340.14,743.086 1340.21,746.48 1340.3,749.874 1340.43,753.269 1340.49,754.627 1340.57,756.663 1340.75,760.057 1340.94,763.452 1341.16,766.846 1341.4,770.24 1341.66,773.635 1341.93,777.029 1342.23,780.423 1342.55,783.818 1342.89,787.212 1343.24,790.606 1343.61,794.001 1343.88,796.389 1343.99,797.395 1344.39,800.789 1344.81,804.184 1345.24,807.578 1345.68,810.973 1346.14,814.367 1346.61,817.761 1347.1,821.156 1347.28,822.362 1347.59,824.55 1348.1,827.944 1348.62,831.339 1349.15,834.733 1349.69,838.127 1350.25,841.522 1350.67,844.071 1350.81,844.916 1351.38,848.31 1351.96,851.705 1352.55,855.099 1353.15,858.493 1353.76,861.888 1354.06,863.532 1354.38,865.282 1355.01,868.676 1355.64,872.071 1356.28,875.465 1356.93,878.859 1357.46,881.575 1357.59,882.254 1358.25,885.648 1358.92,889.043 1359.6,892.437 1360.29,895.831 1360.85,898.612 1360.98,899.226 1361.67,902.62 1362.38,906.014 1363.08,909.409 1363.8,912.803 1364.25,914.896 1364.52,916.197 1365.25,919.592 1365.98,922.986 1366.72,926.38 1367.46,929.775 1367.64,930.601 1368.2,933.169 1368.96,936.563 1369.71,939.958 1370.47,943.352 1371.04,945.835 1371.24,946.746 1372.01,950.141 1372.78,953.535 1373.56,956.93 1374.35,960.324 1374.43,960.685 1375.13,963.718 1375.92,967.113 1376.72,970.507 1377.52,973.901 1377.82,975.204 1378.32,977.296 1379.12,980.69 1379.93,984.084 1380.74,987.479 1381.22,989.45 1381.56,990.873 1382.38,994.267 1383.2,997.662 1384.03,1001.06 1384.61,1003.46 1384.85,1004.45 1385.68,1007.84 1386.52,1011.24 1387.36,1014.63 1388.01,1017.26 1388.2,1018.03 1389.04,1021.42 1389.88,1024.82 1390.73,1028.21 1391.4,1030.88 1391.58,1031.61 1392.44,1035 1393.29,1038.39 1394.15,1041.79 1394.8,1044.33 1395.01,1045.18 1395.87,1048.58 1396.74,1051.97 1397.61,1055.37 1398.19,1057.64 1398.48,1058.76 1399.35,1062.15 1400.22,1065.55 1401.1,1068.94 1401.59,1070.82 1401.98,1072.34 1402.86,1075.73 1403.74,1079.13 1404.62,1082.52 1404.98,1083.88 1405.51,1085.91 1406.4,1089.31 1407.28,1092.7 1408.18,1096.1 1408.37,1096.84 1409.07,1099.49 1409.96,1102.89 1410.86,1106.28 1411.76,1109.68 1411.77,1109.7 1412.66,1113.07 1413.56,1116.46 1414.46,1119.86 1415.16,1122.47 1415.37,1123.25 1416.28,1126.65 1417.18,1130.04 1418.09,1133.44 1418.56,1135.16 1419,1136.83 1419.91,1140.22 1420.83,1143.62 1421.74,1147.01 1421.95,1147.78 1422.66,1150.41 1423.58,1153.8 1424.5,1157.2 1425.35,1160.32 1425.42,1160.59 1426.34,1163.98 1427.26,1167.38 1428.19,1170.77 1428.74,1172.8 1429.11,1174.17 1430.04,1177.56 1430.96,1180.96 1431.89,1184.35 1432.13,1185.22 1432.82,1187.75 1433.75,1191.14 1434.69,1194.53 1435.53,1197.59 1435.62,1197.93 1436.55,1201.32 1437.49,1204.72 1438.43,1208.11 1438.92,1209.9 1439.36,1211.51 1440.3,1214.9 1441.24,1218.29 1442.18,1221.69 1442.32,1222.17 1443.12,1225.08 1444.07,1228.48 1445.01,1231.87 1445.71,1234.39 1445.95,1235.27 1446.9,1238.66 1447.84,1242.05 1448.79,1245.45 1449.11,1246.57 1449.74,1248.84 1450.69,1252.24 1451.64,1255.63 1452.5,1258.71 1452.59,1259.03 1453.54,1262.42 1454.49,1265.82 1455.44,1269.21 1455.89,1270.81 1456.4,1272.6 1457.35,1276 1458.31,1279.39 1459.26,1282.79 1459.29,1282.88 1460.22,1286.18 1461.18,1289.58 1462.14,1292.97 1462.68,1294.91 1463.09,1296.36 1464.05,1299.76 1465.01,1303.15 1465.97,1306.55 1466.08,1306.91 1466.94,1309.94 1467.9,1313.34 1468.86,1316.73 1469.47,1318.88 1469.82,1320.12 1470.79,1323.52 1471.75,1326.91 1472.72,1330.31 1472.87,1330.82 1473.69,1333.7 1474.65,1337.1 1475.62,1340.49 1476.26,1342.74 1476.59,1343.89 1477.56,1347.28 1478.52,1350.67 1479.49,1354.07 1479.66,1354.63 1480.46,1357.46 1481.44,1360.86 1482.41,1364.25 1483.05,1366.49 1483.38,1367.65 1484.35,1371.04 1485.32,1374.43 1486.3,1377.83 1486.44,1378.34 1487.27,1381.22 1488.25,1384.62 1489.22,1388.01 1489.84,1390.15 1490.2,1391.41 1491.17,1394.8 1492.15,1398.19 1493.13,1401.59 1493.23,1401.96 1494.1,1404.98 1495.08,1408.38 1496.06,1411.77 1496.63,1413.73 1497.04,1415.17 1498.02,1418.56 1499,1421.96 1499.98,1425.35 1500.02,1425.5 1500.96,1428.74 1501.94,1432.14 1502.92,1435.53 1503.42,1437.24 1503.9,1438.93 1504.89,1442.32 1505.87,1445.72 "/>
<path clip-path="url(#clip470)" d="M464.509 1412.83 Q464.93 1413.25 464.93 1413.85 Q464.93 1414.45 464.509 1414.87 Q464.087 1415.29 463.49 1415.29 L418.448 1415.29 Q417.851 1415.29 417.43 1414.87 Q417.008 1414.45 417.008 1413.85 Q417.008 1413.25 417.43 1412.83 Q417.851 1412.41 418.448 1412.41 L463.49 1412.41 Q464.087 1412.41 464.509 1412.83 Z" fill="#000000" fill-rule="nonzero" fill-opacity="1" /><path clip-path="url(#clip470)" d="M472.441 1408.83 Q472.441 1398.25 475.111 1392.49 Q478.835 1383.92 487.618 1383.92 Q489.481 1383.92 491.413 1384.44 Q493.38 1384.94 495.84 1386.87 Q498.334 1388.8 499.845 1391.96 Q502.726 1398.08 502.726 1408.83 Q502.726 1419.33 500.056 1425.06 Q496.156 1433.42 487.548 1433.42 Q484.316 1433.42 481.013 1431.77 Q477.746 1430.12 475.673 1426.15 Q472.441 1420.21 472.441 1408.83 M478.413 1407.95 Q478.413 1418.8 479.186 1423.13 Q480.065 1427.8 482.454 1429.84 Q484.878 1431.84 487.548 1431.84 Q490.429 1431.84 492.818 1429.7 Q495.242 1427.52 495.98 1422.85 Q496.788 1418.24 496.753 1407.95 Q496.753 1397.94 496.051 1393.93 Q495.102 1389.26 492.572 1387.4 Q490.078 1385.5 487.548 1385.5 Q486.6 1385.5 485.581 1385.78 Q484.597 1386.06 483.156 1386.87 Q481.716 1387.68 480.592 1389.68 Q479.503 1391.68 478.976 1394.7 Q478.413 1398.6 478.413 1407.95 Z" fill="#000000" fill-rule="nonzero" fill-opacity="1" /><path clip-path="url(#clip470)" d="M509.163 1430.68 Q508.074 1429.52 508.074 1428.01 Q508.074 1426.5 509.163 1425.41 Q510.252 1424.29 511.903 1424.29 Q513.484 1424.29 514.538 1425.34 Q515.627 1426.36 515.627 1428.05 Q515.627 1429.7 514.468 1430.79 Q513.344 1431.84 511.903 1431.84 Q510.252 1431.84 509.163 1430.68 Z" fill="#000000" fill-rule="nonzero" fill-opacity="1" /><path clip-path="url(#clip470)" d="M527.873 1408.83 Q527.873 1398.25 530.544 1392.49 Q534.268 1383.92 543.051 1383.92 Q544.913 1383.92 546.846 1384.44 Q548.813 1384.94 551.272 1386.87 Q553.767 1388.8 555.278 1391.96 Q558.159 1398.08 558.159 1408.83 Q558.159 1419.33 555.488 1425.06 Q551.589 1433.42 542.981 1433.42 Q539.749 1433.42 536.446 1431.77 Q533.179 1430.12 531.106 1426.15 Q527.873 1420.21 527.873 1408.83 M533.846 1407.95 Q533.846 1418.8 534.619 1423.13 Q535.497 1427.8 537.886 1429.84 Q540.311 1431.84 542.981 1431.84 Q545.862 1431.84 548.251 1429.7 Q550.675 1427.52 551.413 1422.85 Q552.221 1418.24 552.186 1407.95 Q552.186 1397.94 551.483 1393.93 Q550.535 1389.26 548.005 1387.4 Q545.51 1385.5 542.981 1385.5 Q542.032 1385.5 541.013 1385.78 Q540.03 1386.06 538.589 1386.87 Q537.149 1387.68 536.024 1389.68 Q534.935 1391.68 534.408 1394.7 Q533.846 1398.6 533.846 1407.95 Z" fill="#000000" fill-rule="nonzero" fill-opacity="1" /><path clip-path="url(#clip470)" d="M561.386 1390.77 L561.386 1388.52 Q570.029 1388.52 574.491 1383.92 Q575.721 1383.92 575.932 1384.2 Q576.142 1384.48 576.142 1385.78 L576.142 1426.15 Q576.142 1428.29 577.196 1428.96 Q578.25 1429.63 582.853 1429.63 L585.137 1429.63 L585.137 1431.84 Q582.607 1431.63 573.472 1431.63 Q564.337 1431.63 561.843 1431.84 L561.843 1429.63 L564.127 1429.63 Q568.659 1429.63 569.748 1428.99 Q570.837 1428.33 570.837 1426.15 L570.837 1388.87 Q567.078 1390.77 561.386 1390.77 Z" fill="#000000" fill-rule="nonzero" fill-opacity="1" /><path clip-path="url(#clip470)" d="M589.177 1420.98 Q589.177 1412.94 599.541 1407.74 Q595.079 1404.72 594.271 1403.84 Q591.109 1400.32 591.109 1395.93 Q591.109 1390.91 594.904 1387.43 Q598.733 1383.92 604.144 1383.92 Q609.309 1383.92 613.208 1386.9 Q617.108 1389.89 617.108 1394.63 Q617.108 1401.31 608.395 1405.81 Q614.157 1409.39 615.527 1410.9 Q619.041 1414.8 619.041 1419.75 Q619.041 1425.52 614.614 1429.49 Q610.187 1433.42 604.074 1433.42 Q598.101 1433.42 593.639 1429.94 Q589.177 1426.46 589.177 1420.98 M592.761 1420.98 Q592.761 1425.45 596.098 1428.43 Q599.471 1431.42 604.144 1431.42 Q608.676 1431.42 612.049 1428.82 Q615.457 1426.22 615.457 1422.35 Q615.457 1420.84 614.93 1419.54 Q614.438 1418.24 613.419 1417.22 Q612.435 1416.17 611.803 1415.71 Q611.206 1415.22 610.046 1414.41 L601.193 1408.83 Q592.761 1413.5 592.761 1420.98 M594.271 1393.12 Q594.271 1396.57 597.89 1398.95 L606.814 1404.72 Q613.946 1400.54 613.946 1394.63 Q613.946 1390.8 611.03 1388.27 Q608.114 1385.71 604.074 1385.71 Q600.104 1385.71 597.187 1387.82 Q594.271 1389.89 594.271 1393.12 Z" fill="#000000" fill-rule="nonzero" fill-opacity="1" /><path clip-path="url(#clip470)" d="M660.646 1404.79 Q660.646 1406.75 659.416 1407.88 Q658.187 1408.97 656.781 1408.97 Q655.446 1408.97 654.744 1408.19 Q654.041 1407.42 654.041 1406.44 Q654.041 1405.1 655.025 1403.94 Q656.009 1402.78 657.484 1402.54 Q656.044 1401.62 653.9 1401.62 Q652.495 1401.62 651.265 1402.36 Q650.071 1403.1 649.333 1404.05 Q648.63 1405 647.998 1406.37 Q647.401 1407.7 647.155 1408.51 Q646.944 1409.28 646.768 1410.13 L644.309 1419.96 Q643.114 1424.64 643.114 1426.29 Q643.114 1428.33 644.098 1429.7 Q645.082 1431.03 647.049 1431.03 Q647.822 1431.03 648.701 1430.82 Q649.579 1430.57 650.703 1429.94 Q651.863 1429.27 652.882 1428.29 Q653.936 1427.27 654.954 1425.55 Q655.973 1423.83 656.641 1421.62 Q656.852 1420.84 657.554 1420.84 Q658.433 1420.84 658.433 1421.55 Q658.433 1422.14 657.941 1423.41 Q657.484 1424.64 656.465 1426.25 Q655.482 1427.83 654.182 1429.27 Q652.882 1430.68 650.949 1431.66 Q649.017 1432.65 646.909 1432.65 Q643.887 1432.65 641.885 1431.03 Q639.882 1429.42 639.144 1427.17 Q638.969 1427.48 638.723 1427.9 Q638.477 1428.33 637.739 1429.27 Q637.036 1430.19 636.228 1430.89 Q635.42 1431.56 634.155 1432.09 Q632.926 1432.65 631.591 1432.65 Q629.904 1432.65 628.393 1432.16 Q626.918 1431.66 625.864 1430.54 Q624.81 1429.42 624.81 1427.87 Q624.81 1426.15 625.969 1424.95 Q627.164 1423.72 628.78 1423.72 Q629.799 1423.72 630.607 1424.32 Q631.45 1424.92 631.45 1426.22 Q631.45 1427.66 630.466 1428.75 Q629.483 1429.84 628.077 1430.12 Q629.518 1431.03 631.661 1431.03 Q633.98 1431.03 635.807 1428.99 Q637.634 1426.96 638.512 1423.55 Q640.69 1415.36 641.533 1411.71 Q642.377 1408.02 642.377 1406.44 Q642.377 1404.96 641.99 1403.94 Q641.604 1402.92 640.936 1402.47 Q640.304 1401.98 639.706 1401.8 Q639.144 1401.62 638.512 1401.62 Q637.458 1401.62 636.263 1402.05 Q635.104 1402.47 633.699 1403.45 Q632.328 1404.4 631.028 1406.37 Q629.729 1408.34 628.85 1411.04 Q628.675 1411.85 627.902 1411.85 Q627.058 1411.81 627.058 1411.11 Q627.058 1410.51 627.515 1409.28 Q628.007 1408.02 628.991 1406.44 Q630.01 1404.86 631.31 1403.45 Q632.645 1402.01 634.577 1401.03 Q636.544 1400.04 638.652 1400.04 Q639.601 1400.04 640.515 1400.25 Q641.463 1400.43 642.587 1400.96 Q643.747 1401.48 644.766 1402.64 Q645.785 1403.8 646.417 1405.49 Q646.839 1404.68 647.401 1403.91 Q647.998 1403.14 648.912 1402.19 Q649.86 1401.2 651.16 1400.64 Q652.495 1400.04 653.971 1400.04 Q655.411 1400.04 656.817 1400.43 Q658.222 1400.78 659.416 1401.94 Q660.646 1403.07 660.646 1404.79 Z" fill="#000000" fill-rule="nonzero" fill-opacity="1" /><path clip-path="url(#clip470)" d="M667.974 1410.32 Q667.974 1409.41 668.048 1409.14 Q668.146 1408.87 668.54 1408.45 L678.205 1397.68 Q683.493 1391.73 683.493 1386.54 Q683.493 1383.17 681.722 1380.76 Q679.976 1378.35 676.754 1378.35 Q674.541 1378.35 672.672 1379.7 Q670.802 1381.06 669.942 1383.47 Q670.089 1383.42 670.606 1383.42 Q671.86 1383.42 672.549 1384.21 Q673.262 1384.99 673.262 1386.05 Q673.262 1387.4 672.376 1388.07 Q671.516 1388.71 670.655 1388.71 Q670.311 1388.71 669.843 1388.63 Q669.401 1388.56 668.687 1387.87 Q667.974 1387.16 667.974 1385.9 Q667.974 1382.39 670.63 1379.58 Q673.311 1376.78 677.394 1376.78 Q682.017 1376.78 685.042 1379.53 Q688.092 1382.26 688.092 1386.54 Q688.092 1388.04 687.624 1389.42 Q687.182 1390.77 686.567 1391.83 Q685.977 1392.89 684.354 1394.58 Q682.73 1396.28 681.427 1397.49 Q680.123 1398.69 677.197 1401.25 L671.86 1406.44 L680.935 1406.44 Q685.362 1406.44 685.706 1406.04 Q686.198 1405.33 686.813 1401.57 L688.092 1401.57 L686.665 1410.32 L667.974 1410.32 Z" fill="#000000" fill-rule="nonzero" fill-opacity="1" /><path clip-path="url(#clip470)" d="M717.184 1414.73 Q715.533 1414.73 715.533 1413.85 Q715.533 1412.97 717.255 1412.97 Q717.465 1412.97 717.817 1413.01 Q718.203 1413.04 718.273 1413.04 L738.546 1413.04 L738.546 1392.7 Q738.546 1392.63 738.51 1392.31 Q738.475 1391.96 738.475 1391.75 Q738.475 1390.03 739.318 1390.03 Q740.197 1390.03 740.197 1391.75 L740.197 1413.04 L760.504 1413.04 Q760.574 1413.04 760.926 1413.01 Q761.277 1412.97 761.488 1412.97 Q763.139 1412.97 763.139 1413.85 Q763.174 1414.73 761.418 1414.73 Q761.207 1414.73 760.891 1414.69 Q760.574 1414.66 760.504 1414.66 L740.197 1414.66 L740.197 1436.02 Q740.197 1437.67 739.318 1437.67 Q738.475 1437.67 738.475 1435.95 Q738.475 1435.74 738.51 1435.39 Q738.546 1435.07 738.546 1435 L738.546 1414.66 L718.273 1414.66 Q718.203 1414.66 717.782 1414.69 Q717.395 1414.73 717.184 1414.73 Z" fill="#000000" fill-rule="nonzero" fill-opacity="1" /><path clip-path="url(#clip470)" d="M790.927 1408.83 Q790.927 1398.25 793.597 1392.49 Q797.322 1383.92 806.105 1383.92 Q807.967 1383.92 809.899 1384.44 Q811.867 1384.94 814.326 1386.87 Q816.821 1388.8 818.332 1391.96 Q821.212 1398.08 821.212 1408.83 Q821.212 1419.33 818.542 1425.06 Q814.642 1433.42 806.035 1433.42 Q802.802 1433.42 799.5 1431.77 Q796.232 1430.12 794.16 1426.15 Q790.927 1420.21 790.927 1408.83 M796.9 1407.95 Q796.9 1418.8 797.673 1423.13 Q798.551 1427.8 800.94 1429.84 Q803.365 1431.84 806.035 1431.84 Q808.916 1431.84 811.305 1429.7 Q813.729 1427.52 814.467 1422.85 Q815.275 1418.24 815.24 1407.95 Q815.24 1397.94 814.537 1393.93 Q813.588 1389.26 811.059 1387.4 Q808.564 1385.5 806.035 1385.5 Q805.086 1385.5 804.067 1385.78 Q803.084 1386.06 801.643 1386.87 Q800.203 1387.68 799.078 1389.68 Q797.989 1391.68 797.462 1394.7 Q796.9 1398.6 796.9 1407.95 Z" fill="#000000" fill-rule="nonzero" fill-opacity="1" /><path clip-path="url(#clip470)" d="M827.649 1430.68 Q826.56 1429.52 826.56 1428.01 Q826.56 1426.5 827.649 1425.41 Q828.738 1424.29 830.39 1424.29 Q831.971 1424.29 833.025 1425.34 Q834.114 1426.36 834.114 1428.05 Q834.114 1429.7 832.954 1430.79 Q831.83 1431.84 830.39 1431.84 Q828.738 1431.84 827.649 1430.68 Z" fill="#000000" fill-rule="nonzero" fill-opacity="1" /><path clip-path="url(#clip470)" d="M846.36 1408.83 Q846.36 1398.25 849.03 1392.49 Q852.754 1383.92 861.538 1383.92 Q863.4 1383.92 865.332 1384.44 Q867.3 1384.94 869.759 1386.87 Q872.253 1388.8 873.764 1391.96 Q876.645 1398.08 876.645 1408.83 Q876.645 1419.33 873.975 1425.06 Q870.075 1433.42 861.467 1433.42 Q858.235 1433.42 854.933 1431.77 Q851.665 1430.12 849.592 1426.15 Q846.36 1420.21 846.36 1408.83 M852.333 1407.95 Q852.333 1418.8 853.106 1423.13 Q853.984 1427.8 856.373 1429.84 Q858.797 1431.84 861.467 1431.84 Q864.348 1431.84 866.737 1429.7 Q869.162 1427.52 869.899 1422.85 Q870.708 1418.24 870.672 1407.95 Q870.672 1397.94 869.97 1393.93 Q869.021 1389.26 866.492 1387.4 Q863.997 1385.5 861.467 1385.5 Q860.519 1385.5 859.5 1385.78 Q858.516 1386.06 857.076 1386.87 Q855.635 1387.68 854.511 1389.68 Q853.422 1391.68 852.895 1394.7 Q852.333 1398.6 852.333 1407.95 Z" fill="#000000" fill-rule="nonzero" fill-opacity="1" /><path clip-path="url(#clip470)" d="M882.281 1420.25 Q882.281 1418.1 883.44 1417.29 Q884.6 1416.45 885.829 1416.45 Q887.481 1416.45 888.429 1417.51 Q889.413 1418.52 889.413 1419.96 Q889.413 1421.4 888.429 1422.46 Q887.481 1423.48 885.829 1423.48 Q885.021 1423.48 884.6 1423.34 Q885.548 1426.64 888.429 1429.03 Q891.345 1431.42 895.175 1431.42 Q899.988 1431.42 902.869 1426.75 Q904.591 1423.72 904.591 1416.87 Q904.591 1410.83 903.291 1407.81 Q901.288 1403.21 897.177 1403.21 Q891.345 1403.21 887.902 1408.23 Q887.481 1408.86 886.989 1408.9 Q886.286 1408.9 886.11 1408.51 Q885.97 1408.09 885.97 1407 L885.97 1385.71 Q885.97 1383.99 886.672 1383.99 Q886.954 1383.99 887.551 1384.2 Q892.083 1386.2 897.107 1386.24 Q902.272 1386.24 906.909 1384.13 Q907.261 1383.92 907.472 1383.92 Q908.174 1383.92 908.209 1384.73 Q908.209 1385.01 907.612 1385.85 Q907.05 1386.66 905.82 1387.75 Q904.591 1388.8 903.01 1389.82 Q901.429 1390.84 899.11 1391.54 Q896.826 1392.21 894.296 1392.21 Q891.275 1392.21 888.183 1391.26 L888.183 1405.28 Q891.907 1401.62 897.318 1401.62 Q903.08 1401.62 907.05 1406.26 Q911.02 1410.9 911.02 1417.36 Q911.02 1424.15 906.312 1428.78 Q901.639 1433.42 895.315 1433.42 Q889.553 1433.42 885.9 1429.31 Q882.281 1425.2 882.281 1420.25 Z" fill="#000000" fill-rule="nonzero" fill-opacity="1" /><path clip-path="url(#clip470)" d="M918.202 1420.98 Q918.202 1412.94 928.566 1407.74 Q924.104 1404.72 923.296 1403.84 Q920.134 1400.32 920.134 1395.93 Q920.134 1390.91 923.928 1387.43 Q927.758 1383.92 933.168 1383.92 Q938.333 1383.92 942.233 1386.9 Q946.133 1389.89 946.133 1394.63 Q946.133 1401.31 937.42 1405.81 Q943.182 1409.39 944.552 1410.9 Q948.065 1414.8 948.065 1419.75 Q948.065 1425.52 943.638 1429.49 Q939.211 1433.42 933.098 1433.42 Q927.126 1433.42 922.664 1429.94 Q918.202 1426.46 918.202 1420.98 M921.785 1420.98 Q921.785 1425.45 925.123 1428.43 Q928.496 1431.42 933.168 1431.42 Q937.701 1431.42 941.074 1428.82 Q944.482 1426.22 944.482 1422.35 Q944.482 1420.84 943.955 1419.54 Q943.463 1418.24 942.444 1417.22 Q941.46 1416.17 940.828 1415.71 Q940.23 1415.22 939.071 1414.41 L930.217 1408.83 Q921.785 1413.5 921.785 1420.98 M923.296 1393.12 Q923.296 1396.57 926.915 1398.95 L935.839 1404.72 Q942.971 1400.54 942.971 1394.63 Q942.971 1390.8 940.055 1388.27 Q937.139 1385.71 933.098 1385.71 Q929.128 1385.71 926.212 1387.82 Q923.296 1389.89 923.296 1393.12 Z" fill="#000000" fill-rule="nonzero" fill-opacity="1" /><path clip-path="url(#clip470)" d="M988.519 1404.79 Q988.519 1406.75 987.289 1407.88 Q986.059 1408.97 984.654 1408.97 Q983.319 1408.97 982.616 1408.19 Q981.914 1407.42 981.914 1406.44 Q981.914 1405.1 982.897 1403.94 Q983.881 1402.78 985.357 1402.54 Q983.916 1401.62 981.773 1401.62 Q980.368 1401.62 979.138 1402.36 Q977.943 1403.1 977.206 1404.05 Q976.503 1405 975.871 1406.37 Q975.273 1407.7 975.027 1408.51 Q974.817 1409.28 974.641 1410.13 L972.182 1419.96 Q970.987 1424.64 970.987 1426.29 Q970.987 1428.33 971.971 1429.7 Q972.954 1431.03 974.922 1431.03 Q975.695 1431.03 976.573 1430.82 Q977.452 1430.57 978.576 1429.94 Q979.735 1429.27 980.754 1428.29 Q981.808 1427.27 982.827 1425.55 Q983.846 1423.83 984.513 1421.62 Q984.724 1420.84 985.427 1420.84 Q986.305 1420.84 986.305 1421.55 Q986.305 1422.14 985.813 1423.41 Q985.357 1424.64 984.338 1426.25 Q983.354 1427.83 982.054 1429.27 Q980.754 1430.68 978.822 1431.66 Q976.889 1432.65 974.781 1432.65 Q971.76 1432.65 969.757 1431.03 Q967.755 1429.42 967.017 1427.17 Q966.841 1427.48 966.595 1427.9 Q966.349 1428.33 965.612 1429.27 Q964.909 1430.19 964.101 1430.89 Q963.293 1431.56 962.028 1432.09 Q960.798 1432.65 959.463 1432.65 Q957.777 1432.65 956.266 1432.16 Q954.79 1431.66 953.736 1430.54 Q952.682 1429.42 952.682 1427.87 Q952.682 1426.15 953.842 1424.95 Q955.036 1423.72 956.652 1423.72 Q957.671 1423.72 958.479 1424.32 Q959.323 1424.92 959.323 1426.22 Q959.323 1427.66 958.339 1428.75 Q957.355 1429.84 955.95 1430.12 Q957.39 1431.03 959.533 1431.03 Q961.852 1431.03 963.679 1428.99 Q965.506 1426.96 966.384 1423.55 Q968.563 1415.36 969.406 1411.71 Q970.249 1408.02 970.249 1406.44 Q970.249 1404.96 969.863 1403.94 Q969.476 1402.92 968.809 1402.47 Q968.176 1401.98 967.579 1401.8 Q967.017 1401.62 966.384 1401.62 Q965.33 1401.62 964.136 1402.05 Q962.977 1402.47 961.571 1403.45 Q960.201 1404.4 958.901 1406.37 Q957.601 1408.34 956.723 1411.04 Q956.547 1411.85 955.774 1411.85 Q954.931 1411.81 954.931 1411.11 Q954.931 1410.51 955.388 1409.28 Q955.88 1408.02 956.863 1406.44 Q957.882 1404.86 959.182 1403.45 Q960.517 1402.01 962.45 1401.03 Q964.417 1400.04 966.525 1400.04 Q967.474 1400.04 968.387 1400.25 Q969.336 1400.43 970.46 1400.96 Q971.619 1401.48 972.638 1402.64 Q973.657 1403.8 974.29 1405.49 Q974.711 1404.68 975.273 1403.91 Q975.871 1403.14 976.784 1402.19 Q977.733 1401.2 979.033 1400.64 Q980.368 1400.04 981.843 1400.04 Q983.284 1400.04 984.689 1400.43 Q986.094 1400.78 987.289 1401.94 Q988.519 1403.07 988.519 1404.79 Z" fill="#000000" fill-rule="nonzero" fill-opacity="1" /><path clip-path="url(#clip470)" d="M1025.77 1402.78 Q1025.77 1403.28 1025.45 1404.44 L1018.57 1431.91 Q1017.05 1438.02 1012.14 1442.31 Q1007.25 1446.6 1001.7 1446.6 Q998.363 1446.6 996.22 1444.8 Q994.077 1443.05 994.077 1440.34 Q994.077 1437.95 995.342 1436.79 Q996.607 1435.67 998.118 1435.67 Q998.609 1435.67 999.136 1435.81 Q999.663 1435.95 1000.23 1436.55 Q1000.79 1437.14 1000.79 1438.16 Q1000.79 1439.81 999.347 1441.11 Q998.645 1441.71 997.977 1441.85 Q997.345 1441.99 996.255 1441.99 Q996.677 1442.98 997.45 1443.64 Q998.223 1444.31 999.101 1444.56 Q999.98 1444.84 1000.54 1444.91 Q1001.14 1445.01 1001.7 1445.01 Q1006.2 1445.01 1009.64 1440.48 Q1010.66 1439.11 1011.4 1437.74 Q1012.17 1436.41 1012.73 1434.76 Q1013.3 1433.14 1013.54 1432.26 Q1013.82 1431.38 1014.31 1429.38 Q1011.05 1432.65 1007.04 1432.65 Q1005.36 1432.65 1003.84 1432.19 Q1002.37 1431.73 1001.07 1430.79 Q999.769 1429.8 998.996 1428.08 Q998.258 1426.36 998.258 1424.08 Q998.258 1421.65 999.207 1418.35 Q1000.16 1415.05 1002.44 1408.97 Q1003.67 1405.56 1003.67 1403.91 Q1003.67 1403.1 1003.49 1402.61 Q1003.32 1402.08 1002.97 1401.91 Q1002.61 1401.69 1002.4 1401.66 Q1002.23 1401.62 1001.88 1401.62 Q999.804 1401.62 997.872 1403.73 Q995.939 1405.84 994.604 1410.55 Q994.323 1411.43 994.147 1411.64 Q993.972 1411.85 993.445 1411.85 Q992.566 1411.81 992.566 1411.11 Q992.566 1410.83 992.883 1409.74 Q993.199 1408.62 993.937 1406.96 Q994.71 1405.28 995.764 1403.77 Q996.818 1402.22 998.469 1401.13 Q1000.16 1400.04 1002.09 1400.04 Q1004.72 1400.04 1006.34 1401.77 Q1007.99 1403.45 1007.99 1405.95 Q1007.99 1406.96 1007.71 1407.88 Q1007.46 1408.76 1006.55 1411.11 Q1002.86 1420.6 1002.86 1425.23 Q1002.86 1426.36 1003.04 1427.31 Q1003.25 1428.22 1003.7 1429.13 Q1004.16 1430.01 1005.07 1430.54 Q1006.02 1431.03 1007.32 1431.03 Q1008.97 1431.03 1010.52 1430.26 Q1012.1 1429.45 1013.08 1428.36 Q1014.1 1427.27 1014.7 1426.36 Q1015.33 1425.41 1015.47 1424.92 L1018.71 1411.99 L1020.15 1406.23 Q1020.81 1403.1 1021.13 1402.33 Q1021.55 1401.59 1022.29 1401.2 Q1023.03 1400.82 1023.66 1400.82 Q1024.54 1400.82 1025.14 1401.34 Q1025.77 1401.87 1025.77 1402.78 Z" fill="#000000" fill-rule="nonzero" fill-opacity="1" /><path clip-path="url(#clip470)" d="M1049.08 1414.73 Q1047.43 1414.73 1047.43 1413.85 Q1047.43 1412.97 1049.15 1412.97 Q1049.36 1412.97 1049.71 1413.01 Q1050.1 1413.04 1050.17 1413.04 L1070.44 1413.04 L1070.44 1392.7 Q1070.44 1392.63 1070.41 1392.31 Q1070.37 1391.96 1070.37 1391.75 Q1070.37 1390.03 1071.22 1390.03 Q1072.09 1390.03 1072.09 1391.75 L1072.09 1413.04 L1092.4 1413.04 Q1092.47 1413.04 1092.82 1413.01 Q1093.17 1412.97 1093.38 1412.97 Q1095.04 1412.97 1095.04 1413.85 Q1095.07 1414.73 1093.31 1414.73 Q1093.1 1414.73 1092.79 1414.69 Q1092.47 1414.66 1092.4 1414.66 L1072.09 1414.66 L1072.09 1436.02 Q1072.09 1437.67 1071.22 1437.67 Q1070.37 1437.67 1070.37 1435.95 Q1070.37 1435.74 1070.41 1435.39 Q1070.44 1435.07 1070.44 1435 L1070.44 1414.66 L1050.17 1414.66 Q1050.1 1414.66 1049.68 1414.69 Q1049.29 1414.73 1049.08 1414.73 Z" fill="#000000" fill-rule="nonzero" fill-opacity="1" /><path clip-path="url(#clip470)" d="M1122.82 1408.83 Q1122.82 1398.25 1125.49 1392.49 Q1129.22 1383.92 1138 1383.92 Q1139.86 1383.92 1141.8 1384.44 Q1143.76 1384.94 1146.22 1386.87 Q1148.72 1388.8 1150.23 1391.96 Q1153.11 1398.08 1153.11 1408.83 Q1153.11 1419.33 1150.44 1425.06 Q1146.54 1433.42 1137.93 1433.42 Q1134.7 1433.42 1131.4 1431.77 Q1128.13 1430.12 1126.06 1426.15 Q1122.82 1420.21 1122.82 1408.83 M1128.8 1407.95 Q1128.8 1418.8 1129.57 1423.13 Q1130.45 1427.8 1132.84 1429.84 Q1135.26 1431.84 1137.93 1431.84 Q1140.81 1431.84 1143.2 1429.7 Q1145.63 1427.52 1146.36 1422.85 Q1147.17 1418.24 1147.14 1407.95 Q1147.14 1397.94 1146.43 1393.93 Q1145.49 1389.26 1142.96 1387.4 Q1140.46 1385.5 1137.93 1385.5 Q1136.98 1385.5 1135.96 1385.78 Q1134.98 1386.06 1133.54 1386.87 Q1132.1 1387.68 1130.98 1389.68 Q1129.89 1391.68 1129.36 1394.7 Q1128.8 1398.6 1128.8 1407.95 Z" fill="#000000" fill-rule="nonzero" fill-opacity="1" /><path clip-path="url(#clip470)" d="M1159.55 1430.68 Q1158.46 1429.52 1158.46 1428.01 Q1158.46 1426.5 1159.55 1425.41 Q1160.64 1424.29 1162.29 1424.29 Q1163.87 1424.29 1164.92 1425.34 Q1166.01 1426.36 1166.01 1428.05 Q1166.01 1429.7 1164.85 1430.79 Q1163.73 1431.84 1162.29 1431.84 Q1160.64 1431.84 1159.55 1430.68 Z" fill="#000000" fill-rule="nonzero" fill-opacity="1" /><path clip-path="url(#clip470)" d="M1178.26 1408.83 Q1178.26 1398.25 1180.93 1392.49 Q1184.65 1383.92 1193.43 1383.92 Q1195.3 1383.92 1197.23 1384.44 Q1199.2 1384.94 1201.66 1386.87 Q1204.15 1388.8 1205.66 1391.96 Q1208.54 1398.08 1208.54 1408.83 Q1208.54 1419.33 1205.87 1425.06 Q1201.97 1433.42 1193.36 1433.42 Q1190.13 1433.42 1186.83 1431.77 Q1183.56 1430.12 1181.49 1426.15 Q1178.26 1420.21 1178.26 1408.83 M1184.23 1407.95 Q1184.23 1418.8 1185 1423.13 Q1185.88 1427.8 1188.27 1429.84 Q1190.69 1431.84 1193.36 1431.84 Q1196.25 1431.84 1198.63 1429.7 Q1201.06 1427.52 1201.8 1422.85 Q1202.6 1418.24 1202.57 1407.95 Q1202.57 1397.94 1201.87 1393.93 Q1200.92 1389.26 1198.39 1387.4 Q1195.89 1385.5 1193.36 1385.5 Q1192.42 1385.5 1191.4 1385.78 Q1190.41 1386.06 1188.97 1386.87 Q1187.53 1387.68 1186.41 1389.68 Q1185.32 1391.68 1184.79 1394.7 Q1184.23 1398.6 1184.23 1407.95 Z" fill="#000000" fill-rule="nonzero" fill-opacity="1" /><path clip-path="url(#clip470)" d="M1214.18 1431.84 Q1214.18 1430.54 1214.28 1430.15 Q1214.42 1429.77 1214.99 1429.17 L1228.79 1413.78 Q1236.35 1405.28 1236.35 1397.87 Q1236.35 1393.05 1233.82 1389.61 Q1231.32 1386.17 1226.72 1386.17 Q1223.56 1386.17 1220.89 1388.1 Q1218.22 1390.03 1216.99 1393.47 Q1217.2 1393.4 1217.94 1393.4 Q1219.73 1393.4 1220.71 1394.53 Q1221.73 1395.65 1221.73 1397.16 Q1221.73 1399.09 1220.47 1400.04 Q1219.24 1400.96 1218.01 1400.96 Q1217.52 1400.96 1216.85 1400.85 Q1216.22 1400.75 1215.2 1399.76 Q1214.18 1398.74 1214.18 1396.95 Q1214.18 1391.93 1217.97 1387.92 Q1221.8 1383.92 1227.63 1383.92 Q1234.24 1383.92 1238.56 1387.85 Q1242.92 1391.75 1242.92 1397.87 Q1242.92 1400.01 1242.25 1401.98 Q1241.62 1403.91 1240.74 1405.42 Q1239.9 1406.93 1237.58 1409.35 Q1235.26 1411.78 1233.4 1413.5 Q1231.53 1415.22 1227.35 1418.88 L1219.73 1426.29 L1232.69 1426.29 Q1239.02 1426.29 1239.51 1425.73 Q1240.21 1424.71 1241.09 1419.33 L1242.92 1419.33 L1240.88 1431.84 L1214.18 1431.84 Z" fill="#000000" fill-rule="nonzero" fill-opacity="1" /><path clip-path="url(#clip470)" d="M1283.01 1402.78 Q1283.01 1403.28 1282.7 1404.44 L1275.81 1431.91 Q1274.3 1438.02 1269.38 1442.31 Q1264.5 1446.6 1258.95 1446.6 Q1255.61 1446.6 1253.46 1444.8 Q1251.32 1443.05 1251.32 1440.34 Q1251.32 1437.95 1252.59 1436.79 Q1253.85 1435.67 1255.36 1435.67 Q1255.85 1435.67 1256.38 1435.81 Q1256.91 1435.95 1257.47 1436.55 Q1258.03 1437.14 1258.03 1438.16 Q1258.03 1439.81 1256.59 1441.11 Q1255.89 1441.71 1255.22 1441.85 Q1254.59 1441.99 1253.5 1441.99 Q1253.92 1442.98 1254.69 1443.64 Q1255.47 1444.31 1256.35 1444.56 Q1257.22 1444.84 1257.79 1444.91 Q1258.38 1445.01 1258.95 1445.01 Q1263.44 1445.01 1266.89 1440.48 Q1267.9 1439.11 1268.64 1437.74 Q1269.42 1436.41 1269.98 1434.76 Q1270.54 1433.14 1270.79 1432.26 Q1271.07 1431.38 1271.56 1429.38 Q1268.29 1432.65 1264.29 1432.65 Q1262.6 1432.65 1261.09 1432.19 Q1259.61 1431.73 1258.31 1430.79 Q1257.01 1429.8 1256.24 1428.08 Q1255.5 1426.36 1255.5 1424.08 Q1255.5 1421.65 1256.45 1418.35 Q1257.4 1415.05 1259.68 1408.97 Q1260.91 1405.56 1260.91 1403.91 Q1260.91 1403.1 1260.74 1402.61 Q1260.56 1402.08 1260.21 1401.91 Q1259.86 1401.69 1259.65 1401.66 Q1259.47 1401.62 1259.12 1401.62 Q1257.05 1401.62 1255.12 1403.73 Q1253.18 1405.84 1251.85 1410.55 Q1251.57 1411.43 1251.39 1411.64 Q1251.22 1411.85 1250.69 1411.85 Q1249.81 1411.81 1249.81 1411.11 Q1249.81 1410.83 1250.13 1409.74 Q1250.44 1408.62 1251.18 1406.96 Q1251.95 1405.28 1253.01 1403.77 Q1254.06 1402.22 1255.71 1401.13 Q1257.4 1400.04 1259.33 1400.04 Q1261.97 1400.04 1263.58 1401.77 Q1265.23 1403.45 1265.23 1405.95 Q1265.23 1406.96 1264.95 1407.88 Q1264.71 1408.76 1263.79 1411.11 Q1260.1 1420.6 1260.1 1425.23 Q1260.1 1426.36 1260.28 1427.31 Q1260.49 1428.22 1260.95 1429.13 Q1261.4 1430.01 1262.32 1430.54 Q1263.27 1431.03 1264.57 1431.03 Q1266.22 1431.03 1267.76 1430.26 Q1269.34 1429.45 1270.33 1428.36 Q1271.35 1427.27 1271.94 1426.36 Q1272.58 1425.41 1272.72 1424.92 L1275.95 1411.99 L1277.39 1406.23 Q1278.06 1403.1 1278.37 1402.33 Q1278.8 1401.59 1279.53 1401.2 Q1280.27 1400.82 1280.9 1400.82 Q1281.78 1400.82 1282.38 1401.34 Q1283.01 1401.87 1283.01 1402.78 Z" fill="#000000" fill-rule="nonzero" fill-opacity="1" /><path clip-path="url(#clip470)" d="M1290.37 1410.32 Q1290.37 1409.41 1290.44 1409.14 Q1290.54 1408.87 1290.93 1408.45 L1300.6 1397.68 Q1305.88 1391.73 1305.88 1386.54 Q1305.88 1383.17 1304.11 1380.76 Q1302.37 1378.35 1299.15 1378.35 Q1296.93 1378.35 1295.06 1379.7 Q1293.19 1381.06 1292.33 1383.47 Q1292.48 1383.42 1293 1383.42 Q1294.25 1383.42 1294.94 1384.21 Q1295.65 1384.99 1295.65 1386.05 Q1295.65 1387.4 1294.77 1388.07 Q1293.91 1388.71 1293.05 1388.71 Q1292.7 1388.71 1292.23 1388.63 Q1291.79 1388.56 1291.08 1387.87 Q1290.37 1387.16 1290.37 1385.9 Q1290.37 1382.39 1293.02 1379.58 Q1295.7 1376.78 1299.79 1376.78 Q1304.41 1376.78 1307.43 1379.53 Q1310.48 1382.26 1310.48 1386.54 Q1310.48 1388.04 1310.02 1389.42 Q1309.57 1390.77 1308.96 1391.83 Q1308.37 1392.89 1306.74 1394.58 Q1305.12 1396.28 1303.82 1397.49 Q1302.51 1398.69 1299.59 1401.25 L1294.25 1406.44 L1303.33 1406.44 Q1307.75 1406.44 1308.1 1406.04 Q1308.59 1405.33 1309.2 1401.57 L1310.48 1401.57 L1309.06 1410.32 L1290.37 1410.32 Z" fill="#000000" fill-rule="nonzero" fill-opacity="1" /><path clip-path="url(#clip470)" d="M1385.43 1412.83 Q1385.85 1413.25 1385.85 1413.85 Q1385.85 1414.45 1385.43 1414.87 Q1385 1415.29 1384.41 1415.29 L1339.36 1415.29 Q1338.77 1415.29 1338.35 1414.87 Q1337.92 1414.45 1337.92 1413.85 Q1337.92 1413.25 1338.35 1412.83 Q1338.77 1412.41 1339.36 1412.41 L1384.41 1412.41 Q1385 1412.41 1385.43 1412.83 Z" fill="#000000" fill-rule="nonzero" fill-opacity="1" /><path clip-path="url(#clip470)" d="M1413.32 1408.83 Q1413.32 1398.25 1415.99 1392.49 Q1419.71 1383.92 1428.5 1383.92 Q1430.36 1383.92 1432.29 1384.44 Q1434.26 1384.94 1436.72 1386.87 Q1439.21 1388.8 1440.72 1391.96 Q1443.6 1398.08 1443.6 1408.83 Q1443.6 1419.33 1440.93 1425.06 Q1437.03 1433.42 1428.43 1433.42 Q1425.19 1433.42 1421.89 1431.77 Q1418.62 1430.12 1416.55 1426.15 Q1413.32 1420.21 1413.32 1408.83 M1419.29 1407.95 Q1419.29 1418.8 1420.06 1423.13 Q1420.94 1427.8 1423.33 1429.84 Q1425.76 1431.84 1428.43 1431.84 Q1431.31 1431.84 1433.7 1429.7 Q1436.12 1427.52 1436.86 1422.85 Q1437.67 1418.24 1437.63 1407.95 Q1437.63 1397.94 1436.93 1393.93 Q1435.98 1389.26 1433.45 1387.4 Q1430.96 1385.5 1428.43 1385.5 Q1427.48 1385.5 1426.46 1385.78 Q1425.47 1386.06 1424.03 1386.87 Q1422.59 1387.68 1421.47 1389.68 Q1420.38 1391.68 1419.85 1394.7 Q1419.29 1398.6 1419.29 1407.95 Z" fill="#000000" fill-rule="nonzero" fill-opacity="1" /><path clip-path="url(#clip470)" d="M1450.04 1430.68 Q1448.95 1429.52 1448.95 1428.01 Q1448.95 1426.5 1450.04 1425.41 Q1451.13 1424.29 1452.78 1424.29 Q1454.36 1424.29 1455.42 1425.34 Q1456.51 1426.36 1456.51 1428.05 Q1456.51 1429.7 1455.35 1430.79 Q1454.22 1431.84 1452.78 1431.84 Q1451.13 1431.84 1450.04 1430.68 Z" fill="#000000" fill-rule="nonzero" fill-opacity="1" /><path clip-path="url(#clip470)" d="M1468.75 1419.96 L1468.75 1417.75 L1490.85 1383.99 Q1491.41 1383.11 1492.29 1383.14 Q1493.1 1383.14 1493.27 1383.46 Q1493.45 1383.78 1493.45 1385.01 L1493.45 1417.75 L1500.65 1417.75 L1500.65 1419.96 L1493.45 1419.96 L1493.45 1426.22 Q1493.45 1428.29 1494.29 1428.96 Q1495.17 1429.63 1498.9 1429.63 L1500.41 1429.63 L1500.41 1431.84 Q1497.46 1431.63 1490.64 1431.63 Q1483.86 1431.63 1480.91 1431.84 L1480.91 1429.63 L1482.42 1429.63 Q1486.14 1429.63 1487.02 1428.99 Q1487.9 1428.33 1487.9 1426.22 L1487.9 1419.96 L1468.75 1419.96 M1470.79 1417.75 L1488.32 1417.75 L1488.32 1390.91 L1470.79 1417.75 Z" fill="#000000" fill-rule="nonzero" fill-opacity="1" /><path clip-path="url(#clip470)" d="M1504.99 1390.77 L1504.99 1388.52 Q1513.64 1388.52 1518.1 1383.92 Q1519.33 1383.92 1519.54 1384.2 Q1519.75 1384.48 1519.75 1385.78 L1519.75 1426.15 Q1519.75 1428.29 1520.8 1428.96 Q1521.86 1429.63 1526.46 1429.63 L1528.74 1429.63 L1528.74 1431.84 Q1526.21 1431.63 1517.08 1431.63 Q1507.94 1431.63 1505.45 1431.84 L1505.45 1429.63 L1507.73 1429.63 Q1512.26 1429.63 1513.35 1428.99 Q1514.44 1428.33 1514.44 1426.15 L1514.44 1388.87 Q1510.68 1390.77 1504.99 1390.77 Z" fill="#000000" fill-rule="nonzero" fill-opacity="1" /><path clip-path="url(#clip470)" d="M1572.72 1404.79 Q1572.72 1406.75 1571.49 1407.88 Q1570.26 1408.97 1568.85 1408.97 Q1567.52 1408.97 1566.81 1408.19 Q1566.11 1407.42 1566.11 1406.44 Q1566.11 1405.1 1567.1 1403.94 Q1568.08 1402.78 1569.56 1402.54 Q1568.11 1401.62 1565.97 1401.62 Q1564.57 1401.62 1563.34 1402.36 Q1562.14 1403.1 1561.4 1404.05 Q1560.7 1405 1560.07 1406.37 Q1559.47 1407.7 1559.23 1408.51 Q1559.02 1409.28 1558.84 1410.13 L1556.38 1419.96 Q1555.19 1424.64 1555.19 1426.29 Q1555.19 1428.33 1556.17 1429.7 Q1557.15 1431.03 1559.12 1431.03 Q1559.89 1431.03 1560.77 1430.82 Q1561.65 1430.57 1562.77 1429.94 Q1563.93 1429.27 1564.95 1428.29 Q1566.01 1427.27 1567.03 1425.55 Q1568.04 1423.83 1568.71 1421.62 Q1568.92 1420.84 1569.63 1420.84 Q1570.5 1420.84 1570.5 1421.55 Q1570.5 1422.14 1570.01 1423.41 Q1569.56 1424.64 1568.54 1426.25 Q1567.55 1427.83 1566.25 1429.27 Q1564.95 1430.68 1563.02 1431.66 Q1561.09 1432.65 1558.98 1432.65 Q1555.96 1432.65 1553.96 1431.03 Q1551.95 1429.42 1551.22 1427.17 Q1551.04 1427.48 1550.79 1427.9 Q1550.55 1428.33 1549.81 1429.27 Q1549.11 1430.19 1548.3 1430.89 Q1547.49 1431.56 1546.23 1432.09 Q1545 1432.65 1543.66 1432.65 Q1541.98 1432.65 1540.46 1432.16 Q1538.99 1431.66 1537.94 1430.54 Q1536.88 1429.42 1536.88 1427.87 Q1536.88 1426.15 1538.04 1424.95 Q1539.23 1423.72 1540.85 1423.72 Q1541.87 1423.72 1542.68 1424.32 Q1543.52 1424.92 1543.52 1426.22 Q1543.52 1427.66 1542.54 1428.75 Q1541.55 1429.84 1540.15 1430.12 Q1541.59 1431.03 1543.73 1431.03 Q1546.05 1431.03 1547.88 1428.99 Q1549.7 1426.96 1550.58 1423.55 Q1552.76 1415.36 1553.6 1411.71 Q1554.45 1408.02 1554.45 1406.44 Q1554.45 1404.96 1554.06 1403.94 Q1553.67 1402.92 1553.01 1402.47 Q1552.37 1401.98 1551.78 1401.8 Q1551.22 1401.62 1550.58 1401.62 Q1549.53 1401.62 1548.33 1402.05 Q1547.18 1402.47 1545.77 1403.45 Q1544.4 1404.4 1543.1 1406.37 Q1541.8 1408.34 1540.92 1411.04 Q1540.75 1411.85 1539.97 1411.85 Q1539.13 1411.81 1539.13 1411.11 Q1539.13 1410.51 1539.59 1409.28 Q1540.08 1408.02 1541.06 1406.44 Q1542.08 1404.86 1543.38 1403.45 Q1544.72 1402.01 1546.65 1401.03 Q1548.62 1400.04 1550.72 1400.04 Q1551.67 1400.04 1552.59 1400.25 Q1553.53 1400.43 1554.66 1400.96 Q1555.82 1401.48 1556.84 1402.64 Q1557.86 1403.8 1558.49 1405.49 Q1558.91 1404.68 1559.47 1403.91 Q1560.07 1403.14 1560.98 1402.19 Q1561.93 1401.2 1563.23 1400.64 Q1564.57 1400.04 1566.04 1400.04 Q1567.48 1400.04 1568.89 1400.43 Q1570.29 1400.78 1571.49 1401.94 Q1572.72 1403.07 1572.72 1404.79 Z" fill="#000000" fill-rule="nonzero" fill-opacity="1" /><path clip-path="url(#clip470)" d="M1645.09 1412.83 Q1645.51 1413.25 1645.51 1413.85 Q1645.51 1414.45 1645.09 1414.87 Q1644.67 1415.29 1644.07 1415.29 L1599.03 1415.29 Q1598.43 1415.29 1598.01 1414.87 Q1597.59 1414.45 1597.59 1413.85 Q1597.59 1413.25 1598.01 1412.83 Q1598.43 1412.41 1599.03 1412.41 L1644.07 1412.41 Q1644.67 1412.41 1645.09 1412.83 Z" fill="#000000" fill-rule="nonzero" fill-opacity="1" /><path clip-path="url(#clip470)" d="M1672.98 1408.83 Q1672.98 1398.25 1675.66 1392.49 Q1679.38 1383.92 1688.16 1383.92 Q1690.02 1383.92 1691.96 1384.44 Q1693.92 1384.94 1696.38 1386.87 Q1698.88 1388.8 1700.39 1391.96 Q1703.27 1398.08 1703.27 1408.83 Q1703.27 1419.33 1700.6 1425.06 Q1696.7 1433.42 1688.09 1433.42 Q1684.86 1433.42 1681.56 1431.77 Q1678.29 1430.12 1676.22 1426.15 Q1672.98 1420.21 1672.98 1408.83 M1678.96 1407.95 Q1678.96 1418.8 1679.73 1423.13 Q1680.61 1427.8 1683 1429.84 Q1685.42 1431.84 1688.09 1431.84 Q1690.97 1431.84 1693.36 1429.7 Q1695.79 1427.52 1696.52 1422.85 Q1697.33 1418.24 1697.3 1407.95 Q1697.3 1397.94 1696.59 1393.93 Q1695.65 1389.26 1693.12 1387.4 Q1690.62 1385.5 1688.09 1385.5 Q1687.14 1385.5 1686.12 1385.78 Q1685.14 1386.06 1683.7 1386.87 Q1682.26 1387.68 1681.14 1389.68 Q1680.05 1391.68 1679.52 1394.7 Q1678.96 1398.6 1678.96 1407.95 Z" fill="#000000" fill-rule="nonzero" fill-opacity="1" /><path clip-path="url(#clip470)" d="M1709.71 1430.68 Q1708.62 1429.52 1708.62 1428.01 Q1708.62 1426.5 1709.71 1425.41 Q1710.8 1424.29 1712.45 1424.29 Q1714.03 1424.29 1715.08 1425.34 Q1716.17 1426.36 1716.17 1428.05 Q1716.17 1429.7 1715.01 1430.79 Q1713.89 1431.84 1712.45 1431.84 Q1710.8 1431.84 1709.71 1430.68 Z" fill="#000000" fill-rule="nonzero" fill-opacity="1" /><path clip-path="url(#clip470)" d="M1721.17 1390.77 L1721.17 1388.52 Q1729.81 1388.52 1734.27 1383.92 Q1735.5 1383.92 1735.71 1384.2 Q1735.92 1384.48 1735.92 1385.78 L1735.92 1426.15 Q1735.92 1428.29 1736.98 1428.96 Q1738.03 1429.63 1742.63 1429.63 L1744.92 1429.63 L1744.92 1431.84 Q1742.39 1431.63 1733.25 1431.63 Q1724.12 1431.63 1721.62 1431.84 L1721.62 1429.63 L1723.91 1429.63 Q1728.44 1429.63 1729.53 1428.99 Q1730.62 1428.33 1730.62 1426.15 L1730.62 1388.87 Q1726.86 1390.77 1721.17 1390.77 Z" fill="#000000" fill-rule="nonzero" fill-opacity="1" /><path clip-path="url(#clip470)" d="M1747.33 1409.11 Q1747.33 1397.8 1753.1 1390.87 Q1758.86 1383.92 1766.27 1383.92 Q1770.59 1383.92 1772.98 1386.13 Q1775.41 1388.31 1775.41 1391.68 Q1775.41 1393.54 1774.32 1394.35 Q1773.23 1395.16 1772.1 1395.16 Q1770.8 1395.16 1769.78 1394.28 Q1768.76 1393.4 1768.76 1391.82 Q1768.76 1388.59 1772.74 1388.59 Q1770.87 1385.71 1766.41 1385.71 Q1765.04 1385.71 1763.64 1386.13 Q1762.23 1386.52 1760.4 1387.85 Q1758.58 1389.19 1757.17 1391.3 Q1755.77 1393.4 1754.78 1397.37 Q1753.8 1401.34 1753.8 1406.51 L1753.8 1408.23 Q1756.75 1401.1 1762.79 1401.13 Q1768.84 1401.13 1773.02 1405.74 Q1777.2 1410.34 1777.2 1417.15 Q1777.2 1424.15 1772.84 1428.78 Q1768.48 1433.42 1762.37 1433.42 Q1759.63 1433.42 1757.14 1432.26 Q1754.68 1431.14 1752.36 1428.54 Q1750.07 1425.94 1748.7 1420.95 Q1747.33 1415.96 1747.33 1409.11 M1753.94 1415.57 Q1753.94 1422.63 1755.24 1426.01 Q1755.45 1426.57 1755.91 1427.34 Q1756.4 1428.12 1757.21 1429.13 Q1758.05 1430.12 1759.42 1430.79 Q1760.79 1431.42 1762.37 1431.42 Q1767.18 1431.42 1769.5 1426.75 Q1770.73 1424.15 1770.73 1417.08 Q1770.73 1409.88 1769.43 1407.25 Q1767.22 1402.78 1762.72 1402.78 Q1759.7 1402.78 1757.59 1404.86 Q1755.52 1406.93 1754.71 1409.71 Q1753.94 1412.48 1753.94 1415.57 Z" fill="#000000" fill-rule="nonzero" fill-opacity="1" /><path clip-path="url(#clip470)" d="M1783.25 1431.84 Q1783.25 1430.54 1783.36 1430.15 Q1783.5 1429.77 1784.06 1429.17 L1797.87 1413.78 Q1805.42 1405.28 1805.42 1397.87 Q1805.42 1393.05 1802.89 1389.61 Q1800.4 1386.17 1795.8 1386.17 Q1792.63 1386.17 1789.96 1388.1 Q1787.29 1390.03 1786.06 1393.47 Q1786.28 1393.4 1787.01 1393.4 Q1788.81 1393.4 1789.79 1394.53 Q1790.81 1395.65 1790.81 1397.16 Q1790.81 1399.09 1789.54 1400.04 Q1788.31 1400.96 1787.08 1400.96 Q1786.59 1400.96 1785.92 1400.85 Q1785.29 1400.75 1784.27 1399.76 Q1783.25 1398.74 1783.25 1396.95 Q1783.25 1391.93 1787.05 1387.92 Q1790.88 1383.92 1796.71 1383.92 Q1803.32 1383.92 1807.64 1387.85 Q1811.99 1391.75 1811.99 1397.87 Q1811.99 1400.01 1811.33 1401.98 Q1810.69 1403.91 1809.82 1405.42 Q1808.97 1406.93 1806.65 1409.35 Q1804.33 1411.78 1802.47 1413.5 Q1800.61 1415.22 1796.43 1418.88 L1788.81 1426.29 L1801.77 1426.29 Q1808.09 1426.29 1808.59 1425.73 Q1809.29 1424.71 1810.17 1419.33 L1811.99 1419.33 L1809.96 1431.84 L1783.25 1431.84 Z" fill="#000000" fill-rule="nonzero" fill-opacity="1" /><path clip-path="url(#clip470)" d="M1850.94 1402.78 Q1850.94 1403.28 1850.62 1404.44 L1843.73 1431.91 Q1842.22 1438.02 1837.3 1442.31 Q1832.42 1446.6 1826.87 1446.6 Q1823.53 1446.6 1821.39 1444.8 Q1819.25 1443.05 1819.25 1440.34 Q1819.25 1437.95 1820.51 1436.79 Q1821.78 1435.67 1823.29 1435.67 Q1823.78 1435.67 1824.31 1435.81 Q1824.83 1435.95 1825.39 1436.55 Q1825.96 1437.14 1825.96 1438.16 Q1825.96 1439.81 1824.52 1441.11 Q1823.81 1441.71 1823.15 1441.85 Q1822.51 1441.99 1821.42 1441.99 Q1821.85 1442.98 1822.62 1443.64 Q1823.39 1444.31 1824.27 1444.56 Q1825.15 1444.84 1825.71 1444.91 Q1826.31 1445.01 1826.87 1445.01 Q1831.37 1445.01 1834.81 1440.48 Q1835.83 1439.11 1836.57 1437.74 Q1837.34 1436.41 1837.9 1434.76 Q1838.46 1433.14 1838.71 1432.26 Q1838.99 1431.38 1839.48 1429.38 Q1836.22 1432.65 1832.21 1432.65 Q1830.52 1432.65 1829.01 1432.19 Q1827.54 1431.73 1826.24 1430.79 Q1824.94 1429.8 1824.16 1428.08 Q1823.43 1426.36 1823.43 1424.08 Q1823.43 1421.65 1824.38 1418.35 Q1825.32 1415.05 1827.61 1408.97 Q1828.84 1405.56 1828.84 1403.91 Q1828.84 1403.1 1828.66 1402.61 Q1828.49 1402.08 1828.13 1401.91 Q1827.78 1401.69 1827.57 1401.66 Q1827.4 1401.62 1827.05 1401.62 Q1824.97 1401.62 1823.04 1403.73 Q1821.11 1405.84 1819.77 1410.55 Q1819.49 1411.43 1819.32 1411.64 Q1819.14 1411.85 1818.61 1411.85 Q1817.74 1411.81 1817.74 1411.11 Q1817.74 1410.83 1818.05 1409.74 Q1818.37 1408.62 1819.11 1406.96 Q1819.88 1405.28 1820.93 1403.77 Q1821.99 1402.22 1823.64 1401.13 Q1825.32 1400.04 1827.26 1400.04 Q1829.89 1400.04 1831.51 1401.77 Q1833.16 1403.45 1833.16 1405.95 Q1833.16 1406.96 1832.88 1407.88 Q1832.63 1408.76 1831.72 1411.11 Q1828.03 1420.6 1828.03 1425.23 Q1828.03 1426.36 1828.2 1427.31 Q1828.42 1428.22 1828.87 1429.13 Q1829.33 1430.01 1830.24 1430.54 Q1831.19 1431.03 1832.49 1431.03 Q1834.14 1431.03 1835.69 1430.26 Q1837.27 1429.45 1838.25 1428.36 Q1839.27 1427.27 1839.87 1426.36 Q1840.5 1425.41 1840.64 1424.92 L1843.87 1411.99 L1845.32 1406.23 Q1845.98 1403.1 1846.3 1402.33 Q1846.72 1401.59 1847.46 1401.2 Q1848.2 1400.82 1848.83 1400.82 Q1849.71 1400.82 1850.3 1401.34 Q1850.94 1401.87 1850.94 1402.78 Z" fill="#000000" fill-rule="nonzero" fill-opacity="1" /><path clip-path="url(#clip470)" d="M1874.25 1414.73 Q1872.6 1414.73 1872.6 1413.85 Q1872.6 1412.97 1874.32 1412.97 Q1874.53 1412.97 1874.88 1413.01 Q1875.27 1413.04 1875.34 1413.04 L1895.61 1413.04 L1895.61 1392.7 Q1895.61 1392.63 1895.58 1392.31 Q1895.54 1391.96 1895.54 1391.75 Q1895.54 1390.03 1896.38 1390.03 Q1897.26 1390.03 1897.26 1391.75 L1897.26 1413.04 L1917.57 1413.04 Q1917.64 1413.04 1917.99 1413.01 Q1918.34 1412.97 1918.55 1412.97 Q1920.2 1412.97 1920.2 1413.85 Q1920.24 1414.73 1918.48 1414.73 Q1918.27 1414.73 1917.96 1414.69 Q1917.64 1414.66 1917.57 1414.66 L1897.26 1414.66 L1897.26 1436.02 Q1897.26 1437.67 1896.38 1437.67 Q1895.54 1437.67 1895.54 1435.95 Q1895.54 1435.74 1895.58 1435.39 Q1895.61 1435.07 1895.61 1435 L1895.61 1414.66 L1875.34 1414.66 Q1875.27 1414.66 1874.85 1414.69 Q1874.46 1414.73 1874.25 1414.73 Z" fill="#000000" fill-rule="nonzero" fill-opacity="1" /><path clip-path="url(#clip470)" d="M1947.99 1390.77 L1947.99 1388.52 Q1956.64 1388.52 1961.1 1383.92 Q1962.33 1383.92 1962.54 1384.2 Q1962.75 1384.48 1962.75 1385.78 L1962.75 1426.15 Q1962.75 1428.29 1963.8 1428.96 Q1964.86 1429.63 1969.46 1429.63 L1971.74 1429.63 L1971.74 1431.84 Q1969.21 1431.63 1960.08 1431.63 Q1950.94 1431.63 1948.45 1431.84 L1948.45 1429.63 L1950.73 1429.63 Q1955.27 1429.63 1956.35 1428.99 Q1957.44 1428.33 1957.44 1426.15 L1957.44 1388.87 Q1953.68 1390.77 1947.99 1390.77 Z" fill="#000000" fill-rule="nonzero" fill-opacity="1" /><path clip-path="url(#clip470)" d="M2003.59 1420.91 Q2003.66 1420.03 2005.03 1420.03 L2049.12 1420.03 Q2051.19 1420.03 2051.23 1420.84 Q2051.23 1421.72 2049.26 1421.69 L2005.52 1421.69 Q2003.59 1421.72 2003.59 1420.91 M2003.59 1406.86 Q2003.59 1405.98 2005.1 1406.02 L2049.05 1406.02 Q2051.19 1406.02 2051.23 1406.86 Q2051.23 1407.67 2049.4 1407.67 L2005.03 1407.67 Q2003.59 1407.67 2003.59 1406.86 Z" fill="#000000" fill-rule="nonzero" fill-opacity="1" /><path clip-path="url(#clip470)" d="M2078.98 1408.83 Q2078.98 1398.25 2081.65 1392.49 Q2085.38 1383.92 2094.16 1383.92 Q2096.02 1383.92 2097.95 1384.44 Q2099.92 1384.94 2102.38 1386.87 Q2104.88 1388.8 2106.39 1391.96 Q2109.27 1398.08 2109.27 1408.83 Q2109.27 1419.33 2106.6 1425.06 Q2102.7 1433.42 2094.09 1433.42 Q2090.86 1433.42 2087.55 1431.77 Q2084.29 1430.12 2082.21 1426.15 Q2078.98 1420.21 2078.98 1408.83 M2084.95 1407.95 Q2084.95 1418.8 2085.73 1423.13 Q2086.61 1427.8 2088.99 1429.84 Q2091.42 1431.84 2094.09 1431.84 Q2096.97 1431.84 2099.36 1429.7 Q2101.78 1427.52 2102.52 1422.85 Q2103.33 1418.24 2103.29 1407.95 Q2103.29 1397.94 2102.59 1393.93 Q2101.64 1389.26 2099.11 1387.4 Q2096.62 1385.5 2094.09 1385.5 Q2093.14 1385.5 2092.12 1385.78 Q2091.14 1386.06 2089.7 1386.87 Q2088.26 1387.68 2087.13 1389.68 Q2086.04 1391.68 2085.52 1394.7 Q2084.95 1398.6 2084.95 1407.95 Z" fill="#000000" fill-rule="nonzero" fill-opacity="1" /></svg>
